<svg xmlns="http://www.w3.org/2000/svg" viewBox="0 0 125 125" id="NumberZeroMonster"><g fill="#1a9944" class="color79991a svgShape"><path d="M27.6 56.7c-1.4 1.8-4.5 1.7-5.8-.1-.7-.9-1-2.3-2.1-2.6-1.1-.3-2.2.6-2.9 1.6-1.7 2.4-2.8 5.3-3 8.2-.1.8 0 1.8.7 2.3.4.3 1 .3 1.4.5.9.5 1 1.7.8 2.7s-.5 2-.1 2.9c.5 1.1 1.9 1.5 3 1.1 1.1-.4 1.9-1.4 2.5-2.4.6-1 .9-2.2 1.5-3.2s1.3-2 2.4-2.5c1.7-.7 3.4-1.2 4.6-2.6.8-.9 1-2.3.7-3.5s-1.1-2.2-2-3c-.7.2-1.1.5-1.7.6zM97.4 56.7c1.4 1.8 4.5 1.7 5.8-.1.7-.9 1-2.3 2.1-2.6 1.1-.3 2.2.6 2.9 1.6 1.7 2.4 2.8 5.3 3 8.2.1.8 0 1.8-.7 2.3-.4.3-1 .3-1.4.5-.9.5-1 1.7-.8 2.7s.5 2 .1 2.9c-.5 1.1-1.9 1.5-3 1.1-1.1-.4-1.9-1.4-2.5-2.4-.6-1-.9-2.2-1.5-3.2s-1.3-2-2.4-2.5c-1.7-.7-3.4-1.2-4.6-2.6-.8-.9-1-2.3-.7-3.5s1.1-2.2 2-3c.7.2 1.1.5 1.7.6z" fill="#0a0a0a" class="color000000 svgShape"></path></g><linearGradient id="a" x1="101.991" x2="88.44" y1="14.866" y2="35.663" gradientUnits="userSpaceOnUse"><stop offset="0" stop-color="#ddbc5b" class="stopColora8dd5b svgShape"></stop><stop offset=".248" stop-color="#dab957" class="stopColora8da57 svgShape"></stop><stop offset=".511" stop-color="#d2af4a" class="stopColora7d24a svgShape"></stop><stop offset=".78" stop-color="#c5a035" class="stopColora5c535 svgShape"></stop><stop offset=".989" stop-color="#b8911f" class="stopColora3b81f svgShape"></stop></linearGradient><path fill="url(#a)" d="M91.9 19.2c-.1-1.1-.5-2.4.2-3.3.5-.7 1.6-.9 2.5-.7.9.3 1.6.9 2.2 1.6 1.4 1.5 2.4 3.3 3 5.2 1.2 3.3 1.3 7-.1 10.2-1.2 2.7-3.6 4.9-6.5 5.5-2.9.6-6.2-.5-7.8-3-1.5-2.4-1.4-6.6 1.4-8.1 2.9-1.5 5.4-3.7 5.1-7.4z"></path><path fill="#29ff70" d="M91.9 19.2c-.1-1.1-.5-2.4.2-3.3.5-.7 1.6-.9 2.5-.7.9.3 1.6.9 2.2 1.6 1.4 1.5 2.4 3.3 3 5.2 1.2 3.3 1.3 7-.1 10.2-1.2 2.7-3.6 4.9-6.5 5.5-2.9.6-6.2-.5-7.8-3-1.5-2.4-1.4-6.6 1.4-8.1 2.9-1.5 5.4-3.7 5.1-7.4z" class="color29adff svgShape"></path><path d="M99.8 32.2c-1.2 2.7-3.7 4.9-6.5 5.5-2.3.5-4.9-.2-6.7-1.7 2.7.1 5.3-1.1 7.2-3 2.4-2.5 3.6-6.1 3.6-9.6 0-2-.3-4-1.1-5.9-.4-.9-.8-1.7-1.6-2.2.9.3 1.6.9 2.2 1.6 1.3 1.5 2.4 3.3 3 5.2 1.1 3.2 1.3 6.9-.1 10.1z" opacity=".15" fill="#0a0a0a" class="color000000 svgShape"></path><path d="M95.4 28.8c.4-.4.7-.9 1.1-1.3.4-.1.8.2.9.6.1.4 0 .8-.2 1.1-.2.3-.5.6-.8.8-.2.1-.4.2-.6.2-.3-.1-.5-.5-.5-.8s.3-.6.5-.9M95.9 23.8c.3-.4.6-.7 1-1.1.2-.2.6.1.6.4 0 .3-.2.5-.4.7-.3.3-.5.6-.9.7-.4.1-.8 0-1-.3.2-.3.5-.6.7-.9M93.4 32.9c.2-.5.5-1 .8-1.5.1-.1.3-.3.5-.3.3 0 .5.3.4.6 0 .3-.2.5-.4.7-.1.2-.3.4-.5.5-.2.1-.5.1-.6 0-.2-.1-.2-.5 0-.6M98.7 25c.3-.1.5-.2.8-.3 0 .5-.2.9-.6 1.2-.2.2-.6.3-.8.1-.1-.1-.2-.4-.1-.6s.2-.3.4-.5M97.2 31.8c.2-.2.3-.4.3-.6.1-.2.1-.5.3-.6.2-.2.5-.1.6.1.1.1 0 .3 0 .4-.1.3-.3.6-.6.9-.1.1-.3.3-.5.2-.1-.2-.1-.3-.1-.4.1-.2.2-.3.3-.4M94.5 34.8c.2-.2.3-.6.5-.9.2-.3.5-.5.8-.3.2.2.1.6 0 .8-.2.3-.5.6-.9.8-.1.1-.2.1-.3.1-.2 0-.3-.2-.2-.4s.1-.3.2-.5" opacity=".15" fill="#0a0a0a" class="color000000 svgShape"></path><path fill="#ffffff" d="M93.5 19c.2-.5.6-1.1 1.2-1.1.5.1.8.7.9 1.2.1.8-.2 1.7-.7 2.3-.4.5-1 .9-1.3 1.5-.3.6-.1 1.3-.2 2-.2 2.3-3.2 1-2.3-.4.5-.8 1.2-1.3 1.6-2.3.3-1 .4-2.2.8-3.2z" opacity=".15" class="colorffffff svgShape"></path><linearGradient id="b" x1="108.143" x2="94.592" y1="14.866" y2="35.663" gradientTransform="matrix(-1 0 0 1 132.47 0)" gradientUnits="userSpaceOnUse"><stop offset="0" stop-color="#ddbc5b" class="stopColora8dd5b svgShape"></stop><stop offset=".248" stop-color="#dab957" class="stopColora8da57 svgShape"></stop><stop offset=".511" stop-color="#d2af4a" class="stopColora7d24a svgShape"></stop><stop offset=".78" stop-color="#c5a035" class="stopColora5c535 svgShape"></stop><stop offset=".989" stop-color="#b8911f" class="stopColora3b81f svgShape"></stop></linearGradient><path fill="url(#b)" d="M34.4 19.2c.1-1.1.5-2.4-.2-3.3-.5-.7-1.6-.9-2.5-.7-.9.3-1.6.9-2.2 1.6-1.4 1.5-2.4 3.3-3 5.2-1.2 3.3-1.3 7 .1 10.2 1.2 2.7 3.6 4.9 6.5 5.5 2.9.6 6.2-.5 7.8-3 1.5-2.4 1.4-6.6-1.4-8.1-2.9-1.5-5.4-3.7-5.1-7.4z"></path><path fill="#29ff70" d="M34.4 19.2c.1-1.1.5-2.4-.2-3.3-.5-.7-1.6-.9-2.5-.7-.9.3-1.6.9-2.2 1.6-1.4 1.5-2.4 3.3-3 5.2-1.2 3.3-1.3 7 .1 10.2 1.2 2.7 3.6 4.9 6.5 5.5 2.9.6 6.2-.5 7.8-3 1.5-2.4 1.4-6.6-1.4-8.1-2.9-1.5-5.4-3.7-5.1-7.4z" class="color29adff svgShape"></path><path d="M26.6 32.2c1.2 2.7 3.7 4.9 6.5 5.5 2.3.5 4.9-.2 6.7-1.7-2.7.1-5.3-1.1-7.2-3-2.4-2.5-3.6-6.1-3.6-9.6 0-2 .3-4 1.1-5.9.4-.9.8-1.7 1.6-2.2-.9.3-1.6.9-2.2 1.6-1.3 1.5-2.4 3.3-3 5.2-1.2 3.2-1.4 6.9.1 10.1z" opacity=".15" fill="#0a0a0a" class="color000000 svgShape"></path><path d="M30.9 28.8c-.4-.4-.7-.9-1.1-1.3-.4-.1-.8.2-.9.6-.1.4 0 .8.2 1.1.2.3.5.6.8.8.2.1.4.2.6.2.3-.1.5-.5.5-.8s-.3-.6-.5-.9M30.4 23.8c-.3-.4-.6-.7-1-1.1-.2-.2-.6.1-.6.4s.2.5.4.7c.3.3.5.6.9.7.4.1.8 0 1-.3-.2-.3-.5-.6-.7-.9M32.9 32.9c-.2-.5-.5-1-.8-1.5-.1-.1-.3-.3-.5-.3-.3 0-.5.3-.4.6 0 .3.2.5.4.7.1.2.3.4.5.5.2.1.5.1.6 0 .2-.1.2-.5 0-.6M27.6 25c-.3-.1-.5-.2-.8-.3 0 .5.2.9.6 1.2.2.2.6.3.8.1.1-.1.2-.4.1-.6s-.3-.2-.5-.4M29.1 31.8c-.2-.2-.3-.4-.3-.6-.1-.2-.1-.5-.3-.6-.2-.2-.5-.1-.6.1-.1.1 0 .3 0 .4.1.3.3.6.6.9.1.1.3.3.5.2.1-.2.1-.3.1-.4-.1-.2-.2-.3-.3-.4M31.8 34.8c-.2-.2-.3-.6-.5-.9-.2-.3-.5-.5-.8-.3-.2.2-.1.6 0 .8.2.3.5.6.9.8.1.1.2.1.3.1.2 0 .3-.2.2-.4 0-.2-.1-.3-.2-.5" opacity=".15" fill="#0a0a0a" class="color000000 svgShape"></path><path fill="#ffffff" d="M32.8 19c-.2-.5-.6-1.1-1.2-1.1-.5.1-.8.7-.9 1.2-.1.8.2 1.7.7 2.3.4.5 1 .9 1.3 1.5.3.6.1 1.3.2 2 .2 2.3 3.2 1 2.3-.4-.5-.8-1.2-1.3-1.6-2.3-.3-1-.4-2.2-.8-3.2z" opacity=".15" class="colorffffff svgShape"></path><path fill="#21bc55" d="M105.1 56.7c.1 7 .1 14 0 21-.2 10.2-4.4 18.1-12.3 23.6-7.9 5.6-18 8.6-30.4 8.6-12.4 0-22.4-3-30.3-8.6-7.8-5.6-12.1-13.5-12.2-23.9-.1-6.8-.1-13.7 0-20.5.2-10.2 4.5-18.1 12.6-23.8 8.1-5.6 18-8.7 30-8.7 11.9 0 21.9 3.1 30 8.7 8.1 5.7 12.4 13.6 12.6 23.6zm-50.9-1.1v23c0 2.1.8 3.9 2.4 5.4 1.6 1.4 3.6 2.1 5.8 2.1 2.3 0 4.2-.7 5.8-2.2 1.6-1.5 2.4-3.2 2.4-5.3v-23c0-2.1-.8-3.9-2.4-5.4-1.6-1.4-3.5-2.1-5.9-2.1-2.4 0-4.3.7-5.9 2.2-1.4 1.4-2.2 3.2-2.2 5.3z" class="color95bc21 svgShape"></path><path d="M61.3 36.2c-.1-.9-.3-1.9-.8-2.7-.5-.7-1.3-1.1-2-1.5-3.3-1.4-7.4-.5-10.1 1.9-.8.7-1.6 1.6-2 2.6-.5 1.1-.6 2.4-.5 3.7.2 1.9.8 3.8 2.1 5.2 1.8 1.7 4.7 2.2 6.9 1-2.1 1.5-4.9 1.5-7.5 1.4 1.7 1.3 4.3 1.3 6 0-1.5 1.5-3.8 2-5.9 2.3 2.7.3 5.5-.3 7.8-1.6.9-.5 1.7-1.2 2.5-1.9.6-.3 1.1-.7 1.5-1.1 1.2-1.2 1.8-2.8 2.1-4.4.2-1.5.1-3.2-.1-4.9zM77.8 52c1.3-.2 2.7-.5 3.9-1.1s2.2-1.6 2.7-2.9c-1.8 1.4-3.7 2.8-5.9 3 .2-.1.3-.2.5-.3 1.5-.9 2.8-2.2 3.4-3.9.7-1.9.5-4 0-6-.7-2.8-2.2-5.6-4.5-7.4s-5.5-2.6-8.3-1.7c-6.4 2-6.1 10.6-3.2 15.3.7 1 1.5 2 2.5 2.7.3.4.8.8 1.1 1.1 1 .9 2.3 1.6 3.6 2 1.9.6 4 .6 6 .2 1.6-.3 3.2-1 4.1-2.3-1.6 1.3-3.9 1.8-5.9 1.3z" opacity=".15" fill="#0a0a0a" class="color000000 svgShape"></path><path fill="#d33291" d="M64.7 91.6c-2.5-.1-5.3-.3-7.8-.8-.3-.1-.6-.2-.8-.4-1.2.5-2.4 1.3-3.2 2.3-1.5 1.8-2.2 4.1-2.3 6.4-.1 1.6.1 3.4 1.2 4.6.8 1 2.1 1.6 3.3 2 1.4.5 2.9.7 4.3.6 1.5-.1 2.9-.7 3.9-1.8 1.2-1.3 1.5-3.1 1.6-4.8.1-1.7-.1-3.5.2-5.2.2-1 .5-2 1-2.8-.4-.1-.9-.1-1.4-.1z" class="colorfd3671 svgShape"></path><path d="M64.7 91.6c-2.5-.1-5.3-.3-7.8-.8-.3-.1-.6-.2-.7-.4-.2.5-.3 1.1-.2 1.7.3 1 1.5 1.6 2.4 1.1-1.7 1.5-2.4 3.8-2.4 6.1.7-2.9 2.8-5.3 5.5-6.6.3.4.5.9.6 1.3.3 1.1.2 2.2.1 3.3-.2 1.8-.6 3.7-2.1 4.6-1.1.7-2.5.7-3.8.5-1.5-.2-3.1-.5-4.4-1.3-.6-.4-1-.8-1.2-1.3v.1c0 1.4.3 2.8 1.2 3.8.8 1 2.1 1.6 3.3 2 1.4.5 2.9.7 4.3.6 1.5-.1 2.9-.7 3.9-1.8 1.2-1.3 1.5-3.1 1.6-4.8.1-1.7-.1-3.5.2-5.2.2-1 .5-2 1-2.8-.5-.1-1-.1-1.5-.1z" opacity=".15" fill="#0a0a0a" class="color000000 svgShape"></path><path fill="#ffffff" d="M52.3 96.7c.4-.1.9.2 1 .6.1.4-.2.9-.6 1-.4.1-.9-.2-1-.6-.1-.4.2-.9.6-1M53.1 94.4c.2-.6.7-1.2 1.3-1.4.2-.1.4-.1.6 0 .2.1.4.2.4.4.1.3-.2.6-.5.8-.3.2-.6.2-.8.5-.3.3-.4.8-.5 1.2 0 .2-.1.3-.1.4-.1.2-.4.3-.5.2-.2-.1-.1-.2-.1-.4-.1-.6 0-1.2.2-1.7z" opacity=".2" class="colorffffff svgShape"></path><path fill="#ffd866" d="M83.3 83.4c-.6-.9-1.5-1.5-2.5-2 0 .1-.1.2-.1.3-1.8 3.2-3.9 5.9-7.5 6.5 0 .2.1.4.1.6.3 1.3 1 2.7 2.1 3.4 1 .7 2.2.9 3.3.9 1.2 0 2.5-.2 3.5-.9.9-.6 1.5-1.6 1.9-2.7.8-1.9.5-4.3-.8-6.1zM71.9 89.7c-.8 1.6-3.7 2-5.2 1.6-.4-.1-.7-.3-1-.5-.8.5-1.8.8-2.8.8-.2 0-.4-.1-.6-.2-.1.7-.1 1.4.1 2.1.4 1.3 1.3 2.3 2.6 2.8a5 5 0 0 0 3.8 0c2-.8 3.5-3 3.4-5.2 0-.4-.1-.9-.3-1.4zM53.5 90.1c-1.7-.9-3-2.3-4.5-3.6-.5 0-.9-.3-1.2-.6-.1.2-.3.4-.4.7-.7 1.5-.7 3.2 0 4.6.3.7.8 1.3 1.4 1.7 1.2.8 2.7.6 4.1.2.8-.2 1.7-.5 2.3-1.2.4-.4.6-.9.7-1.5-.7.3-1.6.1-2.4-.3zM47.1 84.5c-1.4-.8-2.8-3-3.2-4.5-.1-.2-.1-.4-.1-.6-.2.1-.5-.1-.5-.4 0-.1 0-.2.1-.3-1.3.8-2.3 2-2.6 3.5-.2.7-.2 1.5.1 2.2.3.7 1 1.2 1.7 1.5 1.4.6 3.1.3 4.3-.7l.6-.6c-.2 0-.3-.1-.4-.1z" class="colorffffad svgShape"></path><path fill="#674ea7" d="M43.2 75.2c.4-.1.9 0 1.2.2.3.3.4.8 0 1.1-.4.3-.9 0-1.3.2-.6.2-.5.7-.8 1.1-.2.3-.5.1-.6-.3-.5-1.1.5-2.1 1.5-2.3z" class="color702e52 svgShape"></path><path fill="#674ea7" d="M42.6 76.2c.8 4.1 2.6 8.2 5.4 11.3 2.8 3.1 6.7 5.4 10.9 5.8 3.7.3 7.3 0 10.8-1.3 2.5-1 5-2.4 7-4.3 1.4-1.3 2.5-2.9 3.7-4.5 1-1.4 2.1-2.9 2.8-4.5-.2 0-.3-.1-.4-.1-2.5 4.7-6.7 8.4-11.6 10.3-4.9 2-10.5 2.1-15.5.4-2.4-.8-4.8-1.8-6.8-3.4-2-1.5-3.7-3.6-4.5-6-.6-1.4-.9-2.7-1.8-3.7zM83.8 77.6c.3.4.3.8.3 1.3 0 .4 0 .8-.1 1.2 0 .2 0 .3-.1.5-.1.1-.3.2-.4.1-.3-.2-.4-.5-.4-.8-.1-.3-.1-.6-.2-.9-.2-.6-.6-.6-1.1-.6-.4 0-.8-.2-.5-.6.3-.8 2-.9 2.5-.2z" class="color702e52 svgShape"></path><path fill="#f6e8c1" d="M69.6 48c-3.3-2.2-5.2-6.4-4.5-10.3.3-1.7 1.1-3.4 2.4-4.5 1.4-1 3.2-1.4 4.9-1.2 3 .3 5.8 2.1 7.5 4.7 1.6 2.6 2.1 5.8 1.4 8.8-.4 1.7-1.3 3.4-2.7 4.3-1.8 1.1-4.2 1-6.1.2-2-.8-3.6-2.3-5.1-3.7" class="colorc1f2f6 svgShape"></path><path fill="#50c878" d="M74.1 37.3c-1-.7-2.2-.9-3.5-.9-2 .1-4 1-5.1 2.7-.2.3-.3.6-.5 1 .2 3.2 1.9 6.3 4.6 8l-2.3-1.8c1.6 1.4 3.2 2.9 5.1 3.7.2.1.3.1.5.2.8-.3 1.5-.7 2-1.4 1.1-1.3 1.5-3.2 1.6-4.9.2-2.5-.4-5.3-2.4-6.6z" class="color05cdb0 svgShape"></path><path fill="#212121" d="M73.2 39.7c-1-1-2.5-1.5-3.9-1.3-1.4.2-2.6 1.2-3.4 2.4-.3.5-.4 1-.6 1.5.7 2.3 2.2 4.4 4.2 5.8l-2.3-1.8c1.4 1.3 2.8 2.5 4.5 3.4.7-.2 1.3-.5 1.8-1 .6-.7 1-1.6 1.1-2.6.1-.9.1-1.9-.1-2.8 0-1.4-.4-2.7-1.3-3.6z" class="color032e3f svgShape"></path><path fill="#ffffff" d="M73.7 41c.8 0 1.8-.1 2.4-.7.5-.4.7-1.1.8-1.8.1-1.4-.7-2.9-1.9-3.6-1.3-.6-3-.3-3.9.7-.8.9-.9 2.4-.3 3.4.6 1.4 1.5 1.9 2.9 2zM69.8 46.1c.1.3.4.4.7.4.3 0 .6-.2.7-.5.1-.3.1-.6-.1-.8-.6-1-1.8 0-1.3.9z" opacity=".6" class="colorffffff svgShape"></path><path fill="#f6e8c1" d="M46.8 39.3c.4-2.5 2.1-4.6 4.3-5.9 1.3-.8 2.9-1.4 4.5-1.3 1.6 0 3.2.6 4.2 1.8 1.6 1.8 1.6 4.4 1.3 6.8-.2 1.5-.6 3-1.5 4.2-1.2 1.4-3 2-4.8 2-1.9 0-4.7-.5-6.1-1.9-1.6-1.5-2.3-3.7-1.9-5.7z" class="colorc1f2f6 svgShape"></path><path fill="#50c878" d="M50.8 41.3c-.1-1.8.8-3.6 2.4-4.7 1.1-.8 2.7-1.2 4-.6 1 .4 1.6 1.3 1.9 2.2.8 2.3-.2 5.1-2.4 6.6-1.3.9-2.6 1.2-3.8.2-1.2-1-2-2.3-2.1-3.7z" class="color05cdb0 svgShape"></path><path fill="#212121" d="M52.1 42c-.2-1 0-2.2.7-3.1s1.9-1.4 3.1-1.3c1.2.1 2.3.9 2.5 2 .1.6-.1 1.3-.4 1.9-.5 1.3-1.3 2.7-3.1 2.9-1.5.2-2.5-1.3-2.8-2.4z" class="color032e3f svgShape"></path><path fill="#ffffff" d="M53.7 40c.7 0 1.5-.1 2-.6.4-.4.6-.9.6-1.5.1-1.2-.5-2.4-1.6-3-1.1-.5-2.5-.3-3.3.6-.7.8-.8 2-.3 2.9.7 1.1 1.5 1.6 2.6 1.6zM56.8 43.3c.2.3.6.5.9.5.4 0 .7-.3.9-.6s.1-.8-.1-1.1c-.8-1.3-2.4 0-1.7 1.2z" opacity=".6" class="colorffffff svgShape"></path><path fill="#21bc55" d="M59.3 21.5c-.6 0-1.3-.2-1.7-.6s-.6-1.2-.2-1.7c.3-.3.7-.4 1.1-.3.4.1.8.3 1.1.5 1.2.6 2.4 1.4 2.8 2.6.2-.8-.3-1.7-.9-2.3-.6-.6-1.3-1.2-1.7-1.9-.4-.7-.4-1.8.2-2.3.4-.3 1-.4 1.6-.3.7 0 1.4.1 1.9.5 1.1.7 1.3 2.3 1 3.5s-.9 2.5-1 3.8c.3-1 1.2-1.6 2-2.1s1.5-.9 2.3-1.4c.2-.1.5-.3.7-.2.4.1.6.5.3 1.3-.7 1.8-2.4 2.9-4 4-.5.3-1 .7-1.6.8-.6.1-1.3-.1-1.6-.6-.3-.6.1-1 .3-1.5.9-1.7-1.7-1.7-2.6-1.8z" class="color95bc21 svgShape"></path><path fill="#ffffff" d="M34.9 35.6c0-.4.1-.9.3-1.2.2-.3.8-.5 1.1-.2.2.2.3.5.3.8 0 .6-.1 1.2-.6 1.6-.4.4-1.2.5-1.6.1s-.1-1.3.5-1.3M59.1 25.3c-.1.8-.8 1.5-1.5 1.9-.8.4-1.6.5-2.4.7-6.4 1.2-11.4 4.2-16.8 7.6-3.8-2.8 4.6-6.2 6.1-6.9 4.5-2.1 9.5-3.3 14.6-3.3z" opacity=".15" class="colorffffff svgShape"></path><path fill="#1a9944" d="m93.5 85.6 1.2-2.1c.4-.2 1 .2 1.1.6.2.4.1.9 0 1.4-.1.5-.2 1.1-.6 1.5-.3.4-.9.7-1.4.5-.6-.2-.8-.9-.8-1.4s.4-1.1.7-1.6M90.3 90.6c0-.5-.1-1 .1-1.5s.7-.8 1.1-.7c.5.1.8.6.8 1.1.1.7-.1 1.6-.7 2s-1.5.5-2-.1-.2-1.6.6-1.8M94.2 90.2c.4-.6.7-1.3 1.1-1.9.7-.2 1.4.6 1.4 1.4 0 .6-.4 1.3-.9 1.6s-1.4.2-1.8-.3-.4-1.3.1-1.7" class="color79991a svgShape"></path><path fill="#ffffff" d="M55.6 109.3c-7.8-1.7-15.9-3.7-21.9-9-5.3-4.7-8.4-11.4-9.9-18.3s-1.5-14-1.4-21.1c0-5.7-.3-12.8 2.5-18 .9-1.7 2.3-2.7 1.8-4.6-4.3 5-6.7 11.2-6.8 18.6-.1 6.8-.1 13.7 0 20.5.2 10.3 4.4 18.3 12.2 23.9 6.3 4.5 14 7.3 23.2 8.2.2 0 .2-.1.3-.2z" opacity=".15" class="colorffffff svgShape"></path><path fill="#1a9944" d="M105.1 77.7c.1-7 .1-14 0-21-.1-7.2-2.4-13.3-6.7-18.2.2.9.7 1.7 1 2.5.7 1.7 1.2 3.5 1.7 5.4 1.8 7.3 1.9 14.9 2 22.4.1 5.3.1 10.6-1.4 15.7-2.4 8-8.5 14.5-15.5 19-3 1.9-6.3 3.5-9.6 5 6.2-1.4 11.6-3.8 16.2-7.1 7.9-5.7 12.1-13.5 12.3-23.7z" class="color79991a svgShape"></path><path fill="#ffffff" d="M31.5 46.8c-1 .5-1.8 1.4-2.2 2.4-.2.3-.3.8-.1 1.1.3.6 1.2.6 1.8.3.6-.3 1.2-.7 1.5-1.3s.3-1.4-.2-1.9-1.4-.6-1.8 0M66.6 85.1c-1.2.6-2.6 1-4.1 1-2.3 0-4.2-.7-5.8-2.1-1.6-1.4-2.4-3.2-2.4-5.4v-23c0-1.8.6-3.4 1.9-4.8h-.3c-1.9.5-2.7 4.3-3 5.9-1.3 6.6-.9 13.3-.3 19.9.3 3.4.8 7.1 3.4 9.3 2.7 2.3 7 2 9.8-.1.3-.2.5-.5.8-.7zM27.9 56.2c.4.7 1.4.8 2.1.4 1.2-.7 2.3-3.3.4-3.8-1.6-.4-3.3 2-2.5 3.4zM34.2 50.2c-.1.5-.1 1.1.3 1.5.4.3 1.1.2 1.5-.1.8-.4 1.5-.9 2.1-1.6 1.1-1.2 1.4-3.3-.7-3-1.4.3-2.8 1.7-3.2 3.2z" opacity=".15" class="colorffffff svgShape"></path></svg>