<svg xmlns="http://www.w3.org/2000/svg" viewBox="0 0 125 125" id="NumberNineMonster"><path fill="#50c878" d="M103.7 37.3c1.4-1.1 2.6-2.5 2.9-4.3.3-1.4 0-2.8-.6-4-1.3-3-5.4-6.8-10.6-8.4 1.2 1 .7 5.1-1.4 7.8-1.3 1.7-3.2 2.9-5.3 3.4 2.4 2.3 4.6 4.8 6.6 7.5.6.8 1.1 1.6 1.2 2.5-.1-.5.9-1.3 1.2-1.5.5-.4 1-.5 1.6-.7 1.6-.7 3.2-1.4 4.4-2.3z" class="colorff4747 svgShape"></path><path fill="#ffd866" d="M91.3 30.6c-.8.5-1.6.8-2.5 1 2.4 2.3 4.6 4.8 6.6 7.5.6.8 1.1 1.6 1.2 2.5-.1-.5.9-1.3 1.2-1.5.5-.4 1-.5 1.6-.7.2-.1.3-.1.5-.2-.8-1-1.6-2-2.4-2.9-1.9-2.1-3.7-4.2-6.2-5.7zM106.7 33c.1-.5.1-.9.1-1.4-.1 0-.1-.1-.2-.1-3.7-2.4-8.2-3.5-12.6-3-.3.4-.7.8-1.1 1.2.7.1 1.3.4 1.9.7 1.7.6 3.4.9 5 1.7 1.1.5 2 1.3 2.9 2 .8.6 1.6 1.3 2.3 2.1.8-1 1.4-2 1.7-3.2zM103.5 25.4c-.8-.8-1.7-1.6-2.7-2.2-1.9.3-3.7 1.1-5.2 2.3L95 27c2.7-1.3 5.6-1.8 8.5-1.6zM96.1 22.6c.4-.1.8-.4 1.1-.7.2-.2.3-.4.4-.6-.7-.3-1.4-.6-2.1-.8.6.5.6 1.4.6 2.1z" class="colorffbf41 svgShape"></path><path d="M106.1 28.9c-.7-1.6-2-3.1-3.3-4.3.7 1.3 1.2 2.7 1.2 4.2.1 2.6-1.3 5.2-3.2 7-1.5 1.5-3.3 2.6-5.2 3.6.5.7.9 1.4 1 2.2-.1-.5.9-1.3 1.2-1.5.5-.4 1-.5 1.6-.7 1.5-.5 3-1.2 4.3-2.2 1.4-1.1 2.6-2.5 2.9-4.3.3-1.3.1-2.7-.5-4z" opacity=".2" fill="#0a0a0a" class="color000000 svgShape"></path><path fill="#ffffff" d="M95.6 20.5c-.1 0-.1 0 0 0 1.2 1.1 1.8 2.8 1.9 4.5.1 1.7-.4 3.3-1.1 4.8-.9 2-2.3 3.8-4.1 5.1-.1 0-.1.1-.2.1.8.9 1.5 1.8 2.3 2.7.2-.1.3-.2.5-.3 1.7-1.3 3.4-2.8 4.5-4.7 1.1-1.9 1.7-4.1 1.3-6.3-.6-2.7-2.6-5-5.1-5.9z" opacity=".2" class="colorffffff svgShape"></path><path fill="#50c878" d="M21.3 37.3c-1.4-1.1-2.6-2.5-2.9-4.3-.3-1.4 0-2.8.6-4 1.3-3 5.4-6.8 10.6-8.4-1.7 1.4-.3 9.5 6.7 11.2-2.4 2.3-4.6 4.8-6.6 7.5-.6.8-1.1 1.6-1.2 2.5.1-.5-.9-1.3-1.2-1.5-.5-.4-1-.5-1.6-.7-1.6-.7-3.2-1.4-4.4-2.3z" class="colorff4747 svgShape"></path><path fill="#ffd866" d="M33.7 30.6c.8.5 1.6.8 2.5 1-2.4 2.3-4.6 4.8-6.6 7.5-.6.8-1.1 1.6-1.2 2.5.1-.5-.9-1.3-1.2-1.5-.5-.4-1-.5-1.6-.7-.2-.1-.3-.1-.5-.2.8-1 1.6-2 2.4-2.9 1.9-2.1 3.7-4.2 6.2-5.7zM18.3 33c-.1-.5-.1-.9-.1-1.4.1 0 .1-.1.2-.1 3.7-2.4 8.2-3.5 12.6-3 .3.4.7.8 1.1 1.2-.7.1-1.3.4-1.9.7-1.7.6-3.4.9-5 1.7-1.1.5-2 1.3-2.9 2-.8.6-1.6 1.3-2.3 2.1-.8-1-1.4-2-1.7-3.2zM21.5 25.4c.8-.8 1.7-1.6 2.7-2.2 1.9.3 3.7 1.1 5.2 2.3L30 27c-2.7-1.3-5.6-1.8-8.5-1.6zM28.9 22.6c-.4-.1-.8-.4-1.1-.7-.2-.2-.3-.4-.4-.6.7-.3 1.4-.6 2.1-.8-.6.5-.6 1.4-.6 2.1z" class="colorffbf41 svgShape"></path><path d="M18.9 28.9c.7-1.6 2-3.1 3.3-4.3-.7 1.4-1.2 2.8-1.2 4.2-.1 2.6 1.3 5.2 3.2 7 1.5 1.5 3.3 2.6 5.2 3.6-.5.7-.9 1.4-1 2.2.1-.5-.9-1.3-1.2-1.5-.5-.4-1-.5-1.6-.7-1.5-.5-3-1.2-4.3-2.2-1.4-1.1-2.6-2.5-2.9-4.3-.3-1.3-.1-2.7.5-4z" opacity=".2" fill="#0a0a0a" class="color000000 svgShape"></path><path fill="#ffffff" d="M29.4 20.5c.1 0 .1 0 0 0-1.2 1.1-1.8 2.8-1.9 4.5-.1 1.7.4 3.3 1.1 4.8.9 2 2.3 3.8 4.1 5.1.1 0 .1.1.2.1-.8.9-1.5 1.8-2.3 2.7-.2-.1-.3-.2-.5-.3-1.7-1.3-3.4-2.8-4.5-4.7-1.1-1.9-1.7-4.1-1.3-6.3.6-2.7 2.6-5 5.1-5.9z" opacity=".2" class="colorffffff svgShape"></path><path fill="#fc44b1" d="M104 51.7c0 3.9-.8 7.8-2.4 11.8-1.6 4-4.9 8.7-9.7 14.1l-22.6 25c-1.4 1.6-3 2.3-4.8 2.3h-26c-2.1 0-3.5-2.3-2.2-4.1l18.2-20.1c-.7.1-1.7.1-3.1.1s-3.4-.2-5.9-.6c-2.5-.4-5.3-1.3-8.3-2.7-3-1.3-5.7-3.1-8.1-5.2-2.4-2.1-4.3-4.8-5.8-8.2-1.5-3.4-2.2-7.2-2.2-11.4 0-9 3.9-16.3 11.7-22.1 7.8-5.7 17.6-8.6 29.5-8.6s21.8 2.7 29.8 8C100 35.4 104 42.6 104 51.7z" class="colorfc44ea svgShape"></path><path d="M59.8 74.1c4.7.4 9.5-.6 13.8-2.6 1.6-.7 3.1-1.6 4.4-2.7 2.3-2.2 3.7-5.4 3.6-8.5 0-1.2-.3-2.5-1.2-3.4-.7-.6-1.5-.9-2.4-1.2-3.8-1-7.9-.8-11.6.6-6.6 2.4-11.5 8.1-18 10.8-.3.1-.6.3-.9.5-1.3 1.3 2.4 3.2 3.3 3.7 1.8 1 3.7 1.8 5.7 2.3 1 .2 2.1.4 3.3.5z" opacity=".2" fill="#0a0a0a" class="color000000 svgShape"></path><path d="M60.8 54.5c1.5.3 3.1 0 4.5-.6s2.7-1.5 4.1-2.2c1.4-.7 2.8-1.4 4.4-1.5s3.2.5 4.1 1.7c-3.5.9-6.1 3.9-9.5 5.1-1.9.7-4 .7-6 1-1.5.2-2.9.4-4.4.4s-3-.2-4.3-.9c-1.3-.7-2.3-2-2.4-3.5-.1-.8.2-1.6.7-2.3.4-.5 1.2-1.3 1.9-1.2.7.1 1.6.8 2.2 1.2.7.5 1.3 1 2 1.5.9.6 1.7 1.1 2.7 1.3zM71 47.3c1.9.4 3.9.1 5.8-.5-1.2.3-2.5.4-3.7.1 1.1.1 2.3 0 3.3-.4-1.1.5-2.4.2-3.4-.4-1-.6-1.9-1.5-2.8-2.2-.9-.7-2-1.4-3.2-1.4-1.7 0 0 2.2.4 2.7.8 1 2.2 1.8 3.6 2.1zM54.3 47.3c-1.9.4-3.9.1-5.8-.5 1.2.3 2.5.4 3.7.1-1.1.1-2.3 0-3.3-.4 1.1.5 2.4.2 3.4-.4 1-.6 1.9-1.5 2.8-2.2.9-.7 2-1.4 3.2-1.4 1.7 0 0 2.2-.4 2.7-.9 1-2.3 1.8-3.6 2.1z" opacity=".2" fill="#0a0a0a" class="color000000 svgShape"></path><path d="M66.8 43.7c-1.3-1.5-2.2-3.4-2.2-5.4-.1-2 .7-4 2.1-5.4 1.1-1.1 2.5-1.8 3.9-2.4 2.4-.9 5.1-1.4 7.7-.9 2.6.5 5 2.2 6 4.6-1.1-1.3-2.8-2.1-4.6-2.3 1.7.9 2.9 2.4 3.5 4.2-.5-.9-1.3-1.5-2.1-2.2.9 1.4 1.3 3.1 1.4 4.7-.7-1.8-1.8-3.5-3.4-4.5-1.2-.7-2.8-.8-4.2-.7-1.8.1-3.6.5-5.2 1.3s-2.9 2.2-3.6 3.9c-.6 1.7-.4 3.7.7 5.1zM58.8 43.7c1.3-1.5 2.2-3.4 2.2-5.4.1-2-.7-4-2.1-5.4-1.1-1.1-2.5-1.8-3.9-2.4-2.4-.9-5.1-1.4-7.7-.9-2.6.5-5 2.2-6 4.6 1.1-1.3 2.8-2.1 4.6-2.3-1.7.9-2.9 2.4-3.5 4.2.5-.9 1.3-1.5 2.1-2.2-.9 1.4-1.3 3.1-1.4 4.7.7-1.8 1.8-3.5 3.4-4.5 1.2-.7 2.8-.8 4.2-.7 1.8.1 3.6.5 5.2 1.3s2.9 2.2 3.6 3.9c.6 1.7.4 3.7-.7 5.1z" opacity=".2" fill="#0a0a0a" class="color000000 svgShape"></path><path fill="#4d4d4d" d="M42.6 58.1c.3-2.5 1.4-4.9 3.3-6.5 1.9-1.6 4.7-2.3 7-1.4 2.8 1 4.7 4 7.6 4.8 1.7.5 3.6 0 5.2-.7s3.1-1.7 4.7-2.6c1.6-.8 3.4-1.4 5.2-1.2 1.8.2 3.6 1.3 4.1 3 1 3.5 2.9 6.7 1.5 10-.8 1.8-2.1 3.4-3.7 4.6-1.6 1.2-3.4 2.1-5.2 2.9-4.6 1.9-9.6 2.8-14.5 2.1-3.8-.5-7.3-2.2-10.4-4.4-1.2-.9-2.4-1.9-3.3-3.2-1-1.6-1.4-3.5-1.7-5.4-.1-.8-.4-1.5.2-2z" class="color80191a svgShape"></path><path fill="#f6eac5" d="M79 55.6c.4-.1.9-.3 1.3-.5-.2-.5-.4-1.1-.5-1.7-.3-1.2-1.3-2.1-2.4-2.6-.5.6-.9 1.3-1.1 1.9-.3.7-.3 1.6.2 2.3.5.8 1.6.8 2.5.6zM78.2 61.4c-.4 1-.1 2.2.7 3 .4.4.9.6 1.5.7.3-.5.6-1 .8-1.5.5-1.3.6-2.6.4-3.8-.3-.1-.6-.1-1-.1-1-.1-2 .7-2.4 1.7zM42.5 60.8c.2 1.2.5 2.4 1 3.5.6-.2 1-.6 1.4-1 .3-.3.6-.7.7-1.2.1-.5 0-1-.4-1.3-.5-.5-1.7-.3-2.7 0zM48.1 52.9c-.1-.8-.4-1.6-.9-2.2-.5.2-.9.5-1.3.9-1 .8-1.7 1.8-2.3 2.9.5.4 1 .8 1.7 1 .7.2 1.4.3 2-.1.8-.5 1-1.6.8-2.5zM52.9 50.2c-.2-.1-.4-.1-.5-.2-.3.2-.7.5-.9.8-.4.5-.7 1-.7 1.7 0 1 .9 1.9 1.9 2 1 .1 2-.4 2.6-1.3.2-.4.4-.8.5-1.2-.9-.8-1.8-1.4-2.9-1.8zM57.7 53.5c-.9 1-1.1 2.6-.1 3.5.7.6 2 .7 2.6-.1.4-.5.5-1.1.4-1.8v-.2h-.1c-1-.2-1.9-.8-2.8-1.4zM64.8 57.6c.8.4 1.9 0 2.4-.9.5-.8.3-1.9-.1-2.7-.1-.1-.1-.2-.2-.3-.4.2-.7.4-1.1.6-.6.3-1.3.5-2 .7 0 .3-.1.5 0 .8 0 .7.3 1.5 1 1.8zM73.4 51.7c0-.4-.2-.7-.4-1-.9.2-1.8.6-2.6 1-.6.3-1.1.6-1.7.9.1.3.2.5.3.7.6.9 1.8 1.2 2.8.8 1.1-.3 1.7-1.3 1.6-2.4z" class="colorf6e3c5 svgShape"></path><path fill="#e53b9f" d="M75.9 62.6c-3.1-2.1-7.4-2.2-10.6-.3-1 .6-2 1.4-3.1 1.5-1.5.2-2.9-.9-4.3-1.6-3-1.5-6.7-1.3-9.7.2-1.5.8-2.9 1.9-4 3.2.8 1.2 1.9 2.2 3.1 3 3.1 2.2 6.7 3.9 10.4 4.4 4.9.7 9.9-.2 14.5-2.1 1.9-.7 3.7-1.7 5.2-2.9.6-.5 1.2-1 1.7-1.6-.6-1.4-1.7-2.8-3.2-3.8z" class="colore53b3b svgShape"></path><path fill="#f6eac5" d="M77.3 68c-.5-.7-1.4-1.1-2.2-.9-.9.2-1.5 1-1.6 1.9-.1.5 0 1 .2 1.4 1.3-.6 2.6-1.3 3.7-2.2 0-.1-.1-.1-.1-.2zM69.5 70.3c-.6-.6-1.6-.8-2.4-.5-.8.3-1.4 1-1.7 1.8-.2.5-.2.9-.1 1.4 1.6-.3 3.3-.7 4.9-1.2-.1-.6-.3-1.1-.7-1.5zM58.9 73.2c0-.4 0-.8-.1-1.2-.1-.6-.2-1.2-.6-1.7-.5-.7-1.5-.9-2.3-.7-.8.2-1.4 1-1.7 1.8-.1.2-.1.5-.1.8 1.2.4 2.4.7 3.7.9.4 0 .8.1 1.1.1zM47.4 68.6c1 .7 2.1 1.4 3.1 1.9.2-.5.3-1 .3-1.5 0-.6-.1-1.3-.5-1.7-.6-.6-1.7-.4-2.4.2-.3.2-.5.6-.8.9.2.1.2.2.3.2z" class="colorf6e3c5 svgShape"></path><path fill="#ffffff" d="M75.2 64.5c.3-.7.5-1.4.5-2.1-3.1-1.9-7.2-2-10.3-.2-1 .6-2 1.4-3.1 1.5-1.5.2-2.9-.9-4.3-1.6-2.8-1.4-6.3-1.3-9.2-.1-.4.6-.6 1.4-.6 2.3.1 1.7 1.4 3.4 3.1 3.8 1.7.4 3.5-.3 5.2-.7 2.2-.5 4.4-.5 6.6 0 1.8.4 3.6 1.2 5.5 1.2 2.7.2 5.5-1.5 6.6-4.1z" opacity=".15" class="colorffffff svgShape"></path><path fill="#ffffff" d="M52.6 62.1c.9-.4 1.9-.3 2.8.1.5.3.9.7 1.4 1.1.5.3 1.1.6 1.6.5.3-.1.5-.2.8-.1.3.1.5.4.5.8 0 .3-.2.6-.5.9-.5.6-1.3.9-2.1 1-.8.1-1.6-.2-2.2-.7-.3-.3-.7-.6-1.1-.7-.3-.1-.7 0-1 .1l-.9.3c-.8.1-1.3-.6-1-1.4.3-.9.9-1.6 1.7-1.9zM71.7 62c.4 0 .8.1 1.1.4.3.2.5.7.3 1-.2.4-.6.5-1 .5s-.8-.2-1.1-.3c-.9-.2-1.8.1-2.6.5s-1.6.8-2.5.9c-.7.1-1.3-.4-.7-1 .5-.5 1.3-.9 2-1.3 1.3-.7 2.9-.9 4.5-.7z" opacity=".15" class="colorffffff svgShape"></path><path fill="#f6eac5" d="M64.9 37.7c.5-2.9 2.9-5.5 5.8-6.1 1.6-.3 3.3-.2 4.9.2 1.6.4 3.4.9 4.3 2.3.7 1 .9 2.3 1 3.6.1 1.8.2 3.7-.7 5.3-1.1 2-3.3 3.1-5.6 3.3-2.5.2-5.8-.1-7.6-1.9-1.6-1.8-2.5-4.3-2.1-6.7z" class="colorf6e3c5 svgShape"></path><path fill="#ffffff" d="M66.7 34.9c.9-1 2.1-1.5 3.4-1.9 1.9-.5 4-.5 5.7.3 1.8.8 3.2 2.6 3.2 4.5 0 1.6-1 3.2-2.5 3.9-.9.4-1.8.5-2.7.6-1.1.1-2.2.2-3.3.1-1.1-.1-2.2-.4-3.1-1.1-1-.8-1.3-1.8-1.5-3-.2-1.2-.1-2.4.8-3.4z" class="colorffffff svgShape"></path><path fill="#674ea7" d="M70 41.8c1.3 1 3.2 1.2 4.6.3 1.4-.9 2.1-2.7 1.8-4.3-.4-1.6-1.8-2.9-3.5-3-2.8-.3-4.9 2.5-4.1 5.1.2.8.7 1.4 1.2 1.9z" class="color1755e8 svgShape"></path><path fill="#ffffff" d="M71.3 42c1.3.5 2.9.1 3.8-1 .9-1.1 1-2.7.3-3.9-.7-1.2-2.2-1.9-3.6-1.6-1.1.2-2 1.1-2.5 2.2-.4 1.1-.2 2.2.4 3.1.4.5.9 1 1.6 1.2z" opacity=".15" class="colorffffff svgShape"></path><path fill="#ffffff" d="M71.5 41.5c1.1.4 2.4.1 3.2-.8.8-.9.9-2.3.3-3.3-.6-1-1.9-1.6-3-1.3-1 .2-1.7.9-2.1 1.8-.4.9-.2 1.8.4 2.6.2.4.6.8 1.2 1z" opacity=".15" class="colorffffff svgShape"></path><path fill="#ffffff" d="M71.7 41c.9.3 2 .1 2.6-.7s.7-1.8.2-2.6c-.5-.8-1.5-1.2-2.4-1.1-.8.2-1.4.7-1.7 1.4-.3.7-.2 1.5.3 2.1.2.4.5.7 1 .9z" opacity=".15" class="colorffffff svgShape"></path><path fill="#ffffff" d="M71.9 40.4c.6.3 1.4 0 1.9-.5.4-.5.5-1.3.2-1.9-.4-.6-1.1-.9-1.8-.8-.6.1-1 .5-1.2 1.1-.2.5-.1 1.1.2 1.5.1.3.4.5.7.6z" opacity=".15" class="colorffffff svgShape"></path><path fill="#212121" d="M70.9 37.7c.6-.4 1.5-.3 2 .3.3.4.5.9.4 1.4-.1.4-.4.7-.8.9-.4.2-.8.2-1.2.1-.4-.1-1-.4-1.1-.9-.1-.4 0-.9.2-1.3l.5-.5z" class="color231f20 svgShape"></path><path fill="#ffffff" d="M71.7 38.1c-.1-.2-.1-.4-.1-.6.1-.2.3-.4.5-.5.1 0 .3-.1.5 0s.4.3.4.5-.1.5-.2.6c-.4.4-.9.4-1.1 0z" opacity=".8" class="colorffffff svgShape"></path><path fill="#f6eac5" d="M60.4 37.7c-.5-2.9-2.9-5.5-5.8-6.1-1.6-.3-3.3-.2-4.9.2-1.6.4-3.4.9-4.3 2.3-.7 1-.9 2.3-1 3.6-.1 1.8-.2 3.7.7 5.3 1.1 2 3.3 3.1 5.6 3.3 2.5.2 5.8-.1 7.6-1.9 1.6-1.8 2.5-4.3 2.1-6.7z" class="colorf6e3c5 svgShape"></path><path fill="#ffffff" d="M58.6 34.9c-.9-1-2.1-1.5-3.4-1.9-1.9-.5-4-.5-5.7.3s-3.2 2.6-3.2 4.5c0 1.6 1 3.2 2.5 3.9.9.4 1.8.5 2.7.6 1.1.1 2.2.2 3.3.1 1.1-.1 2.2-.4 3.1-1.1 1-.8 1.3-1.8 1.5-3 .2-1.2.1-2.4-.8-3.4z" class="colorffffff svgShape"></path><path fill="#674ea7" d="M55.3 41.8c-1.3 1-3.2 1.2-4.6.3-1.4-.9-2.1-2.7-1.8-4.3.4-1.6 1.8-2.9 3.5-3 2.8-.3 4.9 2.5 4.1 5.1-.2.8-.7 1.4-1.2 1.9z" class="color1755e8 svgShape"></path><path fill="#ffffff" d="M54.1 42c-1.3.5-2.9.1-3.8-1-.9-1.1-1-2.7-.3-3.9.7-1.2 2.2-1.9 3.6-1.6 1.1.2 2 1.1 2.5 2.2.4 1.1.2 2.2-.4 3.1-.5.5-1 1-1.6 1.2z" opacity=".15" class="colorffffff svgShape"></path><path fill="#ffffff" d="M53.9 41.5c-1.1.4-2.4.1-3.2-.8-.8-.9-.9-2.3-.3-3.3.6-1 1.9-1.6 3-1.3 1 .2 1.7.9 2.1 1.8.4.9.2 1.8-.4 2.6-.3.4-.7.8-1.2 1z" opacity=".15" class="colorffffff svgShape"></path><path fill="#ffffff" d="M53.7 41c-.9.3-2 .1-2.6-.7s-.7-1.8-.2-2.6c.5-.8 1.5-1.2 2.4-1.1.8.2 1.4.7 1.7 1.4.3.7.2 1.5-.3 2.1-.3.4-.6.7-1 .9z" opacity=".15" class="colorffffff svgShape"></path><path fill="#ffffff" d="M53.4 40.4c-.6.3-1.4 0-1.9-.5-.4-.5-.5-1.3-.2-1.9.4-.6 1.1-.9 1.8-.8.6.1 1 .5 1.2 1.1.2.5.1 1.1-.2 1.5-.1.3-.4.5-.7.6z" opacity=".15" class="colorffffff svgShape"></path><path fill="#212121" d="M54.4 37.7c-.6-.4-1.5-.3-2 .3-.3.4-.5.9-.4 1.4.1.4.4.7.8.9.4.2.8.2 1.2.1.4-.1 1-.4 1.1-.9.1-.4 0-.9-.2-1.3-.1-.1-.2-.3-.5-.5z" class="color231f20 svgShape"></path><path fill="#ffffff" d="M53.7 38.1c.1-.2.1-.4.1-.6-.1-.2-.3-.4-.5-.5-.1 0-.3-.1-.5 0s-.4.3-.4.5.1.5.2.6c.3.4.8.4 1.1 0z" opacity=".8" class="colorffffff svgShape"></path><path fill="#ffffff" d="M92 30.1c-8-5.3-17.9-8-29.8-8S40.5 25 32.7 30.7c-7.8 5.7-11.7 13-11.7 22 0 4.2.7 8 2.2 11.4 1 2.2 2.1 4.1 3.5 5.8-1.2-2.1-2.5-3.9-3.3-6.2-.8-2.6-1.2-5.3-1.2-8 0-3 .6-5.9 1.7-8.7 3.2-8.1 10.2-14.3 18.2-17.7 8-3.4 16.9-4.1 25.6-3.6 6.8.5 13.7 1.8 19.8 4.9 6.1 3.1 11.3 8.2 13.6 14.7 1.9 5.3 1.7 11.1.4 16.5-.3 1.5-.8 2.9-1.2 4.4.5-.9.9-1.8 1.3-2.7 1.6-4 2.4-7.9 2.4-11.8 0-9.1-4-16.3-12-21.6z" opacity=".2" class="colorffffff svgShape"></path><path fill="#d33291" d="M91.9 77.6c.6-.7 1.2-1.3 1.7-2-3.6 2.9-7.7 5.3-12 7.1-8.8 3.7-18.3 5.3-27.9 5.6-1.3 0-2.6.1-3.8-.3-.5-.2-1-.4-1.4-.8l-3.4 3.7c.1.1.2.2.4.3 2.1 1.5 4.8 2 7.4 2.2 8.4.8 16.9.2 25.3-.7l13.7-15.1zM59.9 100.2c-6.3-.5-12.5-2.8-17.1-6.7l-1.5 1.7c1.2 2 2.9 3.7 5.2 5.1 3.5 2.1 7.5 3.7 11.7 4.7h6.2c1.8 0 3.4-.8 4.8-2.3l2.9-3.2c-4 .7-8.1 1-12.2.7zM39.7 104.9h6c-1.4-.7-2.8-1.6-4-2.7-1.3-1.2-2.3-2.8-2.8-4.4l-1.3 1.4c0 .7.1 1.4.2 2.1.4 1.3 1 2.5 1.9 3.6z" class="colore21ee2 svgShape"></path><path d="M85.7 22.5c-3.3-1.4-7.2-1.6-10.6-.6-3.5 1-6.6 3.2-8.7 6.2 1.9-3.6 4.8-6.6 8.8-7.6 4-1 7-.2 10.5 2zM40.9 22.5c3.3-1.4 7.2-1.6 10.6-.6 3.5 1 6.6 3.2 8.7 6.2-1.9-3.6-4.8-6.6-8.8-7.6-4-1-7-.2-10.5 2z" fill="#0a0a0a" class="color000000 svgShape"></path><g fill="#ffffff" class="colorffffff svgShape"><path d="M80.6 43.4c-.9 1.3-2.2 2.3-3.7 2.7.8.3 1.8-.1 2.5-.6 1.2-.9 2.1-2.2 2.4-3.7.4-1.4.3-3-.3-4.4.1 2.2.3 4.1-.9 6zM44.9 43.4c.9 1.3 2.2 2.3 3.7 2.7-.8.3-1.8-.1-2.5-.6-1.2-.9-2.1-2.2-2.4-3.7-.4-1.4-.3-3 .3-4.4-.1 2.2-.4 4.1.9 6z" opacity=".2" fill="#0a0a0a" class="color000000 svgShape"></path></g><path fill="#ffffff" d="M41.8 54.6c1.4-2.7 4.2-4.7 7.3-5.1-1.9.8-3.9 1.6-5.3 3.1-1.2 1.2-1.9 2.9-2.3 4.6-.6 3.1.2 6.2 1.9 8.9-2.9-2.7-3.3-8.1-1.6-11.5zM82.4 60.6c-.1 3.1-1.2 6.2-3.1 8.7 3.5-3.7 4.8-9.2 3.4-14-.4-1.3-1-2.6-1.9-3.6-.9-1-2.3-1.7-3.6-1.7 1.6.8 2.9 1.9 3.7 3.5 1 2.2 1.5 4.6 1.5 7.1z" opacity=".2" class="colorffffff svgShape"></path></svg>