<svg xmlns="http://www.w3.org/2000/svg" viewBox="0 0 125 125" id="MonsterThreeNumber"><path fill="#50c878" d="M106.4 25.5c1-.3 2.1-.7 2.9-1.4.8-.7 1.4-1.7 1.5-2.8.1-1.3-.7-2.6-1.8-3.3s-2.4-1-3.7-1.1c-.8 0-1.8-.1-2.2-.8-.3-.5 0-1.2.4-1.6s1.1-.6 1.7-.7c3.6-.7 7.7.4 9.9 3.3 1 1.2 1.6 2.7 2 4.2.6 1.9.9 3.9.6 5.8-.5 2.6-2.2 4.8-4.3 6.2-2.1 1.5-4.7 2.3-7.2 2.9-3.9.9-8 1.2-12 .9.4 0 1.7-3 1.8-3.4.5-1.2 1-2.5 1.3-3.8.2-.7.3-1.3.4-2 .1-.4 0-1.7.2-2 .3-.4 3 .3 3.7.3 1.6-.1 3.2-.3 4.8-.7z" class="colora3b81f svgShape"></path><path fill="#ffd866" d="M102.8 36.7c1.1-.2 2.2-.3 3.3-.6.2 0 .3-.1.5-.1.2-2 .2-4.1.1-6.1-.1-1.5-.2-3-.9-4.3-.7.2-1.5.3-2.2.4.2.4.4.7.5 1.2.5 1.5.7 3.1.5 4.7-.2 1.7-.9 3.4-1.8 4.8zM108.9 24.3c-.4.3-.8.5-1.3.7.4.7.8 1.4 1 2.2.5 1.6.5 3.2.6 4.8 0 .8.1 1.7-.1 2.5-.1.4-.2.7-.4 1 1-.3 2-.7 3-1.2.1-.8.1-1.5.1-2.3-.3-2.8-1.3-5.5-2.9-7.7zM110.7 20.5c0 .2.1.5.1.8v.2c1.2 0 2.5.1 3.7.5 1.2.4 2.3 1 3.2 1.8-.1-.8-.3-1.7-.6-2.5-.1-.3-.2-.5-.2-.8-.5-.1-.9-.3-1.4-.3-1.7-.2-3.3-.1-4.8.3zM105.1 13.8c-.6.1-1.2.3-1.7.7-.5.4-.7 1.1-.4 1.6.4.7 1.4.8 2.2.8 1 0 1.9.2 2.8.6.1-1 .6-2.1 1.3-2.8.3-.3.6-.5.9-.7-1.6-.4-3.4-.5-5.1-.2z" class="colorfcca72 svgShape"></path><path d="M113.1 30.7c-2.6 1.4-5.6 2.1-8.5 1.6-1-.2-2-.5-2.8-1.1s-1.4-1.5-1.5-2.5c-.1-1 .4-2 1.1-2.7-.9-.1-3.3-.7-3.6-.3-.3.3-.2 1.6-.2 2-.1.7-.2 1.3-.4 2-.3 1.3-.8 2.6-1.3 3.8-.2.4-1.4 3.5-1.8 3.4 4 .3 8.1 0 12-.9 2.5-.6 5.1-1.4 7.2-2.9 2-1.4 3.6-3.3 4.2-5.6-1.4 1.4-2.8 2.4-4.4 3.2z" opacity=".15" fill="#0a0a0a" class="color000000 svgShape"></path><path fill="#ffffff" d="M107.9 27.7c1.6-.5 3.1-1.4 4-2.8.9-1.4 1.3-3.2.6-4.7-.2-.4-.5-.8-.6-1.2s-.1-1 .2-1.3c.3-.3.7-.3 1.1-.2.4.1.7.4.9.7.9 1.2.8 2.8.5 4.2-.5 2.6-1.8 5.1-4 6.7-2.1 1.6-5.2 2-7.5.7-1.1-.6-1.3-2.2.2-1.8 1.5.5 3.2.2 4.6-.3z" opacity=".15" class="colorffffff svgShape"></path><path fill="#50c878" d="M20.8 24.6c-1.2-.4-2.4-.9-3.4-1.7-1-.8-1.7-2-1.8-3.3-.1-1.6.9-3 2.2-3.9 1.3-.9 2.9-1.2 4.4-1.3 1 0 2.1-.1 2.6-.9.3-.6 0-1.5-.5-1.9-.5-.5-1.3-.7-2-.8-4.3-.8-9.1.4-11.8 3.9-1.1 1.5-1.8 3.2-2.4 5-.7 2.2-1.1 4.6-.7 6.9.6 3 2.6 5.6 5.2 7.4s5.5 2.7 8.5 3.4c4.7 1 9.5 1.4 14.3 1.1-.5 0-2-3.6-2.2-4.1-.6-1.5-1.1-3-1.5-4.5-.2-.8-.4-1.6-.5-2.4-.1-.5 0-2-.3-2.4-.4-.5-3.6.3-4.4.3-2 0-3.9-.3-5.7-.8z" class="colora3b81f svgShape"></path><path fill="#ffd866" d="M25 38c-1.3-.2-2.6-.4-3.9-.7-.2 0-.4-.1-.6-.1-.2-2.4-.3-4.8-.2-7.2.1-1.8.3-3.6 1.1-5.1.9.2 1.7.4 2.6.5-.2.4-.5.9-.6 1.4-.6 1.8-.8 3.7-.6 5.6.3 1.9 1.1 3.9 2.2 5.6zM17.8 23.2c.5.3 1 .6 1.5.8-.5.8-.9 1.7-1.2 2.6-.6 1.8-.6 3.8-.7 5.7 0 1-.1 2 .2 3 .1.5.3.8.5 1.1-1.2-.4-2.4-.9-3.5-1.4-.1-.9-.2-1.8-.1-2.7.1-3.3 1.4-6.5 3.3-9.1zM15.7 18.7c-.1.3-.1.6-.1.9v.2c-1.5-.1-3 .1-4.4.6-1.4.5-2.7 1.2-3.8 2.1.2-1 .4-2 .7-2.9l.3-.9c.6-.2 1.1-.3 1.7-.4 1.8-.2 3.7-.1 5.6.4zM22.3 10.8c.7.1 1.4.3 2 .8.5.5.8 1.3.5 1.9-.4.8-1.6.9-2.6.9-1.1 0-2.3.2-3.3.7-.1-1.2-.7-2.4-1.6-3.3-.3-.3-.7-.6-1.1-.8 2-.5 4.1-.6 6.1-.2z" class="colorfcca72 svgShape"></path><path d="M12.7 30.9c3.1 1.6 6.6 2.5 10 1.9 1.2-.2 2.4-.6 3.3-1.3 1-.7 1.7-1.8 1.8-3 .1-1.2-.4-2.3-1.3-3.2 1-.1 3.9-.8 4.3-.3.3.4.2 1.8.3 2.4.1.8.3 1.6.5 2.4.4 1.5.9 3.1 1.5 4.5.2.5 1.7 4.1 2.2 4.1-4.8.3-9.6 0-14.3-1.1-3-.7-6-1.6-8.5-3.4-2.3-1.6-4.2-3.9-5-6.6 1.7 1.3 3.4 2.6 5.2 3.6z" opacity=".15" fill="#0a0a0a" class="color000000 svgShape"></path><path fill="#ffffff" d="M19 27.3c-1.9-.6-3.7-1.7-4.8-3.3s-1.5-3.8-.7-5.6c.2-.5.5-.9.7-1.5s.1-1.1-.3-1.5c-.3-.3-.9-.4-1.3-.2s-.8.5-1.1.9c-1 1.4-1 3.3-.6 5 .6 3.1 2.1 6.1 4.7 8 2.5 1.9 6.2 2.4 8.9.9 1.3-.7 1.5-2.6-.3-2.2-1.6.3-3.5 0-5.2-.5z" opacity=".15" class="colorffffff svgShape"></path><g fill="#fc44b1" class="colorfc44ea svgShape"><path d="M81.8 100c1 2 .9 4.5.3 6.6s-1.7 4.2-2.9 6.1c3.7-1.5 9-.9 11.3 2.5-.1.7-.9 1.1-1.6 1.1s-1.4-.4-2-.9c.4.7 0 1.5-.6 1.9-.7.4-1.6.4-2.3.1s-1.4-.8-2-1.3c.4.2.5.8.4 1.3-.1.5-.6.9-1.1.9-.7 0-1.3-.6-1.9-1-1.1-.9-2.6-1.4-4.1-1.2-.4 0-.7-.4-.4-.8.6-.6 1.1-1.4 1.6-2.2.8-1.5 1-3.3.2-4.8-.6-1.3-1.8-2.2-2.9-3-.8-.6-1.7-1.2-2.5-1.8 3.8.1 7.6-1 10.5-3.5zM45.6 100c-1 2-.9 4.5-.3 6.6.6 2.2 1.7 4.2 2.9 6.1-3.7-1.5-9-.9-11.3 2.5.1.7.9 1.1 1.6 1.1.7 0 1.4-.4 2-.9-.4.7 0 1.5.6 1.9.7.4 1.6.4 2.3.1s1.4-.8 2-1.3c-.4.2-.5.8-.4 1.3.1.5.6.9 1.1.9.7 0 1.3-.6 1.9-1 1.1-.9 2.6-1.4 4.1-1.2.4 0 .7-.4.4-.8-.6-.6-1.1-1.4-1.6-2.2-.8-1.5-1-3.3-.2-4.8.6-1.3 1.8-2.2 2.9-3 .8-.6 1.7-1.2 2.5-1.8-3.8.1-7.6-1-10.5-3.5z" fill="#0a0a0a" class="color000000 svgShape"></path></g><radialGradient id="a" cx="61.876" cy="49.738" r="48.427" gradientUnits="userSpaceOnUse"><stop offset="0" stop-color="#674ea7" class="stopColor6f48a3 svgShape"></stop><stop offset=".394" stop-color="#5e459f" class="stopColor6b459f svgShape"></stop><stop offset=".811" stop-color="#533a93" class="stopColor5e3a93 svgShape"></stop><stop offset=".993" stop-color="#4d348c" class="stopColor56348c svgShape"></stop></radialGradient><path fill="url(#a)" d="M107.6 79.8c-.2 8-4.6 14.5-12.9 19.8-8.3 5.2-18.6 8.1-31.1 8.1-16.9 0-29.2-4.6-37.3-12.8-4.2-4.3-6.4-8.6-6.5-12.9 0-.8.2-1.4.8-1.9.5-.5 1.2-.7 2-.7 9.3.2 18.5.3 27.8.3.9 0 1.9.4 2.8 1.3.9.8 1.6 1.4 2 1.7 1.4.9 3.9 1.3 7.7 1.3 3.8 0 6.4-.6 8-1.8 1.6-1.2 2.4-2.7 2.4-4.5 0-3.5-3.3-5.2-9.8-5.2H46.6c-.9 0-1.7-.3-2.4-.9-.7-.6-1-1.4-1-2.2v-9.5c0-2.3.9-3.8 2.7-4.7 6.2-3 12.5-6 18.7-9-11.8 0-23.6.1-35.5.3-.9 0-1.7-.3-2.4-.9-.7-.6-1-1.4-1-2.2l.6-16.8c0-.9.4-1.6 1.1-2.3.7-.7 1.5-1 2.4-1.1 22.5-1 45-1 67.5 0 .9 0 1.7.4 2.4 1.1.7.7 1.1 1.4 1.1 2.3l.6 15c.1 1.8-.8 3.4-2.5 4.7-5.2 3.1-10.4 6.2-15.6 9.4 16.3 3.6 24.6 11.6 24.3 24.1z"></path><path d="M55.2 82.8c-.4-.3-1.1-.9-2-1.7-.9-.8-1.9-1.3-2.8-1.3-4.6 0-9.1-.1-13.7-.1.8.5 1.8.9 2.8 1.1 2.2.4 4.4.1 6.6.2 3.4.2 6.7 1.2 10 2.2-.3-.2-.6-.3-.9-.4zM70.9 82.3c-1.6 1.2-4.3 1.8-8 1.8-2.3 0-4.1-.2-5.5-.5 3.7 1.1 7.4 2.1 11.2 1.8 3.3-.3 7-2 8-5.2 1-3.1-1-6.6-3.8-8.3-2.8-1.7-6.3-1.9-9.6-1.9-3.3.1-6.6.4-9.9-.2-2.7-.5-5.5-2-6.3-4.6-.7-2.2.3-4.6 1.6-6.7 1.2-2 2.8-4 5.1-4.6 2.1-.6 4.6.1 6.4-1.2.9-.7 1.5-1.8 2.4-2.3 1.7-1 3.7.1 5.5.9 2.1.9 4.4 1.6 6.7 1.5 2.3-.1 4.6-.9 6.2-2.5 2.2-2.2 2.8-5.8 1.5-8.6.3-1.5.1-3.2-.7-4.6-3.8 4.7-9.5 8-15.7 8.8-.6.1-1.3.2-2 .2h.4c-6.2 3-12.4 6-18.7 9-1.8.9-2.7 2.4-2.7 4.7v9.5c0 .9.3 1.6 1 2.2.7.6 1.5.9 2.4.9h16.9c6.5 0 9.8 1.7 9.8 5.2.3 2-.6 3.5-2.2 4.7zM27.6 24.2c-.7.7-1.1 1.4-1.1 2.3-.3 5.6-.5 11.2-.6 16.8 0 .9.3 1.6 1 2.2.7.6 1.5.9 2.4.9 3.7-.1 7.3-.1 11-.2-.5-.5-1.4-.8-2.1-.8-1.7-.2-3.5.1-5.2.1-1.7 0-3.6-.5-4.6-1.8-1-1.3-1-3.1-1-4.8.1-2.7.2-5.3.4-8 .1-1.8.3-3.7 1.7-5 1.6-1.5 3.9-1.3 5.9-1.3 2.5 0 5.6-.5 7.9-1.8.1-.1.2-.1.3-.2-4.5.1-8.9.3-13.4.5-1.2.1-2 .4-2.6 1.1z" opacity=".15" fill="#0a0a0a" class="color000000 svgShape"></path><g fill="#ffffff" class="colorffffff svgShape"><path d="M91.4 23.7c1.9.1 3.9 0 5.5 1.1s2.5 3 3 4.8c1.3 5.5-.4 11.2-3.6 15.6-2.1 2.8-4.8 5.2-7.7 7.3 3.6-2.1 7.1-4.3 10.6-6.3 1.7-1.3 2.6-2.9 2.5-4.7-.2-5-.3-10-.6-15 0-.9-.4-1.6-1.1-2.3-.7-.7-1.5-1-2.4-1.1-3.2-.1-6.4-.3-9.6-.4.9.6 2.2 1 3.4 1zM83.5 55.6c-.1.1-.2.1-.3.2.1-.1.2-.2.3-.2z" opacity=".15" fill="#0a0a0a" class="color000000 svgShape"></path></g><path d="M63.6 107.7h1.3c-5.5-.6-11-1.6-16.4-3.1-5-1.4-10.1-3.2-14.6-6.1-4.5-2.9-8.6-6.9-10.7-11.7-1-2.3-1.5-5.9.9-7.3h-1.4c-.8 0-1.4.2-2 .7-.5.5-.8 1.1-.8 1.9.1 4.3 2.3 8.6 6.5 12.9 7.9 8.1 20.3 12.7 37.2 12.7z" opacity=".15" fill="#0a0a0a" class="color000000 svgShape"></path><path fill="#ffffff" d="M107.6 79.8c.3-12.3-7.7-20.2-23.3-24.1 0 .1.1.3.2.4.9 1.2 4.6 2.2 6 3 2.1 1.1 4.1 2.4 6 3.7 2.9 2 5.7 4.3 7.1 7.4 1.1 2.6 1.2 5.5 1.2 8.3 0 3.8-.1 7.7-1.8 11.1-1.8 3.6-5.2 6.3-8.5 8.6-2.3 1.6-4.7 3.1-6.9 4.9 2.5-1.1 4.9-2.3 7.2-3.7 8.2-5 12.6-11.6 12.8-19.6z" opacity=".15" class="colorffffff svgShape"></path><path fill="#ffffff" d="M60.8 103.1c5.4.3 10.9.2 16.2-1.1 9-2.2 17.4-8 23-15.6-2.6 4.5-5.5 9.2-9.7 12.3-4 3-8.9 4.3-13.7 5-9.5 1.4-19.2.9-28.5-1.6-3.1-.8-6.1-1.9-8.8-3.7-2.7-1.8-4.9-4.6-5.5-7.7.2 1.1 1.8 2.7 2.5 3.6.7 1 1.3 1.5 2.3 2.2 2.1 1.5 4.5 2.7 6.9 3.6 4.9 2 10.1 2.7 15.3 3z" opacity=".15" class="colorffffff svgShape"></path><path fill="#ffffff" d="M86.9 60.4c6.5 2.3 11.9 7.5 14.1 13.9 2.2 6.4 1.1 13.7-2.8 19.5 3.5-6.1 3.8-13.6 1.2-19.9-2.6-6.3-8.1-11.4-14.5-14.1 1.5-.1 3 .4 4.1 1.4" opacity=".15" class="colorffffff svgShape"></path><path fill="#ffffff" d="M82.2 97.4c4.1-2.1 8.1-4.7 10.7-8.5 4.1-5.9 3.7-14.2-.8-19.6 1.8.6 3.2 2.1 4.2 3.7 3 5.3 1.3 12.2-2.6 17.1-4 4.8-9.8 7.8-15.6 9.7-4 1.3-8.2 2.2-12.3 1.5 5.7 1 11.2-1.3 16.4-3.9z" opacity=".15" class="colorffffff svgShape"></path><path d="M53.8 45.6c-.7-.4-1.5-.5-2.3-.7-1.5-.4-2.8-1.1-3.9-2.1-1.2-1.1-1.8-2.3-2.6-3.7-.5 1.1.3 2.6.9 3.5 1.3 1.9 3.2 3.4 5.4 4.1h3.6c-.3-.5-.7-.9-1.1-1.1zM65.5 23.7c.2.4 0 1.2 0 1.6.1 1.4.6 2.7 1.2 3.9 1 1.7 2.5 3.1 4.1 4.1 1.9 1.1 4.1 1.8 6.2 1.5 2.1-.3 4.2-1.8 4.8-3.9-1.3 1.5-3.3 2.3-5.3 2.1 2.2-.1 4.3-1.3 5.5-3.1-1.1.9-2.3 1.5-3.7 1.8 2.9-.9 5.1-3.8 5.3-6.8v-1.3l-18.1.1c0-.1 0 0 0 0zM49 24.8c.3 1.4.8 2.8 1.8 3.9 1.6 1.8 4.5 2.6 6.9 1.8-1 .4-2.2.7-3.3.6 1.7.6 3.7.3 5.2-.7-1.2 1.1-2.9 1.5-4.5 1.2 1.4 1 3.5 1 5.1.1 1.6-.8 2.7-2.3 3.3-3.9.6-1.3.8-2.8.7-4.2H48.8c.1.4.1.8.2 1.2z" opacity=".15" fill="#0a0a0a" class="color000000 svgShape"></path><path fill="#ae076a" d="M82.1 35.9c-3.1 3.6-6.3 7.4-10.6 9-3.1 1.2-6.4 1-9.7.9-3.3-.1-6.6-.3-9.8-1.2-2.9-.8-5.8-2.5-7.1-5.5.5 2.4 1.9 4.4 3.8 5.6s4.1 1.9 6.2 2.4c3.6.8 7.2 1.4 10.8 1.1 3.6-.2 7.3-1.3 10.3-3.5 3.1-2.2 5.5-5.6 6.5-9.5-.3.4-.1.3-.4.7z" class="colorae0718 svgShape"></path><path fill="#ae076a" d="M82.5 35.1c-.7 2.9-2.2 5.6-4.2 7.6-.7.7-1.4 1.3-2.2 1.9-1.5 1.1-3.1 1.9-4.8 2.4-1.8.6-3.7.9-5.5 1.1-3.6.2-7.3-.3-10.8-1.1-2.1-.5-4.3-1.1-6.2-2.4-1.9-1.3-3.3-3.2-3.8-5.6 1.3 3 4.3 4.7 7.1 5.5 3.2.9 6.5 1.1 9.8 1.2 3 .1 6 .2 8.9-.6.3-.1.6-.2.8-.3 2-.8 3.8-2 5.5-3.5 1.8-1.6 3.5-3.6 5.1-5.5.2-.4 0-.2.3-.7z" class="colorae0718 svgShape"></path><path fill="#d33291" d="M82.5 35.1c-.7 2.9-2.2 5.6-4.2 7.6-.7.7-1.4 1.3-2.2 1.9-1.5 1.1-3.1 1.9-4.8 2.4-1.8.6-3.7.9-5.5 1.1-1.6.1-3.2.1-4.8-.1-2-.2-4-.6-6-1-.5-.1-1-.2-1.5-.4-1.6-.5-3.3-1.1-4.7-2-1.9-1.3-3.3-3.2-3.8-5.6 1.3 3 4.3 4.7 7.1 5.5.7.2 1.4.4 2.2.5 2.3.4 4.6.6 6.9.7h.7c3 .1 6 .2 8.9-.6.3-.1.6-.2.8-.3 2-.8 3.8-2 5.5-3.5 1.8-1.6 3.5-3.6 5.1-5.5.2-.4 0-.2.3-.7z" class="coloree4645 svgShape"></path><path fill="#f6eac5" d="M77.2 51.4c-1.8.7-3.9-.5-5.1-2.3-.4-.6-.7-1.3-.9-2-.2-.6-.4-1.3-.6-1.9.3-.1.6-.2.8-.3 2-.8 3.8-2 5.5-3.5.5.4.9.9 1.3 1.4.7.9 1.2 2 1.4 3.3.5 2.1-.5 4.6-2.4 5.3z" class="colorf6e3c5 svgShape"></path><path fill="#fae9b9" d="M61.1 45.7c0 .7-.1 1.4-.2 2.1v.2c-.1.6-.2 1.3-.5 1.8-.3.6-.9 1.1-1.5 1.4-1.2.6-2.6.7-4 .5-.6-.1-1.1-.2-1.5-.7-.3-.3-.5-.8-.6-1.3 0-.5 0-1 .1-1.5.1-.6.3-1.1.5-1.6l.3-.6c.2-.4.4-.7.6-1 2.2.5 4.5.6 6.8.7z" class="colorfad2b9 svgShape"></path><path fill="#ffcf41" d="M70 35.7c0 2.8-3.2 5-7.1 5s-7.1-2.2-7.1-5S59 32 62.9 32s7.1.9 7.1 3.7z" class="colorffbf41 svgShape"></path><path fill="#96326d" d="M65 37c0-.5.3-.9.7-1 .6-.3 2.5.8 1.6 1.9-.2.3-.9.1-1.2.1-.5-.1-1.1-.3-1.1-1zM60.1 36.8c0-.5-.3-.9-.7-1-.6-.3-2.5.8-1.6 1.9.2.3.9.1 1.2.1.5 0 1.1-.2 1.1-1z" class="color963232 svgShape"></path><path d="M70 35.7v-.5.1c-.3.7-.7 1.2-1.1 1.8-.5.6-1 1.2-1.6 1.7-.7.4-1.4.6-2.2.7-1.3.2-2.7.3-4 .3-.8 0-1.6 0-2.4-.2-.1 0-.3-.1-.4-.1 1.3.8 2.9 1.3 4.7 1.3 3.8-.1 7-2.4 7-5.1z" opacity=".15" fill="#0a0a0a" class="color000000 svgShape"></path><path fill="#ffffff" d="M62 32.5h.4c.1 0 .2.2.3.3 0 .3-.2.5-.4.6-1.4.8-2.9 1.5-4.4 1.7-.3 0-1 0-.8-.6.1-.4.8-.7 1.1-.8.8-.5 1.6-.8 2.5-1 .3-.1.8-.1 1.3-.2zM64.7 33c.1.1.1.3 0 .5 0 .2-.1.4-.2.5-.1.1-.3.2-.5.1-.1-.1-.2-.2-.2-.3-.5-.7.6-1.4.9-.8z" opacity=".15" class="colorffffff svgShape"></path><path fill="#fef8e7" d="M72.1 49.1c1.1 1.8 3.2 3 5.1 2.3 1.6-.6 2.5-2.5 2.6-4.4-.4.4-.8.8-1.2 1.1-1.1.8-2.4 1.4-3.7 1.4-.7 0-1.3-.1-1.9-.4-.5-.2-.9-.6-1.3-1 .1.3.2.6.4 1z" class="colorfef7e7 svgShape"></path><path d="M78.9 43.7c-.2-.3-.4-.7-.6-1-.4-.5-.8-1-1.3-1.4-1.7 1.5-3.5 2.8-5.5 3.5-.3.1-.5.2-.8.3.1.3.2.7.3 1 .3-.3.6-.5 1-.6.6-.2 1.1-.1 1.7-.2.6 0 1.2-.1 1.7-.3.4-.2.7-.5 1.1-.7.7-.4 1.5-.5 2.4-.6zM53.9 45.5c.5.1.9.3 1.4.5.9.4 1.8 1 2.7 1 .7 0 1.3-.2 2-.3h1v-1c-2.3-.1-4.6-.3-6.9-.7 0 .2-.1.4-.2.5z" opacity=".15" fill="#0a0a0a" class="color000000 svgShape"></path><path fill="#fef8e7" d="M60.5 49.4c-1.1.6-2.3 1-3.6 1.1-.9.1-1.9.1-2.7-.3-.6-.3-1.1-.7-1.5-1.2v.7c.1.5.2 1 .6 1.3.4.4 1 .6 1.5.7 1.3.2 2.7.1 4-.5.6-.3 1.1-.7 1.5-1.4.1-.1.2-.2.2-.4z" class="colorfef7e7 svgShape"></path><path fill="#f6eac5" d="M68.7 18.1c.8-.5 1.8-.8 2.7-1 1.6-.4 3.3-.7 5-.6s3.4.7 4.6 1.9c1.8 1.9 2 4.9 1.3 7.4-.5 1.8-1.3 3.5-2.6 4.8-1.3 1.3-3.1 2.1-4.9 2.1-1.7-.1-3.2-.9-4.6-1.8-1.7-1.2-3.3-2.7-4-4.7-.6-1.4-.6-3.1 0-4.5.4-1.4 1.4-2.9 2.5-3.6z" class="colorf6e3c5 svgShape"></path><path fill="#fef8e7" d="M67.2 22.1c.2-1.2 1-2.2 2-2.8s2.1-1 3.3-1.3c1.5-.3 3.1-.4 4.6 0 1.5.4 2.9 1.4 3.5 2.8.4.8.5 1.7.6 2.6.1.8.1 1.7-.1 2.5-.3 1.3-1.3 2.4-2.4 3-1.1.7-2.5 1-3.8.9-1.8-.1-3.6-.8-4.9-1.9-1.4-1.2-2.4-2.8-2.7-4.6-.1-.6-.2-1.3.3-1.7" class="colorfef7e7 svgShape"></path><path fill="#ffffff" d="M74.1 18.7c.7.1 1.3.3 1.9.7.8.6 1.2 1.6 1.3 2.6.1 1.6-.6 3.2-1.9 4-1.3.9-3.1.9-4.4.1-1.1-.7-1.7-2-2.2-3.2-.3-.8-.7-2.1.2-2.8.8-.6 2-1.1 3-1.3.7-.2 1.4-.2 2.1-.1z" class="colorffffff svgShape"></path><circle cx="70.1" cy="20.8" r="2" fill="#f958b7" class="colorf958f1 svgShape"></circle><circle cx="70.1" cy="20.8" r="1.6" fill="#fc44b1" class="colorfc44ea svgShape"></circle><circle cx="70.1" cy="20.8" r="1.4" fill="#f958b7" class="colorf958f1 svgShape"></circle><circle cx="70.1" cy="20.8" r="1.3" fill="#ffffff" opacity=".4" class="colorffffff svgShape"></circle><g fill="#ffffff" class="colorffffff svgShape"><path d="M70.5 19.9c0-.1 0-.1 0 0 .1-.1.1-.1.2-.1v.2c0 .1-.2.5-.3.4-.2-.1.1-.4.1-.5zM70.8 20.4c.1 0 .2 0 .3.1 0 0 .1.1 0 .2 0 0-.1.1-.2.1s-.3 0-.4-.1c0-.3.3-.3.3-.3zM69.2 21.1c-.1 0-.1 0 0 0v.2h.1c.1 0 .3-.2.3-.3-.1-.2-.4 0-.4.1zM69.6 21.6v.1h.1c.1-.1.2-.3.1-.4 0-.2-.2.2-.2.3zM70.2 21.7c0 .1 0 .1 0 0h.1c0-.1 0-.3-.1-.3-.2-.1-.1.3 0 .3zM71 20.9c.1 0 .1.1.1.2s-.1.1-.1.1h-.2c-.1 0-.2-.2-.1-.3.1-.1.3 0 .3 0zM69.9 19.8s.1 0 0 0l.1.1c0 .1 0 .5-.1.3-.1-.1-.1-.3 0-.4zM69 20.6c-.1 0-.1.1-.1.2l.1.1c.1 0 .4 0 .4-.2.1-.2-.3-.2-.4-.1z" opacity=".4" fill="#0a0a0a" class="color000000 svgShape"></path></g><circle cx="70.1" cy="20.8" r=".7" fill="#282828" class="color282828 svgShape"></circle><circle cx="69.5" cy="20.2" r=".5" fill="#ffffff" class="colorffffff svgShape"></circle><circle cx="70.6" cy="21.3" r=".3" fill="#ffffff" class="colorffffff svgShape"></circle><path fill="#ffcf41" d="M76.7 7.1c2.5-.6 5.2-.5 7.8-.1-2.5.3-4.8 1.6-6.3 3.6 1-1 2.6-1.4 4.1-1.4 1.5.1 2.9.5 4.3 1-2.5 0-5 .8-7 2.2.6-.6 1.5-.8 2.3-.7.8.1 1.7.4 2.5.4.8.1 1.8-.1 2.4-.7-1.4 1.1-2.9 2.1-4.6 2.5s-3.6.4-5.1-.5c-.8-.5-1.6-1.2-2.5-1.6-1.1-.4-2.3-.2-3.3.2-1 .5-1.9 1.2-2.7 2 .3-.3.4-.9.6-1.3l.9-1.2 1.5-1.8c1.4-1.2 3.2-2.2 5.1-2.6z" class="colorffbf41 svgShape"></path><path fill="#f6eac5" d="M61 18.1c-.7-.4-1.5-.7-2.3-.8-1.4-.3-2.8-.6-4.2-.5-1.4.1-2.9.6-3.9 1.6-1.5 1.6-1.7 4.1-1.1 6.2.4 1.5 1.1 2.9 2.2 4s2.6 1.8 4.1 1.7c1.4-.1 2.7-.7 3.9-1.5 1.4-1 2.8-2.3 3.4-4a5 5 0 0 0 0-3.8c-.4-1-1.2-2.4-2.1-2.9z" class="colorf6e3c5 svgShape"></path><path fill="#fef8e7" d="M62.2 21.4c-.2-1-.9-1.8-1.7-2.4-.8-.6-1.8-.9-2.8-1.1-1.3-.3-2.6-.3-3.9 0-1.2.4-2.4 1.2-3 2.3-.3.7-.5 1.4-.5 2.2-.1.7-.1 1.4.1 2.1.3 1.1 1.1 2 2 2.6 1 .6 2.1.8 3.2.8 1.5-.1 3-.6 4.2-1.6 1.2-1 2-2.4 2.3-3.8.1-.5.1-1.1-.2-1.4" class="colorfef7e7 svgShape"></path><path fill="#ffffff" d="M56.4 18.6c-.6.1-1.1.2-1.6.6-.7.5-1.1 1.4-1.1 2.2-.1 1.3.5 2.7 1.6 3.4 1.1.7 2.6.8 3.7.1.9-.6 1.5-1.7 1.9-2.7.3-.7.6-1.8-.2-2.3-.7-.5-1.7-.9-2.5-1.1-.6-.3-1.2-.3-1.8-.2z" class="colorffffff svgShape"></path><circle cx="59.8" cy="20.3" r="1.7" fill="#f958b7" class="colorf958f1 svgShape"></circle><circle cx="59.8" cy="20.3" r="1.4" fill="#fc44b1" class="colorfc44ea svgShape"></circle><circle cx="59.8" cy="20.3" r="1.2" fill="#f958b7" class="colorf958f1 svgShape"></circle><circle cx="59.8" cy="20.3" r="1.1" fill="#ffffff" opacity=".4" class="colorffffff svgShape"></circle><g fill="#ffffff" class="colorffffff svgShape"><path d="M59.4 19.6c0-.1 0-.1 0 0l-.1-.1v.1c0 .1.2.4.3.4 0-.1-.1-.4-.2-.4zM59.1 20c-.1 0-.2 0-.2.1v.1h.1c.1 0 .3 0 .3-.1.1 0-.1-.1-.2-.1zM60.6 20.6v.1h-.1c-.1 0-.3-.2-.2-.3 0-.1.2.1.3.2zM60.2 21v.1h-.1c-.1-.1-.2-.2-.1-.4.1-.1.2.2.2.3zM59.7 21.1c0 .1 0 .1 0 0-.1 0-.1 0 0 0-.1-.1-.1-.3 0-.3s.1.3 0 .3zM59 20.5c-.1 0-.1.1-.1.1l.1.1h.2c.1 0 .1-.2.1-.2-.1-.1-.3-.1-.3 0zM59.9 19.5l-.1.1c0 .1 0 .4.1.2.1 0 .1-.2 0-.3zM60.7 20.2c.1 0 .1.1.1.2l-.1.1c-.1 0-.3 0-.3-.2-.1-.2.2-.2.3-.1z" opacity=".4" fill="#0a0a0a" class="color000000 svgShape"></path></g><circle cx="59.8" cy="20.3" r=".6" fill="#282828" class="color282828 svgShape"></circle><circle cx="60.3" cy="19.8" r=".4" fill="#ffffff" class="colorffffff svgShape"></circle><circle cx="59.4" cy="20.8" r=".2" fill="#ffffff" class="colorffffff svgShape"></circle><path fill="#ffcf41" d="M54.2 8.8c-2.1-.5-4.4-.4-6.6-.1 2.1.2 4.1 1.4 5.3 3-.9-.9-2.2-1.2-3.4-1.2s-2.4.4-3.6.8c2.1 0 4.2.7 5.9 1.9-.5-.5-1.3-.6-2-.6-.7.1-1.4.3-2.1.4-.7.1-1.5-.1-2-.6 1.1.9 2.4 1.7 3.9 2.1s3 .3 4.3-.4c.7-.4 1.3-1 2.1-1.3.9-.3 1.9-.2 2.8.2s1.6 1 2.3 1.7c-.2-.2-.4-.8-.5-1.1-.2-.4-.5-.7-.8-1-.4-.5-.8-1-1.3-1.5-1.1-1.1-2.7-1.9-4.3-2.3z" class="colorffbf41 svgShape"></path><path fill="#ffffff" d="M86.1 28.7c-.3.1-.5.1-.8.2-.1.2 0 .4.1.5.2.1.4.2.6.1.2 0 .3-.1.5-.2.1-.1.2-.3.1-.5-.1-.1-.3-.2-.4 0M86.1 32.7c-.2-.1-.5-.2-.7-.4-.1.3-.3.5-.6.8-.2.2-.4.6-.3.9.1.4.5.7.9.7.5.1.9 0 1.3-.3.3-.3.5-.8.3-1.2-.2-.4-.7-.7-1.1-.4l.1-.1M89.1 30.5c-.4-.3-1.1-.1-1.3.4-.2.5.1 1.1.6 1.3.5.1 1.1-.2 1.2-.7.1-.5-.3-1.1-.8-1.2M48.7 29.7c-.3-.3-.8-.3-1.1 0-.4.3-.3 1 .1 1.3.4.3 1 .2 1.3-.2.3-.4.2-1-.3-1.3M47.7 34.5c-.3-.1-.5-.3-.8-.4-.2.2-.3.6-.3.9.1.3.4.6.7.6.3 0 .6-.2.7-.6 0-.3-.3-.6-.6-.6M51.8 33.3c-.2 0-.5.1-.7.1-.2.3-.1.8.2 1 .3.2.8.1 1-.3 0-.3-.1-.8-.5-.8M60.7 55.7c-.4.1-.7.1-1.1.2-.1.5.1 1 .5 1.2.4.2 1 0 1.2-.5s-.3-1-.7-1M56.4 58c0 .2 0 .4.1.6.2.2.4.2.6.2.6-.1.8-1 .3-1.4-.4-.4-.9 0-1 .6zM59.9 58.4c-.1 0-.3-.1-.4-.1-.1.1-.2.3-.1.5s.2.3.4.3.5-.1.5-.3-.2-.4-.4-.3M62 58.1c-.1-.1-.3-.1-.4-.2-.2.1-.3.3-.3.5s.2.4.4.4.5-.1.5-.4c0-.2-.1-.5-.3-.5M58.1 59.8c-.1 0-.3-.1-.4-.1-.2.2-.3.5-.1.8.1.3.5.4.7.3.3-.1.5-.4.4-.7s-.4-.5-.7-.3M61 60.3c-.1-.1-.3-.2-.4-.3-.2.1-.2.3-.2.5s.2.4.4.4.4-.2.4-.4-.1-.4-.4-.4V60" opacity=".15" class="colorffffff svgShape"></path></svg>