<svg xmlns="http://www.w3.org/2000/svg" viewBox="0 0 125 125" id="DigitTwoMonster"><path fill="#e0bd58" d="M100.7 83.8c1.8 0 3.4 1.3 3.3 3.1-.2 5.9-.4 11.9-.7 17.8-.1 1.7-1.7 3.3-3.5 3.4-24.9 1.4-49.7 1.4-74.6 0-.9-.1-1.7-.4-2.4-1.1-.7-.7-1.1-1.4-1.1-2.3-.3-4.8-.5-9.5-.6-14.3-.1-2.9.9-5 3.1-6.2 14.2-8 25-14.9 32.2-20 7.2-5.1 10.8-9 10.7-11.8 0-1-.1-1.7-.2-2.3-.1-.6-.6-1.2-1.3-1.7-.8-.5-1.9-.8-3.4-.8s-2.7.3-3.7.9c-1 .6-1.7 1.3-2 1.9-.3.6-.7 1.5-1 2.7-.3 1.1-.6 1.8-.6 1.9-.3.9-1.5 1.3-3.6 1.3-8.6 0-17.2.1-25.8.2-.8 0-1.6-.3-2.2-.8-.6-.5-.9-1.2-.9-2.1.2-8.8 4.1-15.9 11.6-21.4 7.5-5.5 17.2-8.5 29.3-8.5 12.1 0 21.3 2.7 27.7 7.4 6.4 4.8 9.8 11.3 10 19.6.1 4.2-1.4 8-4.3 11.4-1.6 1.9-3.2 3.5-4.6 5-1.5 1.5-3.6 3.2-6.4 5.2C79 77 72.9 80.9 67.6 84.1c10.8.1 21.9-.1 33.1-.3z" class="colora6e058 svgShape"></path><path d="M61.4 29.9c-.6-1.5-1.5-3.1-3-3.6-.9-.3-1.9-.1-2.8.1-.8.2-1.7.4-2.4.9s-1.4 1.1-1.7 1.9c-.2-1.4-.8-2.8-1.6-4-5.9 1.3-11.1 3.6-15.5 6.7.4 1.8.9 3.5 1.8 5.1 1.1 1.9 2.9 3.6 5.2 4 1.8.3 3.7-.3 5.4-1.1 1.2-.5 2.6-1.4 3-2.6v.1c.3 1.3 1.3 2.5 2.4 3.2 1 .6 2.2.7 3.3.5.8.1 1.7 0 2.4-.3 1-.4 1.9-1.2 2.1-2.2-1.3 1.3-3.2 2-5 1.7 2-.3 3.9-1.5 5-3.2-1.1 1.4-2.7 2.3-4.4 2.4 2-.9 3.8-2.2 5.3-3.8.6-.7 1.2-1.4 1.3-2.3.2-1.1-.3-2.4-.8-3.5z" opacity=".15" fill="#0a0a0a" class="color000000 svgShape"></path><path fill="#ff36ad" d="M49.9 55c-.2.9-.2 1.7-.2 2.6s-.1 1.8-.6 2.5c-.5.8-1.3 1.3-2.3 1.5-.9.2-1.8.1-2.7-.1-1.1-.3-2.3-.8-2.8-1.9-.4-.7-.3-1.6-.2-2.4.1-1.1.2-2.3.9-3.2.8-1.1 2.3-1.4 3.6-1.7 1.9-.4 3.8-.8 5.7-.7.2 0 .5 0 .7.2.5.6-.5 1-.9 1.3-.6.4-1 1.1-1.2 1.9z" class="colorff3672 svgShape"></path><path fill="#d33291" d="M41.4 59.7c-.3-.6-.3-1.3-.3-1.9.6.8 1.2 1.5 2.1 1.9 1.3.7 3 .8 4.1-.1.8-.6 1.3-1.6 1.4-2.7.2-1 .1-2.1 0-3.1h-.6c-2.1.6-3.6 2.8-3.6 5-.4-1.3-.2-2.8.5-3.9.8-1.1 2-1.9 3.4-2-.2-.2 0-.6.2-.8.1-.1.1-.1.2-.1.8-.1 1.7-.2 2.5-.2.2 0 .5 0 .7.2.5.6-.5 1-.9 1.3-.7.4-1.1 1.1-1.3 1.8-.2.9-.2 1.7-.2 2.6 0 .9-.1 1.8-.6 2.5-.5.8-1.3 1.3-2.3 1.5s-1.8.1-2.7-.1c-.9-.3-2.1-.9-2.6-1.9z" class="colore22d60 svgShape"></path><path fill="#ffd866" d="M49.1 51.3c.8-.4 1.6-.8 2.4-1.3.3-.2.5-.4.7-.6.5.3.8.8 1 1.3.3.9.1 1.8-.4 2.6-.5.7-1.3 1.2-2.2 1.4-.9.2-1.9.1-2.7-.4-.7-.5-1.1-1.5-.8-2.4.7-.1 1.3-.3 2-.6zM44.6 54.2c-.4.6-1 1.1-1.7 1.2-.7.2-1.5 0-2.2-.2-.6-.2-1.2-.6-1.5-1.2-.3-.6-.3-1.4.2-1.8.3-.3.8-.4 1.2-.4s.9.1 1.3.2.9.1 1.3.1c.3 0 .9-.2 1.2-.1.7.4.4 1.7.2 2.2zM33.5 51.4c-1.2-.5-1.9-1.9-1.6-3.1.1-.6.6-1.3 1.2-1.3.7 0 1.1.7 1.3 1.3.2.6.5 1.3 1 1.6.8.4 2.3.6.8 1.4-.8.4-1.8.5-2.7.1zM32.2 45.1c-.2 0-.4 0-.6-.1-.2-.1-.3-.2-.4-.3-.1-.2-.1-.4 0-.6.1-.3.3-.6.6-.8.3-.1.7 0 .9.3.1.1.1.2.1.4-.1.5.1 1-.6 1.1z" class="colorffffad svgShape"></path><path fill="#bc3886" d="M46.4 51.5c-2.8.5-5.7.1-8.3-1-1.2-.5-2.4-1.2-3.3-2.2-1.8-2-2.2-4.9-2.5-7.6-.2 1.8-.1 3.6.3 5.3.5 1.7 1.4 3.3 2.7 4.5 1 .9 2.2 1.5 3.5 1.9 2.8 1 6 1 8.9.1 2.8-.9 5.5-2.7 7.2-5.1-1.3.8-2.4 1.8-3.7 2.6-1.5.6-3.1 1.2-4.8 1.5z" class="colorbc3846 svgShape"></path><path fill="#bc3886" d="M32 41c-.3.2-.5.7-.9.7-.2 0-.4-.1-.5-.3s-.1-.4-.1-.5c.1-.5.4-.8.8-1 .6-.3 1.3-.3 1.9 0 .4.2 1.6 2 .6 2-.6-.1-.7-1.8-1.8-.9zM53.2 47.2c.2-.7.9-1.1 1.6-1.1.7 0 1.4.4 1.6 1.1.3.6 0 2.7-.7 1.5-.5-1-1.1-2.1-2.5-1.5z" class="colorbc3846 svgShape"></path><path fill="#f6eac5" d="M55.1 26.8c1.7-.6 3.8.1 4.9 1.5s1.6 3.4 1.2 5.1c-.4 1.8-1.4 3.4-2.8 4.6-.8.7-1.8 1.3-2.9 1.6-1.1.3-2.3.2-3.2-.4-1.3-.8-2-2.4-2.1-4 0-3.2 1.6-7.3 4.9-8.4z" class="colorf6e3c5 svgShape"></path><path fill="#fef8e7" d="M55.2 28.7c.9-.6 2.1-.8 3-.4.7.3 1.2.9 1.5 1.6.3.7.4 1.5.4 2.2 0 1.2-.3 2.5-1.1 3.5-.7 1-1.8 1.7-3.1 1.8s-2.5-.5-3.1-1.6c-.4-.7-.4-1.6-.4-2.4.3-1.8 1.4-3.7 2.8-4.7z" class="colorfef7e7 svgShape"></path><path fill="#ffffff" d="M55.2 29.6c.3-.6 1-.9 1.6-.9.6 0 1.3.3 1.8.6.6.4 1.1.9 1.1 1.6 0 .6-.4 1.1-1 1.3-.6.2-1.2.1-1.7-.1-1-.3-2.5-1.3-1.8-2.5z" class="colorffffff svgShape"></path><path fill="#29ff70" d="M53.1 31.5c.6-.4 1.4-.3 1.9.1.6.4.8 1.2.7 1.8-.2.8-1.2 1.3-2 1.2-1.2 0-2.5-1.8-.6-3.1z" class="color29adff svgShape"></path><circle cx="53.9" cy="33" r="1.5" fill="#4003dd" class="color0394dd svgShape"></circle><circle cx="53.9" cy="33" r="1.4" fill="#29ff70" class="color29adff svgShape"></circle><circle cx="53.9" cy="33" r=".8" fill="#303030" class="color303030 svgShape"></circle><circle cx="54" cy="31.9" r="1" fill="#ffffff" opacity=".4" class="colorffffff svgShape"></circle><path fill="#f6eac5" d="M42.1 23.5c2.2-.7 4.9-.3 6.5 1.3 1.7 1.6 2.2 4 2.3 6.3.1 1.4 0 2.8-.4 4.1-.4 1.3-1.2 2.6-2.3 3.4-1.1.8-2.5 1.2-3.9 1.3-1.9.2-3.9-.1-5.4-1.3-.9-.7-1.4-1.8-1.8-2.9-.4-1.1-1-1.7-1.2-2.8-.2-1.5 0-3.9.9-5.3.7-1.1 1.9-2.2 3-2.9.7-.5 1.4-.9 2.3-1.2z" class="colorf6e3c5 svgShape"></path><path fill="#fef8e7" d="M37.6 29c.6-1.8 2.2-3.1 3.9-3.8 1.2-.5 2.6-.7 3.9-.5 1.3.2 2.5 1 3.2 2.1.7 1.2.7 2.6.7 4 0 1-.2 2-.7 2.8-.5.6-1.1 1-1.8 1.3-1.4.7-2.9 1.2-4.4.9-1.3-.2-2.4-1.1-3.4-1.8-.9-.7-1.4-1.9-1.5-3-.2-.6-.1-1.3.1-2z" class="colorfef7e7 svgShape"></path><path fill="#ffffff" d="M42 25.8c.3-.4.8-.7 1.3-.8 1.1-.2 2.1.2 3.1.7.6.3 1.2.7 1.6 1.3s.5 1.4.1 1.9c-.5.7-1.4.7-2.3.6-.7-.1-1.5-.3-2.1-.7-.7-.5-2.3-2-1.7-3z" class="colorffffff svgShape"></path><path fill="#29ff70" d="M38 27.6c.7-.5 1.8-.4 2.5.1s1.1 1.5.9 2.4c-.3 1.1-1.5 1.7-2.6 1.6-1.6-.1-3.2-2.5-.8-4.1z" class="color29adff svgShape"></path><circle cx="39.1" cy="29.5" r="1.9" fill="#4003dd" class="color0394dd svgShape"></circle><circle cx="39.1" cy="29.5" r="1.8" fill="#29ff70" class="color29adff svgShape"></circle><circle cx="39.1" cy="29.5" r="1.1" fill="#303030" class="color303030 svgShape"></circle><circle cx="39.1" cy="28.1" r="1.3" fill="#ffffff" opacity=".4" class="colorffffff svgShape"></circle><path fill="#674ea7" d="M50.2 22.2c-2.1-1.9-5-2.8-7.8-3.1-2.8-.3-5.7 0-8.5.3 1.1-.7 2.4-1 3.7-.9-1.3-.7-2.9-.9-4.3-.5 2.1-.8 4.4-.9 6.5-.2-.9-1.1-2.3-1.8-3.8-1.8 3 0 6.1 0 8.9 1.1 2.8 1.1 5.3 3.3 6 6.2-.3-.8-1-1.5-1.8-1.8M63.3 21.1c1-.3 2.1-.3 3.1 0-1.4-1.1-3.4-1.3-5.1-.6 1.3-.6 2.9-.9 4.4-.7-1.9-.7-4.1-.3-5.9.5s-3.5 2.1-5.1 3.3c1.4-.7 2.7-1.3 4.2-1.8 2.2-.7 4.8-.7 6.9.3-.5-.5-1.7-1.2-2.5-1z" class="color8b269c svgShape"></path><path fill="#50c878" d="M77.5 25.4c-1.2 1.1-2.1 2.6-2.3 4.2-.2 2.4 1.5 5 3.9 5.4 1.4.2 2.8-.3 4.1-1 1.7-.9 3.3-2.3 3.8-4.1.1-.3.1-.6.2-1-2.8-1.5-6-2.7-9.7-3.5zM65.6 48.5c.8.5 1.2 1.1 1.3 1.7.1.6.2 1.4.2 2.3 0 1.3-.7 2.7-2.2 4.5.6.2 1.3.3 2 .1 1.1-.3 2-1.1 2.6-2 1.1-1.6 1.7-3.7 1.1-5.5-.6-1.9-2.6-3.3-4.5-2.9-.9.2-1.6.7-2.3 1.3.8 0 1.3.2 1.8.5zM48.8 72.4c.9.5 2.1.7 3.1.2.6-.3 1.1-.9 1.4-1.6.7-1.3.8-2.9.1-4.2-.1-.1-.1-.2-.2-.3-1.9 1.3-3.9 2.6-6.2 4.1.4.7 1 1.4 1.8 1.8zM94.2 46.7c.7 1 2 1.6 3.3 1.5 1.1-.1 2.1-.7 2.9-1.5-.5-3.1-1.6-6-3.1-8.5-1.6.8-2.9 2.9-3.4 4.2-.5 1.5-.5 3.1.3 4.3zM90 61.8c-.1 1.9.9 3.8 2.5 4.9 1.3-1.3 2.7-2.8 4.1-4.4 1.4-1.7 2.5-3.4 3.2-5.2-1.6-.9-3.6-1.2-5.2-.8-2.6.6-4.5 2.9-4.6 5.5zM77 72.7c-1.5.6-2.5 2-2.9 3.6-.3 1.1-.3 2.5 0 3.8 2.5-1.6 5.2-3.4 7.9-5.2-.2-.5-.4-.9-.7-1.2-1-1.4-2.9-1.7-4.3-1zM28.4 85c1.4 1.1 3.5 1.3 5 .5.7-.4 1.3-.9 1.6-1.7.4-.9.3-2-.1-3-.3-.8-.7-1.5-1.3-2.1-2.1 1.3-4.4 2.6-6.7 3.9.3 1 .8 1.8 1.5 2.4zM25.3 95c-.5-1.9-2.4-2.9-4.2-2.9.1 3.3.3 6.7.4 10 .2 0 .4-.1.6-.1 1.4-.4 2.5-1.5 3-2.8.6-1.3.6-2.8.2-4.2zM46.2 94.9c-.1 1.2-.8 2.3-1.6 3.2-.7.7-1.5 1.4-2.5 1.6-3.5.6-5.6-4.9-3.6-7.4 2.3-2.8 8-1.5 7.7 2.6zM54 104.3c-1.8-.8-3.9-.8-5.5.4-1.4 1-2 2.6-2 4.3 3.5.1 7 .1 10.5.2 0-.7 0-1.5-.3-2.2-.5-1.3-1.5-2.2-2.7-2.7zM80.1 102c-1.8.4-3.3 1.6-4.4 3-.9 1.2-1.4 2.6-1.9 4h.1l.2-.5c0 .2-.1.4-.1.5 4.3-.1 8.6-.2 12.9-.4.2-.7.2-1.5 0-2.3-.7-2.8-3.9-4.9-6.8-4.3zM103.4 101.7c.2-4.1.4-8.2.5-12.4-.1 0-.3-.1-.4-.1-1.4-.2-2.9.1-4.2.9-1.7 1.1-2.9 3.1-3.1 5.1-.1 2.1.8 4.2 2.5 5.4 1.4 1 3.1 1.4 4.7 1.1zM79.4 86.9c-.4 1.8.4 3.7 1.8 4.9 1.4 1.2 3.3 1.6 5.1 1.4 2.1-.2 4.2-1.3 5.4-3s1.5-4.2.5-6l-.1-.1c-3.6.1-7.1.1-10.7.2-1 .5-1.7 1.4-2 2.6zM84 43.4c-.4-1-1.1-2-2-2.5-.9-.5-2-.6-3-.2-1 .4-1.7 1.2-2 2.2l.8-.8c-1.2 1.2-2 2.7-2.2 4.4-.2 1.9.7 4 2.4 4.8 1.9.9 4.5 0 5.7-1.8 1.2-1.7 1.2-4.1.3-6.1zM63.7 65.6c-1.3 1.9-2 4.3-1.2 6.4 1 2.3 3.9 3.5 6.3 2.8 2.4-.8 4.1-3.3 4-5.8 0-2-1.5-5-3.4-5.9-2.2-.9-4.6.8-5.7 2.5zM51 83.9c-.5 1.3-.5 2.8-.1 4.1s1.5 2.5 2.9 2.9c1.3.4 2.9 0 3.8-1.2.6-.8.8-1.9.7-2.9-.1-1.5-.9-5.1-2.3-5.9-2.2-1.3-4.4 1.2-5 3zM63.1 97.9c.7 1.1 2 1.9 3.3 1.9 1.5 0 2.9-1 3.5-2.4 1.3-2.9-.7-7.5-4.3-7.3-3.5.2-4.1 5.4-2.5 7.8zM76.4 58.6c-.3 1.1-.3 2.2.1 3.3s1.2 1.9 2.2 2.3c1.3.5 2.8 0 3.7-.9 1.8-1.9 1.3-5.5-.3-7.4-2.1-2.5-5.2.4-5.7 2.7zM64.1 38.4c.2 1.3 1.1 2.6 2.3 3.1 1.3.5 2.9.1 3.9-.8 1-1 1.5-2.4 1.4-3.8-.2-1.9-1.9-5.3-4.3-5-2.5.3-3.6 4.3-3.3 6.5zM25.1 50.8c1.7.2 3.2-1.3 3.6-2.9.4-1.6-.3-3.4-1.3-4.7-.6-.8-1.3-1.3-2-1.5-1.3 2.4-2.3 5-2.8 7.8.7.6 1.5 1.2 2.5 1.3z" class="color80ad44 svgShape"></path><path d="M99.7 108.1c.2 0 .5 0 .7-.1-.7-.1-1.5-.2-2.2-.3-4.9-.8-9.7-2.2-14.6-3-14.7-2.3-29.7 1.8-44.6 1-3.3-.2-6.6-.6-9.6-2s-5.6-3.8-6.6-6.9c-1.1-3.5 0-7.4 2-10.5 1.5-2.3 3.8-3.9 5.7-5.8-2.1 1.2-4.2 2.4-6.5 3.7-2.2 1.2-3.2 3.2-3.1 6.2.2 4.8.4 9.5.6 14.3 0 .9.4 1.6 1.1 2.3.7.7 1.5 1 2.4 1.1 25 1.4 49.9 1.4 74.7 0zM90.8 31.3c-4-3-9.1-5.1-15.4-6.3 1.8.9 4 1.6 5.5 2.4 2.7 1.5 5.4 3.2 7.7 5.3 4.6 4.2 8 10.2 7.4 16.4-.3 3.5-1.8 6.7-3.5 9.7-6 10.6-15 19.5-25.7 25.4.2 0 .5-.1.7-.1 5.3-3.1 11.2-7 17.9-11.6 2.8-2 5-3.7 6.4-5.2 1.5-1.5 3-3.1 4.6-5 3-3.4 4.4-7.2 4.3-11.4-.1-8.3-3.5-14.8-9.9-19.6zM66 58.1c1.2-1.6 2.1-3.5 2.1-5.5s-1-4.1-2.7-5.1c-1.4-.8-3.6-.7-5 .3.6-.1 1.1-.2 1.8-.2 1.5 0 2.6.3 3.4.8.8.5 1.2 1.1 1.3 1.7.1.6.2 1.4.2 2.3 0 2.8-3.6 6.7-10.7 11.8-4 2.8-9.2 6.2-15.4 10.1 7.5-2.8 14.4-7.3 20.7-12.2 1.5-1.1 3.1-2.4 4.3-4z" opacity=".15" fill="#0a0a0a" class="color000000 svgShape"></path><path fill="#404040" d="M46.4 45.1c0 .4.1.9.5 1h.1c.3.1.6-.1.9-.2.4-.2.8-.5.9-.9.4-1.3-2.7-2.7-2.4.1z" class="color5f740d svgShape"></path><path fill="#50c878" d="M65.9 26.7c-.2-.4-.8-.5-1.1-.2l.2.4-.9-.6c-.4.2-.5.8-.4 1.3 0 .3 0 .7.3 1 .2.2.6.2.8.1.4-.1.8-.3 1.1-.7s.3-1 0-1.3z" class="color80ad44 svgShape"></path><path fill="#404040" d="M39 43.6c-.4-.2-1 0-1.2.4s-.2.9 0 1.3c.1.2.3.4.5.5.4.2.9-.1 1.2-.4.4-.4.6-1 .4-1.5-.2-.5-.9-.7-1.3-.4" class="color5f740d svgShape"></path><path fill="#ffffff" d="M60.8 44.1c1.7-.6.8-3.2-.8-2.8-1.9.4-1 3.5.8 2.8zM83.7 36c-.6-.3-1.3 0-1.5.6s.1 1.3.7 1.5c.6.2 1.3-.2 1.4-.8S84 36 83.4 36M87.1 53.2c.3.3.8.4 1.2.2 1.2-.4 2.1-2.5.5-3-1.3-.3-2.5 1.8-1.7 2.8zM74.4 53c.5.2.9.8.7 1.3-.1.5-.7.9-1.3.8-.5-.1-.9-.7-.8-1.2.1-.5.6-1 1.2-.9M77.5 67c-.6-.2-1.4.3-1.4 1 0 .6.5 1.1 1 1.1.6 0 1.1-.4 1.2-1s-.4-1.1-.9-1.2M58.4 73.8c0 .8-.7 1.6-1.5 1.7-.8.1-1.7-.6-1.8-1.4-.3-2.3 3.2-2.6 3.3-.3zM64.4 78.8c-.6-.3-1.5.1-1.7.7-.2.7.2 1.5.9 1.6s1.4-.4 1.5-1.1c0-.7-.6-1.3-1.3-1.3M44.4 78.2c-.5-.1-.9-.2-1.4-.3-.5.3-.8 1-.6 1.6.2.6.9.9 1.4.8s1.1-.7 1-1.3c-.1-.6-.6-1.1-1.2-1.1M30.9 90.4c-.1.3-.2.6-.1.9.1.3.3.6.6.7.4.1.9-.1 1.2-.3.7-.5 2.3-2 .9-2.8-.9-.6-2.3.7-2.6 1.5zM52.5 94.3c-.4-.6-1.3-.6-1.8-.1s-.3 1.4.2 1.9 1.4.5 2 .1c.4-.2.7-.7.6-1.2-.1-.3-.3-.6-.7-.7-.3-.1-.7-.1-1-.1M73.2 88.1c-.6-.4-1.4-.2-1.7.4-.3.6 0 1.4.6 1.7s1.4-.1 1.6-.7c.2-.6-.2-1.4-.9-1.6M82.4 96.2c-.4-.2-.7-.3-1.1-.5-.4.3-.9.8-.8 1.3 0 .4.3.7.6.9.3.2.7.2 1.1.2.3 0 .6 0 .9-.1.3-.1.5-.4.6-.7.1-.4-.2-.8-.6-1s-.8-.3-1.3-.3M94.3 91.1c-.3-.2-.9-.2-1.2.1-.3.3-.5.7-.6 1.1-.1.4-.1.9.2 1.2.3.3.9.3 1.3 0s.6-.7.8-1.1c.1-.3.2-.7.1-1-.1-.3-.5-.6-.8-.4M92.3 100.4c-.3-.3-.7-.5-1-.8-.5.4-.9 1-1 1.6-.1.5.1 1.2.6 1.4.3.1.6.1.9 0 .6-.2 1.1-.9 1.1-1.5 0-.7-.6-1.3-1.3-1.3" opacity=".2" class="colorffffff svgShape"></path><g fill="#ffffff" class="colorffffff svgShape"><path d="M100.7 83.8c-11 .3-22.1.4-33.1.4-.3.9 1.9 2 3.6 1.8 1.6-.1 3.1-.9 4.7-1.2 5.1-1.1 10.2 1.8 15.3 1.7 3-.1 5.9-1.1 8.8-.5 1.4.3 2.7 1 4 1.6v-.8c0-1.7-1.5-3.1-3.3-3zM68.6 83.4c-.6.2-.9.4-1.1.7.4-.3.8-.5 1.1-.7z" opacity=".2" fill="#0a0a0a" class="color000000 svgShape"></path></g><path d="M22.2 53.8c0 .9.3 1.6.9 2.1.6.5 1.4.8 2.2.8 4.3-.1 8.6-.1 12.8-.1.1-.1.2-.2.4-.3-2.3.1-4.7.2-7-.3-2.3-.6-4.5-1.9-5.6-3.9-1.2-2.1-1-4.8-.2-7.1s2.3-4.3 3.8-6.2c.9-1.2 1.7-2.3 2.6-3.5.4-.5.8-1.2.5-1.8 0 0 0-.1-.1-.1-6.6 5.3-10.1 12.1-10.3 20.4z" opacity=".15" fill="#0a0a0a" class="color000000 svgShape"></path></svg>