<svg xmlns="http://www.w3.org/2000/svg" viewBox="0 0 125 125" id="MathematicalFourMonster"><path fill="#ffd866" d="M107.1 69.8v17.6c0 .9-.3 1.6-1 2.3-.7.6-1.4.9-2.4.9H92.9v10.1c0 .9-.3 1.6-1 2.2-.7.6-1.4.9-2.3.9H64.7c-.9 0-1.7-.3-2.3-.9-.7-.6-1-1.4-1-2.2V90.6H21.3c-.9 0-1.7-.3-2.4-.9-.7-.6-1-1.4-1-2.3V69.9c0-1.3.5-2.6 1.4-3.7l37.5-43.1c1.2-1.3 2.7-2 4.6-2h28.2c.9 0 1.7.3 2.3.9.7.6 1 1.4 1 2.3v42.3h10.8c1 0 1.8.3 2.5.9.6.7.9 1.5.9 2.3z" class="colora6ce39 svgShape"></path><path d="M70.9 60.9c0 1.6-1 3-2.3 3.9-1.3.9-2.8 1.3-4.4 1.6-3.9.8-8 .9-12 .3-2-.3-4-.7-5.6-1.9-.7-.4-3.8-3.7-2.4-4.3.6-.2 2.3.9 2.9 1.1 1 .4 2.1.7 3.2 1 4.3 1.1 8.9 1.3 13.3.5 2.6-.4 5-1.2 7.3-2.2z" opacity=".15" fill="#0a0a0a" class="color000000 svgShape"></path><path fill="#50c878" d="M43.2 71.3c.5 3.3 2 6.6 4.7 8.4 3.3 2.2 7.7 2 11.6 1.1 2.9-.7 5.8-1.7 8.2-3.5 2.4-1.8 4.3-4.4 4.8-7.3.6-3.2-.5-6.5-1.6-9.6-.2 1-1 1.7-1.8 2.1-.9.4-1.9.5-2.8.6-5.6.6-11.4 1.3-16.9.1-2.2-.6-4.4-1.4-5.4-3.5-1.2 3.4-1.3 8-.8 11.6z" class="color612622 svgShape"></path><path fill="#d33291" d="M49.7 69.7c-1.6-.5-4.4-.3-6.7.5 0 .4 0 .8.1 1.1.5 3.3 2 6.6 4.7 8.4 2.6 1.8 5.9 2 9.1 1.5.4-1.4.3-3.1-.2-4.5-1-3.2-3.6-6.1-7-7z" class="colord13737 svgShape"></path><path fill="#674ea7" d="M44.8 76.2c.5 1 1.2 1.9 2 2.6 1-2.7 1.2-5.7.5-8.6-.2 1.4-.7 2.8-1.3 4.1-.1.3-.7 1.1-1.2 1.9zM52.6 78.6l-.6 1.8c-.1.2-.3.5-.4.7 1.1.2 2.2.3 3.4.3 0-2.8-.7-5.5-2-7.9.4.8.4 1.7.3 2.6-.2.9-.4 1.7-.7 2.5zM61.5 76.4c-.4-.9-.7-1.8-.7-2.7-.3.4-.3 1.3-.3 1.8-.1.7-.1 1.4-.1 2.1 0 1 .1 2 .3 2.9.9-.2 1.7-.5 2.5-.8-.6-1.1-1.2-2.2-1.7-3.3zM70.5 74.5c-1.3-1.6-2.5-3.2-3.8-4.8-.2-.2-.4-.4-.7-.3-.2.1-.1.4-.1.6.3 1.6 1 3.3 1.7 4.8.2.5.5 1.3.8 1.8.8-.6 1.5-1.3 2.1-2.1zM66.3 63.1c-1 .1-1.9.2-2.9.3l.3.3c.9 1.2 1.3 2.7 1.1 4.2.6-1.2 1.3-2.4 1.6-3.7.1-.4.1-.8.2-1.2-.1.1-.2.1-.3.1zM49.4 63.2c-.5-.1-.9-.3-1.4-.4-.2.3-.3.7-.4 1.1-.1.6-.4 4 .4 4.1.4 0 1.4-1.3 1.7-1.5.6-.6 1.2-1.1 1.7-1.7.4-.3.7-.7.9-1.1-.9-.1-1.9-.3-2.9-.5z" class="colorffffff svgShape"></path><circle cx="58.1" cy="48.3" r="9.4" fill="#e5e4e2" class="colore2e3e5 svgShape"></circle><circle cx="58.1" cy="47.8" r="8.1" fill="#674ea7" class="colorffffff svgShape"></circle><circle cx="58.1" cy="47.2" r="2.8" fill="#0a0a0a" class="color000000 svgShape"></circle><ellipse cx="58.9" cy="46.3" fill="#674ea7" rx=".8" ry=".5" class="colorffffff svgShape"></ellipse><path d="M107.1 87.4V69.8c0-.9-.3-1.6-1-2.3-.7-.6-1.5-.9-2.5-.9H92.9V24.3c0-.9-.3-1.6-1-2.3-.7-.6-1.4-.9-2.3-.9H61.3c-1.9 0-3.4.7-4.6 2L19.3 66.3c-.9 1.1-1.4 2.3-1.4 3.7v17.5c0 .9.3 1.6 1 2.3.7.6 1.4.9 2.4.9h22.4c-6-.5-12-1-18.1-1.5-1.6-.1-3.4-.4-4.4-1.6-.7-.9-.9-2.1-1-3.3-.2-2.5-.5-4.9-.7-7.4-.3-3-1.1-6.1.8-8.4 9-10.9 18.1-21.7 27.1-32.6 3.8-4.5 7.8-9.2 13.2-11.4 4.2-1.7 8.8-1.8 13.4-1.7 3.7 0 7.4.1 11.1.3 1.4.1 3 .2 4 1.2 1.1 1.1 1.1 2.8 1 4.3-.4 9.9-.8 19.9-1.1 29.8-.1 2-.2 4.1.4 6.1.5 2 1.7 3.9 3.5 4.7 1.9.9 4.1.6 6.2.7 2.1.1 4.5 1 5.1 3 .6 2 .3 4.2.1 6.3-.2 2.1-.3 4.3.5 6.2.4 1 1.2 1.9 2.2 2.4.1-.2.1-.3.1-.4z" opacity=".15" fill="#0a0a0a" class="color000000 svgShape"></path><path d="M55.7 37.2c5.3-1.3 11.3 1.1 14.4 5.6-2-4.1-6.2-7-10.7-7.4s-9.2 1.5-12 5.1c-2.7 3.4-3.8 8.7-2.1 12.8.6-3.3.6-6.6 2.2-9.6 1.8-3.2 4.8-5.6 8.2-6.5zM90.3 101.4c-2 1.4-4.6 1.6-7.1 1.7-4.3.1-8.6 0-12.9-.2-1.9-.1-3.8-.3-5.3-1.3-1.7-1.1-2.7-3.1-3-5.1-.3-1.7-.5-3.5-.7-5.8v10.1c0 .9.3 1.6 1 2.2.6.6 1.4.9 2.3.9h24.9c.9 0 1.7-.3 2.3-.9.7-.6 1-1.4 1-2.2v-2.5c-.5 1.2-1.3 2.3-2.5 3.1z" opacity=".15" fill="#0a0a0a" class="color000000 svgShape"></path><path d="M54 58.4c2.6.7 5.4.8 8 0 2.6-.8 4.9-2.6 5.9-5.1 1.3-3.1.5-6.6-.3-9.8 1.1.8 1.7 2.1 2 3.4.3 1.3.3 2.7.3 4 0 1.4 0 2.9-.6 4.2-.7 1.5-2 2.6-3.5 3.3-1.5.7-3.2 1-4.8 1.2-1.8.2-3.6.4-5.4 0-1.8-.4-3.5-1.4-4.3-3 1.3.6 2.6 1.3 3.9 1.9" opacity=".15" fill="#0a0a0a" class="color000000 svgShape"></path><circle cx="77.4" cy="33.1" r="4.5" fill="#e5e4e2" class="colore2e3e5 svgShape"></circle><circle cx="77.4" cy="32.9" r="3.8" fill="#674ea7" class="colorffffff svgShape"></circle><circle cx="77.4" cy="32.6" r="1.4" fill="#0a0a0a" class="color000000 svgShape"></circle><ellipse cx="77.8" cy="32.1" fill="#674ea7" rx=".4" ry=".3" class="colorffffff svgShape"></ellipse><path d="M76.3 27.8c2.5-.6 5.4.5 6.9 2.7-1-1.9-2.9-3.3-5.1-3.5s-4.4.7-5.7 2.4c-1.3 1.6-1.8 4.1-1 6.1.3-1.6.3-3.1 1.1-4.6.8-1.5 2.2-2.7 3.8-3.1z" opacity=".15" fill="#0a0a0a" class="color000000 svgShape"></path><path d="M75.5 37.9c1.2.3 2.6.4 3.8 0 1.2-.4 2.3-1.2 2.8-2.4.6-1.5.3-3.1-.1-4.7.5.4.8 1 .9 1.6.1.6.1 1.3.1 1.9 0 .7 0 1.4-.3 2-.3.7-1 1.3-1.7 1.6s-1.5.5-2.3.6c-.9.1-1.7.2-2.6 0-.8-.2-1.7-.6-2.1-1.4.6.3 1.3.6 1.9.9" opacity=".15" fill="#0a0a0a" class="color000000 svgShape"></path><circle cx="80" cy="48.1" r="4.5" fill="#e5e4e2" class="colore2e3e5 svgShape"></circle><circle cx="80" cy="47.9" r="3.8" fill="#674ea7" class="colorffffff svgShape"></circle><circle cx="80" cy="47.6" r="1.4" fill="#0a0a0a" class="color000000 svgShape"></circle><ellipse cx="80.4" cy="47.2" fill="#674ea7" rx=".4" ry=".3" class="colorffffff svgShape"></ellipse><path d="M78.9 42.9c2.5-.6 5.4.5 6.9 2.7-1-1.9-2.9-3.3-5.1-3.5-2.1-.2-4.4.7-5.7 2.4-1.3 1.6-1.8 4.1-1 6.1.3-1.6.3-3.1 1.1-4.6.7-1.6 2.1-2.7 3.8-3.1z" opacity=".15" fill="#0a0a0a" class="color000000 svgShape"></path><path d="M78.1 52.9c1.2.3 2.6.4 3.8 0 1.2-.4 2.3-1.2 2.8-2.4.6-1.5.3-3.1-.1-4.7.5.4.8 1 .9 1.6s.1 1.3.1 1.9c0 .7 0 1.4-.3 2-.3.7-1 1.3-1.7 1.6s-1.5.5-2.3.6c-.9.1-1.7.2-2.6 0-.8-.2-1.7-.6-2.1-1.4.6.3 1.3.6 1.9.9M52.8 83c3.8.4 7.7.2 11.3-1.1 3.6-1.3 6.8-3.9 8.6-7.2 1.8-3.4 2.1-7.6.3-11.1 1.9 1.2 2 3.9 1.8 6.2-.3 3.5-1 7.3-3.5 9.9-2.1 2.2-5.3 3.2-8.3 3.9-4.2 1-8.6 1.7-12.8.6-4.2-1.1-8-4.5-8.4-8.8.1.9 1.7 2.6 2.3 3.4.5.8 1 1.3 1.8 1.9 2 1.4 4.5 2 6.9 2.3z" opacity=".15" fill="#0a0a0a" class="color000000 svgShape"></path></svg>