<svg xmlns="http://www.w3.org/2000/svg" viewBox="0 0 125 125" id="NumberOneMonster"><radialGradient id="a" cx="66.183" cy="20.261" r="6.929" gradientUnits="userSpaceOnUse"><stop offset="0" stop-color="#46f982" class="stopColor46bdf9 svgShape"></stop><stop offset=".234" stop-color="#42f77e" class="stopColor42baf7 svgShape"></stop><stop offset=".484" stop-color="#35f274" class="stopColor35b3f2 svgShape"></stop><stop offset=".739" stop-color="#20e963" class="stopColor20a6e9 svgShape"></stop><stop offset=".993" stop-color="#4003dd" class="stopColor0394dd svgShape"></stop></radialGradient><path fill="url(#a)" d="M74.6 20.7c.1.5-.7.9-1.2 1.1-1.3.6-2.5 1.6-3.4 2.8-.6.9-1.9.8-2.8.2-.7-.4-1.4-.4-2.1 0-.9.5-2.2.6-2.9-.2-.9-1.2-2-2.2-3.4-2.8-.5-.2-1.2-.6-1.2-1.1.8-.2 1.9-.6 2.6-.3-.8-1.1-.4-2.2.1-2.4.5-.2 1.2.2 1.6.4-.3-.6-.5-1.2-.5-1.9 0-.4.1-.9.5-1.1.5-.3 1.1.1 1.6.5 1.4 1.3 2.3 3 2.6 4.9.3-1.8 1.2-3.6 2.5-4.9.4-.4 1.1-.8 1.6-.5.4.2.5.7.5 1.1 0 .7-.2 1.3-.5 1.9.4-.3 1.1-.6 1.6-.4.5.2.9 1.2.1 2.4.9-.3 2 0 2.7.3z"></path><path fill="#d34a9b" d="M75.4 23.7c1.2-1.6 1.8-3.8 1-5.7-.2-.6-.5-1.1-.7-1.6-.2-.6-.3-1.2 0-1.7s.8-.8 1.4-1.1c1.6-.6 3.4-.6 5-.1s3.1 1.5 4.2 2.8c2.3 2.6 3.3 6.3 2.5 9.7s-3.4 6.2-6.7 7.4c-3.3 1.1-7.1.4-9.7-1.9-.8-.7-2.7-3-1.7-4.2.2-.3.8-.4 1.2-.6.4-.2.9-.5 1.3-.8.9-.7 1.6-1.4 2.2-2.2z" class="colord3654a svgShape"></path><path fill="#ffd866" d="M82.2 13.4c-1.6-.5-3.4-.5-5 .1-.6.2-1.1.5-1.4 1.1-.3.5-.2 1.2 0 1.7.2.6.5 1.1.7 1.6.1.3.2.5.2.8 1-.4 2-.7 3.2-.7 1 0 2 .1 3 .4 2.2.6 4.1 1.8 6 3.1-.4-1.9-1.2-3.7-2.5-5.2-1.1-1.3-2.6-2.3-4.2-2.9zM88.7 26.3c-3.8-2.3-8.3-3.5-12.8-3.5-.2.3-.3.6-.6.9-.6.8-1.3 1.5-2.2 2.1-.1.1-.2.1-.3.2.3.1.5.1.8.1 4.3.7 8.5 2.4 12.1 4.9 1.5-1.2 2.5-2.9 3-4.7z" class="colorf0cea0 svgShape"></path><path d="M86.4 16.2c-.6-.7-1.3-1.3-2-1.7.5 3.3.4 6.8-.6 10-.4 1.2-.8 2.3-1.4 3.3-1 1.9-2.3 3.6-3.9 5.1-.2.2-.5.5-.8.7 1.5.2 3.1.1 4.5-.4 3.3-1.1 5.9-4 6.7-7.4.8-3.3-.2-7-2.5-9.6z" opacity=".15" fill="#0a0a0a" class="color000000 svgShape"></path><path fill="#ffffff" d="M78.3 19.9c-.2-.7-.5-1.3-.6-2-.1-.7-.1-1.5.3-2 .5-.7 1.5-.9 2.4-.6.8.3 1.4 1 1.7 1.8.3.8.4 1.7.4 2.6 0 1.9-.3 3.9-1.2 5.6-.9 1.7-2.5 3.1-4.4 3.5-.8.2-1.9.1-2-.9-.1-.8.6-.8 1.2-1 1.4-.6 2.2-2.7 2.4-4 .1-1.1.1-2.1-.2-3z" opacity=".15" class="colorffffff svgShape"></path><path fill="#ffffff" d="M79 22.4v-3.8c0-.5.1-1.2.5-1.4.4-.2.8 0 1 .3.2.3.3.7.4 1.1.4 2.6-.3 5.3-1.8 7.4-.4.5-1.3 1.5-2 1.1-.5-.3-.1-.5.3-.7 1.4-.9 1.6-2.3 1.6-4z" opacity=".15" class="colorffffff svgShape"></path><path fill="#d34a9b" d="M54.7 23.7c-1.2-1.6-1.8-3.8-1-5.7.2-.6.5-1.1.7-1.6.2-.6.3-1.2 0-1.7s-.8-.8-1.4-1.1c-1.6-.6-3.4-.6-5-.1s-3.1 1.5-4.2 2.8c-2.3 2.6-3.3 6.3-2.5 9.7.8 3.4 3.4 6.2 6.7 7.4 3.3 1.1 7.1.4 9.7-1.9.8-.7 2.7-3 1.7-4.2-.2-.3-.8-.4-1.2-.6-.4-.2-.9-.5-1.3-.8-.8-.7-1.6-1.4-2.2-2.2z" class="colord3654a svgShape"></path><path fill="#ffd866" d="M48 13.4c1.6-.5 3.4-.5 5 .1.6.2 1.1.5 1.4 1.1.3.5.2 1.2 0 1.7-.2.6-.5 1.1-.7 1.6-.1.3-.2.5-.2.8-1-.4-2-.7-3.2-.7-1 0-2 .1-3 .4-2.2.6-4.1 1.8-6 3.1.4-1.9 1.2-3.7 2.5-5.2 1.1-1.3 2.5-2.3 4.2-2.9zM41.4 26.3c3.8-2.3 8.3-3.5 12.8-3.5.2.3.3.6.6.9.6.8 1.3 1.5 2.2 2.1.1.1.2.1.3.2-.3 0-.6 0-.8.1-4.3.7-8.5 2.4-12.1 4.9-1.4-1.2-2.5-2.9-3-4.7z" class="colorf0cea0 svgShape"></path><path d="M43.8 16.2c.6-.7 1.3-1.3 2-1.7-.5 3.3-.4 6.8.6 10 .4 1.2.8 2.3 1.4 3.3 1 1.9 2.3 3.6 3.9 5.1.2.2.5.5.8.7-1.5.2-3.1.1-4.5-.4-3.3-1.1-5.9-4-6.7-7.4-.8-3.3.2-7 2.5-9.6z" opacity=".15" fill="#0a0a0a" class="color000000 svgShape"></path><path fill="#ffffff" d="M51.8 19.9c.2-.7.5-1.3.6-2 .1-.7.1-1.5-.3-2-.5-.7-1.5-.9-2.4-.6s-1.4 1-1.7 1.8c-.3.8-.4 1.7-.4 2.6 0 1.9.3 3.9 1.2 5.6.9 1.7 2.5 3.1 4.4 3.5.8.2 1.9.1 2-.9.1-.8-.6-.8-1.2-1-1.4-.6-2.2-2.7-2.4-4-.1-1.1 0-2.1.2-3z" opacity=".15" class="colorffffff svgShape"></path><path fill="#ffffff" d="M51.2 22.4v-3.8c0-.5-.1-1.2-.5-1.4-.4-.2-.8 0-1 .3-.2.3-.3.7-.4 1.1-.4 2.6.3 5.3 1.8 7.4.4.5 1.3 1.5 2 1.1.5-.3.1-.5-.3-.7-1.5-.9-1.7-2.3-1.6-4z" opacity=".15" class="colorffffff svgShape"></path><radialGradient id="b" cx="62.5" cy="68.005" r="38.462" gradientUnits="userSpaceOnUse"><stop offset="0" stop-color="#46f982" class="stopColor46bdf9 svgShape"></stop><stop offset=".234" stop-color="#42f77e" class="stopColor42baf7 svgShape"></stop><stop offset=".484" stop-color="#35f274" class="stopColor35b3f2 svgShape"></stop><stop offset=".739" stop-color="#20e963" class="stopColor20a6e9 svgShape"></stop><stop offset=".993" stop-color="#4003dd" class="stopColor0394dd svgShape"></stop></radialGradient><path fill="url(#b)" d="M83 28.1c1 19.3 1.3 38.5.8 57.7 0 0 .5-.2 7.4-.5 1 0 1.8.2 2.4.8.7.6 1 1.3.9 2.2-.3 6-.8 11.9-1.4 17.9-.1.9-.5 1.7-1.2 2.4s-1.5 1.1-2.5 1.2c-25 2.6-22 2.7-47 .5-.9-.1-1.7-.5-2.4-1.2s-1.1-1.5-1.2-2.4c-.5-6-.9-12.1-1.2-18.1 0-.9.3-1.6.9-2.2.7-.6 1.5-.9 2.4-.9 8 .3 1 .3 9 .4-.1-10-.2-19.9-.1-29.9-4.4 2.8.4-.2-4 2.6-.8.5-1.6.7-2.4.8-.8 0-1.7-.6-2.5-1.7-3.5-5.1-6.9-10-10.1-14.8-.3-.6-.4-1.3-.4-2.2 0-.8.7-1.7 1.8-2.6 9.9-6.4 10.4-7.2 19.7-13.6.6-.4 1.3-.5 2-.6 8.5-.3 17-.1 25.5.4.9.1 1.7.4 2.4 1.1.8 1 1.1 1.8 1.2 2.7z"></path><path fill="#ffffff" d="M69.7 29.8c5 .8 9.6 3.7 12.9 7.6S88 46 89.2 51c1.2 5.1 1.5 10.4.2 15.4s-4.4 9.7-9 12.3c-3.5 2-7.6 2.7-11.7 2.4-4-.3-7.9-1.4-11.7-2.9-3.2-1.3-6.3-2.9-8.4-5.6-2.6-3.5-3-8.2-2.7-12.5.4-6.8 2.5-12.7 4.6-19.1 1.6-4.9 4.9-8.2 9.8-10.1 3-1.2 6.3-1.6 9.4-1.1z" opacity=".15" class="colorffffff svgShape"></path><path fill="#ffffff" d="M64.6 91.2c7.5.6 15-1.6 21.4-5.6-2 .1-2.2.2-2.2.2.4-18.5.2-37-.7-55.5l-.2-.2c-4.9-3.3-11.2-4-17-2.9-7.4 1.4-14.3 5.5-19 11.4-2.2 2.7-3.9 5.8-5.1 9.1-1 2.7-1.5 5.6-1.9 8.4.4.5.8 1.1 1.1 1.6.9 1.1 1.7 1.7 2.5 1.7s1.6-.3 2.4-.8c4.4-2.8-.4.2 4-2.6 0 10.1 0 20 .1 30h-.1c4.3 3 9.5 4.8 14.7 5.2z" opacity=".15" class="colorffffff svgShape"></path><path fill="#ffffff" d="M58.7 111.7c.9.1 1.7.1 2.3.1 7.4.3 11.9-.2 26-1.7 2.3-1.4 4.4-3.1 6.2-5 .3-2.8.5-5.6.7-8.4.2-2.8.4-5.6.5-8.4 0-.9-.3-1.6-.9-2.2-.7-.6-1.5-.9-2.4-.8-6.9.3-7.4.5-7.4.5.6-19.2.3-38.4-.7-57.7 0-.9-.4-1.7-1.1-2.4-.7-.7-1.5-1.1-2.4-1.1l-5.7-.3c-1.1 0-2.2-.1-3.3-.1H58.1c-4.7 1.5-9 3.7-12.4 7.2-2.8 2.9-4.7 6.4-6.1 10.2-1.2 3.4-2 6.9-2.7 10.4 1.3 1.9 2.7 3.9 4 5.8.9 1.1 1.7 1.7 2.5 1.7s1.6-.3 2.4-.8c4.4-2.8-.4.2 4-2.6.1 10 .1 19.9.2 29.9-8-.2-1-.1-9-.4-1 0-1.8.2-2.4.9-.7.6-1 1.3-.9 2.2.3 6 .7 12.1 1.2 18.1.1.9.5 1.7 1.2 2.4s1.5 1.1 2.4 1.2c7.4.6 12.2 1.1 16.2 1.3z" opacity=".15" class="colorffffff svgShape"></path><path d="M52.8 56.8c0-1.6 1.3-3 2.8-3.6 1.5-.6 3.2-.5 4.8-.1 1.6.4 3.1 1 4.7 1.4 2.3.6 4.6.3 6.9-.1 1.2-.2 2.3-.5 3.5-.7s2.4 0 3.4.5 1.8 1.7 1.8 2.9c0 .9-.5 1.7-1.2 2.3s-1.5 1-2.3 1.3c-6.3 2.6-13.7 2.6-20-.1-1.8-.8-4.5-1.8-4.4-3.8z" opacity=".15" fill="#0a0a0a" class="color000000 svgShape"></path><path fill="#525252" d="M78.6 66.4c-1 1.1-2.3 2-3.7 2.7-.9.4-1.8.7-2.7.9h-.3c-.6.1-1.2.2-1.9.3-.9.1-1.7 0-2.6 0-1-.1-1.9-.3-2.9-.5-1.1-.3-2.1-.6-3.1-1.1-.2-.1-.5-.2-.7-.3-.1 0-.1-.1-.2-.1-.7-.3-1.4-.8-2.1-1.2-2.6-1.7-5.1-4.2-5.8-6.9-.4-1.6-.2-3.4.9-4.6 1-1.2 2.6-1.7 4.2-1.7s3.1.4 4.5.8c3.1.8 6.4 1.5 9.5.8 1.4-.3 2.6-.9 4-1.1 1.4-.3 2.9-.1 3.9.8.7.6 1.1 1.5 1.3 2.4.9 3-.2 6.4-2.3 8.8z" class="color8b2c1a svgShape"></path><path fill="#dd158b" d="M79 65.9c-3.4-1.4-7-2.2-10.6-1.9-2.9.3-5.8 1.3-8 3.1-.3.2-.5.4-.8.6l1.2.6c2.9 1.4 6.1 2.2 9.3 2 3.2-.2 6.4-1.6 8.5-3.9.1-.2.2-.4.4-.5z" class="colordd1515 svgShape"></path><path d="M70 70.3c3.2-.2 6.4-1.6 8.5-3.9.1-.2.3-.3.4-.5-1.3-.5-2.6-1-3.9-1.3-.7.5-1.2 1.2-1.8 1.8-1.1 1.1-2.6 1.8-4.2 2-1.6.2-3.2-.2-4.5-1.1-.6-.4-1.1-.8-1.7-1.1-.3-.1-.5-.2-.8-.2-.6.3-1.2.7-1.7 1.2-.3.2-.5.4-.8.6l1.2.6c2.9 1.3 6.1 2.1 9.3 1.9z" opacity=".15" fill="#0a0a0a" class="color000000 svgShape"></path><path fill="#fcf8eb" d="M72.1 60.5c.9-.8 1.7-1.7 2.2-2.8.4-1 .5-2.1.4-3.2-1 .3-2 .7-3 .9-3.1.7-6.4.1-9.5-.8-.2 0-.4-.1-.5-.1 0 1.6.3 3.3 1.1 4.7 1.2 2.2 3.6 3.8 6.1 3.3 1.2-.3 2.3-1.1 3.2-2z" class="colorfcfaeb svgShape"></path><path d="M74.7 54.5c-1 .3-2 .7-3 .9-3.1.7-6.4.1-9.5-.8-.2 0-.4-.1-.5-.1 0 1.3.3 2.7.8 3.9.3-.4.6-.7.9-1 .7-.5 1.6-.8 2.5-.7.6.1 1.1.6 1.5 1.1.7.9.3 1.9.3 1.9.2-.1 1-1.3 1.1-1.5.2-.3.5-.5.8-.7.6-.4 1.3-.8 2-1 1-.3 2-.4 3-.4.1-.4.1-1 .1-1.6z" opacity=".15" fill="#0a0a0a" class="color000000 svgShape"></path><path fill="#674ea7" d="M69.3 55.9c0-.1 0-.2-.1-.2-.5 0-1.1 0-1.6-.1.7 1.3.8 2.9.1 4.2 1.2-.9 1.7-2.4 1.6-3.9z" class="color707064 svgShape"></path><path fill="#fcf8eb" d="M76.2 65.3c-.7.3-1.2 1-1.4 1.8-.1.7-.1 1.3.2 1.9 1.3-.6 2.6-1.5 3.6-2.6.1-.1.2-.3.4-.4l-.4-.4c-.8-.5-1.7-.7-2.4-.3zM71.9 70c-.6.1-1.2.2-1.9.3-.9.1-1.7 0-2.6 0 0-.8.3-1.7.9-2.2.8-.7 2-.6 2.7.1.6.4.9 1.1.9 1.8zM64.9 67.9c.1.5 0 1.1-.3 1.6 0 .1-.1.2-.1.2-1.1-.3-2.1-.6-3.1-1.1-.1-.7.1-1.4.9-1.8.5-.3 1.1-.4 1.6-.1.6.2.9.7 1 1.2zM60.6 68.2c-.7-.3-1.4-.8-2.1-1.2.3-.5.8-.8 1.4-.6.4.2.6.6.7 1-.1.3 0 .6 0 .8zM72.2 70.6v-.1.1zM74.9 69c-.9.4-1.8.7-2.7.9v-.1c-.1-.4-.1-.8 0-1.2.1-.4.4-.8.8-.8.4-.1.8.2 1.1.4.3.2.6.5.8.8z" class="colorfcfaeb svgShape"></path><path fill="#d33291" d="M70.7 64.2c.4 0 .7 0 1 .2.3.2.5.6.4.9-.1.3-.5.4-.8.5-1.7.3-3.5.7-5.3.4-.3 0-1-.1-1.1-.4-.1-.3.5-.5.7-.6.7-.4 1.5-.6 2.3-.7.9-.3 1.8-.3 2.8-.3z" opacity=".4" class="colore96362 svgShape"></path><path fill="#e5e1d5" d="M77.3 37.1c-1.1-2.2-2.7-4.2-4.9-5.4-2.1-1.2-4.7-1.6-7.1-.9-2.1.6-4 2.2-5.1 4.1-1.2 1.9-1.8 4.1-1.9 6.4V40c-.7 2.1 0 4.4 1.2 6.2 1.1 1.8 2.5 3.3 4.3 4.3 1.8 1 3.9 1.5 5.9 1.1 1.9-.3 3.6-1.3 5-2.7 1.3-1.4 2.3-3.1 2.9-4.9.4-1.1.6-2.3.6-3.4 0-1.3-.4-2.5-.9-3.5z" class="colore5d5d6 svgShape"></path><path fill="#edeceb" d="M61 34.7c1.4-2 3.8-3.1 6.2-3s4.7 1.4 6.1 3.3c1.2 1.6 1.8 3.7 1.8 5.8 0 1.2-.3 2.4-.9 3.4-.5.9-1.3 1.7-2.1 2.4-.6.6-1.2 1.2-2 1.6-.9.4-1.8.6-2.8.7-.9.1-1.9.1-2.8-.1-1.3-.4-2.3-1.3-3.3-2.3-.9-.9-1.8-1.9-2.3-3.1-.6-1.5-.1-2.6.3-4.1.5-1.6.8-3.2 1.8-4.6z" class="coloredebec svgShape"></path><circle cx="68.2" cy="42.3" r="3.1" fill="#50c878" class="color19a0c0 svgShape"></circle><path fill="#ffffff" d="M62.2 35c.6-.8 1.4-1.4 2.4-1.6.4-.1.8-.1 1.2.1.4.3.5.8.5 1.3-.1 1.7-1.3 3.1-2.6 4.2-.4.3-.8.7-1.3.8s-1.1.1-1.4-.3c-1.3-1.3.4-3.6 1.2-4.5z" class="colorffffff svgShape"></path><path fill="#44e57a" d="M70.1 40.9c-.1-.2-.8-1.2-2-.9-1 .2-2.1.7-2.3 1.7-.1.5.1 2.2 1.4 2.7.3.1.7.2 1 .2.4 0 .8 0 1.1-.1.6-.3 1.1-.9 1.2-1.6.1-.7-.1-1.4-.4-2z" class="color44bee5 svgShape"></path><circle cx="68.2" cy="42.3" r="1.6" fill="#2e2e2e" class="color1d3a40 svgShape"></circle><circle cx="66.3" cy="40.3" r="1.7" fill="#ffffff" class="colorffffff svgShape"></circle><path fill="#ffffff" d="M94.3 92.3c-.8.6-1.6 1.1-2.5 1.6-3 1.5-6.3 2.4-9.5 3.2-8.7 2.1-17.9 3.9-26.3 1.1-4.3-1.4-8.3-4.1-11.1-7.8-.8-1.1-1.4-2.9-2.1-4.6-.5 0-1.1 0-1.8-.1-1 0-1.8.2-2.4.9-.7.6-1 1.3-.9 2.2.3 6 .7 12.1 1.2 18.1.1.9.5 1.7 1.2 2.4s1.5 1.1 2.4 1.2c25 2.2 22 2.1 47-.5.9-.1 1.7-.5 2.5-1.2.7-.7 1.1-1.5 1.2-2.4.5-4.8.8-9.5 1.1-14.1z" opacity=".15" class="colorffffff svgShape"></path><path fill="#ffffff" d="M58.2 105.4c-5.5-.8-11.2-2.2-15.4-5.9-2.1-1.9-3.7-4.2-4.9-6.8.3 4.7.6 9.3 1 14 .1.9.5 1.7 1.2 2.4s1.5 1.1 2.4 1.2c25 2.2 22 2.1 47-.5.9-.1 1.7-.5 2.5-1.2.7-.7 1.1-1.5 1.2-2.4.2-1.7.3-3.3.4-5-10.9 4.8-23.5 5.9-35.4 4.2z" opacity=".15" class="colorffffff svgShape"></path><path d="M80.9 110.8c0-1.7-1.2-3.4-2.8-4-2.7-1-5.5 2.1-5.8 4.9 2.4-.3 5.2-.6 8.6-.9zM93.5 103c.3-3.1.5-6.1.7-9.2-3.1-.1-6.1 4.6-4.4 7.3.9 1.6 2.3 2.1 3.7 1.9zM45.8 110.7c.9-3.8-3-6.7-7.1-5.9.1.7.1 1.3.2 2 .1.9.5 1.7 1.2 2.4s1.5 1.1 2.4 1.2c1.2.1 2.3.2 3.3.3zM61 111.9c-.1-1-.5-2-1.4-2.5-2-1.2-4.2.4-5.6 2.1 2.8.1 5 .3 7 .4zM69.3 104.6c-.1.8-.6 1.6-1.1 2.3-.5.8-1.2 1.6-2.1 1.6-2.5 0-2.3-4.1-1.1-5.5 1.4-1.5 4.7-1 4.3 1.6zM50 98.5c.8.2 1.3 1 1.4 1.8s-.1 1.6-.6 2.3c-.6 1-1.6 1.7-2.7 1.9-2 .3-3.7-1.8-2.4-3.6.8-1.1 3-2.8 4.3-2.4zM60 94.1c.6.7.5 1.8.1 2.7-.1.3-.3.5-.6.8-.6.7-1.5 1.1-2.4.9-4.3-.9.2-7.7 2.9-4.4zM76.1 98.3c.4-.4.8-.7 1.3-1 .5-.2 1.1-.3 1.5 0 .8.5.8 1.6.6 2.5-.3.8-.8 1.6-1.5 2.1-.8.4-1.8.4-2.4-.3-.6-.7-.5-1.7-.1-2.5s1.1-1.4 1.8-1.9M42.9 91c.4-.6.8-1.2 1.3-1.6.6-.4 1.3-.6 2-.3.9.4 1.1 1.6.9 2.5-.2 1.1-.9 2.1-1.9 2.6-1 .4-2.4.1-2.9-.8-.6-1 0-2.4 1.1-2.6M68.4 90.7l1.8-1.5c.8-.1 1.5.7 1.6 1.5s-.2 1.6-.6 2.3c-.5.9-1.4 1.8-2.4 1.6-1-.2-1.5-1.5-1.2-2.4.3-1 1.1-1.7 1.9-2.3M84.2 91c.7-.3 1.4-.5 2.1-.8.6.5.5 1.5.4 2.3-.1.6-.2 1.2-.4 1.7-.3.5-.7 1-1.3 1.2-.8.2-1.7-.3-2-1-.4-.7-.2-1.6.2-2.3.4-.7 1.1-1.2 1.9-1.5M57 82.8c-.8-.3-1.9.2-2.2 1s-.1 1.9.6 2.4c.7.6 1.7.6 2.5.2 1-.5 1.6-1.8 1.1-2.9s-2-1.5-2.8-.7M79.2 82.9c-.6-.3-1.3-.4-2-.1-.6.2-1.2.8-1.2 1.5-.1.7.3 1.4.9 1.8.6.4 1.4.4 2 .1.8-.3 1.5-1.3 1.3-2.2-.1-.9-1.2-1.6-2-1.3M67.2 78.2c-1-.1-2 .4-2.5 1.2-.5.8-.4 2 .3 2.7s1.9.9 2.6.3c.8-.6 1-1.6.9-2.6-.1-.7-.3-1.4-.8-1.8s-1.4-.5-1.8 0" opacity=".15" fill="#0a0a0a" class="color000000 svgShape"></path></svg>