<svg xmlns="http://www.w3.org/2000/svg" viewBox="0 0 125 125" id="NumberSixMonster"><g fill="#674ea7" class="colorff4577 svgShape"><path d="M68.5 17.5c-.1-.1-.3-.1-.5-.1-.5.2-1.3 3-1.3 3.1-.1.6-.3 1.5-.1 2.3-.1-.2-.2-.3-.2-.4-1.9-2.3-3.6-3.8-5.5-4.8-.4-.2-.9.2-.7.6v1c0 .4.1.8.1 1.2.2 1.3.4 2.7.8 4-.7-.2-1.5-.6-2.2-1-.3-.1-.6-.3-.9-.4-1-.5-2.2-1-3.6-.9-.2 0-.4.1-.5.3-.1.2-.1.4 0 .6.3.8.6 1.5 1 2.2 1.5 2.6 2.2 3.1 2.6 3.2h.2c.2 0 .3 0 .5-.1l.6-.6c.1-.1.1-.2.2-.3.2-.3.5-.5.7-.8.3-.3.5-.5.8-.7l.1-.1c.1-.1.3-.3.5-.4.1 0 .2-.1.3-.2.1.1.1.1.2.1s.2.1.3.1c.2 0 .4-.1.6-.2l.9-.3c.6-.2 1.2-.3 1.9-.4.2 0 .5 0 .8-.2.4-.2.7-.5.7-.9v-.2c0 .1 0 .1.1.2.4.8 1.3 1 2.4 1 .7 0 1.4-.1 2.1-.2.4-.1.7-.1 1-.1.2 0 .3-.1.4-.2s.1-.3.1-.5c-1.1-2.3-2.5-4.3-4.4-5.9z" fill="#0a0a0a" class="color000000 svgShape"></path><path d="M78.1 23.1c-.5-1.9-1-4.1-2.2-5.8-.2-.3-.5-.4-.8-.4-.3 0-.6.2-.7.5-.8 2-1.3 3.9-1.5 5.6-.1.9.1 1.5.5 1.9.4.4.9.5 1.5.5.4 0 .8-.1 1.3-.1l.5-.1c.3 0 1.1-.1 1.5-.8.1-.4 0-1-.1-1.3z" fill="#0a0a0a" class="color000000 svgShape"></path><path d="M85.3 24.7c-.1-.6-.4-1.2-.7-1.6l-3.3-5.8c-.1-.2-.4-.6-.9-.8-.5-.1-1 .2-1.1.9l-.3 2c-.2 1.5-.4 3-.6 4.6 0 .3-.2.6-.3 1-.3.8-.6 1.6-.1 2.2.3.4.7.5 1.4.5h2.8c.7 0 2 0 2.8-1 .4-.5.5-1.2.3-2zM57.1 28.7l-7.7-2.6c-.2-.1-.5 0-.6.2-.1.2-.1.5.1.6.6.6 1.1 1.4 1.6 2.2.2.2.3.5.5.7l.1.1c.6.9 1.7 2.5 2.9 2.5h.1c.6-.1 1.1-.6 1.5-1.1l.3-.3c.1-.1.2-.2.3-.4.2-.2.7-.8.9-1 .2 0 .3-.2.4-.4-.1-.2-.2-.4-.4-.5zM53.5 33c-2.6-.5-5.1-1.1-7.6-2-.2-.1-.4 0-.6.2-.1.2-.1.4 0 .6l1.9 2.6c.1.2.3.4.4.6.4.7.9 1.5 1.6 1.9.2.1.4.2.6.2.7 0 1.2-.7 1.6-1.1.1-.1.2-.3.3-.4.3-.3.6-.6 1-.9l.2-.2c.1-.1.5-.4.6-.5.2 0 .4-.2.4-.4.1-.3-.1-.5-.4-.6zM49.9 37.5c-1.3-.4-2.5-.9-3.7-1.5-1.5-.7-3.1-1.5-4.8-1.8-.5-.1-.7.2-.8.3-.1.2-.1.5 0 .6.2.7.6 1.2.9 1.8l3 4.7c.3.5.6 1 1.2 1h.1c.3 0 .6-.2 1-.5.8-.8 1.5-1.6 2.3-2.4l1.2-1.3c.1-.1.2-.3.1-.5-.2-.2-.4-.4-.5-.4zM45 42.5l-8.4-3.7c-.2-.1-.4 0-.5.1-.1.1-.2.3-.2.5.2.9.6 1.9 1.2 2.9.4.7.9 1.3 1.3 1.9.6.9 1.3 1.7 1.7 2.6 0 0 .1.1.1.2.1.3.4 1 1 1h.2c.4-.1.8-.5 1.2-1.1.1-.1.2-.2.2-.3l2.4-2.7c.2-.3.3-.5.2-.8 0-.4-.2-.6-.4-.6zM41.4 48.8l-4.9-2.9c-1.6-1-3.5-2.1-5.5-2.3-.2 0-.3 0-.4.2-.1.1-.1.3-.1.5.2.8.7 1.5 1.1 2.1l3.5 5.2c.1.1.1.2.2.3.4.7 1 1.7 1.7 1.7.1 0 .2 0 .3-.1.4-.1.7-.5.9-.8l.3-.3c.3-.3.7-.6 1-.9l.3-.2c.9-.9 1.4-1.4 1.6-1.5.1 0 .2-.1.3-.2.1-.4 0-.7-.3-.8zM36.5 53.8c-2.7-.6-5.6-1.2-8.4-1.8-.8-.2-1.8-.3-2.6.2-.1.1-.2.2-.2.4s.1.3.2.4c.9.7 1.8 1.4 2.6 2.2l2.1 2.1c.1.1.2.2.3.4.7 1 1.3 1.7 2 1.7h.2c.4-.1.7-.5 1.1-1 .1-.1.1-.2.2-.2.4-.4.7-.8 1-1.2.1-.1.2-.3.4-.6.3-.5 1-1.4 1.2-1.7.1-.1.2-.2.2-.3.1-.3 0-.6-.3-.6zM22.3 62.9c.9.7 1.9 1.4 2.8 2 .5.3 1 .7 1.5 1 .1.1.2.1.3.2.4.3.8.6 1.2.7h.2c.9 0 1.5-1.2 2-2.2.1-.2.2-.4.3-.5l2-3.1c.1-.1.1-.3 0-.5s-.2-.3-.4-.3c-4.1-.5-8.4-1-12.6-.7-.2 0-.4.2-.4.3s0 .4.1.5c1 1 2 1.8 3 2.6zM17.4 69c.2.1 1 .8 1.2.9.5.3 1 .7 1.5 1 .9.6 1.8 1.2 2.7 1.9.4.3.9.6 1.3.9l.3.3c.5.4.8.7 1.2.8h.1c.6 0 1-.7 1.7-2.4.1-.2.1-.3.2-.4.5-1 .9-2 1.3-3 .1-.2 0-.3 0-.5s-.2-.2-.4-.2l-11-.3c-.3 0-.5.2-.5.5-.1.3.1.5.4.5zM16.6 81.7l9.6-.4c.2 0 .4-.1.5-.3.5-.7.1-3.7 0-3.9-.1-.5-.4-.8-.7-1-.5-.3-1.2-.1-1.8.1-.2.1-.3.1-.5.2-2.4.6-4.9 1.4-7.2 2.4-.5.2-.9.4-1.2.8-.4.5-.4 1.4.2 1.8.3.3.7.4 1.1.3zM29 88c.2-.5 0-.9-.2-1.1-.1-.2-.2-.4-.3-.8-.7-1.8-1.3-3.2-2.2-3.3-.8-.1-2 .7-3.4 1.8-.3.2-.5.4-.7.5-1.3.8-2.6 1.7-3.9 2.6-.6.4-1.2.9-1.8 1.3-.3.2-1.2 1.1-1.5 1.3-.2 0-.4.2-.5.4 0 .3.2.5.4.6.7.1 1.4.1 2.1.1 3.9 0 7.6-1.4 11-2.6.3-.1.8-.3 1-.8zM33.8 93.4c-.2-.2-.6-.7-1-1.2-1.2-1.6-1.6-2.1-2-2.2-1.1-.4-2.4.7-3.3 1.5l-.4.4c-2.3 1.9-4.4 4-6.2 6.3-.1.1-.1.4-.1.5.1.3.4.3.7.3 4.6 0 8.8-2.6 12.2-4.8.2-.1.3-.5.2-.7l-.1-.1z" fill="#0a0a0a" class="color000000 svgShape"></path></g><path fill="#50c878" d="M110.4 76.6c-.1 9-4.4 16.4-12.5 22.5-8.1 6.1-18 9.3-29.8 9.3-11.9 0-21.8-3.1-30.1-8.7-8.3-5.7-12.7-13.1-12.8-22.1-.1-7.8 4.1-16.5 12.6-26.5 7.2-8.4 14.4-17 21.4-25.5 1.2-1.6 2.8-2.4 4.8-2.4 8.3 0 16.6.1 24.9.3 2 .1 3.6 2.3 2.4 4.3-4.9 6.7-10 13.5-15.1 20.4.7-.1 1.7-.1 3.2-.1 1.4 0 3.4.3 6 .7 2.6.5 5.4 1.4 8.5 2.8 3.1 1.4 5.9 3.2 8.4 5.3 2.5 2.1 4.5 4.9 6 8.3 1.4 3.5 2.2 7.2 2.1 11.4z" class="color29adff svgShape"></path><path fill="#674ea7" d="M64 71.5c.4-.4 1-.7 1.5-.8 1.7-.5 3.7-.6 5.3.1.4.2.8.4 1 .7.3.5.3 1.1.1 1.7-.4.8-1.2 1.4-2.1 1.6-.9.2-1.8.2-2.7 0-.6-.1-1.3-.2-1.9-.5-1-.4-2-1.8-1.2-2.8z" class="colorff4577 svgShape"></path><path fill="none" stroke="#ff45b3" stroke-linecap="round" stroke-linejoin="round" stroke-miterlimit="10" d="M64 71.5c.4-.4 1-.7 1.5-.8 1.7-.5 3.7-.6 5.3.1.4.2.8.4 1 .7.3.5.3 1.1.1 1.7-.4.8-1.2 1.4-2.1 1.6-.9.2-1.8.2-2.7 0-.6-.1-1.3-.2-1.9-.5-1-.4-2-1.8-1.2-2.8z" class="colorStrokeff4577 svgStroke"></path><path d="M77.1 71.8c-1.7-1.2-2.9-2.9-3.6-4.9-.6-1.9-.7-4.1-.1-6.1.4-1.4 1.2-2.7 2.4-3.6 1-.8 2.3-1.2 3.6-1.4 1.3-.2 2.6 0 3.9.2 1.2.2 2.5.5 3.5 1.2 1.1.7 1.9 1.8 2.5 2.9 1.2 2.2 1.7 4.9 1.1 7.4-.5 2.5-2.1 4.8-4.4 6 .6.3.9.9 1.2 1.5.3.6.3 1.3.1 2-.3-1-1.2-1.7-2.2-2.2a15.9 15.9 0 0 0-9.3-2c-.9.1-1.9.3-2.6.9 1.2-.9 2.5-1.7 3.9-1.9z" opacity=".15" fill="#0a0a0a" class="color000000 svgShape"></path><path fill="#f6eac5" d="M78.9 56.2c1.5-.3 3-.1 4.5.2 1.4.3 2.8.8 4 1.7 1.5 1.2 2.3 3 2.8 4.7.4 1.4.8 2.8.5 4.3-.4 2-2 3.5-3.8 4.3s-3.9.7-5.9.3c-1.4-.3-2.7-.7-3.9-1.5s-2.2-1.8-2.7-3.1c-.7-1.5-.9-3.7-.7-5.4.2-1.7 1.3-3.3 2.7-4.4.6-.4 1.5-.9 2.5-1.1z" class="colorf6e3c5 svgShape"></path><path fill="#fef8e7" d="M74.8 60.7c.5-1.3 1.5-2.3 2.8-2.9 1.3-.6 2.7-.7 4.1-.5 1.7.3 3.3 1.3 4.4 2.6.6.8 1.1 1.7 1.5 2.6.4.9.7 1.8.8 2.8.1 1-.1 2-.6 2.8-.5.7-1.3 1.2-2.1 1.5-2.1.8-4.5.7-6.5-.2-2.4-1.1-4.2-3.6-4.7-6.2-.1-.7 0-1.7.3-2.5z" class="colorfef7e7 svgShape"></path><path fill="#ffffff" d="M77 58.5c1-.7 2.3-.9 3.5-.9 2.6.1 5.2 1.6 6.2 4s.4 5.5-1.6 7c-2.1 1.5-5.2 1.2-7.2-.4-2.5-2.1-4.2-7.5-.9-9.7z" class="colorffffff svgShape"></path><path fill="#e21e92" d="M77.6 67.2c.3-.2.7-.3 1-.3.4 0 .7.1 1.1.3.3.2.6.5.7.8.3.6 0 1.4-.5 1.8-.5.4-1.3.4-1.9.1-.8-.7-1.3-2.1-.4-2.7z" class="colore21ee2 svgShape"></path><path fill="#fc44b1" d="M77.8 67.4c.2-.2.5-.3.8-.3.3 0 .6.1.9.2.3.1.5.4.6.7.2.5 0 1.2-.4 1.5-.4.3-1.1.3-1.6 0-.6-.4-1-1.6-.3-2.1z" class="colorfc44ea svgShape"></path><path fill="#ffffff" d="M78.6 67.5c.1.2.2.4.2.6 0-.2 0-.5.1-.7 0 .2-.1.4-.1.7.1-.2.2-.4.4-.5-.1.2-.2.3-.3.5l.6-.3c-.1.1-.3.2-.4.4.2 0 .4 0 .6.2-.1.1-.3 0-.4-.1.1.1.2.3.3.5h-.1l-.3-.3c.1.2 0 .4-.1.6 0-.1 0-.3-.1-.4 0 .1-.1.2-.1.3-.1.1-.2.2-.3.2 0-.2.1-.3.2-.5-.2.2-.4.3-.7.3.2-.1.3-.2.5-.4-.2.1-.4.1-.7.1.2-.1.4-.1.6-.2-.2.1-.4 0-.6-.1.2 0 .4-.1.7-.1-.2 0-.4-.1-.5-.3.2.1.4.1.5.2-.2-.1-.3-.2-.4-.4l.2.1s.2.2.2.1v-.5z" opacity=".2" class="colorffffff svgShape"></path><path d="M78.4 68.6c0-.1 0-.2.1-.3.1-.1.2-.2.3-.2s.3 0 .4.1c.1.1.1.3.1.4 0 .1-.1.3-.2.4-.3 0-.7-.1-.7-.4z" fill="#0a0a0a" class="color000000 svgShape"></path><circle cx="78.7" cy="67.5" r=".9" fill="#ffffff" opacity=".2" class="colorffffff svgShape"></circle><circle cx="78.5" cy="67.1" r=".6" fill="#ffffff" opacity=".2" class="colorffffff svgShape"></circle><path d="M58.5 71.8c1.7-1.2 2.9-2.9 3.6-4.9.6-1.9.7-4.1.1-6.1-.4-1.4-1.2-2.7-2.4-3.6-1-.8-2.3-1.2-3.6-1.4-1.3-.2-2.6 0-3.9.2-1.2.2-2.5.5-3.5 1.2-1.1.7-1.9 1.8-2.5 2.9-1.2 2.2-1.7 4.9-1.1 7.4.5 2.5 2.1 4.8 4.4 6-.6.3-.9.9-1.2 1.5-.3.6-.3 1.3-.1 2 .3-1 1.2-1.7 2.2-2.2 2.8-1.6 6.1-2.3 9.3-2 .9.1 1.9.3 2.6.9-1.2-.9-2.5-1.7-3.9-1.9z" opacity=".15" fill="#0a0a0a" class="color000000 svgShape"></path><path fill="#f6eac5" d="M56.6 56.2c-1.5-.3-3-.1-4.5.2-1.4.3-2.8.8-4 1.7-1.5 1.2-2.3 3-2.8 4.7-.4 1.4-.8 2.8-.5 4.3.4 2 2 3.5 3.8 4.3 1.9.7 3.9.7 5.9.3 1.4-.3 2.7-.7 3.9-1.5s2.2-1.8 2.7-3.1c.7-1.5.9-3.7.7-5.4-.2-1.7-1.3-3.3-2.7-4.4-.6-.4-1.5-.9-2.5-1.1z" class="colorf6e3c5 svgShape"></path><path fill="#fef8e7" d="M60.7 60.7c-.5-1.3-1.5-2.3-2.8-2.9-1.3-.6-2.7-.7-4.1-.5-1.7.3-3.3 1.3-4.4 2.6-.6.8-1.1 1.7-1.5 2.6-.4.9-.7 1.8-.8 2.8-.1 1 .1 2 .6 2.8.5.7 1.3 1.2 2.1 1.5 2.1.8 4.5.7 6.5-.2 2.4-1.1 4.2-3.6 4.7-6.2.1-.7 0-1.7-.3-2.5z" class="colorfef7e7 svgShape"></path><path fill="#ffffff" d="M58.6 58.5c-1-.7-2.3-.9-3.5-.9-2.6.1-5.2 1.6-6.2 4s-.4 5.5 1.6 7c2.1 1.5 5.2 1.2 7.2-.4 2.5-2.1 4.2-7.5.9-9.7z" class="colorffffff svgShape"></path><path fill="#e21e92" d="M57.9 67.2c-.3-.2-.7-.3-1-.3-.4 0-.7.1-1.1.3-.3.2-.6.5-.7.8-.3.6 0 1.4.5 1.8.5.4 1.3.4 1.9.1.9-.7 1.3-2.1.4-2.7z" class="colore21ee2 svgShape"></path><path fill="#fc44b1" d="M57.7 67.4c-.2-.2-.5-.3-.8-.3-.3 0-.6.1-.9.2-.3.1-.5.4-.6.7-.2.5 0 1.2.4 1.5.4.3 1.1.3 1.6 0 .7-.4 1-1.6.3-2.1z" class="colorfc44ea svgShape"></path><path fill="#ffffff" d="M57 67.5c-.1.2-.2.4-.2.6 0-.2 0-.5-.1-.7 0 .2.1.4.1.7-.1-.2-.2-.4-.4-.5.1.2.2.3.3.5l-.6-.3c.1.1.3.2.4.4-.2 0-.4 0-.6.2.1.1.3 0 .4-.1-.1.1-.2.3-.3.5h.1l.3-.3c-.1.2 0 .4.1.6 0-.1 0-.3.1-.4 0 .1.1.2.1.3.1.1.2.2.3.2 0-.2-.1-.3-.2-.5.2.2.4.3.7.3-.2-.1-.3-.2-.5-.4.2.1.4.1.7.1-.2-.1-.4-.1-.6-.2.2.1.4 0 .6-.1-.2 0-.4-.1-.7-.1.2 0 .4-.1.5-.3-.2.1-.4.1-.5.2.2-.1.3-.2.4-.4l-.2.1s-.2.2-.2.1v-.3c-.1.1 0-.1 0-.2z" opacity=".2" class="colorffffff svgShape"></path><path d="M57.2 68.6c0-.1 0-.2-.1-.3-.1-.1-.2-.2-.3-.2-.1 0-.3 0-.4.1-.1.1-.1.3-.1.4 0 .1.1.3.2.4.3 0 .6-.1.7-.4z" fill="#0a0a0a" class="color000000 svgShape"></path><circle cx="56.9" cy="67.5" r=".9" fill="#ffffff" opacity=".2" class="colorffffff svgShape"></circle><circle cx="57" cy="67.1" r=".6" fill="#ffffff" opacity=".2" class="colorffffff svgShape"></circle><g fill="#d33291" class="colordd1e61 svgShape"><path d="M70.3 73.6c-.1 0-.3-.1-.3-.2s0-.2.1-.3c.2-.3.6-.4.9-.3.2.1.6.5.5.8-.1.1-.3.1-.5.2-.3-.2-.5-.2-.7-.2zM65.5 73.6c.1 0 .3-.1.3-.2s0-.2-.1-.3c-.2-.3-.6-.4-.9-.3-.2.1-.6.5-.5.8.1.1.3.1.5.2.3-.2.5-.2.7-.2z" fill="#0a0a0a" class="color000000 svgShape"></path></g><path fill="#951e64" d="M52.8 80.1c.1-1 .4-2.1 1.2-2.7.6-.4 1.4-.4 2.1-.3.7.1 1.4.4 2 .7 5.9 2.3 12.7 1.5 18.8-.3.8-.2 1.6-.5 2.5-.5.9 0 1.8.1 2.4.7.9.7 1.1 1.9 1.3 3 .3 3 .1 6-1.1 8.8-1.1 2.8-3.1 5.2-5.7 6.7-3 1.7-6.6 1.9-10 1.8-2.6-.1-5.3-.4-7.6-1.7-1.9-1.1-3.4-3-4.4-5-1.5-3.4-1.8-7.5-1.5-11.2z" class="color951e24 svgShape"></path><path fill="#f04aac" d="M66.4 98c3.4.1 7-.2 10-1.8 1.3-.7 2.4-1.6 3.3-2.7-.3-.8-.8-1.5-1.4-2.1-1.9-1.7-4.8-2.1-7.2-1.3-.9.3-1.8.8-2.7.6-.7-.1-1.3-.6-1.9-1-2.2-1.3-5.1-.7-7.2.7-1.3.9-2.3 2.1-3.2 3.5.8 1 1.7 1.8 2.8 2.4 2.2 1.3 4.9 1.6 7.5 1.7z" class="colorf04a4a svgShape"></path><path fill="#ffffff" d="M61.5 90.5c.7-.4 1.5-.8 2.2-.7 1.2.2 1.9 1.6 2.9 2.1s2.2.3 3.2-.1 2.1-.9 3.2-.9c.6 0 1.3.1 1.6.6.3.5.2 1.2-.1 1.7-.5 1.1-1.6 1.8-2.7 2.3-1.1.4-2.3.6-3.5.7-2.9.3-6 .3-8.6-1.2-.8-.5-1.8-1.3-1.1-2.2.9-.9 1.9-1.7 2.9-2.3z" opacity=".15" class="colorffffff svgShape"></path><path fill="#ffd866" d="M59.3 81.4c.9-.6 1.7-1.6 1.9-2.7-1-.2-2.1-.5-3.1-.9-.7-.3-1.3-.6-2-.7-.3-.1-.6-.1-.9 0-.3.5-.4 1-.5 1.5-.2 1.1-.1 2.4.9 3.1 1 .8 2.6.5 3.7-.3zM62.1 78.9c-.1.3-.1.7-.1 1 0 .7.1 1.3.4 1.9.3.5.9.9 1.6 1 1.4.3 3-.3 3.7-1.6.3-.6.4-1.3.4-2.1-2 .2-4.1.1-6-.2zM68.8 79.9c0 1.2.8 2.3 1.9 2.6 1.1.4 2.4 0 3.2-.9.8-.9 1-2.2.6-3.3 0-.1-.1-.1-.1-.2-1.8.4-3.7.7-5.6.9v.9zM80.4 77.5c-.1-.2-.2-.3-.3-.5h-.6c-.9 0-1.7.3-2.5.5-.5.2-1.1.3-1.6.4 0 .2-.1.4-.1.6 0 .9.2 1.8.9 2.3.7.5 1.6.4 2.4 0 .6-.3 1.2-.7 1.6-1.3.3-.6.4-1.4.2-2z" class="colorf6e3b8 svgShape"></path><path fill="#ffffff" d="M69.4 70.8c.3.1.7.2.7.5.1.3-.2.5-.5.7-.9.5-2 .7-3 .5-.8-.2-1.4-1-.4-1.5 1-.4 2.2-.4 3.2-.2z" opacity=".15" class="colorffffff svgShape"></path><path d="M87.3 102.3c-7.8 3-16.2 4.6-24.5 3.7-12.8-1.5-25.4-9.2-32.4-19.5-1.9-2.8-2.2-7.2-2-10.6s1.7-6.6 3.2-9.7c5.6-11 13.1-20.8 20.6-30.6 2.7-3.5 5.5-7.1 9.5-9.1s8.7-2 13.2-1.9c3 0 6.1.1 9.1.1 1.7 0 3.7.2 4.8 1.6 1.3 1.7.4 4-.8 5.9 1.1-1.5 2.2-2.9 3.2-4.4 1.3-2-.3-4.2-2.4-4.3-8.3-.3-16.6-.4-24.9-.3-2.1 0-3.7.8-4.8 2.4-7 8.5-14.2 17.1-21.4 25.5-8.5 10-12.7 18.7-12.6 26.5.2 9.1 4.6 16.4 12.8 22.1 8.3 5.7 18.2 8.7 30.1 8.7 11.9 0 21.7-3.3 29.8-9.3 2.7-2 5-4.2 6.8-6.6-5.2 4.1-11.1 7.4-17.3 9.8z" opacity=".15" fill="#0a0a0a" class="color000000 svgShape"></path><g fill="#252525" class="color2a2122 svgShape"><path d="M74.6 51.4c1.9-1 4.1-1.3 6.2-1.3 3.7 0 7.7.9 10 3.8.4.5.8 1.3.5 1.9-.3.6-1.1.7-1.7.6s-1.1-.6-1.7-1.1c-2.1-1.6-4.8-2.5-7.5-2.4-1.6.1-3.2.5-4.7 1.2-.7.4-1.4.8-2.1 1.3-.6.5-1.3 1.4-2.1 1.4-1.7.2-.7-1.6-.2-2.3.8-1.3 1.9-2.4 3.3-3.1zM60.3 51.4c-1.9-1-4.1-1.3-6.2-1.3-3.7 0-7.7.9-10 3.8-.4.5-.8 1.3-.5 1.9.3.6 1.1.7 1.7.6.6-.2 1.1-.6 1.7-1.1 2.1-1.6 4.8-2.5 7.5-2.4 1.6.1 3.2.5 4.7 1.2.7.4 1.4.8 2.1 1.3.6.5 1.3 1.4 2.1 1.4 1.7.2.7-1.6.2-2.3-.7-1.3-1.8-2.4-3.3-3.1z" fill="#0a0a0a" class="color000000 svgShape"></path></g><path fill="#ffffff" d="M44.7 54.7c.1-.4.4-.7.6-1 1.8-1.9 4.4-2.8 6.9-3.2.6-.1 1.2-.2 1.9-.2.6 0 1.2.1 1.8.1.8.1 1.7.2 2.5.4.9.2 1.8.4 2.4 1.1.1.1.2.4 0 .5-.2.1-.3-.1-.4-.3-.3-.5-.9-.8-1.5-1-.8-.2-1.6-.3-2.5-.4-1.2-.1-2.5-.1-3.7 0-1.9.3-3.7 1.1-5.1 2.3-.8.6-1.4 1.4-2.3 1.8-.1.1-.2.1-.4.1-.1.2-.2 0-.2-.2s.1-.3.2-.4M76.5 51.4c3.8-1.4 8.2-1 11.7.9.2.1.4.3.3.5-.2.1-.4 0-.5-.1-2.6-1.5-5.8-1.6-8.8-1-.6.1-1.3.3-1.9.6-1.7.8-3 2.2-4.6 3.1-.8.4-1 .1-.6-.7.4-.8 1-1.4 1.7-1.9.8-.6 1.7-1 2.7-1.4z" opacity=".15" class="colorffffff svgShape"></path></svg>