<svg xmlns="http://www.w3.org/2000/svg" viewBox="0 0 125 125" id="NumberSevenMonster"><path fill="#d33291" d="M32.6 25.9h59.8c.8 0 1.5.3 2 .9.5.6.8 1.4.8 2.2v17.4c0 2.2-.5 4.2-1.3 6l-25.2 53.4c-.9 1.8-2.3 2.7-4.3 2.7H41.1c-1.6 0-2.8-1.9-2.1-3.7L65.8 50H32.6c-.8 0-1.4-.3-2-.9-.6-.6-.8-1.4-.8-2.2V29.1c0-.9.3-1.6.8-2.2.6-.7 1.2-1 2-1z" class="colorff4577 svgShape"></path><path fill="#d33291" d="M46.8 53.2c1-.3 2-.9 3.1-.6.8.2 1.3.8 2 1.2 2.1 1.4 5.4.7 6.7-1.5.2-.4.4-.8.8-1 .4-.3 1-.2 1.5.1s.8.7 1.1 1c1.2 1.3 2.8 2.2 4.6 2.5 1.7.3 3.6-.1 5-1.3.4-.4.8-.8 1.4-1 .7-.3 1.5 0 2.3.2 1.2.4 2.5.6 3.8.5 1.3-.2 2.6-.8 3.2-1.9.3-.5.5-1.2.2-1.7-.2-.3-.5-.5-.8-.7-2.3-1.3-4.8-2.6-7.5-2.6-3 0-5.7 1.6-8.5 2.5-4.4 1.5-9.4 1.4-13.7-.4-2.4-1-4.9-2.5-7.5-2-1.3.3-2.4 1-3.5 1.8-.4.2-.7.5-.9.9-.2.7.6 1.1 1 1.5.5.6.9 1.1 1.6 1.6 1 1 2.6 1.3 4.1.9z" class="colorff4577 svgShape"></path><path fill="#fef8e7" d="M73.5 49.7c.5 1.1 1.5 1.9 2.7 2.2 1.2.3 2.4 0 3.5-.5.6-.3 1.2-.7 1.3-1.4.1-.6-.2-1.3-.7-1.7-.5-.4-1.1-.6-1.8-.8-.6-.2-1.3-.3-1.8-.6-.7-.4-2.1-1.6-2.8-.5-.6 1-.8 2.2-.4 3.3z" class="colorfef7e7 svgShape"></path><path fill="#ffffff" d="M76.1 46.9c.1.2 0 .4 0 .6-.1.2-.2.4-.2.5-.2.5 0 1.1.4 1.5s1 .5 1.6.5c.6-.1 1.1-.3 1.5-.6.2-.2.5-.4.5-.7 0-.3-.2-.5-.5-.7-.6-.4-1.2-.6-1.8-1-.3-.3-.6-.6-1-.8-.4-.2-.9-.3-1.2 0-.2.2-.2.4.1.5.3 0 .5-.1.6.2z" class="colorffffff svgShape"></path><path fill="#fef8e7" d="M72.1 47.7c-.2-.3-.5-.5-.9-.7h-.1c-.5.1-1 .2-1.4.4-.3.2-.6.5-1 .6-.1 0-.2 0-.3-.1-.6.5-1.1 1.1-1.8 1.3-.7.2-2.7-.4-2.7.7 0 1 .4 2.2 1.1 2.9.7.6 1.7.8 2.6.7 2.1-.2 4.1-1.8 4.7-3.9.2-.5.2-1.3-.2-1.9z" class="colorfef7e7 svgShape"></path><path fill="#ffffff" d="M64.7 49.6c.3.3.4.6.6 1 .2.3.4.7.8.8.3.2.8.2 1.1.1.9-.2 1.7-.8 2.2-1.7.2-.4.3-.8.3-1.2 0-.4-.3-.8-.7-.9-.3-.1-.5 0-.8.1-.2.1-.4.3-.7.4-1 .7-2.3.9-3.6 1.1 0 0 .2.1.2.2.3.1.5.1.6.1z" class="colorffffff svgShape"></path><path fill="#fef8e7" d="M50 51c.2 1 1 1.9 2 2.3 1 .4 2.1.3 3.1-.1s1.8-1.2 2.3-2.1c.1-.2.2-.4.2-.6 0-.3-.3-.5-.5-.5-.3-.1-.5-.1-.8-.1-1.5 0-3-.4-4.3-1.2-.3-.2-.6-.5-.9-.4-.3.1-.5.5-.6.7-.5.6-.6 1.3-.5 2z" class="colorfef7e7 svgShape"></path><path fill="#ffffff" d="M51.1 49.9c.1.5.3.9.7 1.1.2.1.5.1.7 0 .6-.1 1.2-.4 1.7-.8.2-.1.3-.4.2-.5-.1-.1-.2-.2-.3-.2-.7-.2-1.4-.4-2.1-.7-.2-.1-.6-.3-.7 0-.3.3-.3.7-.2 1.1z" class="colorffffff svgShape"></path><path fill="#fef8e7" d="M42.6 51.9c1.1.7 2.6 1 3.8.5 1.3-.4 2.3-1.6 2.5-2.9.1-.6.1-1.3-.3-1.8s-1.1-.8-1.7-.9c-1.4-.3-3-.1-4.3.4-.6.2-1.5.6-1.9 1.1-.3.4.1 1.3.3 1.7.4.8 1 1.4 1.6 1.9z" class="colorfef7e7 svgShape"></path><path fill="#ffffff" d="M42.2 50c.4.4 1 .6 1.5.6.6 0 1.1-.4 1.2-1 .1-.3 0-.6-.1-.8-.2-.4-.4-.8-.8-1-.4-.2-.8-.3-1.3-.2-.4.1-.7.3-.9.5-.2.2-.6.5-.7.8.2.2.3.4.5.6.2.1.4.3.6.5z" class="colorffffff svgShape"></path><path fill="#94356d" d="M38.3 50.7c.8-2.9 3.8-5.1 6.8-4.8 2.2.2 4.1 1.4 6.1 2.3 5.4 2.4 11.8 2.3 17.1-.2 1.4-.7 2.7-1.5 4.1-2 1.4-.5 3-.8 4.5-.3 1.2.4 2.2 1.5 3.4 2 1.2.5 2.7.6 3.8 0 .6-.3 1.3-.9 2-.6.7.3.8 1.2.5 1.9-.6 1.3-2.2 1.9-3.6 1.8-1.4-.2-2.7-.9-3.9-1.6-1.2-.7-2.5-1.5-3.9-1.8-2.6-.4-5.1 1-7.5 2-4.8 1.9-10.4 2-15.3.2-1.9-.7-3.7-1.7-5.7-2-2-.3-4.4.4-5.3 2.2-.3.6-.4 1.3-.8 2s-1 1.2-1.7 1.1-.8-1.5-.6-2.2z" class="color94355f svgShape"></path><path fill="#392275" d="M65.9 19.3c.7-.9 1.7-1.5 2.7-2 .1.3.3.5.7.5 1.5-.1 2.9-.5 4.4-.6 1.8-.1 3.6.1 5.3.5.5.1.9-.2 1-.6.8.6 1.5 1.3 1.8 2.3.4 1.2.1 2.7-.9 3.4-.7.6-1.7.7-2.6.8-1.7.3-3.6.3-5.3 0-1.5-.2-3.1.5-4.6.9-.6.1-1.2.3-1.7.1-.6-.2-1.1-.7-1.3-1.2-.8-1.3-.4-3 .5-4.1z" class="color3a2275 svgShape"></path><path fill="#4d348c" d="M80.2 21.3c1-.7 1.7-2.3 1-3.4-.5-.9-1.6-1.1-2.5-1.2-3.2-.4-6.5-.5-9.6.2-1 .2-2.1.6-2.8 1.5s-1 2.3-.4 3.2c.7 1 1.9 1 3 .9l6.3-.3c1.6-.1 3.5-.1 5-.9z" class="color56348c svgShape"></path><path fill="#674ea7" d="M70.6 19.7c2.7.2 5.4 0 8.1-.6.6-.1 1.2-.3 1.4-.8.2-.4-.1-.9-.5-1.2-.4-.3-.9-.4-1.4-.5-3-.5-6-.4-8.9.2-.7.2-1.5.4-1.8 1-.4.8.4 1.7 1.3 1.9.9.2 1.9 0 2.8-.2" class="color6f48a3 svgShape"></path><path fill="#392275" d="M39.8 20c.7-.9 1.7-1.5 2.7-2 .1.3.3.5.7.5 1.5-.1 2.9-.5 4.4-.6 1.8-.1 3.6.1 5.3.5.5.1.9-.2 1-.6.8.6 1.5 1.3 1.8 2.3.4 1.2.1 2.7-.9 3.4-.8.5-1.8.7-2.7.8-1.7.3-3.6.3-5.3 0-1.5-.2-3.1.5-4.6.9-.6.1-1.2.3-1.7.1-.6-.2-1.1-.7-1.3-1.2-.7-1.3-.3-3 .6-4.1z" class="color3a2275 svgShape"></path><path fill="#4d348c" d="M54.1 22c1-.7 1.7-2.3 1-3.4-.5-.9-1.6-1.1-2.5-1.2-3.2-.4-6.5-.5-9.6.2-1 .2-2.1.6-2.8 1.5-.7.8-1 2.3-.4 3.2.7 1 1.9 1 3 .9l6.3-.3c1.6-.1 3.5-.1 5-.9z" class="color56348c svgShape"></path><path fill="#674ea7" d="M44.5 20.4c2.7.2 5.4 0 8.1-.6.6-.1 1.2-.3 1.4-.8.2-.4-.1-.9-.5-1.2-.4-.3-.9-.4-1.4-.5-3-.5-6-.4-8.9.2-.7.2-1.5.4-1.8 1-.4.8.4 1.7 1.3 1.9.9.2 1.9 0 2.8-.2" class="color6f48a3 svgShape"></path><path fill="#ffffff" d="M94.4 26.9c-.5-.6-1.2-.9-2-.9H32.6c-.8 0-1.4.3-2 .9-.6.6-.8 1.4-.8 2.2V47c0 .9.3 1.6.8 2.2l.5.5c.2.1.4.2.5.3.2-.8 0-1.7-.2-2.5-1-4.4-1.5-9-1.3-13.6 0-1.7.2-3.6 1.3-4.9 1.6-1.9 4.4-2.1 6.9-2.1 14.4.1 28.8.3 43.2.4 2.9 0 6.1.1 8.4 2 2.1 1.7 2.9 4.5 3.1 7.1.5 6.2-2.1 12.2-4.6 17.9L74.6 85.8c-2.7 6.2-5.8 12.8-11.5 16.4-4.1 2.5-9 3.2-13.8 3.7-2.2.3-4.5.5-6.6-.2-.9-.3-1.9-.9-2.6-1.7.1-.8.5-1.6.9-2.3 4.1-7.4 8.2-14.9 12.2-22.3 1.3-2.4 2.7-4.9 2.8-7.7 0-.6 0-1.3-.1-1.9L39 105c-.8 1.8.5 3.7 2.1 3.7h23.3c1.9 0 3.4-.9 4.3-2.7l25.2-53.4c.9-1.8 1.3-3.8 1.3-6V29.1c0-.9-.2-1.6-.8-2.2z" opacity=".2" class="colorffffff svgShape"></path><path fill="#e6e2d8" d="M83.3 38c.8-2.8.3-6-1.3-8.3-1.6-2.3-4.1-3.8-6.7-4.2-2.2-.3-4.4.2-6.2 1.5-1.8 1.3-3.2 3.4-3.6 5.8-.4 2.4.2 4.9 1.7 6.7 1.4 1.7 3.6 2.5 5.7 2.6s4.2-.5 6.2-1.1c.9-.3 1.8-.7 2.6-1.2s1.6-1.3 2-2.2" class="colore6ddd8 svgShape"></path><path fill="#f9f9f9" d="M81.8 37.5c.3-1.7.2-3.5-.3-5.2-.5-1.6-1.6-3.1-3-3.9-1.5-.9-3.3-1-5.1-.8-1.4.2-2.8.6-4 1.5s-2.1 2.3-2.2 3.8c-.2 1.7.6 3.4 1.7 4.5s2.6 1.8 4.1 2c2.4.4 5 0 7.2-1.2.6-.3 1.3-.8 1.6-1.4" class="colorf9f9f9 svgShape"></path><path fill="#ffffff" d="M80 34.7c.4-1.3.1-2.8-.7-3.8s-2-1.6-3.2-1.8c-1.2-.2-2.5 0-3.6.5-1 .4-2 .9-2.6 1.9-.6 1.1-.5 2.7.1 3.8.7 1.1 1.8 1.9 3 2.2 1.2.3 2.4.3 3.6.1.9-.1 1.8-.3 2.5-.9.7-.6 1.2-1.6.9-2.6" class="colorffffff svgShape"></path><ellipse cx="74.8" cy="33.5" fill="#50c878" rx="2.4" ry="2.6" class="color20aed2 svgShape"></ellipse><ellipse cx="74.8" cy="33.5" fill="#0a0a0a" rx="1.1" ry="1.2" class="color231f1e svgShape"></ellipse><ellipse cx="75" cy="32" fill="#ffffff" opacity=".3" rx="1.6" ry="1.4" class="colorffffff svgShape"></ellipse><path fill="#94356d" d="M80 42.7c-1.5 1-3.3 1.4-5.1 1.3-1.8-.1-3.7-.7-5.2-1.7s-2.8-2.7-3.5-4.6c-.2-.3-.2-.6 0-.7.2-.1.3.1.5.2 1.8 1.6 4.1 2.7 6.4 3.1 2.3.4 4.7 0 6.9-.9.6-.3 1.2-.6 1.6-1l.6-.6c.4-.3 1.1-.1 1 .6-.1.5-.5 1.2-.7 1.7-.6.9-1.5 1.9-2.5 2.6z" class="color94355f svgShape"></path><path fill="#ffd866" d="M75.9 39.7c-2.3.2-4.6-.4-6.6-1.6-.9-.5-1.6-1.2-2.5-1.7-.2-.1-.5-.2-.7-.2-.3.1-.4.5-.3.8s.3.6.5.8c.5.5 1.1.8 1.7 1.1 1.2.6 2.4 1.1 3.7 1.5 2.9.8 5.9.5 8.7-.5.9-.3 3.1-1 3.1-2.3 0-.3-.2-.7-.4-.8-.3-.2-.6.1-.9.3-.6.5-1.1.9-1.8 1.3-1.4.6-3 1.2-4.5 1.3z" class="colore7ba83 svgShape"></path><path fill="#e6e2d8" d="M57.2 38.7c.8-2.8.3-6-1.3-8.3s-4.1-3.8-6.7-4.2c-2.2-.3-4.4.2-6.2 1.5-1.8 1.3-3.2 3.4-3.6 5.8-.4 2.4.2 4.9 1.7 6.7 1.4 1.7 3.6 2.5 5.7 2.6 2.1.1 4.2-.5 6.2-1.1.9-.3 1.8-.7 2.6-1.2s1.6-1.3 2-2.2" class="colore6ddd8 svgShape"></path><path fill="#f9f9f9" d="M55.7 38.2c.3-1.7.2-3.5-.3-5.2-.5-1.6-1.6-3.1-3-3.9-1.5-.9-3.3-1-5.1-.8-1.4.2-2.8.6-4 1.5s-2.1 2.3-2.2 3.8c-.2 1.7.6 3.4 1.7 4.5s2.6 1.8 4.1 2c2.4.4 5 0 7.2-1.2.6-.3 1.3-.8 1.6-1.4" class="colorf9f9f9 svgShape"></path><path fill="#ffffff" d="M53.9 35.4c.4-1.3.1-2.8-.7-3.8-.8-1-2-1.6-3.2-1.8-1.2-.2-2.5 0-3.6.5-1 .4-2 .9-2.6 1.9-.6 1.1-.5 2.7.1 3.8.7 1.1 1.8 1.9 3 2.2 1.2.3 2.4.3 3.6.1.9-.1 1.8-.3 2.5-.9s1.2-1.6.9-2.6" class="colorffffff svgShape"></path><ellipse cx="48.7" cy="34.3" fill="#50c878" rx="2.4" ry="2.6" class="color20aed2 svgShape"></ellipse><ellipse cx="48.7" cy="34.3" fill="#0a0a0a" rx="1.1" ry="1.2" class="color231f1e svgShape"></ellipse><ellipse cx="48.9" cy="32.7" fill="#ffffff" opacity=".3" rx="1.6" ry="1.4" class="colorffffff svgShape"></ellipse><path fill="#94356d" d="M53.9 43.4c-1.5 1-3.3 1.4-5.1 1.3-1.8-.1-3.7-.7-5.2-1.7-1.6-1.1-2.8-2.7-3.5-4.6-.1-.3-.1-.6.1-.7.2-.1.3.1.5.2 1.8 1.6 4.1 2.7 6.4 3.1 2.3.4 4.7 0 6.9-.9.6-.3 1.2-.6 1.6-1l.6-.6c.4-.3 1.1-.1 1 .6-.1.5-.5 1.2-.7 1.7-.7 1-1.6 1.9-2.6 2.6z" class="color94355f svgShape"></path><path fill="#ffd866" d="M49.7 40.4c-2.3.2-4.6-.4-6.6-1.6-.9-.5-1.6-1.2-2.5-1.7-.2-.1-.5-.2-.7-.2-.3.1-.4.5-.3.8s.3.6.5.8c.5.5 1.1.8 1.7 1.1 1.2.6 2.4 1.1 3.7 1.5 2.9.8 5.9.5 8.7-.5.9-.3 3.1-1 3.1-2.3 0-.3-.2-.7-.4-.8-.3-.2-.6.1-.9.3-.6.5-1.1.9-1.8 1.3-1.4.7-2.9 1.2-4.5 1.3z" class="colore7ba83 svgShape"></path><path fill="#94356d" d="M56.7 45c.1.6.6 1.1 1.2 1 1-.1 2.5-2.2 1.4-3-1.1-.6-2.8.9-2.6 2zM62.5 43.2c-.1.5-.2 1-.1 1.4 0 .5.2 1 .6 1.3.4.3.9.4 1.3.1.5-.3.6-1 .5-1.5-.1-.5-.4-1.1-.8-1.4-.5-.3-1.1-.3-1.5.1" class="color94355f svgShape"></path><path fill="#ffffff" d="M31.8 32.6c.7-1.9 2.2-3.4 4-4.2.5-.2 1.1-.4 1.6-.3s1.1.6 1 1.2c0 .8-1 1.2-1.7 1.7-2.3 1.3-2.8 4.4-2.4 7 .4 2.6 1.5 5 1.7 7.6.1.8-.2 1.9-1 2-.8.1-1.3-.7-1.6-1.4-.9-2.3-1.6-4.7-1.8-7.2 0-2.2-.5-4.3.2-6.4zM82.8 55.5c-.5-.2-1.1-.4-1.7-.2-.6.1-1.1.5-1.2 1.1-.2.7.5 1.5 1.2 1.6.7.1 1.5-.4 1.8-1 .1-.3.2-.6.1-.9-.1-.3-.4-.5-.6-.5M68.1 59.8c-.8.5-1.3 1.4-1.5 2.3-.1.7-.1 1.5.5 1.9.6.4 1.4 0 2-.4.6-.4 1.1-.8 1.6-1.2 2.2-1.9-.9-3.6-2.6-2.6zM77 69.9c2.6.1 3.7-4.8.8-5.3-2.6-.4-3.5 5.2-.8 5.3zM88.5 38.7c-.3-.4-.9-.6-1.4-.6-.5.1-1 .4-1.2.9-.3.7-.1 1.5.4 2s1.4.6 2 .3c.7-.3 1.2-1 1.2-1.8s-.8-1.4-1.5-1.3M87.6 31.3l-1.8-.3c-.5.5-.5 1.5 0 2s1.5.6 2 .1.6-1.5.1-2M64.1 68.1c-.6-.1-1.2-.2-1.7-.2-.7.6-.8 1.8-.2 2.4.6.7 1.9.6 2.4-.2s0-2-.9-2.2" opacity=".2" class="colorffffff svgShape"></path></svg>