<svg xmlns="http://www.w3.org/2000/svg" viewBox="0 0 125 125" id="DigitEightMonster"><path fill="#ffcf41" d="M106.3 76.6c-.2 7.7-4.3 14.3-12 19.9-7.8 5.6-18.3 8.7-31.9 8.7-13.6 0-24.1-3.1-31.8-8.8-7.7-5.7-11.7-12.3-11.9-20-.2-7.7 3.6-13.4 11.2-17.5-5.8-3.8-8.6-8.8-8.4-15 .2-6.2 3.9-11.7 11.1-16.6 7.2-4.9 17-7.6 29.8-7.6 12.7 0 22.6 2.7 29.6 7.5 7.1 4.9 10.8 10.4 10.9 16.7.2 6.3-2.8 11.3-8.7 15 8.2 4.2 12.3 10 12.1 17.7z" class="colorffbf41 svgShape"></path><path fill="#e5e1d5" d="M74.2 38.7c-1.4-2.8-3.5-5.3-6.2-6.9-2.7-1.5-6.1-2.1-9.1-1.2-2.7.8-5.1 2.8-6.6 5.2-1.5 2.4-2.2 5.3-2.4 8.1v-1.7c-.9 2.6 0 5.6 1.5 8 1.4 2.2 3.2 4.2 5.5 5.5 2.3 1.3 5 1.9 7.6 1.4 2.4-.4 4.6-1.7 6.3-3.5 1.7-1.8 2.9-4 3.7-6.3.5-1.4.8-2.9.7-4.4.2-1.4-.3-2.9-1-4.2z" class="colore5d5d6 svgShape"></path><path fill="#edeceb" d="M53.4 35.6c1.8-2.5 4.9-3.9 7.9-3.8 3 .1 6 1.8 7.8 4.2 1.6 2.1 2.4 4.7 2.3 7.3-.1 1.5-.4 3-1.2 4.3-.7 1.2-1.7 2.2-2.6 3.1-.8.8-1.6 1.5-2.5 2-1.1.6-2.3.7-3.5.9-1.2.1-2.4.2-3.6-.2-1.6-.5-3-1.7-4.2-2.9-1.2-1.2-2.3-2.4-2.9-4-.8-1.9-.2-3.4.4-5.2.5-1.9.8-3.9 2.1-5.7z" class="coloredebec svgShape"></path><path fill="#ffffff" d="M54.9 36c.8-1 1.8-1.8 3-2.1.5-.1 1.1-.1 1.5.2.5.4.6 1 .6 1.6-.1 2.2-1.6 4-3.3 5.4-.5.4-1.1.8-1.7 1-.6.2-1.4.1-1.8-.4-1.4-1.6.7-4.6 1.7-5.7z" class="colorffffff svgShape"></path><path d="M55.9 39.6c2.7-1.5 5.8-2.1 8.8-2.2 3.1-.1 6.1.4 9.1.9-.9-1.1-2.3-1.6-3.7-2-2-.5-4-.8-6-1-2.7-.2-5.6.1-8 1.5-2.1 1.2-3.6 3.2-5 5.1-.5.8-1.1 1.6-1.4 2.4-.1.2-.4 1-.2 1.2.3.4.5-.1.6-.4.8-1.6 1.8-2.9 3.2-4.1.9-.4 1.7-.9 2.6-1.4zM54.6 91.6c5.6 2.2 12.1 2.3 17.7.2 2.7-1 5.3-2.5 7.3-4.5s3.5-4.7 3.9-7.6c.1-.4.1-.9-.1-1.3-.5-.9-1.7-.8-2.7-.7-6.7 1.2-13.4 1.9-20.1 2.7-3.1.3-6.3.7-9.4 1-1 .1-2 .2-3 0-.9-.2-1.8-.7-2.6-1.2-.7-.4-1.3-.7-2-1.1-1.3-.7-2.4-.2-1.7 1.3.6 1.2 1.5 2.4 2.3 3.5 1.8 2.2 3.9 4.1 6.2 5.6 1.4.8 2.7 1.5 4.2 2.1z" opacity=".15" fill="#0a0a0a" class="color000000 svgShape"></path><circle cx="62.5" cy="45.3" r="4" fill="#50c878" class="color19a0c0 svgShape"></circle><circle cx="62.5" cy="45.3" r="2" fill="#2e2e2e" class="color1d3a40 svgShape"></circle><path d="M40.6 71.5c.1-2.5 2-4.7 4.3-5.6 2.3-.9 4.9-.8 7.3-.2 2.4.6 4.7 1.5 7.1 2.2 3.5 1 7 .5 10.5-.1 1.8-.3 3.5-.8 5.3-1 1.8-.2 3.7 0 5.3.8 1.6.9 2.8 2.6 2.7 4.4-.1 1.4-.8 2.6-1.9 3.5-1 .9-2.3 1.5-3.5 2-9.7 4-21 4-30.6-.2-2.5-1.3-6.5-2.8-6.5-5.8z" opacity=".15" fill="#0a0a0a" class="color000000 svgShape"></path><path fill="#525252" d="M80.1 86.1c-1.6 1.7-3.5 3.1-5.7 4.1-1.3.6-2.7 1.1-4.2 1.5-.1 0-.3.1-.4.1-1 .2-1.9.4-2.9.4-1.3.1-2.7.1-4-.1-1.5-.1-3-.4-4.4-.8-1.6-.4-3.2-1-4.7-1.7-.4-.2-.7-.3-1.1-.5-.1 0-.2-.1-.2-.1-1-.5-2.2-1.2-3.2-1.9-4-2.6-7.8-6.4-8.9-10.6-.6-2.4-.3-5.1 1.3-7 1.5-1.8 4-2.5 6.4-2.5 2.4 0 4.7.7 6.9 1.3 4.8 1.2 9.8 2.3 14.6 1.2 2.1-.5 4-1.4 6.1-1.7 2.1-.4 4.5-.2 6 1.2 1.1.9 1.7 2.3 2 3.7 1.3 4.5-.3 9.8-3.6 13.4z" class="color8b2c1a svgShape"></path><path fill="#dd158b" d="M80.7 85.3c-5.1-2.2-10.7-3.4-16.3-2.9-4.4.4-8.8 2-12.3 4.8l-1.2.9c.6.4 1.2.7 1.8 1 4.4 2.2 9.3 3.4 14.2 3.1 4.9-.4 9.8-2.4 13.1-6 .3-.3.5-.6.7-.9z" class="colordd1515 svgShape"></path><path d="M67 92.1c4.9-.4 9.8-2.4 13.1-6 .2-.2.4-.5.6-.8-2-.8-4-1.5-6-2-1 .7-1.8 1.8-2.7 2.7-1.7 1.7-4 2.8-6.4 3.1-2.4.3-4.9-.3-6.9-1.6-.9-.6-1.7-1.2-2.6-1.7-.4-.2-.8-.3-1.3-.4-.9.5-1.8 1.1-2.7 1.8l-1.2.9c.6.4 1.2.7 1.8 1 4.5 2.2 9.4 3.4 14.3 3z" opacity=".15" fill="#0a0a0a" class="color000000 svgShape"></path><path fill="#fcf8eb" d="M70.2 77.2c1.3-1.2 2.6-2.7 3.3-4.3.7-1.5.8-3.2.7-4.9-1.5.4-3 1-4.5 1.4-4.8 1.1-9.8.1-14.6-1.2-.3-.1-.5-.1-.8-.2 0 2.5.5 5 1.7 7.2 1.8 3.3 5.6 5.8 9.3 5 1.8-.5 3.5-1.7 4.9-3z" class="colorfcfaeb svgShape"></path><path d="M74.1 67.9c-1.5.4-3 1-4.5 1.4-4.8 1.1-9.8.1-14.6-1.2-.3-.1-.5-.1-.8-.2 0 2.1.4 4.1 1.2 6 .4-.5.9-1 1.4-1.5 1.1-.8 2.5-1.3 3.9-1 1 .2 1.7.9 2.3 1.7 1 1.3.5 2.9.5 2.9.3-.2 1.5-1.9 1.7-2.2.4-.4.8-.8 1.2-1.1.9-.7 2-1.2 3.1-1.5 1.5-.4 3-.6 4.5-.6.2-.8.2-1.7.1-2.7z" opacity=".15" fill="#0a0a0a" class="color000000 svgShape"></path><path fill="#674ea7" d="M65.9 70.1c0-.1-.1-.2-.1-.4-.8 0-1.6 0-2.5-.1 1 2 1.2 4.4.2 6.5 1.8-1.4 2.6-3.7 2.4-6z" class="color707064 svgShape"></path><path fill="#fcf8eb" d="M76.5 84.4c-1.1.5-1.8 1.6-2.1 2.8-.2 1-.1 2 .2 2.9 2.1-1 3.9-2.3 5.5-4 .2-.2.4-.4.5-.7l-.6-.6c-1-.7-2.4-.9-3.5-.4zM69.9 91.7c-1 .2-1.9.4-2.9.4-1.3.1-2.7.1-4-.1 0-1.3.5-2.6 1.4-3.4 1.2-1 3-.9 4.2.1.8.9 1.2 1.9 1.3 3zM59.2 88.5c.1.8 0 1.7-.4 2.4-.1.1-.1.2-.2.4-1.6-.4-3.2-1-4.7-1.7-.1-1.1.2-2.1 1.4-2.8.7-.4 1.7-.5 2.5-.2.7.3 1.2 1.1 1.4 1.9zM52.5 88.9c-1-.5-2.2-1.2-3.2-1.9.5-.7 1.2-1.2 2.1-.9.6.2.9.9 1 1.6.1.4.2.8.1 1.2zM70.4 92.5v-.2.2zM74.4 90.2c-1.3.6-2.7 1.1-4.2 1.5v-.2c-.1-.6-.2-1.3 0-1.9.2-.6.7-1.2 1.3-1.3.6-.1 1.2.2 1.7.6.5.3.9.8 1.2 1.3z" class="colorfcfaeb svgShape"></path><path fill="#d33291" d="M68 82.7c.5 0 1.1 0 1.6.3s.8.9.6 1.4c-.2.5-.8.6-1.3.7-2.6.5-5.4 1.1-8.1.7-.4-.1-1.5-.1-1.6-.6-.1-.5.7-.8 1.1-.9 1.1-.5 2.3-.9 3.6-1.1 1.3-.4 2.7-.5 4.1-.5z" opacity=".4" class="colore96362 svgShape"></path><path fill="#fcc012" d="M60.3 36.4c4.6-1 9.4-.1 13.7 1.7-1.4-2.8-3.6-5.1-6.3-6.8-2.9-1.8-6.6-2.3-9.8-1.3-3.3.9-6.1 3.3-7.6 6.3-1.5 2.9-1.8 6.8-.5 9.9 1.5-4.9 5.5-8.6 10.5-9.8z" class="colorfca712 svgShape"></path><g fill="#ffffff" class="colorffffff svgShape"><path d="M94.1 28.9c-.7-.5-1.4-1.1-2.1-1.6-7.1-4.8-16.9-7.5-29.6-7.5-12.7 0-22.6 2.7-29.8 7.6-7.2 4.9-10.9 10.5-11.1 16.6-.2 6.2 2.7 11.1 8.4 15 .1-.2.2-.4.2-.6.1-1.1-1.2-2.9-1.5-3.9-.4-1.4-.6-2.9-.7-4.3-.1-3.4.6-6.8 2-9.8 2.9-6.1 8.5-10.6 14.8-13.2 6.2-2.6 13.1-3.4 19.8-3.6 10.1-.2 20.5 1.2 29.6 5.3zM29.9 59z" opacity=".2" fill="#0a0a0a" class="color000000 svgShape"></path></g><path d="M94.7 59.3c-.3.1-.5.1-.8.2 3.9 5.7 7.9 11.9 7.3 18.8-.4 5.2-3.6 10-7.8 13.2-4.1 3.2-9.2 5.1-14.3 6.4-4.8 1.2-9.7 2-14.7 2.2-8.8.5-17.7-.5-26.1-2.9-4.2-1.2-8.4-2.7-12.3-4.6h-.1c1.3 1.4 2.9 2.7 4.6 3.9 7.7 5.6 18.2 8.8 31.8 8.8 13.6 0 24.2-3.1 31.9-8.7 7.7-5.6 11.8-12.2 12-19.9.3-7.6-3.7-13.3-11.5-17.4z" opacity=".15" fill="#0a0a0a" class="color000000 svgShape"></path><path fill="#ffd866" d="M60.3 36.4c4.6-1 9.4-.1 13.7 1.7-1.4-2.8-3.6-5.1-6.3-6.8-2.9-1.8-6.6-2.3-9.8-1.3-1.8.5-3.4 1.4-4.8 2.7 1.6-.9 3.3-1.5 5-1.8 1.1-.2 2.2-.3 3.3-.2 4.2.2 8.3 2.2 11 5.4-2.6-1.2-5.6-1.5-8.4-1.3-2.9.3-5.6 1.2-8.2 2.4-1.9.9-3.8 2.1-5 3.7-.8 1-1.3 2.2-1.6 3.4.1.6.3 1.2.5 1.8 1.6-4.8 5.6-8.5 10.6-9.7z" class="colorfcca72 svgShape"></path><path fill="#353535" d="M76.2 60.5c2 .8 3.6 2.3 5.5 3.1 3.5 1.5 7.9.8 10.7-1.9-.7 2-2.8 3.3-4.8 3.7-2.1.4-4.2 0-6.3-.6-2.1-.5-4.1-1.2-6.2-1.2-2.2-.1-4.3.5-6.5.8-1.5.2-3.2-.2-2.1-1.9 1.8-2.9 6.8-3.2 9.7-2zM50.8 60.1c-2 .7-3.7 2.1-5.7 2.9-3.6 1.4-8 .4-10.6-2.4.6 2 2.6 3.4 4.7 3.9s4.2.1 6.3-.3c2.1-.4 4.2-1 6.3-1 2.2 0 4.3.7 6.5 1.1 1.5.3 3.2-.1 2.2-1.8-1.8-3-6.8-3.5-9.7-2.4zM65.7 58.9c-.2.4-.2.9.2 1.1.3.2.8.1 1-.2.3-.3.3-.7.3-1.1-.2-1.1-1.2-.4-1.5.2zM63.2 58.9c.2.4.2.9-.2 1.1-.3.2-.8.1-1-.2-.3-.3-.3-.7-.3-1.1.2-1.1 1.2-.4 1.5.2z" class="color363833 svgShape"></path><path fill="#ffffff" d="M63.7 32c.3 0 .5.1.7.3.2.2.3.5.1.7-.2.3-.6.1-.9 0-1.6-.6-3.4-.7-5-.3-1.7.3-3.3 1-4.7 2 .1-.1.2-.8.3-.9.2-.3.4-.6.6-.8.4-.4.9-.7 1.4-.8 1.5-.4 3-.5 4.5-.5 1.1 0 2 .1 3 .3zM66 33.5c-.1 0-.3-.1-.4-.2-.1-.1-.2-.2-.1-.4 0-.1.2-.2.3-.2h.4c.2 0 .3.1.5.2.1.1.3.3.3.4 0 .2-.3.4-.5.4s-.5-.2-.6-.4" opacity=".2" class="colorffffff svgShape"></path><path fill="#353535" d="M51 26.1c-.7.4-1.4.8-2.1 1.1.8-1 2-1.6 3.3-2s2.5-.5 3.8-.6c-.7-.1-1.5 0-2.2.2 1.3-.7 2.9-.9 4.4-.8 1.5.1 3 .5 4.5.9-.3-.5-.8-.7-1.3-.7 3.6.8 7.1 2.1 10.3 3.9-.7-.1-1.4-.3-2.1-.4 2.4 1 4.5 2.8 5.8 5.1-.5-.4-1-.7-1.5-1.1 1.4 1.8 2.4 3.8 3 5.9-1.4-2.2-3-4.3-4.7-6.2.3.5.5 1.1.8 1.6-1.8-2.5-4.7-4.2-7.8-4.5.4.2.8.5 1.2.7-3.3-1.8-7.5-1.6-10.7.3.2-.6.8-1 1.4-1.1-2.6.8-5.1 2-7.3 3.6.5-.7 1.1-1.4 1.6-2.1-1.9.9-3.8 2.1-5.4 3.5.4-.9 1-1.8 1.8-2.6l-2.1 1.5c.6-1 1.1-2 1.7-3-.2.3-.4.7-.5 1.1.5-.4.9-1.1 1.3-1.6.9-1 1.8-1.9 2.8-2.7z" class="color363833 svgShape"></path><path fill="#ffffff" d="M73.2 60.3c2.4.2 4.5 1.3 6.4 2.8-1.8-.9-3.6-1.5-5.5-1.9-1.1-.2-2.4-.4-3.4.1-.7.2-1.2.7-1.7 1.1-.4.3-1.5 1.1-1.6.3-.1-.6 1-1.2 1.4-1.4 1.2-.8 2.8-1.1 4.4-1zM50.1 61.2c2.9-1.5 6.5-1.3 9.2.5.2.1.4.3.5.5s0 .5-.2.6c-.2.1-.5-.1-.7-.3-1.1-1.1-2.8-1.5-4.4-1.3-1.6.1-3.1.7-4.5 1.2-1.3.5-2.6 1-3.9 1 1.3-.7 2.6-1.5 4-2.2z" opacity=".2" class="colorffffff svgShape"></path></svg>