<svg xmlns="http://www.w3.org/2000/svg" viewBox="0 0 125 125" id="NumberFiveMonster"><path fill="#f348ad" d="M53.5 79c2.1 2.8 4.7 4.3 7.7 4.3 3.1 0 5.4-.7 7-2 1.6-1.3 2.4-3.2 2.4-5.5s-.8-4.2-2.4-5.5c-1.6-1.3-3.6-1.9-6-1.9s-4.3.5-6 1.5c-1.6 1-2.6 1.5-3 1.5-7.7 0-15.3-.1-23-.1-.7 0-1.3-.3-1.8-.8s-.8-1.1-.8-1.6v-.8c1.4-13.4 3.2-26.9 5.2-40.5.2-1.5.8-2.7 1.8-3.6 1-.9 2.2-1.4 3.6-1.5 17.8-.7 35.5-.7 53.3.2.8 0 1.5.4 2.2 1.1A445735037284366400 445735037284366400 0 0 1 92.2 46c-12.1-.3-24.3-.4-36.4-.3-.3 2.4-.6 4.9-.9 7.3 4.2-2.8 10.1-4.2 17.6-4.1 7.5 0 14.2 2.8 20.1 8.1 5.9 5.3 8.8 12 8.7 20.1-.1 8.1-4 15.1-11.3 21-7.3 5.9-16.7 9.1-28.2 9.1-11.6 0-20.7-3-27.6-8.5-6.9-5.5-10.6-11.9-10.7-19.2 0-.7.2-1.3.7-1.8.5-.5 1.1-.7 1.8-.7l23.3.3c1.8-.3 3.2.4 4.2 1.7z" class="colorf36f48 svgShape"></path><path fill="#ec34a1" d="M63.2 53c2.2-.5 4.6-.4 6.8 0 1.4.3 2.9.7 4.1 1.5 1.2.8 2.2 2 2.6 3.4.2.7.1 1.6-.5 2.1-.6.4-1.4.3-2.1.1-2.2-.6-4.3-1.4-6.4-2.3-1.4-.7-2.8-1.4-4.4-1.5-1.6-.1-3.1.4-4.4 1.3-1.3.8-2.5 1.9-3.6 3 .2 0 1-2.2 1.1-2.4.3-.7.5-1.4.9-2 .6-1.1 2.2-1.8 3.3-2.3.8-.4 1.7-.7 2.6-.9z" class="colorec5f34 svgShape"></path><path fill="#ec34a1" d="M77.1 63.3c-2.9-2.2-6.6-3.4-10.3-3.4-3.7 0-7.3 1.1-10.4 3.2-.4.3-.9.6-1 1.2-.4 1.8 2.2.5 2.9.3 1.5-.4 3-.7 4.5-.9 3.1-.4 6.2-.5 9.3-.5h2.6c.4.1 2-.2 2.4.1z" class="colorec5f34 svgShape"></path><path fill="#1f1f1f" d="M56.4 56.6c1.8-1.7 4.1-2.6 6.5-3.1 2.4-.4 4.9-.3 7.3.1 1.7.3 3.4.7 4.8 1.7 1.6 1.3 2.5 3.3 2.9 5.4.1.4.2.9.1 1.3s-.3.9-.7 1.1c-.4.2-.9.1-1.4 0-4.5-.8-9.1-.4-13.6.1-1.5.1-3 .3-4.3 1-.6.4-1.2.9-1.8 1.2-2.4 1.2-3.1-1.4-2.6-3.2.4-2.1 1.1-4 2.8-5.6z" class="color241b1c svgShape"></path><path fill="#d33291" d="M62.2 63.2c3.3-.3 6.6-.6 9.9-.5v-.9c0-1.4-.3-2.8-1.1-3.9s-2.3-1.8-3.6-1.3c-.9.3-1.7 1.1-2.7 1.1-.6 0-1.1-.3-1.6-.4-1.1-.2-2.1.5-2.7 1.4-1 1.5-1.2 3.3-.9 5.1.9-.4 1.8-.5 2.7-.6z" class="colorf03f76 svgShape"></path><path fill="#ffffff" d="M60.8 59.5c.1-.6.5-1.1 1.1-1.2 1-.3 2.1.6 3.2.6.8 0 1.5-.6 2.2-1 .7-.4 1.6-.7 2.2-.3.4.2.6.7.7 1.1.1.4 0 .9-.1 1.3-.2.7-.5 1.3-1 1.7-.7.4-1.5.3-2.3.2-1.1-.2-2.2-.4-3.2-.6-1.1-.3-3-.2-2.8-1.8z" opacity=".2" class="colorffffff svgShape"></path><path fill="#ffffff" d="M64.1 59.3c.7.3 1.6.2 2.2-.2.3-.2.6-.5.9-.4.3.1.4.4.4.7-.1.3-.3.5-.6.6-.3.1-.6.1-.9.2h-1.9c-.5 0-1.2-.1-1.3-.7-.2-.7.8-.3 1.2-.2zM59.5 63.7c.9-.2 1.8-.3 2.8-.4l3.9-.3c-.2-.2-.5-.4-.8-.4-.8-.2-1.6-.1-2.5-.2-.8 0-1.7-.2-2.3-.7-.4-.3-.7-.7-.9-1.2-.4.9-.4 2.1-.2 3.2z" opacity=".2" class="colorffffff svgShape"></path><path fill="#fefcf8" d="M60.6 54.1c-1.2.4-2.4 1-3.4 1.9.3.7.7 1.4 1 1.8.3.4.8.7 1.3.7.6 0 1-.5 1.2-1 .5-1.1.4-2.3-.1-3.4zM62.9 55.9c.6 0 1.1-.5 1.3-1.1.2-.5.2-1 .1-1.5-.4 0-.9.1-1.3.2-.5.1-1 .2-1.6.4.1.6.3 1.1.5 1.5.3.2.6.5 1 .5zM68.6 54.8c.2-.4.3-.9.3-1.3-1-.1-2-.2-2.9-.2 0 .2 0 .3.1.4.1.7.4 1.4 1.1 1.7.5.2 1.1-.1 1.4-.6zM70.2 53.6c-.3 0-.5-.1-.8-.1.1.7.3 1.4.6 1.8.1.1.2.3.3.3.2.1.5.1.8 0 .6-.3 1.1-.9 1.3-1.5-.7-.2-1.4-.3-2.2-.5zM58.6 60.5c-.2.1-.3.4-.4.7-.3 1-.4 2.2-.3 3.2h.1c.7-.4 1.5-.7 2.4-.8-.1-.8-.2-1.6-.5-2.3-.1-.3-.3-.5-.5-.7-.3-.2-.6-.3-.8-.1zM62.2 63.2c.6-.1 1.3-.1 1.9-.2-.1-.4-.3-.8-.6-1.1-.3-.3-.7-.5-1.1-.5-.5 0-.9.3-1.2.6-.3.4-.4.9-.4 1.3.5 0 1 0 1.4-.1zM71.2 62.7v-.4c0-.5-.2-1-.6-1.3-.5-.4-1.2-.6-1.8-.3-.9.4-1.1 1.3-.9 2.1 1.1-.1 2.2-.1 3.3-.1zM72.7 59.1c-.4-.1-.7.2-.9.5-.2.3-.2.7-.2 1-.1.6-.2 1.4-.1 2.1.8 0 1.5.1 2.3.1v-.3c0-.8-.1-1.5-.2-2.2 0-.3-.1-.5-.2-.7-.3-.3-.5-.5-.7-.5z" class="colorfdfef8 svgShape"></path><path fill="#cf2288" d="M66.8 32.3c.1 2 1.1 4 2.5 5.5 2.2 2.3 5.6 3.5 8.8 3.2 1.2-.1 2.5-.5 3.5-1.2 1.1-.7 2-1.6 2.4-2.8-1.2 1.4-3.1 2.3-4.9 2.4 1.6-.7 2.7-2.4 2.9-4.2.2-1.8-.4-3.6-1.3-5.1-1.2-2-3-3.8-5.2-4.5-3.3-1-6.9.6-8.2 3.8-.3.9-.5 2-.5 2.9z" class="colorcf4322 svgShape"></path><path fill="#ffd866" d="M68 33.1c.6 1.9 2 3.5 3.8 4.4 1.8.9 3.9 1 5.9.5 1-.3 2.1-.7 2.7-1.5.8-1 .9-2.4.7-3.6-.5-2.6-2.3-4.9-4.7-6-2.1-.9-4.9-.9-6.9.3-1.8 1.2-2 4.2-1.5 5.9z" class="colorf6e3c5 svgShape"></path><path fill="#fef8e7" d="M69.4 33.7c1 1.9 3.2 3 5.4 3 1.2 0 2.3-.3 3.2-1 1.4-1.2 1.8-3.3 1.1-5-.7-1.7-2.4-2.9-4.1-3.3-1.4-.3-4.1-.4-5.2.8-1.3 1.4-1.2 4-.4 5.5z" class="colorfef7e7 svgShape"></path><circle cx="71.7" cy="31.7" r="3.9" fill="#50c878" class="color29adff svgShape"></circle><circle cx="71.7" cy="31.7" r="1.9" fill="#674ea7" class="color3a2275 svgShape"></circle><circle cx="69.8" cy="30.4" r="1.5" fill="#ffffff" class="colorffffff svgShape"></circle><path fill="#cf2288" d="M60.9 32.3c-.1 2-1.1 4-2.5 5.5-2.2 2.3-5.6 3.5-8.8 3.2-1.2-.1-2.5-.5-3.5-1.2-1.1-.7-2-1.6-2.4-2.8 1.2 1.4 3.1 2.3 4.9 2.4-1.6-.7-2.7-2.4-2.9-4.2-.2-1.8.4-3.6 1.3-5.1 1.2-2 3-3.8 5.2-4.5 3.3-1 6.9.6 8.2 3.8.3.9.5 2 .5 2.9z" class="colorcf4322 svgShape"></path><path fill="#ffd866" d="M59.7 33.1c-.6 1.9-2 3.5-3.8 4.4-1.8.9-3.9 1-5.9.5-1-.3-2.1-.7-2.7-1.5-.8-1-.9-2.4-.7-3.6.5-2.6 2.3-4.9 4.7-6 2.1-.9 4.9-.9 6.9.3 1.8 1.2 2 4.2 1.5 5.9z" class="colorf6e3c5 svgShape"></path><path fill="#fef8e7" d="M58.3 33.7c-1 1.9-3.2 3-5.4 3-1.2 0-2.3-.3-3.2-1-1.4-1.2-1.8-3.3-1.1-5 .7-1.7 2.4-2.9 4.1-3.3 1.4-.3 4.1-.4 5.2.8 1.3 1.4 1.3 4 .4 5.5z" class="colorfef7e7 svgShape"></path><circle cx="56" cy="31.7" r="3.9" fill="#50c878" class="color29adff svgShape"></circle><circle cx="56" cy="31.7" r="1.9" fill="#674ea7" class="color3a2275 svgShape"></circle><circle cx="57.9" cy="30.4" r="1.5" fill="#ffffff" class="colorffffff svgShape"></circle><g fill="#1f1f1f" class="color241b1c svgShape"><path d="M66.8 42c.2.3.5.6.9.6s.8-.3.9-.6 0-.8-.1-1.1c-.2-.3-.5-.6-.8-.9-.5-.4-1.3-1-1.4 0-.1.7.2 1.5.5 2zM61.6 42.2c-.2.3-.5.6-.9.6s-.8-.3-.9-.6c-.1-.4 0-.8.1-1.1s.5-.6.8-.9c.5-.4 1.3-1 1.4 0 .2.7-.1 1.5-.5 2z" fill="#0a0a0a" class="color000000 svgShape"></path></g><path fill="#ec34a1" d="M90.1 97.9c7.3-5.9 11.2-12.9 11.3-21 .1-8.1-2.8-14.8-8.7-20.1-5.9-5.3-12.6-8.1-20.1-8.1-7.5 0-13.4 1.4-17.6 4.1.3-2.4.6-4.9.9-7.3 12.1-.1 24.3 0 36.4.3.8 0 1.6-.3 2.2-.9.6-.6.9-1.4.9-2.2-.1-5.6-.3-11.2-.6-16.8 0-.9-.4-1.6-1-2.3-.6-.7-1.4-1-2.2-1.1-17.8-.9-35.5-1-53.3-.2-1.4.1-2.6.6-3.6 1.5s-1.6 2.2-1.8 3.6c-2 13.6-3.7 27.1-5.2 40.5v.8c0 .6.3 1.1.8 1.6s1.1.8 1.8.8c7.7.1 15.3.1 23 .1.4 0 1.4-.5 3-1.5s3.6-1.5 6-1.5c2.3 0 4.3.6 6 1.9 1.6 1.3 2.4 3.1 2.4 5.5s-.8 4.2-2.4 5.5c-1.6 1.3-3.9 2-7 2s-5.6-1.4-7.7-4.3c-1-1.3-2.4-2-4.2-2-7.8 0-15.5-.1-23.3-.3-.7 0-1.3.2-1.8.7-.5.5-.7 1.1-.7 1.8.1 7.4 3.8 13.8 10.7 19.2 6.9 5.5 16.1 8.4 27.6 8.5 11.5.3 20.9-2.9 28.2-8.8zm-50.6.2c-5.7-3.3-10.5-8.4-13-14.6-.5-1.2-.9-2.7-.2-3.9.8-1.3 2.6-1.5 4.1-1.6 6.4-.3 13.1-.6 19 1.9 1 .4 2 .9 3 1h.3c2.4 2 5.3 3.5 8.4 3.8 3.8.4 8-1.2 10-4.5s1.4-8-1.3-10.7c-.9-.9-2-1.5-3.2-1.9-1.8-.7-3.7-.8-5.5-.5-.8.2-1.7.4-2.5.7-1.4.5-2.8 1.1-4.2 1.3-6.5.4-13-.3-19.5-1-1.3-.1-2.6-.3-3.6-1.1-1.8-1.4-1.8-4-1.5-6.3.8-8.6 1.7-17.2 3.6-25.6.7-3.3 1.7-6.7 3.7-9.4.7-1 1.5-1.7 2.3-2.2.1.1.3.1.4.2 1.1.4 2.4.4 3.6.4 2.5-.1 5.1-.2 7.6-.4 4.5-.3 8.9-.7 13.4-.8 2.2-.1 4.5-.1 6.7 0 .5 0 1.1.1 1.7.1h.2c.3.1.6.1.8.1 4.7 0 9.4.1 14.1.3 1.6.1 3.3.3 4.4 1.4 1 1 1.3 2.6 1.4 4.1.3 3.4.2 6.8-.1 10.2-.1 1.3-.3 2.6-1.2 3.5-.9 1-2.4 1.2-3.7 1.3-9.9.9-19.8-.7-29.7-.7-1.8 0-3.9.2-4.9 1.7-.6.9-.7 2-.7 3-.1 1.6-.2 3.3-.3 4.9 0 .5 0 1.1.4 1.5.6.5 1.5.1 2.1-.3 7.4-4.7 17.1-5.8 25.4-2.8 6.7 2.4 11.9 7.6 15.6 13.8 3 5.1 3.5 11.7 2 17.4-2.4 8.9-10.9 15.2-19.4 18.5-8.6 3.3-18.1 3.6-27.1 1.7-4.5-.8-8.8-2.2-12.6-4.5z" class="colorec5f34 svgShape"></path><path fill="#252525" d="M79.3 18.4c-2.4-.6-5-.5-7.3.5-2.3.9-4.2 2.7-5.5 4.8 0 .6.4 1 1 1s1.2-.3 1.7-.8c.5-.4.8-1 1.2-1.5 2.4-3.2 6.9-4.6 10.6-3.4-.6-.3-1-.4-1.7-.6zM46.4 19.3c2.2-1 4.8-1.3 7.3-.7 2.4.6 4.6 1.9 6.2 3.8.1.6-.2 1.1-.9 1.2-.6.1-1.3-.1-1.8-.5s-.9-.8-1.4-1.3c-2.9-2.7-7.5-3.4-11.1-1.6.6-.4 1-.5 1.7-.9z" class="color2a2122 svgShape"></path><path fill="#ffffff" d="M74 18.5c-1.1.6-2.3 1.2-3.3 2s-2 1.7-2.6 2.8c-.1.2-.2.3-.3.4-.2.2-.6.2-.6-.2 0-.2.3-.6.4-.8l1.2-1.5c.9-.9 2-1.7 3.2-2.2.6-.1 1.3-.3 2-.5zM55.7 19.7c1.2.5 2.4 1.2 3.2 2.2.1.1.2.3.2.4 0 .2-.1.3-.2.4-.1 0-.3-.1-.3-.2-.1-.1-.1-.3-.1-.4-.1-.3-.5-.5-.8-.7-1-.6-2.1-1.2-3.2-1.7s-2.3-.7-3.5-.9c.5-.6 1.4-.1 2 .1 1 .1 1.9.4 2.7.8z" opacity=".2" class="colorffffff svgShape"></path><path fill="#ffffff" d="M44.1 80.9c3.6 1 6.9 3 10.3 4.6s7.2 2.9 10.9 2.3c2.9-.5 5.7-2.2 7.4-4.6 1.7-2.4 2.4-5.6 1.9-8.5-.1-.8-.3-1.5-.2-2.3.2-.7 1-1.4 1.7-1.2.5.2.8.7 1 1.2 1.9 5 .8 11.1-2.7 15.1s-9.4 5.9-14.7 4.6c-3.7-.9-6.9-3.2-10.2-5.1s-7.2-3.3-10.9-2.3c-1.2.3-2.3.8-3.4 1-.7.1-1.6.1-2.2-.2-1.2-.7-.8-.6-.4-1.6.4-.9 1.3-1.8 2.1-2.3 2.5-1.7 6.5-1.5 9.4-.7zM31.2 59.2c-.1 1.1-.3 2.3.1 3.4.7 2 2.8 3.2 4.8 3.9 3.1 1.1 6.4 1.7 9.7 1.7.6 0 1.3 0 1.8-.3s1-.9.9-1.5c-.2-1-1.5-1.2-2.6-1.2-3.7 0-7.8-.5-10.1-3.4-1.5-1.9-1.8-4.6-1.6-7s.9-4.8 1.1-7.3c.1-.8.1-1.6-.2-2.3-.6-1.1-2-1.4-2.6-.2-.4.8-.1 2.8-.2 3.7-.3 3.5-.7 7-1.1 10.5zM87.1 24.3c1.8.2 3.7 1 4.7 2.5.5.9.7 2 .8 3.1.2 2.9 0 5.9-.7 8.7-.2.7-.5 1.5-1.1 1.5-.6.1-1.1-.4-1.2-1-.1-.6 0-1.1.1-1.7.4-1.9.6-3.8.6-5.7 0-1.1-.1-2.3-.7-3.2-.8-1.4-2.5-2.1-4.1-2.4s-3.3-.3-4.8-.8c-.4-.1-.8-.3-.8-.7-.2-1.2 1.9-.6 2.5-.6 1.6.2 3.2.1 4.7.3zM39.9 26.8c-.3-.2-.8-.2-1.1 0-.3.2-.5.7-.3 1.1.2.4.6.7 1 .6.4-.1.8-.5.8-.9s-.3-.8-.8-.9M36.8 29c-.4.1-.7.2-1 .5-.3.2-.5.6-.4 1 0 .4.3.7.7.8.4 0 .7-.2.9-.5.2-.3.4-.6.3-1-.1-.4-.4-.7-.8-.6M39.2 30.1c-.3-.1-.6-.3-1-.4-.3.3-.5.8-.4 1.2.1.4.5.8 1 .8.4 0 .9-.4.9-.8s-.5-.8-.9-.7M88.2 61.4c-.4-.1-.7-.3-1.1-.4-.6.2-.9 1.1-.6 1.6s1.2.6 1.7.2c.5-.5.4-1.3-.2-1.7M86.2 64.1c-.3-.2-.7-.3-1-.5-.5.3-.9.8-1 1.4-.1.4 0 .8.3 1 .2.1.4.1.7.1.5-.1.9-.4 1.1-.9.2-.5.1-1-.2-1.4" opacity=".15" class="colorffffff svgShape"></path></svg>