<svg xmlns="http://www.w3.org/2000/svg" enable-background="new 0 0 50 50" viewBox="0 0 50 50" id="Robot"><ellipse cx="33.6" cy="8.1" fill="#3b3b3b" rx="1.6" ry="2.3" transform="matrix(.999 .04505 -.04505 .999 .398 -1.507)" class="color1c455b svgShape"></ellipse><ellipse cx="16.5" cy="8.1" fill="#3b3b3b" rx="1.6" ry="2.3" transform="matrix(-.999 .04505 -.04505 -.999 33.358 15.395)" class="color1c455b svgShape"></ellipse><path fill="#50c878" d="M26.1,30.5c-0.9,0-4.4-0.5-4.5-0.5c-0.1,0-0.4-0.9-0.4-0.9s0.7-1.8-0.1-2.9c-0.8-1,5.1-1.5,5.1-1.5
				l3.1,1.4c0,0-0.8,1.9,0,3.4C30.1,30.9,27.1,30.5,26.1,30.5z" class="color01abff svgShape"></path><path fill="#d33291" d="M26.3,19.3h-2.5c-0.3-1.2-0.3-2.5,0-3.7h2.5C26.6,16.8,26.6,18.1,26.3,19.3z" class="colorc44b45 svgShape"></path><path fill="#50c878" d="M42.6,32.8l-5.9-2.4c-1-0.4-1.7-1.2-2-2.2l-2.2-6.7l2.2-0.7l2.2,6.7c0.1,0.3,0.3,0.6,0.7,0.7l5.9,2.4
				L42.6,32.8z" class="color01abff svgShape"></path><path fill="#a53778" d="M46.6 32.3c0 .1-.1.2-.2.3-.2.1-.8.3-1.4-.2.2.2 1.2 1 .6 1.5 0 0-.8.6-1.4-.2.1.2.2.6 0 .9-.1.1-.3.2-.5.1-.4-.3-1.3-1-1.5-2.1-.1-.5.1-1 .4-1.4l0 0c.3-.4.8-.6 1.3-.6.1 0 .2 0 .3.1.4-.1.7-.3 1-.6.1-.1.3-.1.3.1.1.3.1.8-.3 1.1C45.3 31.2 46.6 31.6 46.6 32.3zM35 21c0 1.6-1.3 2.9-3 2.9v-5.8C33.6 18.1 35 19.4 35 21z" class="colora53a37 svgShape"></path><ellipse cx="36.6" cy="28.8" fill="#a53778" rx="1.7" ry="1.6" class="colora53a37 svgShape"></ellipse><path fill="#50c878" d="M7.4,32.8l5.9-2.4c1-0.4,1.7-1.2,2-2.2l2.2-6.7l-2.2-0.7L13,27.6c-0.1,0.3-0.3,0.6-0.7,0.7l-5.9,2.4
				L7.4,32.8z" class="color01abff svgShape"></path><path fill="#a53778" d="M3.4 32.3c0 .1.1.2.2.3.2.1.8.3 1.4-.2-.2.2-1.2 1-.6 1.5 0 0 .8.6 1.4-.2-.1.2-.2.6 0 .9.1.1.3.2.5.1.4-.3 1.3-1 1.5-2.1.1-.5-.1-1-.4-1.4l0 0C7 30.8 6.5 30.6 6 30.6c-.1 0-.2 0-.3.1-.4-.1-.7-.3-1-.6-.1-.1-.3-.1-.3.1-.1.3-.1.8.3 1.1C4.7 31.2 3.4 31.6 3.4 32.3zM15 21c0 1.6 1.3 2.9 3 2.9v-5.8C16.4 18.1 15 19.4 15 21z" class="colora53a37 svgShape"></path><ellipse cx="13.4" cy="28.8" fill="#a53778" rx="1.7" ry="1.6" class="colora53a37 svgShape"></ellipse><polygon fill="#50c878" points="32.6 37.6 28.8 37.6 29.2 30.3 32.2 30.3" class="color01abff svgShape"></polygon><polygon fill="#50c878" points="28.8 37.9 32.6 37.9 32.2 43.6 29.2 43.6" class="color01abff svgShape"></polygon><circle cx="30.7" cy="37.8" r="1.9" fill="#674ea7" class="color097ccf svgShape"></circle><path fill="#a53778" d="M33.5,46.1h-5.6v-1.5c0-0.6,0.4-1,1-1h3.6c0.6,0,1,0.4,1,1V46.1z" class="colora53a37 svgShape"></path><path fill="#3b3b3b" d="M34.8,49h-8.3v-1.5c0-0.8,0.6-1.4,1.4-1.4h5.4c0.8,0,1.4,0.6,1.4,1.4V49z" class="color1c455b svgShape"></path><polygon fill="#50c878" points="21.4 37.6 17.5 37.6 18 30.3 20.9 30.3" class="color01abff svgShape"></polygon><polygon fill="#50c878" points="17.5 37.9 21.4 37.9 20.9 43.6 18 43.6" class="color01abff svgShape"></polygon><circle cx="19.4" cy="37.8" r="1.9" fill="#674ea7" class="color097ccf svgShape"></circle><path fill="#a53778" d="M22.2,46.1h-5.6v-1.5c0-0.6,0.4-1,1-1h3.6c0.6,0,1,0.4,1,1V46.1z" class="colora53a37 svgShape"></path><path fill="#3b3b3b" d="M23.6,49h-8.3v-1.5c0-0.8,0.6-1.4,1.4-1.4h5.4c0.8,0,1.4,0.6,1.4,1.4V49z" class="color1c455b svgShape"></path><path fill="#50c878" d="M33.6,7.7c0,4.8-3.8,8.7-8.5,8.7s-8.5-3.9-8.5-8.7S20.4,1,25.1,1S33.6,2.9,33.6,7.7z" class="color01abff svgShape"></path><path fill="#d33291" d="M32.6,7.7c0,1.5-1.2,2.7-2.7,2.7c-0.2,0-0.4-0.1-0.6-0.1c-2.9-0.3-5.6-0.4-8.3,0c-0.2,0-0.5,0.1-0.7,0.1
				c-1.5,0-2.7-1.2-2.7-2.7S18.8,5,20.3,5c0.2,0.1,0.5,0.1,0.7,0.1c2.6,0.4,5.4,0.4,8.2,0c0.2,0,0.5-0.1,0.7-0.1
				C31.4,5,32.6,6.2,32.6,7.7z" class="colorc44b45 svgShape"></path><circle cx="29.9" cy="7.7" r="1.8" fill="#0a0a0a" class="color000000 svgShape"></circle><circle cx="29.9" cy="7.7" r="1.8" fill="#ffd866" class="coloreaeaea svgShape"></circle><circle cx="29.9" cy="7.7" r="1" fill="#0a0a0a" class="color000000 svgShape"></circle><circle cx="20.3" cy="7.7" r="1.8" fill="#ffd866" class="coloreaeaea svgShape"></circle><circle cx="20.3" cy="7.7" r="1" fill="#0a0a0a" class="color000000 svgShape"></circle><circle cx="29.9" cy="7.7" r=".4" fill="#ffd866" class="coloreaeaea svgShape"></circle><circle cx="20.3" cy="7.7" r=".4" fill="#ffd866" class="coloreaeaea svgShape"></circle><path fill="#674ea7" d="M27.8 13.4h-5.4c-.4 0-.8-.4-.8-.8v0c0-.4.4-.8.8-.8h5.4c.4 0 .8.4.8.8v0C28.6 13.1 28.2 13.4 27.8 13.4zM33.6 21c-.4 1.7-1.4 3.1-2.7 4.1-1.3 1-2.9 1.6-4.7 1.6H24c-3.5 0-6.5-2.4-7.4-5.7-.1-.2-.1-.5-.1-.7 0-1.5 1.2-2.8 2.8-2.8h11.5C32.7 17.5 34 19.2 33.6 21z" class="color097ccf svgShape"></path><path fill="#ffffff" d="M24,26c-3,0-5.7-2-6.4-5c0-0.2-0.1-0.4-0.1-0.5c0-1.2,1-2.2,2.2-2.2h10.7c0.7,0,1.3,0.3,1.7,0.8
				c0.4,0.5,0.6,1.2,0.4,1.9c-0.4,1.4-1.2,2.7-2.3,3.6C29,25.5,27.6,26,26.1,26H24z" class="colorffffff svgShape"></path><path fill="#674ea7" d="M31.6,30.8c-0.3,1.2-1.1,2.3-2.1,3c-1,0.7-2.3,1.2-3.6,1.2l-1.7,0c-2.7,0-5-1.7-5.7-4.2
				c0-0.2-0.1-0.3-0.1-0.5c0-1.1,0.9-2.1,2.2-2.1l8.8,0C30.9,28.2,32,29.5,31.6,30.8z" class="color097ccf svgShape"></path><path fill="#50c878" d="M26,35.4h-1.7c-2.9,0-5.4-1.9-6.1-4.5c0-0.2-0.1-0.4-0.1-0.6c0-1.4,1.2-2.5,2.7-2.5h8.8
				c0.9,0,1.6,0.4,2.1,1c0.5,0.6,0.6,1.4,0.4,2.1l0,0c-0.3,1.3-1.2,2.5-2.3,3.3C28.8,35,27.4,35.4,26,35.4z M20.7,28.7
				c-0.9,0-1.7,0.7-1.7,1.6c0,0.1,0,0.2,0.1,0.4c0.6,2.2,2.7,3.8,5.2,3.8H26c1.2,0,2.4-0.4,3.3-1.1c0.9-0.7,1.6-1.6,1.9-2.7l0,0
				c0.1-0.4,0-0.9-0.3-1.3c-0.3-0.4-0.8-0.7-1.4-0.7H20.7z" class="color01abff svgShape"></path><path fill="#a53778" d="M27.7,22.2l0.6-0.2l-0.2-1l-0.7,0c-0.1-0.2-0.3-0.5-0.5-0.7l0.3-0.6l-0.8-0.5L26,19.7
				c-0.3-0.1-0.5-0.1-0.8-0.2l-0.2-0.6l-1,0.2l0,0.7c-0.2,0.1-0.5,0.3-0.7,0.5L22.7,20l-0.5,0.8l0.5,0.4c-0.1,0.3-0.1,0.5-0.2,0.8
				l-0.6,0.2l0.2,1l0.7,0c0.1,0.3,0.3,0.5,0.5,0.7l-0.3,0.6l0.8,0.5l0.4-0.5c0.3,0.1,0.5,0.2,0.8,0.2l0.2,0.6l1-0.2l0-0.7
				c0.2-0.1,0.5-0.3,0.7-0.5l0.6,0.3l0.5-0.8L27.5,23C27.6,22.8,27.7,22.5,27.7,22.2z M26.5,23.1c-0.5,0.8-1.6,1-2.4,0.5
				c-0.8-0.5-1-1.6-0.5-2.4c0.5-0.8,1.6-1,2.4-0.5C26.8,21.2,27.1,22.3,26.5,23.1z" class="colora53a37 svgShape"></path></svg>