<svg xmlns="http://www.w3.org/2000/svg" enable-background="new 0 0 50 50" viewBox="0 0 50 50" id="Robot"><rect width=".5" height="5.2" x="15.7" y="2.4" fill="#674ea7" class="colordd574b svgShape"></rect><circle cx="16" cy="2.2" r="1.2" fill="#50c878" class="color328e7c svgShape"></circle><g fill="#0a0a0a" class="color000000 svgShape"><rect width=".5" height="5.2" x="33.7" y="2.4" fill="#674ea7" class="colordd574b svgShape"></rect><circle cx="34" cy="2.2" r="1.2" fill="#50c878" class="color328e7c svgShape"></circle></g><g fill="#0a0a0a" class="color000000 svgShape"><rect width="2.9" height="7.6" x="23.6" y="35.4" fill="#139c41" class="color139c4a svgShape"></rect><path fill="#cca73a" d="M29,48.4H21c-2,0-3.6-1.6-3.6-3.6v0c0-2,1.6-3.6,3.6-3.6H29c2,0,3.6,1.6,3.6,3.6v0
					C32.6,46.8,31,48.4,29,48.4z" class="colorccb03a svgShape"></path><path fill="#e4bb42" d="M29,49H21c-2.3,0-4.2-1.9-4.2-4.2c0-2.3,1.9-4.2,4.2-4.2H29c2.3,0,4.2,1.9,4.2,4.2
					C33.2,47.1,31.3,49,29,49z M21,41.8c-1.6,0-3,1.3-3,3c0,1.6,1.3,3,3,3H29c1.6,0,3-1.3,3-3c0-1.6-1.3-3-3-3H21z" class="colore4c942 svgShape"></path><path fill="#c5107b" d="M22 44.8c0 .8-.7 1.4-1.4 1.4s-1.4-.6-1.4-1.4c0-.8.7-1.4 1.4-1.4S22 44 22 44.8zM26.4 44.8c0 .8-.7 1.4-1.4 1.4s-1.4-.6-1.4-1.4c0-.8.7-1.4 1.4-1.4S26.4 44 26.4 44.8zM30.9 44.8c0 .8-.7 1.4-1.4 1.4-.8 0-1.4-.6-1.4-1.4 0-.8.7-1.4 1.4-1.4C30.2 43.4 30.9 44 30.9 44.8z" class="colorc55410 svgShape"></path><path fill="#cca73a" d="M33.8 12.6h-2.2V7.2h2.2c.6 0 1.1.5 1.1 1.1v3.3C34.9 12.2 34.4 12.6 33.8 12.6zM15.7 12.6h2.2V7.2h-2.2c-.6 0-1.1.5-1.1 1.1v3.3C14.6 12.2 15.1 12.6 15.7 12.6z" class="colorccb03a svgShape"></path><path fill="#e4bb42" d="M25,38.4c-6,0-9.7-7.7-8.4-15c0.2-1.4,0.6-2.6,1.1-3.7c0.4-1,1.2-1.8,2.1-2.4c1.3-0.9,2.8-1.3,4.5-1.3
					h1.4c1.7,0,3.3,0.5,4.5,1.3c0.9,0.6,1.6,1.4,2.1,2.4c0.5,1.1,0.9,2.4,1.1,3.7C34.6,30.7,31,38.4,25,38.4z" class="colore4c942 svgShape"></path><path fill="#139c41" d="M30.3,17.3L25,22.5l-5.2-5.2c1.3-0.9,2.8-1.3,4.5-1.3h1.4C27.4,15.9,29,16.4,30.3,17.3z" class="color139c4a svgShape"></path><path fill="#3f3f3f" d="M32.8,9.9c0,4.9-3.6,8.9-8.1,8.9c-4.5,0-8.1-4-8.1-8.9c0-0.2,0-0.4,0-0.7c0.3-4.6,3.8-8.2,8.1-8.2
					c4.3,0,7.8,3.6,8.1,8.2C32.8,9.5,32.8,9.7,32.8,9.9z" class="color116d36 svgShape"></path><path fill="#139c41" d="M32.8,9.3c-0.3,4.6-3.8,8.2-8.1,8.2c-4.3,0-7.8-3.6-8.1-8.2c0.2-2.8,1.6-5.2,3.6-6.7
					c1.3-1,2.8-1.5,4.5-1.5c1.7,0,3.2,0.5,4.5,1.5C31.3,4,32.6,6.5,32.8,9.3z" class="color139c4a svgShape"></path><path fill="#e4bb42" d="M29.2,2.6v7.2c0,1.5-1.3,2.8-2.8,2.8H23c-1.5,0-2.8-1.3-2.8-2.8V2.6c1.3-1,2.8-1.5,4.5-1.5
					C26.4,1.1,27.9,1.6,29.2,2.6z" class="colore4c942 svgShape"></path><ellipse cx="27.2" cy="9.9" fill="#f4f4f4" rx="1.1" ry="1.5" class="colorf4f4f4 svgShape"></ellipse><ellipse cx="27.2" cy="9.9" rx=".7" ry=".9" fill="#0a0a0a" class="color000000 svgShape"></ellipse><circle cx="26.7" cy="9.4" r=".2" fill="#f4f4f4" class="colorf4f4f4 svgShape"></circle><ellipse cx="22.3" cy="9.9" fill="#f4f4f4" rx="1.1" ry="1.5" class="colorf4f4f4 svgShape"></ellipse><ellipse cx="22.3" cy="9.9" rx=".7" ry=".9" fill="#0a0a0a" class="color000000 svgShape"></ellipse><circle cx="21.8" cy="9.4" r=".2" fill="#f4f4f4" class="colorf4f4f4 svgShape"></circle><g fill="#0a0a0a" class="color000000 svgShape"><rect width=".4" height="2" x="26.8" y="6.7" fill="#cca73a" transform="rotate(71.777 27.02 7.722)" class="colorccb03a svgShape"></rect><rect width="2" height=".4" x="21.5" y="7.5" fill="#cca73a" transform="rotate(18.232 22.435 7.725)" class="colorccb03a svgShape"></rect></g><g fill="#0a0a0a" class="color000000 svgShape"><ellipse cx="38.1" cy="28.3" fill="#e4bb42" rx="2.7" ry="2.4" transform="rotate(-30.37 38.148 28.255)" class="colore4c942 svgShape"></ellipse><path fill="#c5107b" d="M31.3 19.9l1.9 6.5c.2 1.8 2.2 2.8 3.8 1.9l1.7-1c1.6-.9 1.7-3.2.2-4.3l-4.7-4.8C32.9 17.3 31.2 18.4 31.3 19.9zM43.6 34.1l-.8-4.1c-.1-1.4-1.7-2.1-3-1.3l-1.4.8c-1.3.8-1.5 2.5-.3 3.2l3.2 2.7C42.2 36.2 43.7 35.3 43.6 34.1z" class="colorc55410 svgShape"></path><ellipse cx="11.9" cy="28.3" fill="#e4bb42" rx="2.7" ry="2.4" transform="rotate(-149.63 11.852 28.254)" class="colore4c942 svgShape"></ellipse><path fill="#c5107b" d="M18.7 19.9l-1.9 6.5c-.2 1.8-2.2 2.8-3.8 1.9l-1.7-1c-1.6-.9-1.7-3.2-.2-4.3l4.7-4.8C17.1 17.3 18.8 18.4 18.7 19.9zM6.4 34.1l.8-4.1c.1-1.4 1.7-2.1 3-1.3l1.4.8c1.3.8 1.5 2.5.3 3.2l-3.2 2.7C7.8 36.2 6.3 35.3 6.4 34.1z" class="colorc55410 svgShape"></path></g><g fill="#0a0a0a" class="color000000 svgShape"><circle cx="25" cy="23.1" r="2.5" fill="#c5107b" class="colorc55410 svgShape"></circle></g><g fill="#0a0a0a" class="color000000 svgShape"><path fill="#ffffff" d="M31.6,34H18.7c0-3.7,2.9-6.7,6.5-6.7C28.7,27.3,31.6,30.3,31.6,34z" class="colorffffff svgShape"></path><polygon points="25.7 32 28.7 29.6 26 32.4" fill="#0a0a0a" class="color000000 svgShape"></polygon><path fill="#d52d90" d="M26.2 32.7c0 .5-.5 1-1 1-.6 0-1-.4-1-1 0-.5.5-1 1-1C25.7 31.7 26.2 32.1 26.2 32.7zM25 29.7" class="colord5502d svgShape"></path></g></g><g fill="#0a0a0a" class="color000000 svgShape"><circle cx="38" cy="46.7" r="2.3" fill="#ddb84a" class="colorddac4a svgShape"></circle><circle cx="38" cy="46.7" r="1.3" fill="#1d1d1d" class="color0e252d svgShape"></circle><circle cx="31.5" cy="46.7" r="2.3" fill="#ddb84a" class="colorddac4a svgShape"></circle><circle cx="31.5" cy="46.7" r="1.3" fill="#1d1d1d" class="color0e252d svgShape"></circle><circle cx="25" cy="46.7" r="2.3" fill="#ddb84a" class="colorddac4a svgShape"></circle><circle cx="25" cy="46.7" r="1.3" fill="#1d1d1d" class="color0e252d svgShape"></circle><circle cx="18.5" cy="46.7" r="2.3" fill="#ddb84a" class="colorddac4a svgShape"></circle><circle cx="18.5" cy="46.7" r="1.3" fill="#1d1d1d" class="color0e252d svgShape"></circle><circle cx="12" cy="46.7" r="2.3" fill="#ddb84a" class="colorddac4a svgShape"></circle><circle cx="12" cy="46.7" r="1.3" fill="#1d1d1d" class="color0e252d svgShape"></circle><rect width="1" height="2" x="29.4" y="6.4" fill="#d33291" class="coloref659d svgShape"></rect><rect width="1" height="2" x="19.6" y="6.4" fill="#d33291" class="coloref659d svgShape"></rect><circle cx="29.9" cy="3.8" r="2.8" fill="#96336d" class="color963360 svgShape"></circle><circle cx="29.9" cy="3.8" r="2.1" fill="#ffffff" class="colorffffff svgShape"></circle><circle cx="29.9" cy="3.8" r="1.1" fill="#1d1d1d" class="color0e252d svgShape"></circle><circle cx="20.1" cy="3.8" r="2.8" fill="#96336d" class="color963360 svgShape"></circle><circle cx="20.1" cy="3.8" r="2.1" fill="#ffffff" class="colorffffff svgShape"></circle><circle cx="20.1" cy="3.8" r="1.1" fill="#1d1d1d" class="color0e252d svgShape"></circle><circle cx="30.5" cy="2.9" r=".4" fill="#ffffff" class="colorffffff svgShape"></circle><circle cx="29.9" cy="3.5" r=".3" fill="#ffffff" class="colorffffff svgShape"></circle><circle cx="19.4" cy="2.9" r=".4" fill="#ffffff" class="colorffffff svgShape"></circle><circle cx="20" cy="3.5" r=".3" fill="#ffffff" class="colorffffff svgShape"></circle><path fill="#d33291" d="M37.8,42.3H12.2c-0.8,0-1.3-0.6-1.3-1.4l1.6-29.2c0-0.8,0.7-1.5,1.6-1.5h21.9c0.8,0,1.5,0.6,1.6,1.5
				l1.6,29.2C39.2,41.7,38.6,42.3,37.8,42.3z" class="coloref659d svgShape"></path><path fill="#96336d" d="M36.8,31.9H13.2l0.9-16.4c0-0.8,0.7-1.5,1.6-1.5h18.6c0.8,0,1.5,0.7,1.6,1.5L36.8,31.9z M13.7,31.4h22.5
				l-0.9-15.9c0-0.6-0.5-1-1.1-1H15.7c-0.6,0-1.1,0.5-1.1,1L13.7,31.4z" class="color963360 svgShape"></path><g fill="#0a0a0a" class="color000000 svgShape"><rect width="18" height="2.3" x="16" y="8" fill="#96336d" class="color963360 svgShape"></rect></g><g fill="#0a0a0a" class="color000000 svgShape"><path fill="#ffd866" d="M41.4,46.7H8.6V43c0-1.2,1-2.3,2.3-2.3h28.4c1.2,0,2.3,1,2.3,2.3V46.7z" class="colorfdcc5a svgShape"></path></g><g fill="#0a0a0a" class="color000000 svgShape"><path fill="#ffffff" d="M31.3,29.3H18.7c-0.6,0-1.1-0.5-1.1-1.1V17.8c0-0.6,0.5-1.1,1.1-1.1h12.5c0.6,0,1.1,0.5,1.1,1.1v10.3
				C32.4,28.8,31.9,29.3,31.3,29.3z" class="colorffffff svgShape"></path></g><g fill="#0a0a0a" class="color000000 svgShape"><circle cx="34.5" cy="36.3" r="1.8" fill="#ffffff" class="colorffffff svgShape"></circle><path fill="#ffd866" d="M34.5,38.6c-1.3,0-2.3-1-2.3-2.3c0-1.3,1-2.3,2.3-2.3c1.3,0,2.3,1,2.3,2.3C36.8,37.6,35.7,38.6,34.5,38.6
				z M34.5,35c-0.7,0-1.4,0.6-1.4,1.4s0.6,1.4,1.4,1.4c0.7,0,1.4-0.6,1.4-1.4S35.2,35,34.5,35z" class="colorfdcc5a svgShape"></path></g><g fill="#0a0a0a" class="color000000 svgShape"><path fill="#96336d" d="M15.4,38.5c-0.3,0-0.5-0.2-0.5-0.5v-3.5c0-0.3,0.2-0.5,0.5-0.5c0.3,0,0.5,0.2,0.5,0.5v3.5
				C15.9,38.3,15.6,38.5,15.4,38.5z" class="color963360 svgShape"></path></g><g fill="#0a0a0a" class="color000000 svgShape"><path fill="#96336d" d="M19.8,38.5c-0.3,0-0.5-0.2-0.5-0.5v-3.5c0-0.3,0.2-0.5,0.5-0.5s0.5,0.2,0.5,0.5v3.5
				C20.2,38.3,20,38.5,19.8,38.5z" class="color963360 svgShape"></path></g><g fill="#0a0a0a" class="color000000 svgShape"><path fill="#96336d" d="M24.1,38.5c-0.3,0-0.5-0.2-0.5-0.5v-3.5c0-0.3,0.2-0.5,0.5-0.5s0.5,0.2,0.5,0.5v3.5
				C24.6,38.3,24.4,38.5,24.1,38.5z" class="color963360 svgShape"></path></g><g fill="#0a0a0a" class="color000000 svgShape"><path fill="#96336d" d="M28.5,38.5c-0.3,0-0.5-0.2-0.5-0.5v-3.5c0-0.3,0.2-0.5,0.5-0.5s0.5,0.2,0.5,0.5v3.5
				C29,38.3,28.8,38.5,28.5,38.5z" class="color963360 svgShape"></path></g><g fill="#0a0a0a" class="color000000 svgShape"><path fill="#ffd866" d="M29.1,23.2c-0.9,0.9-4.2,4.2-4.1,4.1l-4.1-4.1c-1.3-1.3-0.9-3.5,0.8-4.3c1.1-0.5,2.6-0.1,3.3,1
				c0.6-1,1.7-1.4,2.8-1.2C29.8,19.1,30.6,21.7,29.1,23.2z" class="colorfdcc5a svgShape"></path></g></g></svg>