<svg xmlns="http://www.w3.org/2000/svg" enable-background="new 0 0 50 50" viewBox="0 0 50 50" id="Robot"><path fill="#ffd866" d="M44.9,29.4c0,0.3,0,0.5,0,0.8c0,0.1,0,0.3,0,0.4l-2.3-0.1l-0.2,0c0-0.3,0-0.5,0-0.8c0-0.1,0-0.3,0-0.4
						c0-0.3,0-0.5,0-0.8c0-0.1,0-0.3,0-0.4c0-0.3-0.1-0.5-0.1-0.8c0-0.1,0-0.3-0.1-0.4c-0.1-0.3-0.1-0.5-0.2-0.8
						c0-0.1-0.1-0.3-0.1-0.4c-0.1-0.3-0.2-0.5-0.3-0.8c-0.1-0.1-0.1-0.3-0.2-0.4c-0.1-0.3-0.2-0.5-0.4-0.8c-0.1-0.1-0.1-0.3-0.2-0.4
						c-0.2-0.3-0.3-0.5-0.5-0.7c-0.1-0.1-0.2-0.2-0.3-0.4c-0.2-0.3-0.4-0.5-0.6-0.7c-0.1-0.1-0.2-0.2-0.4-0.3
						c-0.3-0.2-0.6-0.4-0.8-0.6c-0.2-0.1-0.3-0.2-0.5-0.3c-0.5-0.3-0.8-0.4-0.9-0.4l0.1-0.2l0.1-0.5l0.3-1l0.1-0.5v0l0.1-0.3
						c0,0,0.2,0,0.4,0.1h0c0.2,0.1,0.4,0.1,0.6,0.3c0.3,0.1,0.7,0.3,1.1,0.6c0.2,0.1,0.3,0.2,0.5,0.3h0c0.3,0.2,0.6,0.4,0.8,0.7h0
						c0.1,0.1,0.3,0.2,0.4,0.4c0.2,0.2,0.5,0.5,0.7,0.7c0.1,0.1,0.2,0.2,0.3,0.4c0.2,0.2,0.4,0.5,0.5,0.8c0.1,0.1,0.2,0.3,0.2,0.4
						c0.1,0.2,0.3,0.5,0.4,0.8c0.1,0.1,0.1,0.3,0.2,0.4c0.1,0.3,0.2,0.5,0.3,0.8c0.1,0.1,0.1,0.3,0.1,0.4c0.1,0.3,0.2,0.5,0.2,0.8
						c0,0.1,0.1,0.3,0.1,0.4c0.1,0.3,0.1,0.5,0.2,0.8c0,0.1,0,0.3,0.1,0.4c0,0.3,0.1,0.5,0.1,0.8c0,0.1,0,0.3,0,0.4
						c0,0.3,0,0.5,0,0.8C44.9,29.2,44.9,29.3,44.9,29.4z" class="colorfdcc5a svgShape"></path><path fill="#674ea7" d="M40 18.9c-1.1.2-2.1.6-3.1.9l.1-.5c.8-.3 1.7-.6 2.5-.8C39.7 18.7 39.9 18.8 40 18.9zM41.3 20c-1 .2-2 .4-3 .8-.2-.1-.3-.2-.5-.3 1-.4 2.1-.6 3.1-.8h0C41 19.7 41.1 19.8 41.3 20zM42.2 21c-.9.1-1.9.3-2.8.6-.1-.1-.2-.2-.4-.3.9-.3 1.9-.5 2.9-.6C42 20.8 42.1 20.9 42.2 21zM43 22.2c-.9.1-1.8.3-2.7.5-.1-.1-.2-.2-.3-.4.9-.2 1.8-.4 2.7-.5C42.9 21.9 43 22.1 43 22.2z" class="colore0ac44 svgShape"></path><path fill="#328e51" d="M43.7 23.4c-.9.1-1.7.2-2.6.4-.1-.1-.1-.3-.2-.4.9-.2 1.7-.3 2.6-.4C43.5 23.1 43.6 23.2 43.7 23.4zM44.1 24.6c-.9.1-1.7.2-2.5.3-.1-.1-.1-.3-.2-.4.8-.2 1.7-.3 2.5-.4C44 24.3 44.1 24.4 44.1 24.6z" class="color328e7c svgShape"></path><path fill="#674ea7" d="M44.5 25.8c-.8 0-1.7.1-2.5.3 0-.1-.1-.3-.1-.4.8-.2 1.7-.3 2.5-.3C44.4 25.5 44.4 25.6 44.5 25.8zM44.7 27c-.8 0-1.7.1-2.5.3 0-.1 0-.3-.1-.4.8-.2 1.7-.3 2.5-.3C44.7 26.7 44.7 26.9 44.7 27zM44.8 28.2c-.8 0-1.7.1-2.5.3 0-.1 0-.3 0-.4.8-.2 1.6-.3 2.5-.3C44.8 27.9 44.8 28.1 44.8 28.2zM44.9 29.4c-.9 0-1.7.1-2.5.3 0-.1 0-.3 0-.4.8-.2 1.7-.3 2.5-.3C44.9 29.2 44.9 29.3 44.9 29.4zM44.9 30.2c0 .1 0 .3 0 .4l-2.3-.1C43.3 30.4 44.1 30.3 44.9 30.2z" class="colore0ac44 svgShape"></path><path fill="#b9026e" d="M45.9,34.1c-0.1-0.6-0.3-1.2-0.6-1.7c-0.9-1.4-2.5-1.6-3.5-0.4c-0.4,0.4-0.6,1-0.7,1.6
						c-0.1-1,0.1-2.1,0.8-2.8c1-1.1,2.5-1,3.5,0.4C45.9,32,46.1,33.1,45.9,34.1z" class="colorb94d02 svgShape"></path><path fill="#674ea7" d="M44.1 23.9c0 .9-.7 1.6-1.6 1.6-.9 0-1.6-.7-1.6-1.6 0-.9.7-1.6 1.6-1.6C43.4 22.3 44.1 23.1 44.1 23.9zM38.5 18c-.4.1-.8.2-1.2.4l.1-.5v0c.2-.1.3-.1.5-.1h0C38 17.8 38.2 17.9 38.5 18z" class="colore0ac44 svgShape"></path><circle cx="36" cy="18.5" r="2" fill="#96336d" class="color963360 svgShape"></circle><path fill="#ffd866" d="M5.1,29.4c0,0.3,0,0.5,0,0.8c0,0.1,0,0.3,0,0.4l2.3-0.1l0.2,0c0-0.3,0-0.5,0-0.8c0-0.1,0-0.3,0-0.4
						c0-0.3,0-0.5,0-0.8c0-0.1,0-0.3,0-0.4c0-0.3,0.1-0.5,0.1-0.8c0-0.1,0-0.3,0.1-0.4C7.9,26.6,8,26.4,8,26.1
						c0-0.1,0.1-0.3,0.1-0.4c0.1-0.3,0.2-0.5,0.3-0.8c0.1-0.1,0.1-0.3,0.2-0.4c0.1-0.3,0.2-0.5,0.4-0.8c0.1-0.1,0.1-0.3,0.2-0.4
						c0.2-0.3,0.3-0.5,0.5-0.7c0.1-0.1,0.2-0.2,0.3-0.4c0.2-0.3,0.4-0.5,0.6-0.7c0.1-0.1,0.2-0.2,0.4-0.3c0.3-0.2,0.6-0.4,0.8-0.6
						c0.2-0.1,0.3-0.2,0.5-0.3c0.5-0.3,0.8-0.4,0.9-0.4l-0.1-0.2L13,19.4l-0.3-1l-0.1-0.5v0l-0.1-0.3c0,0-0.2,0-0.4,0.1h0
						c-0.2,0.1-0.4,0.1-0.6,0.3c-0.3,0.1-0.7,0.3-1.1,0.6c-0.2,0.1-0.3,0.2-0.5,0.3h0c-0.3,0.2-0.6,0.4-0.8,0.7h0
						C9,19.7,8.9,19.8,8.7,20c-0.2,0.2-0.5,0.5-0.7,0.7C8,20.8,7.9,20.9,7.8,21c-0.2,0.2-0.4,0.5-0.5,0.8C7.1,21.9,7,22.1,7,22.2
						c-0.1,0.2-0.3,0.5-0.4,0.8c-0.1,0.1-0.1,0.3-0.2,0.4c-0.1,0.3-0.2,0.5-0.3,0.8c-0.1,0.1-0.1,0.3-0.1,0.4
						c-0.1,0.3-0.2,0.5-0.2,0.8c0,0.1-0.1,0.3-0.1,0.4c-0.1,0.3-0.1,0.5-0.2,0.8c0,0.1,0,0.3-0.1,0.4c0,0.3-0.1,0.5-0.1,0.8
						c0,0.1,0,0.3,0,0.4c0,0.3,0,0.5,0,0.8C5.1,29.2,5.1,29.3,5.1,29.4z" class="colorfdcc5a svgShape"></path><path fill="#674ea7" d="M10 18.9c1.1.2 2.1.6 3.1.9L13 19.4c-.8-.3-1.7-.6-2.5-.8C10.3 18.7 10.1 18.8 10 18.9zM8.7 20c1 .2 2 .4 3 .8.2-.1.3-.2.5-.3-1-.4-2.1-.6-3.1-.8h0C9 19.7 8.9 19.8 8.7 20zM7.8 21c.9.1 1.9.3 2.8.6.1-.1.2-.2.4-.3C10 21 9 20.8 8.1 20.7 8 20.8 7.9 20.9 7.8 21zM7 22.2c.9.1 1.8.3 2.7.5.1-.1.2-.2.3-.4-.9-.2-1.8-.4-2.7-.5C7.1 21.9 7 22.1 7 22.2z" class="colore0ac44 svgShape"></path><path fill="#328e51" d="M6.3 23.4c.9.1 1.7.2 2.6.4.1-.1.1-.3.2-.4-.9-.2-1.7-.3-2.6-.4C6.5 23.1 6.4 23.2 6.3 23.4zM5.9 24.6c.9.1 1.7.2 2.5.3.1-.1.1-.3.2-.4-.8-.2-1.7-.3-2.5-.4C6 24.3 5.9 24.4 5.9 24.6z" class="color328e7c svgShape"></path><path fill="#674ea7" d="M5.5 25.8c.8 0 1.7.1 2.5.3 0-.1.1-.3.1-.4-.8-.2-1.7-.3-2.5-.3C5.6 25.5 5.6 25.6 5.5 25.8zM5.3 27c.8 0 1.7.1 2.5.3 0-.1 0-.3.1-.4-.8-.2-1.7-.3-2.5-.3C5.3 26.7 5.3 26.9 5.3 27zM5.2 28.2c.8 0 1.7.1 2.5.3 0-.1 0-.3 0-.4-.8-.2-1.6-.3-2.5-.3C5.2 27.9 5.2 28.1 5.2 28.2zM5.1 29.4c.9 0 1.7.1 2.5.3 0-.1 0-.3 0-.4C6.8 29.2 6 29 5.1 29 5.1 29.2 5.1 29.3 5.1 29.4zM5.1 30.2c0 .1 0 .3 0 .4l2.3-.1C6.7 30.4 5.9 30.3 5.1 30.2z" class="colore0ac44 svgShape"></path><path fill="#b9026e" d="M4.1,34.1c0.1-0.6,0.3-1.2,0.6-1.7c0.9-1.4,2.5-1.6,3.5-0.4c0.4,0.4,0.6,1,0.7,1.6
						c0.1-1-0.1-2.1-0.8-2.8c-1-1.1-2.5-1-3.5,0.4C4.1,32,3.9,33.1,4.1,34.1z" class="colorb94d02 svgShape"></path><path fill="#674ea7" d="M5.9 23.9c0 .9.7 1.6 1.6 1.6s1.6-.7 1.6-1.6c0-.9-.7-1.6-1.6-1.6S5.9 23.1 5.9 23.9zM11.5 18c.4.1.8.2 1.2.4l-.1-.5v0c-.2-.1-.3-.1-.5-.1h0C12 17.8 11.8 17.9 11.5 18z" class="colore0ac44 svgShape"></path><circle cx="14" cy="18.5" r="2" fill="#96336d" class="color963360 svgShape"></circle><path fill="#96336d" d="M18.9,4.2h-1.8c-0.1,0-0.2-0.1-0.2-0.2V3.5c0-0.1,0.1-0.2,0.2-0.2h1.8c0.1,0,0.2,0.1,0.2,0.2V4
						C19.2,4.1,19.1,4.2,18.9,4.2z" class="color963360 svgShape"></path><rect width=".4" height="1.5" x="17.9" y="1.8" fill="#96336d" class="color963360 svgShape"></rect><circle cx="18.1" cy="1.6" r=".6" fill="#ffd866" class="colorfdcc5a svgShape"></circle><path fill="#96336d" d="M32.8,4.2H31c-0.1,0-0.2-0.1-0.2-0.2V3.5c0-0.1,0.1-0.2,0.2-0.2h1.8c0.1,0,0.2,0.1,0.2,0.2V4
						C33,4.1,32.9,4.2,32.8,4.2z" class="color963360 svgShape"></path><rect width=".4" height="1.5" x="31.7" y="1.8" fill="#96336d" class="color963360 svgShape"></rect><circle cx="31.9" cy="1.6" r=".6" fill="#ffd866" class="colorfdcc5a svgShape"></circle><rect width="18.3" height="9.1" x="15.8" y="3.8" fill="#d33291" class="colordd4f87 svgShape"></rect><path fill="#96336d" d="M35.6,10.6h-1.5V6.1h1.5c0.4,0,0.7,0.3,0.7,0.7V10C36.3,10.3,36,10.6,35.6,10.6z" class="color963360 svgShape"></path><g fill="#0a0a0a" class="color000000 svgShape"><path fill="#96336d" d="M14.3,10.6h1.5V6.1h-1.5c-0.4,0-0.7,0.3-0.7,0.7V10C13.6,10.3,14,10.6,14.3,10.6z" class="color963360 svgShape"></path></g><g fill="#0a0a0a" class="color000000 svgShape"><circle cx="20.8" cy="8.4" r="1.7" fill="#f4f4f4" class="colorf4f4f4 svgShape"></circle><path fill="#f0c64d" d="M20.8,10.1c-1,0-1.7-0.8-1.7-1.7s0.8-1.7,1.7-1.7c1,0,1.7,0.8,1.7,1.7S21.7,10.1,20.8,10.1z
								 M20.8,6.8c-0.9,0-1.6,0.7-1.6,1.6c0,0.9,0.7,1.6,1.6,1.6s1.6-0.7,1.6-1.6C22.4,7.5,21.7,6.8,20.8,6.8z" class="colorf0ca4d svgShape"></path><circle cx="20.8" cy="8.4" r="1.2" fill="#0a0a0a" class="color000000 svgShape"></circle><circle cx="19.9" cy="7.8" r=".3" fill="#ffffff" class="colorffffff svgShape"></circle><circle cx="20.4" cy="8.2" r=".2" fill="#ffffff" class="colorffffff svgShape"></circle><circle cx="29.1" cy="8.4" r="1.7" fill="#f4f4f4" class="colorf4f4f4 svgShape"></circle><path fill="#f0c64d" d="M29.1,10.1c-1,0-1.7-0.8-1.7-1.7s0.8-1.7,1.7-1.7c1,0,1.7,0.8,1.7,1.7S30.1,10.1,29.1,10.1z
								 M29.1,6.8c-0.9,0-1.6,0.7-1.6,1.6c0,0.9,0.7,1.6,1.6,1.6s1.6-0.7,1.6-1.6C30.7,7.5,30,6.8,29.1,6.8z" class="colorf0ca4d svgShape"></path><circle cx="29.1" cy="8.4" r="1.2" fill="#0a0a0a" class="color000000 svgShape"></circle><circle cx="28.2" cy="7.8" r=".3" fill="#ffffff" class="colorffffff svgShape"></circle><circle cx="28.7" cy="8.2" r=".2" fill="#ffffff" class="colorffffff svgShape"></circle></g><g fill="#0a0a0a" class="color000000 svgShape"><path fill="#f4f4f4" d="M25.8,12c-1.4,0-2.8-0.1-4.2-0.4c-0.2,0-0.3-0.2-0.2-0.3c0-0.2,0.2-0.3,0.3-0.2c2.8,0.6,5.5,0.6,7.9,0
					c0.2,0,0.3,0.1,0.3,0.2c0,0.2-0.1,0.3-0.2,0.3C28.4,11.9,27.1,12,25.8,12z" class="colorf4f4f4 svgShape"></path></g><g fill="#0a0a0a" class="color000000 svgShape"><polygon fill="#f0c64d" points="28.4 3.8 27.9 6.4 22.1 6.4 21.5 3.8" class="colorf0ca4d svgShape"></polygon></g><g fill="#0a0a0a" class="color000000 svgShape"><rect width="9.2" height="3.5" x="20.4" y="12.9" fill="#96336d" class="color963360 svgShape"></rect></g><g fill="#0a0a0a" class="color000000 svgShape"><rect width="9.2" height=".4" x="20.4" y="13.4" fill="#ffffff" class="colorffffff svgShape"></rect><rect width="9.2" height=".4" x="20.4" y="14.5" fill="#ffffff" class="colorffffff svgShape"></rect><rect width="9.2" height=".4" x="20.4" y="15.5" fill="#ffffff" class="colorffffff svgShape"></rect></g><g fill="#0a0a0a" class="color000000 svgShape"><path fill="#d33291" d="M37.2,31.6H12.7c-0.4,0-0.8-0.4-0.7-0.8L14,17c0.1-0.4,0.4-0.6,0.7-0.6h20.4c0.4,0,0.7,0.3,0.7,0.6
					L38,30.8C38,31.2,37.7,31.6,37.2,31.6z" class="colordd4f87 svgShape"></path></g><g fill="#0a0a0a" class="color000000 svgShape"><polygon fill="#ef65b6" points="13.6 30.1 15.4 17.9 34.5 17.9 36.3 30.1" class="coloref659d svgShape"></polygon></g><g fill="#0a0a0a" class="color000000 svgShape"><polygon fill="#ffffff" points="18.3 20.1 31.6 20.1 30.5 27.9 19.4 27.9" class="colorffffff svgShape"></polygon></g><g fill="#0a0a0a" class="color000000 svgShape"><path fill="#50c878" d="M26.9,25.6v-0.7l-0.5-0.1c-0.1-0.2-0.1-0.4-0.2-0.6l0.3-0.4l-0.5-0.5l-0.4,0.3
						c-0.2-0.1-0.4-0.2-0.6-0.2l-0.1-0.5h-0.8L24,23.4c-0.2,0-0.4,0.1-0.6,0.2L23,23.3l-0.5,0.5l0.3,0.4c-0.1,0.2-0.2,0.4-0.2,0.6
						L22,24.9v0.7l0.5,0.1c0.1,0.2,0.1,0.4,0.2,0.6l-0.3,0.4l0.5,0.5l0.4-0.3c0.2,0.1,0.4,0.2,0.6,0.2l0.1,0.5h0.8l0.1-0.5
						c0.2,0,0.4-0.1,0.6-0.2l0.4,0.3l0.5-0.5l-0.3-0.4c0.1-0.2,0.2-0.4,0.2-0.6L26.9,25.6z M24.4,26.6c-0.7,0-1.4-0.6-1.4-1.3
						s0.6-1.3,1.4-1.3c0.7,0,1.4,0.6,1.4,1.3S25.2,26.6,24.4,26.6z" class="color3eb49e svgShape"></path><path fill="#d52d90" d="M27.7,21.6l0.3-0.2L27.8,21l-0.3,0.1c-0.1-0.1-0.2-0.2-0.3-0.3l0.1-0.3l-0.4-0.2l-0.2,0.2
						c-0.1,0-0.3,0-0.4,0l-0.2-0.2l-0.4,0.2l0.1,0.3c-0.1,0.1-0.2,0.2-0.3,0.3L25.2,21L25,21.4l0.3,0.2c0,0.1,0,0.2,0,0.4L25,22.1
						l0.2,0.4l0.3-0.1c0.1,0.1,0.2,0.2,0.3,0.3L25.7,23l0.4,0.2l0.2-0.2c0.1,0,0.3,0,0.4,0l0.2,0.2l0.4-0.2l-0.1-0.3
						c0.1-0.1,0.2-0.2,0.3-0.3l0.3,0.1l0.2-0.4L27.7,22C27.7,21.9,27.7,21.7,27.7,21.6z M27.2,22.1c-0.2,0.4-0.6,0.6-1.1,0.4
						c-0.4-0.2-0.6-0.6-0.4-1c0.2-0.4,0.6-0.6,1.1-0.4C27.2,21.2,27.4,21.7,27.2,22.1z" class="colord5502d svgShape"></path></g><g fill="#0a0a0a" class="color000000 svgShape"><rect width="5.3" height="15.2" x="15.6" y="31.6" fill="#ffd866" class="colorfdcc5a svgShape"></rect><path fill="#d33291" d="M22.5,49h-8.6c0-1.9,1.9-3.5,4.3-3.5C20.6,45.5,22.5,47.1,22.5,49z" class="colordd4f87 svgShape"></path><rect width="5.3" height=".7" x="15.6" y="32.3" fill="#ffffff" class="colorffffff svgShape"></rect><rect width="5.3" height=".7" x="15.6" y="34.4" fill="#ffffff" class="colorffffff svgShape"></rect><rect width="5.3" height=".7" x="15.6" y="36.4" fill="#ffffff" class="colorffffff svgShape"></rect><rect width="5.3" height=".7" x="15.6" y="38.5" fill="#ffffff" class="colorffffff svgShape"></rect><rect width="5.3" height=".7" x="15.6" y="40.5" fill="#ffffff" class="colorffffff svgShape"></rect><rect width="5.3" height=".7" x="15.6" y="42.6" fill="#ffffff" class="colorffffff svgShape"></rect><rect width="5.3" height=".7" x="15.6" y="44.6" fill="#ffffff" class="colorffffff svgShape"></rect><rect width="5.3" height="15.2" x="29.1" y="31.6" fill="#ffd866" class="colorfdcc5a svgShape"></rect><path fill="#d33291" d="M36,49h-8.6c0-1.9,1.9-3.5,4.3-3.5C34.1,45.5,36,47.1,36,49z" class="colordd4f87 svgShape"></path><rect width="5.3" height=".7" x="29.1" y="32.3" fill="#ffffff" class="colorffffff svgShape"></rect><rect width="5.3" height=".7" x="29.1" y="34.4" fill="#ffffff" class="colorffffff svgShape"></rect><rect width="5.3" height=".7" x="29.1" y="36.4" fill="#ffffff" class="colorffffff svgShape"></rect><rect width="5.3" height=".7" x="29.1" y="38.5" fill="#ffffff" class="colorffffff svgShape"></rect><rect width="5.3" height=".7" x="29.1" y="40.5" fill="#ffffff" class="colorffffff svgShape"></rect><rect width="5.3" height=".7" x="29.1" y="42.6" fill="#ffffff" class="colorffffff svgShape"></rect><rect width="5.3" height=".7" x="29.1" y="44.6" fill="#ffffff" class="colorffffff svgShape"></rect></g></svg>