<svg xmlns="http://www.w3.org/2000/svg" enable-background="new 0 0 50 50" viewBox="0 0 50 50" id="Robot"><path fill="#f9cb43" d="M28,4.1H21C21,2.4,22.5,1,24.5,1C26.4,1,28,2.4,28,4.1z" class="colorf99e43 svgShape"></path><path fill="#521ae2" d="M37.9,21.3c-1.1,0-2.2-0.3-3.2-1l0.9-1.2c1.1,0.8,2.6,0.9,3.9,0.4c1.2-0.6,2.1-1.8,2.2-3.2
					c0.1-1.3-0.6-2.8-1.7-3.5l0.8-1.2c1.6,1.1,2.5,3,2.3,4.9s-1.4,3.6-3.1,4.4C39.4,21.1,38.6,21.3,37.9,21.3z" class="color1a91e2 svgShape"></path><path fill="#3701c3" d="M35.3 20.6c-.2-.1-.4-.2-.6-.4l.9-1.2c.1.1.3.2.4.3L35.3 20.6zM37.9 21.3c-.4 0-.8 0-1.2-.1l.3-1.4c.3.1.6.1.9.1l.2 1.5L37.9 21.3zM39.4 21.1L39 19.6c.2 0 .3-.1.5-.2.2-.1.3-.2.4-.2l.8 1.2c-.2.1-.4.2-.6.3C39.9 20.9 39.6 21 39.4 21.1zM41.8 19.6l-1.1-1c.2-.3.4-.5.6-.8l1.3.7C42.4 18.8 42.1 19.2 41.8 19.6zM43.1 17.1l-1.4-.3c0-.2.1-.3.1-.5 0-.1 0-.2 0-.3l0-.2 1.5-.1c0 .1 0 .2 0 .3 0 .1 0 .3 0 .4C43.2 16.6 43.1 16.9 43.1 17.1zM41.5 14.8c-.1-.3-.3-.6-.4-.9l1.2-.8c.2.4.4.8.6 1.3L41.5 14.8zM40.4 13.1c-.1-.1-.3-.2-.4-.3l.8-1.2c.2.1.4.3.6.4L40.4 13.1z" class="color016ec3 svgShape"></path><path fill="#e84da8" d="M35.3,48.8l-3.7-0.1c0.5-13-5.7-16-6-16.1l1.5-3.4C28,29.6,35.8,33.6,35.3,48.8z" class="colore8674d svgShape"></path><path fill="#d52d90" d="M25.9 32.7c-.2-.1-.3-.2-.3-.2l1.5-3.4c.1 0 .3.2.7.4L25.9 32.7zM31.6 46.9c0-.4 0-.8 0-1.2l3.7-.2c0 .4 0 .9 0 1.3L31.6 46.9zM31.5 44.5c0-.4-.1-.8-.1-1.2l3.7-.5c.1.4.1.9.1 1.3L31.5 44.5zM31.2 42.1C31.1 41.7 31 41.4 31 41l3.6-.8c.1.4.2.9.3 1.3L31.2 42.1zM30.7 39.9c-.1-.4-.2-.7-.4-1.1l3.5-1.2c.1.4.3.9.4 1.3L30.7 39.9zM29.9 37.7c-.2-.4-.3-.7-.5-1l3.3-1.7c.2.4.4.8.6 1.3L29.9 37.7zM28.8 35.7c-.2-.3-.4-.6-.6-.9l2.9-2.3c.3.4.6.7.8 1.2L28.8 35.7zM27.5 34c-.3-.3-.5-.5-.8-.7l2.4-2.8c.4.3.7.6 1.1 1L27.5 34z" class="colord5502d svgShape"></path><polygon fill="#d52d90" points="35.3 48.8 31.6 48.7 31.6 48.1 35.3 48.2" class="colord5502d svgShape"></polygon><path fill="#4109cf" d="M38.2,49h-6.6c0-1.8,1.5-3.3,3.3-3.3C36.7,45.7,38.2,47.2,38.2,49z" class="color097ccf svgShape"></path><path fill="#ffffff" d="M32.9,47.5c0.1-0.2,0.2-0.4,0.4-0.6c0.2-0.2,0.4-0.3,0.6-0.4c0.2-0.1,0.4-0.3,0.6-0.3
				c0.2-0.1,0.5-0.1,0.7,0l0,0c-0.2,0.2-0.4,0.3-0.6,0.4c-0.2,0.1-0.4,0.1-0.6,0.2C33.6,47,33.2,47.2,32.9,47.5L32.9,47.5z" class="colorffffff svgShape"></path><circle cx="32.7" cy="47.9" r=".2" fill="#ffffff" class="colorffffff svgShape"></circle><path fill="#e84da8" d="M13.7,48.8l3.7-0.1c-0.5-13,5.7-16,6-16.1l-1.5-3.4C21,29.6,13.1,33.6,13.7,48.8z" class="colore8674d svgShape"></path><path fill="#d52d90" d="M23.1 32.7c.2-.1.3-.2.3-.2l-1.5-3.4c-.1 0-.3.2-.7.4L23.1 32.7zM13.7 46.8c0-.5 0-.9 0-1.3l3.7.2c0 .4 0 .8 0 1.2L13.7 46.8zM13.8 44.2c0-.5.1-.9.1-1.3l3.7.5c0 .4-.1.8-.1 1.2L13.8 44.2zM14.2 41.5c.1-.5.2-.9.3-1.3L18 41c-.1.4-.2.7-.2 1.1L14.2 41.5zM14.8 38.8c.1-.5.3-.9.4-1.3l3.5 1.2c-.1.3-.2.7-.4 1.1L14.8 38.8zM15.7 36.2c.2-.4.4-.9.6-1.3l3.3 1.7c-.2.3-.3.7-.5 1L15.7 36.2zM17 33.8c.3-.4.5-.8.8-1.2l2.9 2.3c-.2.3-.4.6-.6.9L17 33.8zM18.8 31.5c.3-.4.7-.7 1.1-1l2.4 2.8c-.2.2-.5.4-.8.7L18.8 31.5z" class="colord5502d svgShape"></path><polygon fill="#d52d90" points="13.7 48.8 17.4 48.7 17.4 48.1 13.7 48.2" class="colord5502d svgShape"></polygon><path fill="#4109cf" d="M10.1,49h7.4c0-2-1.7-3.7-3.7-3.7C11.7,45.3,10.1,47,10.1,49z" class="color097ccf svgShape"></path><path fill="#ffffff" d="M16,47.4c-0.1-0.2-0.3-0.4-0.5-0.6c-0.2-0.2-0.4-0.3-0.6-0.5c-0.2-0.1-0.4-0.3-0.7-0.4
				c-0.3-0.1-0.5-0.1-0.8,0l0,0c0.2,0.2,0.4,0.3,0.6,0.4c0.2,0.1,0.5,0.2,0.7,0.3C15.2,46.8,15.6,47,16,47.4L16,47.4z" class="colorffffff svgShape"></path><circle cx="16.2" cy="47.8" r=".2" fill="#ffffff" class="colorffffff svgShape"></circle><path fill="#d33291" d="M33.2,15.6H15.8c-0.6,0-1.1-0.5-1.1-1.1V5.2c0-0.6,0.5-1.1,1.1-1.1h17.4c0.6,0,1.1,0.5,1.1,1.1v9.3
				C34.3,15.1,33.8,15.6,33.2,15.6z" class="colordd574b svgShape"></path><circle cx="29.6" cy="8.9" r="2.7" fill="#3701c3" class="color016ec3 svgShape"></circle><circle cx="29.6" cy="8.9" r="1.9" fill="#ffffff" class="colorffffff svgShape"></circle><circle cx="29.6" cy="8.9" r="1.4" fill="#2a2a2a" class="color1a2f3a svgShape"></circle><circle cx="28.6" cy="8.1" r=".6" fill="#ffffff" class="colorffffff svgShape"></circle><circle cx="19.3" cy="8.9" r="2.7" fill="#3701c3" class="color016ec3 svgShape"></circle><circle cx="19.3" cy="8.9" r="1.9" fill="#ffffff" class="colorffffff svgShape"></circle><circle cx="19.3" cy="8.9" r="1.4" fill="#2a2a2a" class="color1a2f3a svgShape"></circle><circle cx="20.4" cy="8.1" r=".6" fill="#ffffff" class="colorffffff svgShape"></circle><path fill="#ffbe00" d="M36 12.3h-1.6V7.4H36c.3 0 .5.2.5.5v3.8C36.5 12.1 36.2 12.3 36 12.3zM13 12.3h1.6V7.4H13c-.3 0-.5.2-.5.5v3.8C12.5 12.1 12.7 12.3 13 12.3z" class="colorff8500 svgShape"></path><path fill="#ffffff" d="M29.8,14.8H19.2c0-0.2,0-0.4,0.1-0.6c0-0.1,0-0.2,0.1-0.3c0.1-0.3,0.3-0.6,0.5-0.8c0.4-0.4,1-0.7,1.7-0.7
				h6c0.7,0,1.4,0.3,1.8,0.9c0.1,0.1,0.1,0.1,0.1,0.2C29.7,13.9,29.8,14.4,29.8,14.8z" class="colorffffff svgShape"></path><path fill="#3701c3" d="M29.4,13.5l-0.7,0.8l-0.9-1l-0.9,1l-0.9-1l-0.9,1l-0.9-1l-0.9,1l-0.9-1l-0.9,1l-0.9-1l-0.9,1l-0.1-0.1
					c0-0.1,0-0.2,0.1-0.3l0,0l0.9-1l0.9,1l0.9-1l0.9,1l0.9-1l0.9,1l0.9-1l0.9,1l0.9-1l0.9,1l0.6-0.6C29.3,13.4,29.4,13.5,29.4,13.5z
					" class="color016ec3 svgShape"></path><rect width="6.1" height="1.2" x="21.5" y="15.6" fill="#a83378" class="colora83833 svgShape"></rect><path fill="#ffbe00" d="M33.2,34.8H15.8c-0.5,0-1-0.4-1-1v-16c0-0.5,0.4-1,1-1h17.4c0.5,0,1,0.4,1,1v16
				C34.2,34.4,33.7,34.8,33.2,34.8z" class="colorff8500 svgShape"></path><path fill="#c5107b" d="M32.3,32.5H16.7c0-4.5,3.5-8.1,7.8-8.1c1.2,0,2.4,0.3,3.4,0.8C30.5,26.5,32.3,29.3,32.3,32.5z" class="colorc55410 svgShape"></path><path fill="#ffffff" d="M32.3,32.5H17.6c0.1-1.2,0.3-2.3,0.8-3.3v0c0.1-0.2,0.1-0.3,0.2-0.4c0.6-1,1.3-1.9,2.3-2.6
					c0.1-0.1,0.3-0.2,0.4-0.3c1-0.6,2.2-1.1,3.4-1.2c0.2,0,0.3,0,0.5,0c0.1,0,0.1,0,0.2,0c0.9,0,1.7,0.2,2.5,0.4
					c0.3,0.1,0.5,0.3,0.8,0.5c0.1,0.1,0.3,0.2,0.4,0.3c0.9,0.7,1.7,1.6,2.3,2.7c0.1,0.1,0.1,0.3,0.2,0.4
					C32,30.1,32.3,31.3,32.3,32.5z" class="colorffffff svgShape"></path><polygon points="27 26.3 24.9 30.4 24.4 30.1" fill="#0a0a0a" class="color000000 svgShape"></polygon><path fill="#674ea7" d="M25.7,30.9c0,0.7-0.6,1.2-1.2,1.2c-0.7,0-1.2-0.5-1.2-1.2c0-0.7,0.6-1.2,1.2-1.2
					C25.2,29.7,25.7,30.2,25.7,30.9z" class="color275f60 svgShape"></path><path fill="#d52d90" d="M24.3,27.2" class="colord5502d svgShape"></path><path fill="#e9078c" d="M19.5 29.8l-.3.3-.8-.9v0c.1-.2.1-.3.2-.4L19.5 29.8zM22.1 28l-.4.2-.7-1.9c.1-.1.3-.2.4-.3L22.1 28zM25.2 24.8v2.4h-.5v-2.3C24.9 24.8 25 24.8 25.2 24.8zM29.1 25.9l-.7 1.8L28 27.6l.7-1.9C28.8 25.8 28.9 25.8 29.1 25.9zM31.6 29.1l-.9 1-.3-.3 1-1.2C31.4 28.8 31.5 28.9 31.6 29.1z" class="colore94f07 svgShape"></path><g fill="#0a0a0a" class="color000000 svgShape"><circle cx="32.3" cy="19" r="1.2" fill="#3701c3" class="color016ec3 svgShape"></circle></g><g fill="#0a0a0a" class="color000000 svgShape"><circle cx="32.3" cy="22.1" r="1.2" fill="#06eb52" class="color06d7eb svgShape"></circle></g><g fill="#0a0a0a" class="color000000 svgShape"><circle cx="32.3" cy="25.1" r="1.2" fill="#ffffff" class="colorffffff svgShape"></circle></g><g fill="#0a0a0a" class="color000000 svgShape"><polygon fill="#c5107b" points="20.9 25.5 19.3 26.5 18.5 21.2" class="colorc55410 svgShape"></polygon></g><g fill="#0a0a0a" class="color000000 svgShape"><path fill="#ffffff" d="M19.7,21.8c0,0.6-0.5,1-1,1c-0.6,0-1-0.5-1-1c0-0.6,0.5-1,1-1C19.3,20.7,19.7,21.2,19.7,21.8z" class="colorffffff svgShape"></path></g><g fill="#0a0a0a" class="color000000 svgShape"><path fill="#e0a803" d="M35.4,21.6h-1.2v-3.5h1.2c0.3,0,0.6,0.3,0.6,0.6V21C36,21.3,35.7,21.6,35.4,21.6z" class="colore07103 svgShape"></path></g><g fill="#0a0a0a" class="color000000 svgShape"><path fill="#e0a803" d="M39.6,13.3c-0.6,0-1.2-0.3-1.7-0.8l0.9-0.8c0.3,0.4,0.9,0.5,1.3,0.1c0.2-0.2,0.3-0.4,0.3-0.6
				c0-0.2,0-0.5-0.2-0.7l0.9-0.8c0.4,0.4,0.5,1,0.5,1.6s-0.3,1.1-0.8,1.5C40.5,13.1,40.1,13.3,39.6,13.3z" class="colore07103 svgShape"></path></g><g fill="#0a0a0a" class="color000000 svgShape"><path fill="#521ae2" d="M10.4,19.2c1.1-0.4,2.2-0.4,3.3-0.1l-0.4,1.4c-1.3-0.4-2.8,0-3.8,0.9c-1,0.9-1.4,2.4-1.1,3.7
					c0.3,1.3,1.4,2.4,2.7,2.8l-0.4,1.4c-1.8-0.5-3.3-2-3.8-3.8c-0.5-1.8,0.1-3.9,1.5-5.2C9,19.8,9.7,19.4,10.4,19.2z" class="color1a91e2 svgShape"></path></g><g fill="#0a0a0a" class="color000000 svgShape"><path fill="#3701c3" d="M13 18.9c.2 0 .5.1.7.2l-.4 1.4c-.2 0-.3-.1-.5-.1L13 18.9zM10.4 19.2c.4-.1.8-.2 1.2-.3l.2 1.5c-.3 0-.6.1-.9.2l-.6-1.3L10.4 19.2zM9 19.9l.9 1.2c-.1.1-.3.2-.4.3-.1.1-.2.2-.3.4L8 20.9c.1-.2.3-.4.5-.5C8.6 20.2 8.8 20 9 19.9zM7.3 22.1l1.4.6c-.1.3-.2.6-.3 1l-1.5-.2C6.9 22.9 7.1 22.5 7.3 22.1zM6.8 24.8l1.5-.2c0 .2 0 .3.1.5 0 .1.1.2.1.3l.1.2-1.4.6c0-.1-.1-.2-.1-.3C7 25.8 7 25.6 7 25.5 6.9 25.3 6.9 25 6.8 24.8zM9 26.5c.2.3.4.5.7.7l-.9 1.2c-.4-.3-.7-.6-1-1L9 26.5zM10.6 27.8c.2.1.3.1.5.2l-.4 1.4c-.2-.1-.5-.1-.7-.2L10.6 27.8z" class="color016ec3 svgShape"></path></g><g fill="#0a0a0a" class="color000000 svgShape"><path fill="#e0a803" d="M13.6,21.6h1.2v-3.5h-1.2c-0.3,0-0.6,0.3-0.6,0.6V21C13,21.3,13.3,21.6,13.6,21.6z" class="colore07103 svgShape"></path></g><g fill="#0a0a0a" class="color000000 svgShape"><path fill="#e0a803" d="M10.9,31.2c-0.5-0.3-0.8-0.8-1-1.3c-0.1-0.6,0-1.1,0.3-1.6c0.6-1,2-1.3,3-0.7l-0.6,1
				c-0.4-0.3-1-0.1-1.3,0.3c-0.1,0.2-0.2,0.5-0.1,0.7c0.1,0.2,0.2,0.4,0.4,0.6L10.9,31.2z" class="colore07103 svgShape"></path></g><g fill="#0a0a0a" class="color000000 svgShape"><rect width="6.2" height="2" x="24.8" y="39.3" fill="#ffd866" transform="rotate(83.593 27.88 40.32)" class="colorf0ca4d svgShape"></rect><path fill="#33235c" d="M29.8,48.9L28.2,49c-0.6,0-1.1-0.5-1.1-1.1l-0.2-4.2c0-0.6,0.4-1,1-1l1-0.1c0.6,0,1,0.4,1.1,0.9l0.8,4.1
				C30.8,48.3,30.4,48.9,29.8,48.9z" class="color23495c svgShape"></path><rect width="2" height="6.2" x="20.1" y="37.2" fill="#ffd866" transform="rotate(6.408 21.112 40.339)" class="colorf0ca4d svgShape"></rect><path fill="#33235c" d="M19.2,48.9l1.5,0.1c0.6,0,1.1-0.5,1.1-1.1l0.2-4.2c0-0.6-0.4-1-1-1l-1-0.1c-0.6,0-1,0.4-1.1,0.9l-0.8,4.1
				C18.2,48.3,18.6,48.9,19.2,48.9z" class="color23495c svgShape"></path><path fill="#2e0793" d="M40.6,32.7l1.5-0.6c-1.3-3.5-3.3-7-6.2-10.9l-1.3,1C37.4,26,39.4,29.4,40.6,32.7z" class="color075b93 svgShape"></path><polygon fill="#3701c1" points="34.8 22.5 36.1 21.5 35.9 21.3 34.6 22.3" class="color016dc1 svgShape"></polygon><path fill="#3701c1" d="M40,31.2l1.5-0.6c0.1,0.2,0.2,0.4,0.3,0.6l-1.5,0.6C40.1,31.6,40.1,31.4,40,31.2z M39.4,30l1.5-0.7
				c0.1,0.2,0.2,0.4,0.3,0.6l-1.5,0.7C39.6,30.4,39.5,30.2,39.4,30z M38.8,28.8l1.4-0.8c0.1,0.2,0.2,0.4,0.3,0.6l-1.5,0.7
				C39,29.2,38.9,29,38.8,28.8z M38.1,27.6l1.4-0.8c0.1,0.2,0.2,0.4,0.3,0.6l-1.4,0.8C38.4,28,38.3,27.8,38.1,27.6z M37.5,26.4
				l1.4-0.9c0.1,0.2,0.2,0.4,0.4,0.6L37.8,27C37.7,26.8,37.6,26.6,37.5,26.4z M36.7,25.3l1.4-0.9c0.1,0.2,0.3,0.4,0.4,0.6l-1.4,0.9
				C37,25.7,36.9,25.5,36.7,25.3z M36,24.2l1.3-0.9c0.1,0.2,0.3,0.4,0.4,0.6l-1.4,0.9C36.2,24.5,36.1,24.4,36,24.2z M35.2,23.1
				l1.3-1c0.1,0.2,0.3,0.4,0.4,0.6l-1.3,0.9C35.5,23.4,35.3,23.2,35.2,23.1z" class="color016dc1 svgShape"></path><polygon fill="#3701c1" points="40.6 32.7 42.1 32.2 42 31.9 40.5 32.4" class="color016dc1 svgShape"></polygon><path fill="#ffd866" d="M32.8 23.2h1.9c.8 0 1.4-.6 1.4-1.4v0c0-.8-.6-1.4-1.4-1.4h-1.9V23.2zM40.3 34.3c.1.1.1.3.2.4-.1-.7.3-1.4 1-1.7.7-.3 1.5 0 1.9.6 0-.1 0-.3-.1-.4-.3-.8-1.3-1.3-2.1-1C40.4 32.5 40 33.4 40.3 34.3zM37.5 27.2c0 .7.6 1.3 1.3 1.3.7 0 1.3-.6 1.3-1.3 0-.7-.6-1.3-1.3-1.3C38.1 25.9 37.5 26.4 37.5 27.2z" class="colorf0ca4d svgShape"></path><path fill="#2e0793" d="M9.4,32.7l-1.5-0.6c1.3-3.5,3.3-7,6.2-10.9l1.3,1C12.6,26,10.6,29.4,9.4,32.7z" class="color075b93 svgShape"></path><polygon fill="#3701c1" points="15.2 22.5 13.9 21.5 14.1 21.3 15.4 22.3" class="color016dc1 svgShape"></polygon><path fill="#3701c1" d="M9.8,31.8l-1.5-0.6c0.1-0.2,0.2-0.4,0.3-0.6l1.5,0.6C9.9,31.4,9.9,31.6,9.8,31.8z M10.3,30.6l-1.5-0.7
				c0.1-0.2,0.2-0.4,0.3-0.6l1.5,0.7C10.5,30.2,10.4,30.4,10.3,30.6z M10.9,29.4l-1.5-0.7c0.1-0.2,0.2-0.4,0.3-0.6l1.4,0.8
				C11.1,29,11,29.2,10.9,29.4z M11.5,28.2l-1.4-0.8c0.1-0.2,0.2-0.4,0.3-0.6l1.4,0.8C11.7,27.8,11.6,28,11.5,28.2z M12.2,27
				l-1.4-0.8c0.1-0.2,0.2-0.4,0.4-0.6l1.4,0.9C12.4,26.6,12.3,26.8,12.2,27z M12.9,25.9L11.5,25c0.1-0.2,0.3-0.4,0.4-0.6l1.4,0.9
				C13.1,25.5,13,25.7,12.9,25.9z M13.6,24.7l-1.4-0.9c0.1-0.2,0.3-0.4,0.4-0.6l1.3,0.9C13.9,24.4,13.8,24.5,13.6,24.7z M14.4,23.6
				l-1.3-0.9c0.1-0.2,0.3-0.4,0.4-0.6l1.3,1C14.7,23.2,14.5,23.4,14.4,23.6z" class="color016dc1 svgShape"></path><polygon fill="#3701c1" points="9.4 32.7 7.9 32.2 8 31.9 9.5 32.4" class="color016dc1 svgShape"></polygon><path fill="#ffd866" d="M17.2 23.2h-1.9c-.8 0-1.4-.6-1.4-1.4v0c0-.8.6-1.4 1.4-1.4h1.9V23.2zM20.4 3.3c.2.3.6.3.8.1C22 2.9 21.8 1.1 23 1.1l0 0c.5 0-.6 2.4.3 2.7.2.1.4 0 .6-.1.8-.5.6-3.2 2-2.7.8.2.3 1.3.2 1.4-.1.4.2.8.6.9.4.1.9 0 1.3-.1 0 0 0 0 0 0 0 0 0 0 0 0-.7.3-1.5.5-2.1-.2-.6-.7.4-1.6-.2-1.8-1.2-.4-.8 3.3-2.6 2.5-.7-.3-.3-1.4-.4-2.7l.1.1c-1 .1-.8 1.7-1.8 2.2C21 3.7 20.5 3.6 20.4 3.3 20.3 3.3 20.3 3.3 20.4 3.3 20.4 3.3 20.4 3.3 20.4 3.3z" class="colorf0ca4d svgShape"></path><rect width=".7" height="3.8" x="19.7" y="3.2" fill="#50c878" class="color93cc07 svgShape"></rect><circle cx="20.1" cy="3.4" r=".8" fill="#3701c1" class="color016dc1 svgShape"></circle><rect width=".7" height="3.8" x="28.6" y="3.2" fill="#50c878" class="color93cc07 svgShape"></rect><circle cx="28.9" cy="3.4" r=".8" fill="#3701c1" class="color016dc1 svgShape"></circle><ellipse cx="34.7" cy="12.3" fill="#3701c1" rx="1.9" ry="2.2" class="color016dc1 svgShape"></ellipse><path fill="#3701c1" d="M32.4,17.7H16.6c-0.5,0-0.8-0.4-0.8-0.8V7.6c0-0.5,0.4-0.8,0.8-0.8h15.8c0.5,0,0.8,0.4,0.8,0.8v9.3
				C33.2,17.3,32.8,17.7,32.4,17.7z" class="color016dc1 svgShape"></path><ellipse cx="29.1" cy="11" fill="#ffffff" rx="2.7" ry="2.8" class="colorffffff svgShape"></ellipse><ellipse cx="29.1" cy="11" fill="#50c878" rx="2" ry="2.1" class="color93cc07 svgShape"></ellipse><circle cx="29.1" cy="11" r="1.1" fill="#343434" class="color343434 svgShape"></circle><ellipse cx="19.9" cy="11" fill="#ffffff" rx="2.7" ry="2.8" class="colorffffff svgShape"></ellipse><ellipse cx="19.9" cy="11" fill="#50c878" rx="2" ry="2.1" class="color93cc07 svgShape"></ellipse><circle cx="19.9" cy="11" r="1.1" fill="#343434" class="color343434 svgShape"></circle><circle cx="28.6" cy="10.1" r=".4" fill="#ffffff" class="colorffffff svgShape"></circle><circle cx="19.1" cy="10.1" r=".4" fill="#ffffff" class="colorffffff svgShape"></circle><rect width="1.5" height="4.8" x="33.2" y="9.8" fill="#50c878" class="color93cc07 svgShape"></rect><ellipse cx="14.3" cy="12.3" fill="#3701c1" rx="1.9" ry="2.2" class="color016dc1 svgShape"></ellipse><rect width="1.5" height="4.8" x="14.3" y="9.8" fill="#50c878" class="color93cc07 svgShape"></rect><path fill="#ffffff" d="M27.5,16.7h-6c-0.5,0-0.9-0.4-0.9-0.9v0c0-0.5,0.4-0.9,0.9-0.9h6c0.5,0,0.9,0.4,0.9,0.9v0
				C28.4,16.3,28,16.7,27.5,16.7z" class="colorffffff svgShape"></path><rect width="9.6" height="1.6" x="19.7" y="17.7" fill="#ffd866" class="colorf0ca4d svgShape"></rect><path fill="#3701c1" d="M31.1,37.6H17.9c-1.1,0-2-0.9-2-2l-0.7-15.2c6.1-2.3,13.1-2.1,18.5,0l-0.7,15.2
				C33.1,36.7,32.2,37.6,31.1,37.6z" class="color016dc1 svgShape"></path><path fill="#4f1cd3" d="M17.9,36.9c-0.8,0-1.4-0.6-1.4-1.4l-0.6-14.8c2.7-0.9,5.7-1.4,8.7-1.4c3,0,5.9,0.5,8.5,1.4l-0.6,14.8
				c0,0.8-0.6,1.4-1.4,1.4H17.9z" class="color1c89d3 svgShape"></path><circle cx="24.5" cy="30.5" r="4.9" fill="#ffffff" class="colorffffff svgShape"></circle><path fill="#ffd866" d="M29.6,22.9c0,0.8-2.3,0.1-5.1,0.1s-5.1,0.7-5.1-0.1s2.3-1.5,5.1-1.5S29.6,22.1,29.6,22.9z" class="colorf0ca4d svgShape"></path><path fill="#3701c1" d="M24.5 28c-.2 0-.3-.1-.3-.3v-1.3c0-.2.1-.3.3-.3.2 0 .3.1.3.3v1.3C24.8 27.8 24.7 28 24.5 28zM24.5 34.9c-.2 0-.3-.1-.3-.3v-1.3c0-.2.1-.3.3-.3.2 0 .3.1.3.3v1.3C24.8 34.7 24.7 34.9 24.5 34.9zM26.5 28.8c-.1 0-.2 0-.2-.1-.1-.1-.1-.3 0-.5l.9-.9c.1-.1.3-.1.5 0s.1.3 0 .5l-.9.9C26.6 28.8 26.6 28.8 26.5 28.8zM21.6 33.7c-.1 0-.2 0-.2-.1-.1-.1-.1-.3 0-.5l.9-.9c.1-.1.3-.1.5 0 .1.1.1.3 0 .5l-.9.9C21.8 33.7 21.7 33.7 21.6 33.7zM28.6 30.8h-1.3c-.2 0-.3-.1-.3-.3s.1-.3.3-.3h1.3c.2 0 .3.1.3.3S28.8 30.8 28.6 30.8zM21.7 30.8h-1.3c-.2 0-.3-.1-.3-.3 0-.2.1-.3.3-.3h1.3c.2 0 .3.1.3.3C22 30.6 21.9 30.8 21.7 30.8zM27.4 33.7c-.1 0-.2 0-.2-.1l-.9-.9c-.1-.1-.1-.3 0-.5.1-.1.3-.1.5 0l.9.9c.1.1.1.3 0 .5C27.6 33.7 27.5 33.7 27.4 33.7zM22.5 28.8c-.1 0-.2 0-.2-.1l-.9-.9c-.1-.1-.1-.3 0-.5.1-.1.3-.1.5 0l.9.9c.1.1.1.3 0 .5C22.7 28.8 22.6 28.8 22.5 28.8z" class="color016dc1 svgShape"></path><circle cx="24.5" cy="30.5" r="1.1" fill="#ffd866" class="colorf0ca4d svgShape"></circle><path fill="#ffd866" d="M9.7 34.3c-.1.1-.1.3-.2.4.1-.7-.3-1.4-1-1.7-.7-.3-1.5 0-1.9.6 0-.1 0-.3.1-.4.3-.8 1.3-1.3 2.1-1C9.6 32.5 10 33.4 9.7 34.3zM12.5 27.2c0 .7-.6 1.3-1.3 1.3-.7 0-1.3-.6-1.3-1.3 0-.7.6-1.3 1.3-1.3C11.9 25.9 12.5 26.4 12.5 27.2z" class="colorf0ca4d svgShape"></path><ellipse cx="27.8" cy="40" fill="#33235c" rx="1.3" ry=".7" class="color23495c svgShape"></ellipse><ellipse cx="21.2" cy="40" fill="#33235c" rx="1.3" ry=".7" class="color23495c svgShape"></ellipse></g></svg>