<svg xmlns="http://www.w3.org/2000/svg" enable-background="new 0 0 50 50" viewBox="0 0 50 50" id="Robot"><rect width="3.8" height="15.7" x="23.1" y="25.4" fill="#674ea7" class="color0671c1 svgShape"></rect><path fill="#50c878" d="M30.3,48.2H19.7c-2.6,0-4.7-2.1-4.7-4.7v0c0-2.6,2.1-4.7,4.7-4.7h10.7c2.6,0,4.7,2.1,4.7,4.7v0
					C35.1,46.1,32.9,48.2,30.3,48.2z" class="color06d7eb svgShape"></path><path fill="#674ea7" d="M30.3,49H19.7c-3,0-5.5-2.5-5.5-5.5s2.5-5.5,5.5-5.5h10.7c3,0,5.5,2.5,5.5,5.5S33.4,49,30.3,49z
					 M19.7,39.5c-2.2,0-3.9,1.8-3.9,3.9c0,2.2,1.8,3.9,3.9,3.9h10.7c2.2,0,3.9-1.8,3.9-3.9c0-2.2-1.8-3.9-3.9-3.9H19.7z" class="color0671c1 svgShape"></path><path fill="#d6a105" d="M25 33.9L25 33.9c-2.9 0-5.2-2.3-5.2-5.2v-1.4h10.5v1.4C30.2 31.6 27.9 33.9 25 33.9zM37.6 12.6h-5.3V7.8h5.3c1.3 0 2.4 1.1 2.4 2.4v0C40 11.5 39 12.6 37.6 12.6zM12.4 12.6h5.3V7.8h-5.3c-1.3 0-2.4 1.1-2.4 2.4v0C10 11.5 11.1 12.6 12.4 12.6zM29.8 4.1h-9.5V1.9c0-.5.4-.9.9-.9h7.7c.5 0 .9.4.9.9V4.1z" class="colord66d05 svgShape"></path><rect width="1.2" height="3.7" x="41.7" y="27.2" fill="#674ea7" class="color0671c1 svgShape"></rect><rect width="1.2" height="3.7" x="41.7" y="35.1" fill="#674ea7" class="color0671c1 svgShape"></rect><rect width="5.4" height="1.2" x="36.8" y="18.3" fill="#674ea7" class="color0671c1 svgShape"></rect><path fill="#d33291" d="M43.5 28.1h-2.4c-.7 0-1.4-.6-1.4-1.4v-8.3c0-.8.7-1.5 1.5-1.5h2.1c.8 0 1.5.7 1.5 1.5v8.3C44.9 27.5 44.3 28.1 43.5 28.1zM44.9 31.7V34c0 1.3-1.1 2.4-2.4 2.4h-.3c-1.3 0-2.4-1.1-2.4-2.4v-2.3c0-.7.6-1.3 1.3-1.3h2.4C44.3 30.4 44.9 31 44.9 31.7z" class="colord5502d svgShape"></path><path fill="#674ea7" d="M45.4,41.1h-1.2c0-1.1-0.9-1.9-1.9-1.9c-1.1,0-1.9,0.9-1.9,1.9h-1.2c0-1.7,1.4-3.1,3.1-3.1
					C44,38,45.4,39.3,45.4,41.1z" class="color0671c1 svgShape"></path><circle cx="42.2" cy="19.3" r="1.3" fill="#ffffff" class="colorffffff svgShape"></circle><path fill="#d6a105" d="M38.7,18.9c0,1.6-1.3,3-3,3v-6C37.3,15.9,38.7,17.3,38.7,18.9z" class="colord66d05 svgShape"></path><rect width="1.2" height="3.7" x="7.1" y="27.2" fill="#674ea7" class="color0671c1 svgShape"></rect><rect width="1.2" height="3.7" x="7.1" y="35.1" fill="#674ea7" class="color0671c1 svgShape"></rect><rect width="5.4" height="1.2" x="7.8" y="18.3" fill="#674ea7" class="color0671c1 svgShape"></rect><path fill="#d33291" d="M6.5 28.1h2.4c.7 0 1.4-.6 1.4-1.4v-8.3c0-.8-.7-1.5-1.5-1.5H6.6c-.8 0-1.5.7-1.5 1.5v8.3C5.1 27.5 5.7 28.1 6.5 28.1zM5.1 31.7V34c0 1.3 1.1 2.4 2.4 2.4h.3c1.3 0 2.4-1.1 2.4-2.4v-2.3c0-.7-.6-1.3-1.3-1.3H6.5C5.7 30.4 5.1 31 5.1 31.7z" class="colord5502d svgShape"></path><path fill="#674ea7" d="M4.6,41.1h1.2c0-1.1,0.9-1.9,1.9-1.9s1.9,0.9,1.9,1.9h1.2c0-1.7-1.4-3.1-3.1-3.1C6,38,4.6,39.3,4.6,41.1
					z" class="color0671c1 svgShape"></path><circle cx="7.8" cy="19.3" r="1.3" fill="#ffffff" class="colorffffff svgShape"></circle><path fill="#d6a105" d="M11.3,18.9c0,1.6,1.3,3,3,3v-6C12.7,15.9,11.3,17.3,11.3,18.9z" class="colord66d05 svgShape"></path><path fill="#ffd866" d="M25,30.9L25,30.9c-6.1,0-11-4.9-11-11v-6.2c0-6.1,4.9-11,11-11h0c6.1,0,11,4.9,11,11v6.2
					C36,26,31.1,30.9,25,30.9z" class="colorff8500 svgShape"></path><ellipse cx="25" cy="9.9" fill="#ffffff" rx="3.6" ry="3.8" class="colorffffff svgShape"></ellipse><ellipse cx="25" cy="9.9" fill="#3701c3" rx="2.7" ry="2.8" class="color016ec3 svgShape"></ellipse><circle cx="25" cy="9.9" r="1.5" fill="#0a0a0a" class="color343434 svgShape"></circle><circle cx="25.9" cy="8.7" r=".7" fill="#ffffff" class="colorffffff svgShape"></circle><path fill="#0a0a0a" d="M31.2,17.6H18.8c-0.4,0-0.8-0.4-0.8-0.8c0-0.4,0.4-0.8,0.8-0.8h12.3c0.4,0,0.8,0.4,0.8,0.8
					C32,17.3,31.6,17.6,31.2,17.6z" class="color343434 svgShape"></path><path fill="#d6a105" d="M21.3,26.3c-1.9,0-3.5-1.6-3.5-3.5s1.6-3.5,3.5-3.5h7.1c1.9,0,3.5,1.6,3.5,3.5s-1.6,3.5-3.5,3.5H21.3z" class="colord66d05 svgShape"></path><path fill="#ffffff" d="M28.4,25.8h-7.1c-1.6,0-3-1.3-3-3v0c0-1.6,1.3-3,3-3h7.1c1.6,0,3,1.3,3,3v0
					C31.4,24.5,30.1,25.8,28.4,25.8z" class="colorffffff svgShape"></path><path fill="#ffd866" d="M20.8 24.8c-.2 0-.4-.2-.4-.4v-3c0-.2.2-.4.4-.4.2 0 .4.2.4.4v3C21.2 24.6 21 24.8 20.8 24.8zM23.5 24.8c-.2 0-.4-.2-.4-.4v-3c0-.2.2-.4.4-.4.2 0 .4.2.4.4v3C23.9 24.6 23.7 24.8 23.5 24.8zM26.3 24.8c-.2 0-.4-.2-.4-.4v-3c0-.2.2-.4.4-.4.2 0 .4.2.4.4v3C26.6 24.6 26.5 24.8 26.3 24.8zM29 24.8c-.2 0-.4-.2-.4-.4v-3c0-.2.2-.4.4-.4.2 0 .4.2.4.4v3C29.4 24.6 29.2 24.8 29 24.8z" class="colorff8500 svgShape"></path><path fill="#674ea7" d="M21.1 43.5c0 1-.9 1.9-1.9 1.9-1 0-1.9-.8-1.9-1.9 0-1.1.9-1.9 1.9-1.9C20.2 41.6 21.1 42.4 21.1 43.5zM26.9 43.5c0 1-.9 1.9-1.9 1.9s-1.9-.8-1.9-1.9c0-1.1.9-1.9 1.9-1.9S26.9 42.4 26.9 43.5zM32.8 43.5c0 1-.9 1.9-1.9 1.9s-1.9-.8-1.9-1.9c0-1.1.9-1.9 1.9-1.9S32.8 42.4 32.8 43.5z" class="color0671c1 svgShape"></path></svg>