<svg xmlns="http://www.w3.org/2000/svg" enable-background="new 0 0 50 50" viewBox="0 0 50 50" id="Robot"><path fill="#ebb518" d="M13.9,32.1h-3c-0.3,0-0.5,0.2-0.5,0.5c0,0,0,0,0,0c0,0.9-0.8,1.7-1.8,1.6c-0.7-0.1-1.4-0.7-1.5-1.4
					c-0.1-0.5,0.1-1,0.5-1.4c-0.4-0.3-0.5-0.8-0.5-1.4c0.1-0.7,0.7-1.3,1.5-1.4c1-0.1,1.8,0.7,1.8,1.6c0,0.1,0,0.1,0,0.2
					c0,0.3,0.2,0.6,0.5,0.6h3V32.1z" class="colorebbf18 svgShape"></path><circle cx="8.8" cy="30.3" r=".7" fill="#ffffff" class="colorffffff svgShape"></circle><circle cx="8.8" cy="32.8" r=".7" fill="#ffffff" class="colorffffff svgShape"></circle><ellipse cx="24.6" cy="3.2" fill="#ebb518" rx="8.9" ry="2.2" class="colorebbf18 svgShape"></ellipse><rect width="3.7" height="8.9" x="18.2" y="36.5" fill="#d33291" class="colordd574b svgShape"></rect><rect width="3.7" height="5.2" x="18.2" y="40.3" fill="#ebb518" class="colorebbf18 svgShape"></rect><path fill="#50c878" d="M13.7,47.7V49h8.2v-3.6h-0.3v0c0-0.8-0.7-1.5-1.5-1.5c-0.8,0-1.5,0.7-1.5,1.5v0H16
					C14.7,45.4,13.7,46.5,13.7,47.7z" class="color0096d1 svgShape"></path><circle cx="20.2" cy="45.1" r=".8" fill="#ffffff" class="colorffffff svgShape"></circle><rect width="3.7" height="8.9" x="27.4" y="36.5" fill="#d33291" class="colordd574b svgShape"></rect><rect width="3.7" height="5.2" x="27.4" y="40.3" fill="#ebb518" class="colorebbf18 svgShape"></rect><path fill="#50c878" d="M35.6,47.7V49h-8.2v-3.6h0.3v0c0-0.8,0.7-1.5,1.5-1.5c0.8,0,1.5,0.7,1.5,1.5v0h2.7
					C34.6,45.4,35.6,46.5,35.6,47.7z" class="color0096d1 svgShape"></path><circle cx="29.1" cy="45.1" r=".8" fill="#ffffff" class="colorffffff svgShape"></circle><rect width="1.5" height="5.3" x="40.6" y="34.3" fill="#343434" class="color343434 svgShape"></rect><rect width="3.9" height="1.5" x="37.5" y="23.1" fill="#343434" class="color343434 svgShape"></rect><path fill="#674ea7" d="M38.7,23.9c0,1.8-1.4,3.2-3.2,3.2v-6.5C37.2,20.6,38.7,22.1,38.7,23.9z" class="color097ccf svgShape"></path><path fill="#ffd866" d="M43.5,36.2h-4.2V24c0-1.2,1-2.1,2.1-2.1h0c1.2,0,2.1,1,2.1,2.1V36.2z" class="colorfdcc5a svgShape"></path><path fill="#c5107b" d="M45.3,42.9h-1.5c0-1.3-1.1-2.4-2.4-2.4s-2.4,1.1-2.4,2.4h-1.5c0-2.2,1.8-3.9,3.9-3.9
				C43.5,39,45.3,40.8,45.3,42.9z" class="colorc55410 svgShape"></path><ellipse cx="41.4" cy="29.1" fill="#c5107b" rx="2.8" ry="2.5" class="colorc55410 svgShape"></ellipse><rect width="1.4" height="4.9" x="7.6" y="9.5" fill="#343434" class="color343434 svgShape"></rect><rect width="3.5" height="1.4" x="8.3" y="23.2" fill="#343434" class="color343434 svgShape"></rect><path fill="#674ea7" d="M10.7,23.8c0-1.6,1.3-2.9,2.9-2.9v5.9C12,26.8,10.7,25.5,10.7,23.8z" class="color097ccf svgShape"></path><path fill="#ffd866" d="M6.3,12.6h3.9v11.1c0,1.1-0.9,1.9-1.9,1.9h0c-1.1,0-1.9-0.9-1.9-1.9L6.3,12.6z" class="colorfdcc5a svgShape"></path><path fill="#c5107b" d="M4.7,6.5h1.4c0,1.2,1,2.2,2.2,2.2s2.2-1,2.2-2.2h1.4c0,2-1.6,3.6-3.6,3.6C6.3,10.1,4.7,8.5,4.7,6.5z" class="colorc55410 svgShape"></path><ellipse cx="8.3" cy="19.1" fill="#c5107b" rx="2.6" ry="2.2" class="colorc55410 svgShape"></ellipse><path fill="#01ff56" d="M34.1,18H15.2c-0.6,0-1.1-0.5-1.1-1.1V4.3c0-0.6,0.5-1.1,1.1-1.1h18.8c0.6,0,1.1,0.5,1.1,1.1v12.6
				C35.2,17.5,34.7,18,34.1,18z" class="color01abff svgShape"></path><polygon fill="#d33291" points="36.2 13.3 35.2 14.4 35.2 6.9 36.2 7.9" class="colordd574b svgShape"></polygon><g fill="#0a0a0a" class="color000000 svgShape"><polygon fill="#d33291" points="12.7 13.3 14.1 14.4 14.1 6.9 12.7 7.9" class="colordd574b svgShape"></polygon></g><g fill="#0a0a0a" class="color000000 svgShape"><polygon fill="#ffffff" points="33.4 6.3 33.1 12 28.1 12 24.7 6.4 21.2 12 16.2 12 15.9 6.3" class="colorffffff svgShape"></polygon></g><g fill="#0a0a0a" class="color000000 svgShape"><circle cx="30.7" cy="9.1" r="1.6" fill="#d33291" class="colordd574b svgShape"></circle><circle cx="18.6" cy="9.1" r="1.6" fill="#d33291" class="colordd574b svgShape"></circle></g><g fill="#0a0a0a" class="color000000 svgShape"><rect width="13.3" height="1.9" x="18" y="14.5" fill="#ebb518" class="colorebbf18 svgShape"></rect></g><g fill="#0a0a0a" class="color000000 svgShape"><rect width="16.2" height="2.1" x="16.5" y="18" fill="#d33291" class="colordd574b svgShape"></rect></g><g fill="#0a0a0a" class="color000000 svgShape"><path fill="#01ff56" d="M35,36.5H14.3c-0.3,0-0.6-0.3-0.6-0.6V20.8c0-0.3,0.3-0.6,0.6-0.6H35c0.3,0,0.6,0.3,0.6,0.6v15.1
				C35.6,36.2,35.3,36.5,35,36.5z" class="color01abff svgShape"></path></g><g fill="#0a0a0a" class="color000000 svgShape"><rect width="8.5" height="5.3" x="15.4" y="22.2" fill="#ffffff" class="colorffffff svgShape"></rect><rect width=".9" height=".2" x="16" y="23.6" fill="#d33291" transform="rotate(70.835 16.459 23.672)" class="colordd574b svgShape"></rect><rect width=".9" height=".2" x="17" y="23.3" fill="#d33291" transform="rotate(77.267 17.49 23.378)" class="colordd574b svgShape"></rect><rect width=".9" height=".2" x="18.1" y="23.1" fill="#d33291" transform="rotate(83.673 18.54 23.202)" class="colordd574b svgShape"></rect><rect width=".2" height=".9" x="19.5" y="22.7" fill="#d33291" class="colordd574b svgShape"></rect><rect width=".2" height=".9" x="20.6" y="22.7" fill="#d33291" transform="rotate(6.435 20.666 23.21)" class="colordd574b svgShape"></rect><rect width=".2" height=".9" x="21.6" y="22.9" fill="#d33291" transform="rotate(12.683 21.711 23.38)" class="colordd574b svgShape"></rect><rect width=".2" height=".9" x="22.6" y="23.2" fill="#d33291" transform="rotate(19.098 22.738 23.673)" class="colordd574b svgShape"></rect><g fill="#0a0a0a" class="color000000 svgShape"><polygon fill="#ebb518" points="19.9 26 19.5 25.9 20.4 24.3" class="colorebbf18 svgShape"></polygon></g><g fill="#0a0a0a" class="color000000 svgShape"><path fill="#d33291" d="M20.2,26.3c0,0.3-0.3,0.6-0.6,0.6c-0.3,0-0.6-0.3-0.6-0.6c0-0.3,0.3-0.6,0.6-0.6
					C19.9,25.8,20.2,26,20.2,26.3z" class="colordd574b svgShape"></path></g><g fill="#0a0a0a" class="color000000 svgShape"><rect width="8.5" height="5.3" x="25.4" y="22.2" fill="#ffffff" class="colorffffff svgShape"></rect></g><g fill="#0a0a0a" class="color000000 svgShape"><rect width=".9" height=".2" x="26.1" y="23.6" fill="#d33291" transform="rotate(70.864 26.547 23.674)" class="colordd574b svgShape"></rect><rect width=".9" height=".2" x="27.1" y="23.3" fill="#d33291" transform="rotate(77.267 27.575 23.378)" class="colordd574b svgShape"></rect><rect width=".9" height=".2" x="28.2" y="23.1" fill="#d33291" transform="rotate(83.644 28.627 23.204)" class="colordd574b svgShape"></rect><rect width=".2" height=".9" x="29.6" y="22.7" fill="#d33291" class="colordd574b svgShape"></rect><rect width=".2" height=".9" x="30.6" y="22.7" fill="#d33291" transform="rotate(6.154 30.751 23.208)" class="colordd574b svgShape"></rect><rect width=".2" height=".9" x="31.7" y="22.9" fill="#d33291" transform="rotate(12.683 31.798 23.38)" class="colordd574b svgShape"></rect><rect width=".2" height=".9" x="32.7" y="23.2" fill="#d33291" transform="rotate(19.144 32.82 23.671)" class="colordd574b svgShape"></rect></g><g fill="#0a0a0a" class="color000000 svgShape"><polygon fill="#ebb518" points="30 26 29.6 25.9 30.5 24.3" class="colorebbf18 svgShape"></polygon></g><g fill="#0a0a0a" class="color000000 svgShape"><path fill="#d33291" d="M30.3,26.3c0,0.3-0.3,0.6-0.6,0.6c-0.3,0-0.6-0.3-0.6-0.6c0-0.3,0.3-0.6,0.6-0.6
					C30,25.8,30.3,26,30.3,26.3z" class="colordd574b svgShape"></path></g></g><g fill="#0a0a0a" class="color000000 svgShape"><rect width="18.1" height="4.5" x="15.6" y="29" fill="#ffffff" class="colorffffff svgShape"></rect></g><g fill="#0a0a0a" class="color000000 svgShape"><rect width="2.4" height="2.4" x="16.4" y="30.1" fill="#ebb518" class="colorebbf18 svgShape"></rect><rect width="2.4" height="2.4" x="21.1" y="30.1" fill="#ebb518" class="colorebbf18 svgShape"></rect><rect width="2.4" height="2.4" x="25.8" y="30.1" fill="#ebb518" class="colorebbf18 svgShape"></rect><rect width="2.4" height="2.4" x="30.4" y="30.1" fill="#ebb518" class="colorebbf18 svgShape"></rect></g></svg>