<svg xmlns="http://www.w3.org/2000/svg" enable-background="new 0 0 50 50" viewBox="0 0 50 50" id="Robot"><path fill="#04b53f" d="M34.7 13.8h-3V9.3h3c.3 0 .6.3.6.6v3.3C35.3 13.6 35 13.8 34.7 13.8zM15.5 13.8h3V9.3h-3c-.3 0-.6.3-.6.6v3.3C14.8 13.6 15.1 13.8 15.5 13.8z" class="color8ab504 svgShape"></path><line x1="23.4" x2="23.2" y1="1.9" y2="1.7" fill="#C55410"></line><line x1="26.8" x2="26.6" y1="1.7" y2="1.9" fill="#C55410"></line><path fill="#c5107b" d="M26.4,2.2l-0.2,0.2c-0.6-0.6-1.7-0.6-2.3,0l-0.2-0.2C24.4,1.4,25.6,1.4,26.4,2.2z" class="colorc55410 svgShape"></path><rect width="1" height="3" x="24.5" y="2.7" fill="#04b53f" class="color8ab504 svgShape"></rect><circle cx="25" cy="3.1" r=".8" fill="#3701c1" class="color016dc1 svgShape"></circle><path fill="#07cc49" d="M31 17.7H19c-.7 0-1.4-.5-1.5-1.3l-1.4-9.1c-.1-.9.6-1.7 1.5-1.7h14.9c.9 0 1.6.8 1.5 1.7l-1.4 9.1C32.4 17.1 31.8 17.7 31 17.7zM18.1 19l13.7 0c.8 0 1.5.7 1.7 1.6l1.6 11.7c.2 1.2-.6 2.2-1.7 2.2l-16.9 0c-1 0-1.8-1-1.7-2.2l1.6-11.7C16.6 19.7 17.3 19 18.1 19z" class="color93cc07 svgShape"></path><rect width="4.3" height="1.4" x="23.2" y="17.7" fill="#3701c1" class="color016dc1 svgShape"></rect><ellipse cx="29.2" cy="11.2" fill="#ffd866" rx="2.5" ry="2.6" class="colorffffff svgShape"></ellipse><circle cx="29.2" cy="11.2" r="1.9" fill="#3701c1" class="color016dc1 svgShape"></circle><circle cx="29.2" cy="11.2" r="1" fill="#0a0a0a" class="color343434 svgShape"></circle><circle cx="29.8" cy="10.4" r=".5" fill="#ffd866" class="colorffffff svgShape"></circle><ellipse cx="20.8" cy="11.2" fill="#ffd866" rx="2.5" ry="2.6" class="colorffffff svgShape"></ellipse><circle cx="20.8" cy="11.2" r="1.9" fill="#3701c1" class="color016dc1 svgShape"></circle><circle cx="20.8" cy="11.2" r="1" fill="#0a0a0a" class="color343434 svgShape"></circle><circle cx="21.4" cy="10.4" r=".5" fill="#ffd866" class="colorffffff svgShape"></circle><rect width=".8" height="3.8" x="29" y="5.3" fill="#ffd866" transform="rotate(73.196 29.356 7.206)" class="colorffffff svgShape"></rect><rect width="3.8" height=".8" x="18.7" y="6.8" fill="#ffd866" transform="rotate(16.86 20.64 7.204)" class="colorffffff svgShape"></rect><rect width="14" height="7.5" x="18" y="23" fill="#50c878" class="color7ea505 svgShape"></rect><rect width="13" height="6.6" x="18.5" y="23.5" fill="#ffd866" class="colorffffff svgShape"></rect><polygon fill="#d33291" points="23.8 28.9 22.6 25.7 21 28.6 20.5 26.3 19.6 27 18.5 27 18.5 26.7 19.5 26.7 20.7 25.8 21.2 27.8 22.6 24.9 23.8 28.2 25.4 24.6 26.2 27.7 27.1 24.9 27.6 27.3 28.4 26.2 29 27.6 30.1 25 30.4 26.7 31.5 26.7 31.5 27 30.2 27 30 26 29.1 28.3 28.3 26.7 27.4 28 27 26.1 26.1 28.7 25.3 25.5" class="colore25649 svgShape"></polygon><polygon fill="#07cc49" points="31.4 40.1 28.6 40.1 28.9 35.9 31.1 35.9" class="color93cc07 svgShape"></polygon><polygon fill="#07cc49" points="28.6 40.3 31.4 40.3 31.1 44.5 28.9 44.5" class="color93cc07 svgShape"></polygon><path fill="#50c878" d="M32.4,34.5c0,1.3-1.1,2.4-2.4,2.4c-1.3,0-2.4-1.1-2.4-2.4H32.4z" class="color7ea505 svgShape"></path><circle cx="30" cy="40.2" r="1.4" fill="#50c878" class="color7ea505 svgShape"></circle><path fill="#50c878" d="M32,46.3h-4.1v-1.1c0-0.4,0.3-0.7,0.7-0.7h2.6c0.4,0,0.7,0.3,0.7,0.7V46.3z" class="color7ea505 svgShape"></path><path fill="#d33291" d="M33,49H27v-1.6c0-0.6,0.5-1.1,1.1-1.1h3.9c0.6,0,1.1,0.5,1.1,1.1V49z" class="colore25649 svgShape"></path><polygon fill="#07cc49" points="21.4 40.1 18.6 40.1 18.9 35.9 21.1 35.9" class="color93cc07 svgShape"></polygon><polygon fill="#07cc49" points="18.6 40.3 21.4 40.3 21.1 44.5 18.9 44.5" class="color93cc07 svgShape"></polygon><path fill="#50c878" d="M22.4,34.5c0,1.3-1.1,2.4-2.4,2.4c-1.3,0-2.4-1.1-2.4-2.4H22.4z" class="color7ea505 svgShape"></path><circle cx="20" cy="40.2" r="1.4" fill="#50c878" class="color7ea505 svgShape"></circle><path fill="#50c878" d="M22.1,46.3H18v-1.1c0-0.4,0.3-0.7,0.7-0.7h2.6c0.4,0,0.7,0.3,0.7,0.7V46.3z" class="color7ea505 svgShape"></path><path fill="#d33291" d="M23,49H17v-1.6c0-0.6,0.5-1.1,1.1-1.1H22c0.6,0,1.1,0.5,1.1,1.1V49z" class="colore25649 svgShape"></path><polygon fill="#04b53f" points="38.5 30.7 37.5 30.7 37.5 23.1 33.7 21 34.2 20.1 38.5 22.5" class="color8ab504 svgShape"></polygon><circle cx="37.9" cy="22.9" r=".9" fill="#3701c1" class="color016dc1 svgShape"></circle><path fill="#4109cf" d="M38.9,31.6L38.9,31.6C38.9,31.6,38.9,31.6,38.9,31.6l-0.4,0c-0.3-0.3-0.7-0.3-1.1,0l-0.3,0c0,0,0,0,0,0
					c-0.1-1.2,0-2.3,0.2-3.4l1.3,0C39,29.3,39,30.4,38.9,31.6z" class="color097ccf svgShape"></path><path fill="#674ea7" d="M39,32.7c0-0.3-0.1-0.5-0.2-0.7c-0.1-0.1-0.2-0.2-0.3-0.3c-0.3-0.3-0.7-0.3-1.1,0c0,0-0.1,0.1-0.1,0.1
					c-0.2,0.2-0.3,0.4-0.3,0.7c0-0.3,0-0.6,0.1-0.8c0.1-0.1,0.1-0.3,0.2-0.4c0.4-0.5,1.1-0.4,1.4,0.2c0,0.1,0.1,0.1,0.1,0.2l0,0
					C39.1,31.9,39.1,32.3,39,32.7z" class="color29485c svgShape"></path><circle cx="33.4" cy="20.5" r="1.2" fill="#3701c1" class="color016dc1 svgShape"></circle><polygon fill="#04b53f" points="11.5 30.7 11.5 22.5 15.8 20.1 16.3 21 12.5 23.1 12.5 30.7" class="color8ab504 svgShape"></polygon><circle cx="12.1" cy="22.9" r=".9" fill="#3701c1" class="color016dc1 svgShape"></circle><path fill="#4109cf" d="M11.1,31.6L11.1,31.6C11.1,31.6,11.1,31.6,11.1,31.6l0.4,0c0.3-0.3,0.7-0.3,1.1,0l0.3,0c0,0,0,0,0,0
					c0.1-1.2,0-2.3-0.2-3.4l-1.3,0C11,29.3,11,30.4,11.1,31.6z" class="color097ccf svgShape"></path><path fill="#674ea7" d="M11,32.7c0-0.3,0.1-0.5,0.2-0.7c0.1-0.1,0.2-0.2,0.3-0.3c0.3-0.3,0.7-0.3,1.1,0c0,0,0.1,0.1,0.1,0.1
					c0.2,0.2,0.3,0.4,0.3,0.7c0-0.3,0-0.6-0.1-0.8c-0.1-0.1-0.1-0.3-0.2-0.4c-0.4-0.5-1.1-0.4-1.4,0.2c0,0.1-0.1,0.1-0.1,0.2l0,0
					C10.9,31.9,10.9,32.3,11,32.7z" class="color29485c svgShape"></path><circle cx="16.6" cy="20.5" r="1.2" fill="#3701c1" class="color016dc1 svgShape"></circle><rect width="9" height="1.5" x="20.5" y="15.3" fill="#ffd866" class="colorffffff svgShape"></rect><polygon fill="#ffd866" points="24.2 13.6 24.5 9 25.5 9 25.8 13.6" class="colorffffff svgShape"></polygon><path fill="#c5107b" d="M23.2,1.7C23.7,1.3,24.3,1,25,1c0.7,0,1.3,0.3,1.8,0.7" class="colorc55410 svgShape"></path><path fill="#c5107b" d="M26.6,1.9c-0.4-0.4-1-0.7-1.6-0.7c-0.6,0-1.2,0.2-1.6,0.7" class="colorc55410 svgShape"></path></svg>