<svg xmlns="http://www.w3.org/2000/svg" enable-background="new 0 0 50 50" viewBox="0 0 50 50" id="Robot"><path d="M27.9,6.7h-3V3h3V6.7z M25.3,6.2h2.1V3.5h-2.1V6.2z" fill="#0a0a0a" class="color000000 svgShape"></path><path d="M26.2 3.5c-.1 0-1.3 0-1.8-.5-.5-.5-.5-1.2 0-1.7.5-.5 1.2-.5 1.7 0l-.3.3c-.3-.3-.8-.3-1 0-.3.3-.3.8 0 1C25 2.9 25.7 3 26.2 3L26.2 3.5zM26.5 3.5l0-.5C27 3 27.7 2.9 28 2.7c.3-.3.3-.8 0-1s-.8-.3-1 0l-.3-.3c.5-.5 1.2-.5 1.7 0 .5.5.5 1.2 0 1.7C27.9 3.5 26.7 3.5 26.5 3.5zM29.2 8.2h-5.6c0-1.5 1.2-2.5 2.8-2.5C27.9 5.7 29.2 6.6 29.2 8.2z" fill="#0a0a0a" class="color000000 svgShape"></path><rect width="1.9" height="7.2" x="7" y="34" fill="#50c878" transform="rotate(4.649 7.91 37.613) scale(.99999)" class="color41b5a0 svgShape"></rect><rect width="1.9" height="10.7" x="12.3" y="24.6" fill="#50c878" transform="rotate(60.159 13.286 29.893)" class="color41b5a0 svgShape"></rect><circle cx="8.5" cy="33.3" r="1.7" fill="#674ea7" class="color2d5e65 svgShape"></circle><path fill="#674ea7" d="M10.9,43.6l-1.9-0.1c0-0.7-0.5-1.3-1.2-1.4c-0.3,0-0.7,0.1-0.9,0.3c-0.3,0.2-0.4,0.6-0.4,0.9l-1.9-0.1
			c0-0.9,0.4-1.6,1-2.2c0.6-0.6,1.4-0.9,2.3-0.8C9.7,40.3,11,41.8,10.9,43.6z" class="color2d5e65 svgShape"></path><rect width="7.2" height="1.9" x="39.5" y="17.8" fill="#50c878" transform="rotate(84.523 43.1 18.741) scale(.99997)" class="color41b5a0 svgShape"></rect><rect width="1.9" height="10.7" x="38.2" y="21.9" fill="#50c878" transform="rotate(50.043 39.166 27.286)" class="color41b5a0 svgShape"></rect><path fill="#319452" d="M37,18.5v18.2h-22V18.5c0-6.1,4.9-11,11-11c3,0,5.8,1.2,7.8,3.2c0.4,0.4,0.8,0.8,1.1,1.3
			C36.2,13.8,37,16,37,18.5z" class="color319480 svgShape"></path><path fill="#50c878" d="M37,18.5v18.2H15.8V19.4c0-6.1,4.9-11,11-11c3,0,5.8,1.2,7.8,3.2c0.1,0.1,0.2,0.2,0.3,0.3
			C36.2,13.8,37,16,37,18.5z" class="color41b5a0 svgShape"></path><rect width="22" height="10.7" x="14.9" y="25.9" fill="#3a2b62" class="color2b5e62 svgShape"></rect><path fill="#ffffff" d="M35.2 18.3C35.2 18.3 35.2 18.3 35.2 18.3c-.1 0-.2-.1-.2-.2.1-2.8-1.2-5.4-3.6-7-.1-.1-.1-.2-.1-.3.1-.1.2-.1.3-.1 2.5 1.6 3.9 4.4 3.8 7.4C35.4 18.2 35.3 18.3 35.2 18.3zM30.2 10.4c-.9-.4-1.9-.6-2.8-.7-.1 0-.2-.1-.2-.2 0-.1.1-.2.2-.2 1 0 2.1.3 3 .7.1.1.2.2.1.3C30.5 10.4 30.3 10.5 30.2 10.4z" class="colorffffff svgShape"></path><path d="M23.2 14c0 .8-.8 1.5-1.8 1.5-1 0-1.8-.7-1.8-1.5H23.2zM32.3 14c0 .8-.8 1.5-1.8 1.5-1 0-1.8-.7-1.8-1.5H32.3z" fill="#0a0a0a" class="color000000 svgShape"></path><polygon fill="#d33291" points="25.6 23.2 22.2 25.4 22.2 21" class="colore3574a svgShape"></polygon><polygon fill="#d33291" points="26.3 23.2 29.7 25.4 29.7 21" class="colore3574a svgShape"></polygon><ellipse cx="26" cy="23.2" fill="#d33291" rx="1.6" ry="1.5" class="colore3574a svgShape"></ellipse><path fill="#3a2b62" d="M32.5,19H19.4c-0.5,0-1-0.4-1-1v0c0-0.5,0.4-1,1-1h13.1c0.5,0,1,0.4,1,1v0C33.4,18.6,33,19,32.5,19z" class="color2b5e62 svgShape"></path><path fill="#ffffff" d="M29.1 33.1V32l-.7-.1c-.1-.3-.2-.6-.3-.8l.4-.6-.8-.8-.6.4c-.3-.2-.5-.3-.8-.3L26.1 29H25l-.1.7c-.3.1-.6.2-.8.3l-.6-.4-.8.8.4.6c-.2.3-.3.5-.3.8L22 32v1.1l.7.1c.1.3.2.6.3.8l-.4.6.8.8L24 35c.3.2.5.3.8.3l.1.7h1.1l.1-.7c.3-.1.6-.2.8-.3l.6.4.8-.8L28 34.1c.2-.3.3-.5.3-.8L29.1 33.1zM25.6 34.5c-1.1 0-1.9-.9-1.9-1.9 0-1.1.9-1.9 1.9-1.9 1.1 0 1.9.9 1.9 1.9C27.5 33.6 26.6 34.5 25.6 34.5zM21.8 30.1l.4-.2L22 29.1l-.5 0c-.1-.2-.2-.3-.4-.5l.2-.5-.6-.4-.3.4c-.2-.1-.4-.1-.6-.1l-.2-.4-.7.2 0 .5c-.2.1-.3.2-.5.4l-.5-.2-.4.6.4.3c-.1.2-.1.4-.1.6l-.4.2.2.7.5 0c.1.2.2.3.4.5L18.3 32l.6.4.3-.4c.2.1.4.1.6.1l.2.4.7-.2-.1-.5c.2-.1.3-.2.5-.4l.5.2.4-.6-.4-.3C21.7 30.5 21.8 30.3 21.8 30.1zM20.2 31.4c-.7.2-1.4-.2-1.6-.9-.2-.7.2-1.4.9-1.6.7-.2 1.4.2 1.6.9C21.3 30.5 20.9 31.2 20.2 31.4z" class="colorffffff svgShape"></path><rect width="3.5" height="7.4" x="30.6" y="28" fill="#ffd866" class="colorfdcd07 svgShape"></rect><rect width="1.9" height=".9" x="31.4" y="27.1" fill="#ffd866" class="colorfdcd07 svgShape"></rect><rect width="2.6" height=".9" x="31" y="34.1" fill="#3a2b62" class="color2b5e62 svgShape"></rect><rect width="2.6" height=".9" x="31" y="32.6" fill="#3a2b62" class="color2b5e62 svgShape"></rect><rect width="2.6" height=".9" x="31" y="31.1" fill="#3a2b62" class="color2b5e62 svgShape"></rect><path fill="#ffd866" d="M36.3,27.6c-0.3,0.3-0.7,0.3-1,0.1c0,0,0,0-0.1-0.1c0,0,0,0-0.1-0.1c-0.2-0.3-0.2-0.7,0.1-1
			c0.3-0.3,0.7-0.3,0.9-0.1c0,0,0,0,0.1,0.1c0,0,0,0,0.1,0.1C36.6,26.9,36.6,27.3,36.3,27.6z" class="colorfdcd07 svgShape"></path><path fill="#ffffff" d="M35.3,27.6C35.3,27.5,35.3,27.5,35.3,27.6l1-1.1c0,0,0,0,0.1,0.1s0,0,0.1,0.1L35.3,27.6
				C35.3,27.6,35.3,27.6,35.3,27.6z" class="colorffffff svgShape"></path><path fill="#ffd866" d="M16.6,27.6c-0.3,0.3-0.7,0.3-1,0.1c0,0,0,0-0.1-0.1c0,0,0,0-0.1-0.1c-0.2-0.3-0.2-0.7,0.1-1
			c0.3-0.3,0.7-0.3,0.9-0.1c0,0,0,0,0.1,0.1c0,0,0,0,0.1,0.1C16.9,26.9,16.9,27.3,16.6,27.6z" class="colorfdcd07 svgShape"></path><path fill="#ffffff" d="M15.6,27.6C15.6,27.5,15.5,27.5,15.6,27.6l1-1.1c0,0,0,0,0.1,0.1c0,0,0,0,0.1,0.1L15.6,27.6
				C15.6,27.6,15.6,27.6,15.6,27.6z" class="colorffffff svgShape"></path><path fill="#ffd866" d="M36.3,35.9c-0.3,0.3-0.7,0.3-1,0.1c0,0,0,0-0.1-0.1c0,0,0,0-0.1-0.1c-0.2-0.3-0.2-0.7,0.1-1
			c0.3-0.3,0.7-0.3,0.9-0.1c0,0,0,0,0.1,0.1c0,0,0,0,0.1,0.1C36.6,35.2,36.6,35.6,36.3,35.9z" class="colorfdcd07 svgShape"></path><path fill="#ffffff" d="M35.3,35.9C35.3,35.9,35.3,35.8,35.3,35.9l1-1.1c0,0,0,0,0.1,0.1c0,0,0,0,0.1,0.1L35.3,35.9
				C35.3,35.9,35.3,35.9,35.3,35.9z" class="colorffffff svgShape"></path><path fill="#ffd866" d="M16.6,35.9c-0.3,0.3-0.7,0.3-1,0.1c0,0,0,0-0.1-0.1c0,0,0,0-0.1-0.1c-0.2-0.3-0.2-0.7,0.1-1
			c0.3-0.3,0.7-0.3,0.9-0.1c0,0,0,0,0.1,0.1c0,0,0,0,0.1,0.1C16.9,35.2,16.9,35.6,16.6,35.9z" class="colorfdcd07 svgShape"></path><path fill="#ffffff" d="M15.6,35.9C15.6,35.9,15.5,35.8,15.6,35.9l1-1.1c0,0,0,0,0.1,0.1c0,0,0,0,0.1,0.1L15.6,35.9
				C15.6,35.9,15.6,35.9,15.6,35.9z" class="colorffffff svgShape"></path><polygon fill="#50c878" points="35.3 45.2 30.3 45.2 30.9 36.6 34.7 36.6" class="color41b5a0 svgShape"></polygon><path fill="#674ea7" d="M37.4,49h-9.3c0-2.6,2.1-4.6,4.6-4.6C35.3,44.4,37.4,46.4,37.4,49z" class="color2d5e65 svgShape"></path><polygon fill="#50c878" points="21.6 45.2 16.6 45.2 17.2 36.6 21 36.6" class="color41b5a0 svgShape"></polygon><path fill="#674ea7" d="M23.8,49h-9.3c0-2.6,2.1-4.6,4.6-4.6C21.7,44.4,23.8,46.4,23.8,49z" class="color2d5e65 svgShape"></path><circle cx="43.3" cy="23.5" r="1.7" fill="#674ea7" class="color2d5e65 svgShape"></circle><path fill="#674ea7" d="M39.1,13.4l1.9-0.2c0.1,0.7,0.8,1.2,1.5,1.1c0.7-0.1,1.2-0.7,1.1-1.5l1.9-0.2
			C45.9,16.8,39.6,17.6,39.1,13.4z" class="color2d5e65 svgShape"></path><path d="M23.7 14.3h-4.6c-.1 0-.2-.1-.2-.2s.1-.2.2-.2h4.6c.1 0 .2.1.2.2S23.8 14.3 23.7 14.3zM32.8 14.3h-4.6c-.1 0-.2-.1-.2-.2s.1-.2.2-.2h4.6c.1 0 .2.1.2.2S33 14.3 32.8 14.3z" fill="#0a0a0a" class="color000000 svgShape"></path></svg>