<svg xmlns="http://www.w3.org/2000/svg" enable-background="new 0 0 50 50" viewBox="0 0 50 50" id="Robot"><rect width=".7" height="8.8" x="34" y="1.7" fill="#d33291" transform="rotate(23.609 34.322 6.076)" class="colord5502d svgShape"></rect><circle cx="36.1" cy="2.1" r="1.1" fill="#3701c3" class="color016ec3 svgShape"></circle><rect width="8.8" height=".7" x="11.7" y="5.7" fill="#d33291" transform="rotate(66.409 16.077 6.076)" class="colord5502d svgShape"></rect><circle cx="14.3" cy="2.1" r="1.1" fill="#3701c3" class="color016ec3 svgShape"></circle><rect width=".9" height="3" x="41.3" y="30.5" fill="#3b06c1" class="color0671c1 svgShape"></rect><rect width=".9" height="3" x="41.3" y="36.8" fill="#3b06c1" class="color0671c1 svgShape"></rect><rect width="4.3" height=".9" x="37.4" y="23.4" fill="#3b06c1" class="color0671c1 svgShape"></rect><path fill="#d33291" d="M42.7 31.3h-1.9c-.6 0-1.1-.5-1.1-1.1v-6.6c0-.7.5-1.2 1.2-1.2h1.7c.7 0 1.2.5 1.2 1.2v6.6C43.8 30.8 43.3 31.3 42.7 31.3zM43.8 34.1V36c0 1.1-.9 1.9-1.9 1.9h-.3c-1.1 0-1.9-.9-1.9-1.9v-1.9c0-.6.5-1.1 1.1-1.1h1.9C43.3 33.1 43.8 33.5 43.8 34.1z" class="colord5502d svgShape"></path><path fill="#3b06c1" d="M44.3,41.6h-0.9c0-0.9-0.7-1.6-1.6-1.6c-0.9,0-1.6,0.7-1.6,1.6h-0.9c0-1.4,1.1-2.5,2.5-2.5
					C43.2,39.1,44.3,40.2,44.3,41.6z" class="color0671c1 svgShape"></path><circle cx="41.7" cy="24.2" r="1" fill="#ffffff" class="colorffffff svgShape"></circle><path fill="#d6a105" d="M38.9,23.9c0,1.3-1.1,2.4-2.4,2.4v-4.8C37.8,21.5,38.9,22.6,38.9,23.9z" class="colord66d05 svgShape"></path><rect width=".9" height="3" x="7.8" y="30.5" fill="#3b06c1" class="color0671c1 svgShape"></rect><rect width=".9" height="3" x="7.8" y="36.8" fill="#3b06c1" class="color0671c1 svgShape"></rect><rect width="4.3" height=".9" x="8.3" y="23.4" fill="#3b06c1" class="color0671c1 svgShape"></rect><path fill="#d33291" d="M7.3 31.3h1.9c.6 0 1.1-.5 1.1-1.1v-6.6c0-.7-.5-1.2-1.2-1.2H7.4c-.7 0-1.2.5-1.2 1.2v6.6C6.2 30.8 6.7 31.3 7.3 31.3zM6.2 34.1V36c0 1.1.9 1.9 1.9 1.9h.3c1.1 0 1.9-.9 1.9-1.9v-1.9c0-.6-.5-1.1-1.1-1.1H7.3C6.7 33.1 6.2 33.5 6.2 34.1z" class="colord5502d svgShape"></path><path fill="#3b06c1" d="M5.7,41.6h0.9c0-0.9,0.7-1.6,1.6-1.6s1.6,0.7,1.6,1.6h0.9c0-1.4-1.1-2.5-2.5-2.5
					C6.8,39.1,5.7,40.2,5.7,41.6z" class="color0671c1 svgShape"></path><circle cx="8.3" cy="24.2" r="1" fill="#ffffff" class="colorffffff svgShape"></circle><path fill="#d6a105" d="M11.1,23.9c0,1.3,1.1,2.4,2.4,2.4v-4.8C12.2,21.5,11.1,22.6,11.1,23.9z" class="colord66d05 svgShape"></path><polygon fill="#50c878" points="34.4 45.2 29.5 45.2 30.1 36.3 33.8 36.3" class="colora2a2a5 svgShape"></polygon><polygon fill="#50c878" points="20.9 45.2 16 45.2 16.6 36.3 20.3 36.3" class="colora2a2a5 svgShape"></polygon><polygon fill="#d2d1cd" points="29.7 41.3 29.5 45.2 34.4 45.2 34.1 41.3" class="colorcecdd2 svgShape"></polygon><polygon fill="#d2d1cd" points="16.3 41.3 16 45.2 20.9 45.2 20.6 41.3" class="colorcecdd2 svgShape"></polygon><path fill="#ffbe00" d="M33.2,18.6H17.2c-2.9,0-5.3-2.4-5.3-5.3v0c0-2.9,2.4-5.3,5.3-5.3h15.9c2.9,0,5.3,2.4,5.3,5.3v0
					C38.4,16.2,36.1,18.6,33.2,18.6z" class="colorff8500 svgShape"></path><path fill="#ffd866" d="M17.2,17.9c-2.5,0-4.5-2-4.5-4.5s2-4.5,4.5-4.5h15.9c2.5,0,4.5,2,4.5,4.5s-2,4.5-4.5,4.5H17.2z" class="colorf99841 svgShape"></path><circle cx="31.4" cy="13.5" r="2.4" fill="#ffffff" class="colorffffff svgShape"></circle><circle cx="31.4" cy="13.5" r="1.8" fill="#3701c3" class="color016ec3 svgShape"></circle><circle cx="31.4" cy="13.5" r="1" fill="#343434" class="color343434 svgShape"></circle><ellipse cx="32" cy="12.7" fill="#ffffff" rx=".5" ry=".4" class="colorffffff svgShape"></ellipse><circle cx="19" cy="13.5" r="2.4" fill="#ffffff" class="colorffffff svgShape"></circle><circle cx="19" cy="13.5" r="1.8" fill="#3701c3" class="color016ec3 svgShape"></circle><circle cx="19" cy="13.5" r="1" fill="#343434" class="color343434 svgShape"></circle><ellipse cx="18.4" cy="12.7" fill="#ffffff" rx=".5" ry=".4" class="colorffffff svgShape"></ellipse><rect width=".7" height="3.2" x="31.1" y="8.5" fill="#d33291" transform="rotate(77.766 31.421 10.086)" class="colord5502d svgShape"></rect><rect width="3.2" height=".7" x="17.4" y="9.7" fill="#d33291" transform="rotate(12.258 18.975 10.083)" class="colord5502d svgShape"></rect><path fill="#d33291" d="M25.2,17.3c-1.3,0-2.6-0.2-3.8-0.6c-0.2-0.1-0.3-0.3-0.2-0.5c0.1-0.2,0.3-0.3,0.5-0.2
					c2.4,0.8,4.8,0.8,7.2,0c0.2-0.1,0.4,0,0.5,0.2c0.1,0.2,0,0.4-0.2,0.5C27.8,17.1,26.5,17.3,25.2,17.3z" class="colord5502d svgShape"></path><rect width="9.3" height="2.4" x="20.6" y="18.6" fill="#d6a105" class="colord66d05 svgShape"></rect><polygon fill="#d33291" points="25.8 15.2 24.6 15.2 24.2 11.4 26.2 11.4" class="colord5502d svgShape"></polygon><path fill="#ffd866" d="M36.9,21.8v13.9c0,0.4-0.3,0.7-0.7,0.7H14.2c-0.4,0-0.7-0.3-0.7-0.7V21.8c0-0.4,0.3-0.7,0.7-0.7h21.9
					C36.6,21,36.9,21.4,36.9,21.8z" class="colorf99841 svgShape"></path><path fill="#674ea7" d="M36.5 49h-9.1c0-2.5 2-4.6 4.6-4.6C34.5 44.4 36.5 46.5 36.5 49zM23 49h-9.1c0-2.5 2-4.6 4.6-4.6C21 44.4 23 46.5 23 49z" class="color6f709c svgShape"></path><ellipse cx="31.9" cy="41.1" fill="#674ea7" rx="2.4" ry="1.2" class="color6f709c svgShape"></ellipse><ellipse cx="18.5" cy="41.1" fill="#674ea7" rx="2.4" ry="1.2" class="color6f709c svgShape"></ellipse><path fill="#d33291" d="M31.4,27c-0.1,0.6-0.3,1.1-0.7,1.6c-0.1,0.1-0.2,0.2-0.3,0.3l-2.1,2.1L28,31.4l-1.3,1.3l-1.4,1.4
					L20,28.9c-0.4-0.4-0.7-0.9-0.9-1.5C19,27.2,19,27,19,26.7c0-0.3,0-0.6,0.1-0.9c0-0.2,0.1-0.3,0.2-0.5c0.1-0.2,0.2-0.5,0.4-0.7
					c0.1-0.1,0.2-0.3,0.3-0.4c0,0,0-0.1,0.1-0.1c0.3-0.3,0.7-0.5,1-0.7c0.3-0.2,0.7-0.2,1-0.3c0.3,0,0.7,0,1,0.1
					c0.6,0.1,1.2,0.4,1.7,0.9c0.2,0.2,0.3,0.4,0.5,0.6c0.1-0.2,0.3-0.4,0.5-0.6c0.3-0.3,0.7-0.5,1-0.7c0.4-0.2,0.8-0.3,1.2-0.3
					c0.3,0,0.5,0,0.8,0.1c0.6,0.1,1.1,0.4,1.6,0.8c0,0,0.1,0.1,0.1,0.1c0.1,0.1,0.1,0.1,0.2,0.2c0.2,0.2,0.3,0.4,0.4,0.6
					c0.1,0.2,0.1,0.3,0.2,0.5c0.1,0.3,0.2,0.6,0.2,0.8C31.4,26.6,31.4,26.8,31.4,27z" class="colord5502d svgShape"></path><path fill="#ffffff" d="M31.4,27L30,28.3l-2.5-2.2L25,28.3l-2.5-2.2L20,28.3l-0.9-0.8C19,27.2,19,27,19,26.7l1,0.9l2.5-2.2
							l2.5,2.2l2.5-2.2l2.5,2.2l1.4-1.3C31.4,26.6,31.4,26.8,31.4,27z" class="colorffffff svgShape"></path><path fill="#ffffff" d="M30.7 28.6c-.1.1-.2.2-.3.3l-.7.7-2.2-2L25 29.9l-2.5-2.2-2 1.8-.3-.3 2.3-2.1 2.5 2.2 2.5-2.2 2.5 2.2L30.7 28.6zM31.2 25.5L30 26.7l-2.5-2.2L25 26.7l-2.5-2.2L20 26.7l-.9-.8c0-.2.1-.3.2-.5L20 26l2.5-2.2L25 26l2.5-2.2L30 26l1.1-1C31.1 25.2 31.2 25.4 31.2 25.5zM21 23.5c.3-.2.7-.2 1-.3L20 25l-.4-.4c.1-.1.2-.3.3-.4l.1.1L21 23.5z" class="colorffffff svgShape"></path><path fill="#ffffff" d="M25.7 24.2c.3-.3.7-.5 1-.7L25 25 23 23.3c.6.1 1.2.4 1.7.9.2.2.3.4.5.6C25.3 24.6 25.5 24.4 25.7 24.2zM30.6 24.4L30 25l-2-1.8c.3 0 .5 0 .8.1l1.2 1.1.3-.3c0 0 .1.1.1.1C30.5 24.3 30.6 24.3 30.6 24.4z" class="colorffffff svgShape"></path><polygon fill="#ffffff" points="29.2 30.2 28.8 30.6 27.5 29.3 25 31.6 22.5 29.3 21.4 30.4 21 30 22.5 28.7 25 30.9 27.5 28.7" class="colorffffff svgShape"></polygon><polygon fill="#ffffff" points="28.3 31.1 28 31.4 27.5 31 25 33.2 22.5 31 22.3 31.2 21.9 30.9 22.5 30.3 25 32.6 27.5 30.3" class="colorffffff svgShape"></polygon><polygon fill="#ffffff" points="26.6 32.7 25.2 34.2 25.1 34.1" class="colorffffff svgShape"></polygon><path fill="#d33291" d="M16.5,34.7c0,0.5-0.4,0.9-0.8,1c-0.1,0-0.1,0-0.2,0c-0.1,0-0.1,0-0.2,0c-0.5-0.1-0.8-0.5-0.8-1
					c0-0.5,0.4-0.9,0.8-1c0.1,0,0.1,0,0.2,0c0.1,0,0.1,0,0.2,0C16.1,33.8,16.5,34.2,16.5,34.7z" class="colord5502d svgShape"></path><path fill="#ffffff" d="M15.6,33.7v2c-0.1,0-0.1,0-0.2,0c-0.1,0-0.1,0-0.2,0v-2c0.1,0,0.1,0,0.2,0
						C15.5,33.7,15.6,33.7,15.6,33.7z" class="colorffffff svgShape"></path><path fill="#d33291" d="M35.9,34.7c0,0.5-0.4,0.9-0.8,1c-0.1,0-0.1,0-0.2,0c-0.1,0-0.1,0-0.2,0c-0.5-0.1-0.8-0.5-0.8-1
					c0-0.5,0.4-0.9,0.8-1c0.1,0,0.1,0,0.2,0c0.1,0,0.1,0,0.2,0C35.5,33.8,35.9,34.2,35.9,34.7z" class="colord5502d svgShape"></path><g fill="#0a0a0a" class="color000000 svgShape"><path fill="#ffffff" d="M35.1,33.7v2c-0.1,0-0.1,0-0.2,0c-0.1,0-0.1,0-0.2,0v-2c0.1,0,0.1,0,0.2,0C35,33.7,35,33.7,35.1,33.7z" class="colorffffff svgShape"></path></g><g fill="#0a0a0a" class="color000000 svgShape"><path fill="#d33291" d="M16.5,22.7c0,0.5-0.4,0.9-0.8,1c-0.1,0-0.1,0-0.2,0c-0.1,0-0.1,0-0.2,0c-0.5-0.1-0.8-0.5-0.8-1
					c0-0.5,0.4-0.9,0.8-1c0.1,0,0.1,0,0.2,0c0.1,0,0.1,0,0.2,0C16.1,21.8,16.5,22.2,16.5,22.7z" class="colord5502d svgShape"></path></g><g fill="#0a0a0a" class="color000000 svgShape"><path fill="#ffffff" d="M15.6,21.7v2c-0.1,0-0.1,0-0.2,0c-0.1,0-0.1,0-0.2,0v-2c0.1,0,0.1,0,0.2,0
						C15.5,21.6,15.6,21.7,15.6,21.7z" class="colorffffff svgShape"></path></g><g fill="#0a0a0a" class="color000000 svgShape"><path fill="#d33291" d="M35.9,22.7c0,0.5-0.4,0.9-0.8,1c-0.1,0-0.1,0-0.2,0c-0.1,0-0.1,0-0.2,0c-0.5-0.1-0.8-0.5-0.8-1
					c0-0.5,0.4-0.9,0.8-1c0.1,0,0.1,0,0.2,0c0.1,0,0.1,0,0.2,0C35.5,21.8,35.9,22.2,35.9,22.7z" class="colord5502d svgShape"></path></g><g fill="#0a0a0a" class="color000000 svgShape"><path fill="#ffffff" d="M35.1,21.7v2c-0.1,0-0.1,0-0.2,0c-0.1,0-0.1,0-0.2,0v-2c0.1,0,0.1,0,0.2,0C35,21.6,35,21.7,35.1,21.7z" class="colorffffff svgShape"></path></g></svg>