<svg xmlns="http://www.w3.org/2000/svg" enable-background="new 0 0 50 50" viewBox="0 0 50 50" id="Robot"><path fill="#674ea7" d="M45.2,13.1v7.8c0,0.1,0,0.2,0,0.2c0,0.3-0.1,0.7-0.1,1c-0.1,0.3-0.2,0.7-0.3,1c-0.1,0.3-0.3,0.6-0.4,0.9
					c-0.2,0.3-0.4,0.6-0.6,0.8c-0.2,0.3-0.5,0.5-0.7,0.7c-0.3,0.2-0.5,0.4-0.8,0.6c-0.3,0.2-0.6,0.3-0.9,0.4c-0.3,0.1-0.6,0.2-1,0.3
					c-0.3,0.1-0.7,0.1-1,0.1c-0.1,0-0.2,0-0.3,0h-3.1v-3.6H39c0,0,0.1,0,0.1,0c0.1,0,0.3,0,0.4,0c0.1,0,0.3-0.1,0.4-0.1
					c0.1,0,0.3-0.1,0.4-0.2c0.1-0.1,0.2-0.2,0.3-0.2c0.1-0.1,0.2-0.2,0.3-0.3c0.1-0.1,0.2-0.2,0.2-0.4c0.1-0.1,0.1-0.2,0.2-0.4
					c0.1-0.1,0.1-0.3,0.1-0.4c0-0.1,0-0.3,0-0.4c0,0,0-0.1,0-0.1v-7.8H45.2z" class="color0671c1 svgShape"></path><path fill="#06eb52" d="M37.8,23.5v3.6h0.7v-3.6H37.8z M36.3,23.5v3.6H37v-3.6H36.3z M39.6,23.4c-0.1,0-0.3,0-0.4,0l0.1,3.6
						c0.3,0,0.7-0.1,1-0.1L39.6,23.4z M40.3,23.1c-0.1,0.1-0.2,0.1-0.4,0.2l1.3,3.4c0.3-0.1,0.6-0.3,0.9-0.4L40.3,23.1z M41,22.6
						c-0.1,0.1-0.2,0.2-0.3,0.3l2.3,2.8c0.3-0.2,0.5-0.5,0.7-0.7L41,22.6z M41.4,21.9c0,0.1-0.1,0.3-0.2,0.4l3.1,1.9
						c0.2-0.3,0.3-0.6,0.4-0.9L41.4,21.9z M41.6,21c0,0.1,0,0.3,0,0.4l3.5,0.7c0.1-0.3,0.1-0.7,0.1-1L41.6,21z M41.6,19.7v0.7h3.6
						v-0.7H41.6z M41.6,18.2v0.7h3.6v-0.7H41.6z M41.6,16.8v0.7h3.6v-0.7H41.6z M41.6,15.3V16h3.6v-0.7H41.6z M41.6,13.9v0.7h3.6
						v-0.7H41.6z" class="color06d7eb svgShape"></path><path fill="#ffd866" d="M47.4,11.1v1.6c0,0.9-0.9,1.6-2,1.6h-4c-1.1,0-2-0.7-2-1.6v-1.6h1.4v1.6c0.1,0.1,0.3,0.2,0.6,0.2h1.3
					v-1.8h1.4v1.8h1.3c0.3,0,0.5-0.1,0.6-0.2v-1.6H47.4z" class="colorff8500 svgShape"></path><path fill="#674ea7" d="M4.8,35.6v-7.8c0-0.1,0-0.2,0-0.2c0-0.3,0.1-0.7,0.1-1c0.1-0.3,0.2-0.7,0.3-1c0.1-0.3,0.3-0.6,0.4-0.9
						c0.2-0.3,0.4-0.6,0.6-0.8c0.2-0.3,0.5-0.5,0.7-0.7c0.3-0.2,0.5-0.4,0.8-0.6c0.3-0.2,0.6-0.3,0.9-0.4c0.3-0.1,0.6-0.2,1-0.3
						c0.3-0.1,0.7-0.1,1-0.1c0.1,0,0.2,0,0.3,0h3.1v3.6H11c0,0-0.1,0-0.1,0c-0.1,0-0.3,0-0.4,0c-0.1,0-0.3,0.1-0.4,0.1
						c-0.1,0-0.3,0.1-0.4,0.2c-0.1,0.1-0.2,0.2-0.3,0.2C9.2,25.9,9.1,26,9,26.1c-0.1,0.1-0.2,0.2-0.2,0.4c-0.1,0.1-0.1,0.2-0.2,0.4
						c-0.1,0.1-0.1,0.3-0.1,0.4c0,0.1,0,0.3,0,0.4c0,0,0,0.1,0,0.1v7.8H4.8z" class="color0671c1 svgShape"></path><path fill="#06eb52" d="M12.2,25.2v-3.6h-0.7v3.6H12.2z M13.7,25.2v-3.6H13v3.6H13.7z M10.4,25.3c0.1,0,0.3,0,0.4,0l-0.1-3.6
						c-0.3,0-0.7,0.1-1,0.1L10.4,25.3z M9.7,25.6c0.1-0.1,0.2-0.1,0.4-0.2L8.7,22c-0.3,0.1-0.6,0.3-0.9,0.4L9.7,25.6z M9,26.1
						c0.1-0.1,0.2-0.2,0.3-0.3L7,23.1c-0.3,0.2-0.5,0.5-0.7,0.7L9,26.1z M8.6,26.9c0-0.1,0.1-0.3,0.2-0.4l-3.1-1.9
						c-0.2,0.3-0.3,0.6-0.4,0.9L8.6,26.9z M8.4,27.7c0-0.1,0-0.3,0-0.4l-3.5-0.7c-0.1,0.3-0.1,0.7-0.1,1L8.4,27.7z M8.4,29.1v-0.7
						H4.8v0.7H8.4z M8.4,30.5v-0.7H4.8v0.7H8.4z M8.4,32v-0.7H4.8V32H8.4z M8.4,33.4v-0.7H4.8v0.7H8.4z M8.4,34.9v-0.7H4.8v0.7H8.4z
						" class="color06d7eb svgShape"></path><path fill="#ffd866" d="M2.6,37.6V36c0-0.9,0.9-1.6,2-1.6h4c1.1,0,2,0.7,2,1.6v1.6H9.2V36C9.2,36,9,35.9,8.6,35.9H7.4v1.8H5.9
					v-1.8H4.7c-0.3,0-0.5,0.1-0.6,0.2v1.6H2.6z" class="colorff8500 svgShape"></path><rect width="5.3" height=".7" x="36.8" y="8.1" fill="#3701c3" class="color016ec3 svgShape"></rect><path fill="#d6a105" d="M37,10.9h-2.5V6H37c0.3,0,0.6,0.3,0.6,0.6v3.7C37.5,10.6,37.3,10.9,37,10.9z" class="colord66d05 svgShape"></path><rect width="5.3" height=".7" x="7.1" y="8.1" fill="#3701c3" class="color016ec3 svgShape"></rect><path fill="#d6a105" d="M12.2,10.9h2.5V6h-2.5c-0.3,0-0.6,0.3-0.6,0.6v3.7C11.7,10.6,11.9,10.9,12.2,10.9z" class="colord66d05 svgShape"></path><path fill="#ffd866" d="M29.9,14.3H19.3c-3.2,0-5.8-2.6-5.8-5.8v0c0-3.2,2.6-5.8,5.8-5.8h10.6c3.2,0,5.8,2.6,5.8,5.8v0
				C35.7,11.7,33.1,14.3,29.9,14.3z" class="colorff8500 svgShape"></path><path fill="#d6a105" d="M28.3,1.9v0.8h-7.5V1.9c0-0.5,0.4-0.9,0.9-0.9h5.8C28,1,28.3,1.4,28.3,1.9z" class="colord66d05 svgShape"></path><rect width="10.5" height="3" x="19" y="14.3" fill="#d6a105" class="colord66d05 svgShape"></rect><path fill="#ffd866" d="M36.2,35.4H12.4c-0.4,0-0.7-0.3-0.7-0.7V18c0-0.4,0.3-0.7,0.7-0.7h23.7c0.4,0,0.7,0.3,0.7,0.7v16.6
				C36.9,35.1,36.6,35.4,36.2,35.4z" class="colorff8500 svgShape"></path><path fill="#ffffff" d="M32.7,27.9H15.4c0-5,3.9-9,8.6-9C28.8,18.9,32.7,23,32.7,27.9z" class="colorffffff svgShape"></path><polygon points="24.7 25.2 28.7 22 25.2 25.7" fill="#0a0a0a" class="color000000 svgShape"></polygon><path fill="#50c878" d="M20.6,25.9v-0.5l-0.4-0.1c0-0.2-0.1-0.3-0.2-0.4l0.2-0.3l-0.4-0.4l-0.3,0.2c-0.1-0.1-0.3-0.1-0.4-0.2
				L19,23.9h-0.6l-0.1,0.4c-0.2,0-0.3,0.1-0.4,0.2l-0.3-0.2l-0.4,0.4l0.2,0.3c-0.1,0.1-0.1,0.3-0.2,0.4l-0.4,0.1v0.5l0.4,0.1
				c0,0.2,0.1,0.3,0.2,0.4l-0.2,0.3l0.4,0.4l0.3-0.2c0.1,0.1,0.3,0.1,0.4,0.2l0.1,0.4H19l0.1-0.4c0.2,0,0.3-0.1,0.4-0.2l0.3,0.2
				l0.4-0.4L20,26.4c0.1-0.1,0.1-0.3,0.2-0.4L20.6,25.9z M18.7,26.6c-0.6,0-1-0.4-1-1c0-0.5,0.5-1,1-1c0.6,0,1,0.4,1,1
				C19.7,26.2,19.3,26.6,18.7,26.6z" class="color3eb49e svgShape"></path><path fill="#d33291" d="M20.8,23.4l0.1-0.3L20.8,23c0-0.1,0-0.2,0-0.3l0.2-0.1l-0.1-0.3l-0.2,0c-0.1-0.1-0.1-0.1-0.2-0.2l0.1-0.2
				l-0.3-0.1L20,22c-0.1,0-0.2,0-0.3,0l-0.1-0.2L19.3,22l0,0.2c-0.1,0.1-0.1,0.1-0.2,0.2l-0.2,0l-0.1,0.3l0.2,0.1c0,0.1,0,0.2,0,0.3
				l-0.2,0.1l0.1,0.3l0.2,0c0.1,0.1,0.1,0.1,0.2,0.2l0,0.2l0.3,0.1l0.1-0.2c0.1,0,0.2,0,0.3,0l0.1,0.2l0.3-0.1l0-0.2
				c0.1-0.1,0.1-0.1,0.2-0.2L20.8,23.4z M19.6,23.4c-0.3-0.1-0.5-0.5-0.3-0.8c0.1-0.3,0.5-0.4,0.8-0.3c0.3,0.1,0.5,0.5,0.3,0.8
				C20.3,23.4,19.9,23.5,19.6,23.4z" class="colord5502d svgShape"></path><path fill="#ffffff" d="M31.8,7.7c0,1.3-1.1,2.4-2.4,2.4c-1.3,0-2.4-1.1-2.4-2.4c0-1.3,1.1-2.4,2.4-2.4
					C30.8,5.3,31.8,6.4,31.8,7.7z" class="colorffffff svgShape"></path><path fill="#3701c3" d="M31.1,7.7c0,0.9-0.7,1.7-1.7,1.7c-0.9,0-1.7-0.7-1.7-1.7c0-0.9,0.7-1.7,1.7-1.7
					C30.4,6.1,31.1,6.8,31.1,7.7z" class="color016ec3 svgShape"></path><circle cx="30.7" cy="6.6" r=".6" fill="#ffffff" class="colorffffff svgShape"></circle><path fill="#ffffff" d="M16.7,7.7c0,1.3,1.1,2.4,2.4,2.4c1.3,0,2.4-1.1,2.4-2.4c0-1.3-1.1-2.4-2.4-2.4
					C17.8,5.3,16.7,6.4,16.7,7.7z" class="colorffffff svgShape"></path><path fill="#3701c3" d="M17.4,7.7c0,0.9,0.7,1.7,1.7,1.7c0.9,0,1.7-0.7,1.7-1.7c0-0.9-0.7-1.7-1.7-1.7
					C18.2,6.1,17.4,6.8,17.4,7.7z" class="color016ec3 svgShape"></path><circle cx="17.9" cy="6.6" r=".6" fill="#ffffff" class="colorffffff svgShape"></circle><rect width=".4" height="3.7" x="29.3" y="2.6" fill="#3701c3" transform="rotate(78 29.528 4.482)" class="color016ec3 svgShape"></rect><rect width="3.7" height=".4" x="17.8" y="4.3" fill="#3701c3" transform="rotate(11.986 19.66 4.48)" class="color016ec3 svgShape"></rect><path fill="#ffffff" d="M24.4,13c-1.8,0-3.7-0.5-5.6-1.6c-0.1,0-0.1-0.2-0.1-0.2c0-0.1,0.2-0.1,0.2-0.1c3.7,2.1,7.2,2.2,10.5,0
				c0.1-0.1,0.2,0,0.3,0.1c0.1,0.1,0,0.2-0.1,0.3C28,12.5,26.3,13,24.4,13z" class="colorffffff svgShape"></path><polygon fill="#3701c3" points="24.7 10.9 23.9 10.9 24.1 7.4 24.5 7.4" class="color016ec3 svgShape"></polygon><path fill="#d33291" d="M25.4,26.1c0,0.7-0.6,1.3-1.4,1.3c-0.8,0-1.4-0.6-1.4-1.3c0-0.7,0.6-1.3,1.4-1.3
				C24.8,24.8,25.4,25.4,25.4,26.1z" class="colord5502d svgShape"></path><path fill="#d6a105" d="M32.3,35.4v10.2h-0.1c-0.5-0.2-1-0.4-1.6-0.4c-0.6,0-1.1,0.1-1.6,0.4h-0.1V35.4H32.3z" class="colord66d05 svgShape"></path><path fill="#674ea7" d="M34.4,49h-7.5c0-2.1,1.7-3.8,3.8-3.8C32.7,45.2,34.4,46.9,34.4,49z" class="color0671c1 svgShape"></path><ellipse cx="30.6" cy="40.3" fill="#674ea7" rx="2.3" ry="2" class="color0671c1 svgShape"></ellipse><path fill="#06eb52" d="M30.6,42.8c-1.5,0-2.8-1.1-2.8-2.5s1.3-2.5,2.8-2.5c1.5,0,2.8,1.1,2.8,2.5S32.2,42.8,30.6,42.8z
					 M30.6,38.8c-1,0-1.8,0.7-1.8,1.5s0.8,1.5,1.8,1.5s1.8-0.7,1.8-1.5S31.6,38.8,30.6,38.8z" class="color06d7eb svgShape"></path><path fill="#d6a105" d="M19.6,35.4v10.2h-0.1c-0.5-0.2-1-0.4-1.6-0.4c-0.6,0-1.1,0.1-1.6,0.4h-0.1V35.4H19.6z" class="colord66d05 svgShape"></path><path fill="#674ea7" d="M21.7,49h-7.5c0-2.1,1.7-3.8,3.8-3.8C20,45.2,21.7,46.9,21.7,49z" class="color0671c1 svgShape"></path><ellipse cx="18" cy="40.3" fill="#674ea7" rx="2.4" ry="2" class="color0671c1 svgShape"></ellipse><path fill="#06eb52" d="M18,42.8c-1.6,0-2.9-1.1-2.9-2.5s1.3-2.5,2.9-2.5s2.9,1.1,2.9,2.5S19.5,42.8,18,42.8z M18,38.8
					c-1,0-1.9,0.7-1.9,1.5s0.8,1.5,1.9,1.5c1,0,1.9-0.7,1.9-1.5S19,38.8,18,38.8z" class="color06d7eb svgShape"></path><path fill="#d33291" d="M23.9,22.1" class="colord5502d svgShape"></path><rect width="18.4" height=".7" x="15.1" y="30" fill="#ffffff" class="colorffffff svgShape"></rect><rect width="18.4" height=".7" x="15.1" y="32.9" fill="#ffffff" class="colorffffff svgShape"></rect><circle cx="42.1" cy="8.5" r="1.2" fill="#d6a105" class="colord66d05 svgShape"></circle><circle cx="7.4" cy="8.5" r="1.2" fill="#d6a105" class="colord66d05 svgShape"></circle></svg>