<svg xmlns="http://www.w3.org/2000/svg" enable-background="new 0 0 50 50" viewBox="0 0 50 50" id="Robot"><path fill="#d33291" d="M2.5,34.5C2.5,34.5,2.5,34.5,2.5,34.5c-0.4,0-0.6-0.3-0.6-0.7c0.2-3.7,1.4-6.4,3.4-8.1
					c2.4-2,5.1-1.6,5.2-1.6c0.3,0,0.6,0.4,0.5,0.7c0,0.3-0.4,0.6-0.7,0.5c0,0-2.3-0.3-4.3,1.4c-1.7,1.4-2.7,3.8-2.9,7.2
					C3.1,34.3,2.9,34.5,2.5,34.5z" class="colorc55410 svgShape"></path><ellipse cx="2.5" cy="34" fill="#218944" rx="1.5" ry="1.6" class="color217f89 svgShape"></ellipse><circle cx="2.5" cy="34" r=".9" fill="#ffd866" class="colorffffff svgShape"></circle><path fill="#d33291" d="M47.5,34.5c-0.3,0-0.6-0.3-0.6-0.6c-0.2-3.4-1.2-5.8-2.9-7.2c-2-1.6-4.2-1.4-4.3-1.3
					c-0.4,0-0.7-0.2-0.7-0.5c0-0.3,0.2-0.7,0.5-0.7c0.1,0,2.8-0.3,5.2,1.6c2,1.7,3.1,4.4,3.4,8.1C48.1,34.2,47.8,34.5,47.5,34.5
					C47.5,34.5,47.5,34.5,47.5,34.5z" class="colorc55410 svgShape"></path><rect width="8.7" height="3.1" x="29.2" y="37.3" fill="#218944" class="color217f89 svgShape"></rect><rect width="9" height="1" x="29" y="40.4" fill="#50c878" class="color2fa5c1 svgShape"></rect><rect width="13.8" height="1.1" x="26.6" y="47.3" fill="#50c878" class="color2fa5c1 svgShape"></rect><path fill="#d33291" d="M40.4,47.3H26.6c0.2-2.1,0.8-4.1,2.4-5.9h9C39.5,43.1,40.3,45.1,40.4,47.3z" class="colorc55410 svgShape"></path><rect width="8.7" height="3.1" x="11.1" y="37.3" fill="#218944" class="color217f89 svgShape"></rect><rect width="9" height="1" x="11" y="40.4" fill="#50c878" class="color2fa5c1 svgShape"></rect><rect width="13.8" height="1.1" x="8.6" y="47.3" fill="#50c878" class="color2fa5c1 svgShape"></rect><path fill="#d33291" d="M22.3,47.3H8.6c0.2-2.1,0.8-4.1,2.4-5.9h9C21.5,43.1,22.2,45.1,22.3,47.3z" class="colorc55410 svgShape"></path><rect width="31.2" height="14.8" x="8.9" y="22.5" fill="#50c878" class="color2fa5c1 svgShape"></rect><rect width="32.9" height="1.8" x="7.8" y="20.7" fill="#343434" class="color343434 svgShape"></rect><polygon fill="#674ea7" points="33.1 10 32.3 9.1 38.7 2.7 39.5 3.6" class="color39667c svgShape"></polygon><circle cx="39" cy="3.2" r="1.6" fill="#d33291" class="colorc55410 svgShape"></circle><rect width="1.2" height="9" x="11.8" y="1.9" fill="#674ea7" transform="rotate(134.999 12.444 6.38)" class="color39667c svgShape"></rect><circle cx="9.4" cy="3.2" r="1.6" fill="#d33291" class="colorc55410 svgShape"></circle><path fill="#50c878" d="M39.6,20.7H8.8c0-8.5,6.9-15.4,15.4-15.4c4.2,0,8.1,1.7,10.9,4.5C37.9,12.6,39.6,16.4,39.6,20.7z" class="color2fa5c1 svgShape"></path><ellipse cx="31.4" cy="11.5" fill="#ffd866" rx="2.3" ry="2.4" class="colorffffff svgShape"></ellipse><ellipse cx="31.3" cy="11.5" fill="#218944" rx="1.7" ry="1.8" class="color217f89 svgShape"></ellipse><circle cx="31.4" cy="11.5" r=".9" fill="#343434" class="color343434 svgShape"></circle><ellipse cx="30.7" cy="11" fill="#ffd866" rx=".4" ry=".3" class="colorffffff svgShape"></ellipse><ellipse cx="17.1" cy="11.5" fill="#ffd866" rx="2.3" ry="2.4" class="colorffffff svgShape"></ellipse><ellipse cx="17" cy="11.5" fill="#218944" rx="1.7" ry="1.8" class="color217f89 svgShape"></ellipse><circle cx="17.1" cy="11.5" r=".9" fill="#343434" class="color343434 svgShape"></circle><ellipse cx="16.5" cy="11" fill="#ffd866" rx=".4" ry=".3" class="colorffffff svgShape"></ellipse><path fill="#343434" d="M24.5,19c-2.8,0-5.7-1-8.7-2.9c-0.2-0.1-0.3-0.4-0.1-0.7c0.1-0.2,0.4-0.3,0.7-0.1
						c5.6,3.7,10.8,3.7,15.8,0c0.2-0.2,0.5-0.1,0.7,0.1c0.2,0.2,0.1,0.5-0.1,0.7C30,18,27.3,19,24.5,19z" class="color343434 svgShape"></path><rect width="23.3" height="9.3" x="12.9" y="25.2" fill="#ffd866" class="colorffffff svgShape"></rect><rect width="2" height="6.6" x="14.2" y="26.6" fill="#d33291" class="colorc55410 svgShape"></rect><rect width="2" height="6.6" x="18.8" y="26.6" fill="#d33291" class="colorc55410 svgShape"></rect><rect width="2" height="6.6" x="23.5" y="26.6" fill="#d33291" class="colorc55410 svgShape"></rect><rect width="2" height="6.6" x="28.2" y="26.6" fill="#d33291" class="colorc55410 svgShape"></rect><rect width="2" height="6.6" x="32.9" y="26.6" fill="#d33291" class="colorc55410 svgShape"></rect><g fill="#0a0a0a" class="color000000 svgShape"><ellipse cx="47.5" cy="34" fill="#218944" rx="1.5" ry="1.6" class="color217f89 svgShape"></ellipse></g><g fill="#0a0a0a" class="color000000 svgShape"><circle cx="47.5" cy="34" r=".9" fill="#ffd866" class="colorffffff svgShape"></circle></g></svg>