<svg xmlns="http://www.w3.org/2000/svg" enable-background="new 0 0 50 50" viewBox="0 0 50 50" id="Robot"><path fill="#2fc160" d="M35.2,17.9H15c-0.8,0-1.5-0.7-1.5-1.5V2.5C13.5,1.7,14.1,1,15,1h20.2c0.8,0,1.5,0.7,1.5,1.5v13.9
		C36.7,17.3,36,17.9,35.2,17.9z" class="color2fa5c1 svgShape"></path><circle cx="17.8" cy="14.1" r="1.2" fill="#ddbd5e" class="colordddd5e svgShape"></circle><path fill="#674ea7" d="M17.8,15.5c-0.8,0-1.4-0.6-1.4-1.4c0-0.8,0.6-1.4,1.4-1.4c0.8,0,1.4,0.6,1.4,1.4
				C19.2,14.9,18.6,15.5,17.8,15.5z M17.8,13c-0.6,0-1,0.5-1,1s0.5,1,1,1c0.6,0,1-0.5,1-1S18.4,13,17.8,13z" class="color7b6991 svgShape"></path><circle cx="22.6" cy="14.1" r="1.2" fill="#ddbd5e" class="colordddd5e svgShape"></circle><path fill="#372760" d="M22.6,15.5c-0.8,0-1.4-0.6-1.4-1.4c0-0.8,0.6-1.4,1.4-1.4s1.4,0.6,1.4,1.4C24.1,14.9,23.4,15.5,22.6,15.5
				z M22.6,13c-0.6,0-1,0.5-1,1s0.5,1,1,1s1-0.5,1-1S23.2,13,22.6,13z" class="color275f60 svgShape"></path><circle cx="27.5" cy="14.1" r="1.2" fill="#ddbd5e" class="colordddd5e svgShape"></circle><path fill="#674ea7" d="M27.5,15.5c-0.8,0-1.4-0.6-1.4-1.4c0-0.8,0.6-1.4,1.4-1.4c0.8,0,1.4,0.6,1.4,1.4
				C29,14.9,28.3,15.5,27.5,15.5z M27.5,13c-0.6,0-1,0.5-1,1s0.5,1,1,1c0.6,0,1-0.5,1-1S28.1,13,27.5,13z" class="color7b6991 svgShape"></path><circle cx="32.4" cy="14.1" r="1.2" fill="#ddbd5e" class="colordddd5e svgShape"></circle><path fill="#372760" d="M32.4,15.5c-0.8,0-1.4-0.6-1.4-1.4c0-0.8,0.6-1.4,1.4-1.4c0.8,0,1.4,0.6,1.4,1.4
				C33.8,14.9,33.2,15.5,32.4,15.5z M32.4,13c-0.6,0-1,0.5-1,1s0.5,1,1,1c0.6,0,1-0.5,1-1S33,13,32.4,13z" class="color275f60 svgShape"></path><rect width="1.5" height="5.2" x="41.7" y="19.8" fill="#343434" class="color343434 svgShape"></rect><rect width="3.8" height="1.5" x="38.7" y="5.9" fill="#343434" class="color343434 svgShape"></rect><path fill="#4c397c" d="M39.8,6.7c0,1.7-1.4,3.2-3.1,3.2V3.5C38.4,3.5,39.8,4.9,39.8,6.7z" class="color39667c svgShape"></path><path fill="#ffd866" d="M44.5,21.7h-4.1V6.8c0-1.1,0.9-2.1,2.1-2.1h0c1.1,0,2.1,0.9,2.1,2.1V21.7z" class="colorfdcc5a svgShape"></path><path fill="#d33291" d="M46.3,28.2h-1.5c0-1.3-1.1-2.4-2.4-2.4s-2.4,1.1-2.4,2.4h-1.5c0-2.1,1.7-3.8,3.8-3.8
		C44.6,24.4,46.3,26.1,46.3,28.2z" class="colorc55410 svgShape"></path><circle cx="25.1" cy="6.7" r="3.5" fill="#ffffff" class="colorffffff svgShape"></circle><circle cx="25.1" cy="6.7" r="2.6" fill="#3701c3" class="color016ec3 svgShape"></circle><circle cx="25.1" cy="6.7" r="1.4" fill="#343434" class="color343434 svgShape"></circle><path fill="#ffffff" d="M26.6,5.6c0,0.3-0.3,0.6-0.7,0.6c-0.4,0-0.6-0.3-0.6-0.6c0-0.3,0.3-0.6,0.6-0.6C26.3,5,26.6,5.3,26.6,5.6z
			" class="colorffffff svgShape"></path><rect width="16" height="2.3" x="17.1" y="17.9" fill="#4c397c" class="color39667c svgShape"></rect><rect width="2.9" height="4.6" x="23.6" y="20.2" fill="#d33291" class="colorc55410 svgShape"></rect><path fill="#50c878" d="M39.6,37.2h-29c0-7.6,6.5-13.8,14.5-13.8S39.6,29.6,39.6,37.2z" class="color2994a5 svgShape"></path><rect width="2.9" height="8.7" x="34.6" y="37.2" fill="#4c397c" class="color39667c svgShape"></rect><circle cx="36" cy="45.9" r="3.1" fill="#50c878" class="color2994a5 svgShape"></circle><circle cx="36" cy="45.9" r="1.9" fill="#ffffff" class="colorffffff svgShape"></circle><circle cx="36" cy="45.9" r=".8" fill="#0a0a0a" class="color000000 svgShape"></circle><rect width="2.9" height="8.7" x="23.6" y="37.2" fill="#4c397c" class="color39667c svgShape"></rect><circle cx="25.1" cy="45.9" r="3.1" fill="#50c878" class="color2994a5 svgShape"></circle><circle cx="25.1" cy="45.9" r="1.9" fill="#ffffff" class="colorffffff svgShape"></circle><rect width="2.9" height="8.7" x="12.7" y="37.2" fill="#4c397c" class="color39667c svgShape"></rect><circle cx="14.1" cy="45.9" r="3.1" fill="#50c878" class="color2994a5 svgShape"></circle><circle cx="14.1" cy="45.9" r="1.9" fill="#ffffff" class="colorffffff svgShape"></circle><rect width="1.5" height="5.2" x="6.8" y="19.8" fill="#343434" class="color343434 svgShape"></rect><rect width="3.8" height="1.5" x="7.7" y="5.9" fill="#343434" class="color343434 svgShape"></rect><path fill="#4c397c" d="M10.3,6.7c0,1.7,1.4,3.2,3.1,3.2V3.5C11.7,3.5,10.3,4.9,10.3,6.7z" class="color39667c svgShape"></path><path fill="#ffd866" d="M5.5,21.7h4.1V6.8c0-1.1-0.9-2.1-2.1-2.1h0c-1.1,0-2.1,0.9-2.1,2.1V21.7z" class="colorfdcc5a svgShape"></path><path fill="#d33291" d="M3.7 28.2h1.5c0-1.3 1.1-2.4 2.4-2.4s2.4 1.1 2.4 2.4h1.5c0-2.1-1.7-3.8-3.8-3.8C5.4 24.4 3.7 26.1 3.7 28.2zM10.3 13.6c0 1.3-1.2 2.4-2.7 2.4s-2.7-1.1-2.7-2.4 1.2-2.4 2.7-2.4S10.3 12.3 10.3 13.6zM45.2 13.6c0 1.3-1.2 2.4-2.7 2.4-1.5 0-2.7-1.1-2.7-2.4s1.2-2.4 2.7-2.4C44 11.2 45.2 12.3 45.2 13.6z" class="colorc55410 svgShape"></path><circle cx="25.1" cy="45.9" r=".8" fill="#0a0a0a" class="color000000 svgShape"></circle><circle cx="14.1" cy="45.9" r=".8" fill="#0a0a0a" class="color000000 svgShape"></circle><rect width="2.9" height="1.1" x="12.7" y="37.2" fill="#2a8749" class="color2a7f87 svgShape"></rect><rect width="2.9" height="1.1" x="23.6" y="37.2" fill="#2a8749" class="color2a7f87 svgShape"></rect><rect width="2.9" height="1.1" x="34.6" y="37.2" fill="#2a8749" class="color2a7f87 svgShape"></rect></svg>