<svg xmlns="http://www.w3.org/2000/svg" enable-background="new 0 0 50 50" viewBox="0 0 50 50" id="Robot"><rect width="1" height="9" x="38.6" y="1.3" fill="#ffd866" transform="rotate(30.526 39.103 5.77)" class="colorf0ca4d svgShape"></rect><rect width="2" height="10" x="40.8" y="29.9" transform="rotate(17.241 41.755 34.843)" fill="#0a0a0a" class="color000000 svgShape"></rect><rect width="8.2" height="2" x="35.8" y="24.7" transform="rotate(44.716 39.905 25.645)" fill="#0a0a0a" class="color000000 svgShape"></rect><circle cx="43.6" cy="29.4" r="1.6" fill="#ffd866" class="colorf0ca4d svgShape"></circle><path fill="#d33291" d="M39.8,38.4c-1.4,0-2.5,1.1-2.5,2.5h5.1C42.3,39.5,41.2,38.4,39.8,38.4z" class="colordd4f87 svgShape"></path><circle cx="35.4" cy="22.3" r="2.4" fill="#ffd866" class="colorf0ca4d svgShape"></circle><rect width="2" height="10" x="7.3" y="29.9" transform="rotate(162.759 8.243 34.844)" fill="#0a0a0a" class="color000000 svgShape"></rect><rect width="8.2" height="2" x="6" y="24.7" transform="rotate(135.284 10.098 25.64)" fill="#0a0a0a" class="color000000 svgShape"></rect><circle cx="6.4" cy="29.4" r="1.6" fill="#ffd866" class="colorf0ca4d svgShape"></circle><path fill="#d33291" d="M10.2,38.4c1.4,0,2.5,1.1,2.5,2.5H7.7C7.7,39.5,8.8,38.4,10.2,38.4z" class="colordd4f87 svgShape"></path><circle cx="14.6" cy="22.3" r="2.4" fill="#ffd866" class="colorf0ca4d svgShape"></circle><path fill="#50c878" d="M29.7,46.7c-0.1,0.2-0.1,0.4-0.1,0.6c0,0.9,0.7,1.7,1.7,1.7c0.9,0,1.7-0.7,1.7-1.7c0-0.2,0-0.4-0.1-0.6
					H29.7z" class="color1c455b svgShape"></path><rect width="3.6" height="14" x="29.4" y="30.7" fill="#33235c" class="color23495c svgShape"></rect><path fill="#d33291" d="M35.2,47.3h-8.1c0-1.4,0.9-2.6,2.1-2.6h3.9C34.3,44.7,35.2,45.9,35.2,47.3z" class="colordd4f87 svgShape"></path><path fill="#50c878" d="M17.8,46.7c-0.1,0.2-0.1,0.4-0.1,0.6c0,0.9,0.7,1.7,1.7,1.7c0.9,0,1.7-0.7,1.7-1.7c0-0.2,0-0.4-0.1-0.6
					H17.8z" class="color1c455b svgShape"></path><rect width="3.6" height="14" x="17.5" y="30.7" fill="#33235c" class="color23495c svgShape"></rect><path fill="#d33291" d="M23.3 47.3h-8.1c0-1.4.9-2.6 2.1-2.6h3.9C22.4 44.7 23.3 45.9 23.3 47.3zM33.5 17.6H17c-.5 0-.9-.4-.9-.9V4.4c0-.5.4-.9.9-.9h16.5c.5 0 .9.4.9.9v12.2C34.5 17.2 34 17.6 33.5 17.6z" class="colordd4f87 svgShape"></path><path fill="#33235c" d="M28,3.5h-5.5l0.2-2.1c1.8-0.5,3.5-0.5,5.1,0L28,3.5z" class="color23495c svgShape"></path><circle cx="30.3" cy="9.1" r="2" fill="#f4f4f4" class="colorf4f4f4 svgShape"></circle><path fill="#ffd866" d="M30.3,11.2c-1.2,0-2.1-1-2.1-2.1s1-2.1,2.1-2.1c1.2,0,2.1,1,2.1,2.1S31.5,11.2,30.3,11.2z M30.3,7.1
						c-1.1,0-1.9,0.9-1.9,1.9s0.9,1.9,1.9,1.9c1.1,0,1.9-0.9,1.9-1.9S31.4,7.1,30.3,7.1z" class="colorf0ca4d svgShape"></path><circle cx="30.3" cy="9.1" r="1.4" fill="#0a0a0a" class="color000000 svgShape"></circle><circle cx="29.2" cy="8.4" r=".4" fill="#ffffff" class="colorffffff svgShape"></circle><circle cx="29.8" cy="8.8" r=".2" fill="#ffffff" class="colorffffff svgShape"></circle><circle cx="20.2" cy="9.1" r="2" fill="#f4f4f4" class="colorf4f4f4 svgShape"></circle><path fill="#ffd866" d="M20.2,11.2c-1.2,0-2.1-1-2.1-2.1s1-2.1,2.1-2.1c1.2,0,2.1,1,2.1,2.1S21.3,11.2,20.2,11.2z M20.2,7.1
						c-1.1,0-1.9,0.9-1.9,1.9s0.9,1.9,1.9,1.9c1.1,0,1.9-0.9,1.9-1.9S21.2,7.1,20.2,7.1z" class="colorf0ca4d svgShape"></path><circle cx="20.2" cy="9.1" r="1.4" fill="#0a0a0a" class="color000000 svgShape"></circle><circle cx="19" cy="8.4" r=".4" fill="#ffffff" class="colorffffff svgShape"></circle><circle cx="19.7" cy="8.8" r=".2" fill="#ffffff" class="colorffffff svgShape"></circle><polygon fill="#ffd866" points="26.1 11.4 24.4 11.4 24.8 7.1 25.7 7.1" class="colorf0ca4d svgShape"></polygon><rect width=".4" height="2.2" x="29.4" y="5.2" fill="#ffd866" transform="rotate(72.079 29.569 6.316)" class="colorf0ca4d svgShape"></rect><rect width="2.2" height=".4" x="19.8" y="6.1" fill="#ffd866" transform="rotate(17.918 20.887 6.317)" class="colorf0ca4d svgShape"></rect><path fill="#ffffff" d="M30.1,13.8L30,14.4l-0.1,0.4l-0.2,1c-0.1,0.3-0.3,0.6-0.6,0.7c-0.1,0-0.2,0.1-0.3,0.1h-7
				c-0.1,0-0.1,0-0.2,0c-0.4-0.1-0.7-0.4-0.8-0.8l-0.2-1l-0.1-0.4l-0.1-0.6c-0.1-0.5,0.3-1,0.9-1h7.9C29.8,12.9,30.2,13.3,30.1,13.8
				z" class="colorffffff svgShape"></path><path fill="#d33291" d="M25.2,12.6" class="colordd4f87 svgShape"></path><path d="M30,14.4l-0.1,0.4h-0.8v1.7c-0.1,0-0.2,0.1-0.3,0.1h-0.1v-1.8h-1.4v1.8h-0.4v-1.8h-1.4v1.8h-0.4v-1.8h-1.4v1.8h-0.4v-1.8
				H22v1.8h-0.2c-0.1,0-0.1,0-0.2,0v-1.8h-1l-0.1-0.4h1.1v-1.6H22v1.6h1.3v-1.6h0.4v1.6h1.4v-1.6h0.4v1.6h1.4v-1.6h0.4v1.6h1.4v-1.6
				h0.4v1.6H30z" opacity=".2" fill="#0a0a0a" class="color000000 svgShape"></path><path fill="#ffd866" d="M34.5,9.1V8.3h1c0.3,0,0.5,0.2,0.5,0.5v3.5c0,0.3-0.2,0.5-0.5,0.5h-1V9.1L34.5,9.1z" class="colorf0ca4d svgShape"></path><g fill="#0a0a0a" class="color000000 svgShape"><path fill="#d33291" d="M37.4,10.5c0,0.8-0.7,1.5-1.5,1.5V9C36.8,9,37.4,9.7,37.4,10.5z" class="colordd4f87 svgShape"></path></g><g fill="#0a0a0a" class="color000000 svgShape"><circle cx="41.4" cy="2.1" r="1.1" fill="#d33291" class="colordd4f87 svgShape"></circle></g><g fill="#0a0a0a" class="color000000 svgShape"><rect width="9" height="1" x="6.9" y="5.3" fill="#ffd866" transform="rotate(59.476 11.353 5.771)" class="colorf0ca4d svgShape"></rect></g><g fill="#0a0a0a" class="color000000 svgShape"><path fill="#ffd866" d="M16,9.1V8.3h-1c-0.3,0-0.5,0.2-0.5,0.5v3.5c0,0.3,0.2,0.5,0.5,0.5h1V9.1L16,9.1z" class="colorf0ca4d svgShape"></path></g><g fill="#0a0a0a" class="color000000 svgShape"><path fill="#d33291" d="M13,10.5c0,0.8,0.7,1.5,1.5,1.5V9C13.7,9,13,9.7,13,10.5z" class="colordd4f87 svgShape"></path></g><g fill="#0a0a0a" class="color000000 svgShape"><circle cx="9.1" cy="2.1" r="1.1" fill="#d33291" class="colordd4f87 svgShape"></circle></g><g fill="#0a0a0a" class="color000000 svgShape"><rect width="8.7" height="1.8" x="20.9" y="17.6" fill="#33235c" class="color23495c svgShape"></rect></g><g fill="#0a0a0a" class="color000000 svgShape"><path fill="#d33291" d="M34.7,36.2h-19c-0.7,0-1.3-0.6-1.3-1.3V20.8c0-0.7,0.6-1.3,1.3-1.3h19c0.7,0,1.3,0.6,1.3,1.3v14.2
				C36,35.6,35.4,36.2,34.7,36.2z" class="colordd4f87 svgShape"></path></g><g fill="#0a0a0a" class="color000000 svgShape"><path fill="#ffffff" d="M33.1,21.9v11c0,0.5-0.7,1-1.5,1h0c-0.8,0-1.5-0.4-1.5-1c0-0.5,0.7-0.9,1.5-0.9h0v-7.7H18.8v7.7h0
				c0.8,0,1.5,0.4,1.5,0.9c0,0.5-0.7,1-1.5,1h0c-0.8,0-1.5-0.4-1.5-1v-11H33.1z" class="colorffffff svgShape"></path></g><g fill="#0a0a0a" class="color000000 svgShape"><rect width="7.4" height="7.5" x="21.6" y="26.3" fill="#ffffff" class="colorffffff svgShape"></rect><path fill="#674ea7" d="M22.9,32.6c-0.2,0-0.3-0.1-0.3-0.3v-4.4c0-0.2,0.1-0.3,0.3-0.3s0.3,0.1,0.3,0.3v4.4
							C23.3,32.5,23.1,32.6,22.9,32.6z" class="color4f5392 svgShape"></path><path fill="#bc3384" d="M25.3,32.6c-0.2,0-0.3-0.1-0.3-0.3v-4.4c0-0.2,0.1-0.3,0.3-0.3s0.3,0.1,0.3,0.3v4.4
							C25.6,32.5,25.5,32.6,25.3,32.6z" class="colorbc4333 svgShape"></path><path fill="#674ea7" d="M27.6,32.6c-0.2,0-0.3-0.1-0.3-0.3v-4.4c0-0.2,0.1-0.3,0.3-0.3s0.3,0.1,0.3,0.3v4.4
							C27.9,32.5,27.8,32.6,27.6,32.6z" class="color4f5392 svgShape"></path><path fill="#fec009" d="M23.4 29.7h-1c-.2 0-.3-.1-.3-.3s.1-.3.3-.3h1c.2 0 .3.1.3.3S23.6 29.7 23.4 29.7zM28.1 29.7h-1c-.2 0-.3-.1-.3-.3s.1-.3.3-.3h1c.2 0 .3.1.3.3S28.3 29.7 28.1 29.7z" class="colorfecb09 svgShape"></path><path fill="#674ea7" d="M25.8,31h-1c-0.2,0-0.3-0.1-0.3-0.3s0.1-0.3,0.3-0.3h1c0.2,0,0.3,0.1,0.3,0.3S26,31,25.8,31z" class="color4f5392 svgShape"></path></g><g fill="#0a0a0a" class="color000000 svgShape"><ellipse cx="31.4" cy="40.3" fill="#ffd866" rx="2.4" ry="1.2" class="colorf0ca4d svgShape"></ellipse></g><g fill="#0a0a0a" class="color000000 svgShape"><ellipse cx="19.3" cy="40.3" fill="#ffd866" rx="2.4" ry="1.2" class="colorf0ca4d svgShape"></ellipse></g></svg>