<svg xmlns="http://www.w3.org/2000/svg" enable-background="new 0 0 50 50" viewBox="0 0 50 50" id="Robot"><polygon fill="#ffd866" points="40.9 35.2 38.9 34.9 39.6 28.8 36.4 22 38.2 21.1 41.7 28.4" class="colorcecdd2 svgShape"></polygon><path fill="#6d6387" d="M38.3 11h-2.1V7.7h2.1c.2 0 .4.2.4.4v2.5C38.7 10.8 38.5 11 38.3 11zM19.5 11h2.1V7.7h-2.1c-.2 0-.4.2-.4.4v2.5C19.1 10.8 19.2 11 19.5 11zM31.2 2.6v.5h-4.7V2.6c0-.9.7-1.6 1.6-1.6h1.5C30.5 1 31.2 1.7 31.2 2.6z" class="color636587 svgShape"></path><path fill="#674ea7" d="M29.9 31.1c-.9 0-4.3-.5-4.4-.5-.1 0-.4-.9-.4-.9s.7-1.8-.1-2.8c-.8-1 5-1.4 5-1.4l3 1.3c0 0-.7 1.8 0 3.3C33.8 31.5 30.8 31.1 29.9 31.1zM30.1 20.2h-2.4c-.3-1.2-.3-2.4 0-3.5h2.4C30.3 17.8 30.4 19 30.1 20.2zM42 36.8c-.3.2-.7.3-1.1-.1 0 0-.2 1.3-.8 1.5-.1 0-.2 0-.3-.1-.2-.2-.5-.6-.2-1.2-.2.3-.7 1.2-1.3.8 0 0-.8-.6-.1-1.4-.2.2-.5.3-.8.2-.2-.1-.2-.3-.2-.4.2-.4.7-1.4 1.7-1.9.4-.2.9-.2 1.4.1l0 0c.4.2.7.6.8 1.1 0 .1 0 .2 0 .3.1.4.4.6.8.8C42.1 36.6 42.2 36.8 42 36.8z" class="color6f709c svgShape"></path><path fill="#888889" d="M38.5,21.9c0,1.6-1.3,2.8-2.9,2.8v-5.7C37.2,19.1,38.5,20.3,38.5,21.9z" class="color888889 svgShape"></path><circle cx="40.6" cy="29" r="1.6" fill="#674ea7" class="color6f709c svgShape"></circle><path fill="#ffd866" d="M11.7,33.3l5.7-2.3c0.9-0.4,1.6-1.1,1.9-2.1l2.1-6.5l-2.2-0.7l-2.1,6.5c-0.1,0.3-0.3,0.6-0.6,0.7
				l-5.7,2.3L11.7,33.3z" class="colorcecdd2 svgShape"></path><path fill="#674ea7" d="M7.8,32.8c0,0.1,0.1,0.2,0.2,0.3c0.2,0.1,0.7,0.3,1.3-0.2c-0.2,0.2-1.2,1-0.5,1.5c0,0,0.8,0.6,1.3-0.2
				c-0.1,0.2-0.2,0.6,0,0.8c0.1,0.1,0.3,0.2,0.5,0.1c0.4-0.3,1.2-1,1.4-2.1c0.1-0.5-0.1-1-0.4-1.3l0,0c-0.3-0.4-0.8-0.6-1.2-0.6
				c-0.1,0-0.2,0-0.3,0.1c-0.4-0.1-0.7-0.3-0.9-0.6c-0.1-0.1-0.3-0.1-0.3,0.1c-0.1,0.3-0.1,0.8,0.3,1.1C9.1,31.7,7.9,32.2,7.8,32.8z
				" class="color6f709c svgShape"></path><path fill="#888889" d="M19.1,21.9c0,1.6,1.3,2.8,2.9,2.8v-5.7C20.4,19.1,19.1,20.3,19.1,21.9z" class="color888889 svgShape"></path><circle cx="17.5" cy="29.4" r="1.6" fill="#674ea7" class="color6f709c svgShape"></circle><polygon fill="#ffd866" points="36.2 38 32.4 38 32.9 30.9 35.7 30.9" class="colorcecdd2 svgShape"></polygon><polygon fill="#50c878" points="32.4 38.2 36.2 38.2 35.7 43.8 32.9 43.8" class="colora2a2a5 svgShape"></polygon><circle cx="34.3" cy="38.1" r="1.9" fill="#674ea7" class="color6f709c svgShape"></circle><path fill="#c5107b" d="M37,46.2h-5.4v-1.4c0-0.5,0.4-1,1-1H36c0.5,0,1,0.4,1,1V46.2z" class="colorc55410 svgShape"></path><path fill="#674ea7" d="M38.3,49h-8v-1.4c0-0.8,0.6-1.4,1.4-1.4h5.3c0.8,0,1.4,0.6,1.4,1.4V49z" class="color6f709c svgShape"></path><polygon fill="#ffd866" points="25.3 38 21.6 38 22 30.9 24.8 30.9" class="colorcecdd2 svgShape"></polygon><polygon fill="#50c878" points="21.6 38.2 25.3 38.2 24.8 43.8 22 43.8" class="colora2a2a5 svgShape"></polygon><circle cx="23.4" cy="38.1" r="1.9" fill="#674ea7" class="color6f709c svgShape"></circle><path fill="#c5107b" d="M26.1,46.2h-5.4v-1.4c0-0.5,0.4-1,1-1h3.5c0.5,0,1,0.4,1,1V46.2z" class="colorc55410 svgShape"></path><path fill="#674ea7" d="M27.4,49h-8v-1.4c0-0.8,0.6-1.4,1.4-1.4h5.3c0.8,0,1.4,0.6,1.4,1.4V49z" class="color6f709c svgShape"></path><rect width="8" height="1.3" x="30.3" y="47.7" fill="#50c878" class="colora2a2a5 svgShape"></rect><rect width="8" height="1.3" x="19.4" y="47.7" fill="#50c878" class="colora2a2a5 svgShape"></rect><path fill="#ffd866" d="M37.1,8.9c0,4.6-3.7,8.4-8.3,8.4s-8.3-3.8-8.3-8.4s3.7-6.5,8.3-6.5S37.1,4.3,37.1,8.9z" class="colorcecdd2 svgShape"></path><path fill="#746991" d="M36.1,8.9c0,1.4-1.2,2.6-2.6,2.6c-2.2-0.4-6.2-0.5-9.3,0c-1.4,0-2.6-1.2-2.6-2.6s1.2-2.6,2.6-2.6
				c2.7,0.6,6.6,0.4,9.3,0C35,6.3,36.1,7.5,36.1,8.9z" class="color7b6991 svgShape"></path><circle cx="33.5" cy="8.9" r="1.8" fill="#0a0a0a" class="color000000 svgShape"></circle><circle cx="33.5" cy="8.9" r="1.8" fill="#eaeaea" class="coloreaeaea svgShape"></circle><circle cx="33.5" cy="8.9" r="1" fill="#0a0a0a" class="color000000 svgShape"></circle><circle cx="24.2" cy="8.9" r="1.8" fill="#eaeaea" class="coloreaeaea svgShape"></circle><circle cx="24.2" cy="8.9" r="1" fill="#0a0a0a" class="color000000 svgShape"></circle><circle cx="33.5" cy="8.9" r=".4" fill="#eaeaea" class="coloreaeaea svgShape"></circle><circle cx="24.2" cy="8.9" r=".4" fill="#eaeaea" class="coloreaeaea svgShape"></circle><path fill="#50c878" d="M37.1,21.9c-0.4,1.6-1.4,3-2.6,4c-1.3,1-2.9,1.6-4.5,1.6h-2.2c-0.9,0-1.8-0.2-2.6-0.5c0,0,0,0,0,0
				c-2.2-0.8-3.9-2.7-4.5-5.1c0-0.2-0.1-0.4-0.1-0.7c0-1.5,1.2-2.7,2.8-2.7h11.2c0.7,0,1.4,0.3,1.9,0.8C37,19.9,37.4,20.9,37.1,21.9
				z" class="colora2a2a5 svgShape"></path><path fill="#ffd866" d="M37.1 21.9c-.4 1.6-1.4 3-2.6 4-1.3 1-2.9 1.6-4.5 1.6h-2.2c-.9 0-1.8-.2-2.6-.5 0 0 0 0 0 0-1.5-1-2.6-2.5-3.1-4.4-.1-.2-.1-.4-.1-.7 0-1.5 1.2-2.7 2.8-2.7h11.2c.2 0 .3 0 .5 0C37 19.9 37.4 20.9 37.1 21.9zM35.2 31.3c-.3 1.2-1 2.2-2 2.9-1 .7-2.2 1.1-3.5 1.1l-1.7 0c-2.6 0-4.9-1.7-5.5-4 0-.2-.1-.3-.1-.5 0-1.1.9-2 2.1-2l8.6 0C34.6 28.8 35.6 30.1 35.2 31.3z" class="colorcecdd2 svgShape"></path><path fill="#6d6387" d="M29.7,35.8h-1.7c-2.8,0-5.3-1.8-6-4.4c0-0.2-0.1-0.4-0.1-0.6c0-1.4,1.2-2.5,2.6-2.5h8.6
				c0.8,0,1.6,0.4,2.1,1c0.5,0.6,0.6,1.4,0.4,2.1l0,0c-0.3,1.3-1.1,2.4-2.2,3.2C32.4,35.4,31.1,35.8,29.7,35.8z M24.6,29.3
				c-0.9,0-1.6,0.7-1.6,1.5c0,0.1,0,0.2,0.1,0.4c0.6,2.2,2.6,3.7,5,3.7h1.7c1.2,0,2.3-0.4,3.2-1c0.9-0.7,1.6-1.6,1.8-2.7l0,0
				c0.1-0.4,0-0.9-0.3-1.3c-0.3-0.4-0.8-0.6-1.3-0.6H24.6z" class="color636587 svgShape"></path><path fill="#ffffff" d="M34.8,25.1H24.2c0-3,2.4-5.5,5.3-5.5C32.4,19.6,34.8,22,34.8,25.1z" class="colorffffff svgShape"></path><polygon points="29.9 23.4 32.4 21.4 30.2 23.7" fill="#0a0a0a" class="color000000 svgShape"></polygon><circle cx="29.5" cy="23.9" r=".8" fill="#d33291" class="colord5502d svgShape"></circle><path fill="#d33291" d="M29.4,21.5" class="colord5502d svgShape"></path></svg>