<svg xmlns="http://www.w3.org/2000/svg" enable-background="new 0 0 50 50" viewBox="0 0 50 50" id="Robot"><ellipse cx="33.6" cy="8.1" fill="#3b3b3b" rx="1.6" ry="2.3" transform="matrix(.999 .04505 -.04505 .999 .398 -1.507)" class="color1c455b svgShape"></ellipse><ellipse cx="16.5" cy="8.1" fill="#3b3b3b" rx="1.6" ry="2.3" transform="matrix(-.999 .04505 -.04505 -.999 33.358 15.395)" class="color1c455b svgShape"></ellipse><path fill="#01ff56" d="M26.1,30.5c-0.9,0-4.4-0.5-4.5-0.5c-0.1,0-0.4-0.9-0.4-0.9s0.7-1.8-0.1-2.9c-0.8-1,5.1-1.5,5.1-1.5
				l3.1,1.4c0,0-0.8,1.9,0,3.4C30.1,30.9,27.1,30.5,26.1,30.5z" class="color01abff svgShape"></path><path fill="#d33291" d="M26.3,19.3h-2.5c-0.3-1.2-0.3-2.5,0-3.7h2.5C26.6,16.8,26.6,18.1,26.3,19.3z" class="colorc44b45 svgShape"></path><path fill="#01ff56" d="M42.6,32.8l-5.9-2.4c-1-0.4-1.7-1.2-2-2.2l-2.2-6.7l2.2-0.7l2.2,6.7c0.1,0.3,0.3,0.6,0.7,0.7l5.9,2.4
				L42.6,32.8z" class="color01abff svgShape"></path><path fill="#a53778" d="M46.6 32.3c0 .1-.1.2-.2.3-.2.1-.8.3-1.4-.2.2.2 1.2 1 .6 1.5 0 0-.8.6-1.4-.2.1.2.2.6 0 .9-.1.1-.3.2-.5.1-.4-.3-1.3-1-1.5-2.1-.1-.5.1-1 .4-1.4l0 0c.3-.4.8-.6 1.3-.6.1 0 .2 0 .3.1.4-.1.7-.3 1-.6.1-.1.3-.1.3.1.1.3.1.8-.3 1.1C45.3 31.2 46.6 31.6 46.6 32.3zM35 21c0 1.6-1.3 2.9-3 2.9v-5.8C33.6 18.1 35 19.4 35 21z" class="colora53a37 svgShape"></path><ellipse cx="36.6" cy="28.8" fill="#a53778" rx="1.7" ry="1.6" class="colora53a37 svgShape"></ellipse><path fill="#01ff56" d="M7.4,32.8l5.9-2.4c1-0.4,1.7-1.2,2-2.2l2.2-6.7l-2.2-0.7L13,27.6c-0.1,0.3-0.3,0.6-0.7,0.7l-5.9,2.4
				L7.4,32.8z" class="color01abff svgShape"></path><path fill="#a53778" d="M3.4 32.3c0 .1.1.2.2.3.2.1.8.3 1.4-.2-.2.2-1.2 1-.6 1.5 0 0 .8.6 1.4-.2-.1.2-.2.6 0 .9.1.1.3.2.5.1.4-.3 1.3-1 1.5-2.1.1-.5-.1-1-.4-1.4l0 0C7 30.8 6.5 30.6 6 30.6c-.1 0-.2 0-.3.1-.4-.1-.7-.3-1-.6-.1-.1-.3-.1-.3.1-.1.3-.1.8.3 1.1C4.7 31.2 3.4 31.6 3.4 32.3zM15 21c0 1.6 1.3 2.9 3 2.9v-5.8C16.4 18.1 15 19.4 15 21z" class="colora53a37 svgShape"></path><ellipse cx="13.4" cy="28.8" fill="#a53778" rx="1.7" ry="1.6" class="colora53a37 svgShape"></ellipse><polygon fill="#01ff56" points="32.6 37.6 28.8 37.6 29.2 30.3 32.2 30.3" class="color01abff svgShape"></polygon><polygon fill="#01ff56" points="28.8 37.9 32.6 37.9 32.2 43.6 29.2 43.6" class="color01abff svgShape"></polygon><circle cx="30.7" cy="37.8" r="1.9" fill="#4109cf" class="color097ccf svgShape"></circle><path fill="#a53778" d="M33.5,46.1h-5.6v-1.5c0-0.6,0.4-1,1-1h3.6c0.6,0,1,0.4,1,1V46.1z" class="colora53a37 svgShape"></path><path fill="#3b3b3b" d="M34.8,49h-8.3v-1.5c0-0.8,0.6-1.4,1.4-1.4h5.4c0.8,0,1.4,0.6,1.4,1.4V49z" class="color1c455b svgShape"></path><polygon fill="#01ff56" points="21.4 37.6 17.5 37.6 18 30.3 20.9 30.3" class="color01abff svgShape"></polygon><polygon fill="#01ff56" points="17.5 37.9 21.4 37.9 20.9 43.6 18 43.6" class="color01abff svgShape"></polygon><circle cx="19.4" cy="37.8" r="1.9" fill="#4109cf" class="color097ccf svgShape"></circle><path fill="#a53778" d="M22.2,46.1h-5.6v-1.5c0-0.6,0.4-1,1-1h3.6c0.6,0,1,0.4,1,1V46.1z" class="colora53a37 svgShape"></path><path fill="#3b3b3b" d="M23.6,49h-8.3v-1.5c0-0.8,0.6-1.4,1.4-1.4h5.4c0.8,0,1.4,0.6,1.4,1.4V49z" class="color1c455b svgShape"></path><path fill="#01ff56" d="M33.6,7.7c0,4.8-3.8,8.7-8.5,8.7s-8.5-3.9-8.5-8.7S20.4,1,25.1,1S33.6,2.9,33.6,7.7z" class="color01abff svgShape"></path><path fill="#d33291" d="M32.6,7.7c0,1.5-1.2,2.7-2.7,2.7c-0.2,0-0.4-0.1-0.6-0.1c-2.9-0.3-5.6-0.4-8.3,0c-0.2,0-0.5,0.1-0.7,0.1
				c-1.5,0-2.7-1.2-2.7-2.7S18.8,5,20.3,5c0.2,0.1,0.5,0.1,0.7,0.1c2.6,0.4,5.4,0.4,8.2,0c0.2,0,0.5-0.1,0.7-0.1
				C31.4,5,32.6,6.2,32.6,7.7z" class="colorc44b45 svgShape"></path><circle cx="29.9" cy="7.7" r="1.8" fill="#0a0a0a" class="color000000 svgShape"></circle><circle cx="29.9" cy="7.7" r="1.8" fill="#eaeaea" class="coloreaeaea svgShape"></circle><circle cx="29.9" cy="7.7" r="1" fill="#0a0a0a" class="color000000 svgShape"></circle><circle cx="20.3" cy="7.7" r="1.8" fill="#eaeaea" class="coloreaeaea svgShape"></circle><circle cx="20.3" cy="7.7" r="1" fill="#0a0a0a" class="color000000 svgShape"></circle><circle cx="29.9" cy="7.7" r=".4" fill="#eaeaea" class="coloreaeaea svgShape"></circle><circle cx="20.3" cy="7.7" r=".4" fill="#eaeaea" class="coloreaeaea svgShape"></circle><path fill="#4109cf" d="M27.8 13.4h-5.4c-.4 0-.8-.4-.8-.8v0c0-.4.4-.8.8-.8h5.4c.4 0 .8.4.8.8v0C28.6 13.1 28.2 13.4 27.8 13.4zM33.6 21c-.4 1.7-1.4 3.1-2.7 4.1-1.3 1-2.9 1.6-4.7 1.6H24c-3.5 0-6.5-2.4-7.4-5.7-.1-.2-.1-.5-.1-.7 0-1.5 1.2-2.8 2.8-2.8h11.5C32.7 17.5 34 19.2 33.6 21z" class="color097ccf svgShape"></path><path fill="#ffffff" d="M24,26c-3,0-5.7-2-6.4-5c0-0.2-0.1-0.4-0.1-0.5c0-1.2,1-2.2,2.2-2.2h10.7c0.7,0,1.3,0.3,1.7,0.8
				c0.4,0.5,0.6,1.2,0.4,1.9c-0.4,1.4-1.2,2.7-2.3,3.6C29,25.5,27.6,26,26.1,26H24z" class="colorffffff svgShape"></path><path fill="#4109cf" d="M31.6,30.8c-0.3,1.2-1.1,2.3-2.1,3c-1,0.7-2.3,1.2-3.6,1.2l-1.7,0c-2.7,0-5-1.7-5.7-4.2
				c0-0.2-0.1-0.3-0.1-0.5c0-1.1,0.9-2.1,2.2-2.1l8.8,0C30.9,28.2,32,29.5,31.6,30.8z" class="color097ccf svgShape"></path><path fill="#01ff56" d="M26,35.4h-1.7c-2.9,0-5.4-1.9-6.1-4.5c0-0.2-0.1-0.4-0.1-0.6c0-1.4,1.2-2.5,2.7-2.5h8.8
				c0.9,0,1.6,0.4,2.1,1c0.5,0.6,0.6,1.4,0.4,2.1l0,0c-0.3,1.3-1.2,2.5-2.3,3.3C28.8,35,27.4,35.4,26,35.4z M20.7,28.7
				c-0.9,0-1.7,0.7-1.7,1.6c0,0.1,0,0.2,0.1,0.4c0.6,2.2,2.7,3.8,5.2,3.8H26c1.2,0,2.4-0.4,3.3-1.1c0.9-0.7,1.6-1.6,1.9-2.7l0,0
				c0.1-0.4,0-0.9-0.3-1.3c-0.3-0.4-0.8-0.7-1.4-0.7H20.7z" class="color01abff svgShape"></path><g fill="#0a0a0a" class="color000000 svgShape"><path fill="#a53778" d="M27.7,22.2l0.6-0.2l-0.2-1l-0.7,0c-0.1-0.2-0.3-0.5-0.5-0.7l0.3-0.6l-0.8-0.5L26,19.7
				c-0.3-0.1-0.5-0.1-0.8-0.2l-0.2-0.6l-1,0.2l0,0.7c-0.2,0.1-0.5,0.3-0.7,0.5L22.7,20l-0.5,0.8l0.5,0.4c-0.1,0.3-0.1,0.5-0.2,0.8
				l-0.6,0.2l0.2,1l0.7,0c0.1,0.3,0.3,0.5,0.5,0.7l-0.3,0.6l0.8,0.5l0.4-0.5c0.3,0.1,0.5,0.2,0.8,0.2l0.2,0.6l1-0.2l0-0.7
				c0.2-0.1,0.5-0.3,0.7-0.5l0.6,0.3l0.5-0.8L27.5,23C27.6,22.8,27.7,22.5,27.7,22.2z M26.5,23.1c-0.5,0.8-1.6,1-2.4,0.5
				c-0.8-0.5-1-1.6-0.5-2.4c0.5-0.8,1.6-1,2.4-0.5C26.8,21.2,27.1,22.3,26.5,23.1z" class="colora53a37 svgShape"></path></g><g fill="#0a0a0a" class="color000000 svgShape"><path fill="#674ea7" d="M16.1,39.1c0,0.2,0,0.4,0,0.6c0,0.3,0.1,0.6,0.2,0.8h5.6c0,0-0.3-0.3-0.7-0.8c-0.1-0.2-0.3-0.4-0.4-0.6
			c-0.3-0.4-0.5-0.9-0.8-1.4c-0.1-0.2-0.2-0.4-0.2-0.6c-0.2-0.4-0.3-0.9-0.3-1.4c0-0.2,0-0.4,0-0.6c0-0.7,0.3-1.4,0.7-2l-2.3,0.2
			c0,0-0.4,0.8-0.8,1.9c-0.1,0.2-0.1,0.4-0.2,0.6c-0.2,0.4-0.3,0.9-0.4,1.4c-0.1,0.2-0.1,0.4-0.1,0.6C16.2,38.1,16.1,38.6,16.1,39.1
			z" class="color7b6991 svgShape"></path><g opacity=".2" fill="#0a0a0a" class="color000000 svgShape"><path fill="#ffffff" d="M16.8 35.7h2.6c0-.2 0-.4 0-.6H17C17 35.3 16.9 35.5 16.8 35.7zM16.3 37.7H20c-.1-.2-.2-.4-.2-.6h-3.3C16.4 37.3 16.3 37.5 16.3 37.7zM16.1 39.1c0 .2 0 .4 0 .6h5.1c-.1-.2-.3-.4-.4-.6H16.1z" class="colorffffff svgShape"></path></g><ellipse cx="14.5" cy="8.5" fill="#c5107b" rx="1.9" ry="2.6" class="colorc55410 svgShape"></ellipse><ellipse cx="35.5" cy="8.5" fill="#c5107b" rx="1.9" ry="2.6" class="colorc55410 svgShape"></ellipse><rect width="4.3" height="1.9" x="11.4" y="20.3" fill="#343434" class="color343434 svgShape"></rect><path fill="#50c878" d="M13.4,20.3l-2.5,7.3l-2.2-0.1C8.6,27.5,8.1,16.8,13.4,20.3z" class="colora2a2a5 svgShape"></path><polygon fill="#50c878" points="10.9 28.7 8.9 29.3 10.6 35.4 11.7 34.8" class="colora2a2a5 svgShape"></polygon><circle cx="9.7" cy="28.2" r="1.3" fill="#674ea7" class="color7b6991 svgShape"></circle><circle cx="9.7" cy="28.2" r=".8" fill="#ffffff" class="colorffffff svgShape"></circle><path fill="#674ea7" d="M10.6,35.4l1.1-0.7c1.6,0.4,1.9,1.2,1.9,1.2c-0.2,0.5-1.5-0.4-1.5-0.4c-0.6,0,0.5,0.9,0.5,0.9
			c0.9,0.8,0.5,1.2,0.5,1.2c-0.5,0.3-1.5-1.7-1.5-1.7c-0.6-0.4,0.1,2.1,0.1,2.1C11.1,38.7,10.6,35.4,10.6,35.4z" class="color7b6991 svgShape"></path><rect width="4.3" height="1.9" x="33.1" y="20.3" fill="#343434" class="color343434 svgShape"></rect><rect width="5.4" height="3.4" x="22.3" y="13.3" fill="#674ea7" class="color7b6991 svgShape"></rect><path fill="#674ea7" d="M34,39.1c0,0.2,0,0.4,0,0.6c0,0.3-0.1,0.6-0.2,0.8h-5.6c0,0,0.3-0.3,0.7-0.8c0.1-0.2,0.3-0.4,0.4-0.6
			c0.3-0.4,0.5-0.9,0.8-1.4c0.1-0.2,0.2-0.4,0.2-0.6c0.2-0.4,0.3-0.9,0.3-1.4c0-0.2,0-0.4,0-0.6c0-0.7-0.3-1.4-0.7-2l2.3,0.2
			c0,0,0.4,0.8,0.8,1.9c0.1,0.2,0.1,0.4,0.2,0.6c0.2,0.4,0.3,0.9,0.4,1.4c0.1,0.2,0.1,0.4,0.1,0.6C33.9,38.1,34,38.6,34,39.1z" class="color7b6991 svgShape"></path><rect width="5.6" height="6" x="28.2" y="40.5" fill="#50c878" class="colora2a2a5 svgShape"></rect><path fill="#61577a" d="M33.7,46.5h-5.4c-0.7,0-1.3,0.6-1.3,1.3v0c0,0.7,0.6,1.3,1.3,1.3h5.4c0.7,0,1.3-0.6,1.3-1.3v0
			C35,47.1,34.4,46.5,33.7,46.5z" class="color57597a svgShape"></path><rect width="5.6" height="6" x="16.3" y="40.5" fill="#50c878" class="colora2a2a5 svgShape"></rect><path fill="#61577a" d="M16.4,46.5h5.4c0.7,0,1.3,0.6,1.3,1.3v0c0,0.7-0.6,1.3-1.3,1.3h-5.4c-0.7,0-1.3-0.6-1.3-1.3v0
			C15.1,47.1,15.7,46.5,16.4,46.5z" class="color57597a svgShape"></path><path fill="#ffd866" d="M35.6,3v9.8c0,1.1-4.7,2-10.6,2c-5.8,0-10.6-0.9-10.6-2V3c0-1.1,4.7-2,10.6-2C30.9,1,35.6,1.9,35.6,3z" class="colorcecdd2 svgShape"></path><path fill="#50c878" d="M35.6,3v0.3c0,1.1-4.7,2-10.6,2c-5.8,0-10.6-0.9-10.6-2V3c0-1.1,4.7-2,10.6-2C30.9,1,35.6,1.9,35.6,3z" class="colora2a2a5 svgShape"></path><circle cx="30.6" cy="9.7" r="3" fill="#ffffff" class="colorffffff svgShape"></circle><circle cx="30.5" cy="9.7" r="2.2" fill="#674ea7" class="color7b6991 svgShape"></circle><circle cx="30.6" cy="9.7" r="1.2" fill="#343434" class="color343434 svgShape"></circle><ellipse cx="29.8" cy="9" fill="#ffffff" rx=".6" ry=".4" class="colorffffff svgShape"></ellipse><circle cx="19.5" cy="9.7" r="3" fill="#ffffff" class="colorffffff svgShape"></circle><circle cx="19.4" cy="9.7" r="2.2" fill="#674ea7" class="color7b6991 svgShape"></circle><circle cx="19.5" cy="9.7" r="1.2" fill="#343434" class="color343434 svgShape"></circle><ellipse cx="18.7" cy="9" fill="#ffffff" rx=".6" ry=".4" class="colorffffff svgShape"></ellipse><path fill="#50c878" d="M32.4,34.3H17.7c-0.3,0-0.6-0.3-0.7-0.6l-2.4-13c0-0.3,0.1-0.6,0.3-0.7c6.6-4.9,13.9-5.1,20.3,0
			c0.2,0.2,0.3,0.4,0.3,0.7l-2.4,13C33,34.1,32.7,34.3,32.4,34.3z" class="colora2a2a5 svgShape"></path><path fill="#ffd866" d="M18.1,33.1l-2.2-12.3c3-2.2,6.2-3.3,9.4-3.3c3.1,0,6.2,1.1,9,3.3L32,33.1H18.1z" class="colorcecdd2 svgShape"></path><path fill="#50c878" d="M36.6,22.2l2.5-7.3l2.2,0.1C41.4,15.1,41.9,25.7,36.6,22.2z" class="colora2a2a5 svgShape"></path><polygon fill="#50c878" points="39.1 13.8 41.1 13.3 39.4 7.1 38.3 7.8" class="colora2a2a5 svgShape"></polygon><circle cx="40.3" cy="14.3" r="1.3" fill="#674ea7" class="color7b6991 svgShape"></circle><circle cx="40.3" cy="14.3" r=".8" fill="#ffffff" class="colorffffff svgShape"></circle><path fill="#ffd866" d="M38.7,4.6" class="colorcecdd2 svgShape"></path><path fill="#674ea7" d="M39.4,7.1l-1.1,0.7c-1.6-0.4-1.9-1.2-1.9-1.2C36.6,6.1,37.9,7,37.9,7c0.6,0-0.5-0.9-0.5-0.9
			c-0.9-0.8-0.5-1.2-0.5-1.2c0.5-0.3,1.5,1.7,1.5,1.7c0.6,0.4-0.1-2.1-0.1-2.1C38.9,3.8,39.4,7.1,39.4,7.1z" class="color7b6991 svgShape"></path><path fill="#c5107b" d="M31.5,25.4H18.6c0-3.7,2.9-6.7,6.5-6.7c1,0,2,0.2,2.8,0.7C30,20.5,31.5,22.8,31.5,25.4z" class="colorc55410 svgShape"></path><path fill="#ffffff" d="M31.5,25.4H19.3c0-1,0.3-1.9,0.7-2.7v0c0.1-0.1,0.1-0.2,0.2-0.4c0.5-0.8,1.1-1.6,1.9-2.1
			c0.1-0.1,0.2-0.2,0.3-0.2c0.8-0.5,1.8-0.9,2.8-1c0.1,0,0.3,0,0.4,0c0.1,0,0.1,0,0.2,0c0.7,0,1.4,0.1,2.1,0.4
			c0.2,0.1,0.4,0.2,0.7,0.4c0.1,0.1,0.2,0.1,0.3,0.2c0.8,0.6,1.4,1.4,1.9,2.3c0.1,0.1,0.1,0.2,0.2,0.4
			C31.3,23.5,31.5,24.4,31.5,25.4z" class="colorffffff svgShape"></path><path fill="#61577a" d="M18.6,25.4h12.9c0,1-0.3,1.9-0.7,2.7v0c-0.1,0.1-0.1,0.2-0.2,0.4c-0.5,0.8-1,1.7-1.8,2.3
			c-0.1,0.1-0.2,0.2-0.3,0.2c-0.8,0.5-2.6,0.7-3.7,0.8c-0.1,0-0.3,0-0.4,0c-0.1,0-0.1,0-0.2,0c-0.7,0-1.4-0.1-2.1-0.4
			c-0.2-0.1-0.4-0.2-0.7-0.4c-0.1-0.1-0.2-0.1-0.3-0.2c-0.8-0.6-1.4-1.4-1.9-2.3c-0.1-0.1-0.1-0.2-0.2-0.4
			C18.8,27.4,18.6,26.4,18.6,25.4z" class="color57597a svgShape"></path><polygon points="27.1 20.3 25.4 23.7 24.9 23.5" fill="#0a0a0a" class="color000000 svgShape"></polygon><path fill="#372760" d="M26.1,24.1c0,0.5-0.5,1-1,1c-0.6,0-1-0.4-1-1c0-0.5,0.5-1,1-1C25.6,23.1,26.1,23.5,26.1,24.1z" class="color275f60 svgShape"></path><g fill="#0a0a0a" class="color000000 svgShape"><path fill="#d52d90" d="M24.9,21.1" class="colord5502d svgShape"></path></g><g fill="#0a0a0a" class="color000000 svgShape"><path fill="#e9078c" d="M20.9,23.2l-0.3,0.2L20,22.7v0c0.1-0.1,0.1-0.2,0.2-0.4L20.9,23.2z" class="colore94f07 svgShape"></path></g><g fill="#0a0a0a" class="color000000 svgShape"><path fill="#e9078c" d="M23,21.7l-0.4,0.1l-0.6-1.6c0.1-0.1,0.2-0.2,0.3-0.2L23,21.7z" class="colore94f07 svgShape"></path></g><g fill="#0a0a0a" class="color000000 svgShape"><path fill="#e9078c" d="M25.6,19v2h-0.4v-2C25.3,19,25.5,19,25.6,19z" class="colore94f07 svgShape"></path></g><g fill="#0a0a0a" class="color000000 svgShape"><path fill="#e9078c" d="M28.8,20l-0.6,1.5l-0.4-0.1l0.6-1.6C28.6,19.8,28.7,19.9,28.8,20z" class="colore94f07 svgShape"></path></g><g fill="#0a0a0a" class="color000000 svgShape"><path fill="#e9078c" d="M30.9,22.6l-0.7,0.8l-0.3-0.2l0.8-1C30.8,22.4,30.9,22.5,30.9,22.6z" class="colore94f07 svgShape"></path></g><g opacity=".2" fill="#0a0a0a" class="color000000 svgShape"><path fill="#ffffff" d="M33.2 35.7h-2.6c0-.2 0-.4 0-.6H33C33.1 35.3 33.2 35.5 33.2 35.7zM33.8 37.7h-3.7c.1-.2.2-.4.2-.6h3.3C33.7 37.3 33.8 37.5 33.8 37.7zM34 39.1c0 .2 0 .4 0 .6h-5.1c.1-.2.3-.4.4-.6H34z" class="colorffffff svgShape"></path></g></g></svg>