<svg xmlns="http://www.w3.org/2000/svg" enable-background="new 0 0 50 50" viewBox="0 0 50 50" id="Robot"><path fill="#674ea7" d="M10.6,11.8c2.1-10,1.9-7.8,5.2-7.9c0.3,0,7.3-0.9,8.9-2c0.3-0.2,0.7-0.6,1.3-0.8c2.3-0.7,1.3,2.7,4.6,1.8
				c1.6-0.4,3.2-1.9,5.4-1c0.9,0.4,1.7,1,2.2,1.9c1,1.8-0.3,2.1,1.5,5.1c0.5,0.8,0.9,1.6,1.4,2.3c-1.7-2.2-2.6-3.5-2.8-4.6
				c-0.1-0.7,0.1-3.1-2.5-4c-3.2-1.1-5.4,3.8-8.8-0.4c-0.5-0.6-0.8-0.2-1.6,0.3c-1.8,1.2-8.6,1.9-9.4,1.9C12.3,4.6,14,2.3,10.6,11.8
				z" class="color7b6991 svgShape"></path><path fill="#a2a5a3" d="M13.6,24.7l-5.5,5.7l-2-1.1C6.1,29.4,10.3,19.2,13.6,24.7z" class="colora2a2a5 svgShape"></path><polygon fill="#a2a5a3" points="7.6 31.5 5.5 31.1 4.4 37.6 5.8 37.5" class="colora2a2a5 svgShape"></polygon><circle cx="6.7" cy="30.5" r="1.3" fill="#674ea7" class="color7b6991 svgShape"></circle><circle cx="6.7" cy="30.5" r=".8" fill="#ffffff" class="colorffffff svgShape"></circle><path fill="#d2d1cd" d="M4,40.3" class="colorcecdd2 svgShape"></path><path fill="#674ea7" d="M4.4 37.6l1.3-.1C7.1 38.5 7 39.4 7 39.4c-.4.3-1.2-1-1.2-1-.6-.3.1 1.1.1 1.1.5 1.2-.1 1.3-.1 1.3-.6.1-.7-2.2-.7-2.2-.3-.7-.8 2-.8 2C3.5 40.9 4.4 37.6 4.4 37.6zM12 24.6c0-.8.7-1.5 1.7-1.5.9 0 1.7.7 1.7 1.5 0 .8-.7 1.5-1.7 1.5C12.7 26.1 12 25.4 12 24.6z" class="color7b6991 svgShape"></path><path fill="#a2a5a3" d="M36.4,24.7l5.5,5.7l2-1.1C43.9,29.4,39.7,19.2,36.4,24.7z" class="colora2a2a5 svgShape"></path><polygon fill="#a2a5a3" points="42.4 31.5 44.5 31.1 45.6 37.6 44.2 37.5" class="colora2a2a5 svgShape"></polygon><circle cx="43.3" cy="30.5" r="1.3" fill="#674ea7" class="color7b6991 svgShape"></circle><circle cx="43.3" cy="30.5" r=".8" fill="#ffffff" class="colorffffff svgShape"></circle><path fill="#d2d1cd" d="M46,40.3" class="colorcecdd2 svgShape"></path><path fill="#674ea7" d="M45.6 37.6l-1.3-.1c-1.3 1.1-1.2 1.9-1.2 1.9.4.3 1.2-1 1.2-1 .6-.3-.1 1.1-.1 1.1-.5 1.2.1 1.3.1 1.3.6.1.7-2.2.7-2.2.3-.7.8 2 .8 2C46.5 40.9 45.6 37.6 45.6 37.6zM38 24.6c0-.8-.7-1.5-1.7-1.5-.9 0-1.7.7-1.7 1.5 0 .8.7 1.5 1.7 1.5C37.3 26.1 38 25.4 38 24.6z" class="color7b6991 svgShape"></path><path fill="#a2a5a3" d="M30,23.1h-9.3c0.9-0.8,1.1-1.6,0-2.5H30C29,21.4,29.2,22.2,30,23.1z" class="colora2a2a5 svgShape"></path><rect width="3.3" height=".8" x="10.7" y="11.4" fill="#674ea7" class="color7b6991 svgShape"></rect><path fill="#ffd866" d="M14.3,14.1h1.4V9.5h-1.4c-0.5,0-1,0.4-1,1v2.7C13.4,13.7,13.8,14.1,14.3,14.1z" class="colorb7b7b7 svgShape"></path><circle cx="10.8" cy="11.8" r="1.3" fill="#ffd866" class="colorb7b7b7 svgShape"></circle><rect width="3.3" height=".8" x="37.1" y="11.4" fill="#674ea7" class="color7b6991 svgShape"></rect><path fill="#ffd866" d="M36.7,14.1h-1.4V9.5h1.4c0.5,0,1,0.4,1,1v2.7C37.7,13.7,37.3,14.1,36.7,14.1z" class="colorb7b7b7 svgShape"></path><path fill="#a2a5a3" d="M34,46h-5.8v-1.5c0-0.6,0.5-1,1-1H33c0.6,0,1,0.5,1,1V46z" class="colora2a2a5 svgShape"></path><path fill="#61577a" d="M35.4,49h-8.5v-1.5c0-0.8,0.7-1.5,1.5-1.5h5.6c0.8,0,1.5,0.7,1.5,1.5V49z" class="color57597a svgShape"></path><path fill="#a2a5a3" d="M22.5,46h-5.8v-1.5c0-0.6,0.5-1,1-1h3.7c0.6,0,1,0.5,1,1V46z" class="colora2a2a5 svgShape"></path><path fill="#61577a" d="M23.8,49h-8.5v-1.5c0-0.8,0.7-1.5,1.5-1.5h5.6c0.8,0,1.5,0.7,1.5,1.5V49z" class="color57597a svgShape"></path><path fill="#674ea7" d="M36.2,18.4L36.2,18.4c-0.6,1.3-1.9,2.2-3.3,2.2H17.9c-1.4,0-2.7-0.8-3.3-2.1l0-0.1
				c-0.3-0.6-0.4-1.4-0.3-2.1l0.9-6.7c0.3-2.1,2.1-3.6,4.1-3.6h12.1c2.1,0,3.9,1.6,4.1,3.6l0.9,6.7C36.5,17.2,36.4,17.8,36.2,18.4z" class="color7b6991 svgShape"></path><ellipse cx="29.9" cy="12.6" fill="#ffffff" rx="2.7" ry="2.8" class="colorffffff svgShape"></ellipse><ellipse cx="29.9" cy="12.6" fill="#ffd866" rx="2" ry="2.1" class="colorb7b7b7 svgShape"></ellipse><circle cx="29.9" cy="12.6" r="1.1" fill="#343434" class="color343434 svgShape"></circle><ellipse cx="20.8" cy="12.6" fill="#ffffff" rx="2.7" ry="2.8" class="colorffffff svgShape"></ellipse><ellipse cx="20.8" cy="12.6" fill="#ffd866" rx="2" ry="2.1" class="colorb7b7b7 svgShape"></ellipse><circle cx="20.8" cy="12.6" r="1.1" fill="#343434" class="color343434 svgShape"></circle><circle cx="29.4" cy="11.8" r=".4" fill="#ffffff" class="colorffffff svgShape"></circle><circle cx="20.1" cy="11.8" r=".4" fill="#ffffff" class="colorffffff svgShape"></circle><circle cx="40.3" cy="11.8" r="1.3" fill="#ffd866" class="colorb7b7b7 svgShape"></circle><path fill="#ffd866" d="M35,39.4H15.7c-0.4,0-0.8-0.3-0.8-0.7l-1-14.8c0-0.5,0.3-0.8,0.8-0.8h21.4c0.5,0,0.8,0.4,0.8,0.8l-1,14.8
				C35.8,39.1,35.5,39.4,35,39.4z" class="colorb7b7b7 svgShape"></path><rect width="3.6" height="4" x="29.3" y="39.4" fill="#674ea7" class="color7b6991 svgShape"></rect><rect width="3.6" height="4" x="17.8" y="39.4" fill="#674ea7" class="color7b6991 svgShape"></rect><path fill="#37295c" d="M35.4,25.8c-0.4,0.4-1,0.4-1.4,0.1c0,0-0.1,0-0.1-0.1c0,0-0.1-0.1-0.1-0.1c-0.4-0.4-0.3-1,0.1-1.4
				c0.4-0.4,1-0.4,1.4-0.1c0,0,0.1,0,0.1,0.1c0,0,0.1,0.1,0.1,0.1C35.8,24.8,35.8,25.4,35.4,25.8z" class="color29485c svgShape"></path><path fill="#ffffff" d="M35.5,24.3L34,25.9c0,0-0.1,0-0.1-0.1c0,0-0.1-0.1-0.1-0.1l1.5-1.5C35.3,24.2,35.4,24.2,35.5,24.3
				C35.4,24.3,35.5,24.3,35.5,24.3z" class="colorffffff svgShape"></path><path fill="#37295c" d="M16.9,25.8c-0.4,0.4-1,0.4-1.4,0.1c0,0-0.1,0-0.1-0.1c0,0-0.1-0.1-0.1-0.1c-0.4-0.4-0.3-1,0.1-1.4
				c0.4-0.4,1-0.4,1.4-0.1c0,0,0.1,0,0.1,0.1c0,0,0.1,0.1,0.1,0.1C17.3,24.8,17.3,25.4,16.9,25.8z" class="color29485c svgShape"></path><g fill="#0a0a0a" class="color000000 svgShape"><path fill="#ffffff" d="M16.9,24.3l-1.5,1.5c0,0-0.1,0-0.1-0.1c0,0-0.1-0.1-0.1-0.1l1.5-1.5C16.8,24.2,16.8,24.2,16.9,24.3
				C16.9,24.3,16.9,24.3,16.9,24.3z" class="colorffffff svgShape"></path></g><g fill="#0a0a0a" class="color000000 svgShape"><path fill="#37295c" d="M34.5,38.3c-0.4,0.4-0.9,0.4-1.3,0.1c0,0-0.1,0-0.1-0.1c0,0,0,0-0.1-0.1c-0.3-0.4-0.3-0.9,0.1-1.3
				c0.4-0.4,0.9-0.4,1.3-0.1c0,0,0.1,0,0.1,0.1c0,0,0,0,0.1,0.1C34.8,37.4,34.8,38,34.5,38.3z" class="color29485c svgShape"></path></g><g fill="#0a0a0a" class="color000000 svgShape"><path fill="#ffffff" d="M34.5,37l-1.4,1.4c0,0-0.1,0-0.1-0.1c0,0,0,0-0.1-0.1l1.4-1.4C34.4,36.9,34.4,36.9,34.5,37
				C34.5,36.9,34.5,37,34.5,37z" class="colorffffff svgShape"></path></g><g fill="#0a0a0a" class="color000000 svgShape"><path fill="#37295c" d="M17.7,38.3c-0.4,0.4-0.9,0.4-1.3,0.1c0,0-0.1,0-0.1-0.1c0,0,0,0-0.1-0.1c-0.3-0.4-0.3-0.9,0.1-1.3
				c0.4-0.4,0.9-0.4,1.3-0.1c0,0,0.1,0,0.1,0.1c0,0,0,0,0.1,0.1C18.1,37.4,18,38,17.7,38.3z" class="color29485c svgShape"></path></g><g fill="#0a0a0a" class="color000000 svgShape"><path fill="#ffffff" d="M17.7,37l-1.4,1.4c0,0-0.1,0-0.1-0.1c0,0,0,0-0.1-0.1l1.4-1.4C17.6,36.9,17.6,36.9,17.7,37
				C17.7,36.9,17.7,37,17.7,37z" class="colorffffff svgShape"></path></g><g fill="#0a0a0a" class="color000000 svgShape"><path fill="#ffd866" d="M27.8,17.6c0,0.9-1.1,1.6-2.4,1.6c-1.4,0-2.4-0.7-2.4-1.6c0-0.9,1.1-1.6,2.4-1.6
				C26.7,16,27.8,16.7,27.8,17.6z" class="colorb7b7b7 svgShape"></path></g><g fill="#0a0a0a" class="color000000 svgShape"><path fill="#ffd866" d="M27.5,8.9c-0.1-0.2,0.1-0.4,0.3-0.4l3.7-1c0.2-0.1,0.4,0.1,0.4,0.3c0.1,0.2-0.1,0.4-0.3,0.4l-3.7,1
				C27.8,9.2,27.6,9.1,27.5,8.9z" class="colorb7b7b7 svgShape"></path></g><g fill="#0a0a0a" class="color000000 svgShape"><path fill="#ffd866" d="M22.6,9.2l-3.7-1c-0.2-0.1-0.3-0.2-0.3-0.4c0.1-0.2,0.3-0.3,0.4-0.3l3.7,1C22.9,8.5,23,8.7,23,8.9
				C22.9,9.1,22.7,9.2,22.6,9.2z" class="colorb7b7b7 svgShape"></path></g><g fill="#0a0a0a" class="color000000 svgShape"><path fill="#ffffff" d="M34.3,34.7h-18c-0.3,0-0.6-0.3-0.6-0.6v-5.6c0-0.3,0.3-0.6,0.6-0.6h18c0.3,0,0.6,0.3,0.6,0.6v5.6
				C35,34.4,34.7,34.7,34.3,34.7z" class="colorffffff svgShape"></path></g><g fill="#0a0a0a" class="color000000 svgShape"><circle cx="18.9" cy="31.3" r="2.4" fill="#3b3b3b" class="color1c455b svgShape"></circle><circle cx="18.9" cy="30.4" r=".7" fill="#ffffff" class="colorffffff svgShape"></circle><circle cx="20.2" cy="31.8" r=".7" fill="#ffffff" class="colorffffff svgShape"></circle><circle cx="17.6" cy="31.8" r=".7" fill="#ffffff" class="colorffffff svgShape"></circle><g fill="#0a0a0a" class="color000000 svgShape"><circle cx="25.4" cy="31.3" r="2.4" fill="#50c878" class="color2496a8 svgShape"></circle><circle cx="25.4" cy="30.4" r=".7" fill="#ffffff" class="colorffffff svgShape"></circle><circle cx="26.7" cy="31.8" r=".7" fill="#ffffff" class="colorffffff svgShape"></circle><circle cx="24.1" cy="31.8" r=".7" fill="#ffffff" class="colorffffff svgShape"></circle></g><g fill="#0a0a0a" class="color000000 svgShape"><circle cx="31.9" cy="31.3" r="2.4" fill="#d33291" class="colora53a37 svgShape"></circle><circle cx="31.9" cy="30.4" r=".7" fill="#ffffff" class="colorffffff svgShape"></circle><circle cx="33.1" cy="31.8" r=".7" fill="#ffffff" class="colorffffff svgShape"></circle><circle cx="30.6" cy="31.8" r=".7" fill="#ffffff" class="colorffffff svgShape"></circle></g></g></svg>