<svg xmlns="http://www.w3.org/2000/svg" enable-background="new 0 0 50 50" viewBox="0 0 50 50" id="Robot"><path fill="#674ea7" d="M13.7 30.8h3.5v-2.1h-3c-.2 0-.4.2-.4.4l-.5 1.3C13.3 30.6 13.4 30.8 13.7 30.8zM36.3 30.8h-3.5v-2.1h3c.2 0 .4.2.4.4l.5 1.3C36.7 30.6 36.6 30.8 36.3 30.8z" class="color29485c svgShape"></path><path fill="#ffd866" d="M40.6 36.4l-3.2.5L36 28.7C38.2 30 39.7 32.4 40.6 36.4zM14 28.7l-1.3 8.2-3.2-.5C10.3 32.4 11.8 30 14 28.7z" class="colorfdcc5a svgShape"></path><path fill="#674ea7" d="M32.2,47.5h-3.8v-9.7C30.6,39.7,32,42.8,32.2,47.5z" class="color29485c svgShape"></path><path fill="#0a0a0a" d="M32.8,49h-5c0-1.4,1.1-2.5,2.5-2.5C31.7,46.5,32.8,47.6,32.8,49z" class="color016dc1 svgShape"></path><path fill="#674ea7" d="M19.2,47.5H23v-9.7C20.8,39.7,19.4,42.8,19.2,47.5z" class="color29485c svgShape"></path><path fill="#0a0a0a" d="M18.6,49h5c0-1.4-1.1-2.5-2.5-2.5C19.7,46.5,18.6,47.6,18.6,49z" class="color016dc1 svgShape"></path><rect width="5.4" height="1.4" x="23" y="26.7" fill="#674ea7" class="color29485c svgShape"></rect><path fill="#50c878" d="M39 15.5c0 1.9-1.5 3.5-3.5 3.5v-6.9C37.5 12.1 39 13.6 39 15.5zM12.3 15.5c0 1.9 1.5 3.5 3.5 3.5v-6.9C13.9 12.1 12.3 13.6 12.3 15.5z" class="color93cc07 svgShape"></path><path fill="#0a0a0a" d="M35.6,11.5v15.2H15.8V11.5c0-5.5,4.4-9.9,9.9-9.9c1.4,0,2.8,0.3,4,0.9c1.1,0.5,2.1,1.2,3,2
			C34.4,6.3,35.6,8.8,35.6,11.5z" class="color016dc1 svgShape"></path><path fill="#674ea7" d="M31.9,16.4H19.4c-0.5,0-1-0.4-1-1V12c0-0.5,0.4-1,1-1h12.5c0.5,0,1,0.4,1,1v3.5
				C32.9,16,32.5,16.4,31.9,16.4z" class="color29485c svgShape"></path><path fill="#d33291" d="M31.9,16.7H19.4c-0.7,0-1.2-0.5-1.2-1.2V12c0-0.7,0.5-1.2,1.2-1.2h12.5c0.7,0,1.2,0.5,1.2,1.2v3.5
				C33.1,16.1,32.6,16.7,31.9,16.7z M19.4,11.3c-0.4,0-0.7,0.3-0.7,0.7v3.5c0,0.4,0.3,0.7,0.7,0.7h12.5c0.4,0,0.7-0.3,0.7-0.7V12
				c0-0.4-0.3-0.7-0.7-0.7H19.4z" class="colorffffff svgShape"></path><path fill="#d33291" d="M31.6,14H19.7c-0.1,0-0.2-0.1-0.2-0.2c0-0.1,0.1-0.2,0.2-0.2h11.9c0.1,0,0.2,0.1,0.2,0.2
			C31.9,13.9,31.8,14,31.6,14z" class="colorffffff svgShape"></path><rect width=".9" height="10.8" x="36.8" y="2.5" fill="#50c878" class="color93cc07 svgShape"></rect><circle cx="37.3" cy="2.3" r="1.3" fill="#50c878" class="color93cc07 svgShape"></circle><circle cx="18.2" cy="23.2" r="1.3" fill="#50c878" class="color93cc07 svgShape"></circle><path fill="#50c878" d="M20.3 21.5c-.1 0-.2-.1-.2-.2v-2.1c0-.1.1-.2.2-.2.1 0 .2.1.2.2v2.1C20.5 21.4 20.4 21.5 20.3 21.5zM23 21.5c-.1 0-.2-.1-.2-.2v-2.1c0-.1.1-.2.2-.2.1 0 .2.1.2.2v2.1C23.2 21.4 23.1 21.5 23 21.5zM25.7 21.5c-.1 0-.2-.1-.2-.2v-2.1c0-.1.1-.2.2-.2.1 0 .2.1.2.2v2.1C25.9 21.4 25.8 21.5 25.7 21.5zM28.4 21.5c-.1 0-.2-.1-.2-.2v-2.1c0-.1.1-.2.2-.2s.2.1.2.2v2.1C28.6 21.4 28.5 21.5 28.4 21.5zM31.1 21.5c-.1 0-.2-.1-.2-.2v-2.1c0-.1.1-.2.2-.2s.2.1.2.2v2.1C31.3 21.4 31.2 21.5 31.1 21.5zM18.2 23.8h-7.6c-.3 0-.5-.2-.5-.5v-8c0-.3.2-.5.5-.5h2.6c.3 0 .5.2.5.5s-.2.5-.5.5h-2.1v7.1h7.1c.3 0 .5.2.5.5C18.6 23.6 18.4 23.8 18.2 23.8z" class="color93cc07 svgShape"></path><polygon fill="#0a0a0a" points="32 40.7 19.3 40.7 16.6 28.1 34.8 28.1" class="color016dc1 svgShape"></polygon><rect width="9.8" height="8.3" x="20.8" y="30.6" fill="#50c878" class="color93cc07 svgShape"></rect><path fill="#d33291" d="M26.7 36.5v-.8l-.5-.1c-.1-.2-.1-.4-.3-.6l.3-.4L25.7 34l-.4.3c-.2-.1-.4-.2-.6-.2l-.1-.5h-.8L23.7 34c-.2 0-.4.1-.6.2L22.6 34 22 34.6l.3.4c-.1.2-.2.4-.3.6l-.5.1v.8l.5.1c.1.2.1.4.3.6L22 37.6l.6.6.4-.3c.2.1.4.2.6.3l.1.5h.8l.1-.5c.2-.1.4-.1.6-.3l.4.3.6-.6L26 37.2c.1-.2.2-.4.3-.6L26.7 36.5zM24.2 37.5c-.8 0-1.4-.6-1.4-1.4s.6-1.4 1.4-1.4c.8 0 1.4.6 1.4 1.4S24.9 37.5 24.2 37.5zM29.8 34.5V34l-.3-.1c0-.1-.1-.3-.2-.4l.2-.3-.4-.4L28.8 33c-.1-.1-.3-.1-.4-.2l-.1-.4h-.5l-.1.4c-.1 0-.3.1-.4.2L27 32.8l-.4.4.2.3c-.1.1-.1.3-.2.4L26.3 34v.5l.3.1c0 .1.1.3.2.4l-.2.3.4.4.3-.2c.1.1.3.1.4.2l.1.4h.5l.1-.4c.1 0 .3-.1.4-.2l.3.2.4-.4L29.3 35c.1-.1.1-.3.2-.4L29.8 34.5zM28.1 35.2c-.5 0-.9-.4-.9-.9s.4-.9.9-.9c.5 0 .9.4.9.9S28.6 35.2 28.1 35.2zM26.4 32.2c0-.1 0-.2 0-.3l.2-.2-.2-.4-.3.1c-.1-.1-.2-.2-.3-.2l0-.3-.4-.1-.1.3c-.1 0-.2 0-.4 0l-.2-.2-.4.2.1.3c-.1.1-.2.2-.2.3l-.3 0-.1.4.3.1c0 .1 0 .2 0 .3L24 32.7l.2.4.3-.1c.1.1.2.2.3.2l0 .3.4.1.1-.3c.1 0 .2 0 .3 0l.2.2.4-.2L26.1 33c.1-.1.2-.2.2-.3l.3 0 .1-.4L26.4 32.2zM26 32.4c-.1.4-.5.6-.9.5-.4-.1-.6-.5-.5-.9.1-.4.5-.6.9-.5C25.9 31.6 26.1 32 26 32.4z" class="colorffffff svgShape"></path><path fill="#0a0a0a" d="M13.3 39.5l-.9-.2c.2-1.4-.5-2.4-1.4-2.5-1-.2-1.9.7-2.1 2l-.9-.2c.3-1.8 1.7-3 3.2-2.7C12.7 36.1 13.6 37.8 13.3 39.5zM36.7 39.5c-.3-1.7.6-3.4 2.2-3.6 1.6-.3 3 1.1 3.2 2.7l-.9.2c-.2-1.4-1.3-2.1-2.1-2-.9.1-1.6 1.2-1.4 2.5L36.7 39.5z" class="color016dc1 svgShape"></path></svg>