<svg xmlns="http://www.w3.org/2000/svg" enable-background="new 0 0 52 52" viewBox="0 0 52 52" id="coral"><path fill="#63b400" d="M24.29553,30.35711c0.01883,3.22862-0.47591,6.43014-0.96907,9.61118
			c-0.51833,3.34386-1.0368,6.68779-1.5552,10.03172h5.2896c1.3415-2.80742,1.84582-6.13278,1.98426-9.35439
			c0.17795-4.14079-0.13897-8.32526,0.47981-12.41253c0.98797-6.52642,4.30593-12.43394,5.0001-19.00774
			c0.07566-4.78904-10.29908-4.99468-10.37474-0.20564c-1.21766,3.32476-1.21251,7.05024-0.87233,10.62373
			S24.27458,26.76347,24.29553,30.35711z"></path><path fill="#8ec804" d="M24.32652,23.12277c0.29432,2.35669,0.59875,4.79327,0.61322,7.23051
			c0.0195,3.28882-0.48747,6.55497-0.9768,9.71361l-1.53941,9.93312h3.91889c1.20775-2.38768,1.89115-5.47337,2.05906-9.38221
			c0.06106-1.41888,0.06357-2.8737,0.06542-4.28002c0.00443-2.69443,0.00945-5.48011,0.42139-8.20096
			c0.4736-3.13095,1.48185-6.14368,2.45673-9.05697c1.07176-3.2039,2.17993-6.51598,2.53596-9.8646
			c0.01004-0.65096-0.22328-1.22328-0.69437-1.7019c-0.81325-0.82647-2.33092-1.34031-3.95927-1.34031
			c-2.11331,0-4.40207,0.89433-4.43293,2.85672l-0.00185,0.10877l-0.03714,0.10256
			c-1.29564,3.53662-1.09753,7.59587-0.83651,10.3413C24.03154,20.76483,24.17936,21.9435,24.32652,23.12277z"></path><path fill="#4d8e00" d="M29.42183,6.16709c2.19713-0.01044,4.00149,1.13165,4.00674,2.52047
			c0.00533,1.40868-1.79039,2.54813-3.98752,2.55856s-4.00141-1.11191-4.00674-2.52059
			C25.42906,7.33671,27.2247,6.17753,29.42183,6.16709z"></path><path fill="#fff" d="M34.52417,9.2241c-0.69555,6.56929-4.00598,12.48172-4.99777,19.01242
			c-0.54106,3.5551-0.3736,7.20045-0.43799,10.80713c-1.82908-2.00944-3.465-4.43108-4.83039-7.18756
			c0.02579-0.48948,0.0386-0.99187,0.0386-1.49424c-0.02571-3.59378-0.68266-7.14896-1.01757-10.71703
			c-0.33492-3.58088-0.34781-7.30352,0.8759-10.62685C24.23224,4.22625,34.60146,4.43231,34.52417,9.2241z" opacity=".2"></path><path fill="#63b400" d="M14.77507,39.76814c0.14947,3.53146,0.70475,7.17672,2.18884,10.23188h5.54334
			c-0.55792-3.65345-1.11583-7.30696-1.67375-10.96041c-0.52243-3.42124-1.04658-6.86449-1.02662-10.33688
			c0.0222-3.86497,0.71763-7.67926,1.07804-11.52262c0.3604-3.8433,0.36582-7.85008-0.9242-11.42595
			C19.88064,0.60353,8.88937,0.8247,8.96952,5.97533c0.73541,7.07026,4.25055,13.42375,5.29726,20.443
			C14.9223,30.81419,14.58655,35.31466,14.77507,39.76814z"></path><path fill="#8ec804" d="M14.90413,26.3235c0.4352,2.92154,0.44023,5.91472,0.44465,8.80983
			c0.00251,1.5139,0.00502,3.07935,0.06978,4.60772c0.18212,4.29205,0.93186,7.66485,2.26127,10.25897h4.17575l-1.65881-10.8634
			c-0.51827-3.39699-1.05411-6.90969-1.03396-10.43752c0.01507-2.61711,0.33708-5.23667,0.64904-7.77012
			c0.15602-1.26801,0.31263-2.53722,0.4315-3.80894c0.278-2.95861,0.48741-7.33432-0.88812-11.14702l-0.03648-0.1013
			L19.31684,5.7642c-0.0333-2.14351-2.47808-3.12025-4.73479-3.12025c-1.72014,0-3.33032,0.55032-4.20205,1.43526
			C9.85989,4.60753,9.60198,5.24217,9.60958,5.90885c0.38241,3.66931,1.55725,7.23553,2.69376,10.68406
			C13.33551,19.72386,14.40218,22.96173,14.90413,26.3235z"></path><path fill="#4d8e00" d="M14.37597,2.68619c-2.32769-0.01122-4.23926,1.2171-4.24483,2.71079
			c-0.00565,1.51505,1.89678,2.74053,4.22446,2.75175s4.23918-1.19587,4.24483-2.71092
			C18.606,3.94412,16.70366,2.69742,14.37597,2.68619z"></path><path fill="#fff" d="M20.88321,17.18456c-0.36071,3.83852-1.05625,7.65134-1.08204,11.51565
			c-0.01289,3.22026,0.43799,6.40184,0.91458,9.5706c-2.11251-1.22372-4.14773-2.84674-6.02831-4.8046
			c-0.01289-2.35725-0.07728-4.7145-0.4251-7.04597c-1.04336-7.02018-4.55986-13.37052-5.29409-20.44219
			C8.89097,0.82564,19.87845,0.60668,19.95573,5.7591C21.25673,9.32709,21.24383,13.33315,20.88321,17.18456z" opacity=".2"></path><path fill="#fff" d="M20.05416 15.67493c-.47111 5.01733-2.64945 8.92628-3.27785 8.86727-.64123-.06021.51108-4.06549.98219-9.08283.47253-5.0325.08595-9.18229.72718-9.12208C19.11408 6.39631 20.52669 10.64243 20.05416 15.67493zM27.9031 18.67666c-1.48882 4.81446-.97589 9.2599-.3729 9.44636.6153.19028 1.08692-3.9507 2.57573-8.76516 1.49332-4.82901 3.4416-8.51335 2.8263-8.70363C32.32924 10.46777 29.39642 13.84764 27.9031 18.67666z" opacity=".2"></path><path fill="#63b400" d="M27.18026,50.00001c0.40877-1.00911,0.669-2.0958,0.84081-3.16934
			c0.35062-2.19083,0.40904-4.43763,1.01916-6.57076c0.97429-3.40624,3.30038-6.32898,4.10233-9.77982
			c0.32796-2.54244-5.84196-3.33838-6.16992-0.79594c-0.92195,1.68796-1.13902,3.66997-1.14742,5.5933
			s0.17326,3.85328-0.02657,5.76617c-0.17947,1.71862-0.66338,3.38886-1.14517,5.04834
			c-0.37818,1.30264-0.75642,2.60535-1.1346,3.90805H27.18026z"></path><path fill="#8ec804" d="M26.47816,50.00001c0.40157-0.91845,0.70376-2.0019,0.90695-3.27124
			c0.12013-0.74849,0.20505-1.50319,0.28996-2.25797c0.16355-1.44597,0.33212-2.94163,0.74591-4.3882
			c0.47618-1.66423,1.26233-3.21461,2.02212-4.71344c0.85666-1.69001,1.66608-3.28631,2.06045-4.97129
			c0.03271-0.25091-0.04527-0.47922-0.23776-0.69814c-0.47987-0.54529-1.5774-0.92645-2.66991-0.92645
			c-0.8566,0-1.89003,0.26042-1.98433,0.99312l-0.01573,0.12013l-0.05789,0.10632c-0.72893,1.33462-1.05854,2.96549-1.06858,5.28702
			c-0.00251,0.63206,0.01507,1.26544,0.0333,1.89816c0.03648,1.28434,0.07421,2.61269-0.0635,3.9329
			c-0.18615,1.78245-0.68492,3.49948-1.16737,5.15995l-1.08226,3.72911H26.47816z"></path><path fill="#4d8e00" d="M30.28235,28.51562c1.30983,0.13985,2.31754,0.86676,2.23863,1.60586
			c-0.08004,0.74967-1.21738,1.23693-2.52722,1.09708c-1.30983-0.13985-2.31866-0.85625-2.23862-1.60592
			C27.83405,28.87354,28.97251,28.37577,30.28235,28.51562z"></path><path fill="#fff" d="M33.14597,30.4778c-0.81151,3.4521-3.13016,6.37613-4.10905,9.77666
			c-0.60545,2.13829-0.66984,4.37958-1.01765,6.58227c-0.11588,0.70844-0.25764,1.41688-0.4637,2.09953
			c-1.13354-0.78572-2.03522-2.02225-2.69217-3.58088c0.4122-1.41689,0.7858-2.84674,0.94037-4.31512
			c0.19317-1.90644,0.01289-3.8386,0.02571-5.75786c0-1.93216,0.21903-3.9158,1.14643-5.60322
			C27.29793,27.14158,33.468,27.9402,33.14597,30.4778z" opacity=".2"></path><path fill="#63b400" d="M14.33273,46.83067c0.17188,1.07354,0.43203,2.16023,0.84081,3.16934h3.66138
			c-0.37818-1.30271-0.75636-2.60542-1.1346-3.90805c-0.48173-1.65948-0.9657-3.32972-1.14517-5.04834
			c-0.19983-1.91289-0.01817-3.84283-0.02656-5.76617s-0.22547-3.90535-1.14742-5.5933
			c-0.32796-2.54244-6.49788-1.7465-6.16992,0.79594c0.80202,3.45085,3.12804,6.37358,4.10233,9.77982
			C13.92376,42.39304,13.98211,44.63984,14.33273,46.83067z"></path><path fill="#8ec804" d="M13.93301,40.08261c0.4132,1.44656,0.58243,2.94157,0.74591,4.3876
			c0.08491,0.7547,0.16983,1.51007,0.28996,2.25856c0.2032,1.26934,0.50518,2.35279,0.90662,3.27124h2.28889l-1.0822-3.72852
			c-0.48305-1.66232-0.98182-3.38126-1.16737-5.16054c-0.13837-1.32022-0.10064-2.64856-0.0635-3.9329
			c0.01758-0.63272,0.03582-1.2661,0.0333-1.89756c-0.01064-2.32272-0.34025-3.95358-1.06918-5.28761l-0.05789-0.10632
			l-0.01573-0.12013c-0.09436-0.7327-1.12773-0.99312-1.98433-0.99312c-1.09251,0-2.19003,0.38115-2.66931,0.92645
			c-0.19249,0.21892-0.27047,0.44723-0.24972,0.63464c0.40633,1.74848,1.21581,3.34479,2.07241,5.03479
			C12.67068,36.868,13.4569,38.41838,13.93301,40.08261z"></path><path fill="#4d8e00" d="M12.07147,28.51562c-1.30983,0.13985-2.31754,0.86676-2.23863,1.60586
			c0.08004,0.74967,1.21738,1.23693,2.52721,1.09708c1.30983-0.13985,2.31866-0.85625,2.23862-1.60592
			C14.51976,28.87354,13.3813,28.37577,12.07147,28.51562z"></path><path fill="#63b400" d="M35.83553,27.0638c-1.54284,1.7502-2.33039,4.03718-2.8554,6.31054
			c-0.52494,2.27343-0.82686,4.60547-1.57549,6.81526c-0.67263,1.98531-1.69245,3.83193-2.70685,5.66625
			c-0.76389,1.38141-1.52778,2.76275-2.29166,4.14416h4.95041c0.42939-0.76395,0.80486-1.5626,1.12786-2.36825
			c1.00151-2.49823,1.67223-5.14091,2.96535-7.50144c2.06488-3.76915,5.59971-6.6044,7.47269-10.47254
			C43.99129,26.73756,36.90445,24.14358,35.83553,27.0638z"></path><path fill="#8ec804" d="M42.2169,27.87137c-0.71043-1.01751-2.51125-1.84483-4.01332-1.84483
			c-0.64283,0-1.46434,0.15066-1.72734,0.87074l-0.04282,0.11551l-0.08102,0.09198c-1.62657,1.84542-2.34916,4.3759-2.75132,6.11924
			c-0.17617,0.76157-0.32683,1.52883-0.4775,2.29616c-0.3045,1.54674-0.61858,3.14641-1.13949,4.68423
			c-0.70475,2.07975-1.76758,3.99991-2.79467,5.85756l-2.17781,3.93806h3.52195c0.47353-0.78834,0.91383-1.68128,1.32035-2.69522
			c0.34785-0.86882,0.65618-1.75483,0.96451-2.64024c0.58732-1.6865,1.1944-3.43049,2.07849-5.04424
			c1.01757-1.85765,2.3785-3.50014,3.69416-5.08898c1.49374-1.80333,2.90449-3.50648,3.84931-5.4509
			C42.58464,28.68786,42.51123,28.2921,42.2169,27.87137z"></path><path fill="#4d8e00" d="M40.06438,26.56757c1.5123,0.51622,2.50992,1.64613,2.21863,2.49947
			c-0.29545,0.86554-1.77159,1.13749-3.28389,0.62127c-1.5123-0.51622-2.51406-1.634-2.21861-2.49954
			C37.0718,26.33542,38.55209,26.05135,40.06438,26.56757z"></path><path fill="#fff" d="M42.92263 29.65339c-1.86776 3.8772-5.41005 6.71105-7.47098 10.47228-1.30099 2.37007-1.97084 5.01074-2.96262 7.50966-.01289.02571-.02579.0515-.02579.07729-.99187-1.23661-1.81619-2.66639-2.47314-4.2508.54098-1.06907 1.03047-2.13822 1.41688-3.27176.74712-2.2155 1.04336-4.54696 1.57153-6.81404.52809-2.27997 1.31381-4.55993 2.85955-6.31174C36.90721 24.14028 43.99178 26.74227 42.92263 29.65339zM17.62427 45.83197c-.74704.39931-1.54566.60545-2.37007.60545-.34781 0-.68273-.03868-1.00476-.11596-.28335-2.03522-.37352-4.09616-.94029-6.06699-.96608-3.40053-3.29754-6.32455-4.09616-9.77666-.33492-2.53761 5.83507-3.33622 6.16999-.79862.91458 1.68741 1.13354 3.67106 1.14643 5.60322.01289 1.91926-.18035 3.85142.02579 5.75786C16.72266 42.6761 17.17346 44.26052 17.62427 45.83197z" opacity=".2"></path><path fill="#fff" d="M34.31955 36.08813c-2.05717 3.46473-2.48915 7.01666-2.05521 7.27431.4428.26291 1.58331-2.86833 3.64048-6.33306 2.0634-3.47521 4.26659-5.97548 3.82378-6.2384C39.29466 30.53333 36.38294 32.61292 34.31955 36.08813zM27.50976 37.24406c-1.06703 3.05305-.84164 5.91608-.45926 6.04972.39019.13637.78915-2.50845 1.85617-5.5615 1.07026-3.06228 2.40563-5.37983 2.01544-5.5162C30.53972 32.08244 28.58001 34.18178 27.50976 37.24406zM14.76453 37.11843c1.06703 3.05305.84164 5.91608.45926 6.04971-.39019.13637-.78914-2.50845-1.85617-5.5615-1.07026-3.06228-2.40563-5.37983-2.01544-5.5162C11.73456 31.95681 13.69427 34.05615 14.76453 37.11843z" opacity=".2"></path><path fill="#fff" d="M14.98119 13.23088c-.50517.31309-1.16887.1651-1.48192-.34002-.31306-.50512-.15596-1.17453.34921-1.48762.49592-.30736 1.16537-.15021 1.47843.35491C15.63996 12.26326 15.47711 12.92352 14.98119 13.23088zM15.43697 16.41816c-.43077.26698-.99671.14079-1.26366-.28994-.26695-.43072-.13299-1.00154.29778-1.26851.42288-.26209.99373-.12809 1.26068.30263C15.99871 15.59306 15.85985 16.15607 15.43697 16.41816zM36.54017 31.53892c-.50518.31309-1.16887.1651-1.48193-.34002s-.15596-1.17453.34921-1.48762c.49593-.30736 1.16537-.15021 1.47843.35491C37.19894 30.5713 37.03609 31.23156 36.54017 31.53892zM36.99594 34.7262c-.43077.26698-.99671.14079-1.26365-.28994-.26695-.43072-.133-1.00154.29778-1.26851.42288-.26209.99372-.12809 1.26067.30263C37.55769 33.9011 37.41883 34.46411 36.99594 34.7262z"></path></svg>