<svg xmlns="http://www.w3.org/2000/svg" enable-background="new 0 0 64 64" viewBox="0 0 64 64" id="coral"><g><path fill="#e51e82" d="M46.08,7c0,11.46-1.56,22.87-4.65,33.91l-2.42,8.63C38.77,50.4,37.98,51,37.08,51h-8
			c-0.89,0-1.68-0.6-1.92-1.46l-2.42-8.63C21.65,29.87,20.08,18.46,20.08,7c0-1.1,0.9-2,2-2h22C45.19,5,46.08,5.9,46.08,7z"></path><path fill="#fe3d97" d="M46.08,6.984c0,2.855-0.1,5.701-0.29,8.546c-3.1,0.73-5.55,2.57-6.84,5.14c-0.06,0.1-0.12,0.2-0.17,0.32
			l-0.61,1.34c-0.789,1.725-1.496,3.482-2.122,5.266c-0.345,0.983-1.78,0.832-1.926-0.2L33.73,24.61c0-0.02-0.01-0.03-0.01-0.04
			c-0.71-4.89-5.79-7.92-13.26-7.92h-0.01c-0.25-3.215-0.37-6.44-0.37-9.665c0-1.097,0.903-1.985,2-1.985h22
			C45.177,5,46.08,5.887,46.08,6.984z"></path><ellipse cx="33.084" cy="7.5" fill="#e51e82" rx="11" ry="5.5"></ellipse><path fill="#fe3d97" d="M33.084,15c-7.411,0-13-3.225-13-7.5s5.589-7.5,13-7.5s13,3.225,13,7.5S40.495,15,33.084,15z M33.084,4
			c-5.411,0-9,2.106-9,3.5s3.589,3.5,9,3.5s9-2.106,9-3.5S38.495,4,33.084,4z"></path><path fill="#fc65b1" d="M41.001,13.318c-0.723,0-1.421-0.394-1.777-1.08c-0.508-0.98-0.125-2.188,0.856-2.695
			c1.236-0.641,2.004-1.424,2.004-2.043c0-1.394-3.589-3.5-9-3.5c-1.104,0-2-0.896-2-2s0.896-2,2-2c7.411,0,13,3.225,13,7.5
			c0,2.216-1.479,4.203-4.164,5.594C41.626,13.246,41.312,13.318,41.001,13.318z"></path><path fill="#fe3d97" d="M61.53,31.34c-0.6,1.32-1.61,2.33-2.9,3.02c-1.29,0.68-2.85,1.04-4.54,1.04c-1.87,0-3.89-0.43-5.88-1.34
			c-5.62-2.56-8.56-7.76-6.7-11.84c0.94-2.06,3-3.48,5.66-3.91c2.4-0.39,5.13,0.03,7.67,1.19c2.54,1.16,4.65,2.94,5.93,5
			C62.19,26.79,62.47,29.29,61.53,31.34z"></path><path fill="#e51e82" d="M36.084,19h-1c-1.104,0-2-0.896-2-2s0.896-2,2-2h1c1.104,0,2,0.896,2,2S37.188,19,36.084,19z"></path><ellipse cx="17.885" cy="26.828" fill="#e51e82" rx="11" ry="5" transform="rotate(-7.987 17.882 26.827)"></ellipse><path fill="#fe3d97" d="M35.06,55.72l-4.3-30.7c-0.64-4.55-7.45-6.02-13.85-5.12c-6.39,0.89-12.54,4.18-11.9,8.73
			c0.01,0.08,0.03,0.16,0.04,0.25l0.87,6.24C6,35.7,6.1,36.28,6.22,36.86c-0.84,0.13-1.65,0.44-2.39,0.92
			C2.49,38.65,1.57,40,1.24,41.57c-0.67,3.24,1.41,6.43,4.65,7.1l6.18,1.3l6.52,9.01c0.38,0.52,0.98,0.83,1.62,0.83
			c0.09,0,0.19-0.01,0.28-0.02l12.87-1.81C34.46,57.83,35.22,56.82,35.06,55.72z M11.42,25.72c1.41-0.77,3.42-1.49,6.05-1.86
			c1.08-0.15,2.08-0.22,2.99-0.22c1.3,0,2.42,0.13,3.34,0.34c0.48,0.11,0.91,0.23,1.28,0.37c1.08,0.39,1.67,0.88,1.72,1.23
			c0.12,0.86-2.71,3.41-8.5,4.22c-2.59,0.36-5.17,0.25-7.06-0.31c-1.58-0.47-2.22-1.1-2.27-1.41C8.9,27.61,9.72,26.64,11.42,25.72z"></path><path fill="#e51e82" d="M18,42h-1.916c-1.104,0-2-0.896-2-2s0.896-2,2-2H18c1.104,0,2,0.896,2,2S19.104,42,18,42z"></path><path fill="#fc65b1" d="M18.577,33.779c-0.981,0-1.838-0.723-1.978-1.723c-0.153-1.094,0.609-2.104,1.703-2.258
			c5.79-0.812,8.617-3.358,8.497-4.221c-0.122-0.862-3.542-2.531-9.33-1.721c-1.097,0.162-2.105-0.609-2.258-1.703
			s0.609-2.104,1.703-2.258c6.398-0.895,13.208,0.575,13.846,5.126c0.638,4.551-5.504,7.84-11.902,8.737
			C18.763,33.773,18.669,33.779,18.577,33.779z"></path><ellipse cx="51.522" cy="26.781" fill="#e51e82" rx="6" ry="9" transform="rotate(-65.506 51.521 26.781)"></ellipse><path fill="#fe3d97" d="M60.77,24.5c-1.28-2.06-3.39-3.84-5.93-5c-2.54-1.16-5.27-1.58-7.67-1.19c-2.66,0.43-4.72,1.85-5.66,3.91
			l-0.61,1.35c-2.71,5.94-4.43,12.25-5.12,18.74l-1,9.41c-0.09,0.85,0.38,1.67,1.16,2.03l4.55,2.07c0.26,0.12,0.55,0.18,0.83,0.18
			c0.51,0,1.01-0.2,1.39-0.57l5.96-5.8c5.4-5.27,9.73-11.42,12.86-18.29c0.03-0.07,0.06-0.14,0.08-0.21
			C62.45,29.12,62.14,26.71,60.77,24.5z M47.81,22.26c0.36-0.06,0.75-0.09,1.14-0.09c1.35,0,2.83,0.33,4.23,0.97
			c1.81,0.82,3.33,2.09,4.19,3.47c0.14,0.22,0.3,0.5,0.43,0.83c0.27,0.66,0.43,1.49,0.09,2.24c-0.78,1.72-4.27,2.45-8.03,0.74
			c-3.75-1.71-5.49-4.82-4.71-6.54c0.34-0.76,1.08-1.17,1.76-1.4C47.24,22.36,47.56,22.3,47.81,22.26z"></path><path fill="#fc65b1" d="M51.999,45.005c-0.44,0-0.884-0.145-1.254-0.443c-0.86-0.693-0.995-1.952-0.302-2.812
			c0.328-0.407,0.65-0.817,0.966-1.232c0.669-0.878,1.924-1.05,2.803-0.379c0.879,0.669,1.049,1.924,0.38,2.803
			c-0.338,0.444-0.683,0.884-1.034,1.318C53.162,44.75,52.583,45.005,51.999,45.005z"></path><path fill="#e51e82" d="M44.449,42.896c-0.734,0-1.44-0.405-1.791-1.106l-0.447-0.895c-0.494-0.988-0.093-2.189,0.896-2.683
			c0.987-0.495,2.189-0.093,2.683,0.896l0.447,0.895c0.494,0.988,0.093,2.189-0.896,2.683
			C45.054,42.828,44.749,42.896,44.449,42.896z"></path><path fill="#fc65b1" d="M59.711,32.513c-0.278,0.001-0.56-0.058-0.828-0.18c-1.005-0.458-1.449-1.645-0.991-2.649
			c0.51-1.12-0.106-2.404-0.52-3.07c-0.858-1.384-2.386-2.649-4.192-3.472c-3.726-1.698-7.214-0.987-8.017,0.712
			c-0.472,1-1.664,1.426-2.662,0.955c-0.999-0.472-1.427-1.663-0.955-2.662c1.895-4.016,7.736-5.176,13.292-2.646
			c2.543,1.159,4.65,2.936,5.933,5.004c1.42,2.288,1.697,4.78,0.76,6.837C61.196,32.078,60.47,32.513,59.711,32.513z"></path><path fill="#df781b" d="M63.08,61c0,1.1-0.89,2-2,2h-56c-1.1,0-2-0.9-2-2c0-2.66,1.08-5.12,2.92-7.11c0,0,40.06-8.72,57.02,6.11
			C63.06,60.33,63.08,60.66,63.08,61z"></path><path fill="#fcb043" d="M63.02,60H12.11C8.736,60,6,57.264,6,53.89v0C8.74,50.93,13.13,49,18.08,49c1.23,0,2.43,0.11,3.59,0.34
			C24.78,47.18,28.8,46,33.08,46c4.29,0,8.31,1.18,11.42,3.34c1.16-0.23,2.36-0.34,3.58-0.34C55.93,49,62.39,53.85,63.02,60z"></path><path fill="#f9cb8f" d="M55.998 55.068c-.346 0-.697-.09-1.016-.278-.536-.317-1.113-.599-1.715-.836-1.028-.404-1.533-1.565-1.128-2.594.405-1.028 1.568-1.535 2.594-1.127.798.314 1.567.688 2.285 1.113.951.562 1.266 1.789.703 2.74C57.348 54.718 56.682 55.068 55.998 55.068zM44.044 53.49c-.444 0-.881-.148-1.238-.429C40.336 51.116 36.793 50 33.084 50c-1.104 0-2-.896-2-2s.896-2 2-2c4.289 0 8.301 1.181 11.415 3.341 1.133-.221 2.303-.335 3.491-.341.003 0 .007 0 .01 0 1.1 0 1.995.889 2 1.99.005 1.104-.886 2.004-1.99 2.01-1.199.006-2.369.15-3.478.43C44.371 53.471 44.207 53.49 44.044 53.49z"></path></g></svg>