<svg xmlns="http://www.w3.org/2000/svg" viewBox="0 0 512 512" id="Pentagon"><g fill="#e51e1f" class="color000000 svgShape"><polygon fill="#ffd866" points="477.92 206.12 393.15 467 118.85 467 34.08 206.12 256 44.88 477.92 206.12" class="colorfdc75b svgShape"></polygon><g fill="#e51e1f" class="color000000 svgShape"><path d="M482.622,199.648,260.7,38.408a8,8,0,0,0-9.4,0L29.378,199.648a8,8,0,0,0-2.906,8.944l84.769,260.88A8,8,0,0,0,118.85,475h274.3a8,8,0,0,0,7.609-5.528l84.769-260.88A8,8,0,0,0,482.622,199.648ZM387.338,459H124.662L43.484,209.176,256,54.769,468.516,209.176Z" fill="#e51e1f" class="color000000 svgShape"></path></g></g></svg>