<svg xmlns="http://www.w3.org/2000/svg" viewBox="0 0 30 30" id="Rectangle"><g fill="none" fill-rule="evenodd"><g transform="translate(-360 -225)" fill="#e51e1f" class="color000000 svgShape"><g transform="translate(362 231)" fill="#e51e1f" class="color000000 svgShape"><path fill="#729eab" d="M1 2h1v13H1V2zm23 0h1v13h-1V2zM2 15h22v1H2v-1zM2 1h22v1H2V1z" class="color607d8b svgShape"></path><path fill="#ffd866" d="M25.505 14h-2.01a.492.492 0 00-.495.495v2.01c0 .273.216.495.495.495h2.01a.492.492 0 00.495-.495v-2.01a.492.492 0 00-.495-.495zM25.505 0h-2.01A.492.492 0 0023 .495v2.01c0 .273.216.495.495.495h2.01A.492.492 0 0026 2.505V.495A.492.492 0 0025.505 0zM2.505 14H.495a.492.492 0 00-.495.495v2.01c0 .273.216.495.495.495h2.01A.492.492 0 003 16.505v-2.01A.492.492 0 002.505 14zM2.505 0H.495A.492.492 0 000 .495v2.01C0 2.778.216 3 .495 3h2.01A.492.492 0 003 2.505V.495A.492.492 0 002.505 0z" class="colorffc107 svgShape"></path></g></g></g></svg>