<svg xmlns="http://www.w3.org/2000/svg" enable-background="new 0 0 64 64" viewBox="0 0 64 64" id="NextArrow"><path d="M56.83,0H9.04C8.25,0,7.61,0.64,7.61,1.43v24.61c0,0.79,0.64,1.43,1.43,1.43s1.44-0.64,1.44-1.43V9.94h4.16v16.04
			c0,0.79,0.64,1.43,1.43,1.43c0.79,0,1.44-0.64,1.44-1.43V9.94H48.1v44.67H17.51V37.38c0-0.79-0.65-1.43-1.44-1.43
			c-0.79,0-1.43,0.64-1.43,1.43v17.23h-4.16V37.52c0-0.79-0.65-1.44-1.44-1.44s-1.43,0.65-1.43,1.44v25.05
			c0,0.79,0.64,1.43,1.43,1.43h47.79c0.79,0,1.43-0.64,1.43-1.43V1.43C58.26,0.64,57.62,0,56.83,0z M14.64,7.07h-4.16v-4.2h4.16
			V7.07z M14.64,61.13h-4.16v-3.66h4.16V61.13z M48.1,61.13H17.51v-3.66H48.1V61.13z M48.1,7.07H17.51v-4.2H48.1V7.07z M55.4,61.13
			h-4.43v-3.66h4.43V61.13z M55.4,54.61h-4.43V9.94h4.43V54.61z M55.4,7.07h-4.43v-4.2h4.43V7.07z" fill="#0a0a0a" class="color000000 svgShape"></path><rect width="4.43" height="4.2" x="50.97" y="2.87" fill="#d33291" class="colorea526c svgShape"></rect><rect width="4.16" height="4.2" x="10.48" y="2.87" fill="#d33291" class="colorea526c svgShape"></rect><rect width="4.16" height="3.66" x="10.48" y="57.47" fill="#d33291" class="colorea526c svgShape"></rect><rect width="4.43" height="3.66" x="50.97" y="57.47" fill="#d33291" class="colorea526c svgShape"></rect><rect width="4.43" height="44.67" x="50.97" y="9.94" fill="#ffd866" class="colore1e9ff svgShape"></rect><rect width="30.59" height="3.66" x="17.51" y="57.47" fill="#ffd866" class="colore1e9ff svgShape"></rect><rect width="30.59" height="4.2" x="17.51" y="2.87" fill="#ffd866" class="colore1e9ff svgShape"></rect><path d="M40.65,32c0,0.18-0.04,0.36-0.11,0.52c0,0.01,0,0.02,0,0.02c-0.08,0.18-0.18,0.34-0.31,0.47L27.99,45.25
			c-0.28,0.28-0.65,0.42-1.01,0.42c-0.37,0-0.74-0.14-1.02-0.42c-0.56-0.56-0.56-1.47,0-2.03l9.79-9.79H7.17
			c-0.79,0-1.43-0.64-1.43-1.43s0.64-1.43,1.43-1.43h28.58l-9.79-9.79c-0.56-0.56-0.56-1.47,0-2.03c0.56-0.56,1.47-0.56,2.03,0
			l12.24,12.24c0.13,0.13,0.23,0.29,0.31,0.47c0,0,0,0.01,0,0.02C40.61,31.64,40.65,31.82,40.65,32z" fill="#0a0a0a" class="color000000 svgShape"></path><path fill="#ffd866" d="M16.07,33.43v2.52c-0.79,0-1.43,0.64-1.43,1.43v17.23h-4.16V37.52c0-0.79-0.65-1.44-1.44-1.44v-2.65H16.07z" class="colore1e9ff svgShape"></path><path fill="#50c878" d="M48.1,9.94v44.67H17.51V37.38c0-0.79-0.65-1.43-1.44-1.43v-2.52h19.68l-9.79,9.79c-0.56,0.56-0.56,1.47,0,2.03
		c0.28,0.28,0.65,0.42,1.02,0.42c0.36,0,0.73-0.14,1.01-0.42l12.24-12.24c0.13-0.13,0.23-0.29,0.31-0.47c0,0,0-0.01,0-0.02
		c0.07-0.16,0.11-0.34,0.11-0.52c0-0.18-0.04-0.36-0.11-0.52c0-0.01,0-0.02,0-0.02c-0.08-0.18-0.18-0.34-0.31-0.47L27.99,18.75
		c-0.56-0.56-1.47-0.56-2.03,0c-0.56,0.56-0.56,1.47,0,2.03l9.79,9.79H16.07v-3.16c0.79,0,1.44-0.64,1.44-1.43V9.94H48.1z" class="color42c3fc svgShape"></path><path fill="#ffd866" d="M16.07,27.41v3.16H9.04v-3.1c0.79,0,1.44-0.64,1.44-1.43V9.94h4.16v16.04C14.64,26.77,15.28,27.41,16.07,27.41
		z" class="colore1e9ff svgShape"></path></svg>