<svg xmlns="http://www.w3.org/2000/svg" viewBox="0 0 64 64" id="Nextbutton"><path fill="#fdff3d" d="M1.88 53.53c-.85.48-1.89-.14-1.88-1.11l.23-20.44.23-20.44c.01-.97 1.07-1.57 1.9-1.07L19.95 20.9l17.58 10.42c.84.49.82 1.71-.02 2.18L19.69 43.52 1.88 53.53z" class="colorea6158 svgShape"></path><path fill="#ff9a3a" d="M26.32 53.53c-.85.48-1.89-.14-1.88-1.11l.23-20.44.23-20.44c.01-.97 1.07-1.57 1.9-1.07L44.39 20.9l17.58 10.42c.84.49.82 1.71-.02 2.18L44.14 43.52 26.32 53.53z" class="coloree716b svgShape"></path><path fill="#592d72" d="M62.59 56.83c-.78 0-1.41-.63-1.41-1.41V8.57c0-.78.63-1.41 1.41-1.41.78.01 1.41.64 1.41 1.41v46.85c0 .78-.63 1.41-1.41 1.41z" class="color515e6d svgShape"></path></svg>