<svg xmlns="http://www.w3.org/2000/svg" viewBox="0 0 32 32" id="NextArrow"><circle cx="16" cy="16" r="15" fill="#729eab" class="coloreef5fd svgShape"></circle><circle cx="16" cy="16" r="15" fill="#729eab" class="coloreef5fd svgShape"></circle><path fill="#e2ebee" d="M31,16A15,15,0,0,0,16,1V31A15,15,0,0,0,31,16Z" class="colord7e2f2 svgShape"></path><path fill="#61d7ff" d="M24.53,15.15l-8-5A1,1,0,0,0,15,11V21a1,1,0,0,0,.52.88,1,1,0,0,0,1,0l8-5a1,1,0,0,0,0-1.7Z" class="colorffc661 svgShape"></path><path fill="#e51e1f" d="M24.53,15.15l-8-5A1,1,0,0,0,16,10V22a1,1,0,0,0,.53-.15l8-5a1,1,0,0,0,0-1.7Z" class="colore49f4e svgShape"></path><rect width="6" height="12" x="7" y="10" fill="#61d7ff" rx="1" ry="1" class="colorffc661 svgShape"></rect></svg>