<svg xmlns="http://www.w3.org/2000/svg" viewBox="0 0 32 32" id="Flip"><defs><linearGradient id="a" x1="9.998" x2="22.002" y1="26.396" y2="5.604" gradientUnits="userSpaceOnUse"><stop offset="0" stop-color="#46c8b8" class="stopColor4c46c8 svgShape"></stop><stop offset="1" stop-color="#14c5af" class="stopColor87bfff svgShape"></stop></linearGradient></defs><path fill="url(#a)" d="m7.707 14.707-2 2a1 1 0 0 1-1.414 0l-2-2a1 1 0 0 1 1.414-1.414l.5.5A12 12 0 0 1 25.26 8.36a1 1 0 1 1-1.54 1.28A10 10 0 0 0 6.4 13.221a.987.987 0 0 1 1.3.072 1 1 0 0 1 .007 1.414Zm22 2.586-2-2a1 1 0 0 0-1.414 0l-2 2a1 1 0 0 0 0 1.414.987.987 0 0 0 1.3.072A10 10 0 0 1 8.28 22.36a1 1 0 1 0-1.54 1.28 12 12 0 0 0 21.049-5.44l.5.5a1 1 0 0 0 1.414-1.414Z"></path></svg>