<svg xmlns="http://www.w3.org/2000/svg" viewBox="0 0 128 128" id="crocodile"><g fill="#ff9a3a" class="color296d30 svgShape"><ellipse cx="57.9" cy="41.5" rx="2.6" ry="2.1" fill="#ff2020" class="color000000 svgShape"></ellipse><ellipse cx="62.4" cy="42.4" rx="2.6" ry="2.1" fill="#ff2020" class="color000000 svgShape"></ellipse><ellipse cx="66.8" cy="42.4" rx="2.6" ry="2.1" fill="#ff2020" class="color000000 svgShape"></ellipse><ellipse cx="71.2" cy="42.6" rx="2.6" ry="2.1" fill="#ff2020" class="color000000 svgShape"></ellipse><ellipse cx="75.6" cy="42.9" rx="2.6" ry="2.1" fill="#ff2020" class="color000000 svgShape"></ellipse><ellipse cx="79.6" cy="43.1" rx="2.6" ry="2.1" fill="#ff2020" class="color000000 svgShape"></ellipse><ellipse cx="83.6" cy="43.6" rx="2.6" ry="2.1" fill="#ff2020" class="color000000 svgShape"></ellipse><ellipse cx="87.6" cy="44.5" rx="2.6" ry="2.1" fill="#ff2020" class="color000000 svgShape"></ellipse><ellipse cx="91.4" cy="45.1" rx="2.4" ry="2" fill="#ff2020" class="color000000 svgShape"></ellipse><ellipse cx="94.5" cy="46.2" rx="2.4" ry="2" fill="#ff2020" class="color000000 svgShape"></ellipse><ellipse cx="97.4" cy="47" rx="2.4" ry="2" fill="#ff2020" class="color000000 svgShape"></ellipse><ellipse cx="100.3" cy="48.2" rx="2.4" ry="2" fill="#ff2020" class="color000000 svgShape"></ellipse><ellipse cx="103.4" cy="49.7" rx="2.4" ry="2" fill="#ff2020" class="color000000 svgShape"></ellipse><ellipse cx="106.3" cy="51.3" rx="2.4" ry="2" fill="#ff2020" class="color000000 svgShape"></ellipse><ellipse cx="109.3" cy="53.6" rx="2.4" ry="2" fill="#ff2020" class="color000000 svgShape"></ellipse><ellipse cx="111.7" cy="55.3" rx="2.4" ry="2" fill="#ff2020" class="color000000 svgShape"></ellipse><ellipse cx="114.7" cy="57" rx="2.4" ry="2" fill="#ff2020" class="color000000 svgShape"></ellipse><ellipse cx="117.7" cy="58.7" rx="2.4" ry="2" fill="#ff2020" class="color000000 svgShape"></ellipse><ellipse cx="120.4" cy="60.6" rx="2.4" ry="2" fill="#ff2020" class="color000000 svgShape"></ellipse><ellipse cx="122.6" cy="62.6" rx="2.4" ry="2" fill="#ff2020" class="color000000 svgShape"></ellipse><ellipse cx="124.3" cy="64.7" rx="2.4" ry="2" fill="#ff2020" class="color000000 svgShape"></ellipse><ellipse cx="125.1" cy="67.2" rx="2.4" ry="2" fill="#ff2020" class="color000000 svgShape"></ellipse><ellipse cx="125.1" cy="69.7" rx="2.4" ry="2" fill="#ff2020" class="color000000 svgShape"></ellipse><ellipse cx="124.7" cy="72.4" rx="2.4" ry="2" fill="#ff2020" class="color000000 svgShape"></ellipse><ellipse cx="123.8" cy="74.8" rx="2.4" ry="2" fill="#ff2020" class="color000000 svgShape"></ellipse><ellipse cx="122.6" cy="77.4" rx="2.4" ry="2" fill="#ff2020" class="color000000 svgShape"></ellipse><ellipse cx="120.8" cy="79.6" rx="2.4" ry="2" fill="#ff2020" class="color000000 svgShape"></ellipse><ellipse cx="118.7" cy="81.1" rx="2" ry="2.4" transform="rotate(-53.453 118.687 81.082)" fill="#ff2020" class="color000000 svgShape"></ellipse><ellipse cx="116.4" cy="82.7" rx="2" ry="2.4" transform="rotate(-53.453 116.413 82.679)" fill="#ff2020" class="color000000 svgShape"></ellipse><ellipse cx="114.2" cy="84.1" rx="2" ry="2.4" transform="rotate(-53.453 114.193 84.127)" fill="#ff2020" class="color000000 svgShape"></ellipse><ellipse cx="111.5" cy="85.1" rx="2" ry="2.4" transform="rotate(-53.453 111.523 85.086)" fill="#ff2020" class="color000000 svgShape"></ellipse><ellipse cx="108.8" cy="86" rx="2" ry="2.4" transform="rotate(-53.453 108.79 86.005)" fill="#ff2020" class="color000000 svgShape"></ellipse><ellipse cx="106.2" cy="86.6" rx="2" ry="2.4" transform="rotate(-53.453 106.192 86.628)" fill="#ff2020" class="color000000 svgShape"></ellipse><ellipse cx="103.5" cy="87" rx="2" ry="2.4" transform="rotate(-24.892 103.453 86.995)" fill="#ff2020" class="color000000 svgShape"></ellipse><ellipse cx="100.8" cy="87.2" rx="2" ry="2.4" transform="rotate(-24.892 100.818 87.226)" fill="#ff2020" class="color000000 svgShape"></ellipse><ellipse cx="98.3" cy="87.5" rx="2" ry="2.4" transform="rotate(-24.892 98.286 87.53)" fill="#ff2020" class="color000000 svgShape"></ellipse><ellipse cx="95.9" cy="87.5" rx="2" ry="2.4" transform="rotate(-24.892 95.885 87.53)" fill="#ff2020" class="color000000 svgShape"></ellipse><ellipse cx="93.1" cy="87.7" rx="2" ry="2.4" transform="rotate(-24.892 93.126 87.694)" fill="#ff2020" class="color000000 svgShape"></ellipse><ellipse cx="90" cy="88" rx="2" ry="2.4" transform="rotate(-24.892 89.968 87.973)" fill="#ff2020" class="color000000 svgShape"></ellipse><ellipse cx="87.1" cy="88.1" rx="2" ry="2.4" transform="rotate(-24.892 87.12 88.145)" fill="#ff2020" class="color000000 svgShape"></ellipse><ellipse cx="84.2" cy="88.4" rx="2" ry="2.4" transform="rotate(-24.892 84.17 88.374)" fill="#ff2020" class="color000000 svgShape"></ellipse><ellipse cx="81.3" cy="88.5" rx="2" ry="2.4" transform="rotate(-24.892 81.301 88.532)" fill="#ff2020" class="color000000 svgShape"></ellipse><ellipse cx="78.2" cy="88.9" rx="2" ry="2.4" transform="rotate(-24.892 78.216 88.933)" fill="#ff2020" class="color000000 svgShape"></ellipse><ellipse cx="75.2" cy="89.5" rx="2" ry="2.4" transform="rotate(-24.892 75.193 89.468)" fill="#ff2020" class="color000000 svgShape"></ellipse><ellipse cx="72.6" cy="90.7" rx="2" ry="2.4" transform="rotate(-24.892 72.625 90.72)" fill="#ff2020" class="color000000 svgShape"></ellipse></g><path fill="#7c469b" d="M44.7 35.2s5.8 6.3 23.3 6.5c17.5.3 32 3.6 40.1 9.9s19.5 8.8 18.5 18.5c-1 9.8-11.4 18.6-30.7 19-32.3.6-22.5 4.5-18.9 9.1 0 0-20.1-5.9-3.6-11.8 3.5-1.3 9.5-2.5 16.1-3.5 38.4-5.8 20.4-13.9 16.2-14.7-14.5-2.8-35.9-2.6-42.7-2.4-7.8.3-15.4-2.8-20.7-10.2-5.2-7.4 2.4-20.4 2.4-20.4z" class="color499b46 svgShape"></path><path fill="#ff9a3a" d="M105.8 68.2c1.7.3 5.6 1.8 7.2 3.9.1-.1.1-.2.1-.3.4-4.8-7.1-8.7-7.1-8.7-1.9-3.8-8.5-3.7-8.5-3.7-2.9-3.3-7.8-1.9-7.8-1.9-2.1-2.3-6.3-1.2-6.3-1.2-2.9-2.7-7.6-.5-7.6-.5-4.8-2.6-9.4 0-9.4 0-5.7-3.3-10.2 0-10.2 0-3.1-4.6-9.4-3.1-9.4-3.1l-5.8-.2c.3 1.1.8 2.1 1.4 3.1 5.3 7.4 12.9 10.5 20.7 10.2 6.8-.2 28.2-.4 42.7 2.4z" class="color296d30 svgShape"></path><path fill="#fdff3d" d="M105.8 68.2c1.1.2 3.1.9 4.8 1.9-1-3.4-6.5-6-6.5-6-1.8-3.3-7.9-3.2-7.9-3.2-2.7-2.8-7.3-1.6-7.3-1.6-2-2-5.9-1-5.9-1-2.7-2.3-7.1-.5-7.1-.5-4.5-2.2-8.8 0-8.8 0-5.3-2.8-9.5 0-9.5 0-2.9-3.9-8.8-2.6-8.8-2.6l-6.6-.1c.1.2.2.3.3.5 5.3 7.4 12.9 10.5 20.7 10.2 6.7-.2 28.1-.4 42.6 2.4z" class="colordfe672 svgShape"></path><path fill="#cfd121" d="m104.8 67.4.7-1-1.8.8-2.1-.3.8-2-1.9 1.7-5.7-.8-1.4-4.8s-.9 3.3-2.3 4.4-4.5-.4-4.5-.4c1-1.7.3-4.7.3-4.7s-.3 3.4-1.4 4.6c-1.1 1.2-3.9-.1-3.9-.1.9-1.5.4-5 .4-5s-.7 3.6-1.5 4.8c-.8 1.2-4.2.3-4.2.3 1.2-1.6 1.2-5.2 1.2-5.2-.3 1.3-1.5 4.3-2.4 5.1s-4.6.2-4.6.2c1.8-2.3 2.2-5.4 2.2-5.4-1.7 4.6-4.3 5.4-4.3 5.4l-10.6-.4c2-1.6 3.8-5.8 3.8-5.8s-3.7 5.1-5.7 5.3c-2 .2-3.8-1.5-3.8-1.5 1.6-.7 2.7-2.7 2.7-2.7-1.9 1.9-3.9 1.9-4.4 1.9s-3.1-1.9-3.1-1.9c.9-.1 2.8-1.7 2.8-1.7-5.2 2.3-6.1-1.9-6.1-1.9l-.7.4c5.3 6.7 12.5 9.4 19.9 9.2 6.8-.2 28.2-.5 42.7 2.4.2 0 .3.1.5.1l-1.6-1z" class="colorb3d121 svgShape"></path><path fill="#d1d1cf" d="M2.5 50.2c-.2 1.1-.4 2.9.1 4.4l1.1-4.2c-.4 0-.8-.1-1.2-.2zM7.4 52.9c-.1 1.2.1 3 1.2 4.4l.9-4.5c-.7.1-1.4.1-2.1.1z" class="colorcfcfd1 svgShape"></path><path fill="#fffffa" d="M2.5 50.6c-.1.7-.3 1.9.3 2.9l1-2.8c-.5 0-.9 0-1.3-.1zM7.4 53.3c-.1.8 0 2 1.1 2.8l1-3c-.7.1-1.4.2-2.1.2z" class="colorfafbff svgShape"></path><path fill="#6e3a8c" d="M24.8 39.9s.9-9.1 5.5-9.4 5.3 4 5.3 4l-3.8 7.3-7-1.9z" class="color3e8c3a svgShape"></path><ellipse cx="29.8" cy="37.2" fill="#ffffff" rx="3.8" ry="2.8" transform="rotate(-81.338 29.805 37.204)" class="colorffffff svgShape"></ellipse><path fill="#eaeaea" d="M30.3 33.4h-.8c.3 0 .6.2.9.3 1.3.9 1.3 3 .2 4.7-.7 1-1.6 1.7-2.5 1.9.3.3.7.5 1.2.6 1.5.2 3-1.3 3.3-3.4.2-2-.7-3.8-2.3-4.1z" class="coloreaeaea svgShape"></path><ellipse cx="29.1" cy="37.9" fill="#1483c5" rx="3" ry="1.9" transform="rotate(-81.338 29.096 37.906)" class="color158ee8 svgShape"></ellipse><ellipse cx="28.4" cy="37.8" fill="#050008" rx="1.5" ry="1" transform="rotate(-81.338 28.395 37.804)" class="color000800 svgShape"></ellipse><ellipse cx="29.6" cy="37.3" fill="#ffffff" rx=".7" ry=".5" transform="rotate(-81.338 29.605 37.3)" class="colorffffff svgShape"></ellipse><path fill="#7c469b" d="M30.9 40.1s2.1-11.5 8.9-10.3c6.7 1.2 8.3 9.9 8.3 9.9s8 3.2 4.2 12.5-14.2 6.2-17.6 5.1c-3.4-1.1-11.3-3.1-17.3-2.2-6 .9-7.5-1.2-7.8-2 0 0-3.6 1.5-5.4-1.9 0 0-4.7-1-3.4-3.7C2 44.8 2.5 44 2.6 43.2c.1-.9 1.6-3.2 4.5-1.4s5.1 1.1 5.1 1.1 2.8-2.2 5.4-1.7c0 0 2.7-2.3 6-.7.1-.1 3.8-2.6 7.3-.4z" class="color499b46 svgShape"></path><path fill="#ff9a3a" d="M48.1 39.8c-4.8-1.2-9 1-9 1 7.1 3.1-1.1 5.6-1.1 5.6-1.8 3.1-8 1.6-8 1.6-2.8 3.5-8.2 1.4-8.2 1.4-2.7 3-8.5.4-8.5.4 3.6-2.3 1.4-5.3 1.4-5.3 1.8 3.4-4.2 4.4-4.2 4.4s1.2 1.5-2.2 2.8-3.9-4.9-3.9-4.9l-.3 3s-1-.1-2.2-.9c-.5-.4-.6-1.3-.6-2.3-.1.3-.3.6-.5 1-1.3 2.8 3.4 3.7 3.4 3.7 1.9 3.4 5.4 1.9 5.4 1.9.4.9 1.8 2.9 7.8 2s13.9 1.2 17.3 2.2c3.4 1.1 13.8 4.2 17.6-5.1 3.8-9.3-4.2-12.5-4.2-12.5z" class="color296d30 svgShape"></path><ellipse cx="11.9" cy="46.4" fill="#030005" rx="1.4" ry="1.6" class="color000500 svgShape"></ellipse><path fill="#ffffff" d="M38.4 32.5c-2.3 0-4.1 2.5-4.1 5.7 0 1.6.5 3.1 1.3 4.1 2.7-1.5 5-2.3 6.8-2.7.1-.5.1-.9.1-1.4 0-3.1-1.8-5.7-4.1-5.7z" class="colorffffff svgShape"></path><path fill="#eaeaea" d="M38.4 32.5c-.4 0-.8.1-1.2.3.5 0 .9.1 1.3.3 2 1 2.6 4.1 1.3 6.9l-.3.6c1.1-.4 2-.7 2.9-.9.1-.5.1-.9.1-1.4 0-3.2-1.8-5.8-4.1-5.8z" class="coloreaeaea svgShape"></path><path fill="#1483c5" d="M37.5 34.8c-1.6 0-2.9 2-2.9 4.5 0 1.2.3 2.3.8 3.1 1.8-1 3.4-1.7 4.8-2.2 0-.3.1-.6.1-.9.1-2.5-1.2-4.5-2.8-4.5z" class="color158ee8 svgShape"></path><ellipse cx="36.5" cy="39.3" fill="#050008" rx="1.4" ry="2.2" class="color000800 svgShape"></ellipse><ellipse cx="38.2" cy="38.4" fill="#ffffff" rx=".7" ry="1" class="colorffffff svgShape"></ellipse><path fill="#fdff3d" d="M45.4 44.6c-1.7 4.1-6.6 3.4-6.6 3.4-4.6 3.5-8.6 2.2-8.6 2.2-5 2.6-8.3.7-8.3.7-3.9 2.4-8.9.7-8.9.7-1.4 1.8-3.5 1.7-3.5 1.7.4.9 1.8 2.9 7.8 2s13.9 1.2 17.3 2.2c2.8.9 10.7 3.2 15.3-1.6 1.2-2.1 1.9-4.9 1.2-7.9-.9-4.4-5.7-3.4-5.7-3.4z" class="colordfe672 svgShape"></path><path fill="#ff9a3a" d="M35.8 48.4s-1.7-4.1-5.5-4.8c0 0 4 2.1 4 5.1l1.5-.3zM30.3 49.1s-.8-3-4-4.3c0 0 2.7 2.2 2.8 4.7l1.2-.4zM25 50.3s.4-2.3-2.5-4c0 0 2 2.2 1.3 4H25zM20.2 50.9s-.4-1.9-2.5-3c0 0 2 1.7 1.5 3.3l1-.3z" class="color296d30 svgShape"></path><path fill="#14c5af" d="M7.1 44.5s-1 1.6 1.3.9c2.3-.7 4.9-2 5.6-.8.6 1.2.7-.1.7-.1s-2.5-2.1-4.5-1c-2 1-3.1 1-3.1 1z" class="color69ba65 svgShape"></path><path fill="#3d1d4f" d="M13.7 49.4c-.7.8 1.6-1 1.6-2.8 0-1.1-.5-2.2-1.4-2.9-1.5-1.1-3.5-.8-5.2-.1-.1.2-.4.4-.7.6s-.6.5-.9.3c0 0 0 .7 1.7-.2s4-1 5 0 1.7 3.1-.1 5.1z" class="color1d4f22 svgShape"></path><path fill="#14c5af" d="M12.7 42.9s2.7-2.3 5.2-1.4c0 0 1.6-2.2 5.8-.7 0 0 3.1-2.5 6.9-.3 0 0 1.3.8 1.9 1.6 0 0-4.5-3.3-7.5-1l1.8 1.4s-6-2.9-8-.3l2.2 1.1s-5.3-2.5-6.7.6c.1-.1-1.1-1.2-1.6-1zM31.4 40.1s1.6-9.9 7.7-10c0 0-5.4-.4-6.9 10.8l-.8-.8z" class="color69ba65 svgShape"></path><path fill="#14c5af" d="M31.9 30.9s-5.4-1.6-6.6 8.8l1.1-.3c.1-.1 0-8.5 5.5-8.5z" class="color69ba65 svgShape"></path><path fill="#ff9a3a" d="M50.2 41.1c-1.1-.9-2.1-1.3-2.1-1.3s-1.6-8.7-8.3-9.9c-.2 0-.4-.1-.6-.1.9.4 1.9 1.3 2.8 3.1 2.7 5.4 2.1 8.5 2.1 8.5l6.1-.3z" class="color296d30 svgShape"></path><path fill="#ff9a3a" d="M48.1 39.8s-4.4-2.5-14.5 3.7c0 0 9.4-4.1 14.5-3.7z" class="color296d30 svgShape"></path><path fill="#eeef84" d="m45.4 49.8-3.2-2.2c-1.7.6-3.4.4-3.4.4-4.6 3.5-8.6 2.2-8.6 2.2-5 2.6-8.3.7-8.3.7-3.9 2.4-8.9.7-8.9.7-.7.8-1.5 1.3-2.2 1.5.9 2.3 6.9 1.4 9.7 1.2 3.1-.3 6.5.6 9 .5s14.4 3.4 16.9.4c2.6-3.2-1-5.4-1-5.4z" class="colorecef84 svgShape"></path><path fill="#fffffa" d="M16.4 52.1c-.1.5-.1 1.4.5 2l.7-2h-1.2zM27.6 53.6l.2-2.4c-.5.1-.9.2-1.3.3 0 .5.2 1.5 1.1 2.1zM35.3 52.4l.2-2.6c-.5.2-1 .3-1.5.4.1.6.4 1.6 1.3 2.2zM43.4 50.5l-.2-3.4c-.6.3-1.2.5-1.7.7.1.7.6 2.1 1.9 2.7z" class="colorfafbff svgShape"></path><path fill="#3d1d4f" d="M47.2 46.8c-1.3-3.4-4.1-2.8-4.1-2.8s1.2.1 2.4 1.4c1.1 1.2 1.7 1.4 1.7 1.4z" class="color1d4f22 svgShape"></path><path fill="#3d1d4f" d="M45.4 44.6c-1.7 4.1-6.6 3.4-6.6 3.4-4.6 3.5-8.6 2.2-8.6 2.2-5 2.6-8.3.7-8.3.7-3.9 2.4-8.9.7-8.9.7-1.4 1.8-3.5 1.7-3.5 1.7s1.7.9 3.7-.6c0 0 5.4 1.2 8.7-1 0 0 4 1.9 8.2-.8 0 0 4.9 1.4 8.8-2.2.1 0 5.2.3 6.5-4.1z" class="color1d4f22 svgShape"></path><path fill="#7c469b" d="M92.4 57c-.9.2-1.8.5-2.6 1.1-.7.5-1.1 1.3-1.2 2.2-.2 1.3.3 2.6.9 3.8.8 1.7 2 3.4 3.7 4.3-.8.1-1.6.2-2.4.4-.6.2-1.1.4-1.5.8-.2.2-.3.4-.3.7-.1.5-.1 1 .1 1.4s.7.7 1.2.6c-.4.5-.2 1.4.3 1.8.5.5 1.2.7 1.8.7 0 .9.7 1.6 1.6 1.8s1.7 0 2.5-.4 1.4-1 2.1-1.6c.1-.1.3-.2.4-.3.2-.1.4-.1.6-.1 1.3-.1 2.7-.8 3.2-2 .2-.4.2-.9.2-1.4 0-1.7-.5-3.4-1.5-4.8 1.1-.2 2.1-1.1 2.4-2.2.3-1.1.1-2.3-.5-3.3-2.3-3.3-7.3-4.3-11-3.5z" class="color499b46 svgShape"></path><path fill="#ff9a3a" d="M102.2 63.6c-1 .1-1.9-.5-2.7-1.1-1.4-1-3-2.1-4.7-1.8-.2 0-.3.1-.5.2-.3.2-.2.7 0 1s.5.4.9.6c1.2.6 2.4 1.2 3.5 2.1 1 .9 1.9 2 2.3 3.3.2.7.2 1.4.3 2.1 0 .9 0 1.9-.8 2.4-.7.5-1.7.2-2.6.5-.6.2-1.1.6-1.7.8-.6.2-1.4.1-1.6-.6v-.3c.1-.2.3-.3.5-.3.4-.1.8-.1 1.2-.2-.7-.1-1.3 0-2-.1-.7 0-1.4-.2-1.8-.8-.2-.2-.3-.6-.1-.8.1-.2.4-.2.6-.3.4-.1.7-.2 1.1-.3-.5-.2-1.1-.3-1.7-.1-.5.1-.9.2-1.2-.3-.2-.3-.4-.6-.4-.9-.5.2-1.1.4-1.4.8-.3.3-.4.5-.4.8-.1.5-.1 1 .1 1.4s.7.7 1.2.6c-.4.5-.2 1.4.3 1.8.5.5 1.2.7 1.8.7 0 .9.7 1.6 1.6 1.8.8.2 1.7 0 2.5-.4s1.4-1 2.1-1.6c.1-.1.3-.2.4-.3.2-.1.4-.1.6-.1 1.3-.1 2.7-.8 3.2-2 .2-.4.2-.9.2-1.4 0-1.7-.5-3.4-1.5-4.8 1.1-.2 2.1-1.1 2.4-2.2.1-.4.2-.9.1-1.4-.5.7-1.1 1.2-1.8 1.2z" class="color296d30 svgShape"></path><path fill="#592d72" d="M100 70.4S92.8 69 90 65c.8 1.4 1.8 2.7 3.2 3.4-.1-.1 3 2.2 6.8 2z" class="color2d6936 svgShape"></path><g fill="#3d1d4f" class="color1d4f22 svgShape"><path d="M94 70.1h-.6.6zM102.6 72.3c.2-.4.2-.9.2-1.4 0-1.7-.5-3.4-1.5-4.8 0 0-1.8-3.3-5.6-4.3 0 0 6 3.4 6.6 7.8.6 4.3-3 4-3 4s-.7-.2-1.3.6c-.5.8-2.8 2.2-3.4 1.9 0 0 1.3-1.2-.4-2.2 0 0-.8-.3-.9 0 0 0 .9-1.7 1.9-1.7 0 0-1.8-.1-2.4 1.5 0 0 .3-1.1-.5-1.7-.8-.5-1.4-.4-1.4-.4s1-1.6 2.5-1.8c-.8 0-2.2.2-2.7 1.2 0 0 .5-1.6-.8-1.8l.7-.7c-.5.2-1.1.4-1.4.8-.1.5-.2.7-.2 1-.1.5-.1 1 .1 1.4s.7.7 1.2.6c-.4.5-.2 1.4.3 1.8.5.5 1.2.7 1.8.7 0 .9.7 1.6 1.6 1.8.8.2 1.7 0 2.5-.4s1.4-1 2.1-1.6c.1-.1.3-.2.4-.3.2-.1.4-.1.6-.1 1.2.1 2.6-.6 3-1.9z" fill="#ff2020" class="color000000 svgShape"></path></g><path fill="#dfdfdf" d="M91.5 77.4s.5-3 2.1-3.2 1.2 1.8.7 1.9c-.5.2-2 .3-2.8 1.3zM89.2 75.5s.5-2.9 2.1-3.1c1.5-.2 1.1 1.7.7 1.8-.6.1-2 .2-2.8 1.3zM87.6 72.7s.5-2.6 1.9-2.8c1.4-.1 1 1.5.6 1.6-.5.2-1.7.3-2.5 1.2z" class="colordfdfdf svgShape"></path><path fill="#f4f4f4" d="M93.9 74.9c0-.1-.1-.1-.1-.2-.2-.2-.5-.3-.8-.2-.7.5-1.1 1.6-1.3 2.3.2-.2.4-.3.6-.4.3-.1.6-.2.8-.3.3-.1.7-.3.8-.6.1-.1.1-.3 0-.4v-.2zM89.3 74.8c.2-.3.5-.5.7-.7l.6-.3c.2-.1.4-.2.5-.4.1-.2.1-.5 0-.6s-.3-.2-.4-.2c-.8.4-1.2 1.5-1.4 2.2zM89.4 70.1c-.1 0-.2-.1-.3-.1-.6.3-1 1.1-1.2 1.7.3-.2.6-.3 1-.4.1 0 .2-.1.4-.1.2-.1.4-.2.4-.4.1-.2 0-.4-.1-.6-.1 0-.1-.1-.2-.1z" class="colorf4f4f4 svgShape"></path><circle cx="95.3" cy="64.3" r=".6" fill="#ff9a3a" class="color296d30 svgShape"></circle><circle cx="95.3" cy="65.8" r=".6" fill="#ff9a3a" class="color296d30 svgShape"></circle><circle cx="97.2" cy="65.3" r=".6" fill="#ff9a3a" class="color296d30 svgShape"></circle><circle cx="97.4" cy="67.2" r=".8" fill="#ff9a3a" class="color296d30 svgShape"></circle><ellipse cx="99.7" cy="67.4" fill="#ff9a3a" rx=".6" ry=".8" class="color296d30 svgShape"></ellipse><ellipse cx="98.9" cy="69" fill="#ff9a3a" rx=".6" ry=".7" class="color296d30 svgShape"></ellipse><path fill="#7c469b" d="M63.2 52.5c.8-.1 1.8-.1 2.5.4.1.1.3.2.4.3.2.1.4 0 .7 0 1.4-.3 3-.3 4 .7.5.5.9 1.1 1.1 1.8.6 1.9.4 4.1-.3 6-.7 1.9-1.9 3.6-3 5.3-.1.2-.3.4-.3.6-.1.3 0 .5 0 .8.1 1.7-1.5 3.2-3.1 3.2h-.8c-.9.2-1.3 1.3-2.1 1.8-.4.2-.8.3-1.3.3-.8.1-1.6.1-2.3-.1s-1.4-.8-1.5-1.6c-.6 0-1.2-.3-1.6-.8-.3-.3-.4-.7-.6-1.1-.2-.5-.4-1-.6-1.4-.1-.3-.2-.6-.3-.8-.3-1.1.3-2.4 1.3-2.9.9-.5 1.9-.4 2.8-.2.3.1.5.1.8.1s.5-.1.7-.1c.8-.2 1.5-.3 2.3-.5-.2-.6-.3-1.1-.3-1.7-.8.1-1.6.1-2.4.1-.6 0-1.2 0-1.8-.2-2.4-.8-2.6-3.6-1.7-5.6.7-1.6 1.6-2.2 3.1-3 1.4-.7 2.8-1.2 4.3-1.4z" class="color499b46 svgShape"></path><path fill="#ff9a3a" d="M71.9 55.6c-.2-.7-.6-1.3-1.1-1.8-.6-.5-1.3-.7-2-.8.4.3.7.8 1 1.2.6 1.1.6 2.5.5 3.7-.2 2.4-1.1 4.7-2.5 6.7-.4.6-1 1.3-1.1 2s.1 1.4-.2 2c-.3.6-1 .8-1.6 1-.6.1-1.3.2-1.9.5-.6.4-1.1 1.1-1.8 1.4-.9.3-2-.5-1.9-1.5-.3-.1-.5-.1-.8-.2.4-1-.3-2.3-1.3-2.5 0-.9-.5-1.7-1.3-2.2-.1-.1-.3-.1-.4-.2h-.1c-1 .5-1.6 1.8-1.3 2.9.1.3.2.6.3.8.2.5.4 1 .6 1.4.2.4.3.8.6 1.1.4.5 1 .8 1.6.8.1.8.8 1.4 1.5 1.6s1.5.1 2.3.1c.4 0 .9-.1 1.3-.3.8-.5 1.2-1.6 2.1-1.8.2-.1.5 0 .8 0 1.7 0 3.2-1.6 3.1-3.2 0-.3-.1-.5 0-.8l.3-.6c1.1-1.7 2.3-3.4 3-5.3.6-1.9.9-4.1.3-6z" class="color296d30 svgShape"></path><path fill="#ff9a3a" d="M58.2 59.5c-.9-.5-1.8-1.3-1.9-2.3-.1-.5 0-.9.2-1.4-.2.3-.4.6-.6 1-.8 2-.7 4.8 1.7 5.6.6.2 1.2.2 1.8.2.8 0 1.6 0 2.4-.1v-.2c0-.8.2-1.5.6-2.2-1.4.3-2.9 0-4.2-.6z" class="color296d30 svgShape"></path><path fill="#3d1d4f" d="M68.5 66.9c1.1-1.7 2.3-3.4 3-5.3.7-1.9 1-4 .3-6-.2-.7-.6-1.3-1.1-1.8-1.1-.9-2.6-1-4-.7-.2.1-.5.1-.7 0s-.3-.2-.4-.3c-.7-.5-1.6-.5-2.5-.4-1.5.2-2.8.7-4.2 1.3-.9.4-1.5.8-2.1 1.4 2.5-1.2 6.9-2.8 8.6-1.3l-.9 1.2s4.1-3.1 5.9-.7c1.8 2.4.8 7.5-2.9 12.4 0 0 .2 3.4-1.5 3.8-1.5.5-2 .3-2 .3s-3 3.3-4 2.3c0 0 0-2.8-1.3-2.5 0 0 1-1.7 2.8-1.1 0 0-2.7-1.4-4 1.2 0 0 .1-2.7-1.1-2.5 0 0 1.6-1.9 3.1-1.4 0 0-3.1-1-3.8 1 0 0 .8-2.3-.8-2.6-.7.6-1.1 1.6-.9 2.6.1.3.2.6.3.8.2.5.4 1 .6 1.4.2.4.3.8.6 1.1.4.5 1 .8 1.6.8.1.8.8 1.4 1.5 1.6s1.5.1 2.3.1c.4 0 .9-.1 1.3-.3.8-.5 1.2-1.6 2.1-1.8.2-.1.5 0 .8 0 1.7 0 3.2-1.6 3.1-3.2 0-.3-.1-.5 0-.8l.3-.6z" class="color1d4f22 svgShape"></path><path fill="#dfdfdf" d="M56.1 75.1s.6-3.4 2.4-3.6c1.8-.2 1.3 2 .8 2.1-.6.2-2.2.3-3.2 1.5zM53.5 72.9s.6-3.2 2.3-3.4c1.7-.2 1.3 1.9.7 2-.5.1-2.1.3-3 1.4zM51.8 69.8s.5-2.9 2.1-3.1 1.2 1.7.7 1.8c-.5.2-1.9.3-2.8 1.3z" class="colordfdfdf svgShape"></path><path fill="#f4f4f4" d="M58.8 72.3c0-.1-.1-.1-.1-.2-.2-.2-.6-.3-.9-.3-.8.6-1.3 1.8-1.5 2.6.2-.2.4-.3.7-.4l.9-.3c.4-.1.7-.3.9-.7.1-.2.1-.3.1-.5-.1-.1-.1-.2-.1-.2zM53.7 72.2c.2-.3.5-.6.8-.8.2-.1.4-.2.7-.3.2-.1.4-.3.5-.5s.1-.5 0-.7c-.1-.1-.3-.2-.5-.2-.8.4-1.2 1.7-1.5 2.5zM53.8 66.9c-.1 0-.2-.1-.3-.1-.7.3-1.1 1.2-1.4 1.9.3-.2.7-.4 1.1-.5.1 0 .3-.1.4-.1.2-.1.4-.3.5-.5s0-.5-.1-.6c0 0-.1-.1-.2-.1z" class="colorf4f4f4 svgShape"></path><ellipse cx="65.3" cy="59.6" fill="#ff9a3a" rx=".7" ry=".9" class="color296d30 svgShape"></ellipse><ellipse cx="67.2" cy="59.8" fill="#ff9a3a" rx=".4" ry=".6" class="color296d30 svgShape"></ellipse><ellipse cx="66.2" cy="62.1" fill="#ff9a3a" rx=".9" ry="1" class="color296d30 svgShape"></ellipse><circle cx="66.2" cy="64" r=".6" fill="#ff9a3a" class="color296d30 svgShape"></circle><ellipse cx="68.1" cy="61.2" fill="#ff9a3a" rx=".5" ry=".6" class="color296d30 svgShape"></ellipse><path fill="#ff9a3a" d="M58.5 41.7c-.2.3-.3.6-.4.9 0 .1-.1.3 0 .4.1.1.2.1.3.2.4.1.8.2 1.2.2-.1.2.1.4.3.4s.4-.1.5-.3.3-.3.4-.4c.1 0 .1-.1.2-.1.2-.2-.1-.5-.3-.7-.5-.3-1.1-.5-1.7-.7M61.9 42.1c-.1.4-.1.9.3 1.1.2.1.3.1.5.1.7.1 1.3.1 2 .2.1-.2 0-.5-.2-.6-.1 0-.2-.1-.2-.1-.1-.1-.1-.2-.2-.3-.1-.3-.4-.5-.8-.6-.3-.1-.7 0-1 0M69.2 43.6c.3-.1.2-.4 0-.5-.7-.4-2.1-1.3-2.8-.2-.6 1.1 2.2.8 2.8.7zM64.5 44.2c.5.1.9.2 1.4.4-.1.3.3.7.6.6.2.3-.2.6-.5.7-.4.1-.8.2-1.2.1-.4-.1-.7-.5-.6-1-.3.2-.7-.1-.7-.4 0-.3.5-.6.8-.4M67.6 44.7c.8 0 1.6 0 2.4-.1h.1s0 .1.1.1c.1.5-.1 1.1-.5 1.5-.1.1-.1.1-.2.1h-.3c-.7-.2-1.3-.8-1.6-1.6M70.5 43.5v-1c-.2.1-.5-.1-.5-.3.7-.2 1.4 0 2.1.3.2.1.4.1.5.3.2.3-.2.8-.6.9-.4.1-.8-.1-1.2-.1M71 44.8c.4 0 .8-.1 1.1-.1.1 0 .3 0 .4.1s.2.2.2.4c0 .4-.4.8-.8.8s-.8-.4-.8-.8M73.3 43.8c.2-.3.4-.6.7-.9.1-.1.1-.2.2-.2.1-.1.3 0 .4.1.5.3.8.8 1 1.4 0 .1.1.3 0 .4-.1.3-.3.4-.6.5-.3.1-.7-.1-1-.3s-.4-.5-.6-.8M76.6 44c-.3-.3-.6-.7-.9-1 .7.1 1.4.2 2.2.1h.4c.4.1.4.7.1 1s-.7.3-1.1.3M76 45.5c.1-.5.8-.7 1.3-.7.2 0 .5 0 .7.2.3.3 0 .8-.4.9-.4.1-.8 0-1.1-.2M78.8 44.9c.2-.2.4-.4.7-.6.1-.1.2-.2.3-.2.3-.1.5.1.7.3.2.1.3.3.3.5s-.2.4-.4.5c-.2.1-.4 0-.7 0-.4-.1-.8-.3-1.1-.5M81.2 42.9c.2-.2.5-.1.7.1.2.1.4.3.6.4 0 .2.1.4.1.6v.1l-.1.1c-.2.1-.4 0-.7-.1-.2-.1-.4-.2-.6-.2H81c-.2-.1-1-.1-.8-.6.1-.2.2-.2.4-.2.3 0 .2.1.6-.2zM82.5 44.9c.1 0 .2-.1.3-.1h.3c.1.1.1.2.1.3v.5c-.1.2-.2.3-.3.3h-.4c-.1 0-.2.1-.3.1-.3 0-.9-.5-.8-.8 0-.5.8-.2 1.1-.3zM78.9 45.8c.2-.1.5 0 .6.1s.1.3.3.3c.1.1 0 .3-.1.4-.1.1-.3.1-.4 0-.3-.1-.6-.1-.9-.3 0 0-.1 0-.1-.1v-.1c.1-.2.3-.4.6-.3M73.3 45.6c.1-.2.4-.3.6-.3.1.2.2.3.4.4.1 0 .2.1.2.2 0 .2-.1.3-.3.3-.3.1-.6.1-.8 0h-.1l-.1-.1c-.1-.1-.1-.3-.2-.4M62.5 44.3c0 .2 0 .4-.1.6-.1.1-.3.1-.4.1-.6 0-1.3-.6-.7-1.1.3-.2 1.2.1 1.2.4zM84 43.3c.2.1.4.2.6.2h.3l.1.1c.1.2.1.5 0 .6-1 1.4-2.4-1.4-1-.9zM85.8 46.2c-.3.5-2.2.7-1.8-.3.2-.4.5-.6.9-.6s.3.1.4.4c.1 0 .4.7.5.5zM81.3 46.5c.2-.1.4 0 .5.2.1.1.1.3.1.5.2 0 .4.1.4.2-.2.2-.5.2-.8.2h-.2c-.1 0-.2-.1-.2-.2-.2-.2-.3-.4-.5-.7l-.1-.1c0-.1.1-.2.2-.2h.3M86.8 44.1c.1 0 .1 0 0 0 .2 0 .2.1.2.1.1.1.2.2.2.3.1.2.2.4.1.6 0 0 0 .1-.1.1h-.1c-.5.1-.9-.1-1.1-.6 0-.5.3-.5.8-.5zM85.1 48c-.5.5-1.6-.1-1.1-.7.3-.3 1.6.2 1.1.7zM86.5 46.5c.2 0 .4-.1.4-.3v-.1l.1-.1c.3 0 .7.1 1 .3l.1.1v.2c0 .2.1.4 0 .5 0 0-.1.1-.2.1-.4.1-.8.2-1.2.1-.7.1-1.3-.7-.2-.8zM90 44.7c.1 0 .3.2.4.2h.2c.1 0 .1.1.1.2.1.1.2.3.3.3-.2.6-1.7.4-2.1 0-.2-.2-.2-.6 0-.8.3-.1.8 0 1.1.1zM89.6 46.4c.3 0 .5 0 .7.2.1.1.1.3.2.5 0 .2.1.3.1.5-.7.2-1.4.1-1.8-.6-.4-.7.3-.6.8-.6zM93.6 46.1c.2.1.3.2.5.2.1 0 .2.1.3.1.3.1.4.6.1.8-.6.7-2.1.4-2.5-.3-.5-1 .9-1.1 1.6-.8zM93.4 48.7c.1.1.2.2.1.4s-.3.2-.5.1c-.3 0-.6 0-.9.1-.7.2-1.6-.6-.9-1.2.8-.6 1.7 0 2.2.6zM96.4 48c.1.1.2.2.2.3 0 .2 0 .4.1.5s.3.2.3.4c0 .4-2.4.3-2.5-.5-.3-1.1 1.3-1.3 1.9-.7zM97.8 46.8c.1.1.1.3.1.4v.2h-.1c-.4 0-1.7.1-1.5-.6.2-.5 1.2-.4 1.5 0zM99.7 48.7c.1.1.3.1.4.2s.2.3.1.4c-.2 0-.4.1-.6.1-.5.1-1.6-.5-1.3-1.2.2-1 1 .3 1.4.5zM102.6 48.7c.1.2 0 .5-.2.6-.5.3-1.7-.1-1.4-.9.3-.8 1 .4 1.6.3zM98.3 49.5s-.1 0 0 0c.5 0 .8.6 1.3.7 0 .2-.1.4-.3.5-.2.1-.4 0-.7 0-.1 0-.3-.1-.4-.2-.1-.1.1-.8.1-1zM101.5 50.1c.1.1.2.1.3.1.2 0 .5.2.6.4v.1c0 .1-.1.1-.1.1-.6.3-1.5.1-1.7-.6-.1-.2-.1-.4.2-.5.3-.2.5.2.7.4zM104.9 50.4c.2.2.3.5.2.6-.1.1-.2.1-.4.1-.5.1-1.5-.5-1.1-1.2.2-.4 1 .2 1.3.5zM96.6 50.1h.9v.1c0 .2 0 .5-.2.6-.1.1-.2.1-.4.1-.4 0-.8-.2-1-.5 0 0-.1-.1 0-.2 0 0 .1 0 .1-.1h.6M101.2 51.6c.2.1.3.2.5.3s.3.2.3.4c-.2.4-1.5-.2-1.6-.4-.7-.8.4-.5.8-.3zM104.5 51.5c0 .2.1.4.3.5.1 0 .1.1.1.2l-.1.1c-.6.3-1.5.4-1.7-.4-.1-1 1-.2 1.4-.4zM106.9 51.6c.2.1.4.2.4.4.3 0 .7 0 .9.2.1.1.1.1.1.2.1.1.2.1.3.2.1.1.1.2.1.3h-1.6c-.1 0-.2-.1-.2-.2-.2-.2-1.2-.6-1.2-.9 0-.4 1-.3 1.2-.2zM107 54c-.4.2-1.9-.1-1-.7.4-.3 1.6.4 1 .7zM104.7 53.5c.1.1 0 .2-.1.3-.4.3-1.3-.2-1.2-.7.2-.6 1.1.1 1.3.4zM110.8 54.8c.1.1.3.2.2.4-.1.1-.2.1-.3.1-.7 0-1.9-.1-1.4-1.1.1-.2.2-.4.5-.3.1 0 .2.4.3.5.1.1.5.2.7.4zM113.6 56c.1 0 .1.1.1.2l-.1.1c-.4.2-1.3.2-1.3-.5.1-.7 1 0 1.3.2zM107.5 54.1h1c-.1.2 0 .5.2.6.1.1.3.2.2.4 0 .1-.2.1-.3.1h-.5c-.3-.1-.5-.5-.7-.8M110.6 56c.3 0 .7-.1 1 .1l.3.3c.1.1.1.2.2.2-.3.1-.6.2-.8.1-.4-.1-.5-.6-.7-.7M113.3 56.8c.4.1.8-.1 1.1.1.1.1.2.2.2.3.1.1.1.2.2.3-.1.2-.4.1-.5 0-.2-.1-.3-.2-.5-.3-.1-.1-.3-.1-.4-.2M117.7 58.6s.1.1 0 0v.2c-.4.4-.6-.1-.9-.2-.2-.1-.6-.1-.5-.5s.2-.2.5-.1c.2.1.7.4.9.6zM120.5 60.5c.2.1.4.2.4.4-.4.2-.9 0-1.1-.4-.1-.2-1-.8-.6-1 .5-.2 1 .9 1.3 1zM122.7 62.8c0 .1 0 .2.1.2 0 .1.1.1.2.2.2.1.4.4.4.6-.1.1-.3.1-.5 0-.5-.3-1.7-.8-1.2-1.6.2-.3.1-.2.3-.1.2 0 .7.5.7.7zM124.5 66.3c.1.2.2.3.3.5.1.2.1.5.1.8v.1h-.1c-.2 0-.3-.2-.3-.4s0-.3-.1-.5c-.2-.4-.9-1.2-.2-1.5.2.3.1.7.3 1zM124.4 69.6c0 .3-.1.6-.1 1 0 .2.1.3.1.5s-.1.4-.2.4c-.2 0-.4-.1-.4-.3 0-.2 0-.4.1-.6.1-.4.1-1.5.4-1.7.1.2.1.5.1.7zM125.4 70c.2 0 .2.1.2.2.2.6-.1 1.3-.1 1.9v.2c-.1.1-.2 0-.2-.1v-.3c0-.4 0-.8-.1-1.2-.2-.3-.4-.7.2-.7zM124.1 73.9v.3c0 .1 0 .1-.1.2 0 0 0 .1-.1.1l-.3.6c0 .1-.1.2-.1.2-.4.3-.6-.1-.7-.4 0-.4.2-.8.4-1.1.1-.2.4-.7.6-.8.5 0 .3.7.3.9zM122.1 78.8l-.3.3c-.1.1-.1.2-.1.3-.1.1-.2.2-.3.2-.1-.3.1-.4.3-.6.2-.3.1-.4.2-.7.1-.4.4-.7.7-.8 1.1-.7-.2 1-.5 1.3z" class="color296d30 svgShape"></path></svg>