<svg xmlns="http://www.w3.org/2000/svg" viewBox="0 0 128 128" id="Ant"><linearGradient id="a" x1="88" x2="88" y1="30.995" y2="69.054" gradientUnits="userSpaceOnUse"><stop offset="0" stop-color="#ff2020" class="stopColora34f31 svgShape"></stop><stop offset=".177" stop-color="#14c5af" class="stopColor8d4026 svgShape"></stop><stop offset=".522" stop-color="#1483c5" class="stopColor672712 svgShape"></stop><stop offset=".8" stop-color="#350650" class="stopColor501706 svgShape"></stop><stop offset=".974" stop-color="#2e0247" class="stopColor471102 svgShape"></stop></linearGradient><path fill="url(#a)" d="M83.002 58c.35 0 .705-.092 1.027-.285l10-6a2 2 0 0 0-2.058-3.43l-10 6A2 2 0 0 0 83.002 58z"></path><linearGradient id="b" x1="40" x2="40" y1="30.995" y2="69.054" gradientUnits="userSpaceOnUse"><stop offset="0" stop-color="#ff2020" class="stopColora34f31 svgShape"></stop><stop offset=".177" stop-color="#14c5af" class="stopColor8d4026 svgShape"></stop><stop offset=".522" stop-color="#1483c5" class="stopColor672712 svgShape"></stop><stop offset=".8" stop-color="#350650" class="stopColor501706 svgShape"></stop><stop offset=".974" stop-color="#2e0247" class="stopColor471102 svgShape"></stop></linearGradient><path fill="url(#b)" d="M44.998 58c-.35 0-.705-.092-1.027-.285l-10-6a2 2 0 0 1 2.058-3.43l10 6A2 2 0 0 1 44.998 58z"></path><linearGradient id="c" x1="30" x2="30" y1="19.302" y2="58.651" gradientUnits="userSpaceOnUse"><stop offset="0" stop-color="#ff2020" class="stopColora34f31 svgShape"></stop><stop offset=".177" stop-color="#14c5af" class="stopColor8d4026 svgShape"></stop><stop offset=".522" stop-color="#1483c5" class="stopColor672712 svgShape"></stop><stop offset=".8" stop-color="#350650" class="stopColor501706 svgShape"></stop><stop offset=".974" stop-color="#2e0247" class="stopColor471102 svgShape"></stop></linearGradient><path fill="url(#c)" d="M35.001 52a1.997 1.997 0 0 1-1.538-.72l-10-12a2 2 0 1 1 3.073-2.56l10 12A2 2 0 0 1 35.001 52z"></path><linearGradient id="d" x1="42.5" x2="42.5" y1="57.5" y2="94.864" gradientUnits="userSpaceOnUse"><stop offset="0" stop-color="#ff2020" class="stopColora34f31 svgShape"></stop><stop offset=".177" stop-color="#14c5af" class="stopColor8d4026 svgShape"></stop><stop offset=".522" stop-color="#1483c5" class="stopColor672712 svgShape"></stop><stop offset=".8" stop-color="#350650" class="stopColor501706 svgShape"></stop><stop offset=".974" stop-color="#2e0247" class="stopColor471102 svgShape"></stop></linearGradient><path fill="url(#d)" d="M36 86.001a2 2 0 0 1-.718-3.867l13-5a1.999 1.999 0 1 1 1.435 3.732l-13 5a1.984 1.984 0 0 1-.717.135z"></path><linearGradient id="e" x1="33.5" x2="33.5" y1="46.4" y2="83.01" gradientUnits="userSpaceOnUse"><stop offset="0" stop-color="#ff2020" class="stopColora34f31 svgShape"></stop><stop offset=".177" stop-color="#14c5af" class="stopColor8d4026 svgShape"></stop><stop offset=".522" stop-color="#1483c5" class="stopColor672712 svgShape"></stop><stop offset=".8" stop-color="#350650" class="stopColor501706 svgShape"></stop><stop offset=".974" stop-color="#2e0247" class="stopColor471102 svgShape"></stop></linearGradient><path fill="url(#e)" d="M26 75.001a2.003 2.003 0 0 1-.743-3.859l15-6a2.006 2.006 0 0 1 2.6 1.114 2.002 2.002 0 0 1-1.114 2.601l-15 6a2.007 2.007 0 0 1-.743.144z"></path><linearGradient id="f" x1="48.457" x2="48.457" y1="53.638" y2="88.417" gradientUnits="userSpaceOnUse"><stop offset="0" stop-color="#ff2020" class="stopColora34f31 svgShape"></stop><stop offset=".177" stop-color="#14c5af" class="stopColor8d4026 svgShape"></stop><stop offset=".522" stop-color="#1483c5" class="stopColor672712 svgShape"></stop><stop offset=".8" stop-color="#350650" class="stopColor501706 svgShape"></stop><stop offset=".974" stop-color="#2e0247" class="stopColor471102 svgShape"></stop></linearGradient><path fill="url(#f)" d="M55.436 72a2.64 2.64 0 0 1-.342-.022L39.69 69.974c-1.405-.183-.73-5.146.679-4.969l15.403 2.005c1.405.183 2.393 1.444 2.205 2.815-.172 1.26-1.274 2.175-2.541 2.175z"></path><linearGradient id="g" x1="50" x2="50" y1="37.491" y2="70.343" gradientUnits="userSpaceOnUse"><stop offset="0" stop-color="#ff2020" class="stopColora34f31 svgShape"></stop><stop offset=".177" stop-color="#14c5af" class="stopColor8d4026 svgShape"></stop><stop offset=".522" stop-color="#1483c5" class="stopColor672712 svgShape"></stop><stop offset=".8" stop-color="#350650" class="stopColor501706 svgShape"></stop><stop offset=".974" stop-color="#2e0247" class="stopColor471102 svgShape"></stop></linearGradient><path fill="url(#g)" d="M54.338 63a3.16 3.16 0 0 1-1.473-.354l-9.574-5.059c-1.222-.646 1.729-4.153 2.95-3.508l9.574 5.059c1.222.646 1.553 1.955.738 2.923-.512.61-1.356.939-2.215.939z"></path><linearGradient id="h" x1="53.422" x2="53.422" y1="61.5" y2="90.357" gradientUnits="userSpaceOnUse"><stop offset="0" stop-color="#ff2020" class="stopColora34f31 svgShape"></stop><stop offset=".177" stop-color="#14c5af" class="stopColor8d4026 svgShape"></stop><stop offset=".522" stop-color="#1483c5" class="stopColor672712 svgShape"></stop><stop offset=".8" stop-color="#350650" class="stopColor501706 svgShape"></stop><stop offset=".974" stop-color="#2e0247" class="stopColor471102 svgShape"></stop></linearGradient><path fill="url(#h)" d="M48.503 82c-.879 0-2.423-4.014-1.216-4.685l8.999-4.999a2.499 2.499 0 1 1 2.427 4.371l-8.999 4.999a2.492 2.492 0 0 1-1.211.314z"></path><linearGradient id="i" x1="31" x2="31" y1="64.167" y2="117.604" gradientUnits="userSpaceOnUse"><stop offset="0" stop-color="#ff2020" class="stopColora34f31 svgShape"></stop><stop offset=".177" stop-color="#14c5af" class="stopColor8d4026 svgShape"></stop><stop offset=".522" stop-color="#1483c5" class="stopColor672712 svgShape"></stop><stop offset=".8" stop-color="#350650" class="stopColor501706 svgShape"></stop><stop offset=".974" stop-color="#2e0247" class="stopColor471102 svgShape"></stop></linearGradient><path fill="url(#i)" d="M25.999 107a2 2 0 0 1-1.804-2.86l10-21a2 2 0 0 1 3.612 1.721l-10 21A2.005 2.005 0 0 1 25.999 107z"></path><linearGradient id="j" x1="19" x2="19" y1="42.688" y2="81.885" gradientUnits="userSpaceOnUse"><stop offset="0" stop-color="#ff2020" class="stopColora34f31 svgShape"></stop><stop offset=".177" stop-color="#14c5af" class="stopColor8d4026 svgShape"></stop><stop offset=".522" stop-color="#1483c5" class="stopColor672712 svgShape"></stop><stop offset=".8" stop-color="#350650" class="stopColor501706 svgShape"></stop><stop offset=".974" stop-color="#2e0247" class="stopColor471102 svgShape"></stop></linearGradient><path fill="url(#j)" d="M26.286 75H11.714C10.768 75 10 74.104 10 73s.768-2 1.714-2h14.571c.947 0 1.715.896 1.715 2s-.768 2-1.714 2z"></path><linearGradient id="k" x1="6.5" x2="6.5" y1="45.286" y2="82.052" gradientUnits="userSpaceOnUse"><stop offset="0" stop-color="#ff2020" class="stopColora34f31 svgShape"></stop><stop offset=".177" stop-color="#14c5af" class="stopColor8d4026 svgShape"></stop><stop offset=".522" stop-color="#1483c5" class="stopColor672712 svgShape"></stop><stop offset=".8" stop-color="#350650" class="stopColor501706 svgShape"></stop><stop offset=".974" stop-color="#2e0247" class="stopColor471102 svgShape"></stop></linearGradient><ellipse cx="6.5" cy="72.5" fill="url(#k)" rx="4.5" ry="2.5"></ellipse><linearGradient id="l" x1="23.5" x2="23.5" y1="82.5" y2="123.899" gradientUnits="userSpaceOnUse"><stop offset="0" stop-color="#ff2020" class="stopColora34f31 svgShape"></stop><stop offset=".177" stop-color="#14c5af" class="stopColor8d4026 svgShape"></stop><stop offset=".522" stop-color="#1483c5" class="stopColor672712 svgShape"></stop><stop offset=".8" stop-color="#350650" class="stopColor501706 svgShape"></stop><stop offset=".974" stop-color="#2e0247" class="stopColor471102 svgShape"></stop></linearGradient><path fill="url(#l)" d="M25.791 106.301c-1.461-.893-3.672.264-4.937 2.583-1.265 2.319-1.107 4.922.354 5.814s3.672-.264 4.937-2.582c1.266-2.319 1.107-4.922-.354-5.815z"></path><linearGradient id="m" x1="22" x2="22" y1="15.59" y2="45.5" gradientUnits="userSpaceOnUse"><stop offset="0" stop-color="#ff2020" class="stopColora34f31 svgShape"></stop><stop offset=".177" stop-color="#14c5af" class="stopColor8d4026 svgShape"></stop><stop offset=".522" stop-color="#1483c5" class="stopColor672712 svgShape"></stop><stop offset=".8" stop-color="#350650" class="stopColor501706 svgShape"></stop><stop offset=".974" stop-color="#2e0247" class="stopColor471102 svgShape"></stop></linearGradient><path fill="url(#m)" d="M24.88 31.985c-1.533-2.919-4.065-4.607-5.656-3.77-1.591.837-1.638 3.882-.105 6.801s4.065 4.607 5.656 3.77c1.591-.837 1.638-3.882.105-6.801z"></path><linearGradient id="n" x1="85.5" x2="85.5" y1="57.5" y2="94.864" gradientUnits="userSpaceOnUse"><stop offset="0" stop-color="#ff2020" class="stopColora34f31 svgShape"></stop><stop offset=".177" stop-color="#14c5af" class="stopColor8d4026 svgShape"></stop><stop offset=".522" stop-color="#1483c5" class="stopColor672712 svgShape"></stop><stop offset=".8" stop-color="#350650" class="stopColor501706 svgShape"></stop><stop offset=".974" stop-color="#2e0247" class="stopColor471102 svgShape"></stop></linearGradient><path fill="url(#n)" d="M92 86.001a2 2 0 0 0 .718-3.867l-13-5a1.999 1.999 0 1 0-1.435 3.732l13 5c.235.091.478.135.717.135z"></path><linearGradient id="o" x1="94.5" x2="94.5" y1="46.4" y2="83.01" gradientUnits="userSpaceOnUse"><stop offset="0" stop-color="#ff2020" class="stopColora34f31 svgShape"></stop><stop offset=".177" stop-color="#14c5af" class="stopColor8d4026 svgShape"></stop><stop offset=".522" stop-color="#1483c5" class="stopColor672712 svgShape"></stop><stop offset=".8" stop-color="#350650" class="stopColor501706 svgShape"></stop><stop offset=".974" stop-color="#2e0247" class="stopColor471102 svgShape"></stop></linearGradient><path fill="url(#o)" d="M102 75.001a2.003 2.003 0 0 0 .743-3.859l-15-6a2.006 2.006 0 0 0-2.6 1.114 2.002 2.002 0 0 0 1.114 2.601l15 6c.244.097.495.144.743.144z"></path><linearGradient id="p" x1="79.543" x2="79.543" y1="53.638" y2="88.417" gradientUnits="userSpaceOnUse"><stop offset="0" stop-color="#ff2020" class="stopColora34f31 svgShape"></stop><stop offset=".177" stop-color="#14c5af" class="stopColor8d4026 svgShape"></stop><stop offset=".522" stop-color="#1483c5" class="stopColor672712 svgShape"></stop><stop offset=".8" stop-color="#350650" class="stopColor501706 svgShape"></stop><stop offset=".974" stop-color="#2e0247" class="stopColor471102 svgShape"></stop></linearGradient><path fill="url(#p)" d="M72.564 72c.113 0 .227-.007.342-.022l15.403-2.005c1.405-.183.73-5.146-.679-4.969l-15.403 2.005c-1.405.183-2.393 1.444-2.205 2.815.173 1.261 1.275 2.176 2.542 2.176z"></path><linearGradient id="q" x1="78" x2="78" y1="37.491" y2="70.343" gradientUnits="userSpaceOnUse"><stop offset="0" stop-color="#ff2020" class="stopColora34f31 svgShape"></stop><stop offset=".177" stop-color="#14c5af" class="stopColor8d4026 svgShape"></stop><stop offset=".522" stop-color="#1483c5" class="stopColor672712 svgShape"></stop><stop offset=".8" stop-color="#350650" class="stopColor501706 svgShape"></stop><stop offset=".974" stop-color="#2e0247" class="stopColor471102 svgShape"></stop></linearGradient><path fill="url(#q)" d="M73.662 63a3.16 3.16 0 0 0 1.473-.354l9.574-5.059c1.222-.646-1.729-4.153-2.95-3.508l-9.574 5.059c-1.222.646-1.553 1.955-.738 2.923.512.61 1.356.939 2.215.939z"></path><linearGradient id="r" x1="74.579" x2="74.579" y1="61.5" y2="90.357" gradientUnits="userSpaceOnUse"><stop offset="0" stop-color="#ff2020" class="stopColora34f31 svgShape"></stop><stop offset=".177" stop-color="#14c5af" class="stopColor8d4026 svgShape"></stop><stop offset=".522" stop-color="#1483c5" class="stopColor672712 svgShape"></stop><stop offset=".8" stop-color="#350650" class="stopColor501706 svgShape"></stop><stop offset=".974" stop-color="#2e0247" class="stopColor471102 svgShape"></stop></linearGradient><path fill="url(#r)" d="M79.497 82c.879 0 2.423-4.014 1.216-4.685l-8.999-4.999a2.499 2.499 0 1 0-2.427 4.371l8.999 4.999c.384.213.801.314 1.211.314z"></path><linearGradient id="s" x1="97" x2="97" y1="64.167" y2="117.604" gradientUnits="userSpaceOnUse"><stop offset="0" stop-color="#ff2020" class="stopColora34f31 svgShape"></stop><stop offset=".177" stop-color="#14c5af" class="stopColor8d4026 svgShape"></stop><stop offset=".522" stop-color="#1483c5" class="stopColor672712 svgShape"></stop><stop offset=".8" stop-color="#350650" class="stopColor501706 svgShape"></stop><stop offset=".974" stop-color="#2e0247" class="stopColor471102 svgShape"></stop></linearGradient><path fill="url(#s)" d="M102.001 107a2 2 0 0 0 1.804-2.86l-10-21a2 2 0 0 0-3.612 1.721l10 21a2.005 2.005 0 0 0 1.808 1.139z"></path><linearGradient id="t" x1="109" x2="109" y1="42.688" y2="81.885" gradientUnits="userSpaceOnUse"><stop offset="0" stop-color="#ff2020" class="stopColora34f31 svgShape"></stop><stop offset=".177" stop-color="#14c5af" class="stopColor8d4026 svgShape"></stop><stop offset=".522" stop-color="#1483c5" class="stopColor672712 svgShape"></stop><stop offset=".8" stop-color="#350650" class="stopColor501706 svgShape"></stop><stop offset=".974" stop-color="#2e0247" class="stopColor471102 svgShape"></stop></linearGradient><path fill="url(#t)" d="M101.714 75h14.571c.947 0 1.714-.896 1.714-2s-.768-2-1.714-2h-14.571c-.947 0-1.714.896-1.714 2s.768 2 1.714 2z"></path><linearGradient id="u" x1="98" x2="98" y1="19.302" y2="58.651" gradientUnits="userSpaceOnUse"><stop offset="0" stop-color="#ff2020" class="stopColora34f31 svgShape"></stop><stop offset=".177" stop-color="#14c5af" class="stopColor8d4026 svgShape"></stop><stop offset=".522" stop-color="#1483c5" class="stopColor672712 svgShape"></stop><stop offset=".8" stop-color="#350650" class="stopColor501706 svgShape"></stop><stop offset=".974" stop-color="#2e0247" class="stopColor471102 svgShape"></stop></linearGradient><path fill="url(#u)" d="M92.999 52c.573 0 1.142-.245 1.538-.72l10-12a2 2 0 1 0-3.073-2.56l-10 12A2 2 0 0 0 92.999 52z"></path><linearGradient id="v" x1="121.5" x2="121.5" y1="45.286" y2="82.052" gradientUnits="userSpaceOnUse"><stop offset="0" stop-color="#ff2020" class="stopColora34f31 svgShape"></stop><stop offset=".177" stop-color="#14c5af" class="stopColor8d4026 svgShape"></stop><stop offset=".522" stop-color="#1483c5" class="stopColor672712 svgShape"></stop><stop offset=".8" stop-color="#350650" class="stopColor501706 svgShape"></stop><stop offset=".974" stop-color="#2e0247" class="stopColor471102 svgShape"></stop></linearGradient><ellipse cx="121.5" cy="72.5" fill="url(#v)" rx="4.5" ry="2.5"></ellipse><linearGradient id="w" x1="106" x2="106" y1="15.59" y2="45.5" gradientUnits="userSpaceOnUse"><stop offset="0" stop-color="#ff2020" class="stopColora34f31 svgShape"></stop><stop offset=".177" stop-color="#14c5af" class="stopColor8d4026 svgShape"></stop><stop offset=".522" stop-color="#1483c5" class="stopColor672712 svgShape"></stop><stop offset=".8" stop-color="#350650" class="stopColor501706 svgShape"></stop><stop offset=".974" stop-color="#2e0247" class="stopColor471102 svgShape"></stop></linearGradient><path fill="url(#w)" d="M103.12 31.985c1.533-2.919 4.065-4.607 5.656-3.77 1.591.837 1.638 3.882.105 6.801s-4.065 4.607-5.656 3.77-1.638-3.882-.105-6.801z"></path><linearGradient id="x" x1="64" x2="64" y1="75.132" y2="127.943" gradientUnits="userSpaceOnUse"><stop offset="0" stop-color="#ff2020" class="stopColora34f31 svgShape"></stop><stop offset=".177" stop-color="#14c5af" class="stopColor8d4026 svgShape"></stop><stop offset=".522" stop-color="#1483c5" class="stopColor672712 svgShape"></stop><stop offset=".8" stop-color="#350650" class="stopColor501706 svgShape"></stop><stop offset=".974" stop-color="#2e0247" class="stopColor471102 svgShape"></stop></linearGradient><path fill="url(#x)" d="M64 84c-11 0-15 11-15 22s9 20 15 20 15-9 15-20-4-22-15-22z"></path><linearGradient id="y" x1="64" x2="64" y1="58.251" y2="103.347" gradientUnits="userSpaceOnUse"><stop offset="0" stop-color="#ff2020" class="stopColora34f31 svgShape"></stop><stop offset=".177" stop-color="#14c5af" class="stopColor8d4026 svgShape"></stop><stop offset=".522" stop-color="#1483c5" class="stopColor672712 svgShape"></stop><stop offset=".8" stop-color="#350650" class="stopColor501706 svgShape"></stop><stop offset=".974" stop-color="#2e0247" class="stopColor471102 svgShape"></stop></linearGradient><path fill="url(#y)" d="M64 84c-7.727 0-11.996 5.43-13.855 12.473C54.374 99.404 59.739 102 64 102s9.626-2.596 13.855-5.527C75.996 89.43 71.727 84 64 84z"></path><linearGradient id="z" x1="64" x2="64" y1="89.333" y2="117.768" gradientUnits="userSpaceOnUse"><stop offset="0" stop-color="#ad723a" class="stopColorad693a svgShape"></stop><stop offset="1" stop-color="#ff9a3a" class="stopColord89564 svgShape"></stop></linearGradient><path fill="url(#z)" d="M77.855 96.473C73.626 99.404 68.261 102 64 102s-9.626-2.596-13.855-5.527C49.358 99.456 49 102.727 49 106c0 .935.086 1.848.209 2.75C53.865 111.583 59.877 113 64 113s10.135-1.417 14.791-4.25c.123-.902.209-1.815.209-2.75 0-3.273-.358-6.544-1.145-9.527z"></path><linearGradient id="A" x1="64" x2="64" y1="60.93" y2="96.156" gradientUnits="userSpaceOnUse"><stop offset="0" stop-color="#ad723a" class="stopColorad693a svgShape"></stop><stop offset="1" stop-color="#ff9a3a" class="stopColord89564 svgShape"></stop></linearGradient><path fill="url(#A)" d="M64 78c-7 0-9 1.125-9 5.625s18 4.5 18 0S71 78 64 78z"></path><linearGradient id="B" x1="64" x2="64" y1="48.873" y2="90.138" gradientUnits="userSpaceOnUse"><stop offset="0" stop-color="#ff2020" class="stopColora34f31 svgShape"></stop><stop offset=".177" stop-color="#14c5af" class="stopColor8d4026 svgShape"></stop><stop offset=".522" stop-color="#1483c5" class="stopColor672712 svgShape"></stop><stop offset=".8" stop-color="#350650" class="stopColor501706 svgShape"></stop><stop offset=".974" stop-color="#2e0247" class="stopColor471102 svgShape"></stop></linearGradient><path fill="url(#B)" d="M74.185 62h-20.37S48.722 80 64 80s10.185-18 10.185-18z"></path><linearGradient id="C" x1="64" x2="64" y1="26.364" y2="72.723" gradientUnits="userSpaceOnUse"><stop offset="0" stop-color="#ad723a" class="stopColorad693a svgShape"></stop><stop offset="1" stop-color="#ff9a3a" class="stopColord89564 svgShape"></stop></linearGradient><path fill="url(#C)" d="M64 40c-8.606 0-16.255 11.103-13.386 20.187 2.869 9.084 23.904 9.084 26.773 0C80.255 51.103 72.606 40 64 40z"></path><linearGradient id="D" x1="59" x2="59" y1="4.268" y2="20.838" gradientUnits="userSpaceOnUse"><stop offset="0" stop-color="#ad723a" class="stopColorad693a svgShape"></stop><stop offset="1" stop-color="#ff9a3a" class="stopColord89564 svgShape"></stop></linearGradient><path fill="url(#D)" d="M55 24s3-12 7-12c0 0-1 12 1 16l-8-1.333V24z"></path><linearGradient id="E" x1="69" x2="69" y1="4.268" y2="20.838" gradientUnits="userSpaceOnUse"><stop offset="0" stop-color="#ad723a" class="stopColorad693a svgShape"></stop><stop offset="1" stop-color="#ff9a3a" class="stopColord89564 svgShape"></stop></linearGradient><path fill="url(#E)" d="M73 24s-3-12-7-12c0 0 1 12-1 16l8-1.333V24z"></path><linearGradient id="F" x1="64" x2="64" y1="-3.527" y2="69.944" gradientUnits="userSpaceOnUse"><stop offset="0" stop-color="#ff2020" class="stopColora34f31 svgShape"></stop><stop offset=".177" stop-color="#14c5af" class="stopColor8d4026 svgShape"></stop><stop offset=".522" stop-color="#1483c5" class="stopColor672712 svgShape"></stop><stop offset=".8" stop-color="#350650" class="stopColor501706 svgShape"></stop><stop offset=".974" stop-color="#2e0247" class="stopColor471102 svgShape"></stop></linearGradient><path fill="url(#F)" d="M72.103 21S70.302 22 64 22s-8.103-1-8.103-1c-12.605 7-7.203 26-3.602 26S59 42 64 42s8.103 5 11.705 5 9.004-19-3.602-26z"></path><linearGradient id="G" x1="35.02" x2="35.02" y1="-10.293" y2="16.568" gradientUnits="userSpaceOnUse"><stop offset="0" stop-color="#ff2020" class="stopColora34f31 svgShape"></stop><stop offset=".177" stop-color="#14c5af" class="stopColor8d4026 svgShape"></stop><stop offset=".522" stop-color="#1483c5" class="stopColor672712 svgShape"></stop><stop offset=".8" stop-color="#350650" class="stopColor501706 svgShape"></stop><stop offset=".974" stop-color="#2e0247" class="stopColor471102 svgShape"></stop></linearGradient><ellipse cx="35.02" cy="5" fill="url(#G)" rx="2.02" ry="3"></ellipse><linearGradient id="H" x1="104.5" x2="104.5" y1="82.5" y2="123.899" gradientUnits="userSpaceOnUse"><stop offset="0" stop-color="#ff2020" class="stopColora34f31 svgShape"></stop><stop offset=".177" stop-color="#14c5af" class="stopColor8d4026 svgShape"></stop><stop offset=".522" stop-color="#1483c5" class="stopColor672712 svgShape"></stop><stop offset=".8" stop-color="#350650" class="stopColor501706 svgShape"></stop><stop offset=".974" stop-color="#2e0247" class="stopColor471102 svgShape"></stop></linearGradient><path fill="url(#H)" d="M102.209 106.301c1.461-.893 3.672.264 4.937 2.583 1.265 2.319 1.107 4.922-.354 5.814-1.461.893-3.672-.264-4.937-2.582-1.266-2.319-1.107-4.922.354-5.815z"></path><linearGradient id="I" x1="92.98" x2="92.98" y1="-10.293" y2="16.568" gradientUnits="userSpaceOnUse"><stop offset="0" stop-color="#ff2020" class="stopColora34f31 svgShape"></stop><stop offset=".177" stop-color="#14c5af" class="stopColor8d4026 svgShape"></stop><stop offset=".522" stop-color="#1483c5" class="stopColor672712 svgShape"></stop><stop offset=".8" stop-color="#350650" class="stopColor501706 svgShape"></stop><stop offset=".974" stop-color="#2e0247" class="stopColor471102 svgShape"></stop></linearGradient><ellipse cx="92.98" cy="5" fill="url(#I)" rx="2.02" ry="3"></ellipse><linearGradient id="J" x1="54.003" x2="54.003" y1="11.211" y2="42.204" gradientUnits="userSpaceOnUse"><stop offset="0" stop-color="#d4beaa" class="stopColord4c8aa svgShape"></stop><stop offset=".667" stop-color="#fdff3d" class="stopColore2d6bc svgShape"></stop></linearGradient><path fill="url(#J)" d="M53 24c-.332 0-.656.031-.976.076-3.012 3.373-4.052 7.777-4.018 11.825A6.976 6.976 0 0 0 53 38a7 7 0 1 0 0-14z"></path><linearGradient id="K" x1="73.997" x2="73.997" y1="11.211" y2="42.204" gradientUnits="userSpaceOnUse"><stop offset="0" stop-color="#d4beaa" class="stopColord4c8aa svgShape"></stop><stop offset=".667" stop-color="#fdff3d" class="stopColore2d6bc svgShape"></stop></linearGradient><path fill="url(#K)" d="M75 24c.332 0 .656.031.976.076 3.012 3.373 4.052 7.777 4.018 11.825A6.976 6.976 0 0 1 75 38a7 7 0 1 1 0-14z"></path><path fill="#592d72" d="M121.5 69c-1.743 0-3.228.476-4.221 1.232a2.497 2.497 0 0 0-.993-.232h-13.763c-.032-.017-.055-.045-.089-.059l-13.541-5.416c-.398-.391-.87-.585-1.391-.512l-11.664 1.518a28.134 28.134 0 0 0-.148-1.142 9.093 9.093 0 0 0 1.584-1.749c.012-.006.025-.008.037-.014l7.865-4.156a1.5 1.5 0 0 0 .642-.663l8.725-5.235c.026-.016.041-.042.065-.059.256-.164.497-.353.696-.592l10.001-12.001c.044-.054.075-.114.115-.169 1.622-.581 3.234-2.155 4.345-4.27 1.817-3.46 1.586-7.04-.524-8.15-.721-.38-1.578-.434-2.476-.153-1.684.522-3.377 2.146-4.531 4.343-.766 1.459-1.164 2.938-1.214 4.246-.113.1-.229.199-.325.314l-9.674 11.61-8.854 5.313a1.72 1.72 0 0 0-.876.194l-2.414 1.275c-.237-2.288-.948-4.594-2.115-6.751 1.614-.851 2.833-3.53 3.491-6.071 1.435-5.542.923-12.195-2.647-17.091 6.854-.956 14.231 1.367 14.312 1.394a1.005 1.005 0 0 0 .881-.134c.256-.179.414-.468.427-.779l.661-16.238C95.12 8.302 96 6.82 96 5c0-2.243-1.327-4-3.02-4s-3.02 1.757-3.02 4c0 1.729.792 3.159 1.928 3.728l-.609 14.959c-2.683-.711-9.182-2.109-15.199-.911a15.493 15.493 0 0 0-3.135-2.428C70.848 14.15 68.513 11 66 11a1 1 0 0 0-.997 1.083c.004.048.374 4.568.199 8.903-.382.008-.778.014-1.202.014s-.82-.006-1.202-.014c-.175-4.331.194-8.855.199-8.903A.998.998 0 0 0 62 11c-2.512 0-4.848 3.149-6.945 9.349a15.478 15.478 0 0 0-3.134 2.428c-6.019-1.198-12.517.2-15.199.911l-.61-14.96c1.137-.569 1.928-2 1.928-3.728 0-2.243-1.327-4-3.02-4S32 2.757 32 5c0 1.82.88 3.302 2.114 3.803l.661 16.238a1 1 0 0 0 1.307.911c.082-.026 7.46-2.349 14.312-1.394-3.57 4.895-4.083 11.549-2.647 17.09.658 2.54 1.877 5.219 3.49 6.07-1.166 2.157-1.878 4.464-2.114 6.752l-2.413-1.275a1.726 1.726 0 0 0-.876-.194L36.98 47.69l-9.675-11.61c-.096-.116-.212-.214-.325-.315-.05-1.308-.448-2.786-1.214-4.246-1.154-2.196-2.848-3.82-4.531-4.343-.9-.28-1.754-.227-2.476.153-2.111 1.11-2.341 4.69-.524 8.15 1.111 2.115 2.724 3.69 4.346 4.27.04.056.07.116.115.17l10 12c.2.239.44.428.696.592.024.018.039.044.065.059l8.725 5.235c.14.278.352.511.642.663l7.866 4.156c.012.006.025.008.037.014.447.65.981 1.231 1.584 1.75-.054.356-.104.739-.148 1.141L40.495 64.01c-.515-.063-.982.127-1.377.509l-13.55 5.419c-.035.014-.057.042-.089.059H11.714a2.48 2.48 0 0 0-.993.232C9.728 69.476 8.243 69 6.5 69 3.364 69 1 70.505 1 72.5S3.364 76 6.5 76c1.33 0 2.505-.283 3.436-.747.49.474 1.112.747 1.778.747h14.281l.005.001.01-.001h.275c.513 0 .987-.167 1.397-.441l11.643-4.657c.078.022.151.053.235.064l12.921 1.681c.045.187.089.374.142.56L46.8 76.442a1.739 1.739 0 0 0-.473.399c-.041.01-.082.005-.123.021L34.923 81.2c-.051.02-.095.054-.146.077-.137.061-.27.128-.396.209-.028.018-.061.028-.089.047-.024.016-.036.041-.057.059a2.97 2.97 0 0 0-.944 1.117l-10 21a2.996 2.996 0 0 0-.262 1.683c-1.185.543-2.292 1.619-3.053 3.012-1.541 2.823-1.228 5.963.711 7.147a3.074 3.074 0 0 0 1.619.449c.313 0 .636-.044.965-.132 1.441-.386 2.843-1.609 3.752-3.273.979-1.794 1.203-3.712.743-5.179a3 3 0 0 0 .942-1.126l9.486-19.92 9.485-3.648c.246.172.52.278.824.278.593 0 1.18-.152 1.697-.44l4.516-2.508C54.128 81.176 54 82.47 54 83.625c0 .685.268 1.539 1.237 2.319-2.808 2.264-4.876 5.816-6.065 10.31l-.006.024C48.405 99.164 48 102.431 48 106c0 11.982 9.706 21 16 21s16-9.018 16-21c0-3.568-.405-6.835-1.166-9.721a.943.943 0 0 0-.006-.025c-1.19-4.495-3.257-8.047-6.065-10.311C73.53 85.331 74 84.57 74 83.625c0-1.204-.118-2.464-.674-3.551l4.473 2.485a3.492 3.492 0 0 0 1.698.441c.304 0 .577-.106.823-.278l9.485 3.648 9.486 19.921c.215.45.543.833.942 1.125-.46 1.467-.236 3.385.743 5.179.909 1.664 2.311 2.888 3.752 3.273.329.088.651.132.965.132.582 0 1.13-.151 1.619-.449 1.939-1.185 2.252-4.324.711-7.147-.76-1.392-1.868-2.469-3.053-3.012a2.989 2.989 0 0 0-.262-1.683l-10-21a2.953 2.953 0 0 0-.945-1.119c-.021-.017-.033-.042-.056-.058-.027-.018-.059-.028-.087-.046a3.069 3.069 0 0 0-.405-.214c-.048-.022-.09-.055-.139-.074l-11.282-4.339c-.04-.015-.082-.011-.122-.021a1.704 1.704 0 0 0-.473-.399l-5.824-3.235c.053-.186.098-.373.143-.56l12.921-1.681c.084-.011.157-.042.235-.064l11.642 4.657c.41.275.885.442 1.398.442h.275l.01.001.005-.001h14.281c.666 0 1.289-.273 1.778-.747.932.466 2.107.749 3.437.749 3.136 0 5.5-1.505 5.5-3.5s-2.364-3.5-5.5-3.5zM92.98 3c.416 0 1.02.779 1.02 2s-.604 2-1.02 2-1.02-.779-1.02-2 .604-2 1.02-2zM35.02 3c.416 0 1.02.779 1.02 2s-.604 2-1.02 2S34 6.221 34 5s.604-2 1.02-2zm64.683 68.004a3.148 3.148 0 0 0-.692 1.878l-9.03-3.612c.121-.555.142-1.224.044-1.988-.007-.056-.02-.104-.028-.159l9.706 3.881zM91.08 52.305l.01.007-5.532 3.319a6.477 6.477 0 0 0-1.27-1.569l5.786-3.472c.129.648.459 1.26 1.006 1.715zm12.925-19.856c.885-1.685 2.202-3.005 3.354-3.362.386-.121.706-.115.951.013.942.496 1.008 2.933-.314 5.451-.885 1.685-2.202 3.005-3.354 3.362-.386.122-.706.116-.951-.013-.943-.496-1.008-2.932.314-5.451zm-2.537 5.827c.292.609.721 1.094 1.291 1.394.036.019.078.026.115.043L93.769 50.64a.999.999 0 1 1-1.537-1.279l9.236-11.085zM82.144 55.007c.512.098 1.572 1.209 1.809 1.849l-5.424 2.866c.248-.982.396-1.996.433-3.035l3.182-1.68zM75 25c.126 0 .258.006.398.017 2.099 2.476 3.63 5.968 3.658 10.39A5.94 5.94 0 0 1 75 37c-3.309 0-6-2.691-6-6s2.691-6 6-6zm-7.896-11.488c1.044.883 2.365 3.006 3.73 6.865-.674.174-1.827.391-3.627.518.106-2.839-.006-5.678-.103-7.383zm-6.208.001c-.097 1.705-.208 4.544-.102 7.382-1.804-.127-2.957-.345-3.628-.517 1.366-3.86 2.686-5.982 3.73-6.865zm-8.304 11.516c.136-.011.269-.029.408-.029 3.309 0 6 2.691 6 6s-2.691 6-6 6a5.943 5.943 0 0 1-4.056-1.592c.028-4.416 1.554-7.904 3.648-10.379zm-2.909 16.118a23.831 23.831 0 0 1-.594-3.172A7.934 7.934 0 0 0 53 39c4.411 0 8-3.589 8-8 0-3.893-2.797-7.141-6.485-7.852.479-.387.967-.739 1.461-1.038.97.334 3.294.89 8.024.89s7.054-.556 8.024-.89c.494.299.983.651 1.461 1.038C69.797 23.859 67 27.107 67 31c0 4.411 3.589 8 8 8a7.94 7.94 0 0 0 3.912-1.025 23.933 23.933 0 0 1-.594 3.172C77.422 44.604 76.104 46 75.705 46c-1.345 0-2.721-.937-4.314-2.021C69.338 42.583 67.013 41 64 41s-5.338 1.583-7.391 2.979C55.016 45.063 53.64 46 52.295 46c-.399 0-1.717-1.396-2.612-4.853zm3.771 6.71c1.489-.336 2.854-1.253 4.281-2.224C59.637 44.339 61.604 43 64 43s4.363 1.339 6.266 2.633c1.427.972 2.793 1.889 4.282 2.225 2.348 3.83 3.06 8.308 1.885 12.028C75.099 64.109 69.228 66 64 66s-11.099-1.891-12.433-6.114c-1.175-3.724-.462-8.198 1.887-12.029zm-11.012 7.774-5.532-3.319.01-.007a2.972 2.972 0 0 0 1.006-1.715l5.786 3.472a6.477 6.477 0 0 0-1.27 1.569zm-22.437-21.08c-1.322-2.519-1.257-4.955-.314-5.451a.935.935 0 0 1 .439-.1c.154 0 .325.028.512.087 1.152.357 2.469 1.678 3.354 3.362 1.322 2.519 1.257 4.955.314 5.451-.245.128-.564.134-.951.013-1.152-.357-2.469-1.678-3.354-3.362zm5.121 5.162c.037-.018.078-.024.115-.043.57-.3.998-.784 1.291-1.394l9.237 11.083a1.001 1.001 0 0 1-1.538 1.281l-9.105-10.927zm20.73 15.294 3.182 1.68c.036 1.039.185 2.052.434 3.035l-5.424-2.866c.236-.64 1.296-1.752 1.808-1.849zM64 68c3.21 0 6.937-.672 9.844-2.319.354 3.091.303 7.492-2.118 10.366C70.074 78.006 67.475 79 64 79c-3.473 0-6.071-.992-7.723-2.95-2.425-2.874-2.473-7.283-2.12-10.369C57.063 67.328 60.79 68 64 68zm8 15.625C72 84.748 68.714 86 64 86s-8-1.252-8-2.375c0-2.556.706-3.379 1.845-3.879.007-.003.01-.009.017-.012C59.567 80.567 61.612 81 64 81c2.383 0 4.423-.431 6.126-1.261 1.186.507 1.874 1.354 1.874 3.886zM38.019 69.269l-9.03 3.612a3.15 3.15 0 0 0-.692-1.878l9.706-3.882c-.008.055-.021.103-.028.159-.098.766-.077 1.435.044 1.989zM3 72.5c0-.598 1.396-1.5 3.5-1.5s3.5.902 3.5 1.5S8.604 74 6.5 74 3 73.098 3 72.5zm8.523 1.459c.302-.441.477-.931.477-1.459 0-.172-.04-.336-.074-.5h14.36c.387 0 .714.458.714 1 0 .334-.132.622-.318.805l-.308.123a.997.997 0 0 1-.369.072H11.714a.494.494 0 0 1-.191-.041zm28.486-4.952c-.25-.612.008-2.474.415-2.986l11.592 1.509c-.033.975-.007 2.008.108 3.055l-12.115-1.578zm-1.182 13.99a2.988 2.988 0 0 0-.551-.943l7.628-2.934c.032.214.073.437.137.683.033.129.177.652.434 1.238l-7.49 2.88a2.95 2.95 0 0 0-.158-.924zm-13.559 28.64c-.642 1.176-1.604 2.058-2.513 2.301-.402.108-.748.076-1.024-.093-.867-.529-1.079-2.5.002-4.481.642-1.176 1.604-2.058 2.513-2.301.156-.042.304-.062.442-.062.218 0 .413.052.582.155.867.529 1.079 2.499-.002 4.481zm1.635-6.207a.991.991 0 0 1-.232.311c-.118-.099-.225-.211-.359-.293a3.012 3.012 0 0 0-1.299-.427.999.999 0 0 1 .084-.451l10-21a.996.996 0 0 1 .567-.511l.002-.001a.997.997 0 0 1 1.276.607.999.999 0 0 1-.04.766l-9.999 20.999zm22.324-24.618a1.48 1.48 0 0 1-.507.172c-.449-.535-1.037-2.282-.859-2.845l5.471-3.039c.373.793.834 1.549 1.415 2.238.079.094.171.175.254.265l-5.774 3.209zM78 106c0 .715-.047 1.418-.122 2.112C73.285 110.786 67.644 112 64 112s-9.285-1.214-13.878-3.888A19.62 19.62 0 0 1 50 106c0-2.866.265-5.519.774-7.905C53.747 100.01 59.158 103 64 103c4.841 0 10.253-2.989 13.226-4.905.509 2.386.774 5.04.774 7.905zm-14 19c-4.683 0-11.458-6.115-13.427-14.358C55.186 112.951 60.467 114 64 114s8.814-1.049 13.427-3.358C75.458 118.885 68.683 125 64 125zm12.697-28.964C72.053 99.144 67.346 101 64 101c-3.347 0-8.054-1.856-12.698-4.964 1.202-4.091 3.208-7.221 5.888-9.051.106.039.193.082.306.119 1.732.578 4.042.896 6.504.896 2.343 0 4.882-.297 6.816-1.011 2.677 1.831 4.68 4.959 5.881 9.047zm12.476-13.039a2.977 2.977 0 0 0-.159.925l-7.49-2.88a8.747 8.747 0 0 0 .434-1.238c.064-.247.105-.47.137-.683l7.628 2.934c-.235.275-.425.59-.55.942zm17.095 26.366c1.082 1.981.869 3.952.002 4.481-.276.169-.621.201-1.024.093-.909-.243-1.872-1.125-2.513-2.301-1.082-1.981-.869-3.952-.002-4.481a1.09 1.09 0 0 1 .582-.155c.138 0 .286.021.442.062.908.244 1.871 1.126 2.513 2.301zm-3.366-4.794a.993.993 0 0 1 .085.452 3.039 3.039 0 0 0-1.299.427c-.134.082-.241.194-.359.293a.991.991 0 0 1-.232-.311l-10-21a.998.998 0 0 1 1.234-1.374l.006.002c.24.086.447.263.565.51l10 21.001zM80.139 78.14c.178.562-.41 2.31-.859 2.845a1.465 1.465 0 0 1-.508-.173l-5.774-3.207c.084-.092.176-.173.257-.268.58-.688 1.04-1.444 1.412-2.235l5.472 3.038zm-4.155-10.611 11.592-1.508c.407.513.665 2.374.415 2.986l-12.115 1.577c.115-1.046.142-2.08.108-3.055zM101.995 74a1.01 1.01 0 0 1-.366-.071l-.311-.124A1.132 1.132 0 0 1 101 73c0-.542.327-1 .714-1h14.36c-.034.164-.074.328-.074.5 0 .528.175 1.018.477 1.459a.49.49 0 0 1-.191.041h-14.291zm19.505 0c-2.104 0-3.5-.902-3.5-1.5s1.396-1.5 3.5-1.5 3.5.902 3.5 1.5-1.396 1.5-3.5 1.5z" class="color3a322b svgShape"></path></svg>