<svg xmlns="http://www.w3.org/2000/svg" viewBox="0 0 76 76" id="Bat"><path fill="#fdff3d" d="M73 6.74s-2.11.23-4.54 1.23c-3.34 1.36-7.26 4.15-7.16 9.72.02 1.55.36 3.31 1.1 5.32.08.2.15.4.24.61 0 0-.37.07-.96.26-.52.16-1.21.42-1.95.79-1.46.73-3.13 1.89-4.18 3.69-.47.82-.82 1.78-.95 2.88-.14 1.07-.07 2.29.27 3.67 0 .02.01.05.02.08 0 0-.68.07-1.73.31-2.03.44-5.46 1.47-7.97 3.65a9.65 9.65 0 0 0-1.57 1.68 8.282 8.282 0 0 0-1.55 4.04l-9.68-12.15s10.47-14.3-.56-20.6c0 0 11.44-21.04 39.81-5.94.44.25.9.5 1.36.76z" class="color2b2d2f svgShape"></path><path fill="#592d72" d="M54.86 34.92c0 .02.01.05.02.08 0 0-7.82.88-11.28 5.64-2.25-7.39-4.74-17.09-2.46-17.57 2.68-.57 9.88 7.35 13.72 11.85zm6.82-11.04c-2 .64-6.51 2.6-7.09 7.37-4.23-7.34-11.64-15.39-11.64-15.39 6.69-.38 14.46 4.73 18.73 8.02zM73 6.74S57.01 8.49 62.41 23.01C56.74 16.18 48 11.9 43.58 10.06a2.617 2.617 0 0 1-.82-4.29c5.71-5.56 20.37-2.31 28.86.22.46.24.92.49 1.38.75z" class="color5b6268 svgShape"></path><path fill="#ff9a3a" d="M65.89 26.24c-2.03-1.96-4.24-3.73-6.53-5.36a52.437 52.437 0 0 0-7.23-4.34 42.957 42.957 0 0 0-7.87-2.89c-1.35-.37-2.73-.61-4.11-.8-1.39-.17-2.79-.23-4.21-.22l-.01-.07c1.4-.2 2.83-.27 4.26-.19 1.42.09 2.84.3 4.24.61 2.79.64 5.44 1.77 7.96 3.07 2.52 1.32 4.92 2.85 7.18 4.55 2.26 1.71 4.41 3.56 6.38 5.6l-.06.04zm-9.01 11.7c-1.22-2.03-2.56-3.99-3.96-5.89-1.4-1.91-2.88-3.75-4.43-5.53-1.54-1.79-3.22-3.45-4.88-5.12-1.64-1.7-3.42-3.23-5.18-4.84l.04-.06c2 1.28 3.88 2.76 5.62 4.39 1.74 1.63 3.33 3.41 4.82 5.26 3.02 3.67 5.73 7.59 8.02 11.75l-.05.04zM75.46 8.35c-1.7-1.12-3.5-2.09-5.34-2.97-1.84-.88-3.72-1.65-5.65-2.29-3.85-1.29-7.89-2.07-11.94-2.02-2.02.02-4.03.3-5.98.8-1.94.51-3.84 1.21-5.6 2.19-.22.12-.45.23-.67.35l-.64.4c-.42.28-.87.52-1.27.82-.81.61-1.62 1.2-2.36 1.89-1.54 1.31-2.87 2.86-4.19 4.42l-.06-.04c.61-.82 1.16-1.69 1.82-2.47.67-.78 1.33-1.57 2.09-2.27 1.45-1.46 3.14-2.69 4.93-3.72 1.79-1.04 3.76-1.77 5.77-2.25C48.38.72 50.45.47 52.51.5c4.13.02 8.2.88 12.06 2.25 1.93.69 3.81 1.51 5.63 2.44 1.82.93 3.6 1.94 5.28 3.1l-.02.06z" class="color181818 svgShape"></path><path fill="#14c5af" d="M47.4 29.54c1.98 1.73 3.84 3.6 5.58 5.57l.17.2c-2.03.44-5.46 1.47-7.97 3.65-1.4-2.54-2.27-5.37-2.46-8.28-.04-.63-.04-1.3.31-1.82.47-.69 1.46-.88 2.26-.65.81.22 1.48.78 2.11 1.33zm4.93-9.79c2.87.88 5.19 2.83 7.4 4.92-1.46.73-3.13 1.89-4.18 3.69-2-2.16-3.88-4.36-4.53-7.19-.12-.52-.13-1.18.33-1.44.29-.16.65-.08.98.02zM68.46 7.97c-3.34 1.36-7.26 4.15-7.16 9.72-2.18-1.47-4.56-2.71-6.92-3.85-2.89-1.4-5.98-2.85-7.67-5.58-.13-.22-.26-.45-.26-.71 0-.58.61-.95 1.15-1.16 4.74-1.9 10.09-1.74 15.03-.45 1.99.53 3.93 1.23 5.83 2.03z" class="color6a737a svgShape"></path><path fill="#ff9a3a" d="M32.66 12.15c1.72.86 3.08 2.43 3.9 4.24.42.9.67 1.88.81 2.87.12.49.06.99.09 1.49 0 .25.02.5 0 .75l-.08.74c-.08.49-.1.99-.24 1.46l-.38 1.42c-.11.48-.35.91-.52 1.36-.19.45-.37.9-.59 1.33-.48.84-.95 1.68-1.49 2.47-.59.76-1.17 1.52-1.79 2.24.37-.89.78-1.74 1.19-2.58.38-.86.71-1.73 1.09-2.58.58-1.75 1.19-3.49 1.34-5.29.22-1.78.11-3.59-.45-5.29a11.45 11.45 0 0 0-2.88-4.63z" class="color181818 svgShape"></path><path fill="#fdff3d" d="M6.74 73s.23-2.11 1.23-4.54c1.36-3.34 4.15-7.26 9.72-7.16 1.55.02 3.31.36 5.32 1.1.2.08.4.15.61.24 0 0 .07-.37.26-.96.16-.52.42-1.21.79-1.95.73-1.46 1.89-3.13 3.69-4.18.82-.47 1.78-.82 2.88-.95 1.07-.14 2.29-.07 3.67.27.02 0 .05.01.08.02 0 0 .07-.68.31-1.73.44-2.03 1.47-5.46 3.65-7.97a9.65 9.65 0 0 1 1.68-1.57 8.282 8.282 0 0 1 4.04-1.55l-12.15-9.68s-14.3 10.47-20.6-.56c0 0-21.04 11.44-5.94 39.81.24.44.5.9.76 1.36z" class="color2b2d2f svgShape"></path><path fill="#592d72" d="M34.92 54.86c.02 0 .05.01.08.02 0 0 .88-7.82 5.64-11.28-7.39-2.25-17.09-4.74-17.57-2.46-.57 2.68 7.35 9.88 11.85 13.72zm-11.04 6.82c.64-2 2.6-6.51 7.37-7.09-7.34-4.23-15.39-11.64-15.39-11.64-.38 6.69 4.73 14.46 8.02 18.73zM6.74 73s1.75-15.99 16.27-10.59C16.18 56.74 11.9 48 10.06 43.58a2.617 2.617 0 0 0-4.29-.82c-5.56 5.71-2.31 20.37.22 28.86.23.46.49.92.75 1.38z" class="color5b6268 svgShape"></path><path fill="#ff9a3a" d="M26.24 65.89c-1.96-2.03-3.73-4.24-5.36-6.53a52.437 52.437 0 0 1-4.34-7.23 42.957 42.957 0 0 1-2.89-7.87c-.37-1.35-.61-2.73-.8-4.11-.17-1.39-.23-2.79-.22-4.21l-.07-.01c-.2 1.4-.27 2.83-.19 4.26.09 1.42.3 2.84.61 4.24.64 2.79 1.77 5.44 3.07 7.96 1.32 2.52 2.85 4.92 4.55 7.18 1.71 2.26 3.56 4.41 5.6 6.38l.04-.06zm11.7-9.01c-2.03-1.22-3.99-2.56-5.89-3.96-1.91-1.4-3.75-2.88-5.53-4.43-1.79-1.54-3.45-3.22-5.12-4.88-1.7-1.64-3.23-3.42-4.84-5.18l-.06.04c1.28 2 2.76 3.88 4.39 5.62 1.63 1.74 3.41 3.33 5.26 4.82 3.67 3.02 7.59 5.73 11.75 8.02l.04-.05zM8.35 75.46c-1.12-1.7-2.09-3.5-2.97-5.34-.88-1.84-1.65-3.72-2.29-5.65-1.29-3.85-2.07-7.89-2.02-11.94.02-2.02.3-4.03.8-5.98.51-1.94 1.21-3.84 2.19-5.6.12-.22.23-.45.35-.67l.4-.64c.28-.42.52-.87.82-1.27.61-.81 1.2-1.62 1.89-2.36 1.31-1.54 2.86-2.87 4.42-4.19l-.04-.06c-.82.61-1.69 1.16-2.47 1.82-.78.67-1.57 1.33-2.27 2.09-1.46 1.45-2.69 3.14-3.72 4.93-1.04 1.79-1.77 3.76-2.25 5.77-.47 2.01-.72 4.08-.69 6.14.02 4.13.88 8.2 2.25 12.06.69 1.93 1.51 3.81 2.44 5.63.93 1.82 1.94 3.6 3.1 5.28l.06-.02z" class="color181818 svgShape"></path><path fill="#14c5af" d="M29.54 47.4c1.73 1.98 3.6 3.84 5.57 5.58l.2.17c.44-2.03 1.47-5.46 3.65-7.97-2.54-1.4-5.37-2.27-8.28-2.46-.63-.04-1.3-.04-1.82.31-.69.47-.88 1.46-.65 2.26.22.81.78 1.48 1.33 2.11zm-9.79 4.93c.88 2.87 2.83 5.19 4.92 7.4.73-1.46 1.89-3.13 3.69-4.18-2.16-2-4.36-3.88-7.19-4.53-.52-.12-1.18-.13-1.44.33-.16.29-.08.65.02.98zM7.97 68.46c1.36-3.34 4.15-7.26 9.72-7.16-1.47-2.18-2.71-4.56-3.85-6.92-1.4-2.89-2.85-5.98-5.58-7.67-.22-.13-.45-.26-.71-.26-.58 0-.95.61-1.16 1.15-1.9 4.74-1.74 10.09-.45 15.03.53 1.99 1.23 3.93 2.03 5.83z" class="color6a737a svgShape"></path><path fill="#ff9a3a" d="M12.15 32.66c.86 1.72 2.43 3.08 4.24 3.9.9.42 1.88.67 2.87.81.49.12.99.06 1.49.09.25 0 .5.02.75 0l.74-.08c.49-.08.99-.1 1.46-.24l1.42-.38c.48-.11.91-.35 1.36-.52.45-.19.9-.37 1.33-.59.84-.48 1.68-.95 2.47-1.49.76-.59 1.52-1.17 2.24-1.79-.89.37-1.74.78-2.58 1.19-.86.38-1.73.71-2.58 1.09-1.75.58-3.49 1.19-5.29 1.34-1.78.22-3.59.11-5.29-.45a11.45 11.45 0 0 1-4.63-2.88z" class="color181818 svgShape"></path><ellipse cx="37.29" cy="37.29" fill="#ff9a3a" rx="4.84" ry="10.82" transform="rotate(-45.001 37.29 37.291)" class="color181818 svgShape"></ellipse><path fill="#ff9a3a" d="M25.05 31.93c1.44 2.24 4.38 3.34 7.12 2.9.08.18.16.36.24.53l2.94-2.94c-.18-.08-.35-.17-.53-.24.44-2.74-.66-5.68-2.9-7.12.23-2.52-.69-5.04-2.45-6.71-1.82 1.05-2.8 3.11-2.3 5.05-.63.63-1.21 1.2-1.83 1.82l-.06.06-.06.06c-.62.62-1.19 1.2-1.82 1.83-1.94-.5-4 .49-5.05 2.3 1.67 1.76 4.19 2.69 6.7 2.46z" class="color181818 svgShape"></path><circle cx="27.53" cy="29.86" r=".76" fill="#ff2020" class="colorde103b svgShape"></circle><circle cx="29.86" cy="27.53" r=".76" fill="#ff2020" class="colorde103b svgShape"></circle><path fill="#1483c5" d="M28.25 34.1c.88.58 1.93.56 2.9.4l1.51-.29c.23-.05.59-.07.67-.11.07-.07.27-.27.42-.46.33-.37.51-.73.55-1.2.05-.46.02-1 .04-1.5 0-1.01-.07-2.03-.49-2.98.68.82.9 1.92 1 2.95.06.52.1 1.02.08 1.59-.01.57-.31 1.18-.67 1.58-.18.2-.32.4-.67.62-.41.13-.58.09-.85.14-.5.05-1.01.15-1.55.17-1.01.08-2.22-.1-2.94-.91z" class="color716c75 svgShape"></path><g fill="#1483c5" class="color716c75 svgShape"><ellipse cx="33.21" cy="32.38" rx=".29" ry=".51" transform="rotate(-45.001 33.213 32.377)" fill="#000000" class="color000000 svgShape"></ellipse><ellipse cx="32.41" cy="33.18" rx=".29" ry=".51" transform="rotate(-45.001 32.411 33.178)" fill="#000000" class="color000000 svgShape"></ellipse></g></svg>