<svg xmlns="http://www.w3.org/2000/svg" viewBox="0 0 130 130" id="Butterfly"><path fill="#ff2020" d="M11.65 119.643c.217-1.259.972-2.349 1.708-3.394 15.421-21.906 17.433-21.492 9.395-28.479-7.757-6.744-8.993-16.001-1.799-23.362C31.472 53.645 56.1 51.669 63.413 53.645v6.198c-14.948 10.912-2.424 26.879-10.9 35.863-1.526 1.618-3.655 2.769-4.56 4.801-.992 2.226-.36 5.205-2.15 6.859-1.473 1.361-3.833 1.031-5.676.241-8.911-3.82-7.961-3.779-22.392 13.083-3.932 4.593-6.541 1.592-6.085-1.047z" class="color2c3644 svgShape"></path><path fill="#fdff3d" d="M51.569 60.017c-.264-1.223-2.105-5.428.566-6.655 1.083-.497 4.453-.14 5.322 1.298.604 1 .364 1.76-.323 8.973-.684 7.182-2.504 1.954-4.515 14.058-.828 4.981-3.847 7.857-3.617 6.179 2.793-20.401 3.123-21.274 2.567-23.853zM44.265 79.592c-.021 2.304-.136 5.226 2.795 7.256a.648.648 0 0 1-.073 1.111c-2.119 1.094-6.888 1.717-7.244.311-.32-1.262.291-2.639-.107-3.879-.479-1.491-2.178-2.178-3.17-3.39-1.334-1.63-1.23-3.952-1.248-6.058a35.23 35.23 0 0 0-4.515-16.907c3.84-1.673 8.073-2.882 12.226-3.697.043.194.069.395.09.588a207.369 207.369 0 0 1 1.246 24.665z" class="colore0e842 svgShape"></path><path fill="#592d72" d="M6.193 6.928c1.712-.028 3.379.502 5 1.054 22.081 7.509 44.09 21.737 52.37 42.899v4.593c-35.871-4.503-46.289 2.939-51.641-5.309-1.45-2.236-1.542-5.051-1.752-7.708-1.319-16.639-8.045-25.375-8.958-28.98-.984-3.881 1.336-6.489 4.981-6.549z" class="color38404c svgShape"></path><path fill="#14c5af" d="M49.602 52.54c.799-5.407.914-6.388 1.278-7.778.248-.945.582-1.868.762-2.829.508-2.718-.257-5.717.99-8.27.836.93 1.647 1.882 2.43 2.855-.512 1.92-.196 9.034.059 9.96.615 2.239.75.327.304 6.637a1.483 1.483 0 0 1-1.6 1.372c-.938-.072-1.877-.138-2.816-.198a1.514 1.514 0 0 1-1.407-1.749zM41.288 41.97c.081.495-.156 1.184-.6.956-1.911-.984-7.126 1.375-6.978-.954.171-2.7 7.169-2.521 7.578-.002zM32.372 53.124v-.008c.082-1.36.573-7.074 1.583-7.999.818-.749 2.63-.61 5.154-.815 1.156-.094.761 1.932.14 2.928-.722 1.158-2.421 2.179-1.612 5.105.047.171.101.339.161.505a.777.777 0 0 1-.721 1.045c-1.304.006-2.607.025-3.91.056a.775.775 0 0 1-.795-.817zM18.873 10.843c.561.229 1.121.461 1.679.698 1.548 5.058 5.433 3.671 4.134 8.579-.267 1.01.636 1.097 1.348 1.821.443.451 3.986.604 5.226-.434.604-.505 1.288-.977 2.158-.83 2.28.385-.186 3.67-.926 5.379-1.966 4.538 1.553 6.005-7.648 3.938-2.069-.465-1.856-1.256-1.831-2.515.087-4.296-6.56-9.207-4.14-16.636zM23.912 31.25c1.707-.099 5.014-.01 6.517.8 1.065.574 1.742 1.714 1.315 2.687-.304.694.011 2.523.114 3.013.176.837.255 3.123.478 3.531.401.732.296 1.68-.16 2.38-1.609 2.474-6.994 1.818-7.318-.487-.085-.607.176-1.202.3-1.802.309-1.495-.4-4.614-.859-5.676-.298-.688-.722-1.316-1.021-2.003-.374-.862-.374-2.384.634-2.443z" class="coloredf978 svgShape"></path><path fill="#14c5af" d="M25.465 50.394c.076-.806-2.291-5.835 1.198-4.588 4.892.373 5.931-.332 4.603 3.892-1.587 5.048-6.071 3.571-5.801.696zM39.816 29.296c.238-.875.219-2.509.193-3.653-.059-2.589 5.425 2.829 3.362 8.46-1.192 3.253-4.671 5.485-8.114 5.316-1.692-.082 3.492-6.192 4.559-10.123z" class="coloredf978 svgShape"></path><g fill="#1483c5" class="colorfadba4 svgShape"><path d="M7.113 12.182c-.115-.924-1.379-1.438-1.354-2.368.016-.567.554-1.009 1.111-1.113.408-.076.925.027 1.388.147 1.033.268.373 2.356 1.002 3.189.269.357.807.493.865.991.032.274-.104.537-.32.709-.527.419-1.946.413-2.382.117-.645-.439-.238-1.091-.31-1.672zM11.082 15.609c-.389 1.361.071 2.059.642 2.235.163.05.337.054.5.103.466.139.476.58.105.767-.255.129-2.603.166-2.894.176-.644.022-.972-.202-.818-.989.172-.878.059-.874-.351-1.296-1.085-1.117 3.061-1.851 2.816-.996zM13.239 40.544c.273-1.489 3.087-.911 3.052.116-.015.459-.149 2.213.067 2.616.212.394.722.611.703 1.112-.04 1.05-2.134 1.021-2.796.403-.571-.532-.068-1.114-.051-1.7.028-.93-1.143-1.632-.975-2.547zM17.848 47.335c-.194 1.099-.309 2.998.669 3.453.163.076.338.081.501.155a.643.643 0 0 1 .364.503c.14 1-.873.842-3.141.979-.525.032-.994-.143-.83-1.524.164-1.383.026-1.388-.367-2.003-1.115-1.746 3.032-2.856 2.804-1.563zM10.46 21.473c1.467-1.115 2.757-.486 3.224.514.281.602.359 2.327-.05 2.762-.341.362-1.523.442-1.959.196-1.043-.589-.283-2.169-1.215-2.916a.35.35 0 0 1 0-.556zM15.017 30.31c.241 3.922.715 6.302-1.117 6.875-.453.142-.961.041-1.284-.307-.574-.616-.268-1.594-.195-2.434.154-1.765-.897-3.444-.794-5.21.115-1.988 3.09-3.799 3.39 1.076zM23.927 77.45c1.872 1.343 1.786 4.131 2.919 6.007a.471.471 0 0 1-.419.716c-2.899-.098-1.547-2.238-4.63-4.507-.802-.59-1.81-1.229-1.43-2.201.465-1.183 2.56-.733 3.56-.015zM23.172 73.553c.049.243-.285.368-.408.152-.615-1.083-.874-3.478-.598-4.123.266-.623.404-1.3.404-1.978 0-.497-.074-1 .022-1.488.126-.64.639-1.284 1.407-1.042 1.072.337 1.552 2.788 1.157 3.626-.471 1.001-2.588 1.883-1.984 4.853zM31.217 93.847c-.616-1.411-1.555-2.721-2.743-3.661-3.27-2.587-.242-3.949 2.457-1.92.912.685 2.209 2.244 2.351 3.364.192 1.515-1.476 3.566-2.065 2.217zM30.959 98.931c6.275-.269 5.914 4.916 3.252 4.175-.457-.127-.867-.378-1.301-.568-1.817-.798-4.086-.434-5.563.893-.537.427-1.035.118-.671-.776 1.028-2.522 1.798-3.617 4.283-3.724zM45.127 101.381a.816.816 0 0 1-1.312.513c-.364-.289-.424-.828-.738-1.17-.658-.718-1.683-.256-2.585-.428-.89-.17-1.305-.934-.648-1.727 1.7-2.052 5.798-.26 5.283 2.812zM44.795 93.61c-.338.221-.715.054-.664-.551.292-3.471 5.594-3.617 6.905-1.683.41.604.384 1.542-.209 1.968-.56.403-2.221.373-2.67-.139-.221-.252-.269-.617-.479-.878-.342-.425-1.021-.431-1.496-.161-.866.492-.761 1.033-1.387 1.444z" fill="#000000" class="color000000 svgShape"></path></g><path fill="#ff2020" d="M118.332 119.643c-.217-1.259-.972-2.349-1.708-3.394-15.492-22.007-17.367-21.549-9.395-28.479 4.106-3.57 7.227-8.858 6.483-14.248-.473-3.431-2.264-6.637-4.685-9.115C98.51 53.645 73.881 51.669 66.568 53.645v6.198c10.483 7.653 7.638 19.333 7.554 24.744-.185 11.989 6.076 11.813 7.906 15.92.992 2.226.36 5.205 2.15 6.859 1.473 1.361 3.833 1.031 5.676.241 4.211-1.805 7.076-4.813 13.808 3.053l8.584 10.03c3.932 4.593 6.541 1.592 6.086-1.047z" class="color2c3644 svgShape"></path><path fill="#fdff3d" d="M78.413 60.017c.263-1.221 2.958-7.546-2.798-6.788-4.536.598-3.542 2.27-2.768 10.403.701 7.368 2.475 1.783 4.515 14.058.828 4.981 3.847 7.857 3.617 6.179-2.811-20.538-3.12-21.288-2.566-23.852zM82.921 86.847c-2.11 1.462 6.833 3.331 7.317 1.422.32-1.262-.291-2.639.107-3.879.479-1.491 2.178-2.178 3.17-3.39 1.334-1.63 1.23-3.952 1.248-6.058a35.23 35.23 0 0 1 4.515-16.907c-3.84-1.673-8.073-2.882-12.227-3.697a5.466 5.466 0 0 0-.09.588c-2.802 25.395.875 28.517-4.04 31.921z" class="colore0e842 svgShape"></path><path fill="#592d72" d="M128.241 9.061c-.95-1.424-2.741-2.105-4.453-2.132-4.469-.073-45.257 12.998-57.37 43.952v4.593a204.638 204.638 0 0 1 37.339-1.248c2.601.151 5.233.35 7.794-.132 7.909-1.49 7.927-7.414 8.261-11.637 1.743-21.987 12.077-27.931 8.429-33.396z" class="color38404c svgShape"></path><path fill="#14c5af" d="M80.379 52.54c-2.057-13.924-1.998-6.734-2.265-15.128-.041-1.283-.207-2.606-.765-3.749a68.681 68.681 0 0 0-2.43 2.855c.422 1.585.324 2.844.17 6.871-.272 7.07-1.178.614-.533 9.726a1.483 1.483 0 0 0 1.6 1.372c.938-.072 1.877-.138 2.816-.198a1.513 1.513 0 0 0 1.407-1.749zM93.455 40.069c-1.882-.221-3.48.322-4.13.864-1.082.903-.61 2.292-.032 1.994.192-.099.432-.128.658-.159.786-.11 1.079-.033 4.827.247 2.195.163 2.215-2.53-1.323-2.946zM97.609 53.124l-.001-.008c-.594-9.837-1.541-8.391-6.736-8.814a.678.678 0 0 0-.732.651 4.006 4.006 0 0 0 .592 2.276c.413.663 1.018 1.196 1.389 1.883.605 1.123.504 2.5.062 3.727a.777.777 0 0 0 .721 1.045c3.781.019 4.769.315 4.705-.76zM111.109 10.843c-.561.229-1.121.461-1.679.698-1.038 3.391-3.244 3.997-4.022 5.356-1.12 1.957.704 3.624-.576 4.379-.32.189-.624.4-.884.664-.443.451-3.986.604-5.226-.434-.604-.505-1.288-.977-2.158-.83-2.28.385.186 3.67.926 5.379 2.062 4.761-1.481 5.989 7.648 3.938 2.069-.465 1.856-1.256 1.831-2.515-.086-4.225 6.556-9.216 4.14-16.635zM106.07 31.25a21.776 21.776 0 0 0-4.375.189c-3.397.493-3.896 2.298-3.457 3.298.304.694-.011 2.523-.114 3.013-.176.837-.255 3.123-.478 3.531-.685 1.25.014 3.18 2.182 3.76 1.298.347 3.287.138 4.244-.426 1.628-.96.958-2.243.752-3.243-.309-1.495.4-4.614.859-5.676.298-.688.723-1.316 1.021-2.003.374-.862.374-2.384-.634-2.443zM104.517 50.394c-.076-.806 2.291-5.835-1.198-4.588-4.687.357-5.229.058-5.05 1.741.523 4.932 3.257 6.187 5.108 5.136.802-.455 1.227-1.361 1.14-2.289zM95.106 38.733c-5.176-9.118-5.236-8.588-5.134-13.089a.624.624 0 0 0-1.037-.481c-5.867 5.233-1.803 14.628 5.789 14.257a.461.461 0 0 0 .382-.687z" class="coloredf978 svgShape"></path><g fill="#1483c5" class="colorfadba4 svgShape"><path d="M122.868 12.182c.115-.924 1.38-1.438 1.354-2.368-.021-.751-.803-1.405-2.499-.966-1.033.268-.373 2.356-1.002 3.189-.269.357-.807.493-.864.991-.121 1.043 1.953 1.335 2.701.826.645-.439.238-1.091.31-1.672zM118.899 15.609c.389 1.361-.071 2.059-.642 2.235-.335.103-.783.051-.86.43-.154.753 1.629.565 3.149.616.644.022.972-.202.818-.989-.172-.878-.059-.874.351-1.296 1.075-1.106-3.067-1.874-2.816-.996zM116.743 40.544c-.273-1.489-3.087-.911-3.052.116.015.459.149 2.213-.067 2.616-.211.394-.722.611-.703 1.112.04 1.05 2.134 1.021 2.796.403.57-.532.068-1.114.051-1.7-.029-.93 1.142-1.632.975-2.547zM112.134 47.335c.1.569.176 1.149.136 1.732-.052.745-.341 1.505-.805 1.721-.163.076-.338.081-.502.155-.469.211-.481.895-.115 1.186.252.201 2.56.275 2.892.295 1.502.09.494-1.912.837-2.912.179-.523.63-.731.571-1.346-.107-1.145-3.224-2.02-3.014-.831zM116.087 23.855c.043.872.27 1.123 1.162 1.206 2.488.231 1.155-2.135 2.273-3.031 1-.801-3.668-2.885-3.435 1.825zM114.965 30.31c-.241 3.922-.715 6.302 1.117 6.875.453.142.961.041 1.285-.307.574-.616.268-1.594.195-2.434-.154-1.765.897-3.444.794-5.21-.117-1.988-3.092-3.799-3.391 1.076zM106.054 77.45c-1.871 1.343-1.786 4.131-2.919 6.007a.471.471 0 0 0 .419.716c2.899-.098 1.547-2.238 4.63-4.507.802-.59 1.811-1.229 1.43-2.201-.464-1.183-2.559-.733-3.56-.015zM106.809 73.553c-.049.243.285.368.408.152.615-1.083.874-3.478.598-4.123a5.035 5.035 0 0 1-.404-1.978c0-.497.074-1-.022-1.488-.214-1.091-1.202-1.408-1.872-.76-.609.589-1.069 2.543-.692 3.343.471 1.002 2.588 1.884 1.984 4.854zM97.609 94.028c.329.389.951.286 1.155-.181.616-1.411 1.555-2.721 2.743-3.661.604-.478 1.514-1.119 1.428-1.912-.336-3.104-8.793 1.647-5.326 5.754zM100.633 99.192c-.947-.365-3.451-.444-4.804.151-1.909.84-2.253 2.851-1.409 3.565.79.669 1.754.024 2.652-.37 1.818-.798 4.086-.434 5.563.893.516.411 1.043.138.671-.776-.466-1.142-1.139-2.871-2.673-3.463zM84.855 101.381a.816.816 0 0 0 1.312.513c.364-.289.424-.828.737-1.17.658-.718 1.683-.256 2.585-.428.89-.17 1.305-.934.648-1.727-1.699-2.052-5.798-.26-5.282 2.812zM85.186 93.61c1.489.976.673-4.546-4.403-3.33-2.283.547-2.595 2.369-1.63 3.064.559.403 2.221.373 2.67-.139.221-.252.269-.617.479-.878.342-.425 1.021-.431 1.496-.161.868.492.762 1.033 1.388 1.444z" fill="#000000" class="color000000 svgShape"></path></g><path fill="#ff2020" d="M63.475 43.953a.149.149 0 0 0 .149-.149c0-5.972-2.765-12.292-7.217-16.492a.149.149 0 0 0-.211.006.149.149 0 0 0 .006.211c4.394 4.146 7.123 10.382 7.123 16.275a.15.15 0 0 0 .15.149z" class="color2c3644 svgShape"></path><path fill="#ff2020" d="M57.471 28.909a.299.299 0 0 0 .222-.499c-.38-.42-.778-.826-1.182-1.207a.299.299 0 0 0-.41.434c.393.371.779.766 1.149 1.174.059.065.14.098.221.098zM66.506 43.953a.15.15 0 0 1-.149-.149c0-5.972 2.765-12.292 7.217-16.492a.149.149 0 0 1 .211.006.149.149 0 0 1-.006.211c-4.394 4.146-7.123 10.382-7.123 16.275a.15.15 0 0 1-.15.149z" class="color2c3644 svgShape"></path><path fill="#ff2020" d="M72.51 28.909a.299.299 0 0 1-.222-.499c.38-.42.778-.826 1.182-1.207a.299.299 0 0 1 .41.434c-.393.371-.78.766-1.149 1.174a.295.295 0 0 1-.221.098z" class="color2c3644 svgShape"></path><path fill="#6e4784" d="M61.182 47.776c-.063-1.66 2.234-1.974 1.48-3.292a1.378 1.378 0 0 1-.184-.624c-.056-1.326 1.86-1.17 2.513-1.081.653-.09 2.569-.245 2.513 1.081a1.37 1.37 0 0 1-.184.624c-.75 1.311 1.542 1.638 1.48 3.292 0 0 .321 6.723-1.73 12.795a5.89 5.89 0 0 0-.294 2.408c.849 7.513-.389 13.143-1.191 15.806-.149.497-1.036.497-1.185 0-1.657-5.503-1.62-10.439-1.187-15.852a5.904 5.904 0 0 0-.299-2.362c-2.052-6.071-1.732-12.795-1.732-12.795z" class="color846547 svgShape"></path><g fill="#ff2020" class="color2c3644 svgShape"><path d="M66.136 43.019c.647.094 1.222.445.971 1.415a.215.215 0 0 1-.272.146 1.465 1.465 0 0 1-.547-.36c-.3-.309-.442-.7-.394-1.025a.215.215 0 0 1 .242-.176zM63.845 43.019a.215.215 0 0 1 .242.176c.048.324-.093.716-.394 1.025-.165.17-.356.291-.547.36a.215.215 0 0 1-.272-.146c-.251-.971.325-1.321.971-1.415z" fill="#000000" class="color000000 svgShape"></path></g><path fill="#ff9a3a" d="M63.912 71.964c.423 2.983.521 5.074.407 6.556-1.579-5.444-1.539-10.224-1.108-15.587a5.904 5.904 0 0 0-.299-2.362c-1.564-4.63-2.318-12.76-1.306-13.992.675.96 1.166 3.05 1.939 7.075 2.259 11.761-1.064 8.207.367 18.31zM66.069 71.964c1.431-10.103-1.892-6.549.367-18.31.773-4.025 1.263-6.115 1.939-7.075 1.066 1.298.179 9.594-1.306 13.991a5.89 5.89 0 0 0-.294 2.408c.822 7.273-.312 12.782-1.113 15.542-.114-1.48-.016-3.572.407-6.556z" class="colorc3996b svgShape"></path></svg>