<svg xmlns="http://www.w3.org/2000/svg" viewBox="0 0 128 128" id="Cow"><path fill="#ff2020" d="M27.1 103.6s-4.2 6.1-2.8 7.9 11.7 1.2 11.7 1.2l-2.8-5.8 4.3 4.8s3.6.6 4.1-1.4c.4-2-4.9-6.8-4.9-6.8l-6-4.7-3.6 4.8z" class="color3f3f3f svgShape"></path><path fill="#14c5af" d="M33 110.5c-1-.8-1.9-1.5-2.9-2.3-1.3-1.3-2.3-2.8-3.1-4.5-.6.9-4 6.1-2.7 7.8 1.4 1.8 11.7 1.2 11.7 1.2l-.5-1.1c-.9-.2-1.7-.6-2.5-1.1zM41.5 110.5l-8.3-3.6 4.3 4.8c0 .1 3.4.7 4-1.2z" class="color242424 svgShape"></path><path fill="#ff2020" d="M13.7 106.9s-4.7 6.9-3.2 9c1.6 2.1 13.2 1.3 13.2 1.3l-3.2-6.5 4.9 5.5s4.1.7 4.6-1.6-5.5-7.7-5.5-7.7l-6.8-5.3-4 5.3z" class="color3f3f3f svgShape"></path><path fill="#14c5af" d="M20.4 114.8c-1.1-.9-2.2-1.7-3.3-2.6-1.5-1.5-2.6-3.2-3.5-5.1-.7 1.1-4.5 6.9-3.1 8.8 1.6 2.1 13.2 1.3 13.2 1.3l-.6-1.2c-.9-.3-1.8-.7-2.7-1.2zM30 114.7l-9.4-4 4.9 5.5c-.1 0 3.9.7 4.5-1.5z" class="color242424 svgShape"></path><path fill="#ff2020" d="M65.4 105.1s-3.9 5.7-2.6 7.4c1.3 1.7 10.9 1.1 10.9 1.1l-2.6-5.4 4 4.5s3.4.6 3.8-1.3-4.6-6.3-4.6-6.3l-5.6-4.4-3.3 4.4z" class="color3f3f3f svgShape"></path><path fill="#14c5af" d="M70.8 111.6l-2.7-2.1c-1.2-1.2-2.2-2.6-2.8-4.2-.6.9-3.7 5.7-2.5 7.3 1.3 1.7 10.9 1.1 10.9 1.1l-.5-1c-.8-.3-1.6-.7-2.4-1.1zM78.8 111.6l-7.8-3.3 4 4.5c0-.1 3.3.5 3.8-1.2z" class="color242424 svgShape"></path><path fill="#fbdcbf" d="M14.9 50.6c-.1-1.8.9-3.4 2-4.8s2.3-2.8 2.8-4.5c.7-2.5-.6-5.4-2.9-6.5-.4.5-.8.9-1.2 1.4 1.4.5 2.2 2.1 2 3.6s-1.1 2.8-2.1 3.8c-1 1.1-2.2 1.9-3.2 3-2 2.2-3 5.2-2.8 8.2.2 2.9 1.7 5.8 4 7.6 1.6-1 6-3.8 5.9-6.1-.1-1.3-1.7-1.6-2.6-2.3-1-.9-1.8-2-1.9-3.4z" class="colorfbc4bf svgShape"></path><path fill="#eaccb0" d="M36.1 89.1c-4.3 2.7.5 14.5.5 14.5-3.5-2.4-9.5 0-9.5 0s-5.3-17.5-4.9-19.1l13.9 4.6zM61 81.7c-4.1 5.1 3.4 17.3 2.8 19.9-.6 2.6-1.4 2.6 0 2.7 1.4.1 1 1.8 1 1.8s5.6-3.6 9.5-1c0 0-1.5-1.5-2.6-4.4s2-25.7 2-25.7" class="coloreac2b0 svgShape"></path><path fill="#fdff3d" d="M24 87.8s30.4 12.9 42.3-3.3c11.8-16.2 25-17.5 25-17.5L65 48.4s-10 7.3-30.1 2.4C14.8 45.8 7.7 63.7 11.3 73c3.6 9.4-2.7 10.5-3.1 12.3-.4 1.8 5.6 21.6 5.6 21.6s6.8-2.7 10.8 0c0 0-5.4-13.4-.6-16.4 4.8-3.1 12.6 1 12.6-16.1" class="colorf4d5c9 svgShape"></path><path fill="#ff9a3a" d="M70.3 25.9s-7-5.4-3.5-13.1c.7-1.6-.2-3-1.8-1.5-2.8 2.6-8.6 10.4-1.3 19.5l6.6-4.9zM96.8 25.9s7-5.4 3.5-13.1c-.7-1.6.2-3 1.8-1.5 2.8 2.6 8.6 10.4 1.3 19.5l-6.6-4.9z" class="colorb49078 svgShape"></path><path fill="#592d72" d="M66.2 34.3s-10.3-18.8-26.6-7c0 0 3.9 9.3 6.7 11.3 3.1 2.2 9.2 7.4 19.9-4.3z" class="color595959 svgShape"></path><path fill="#ff2020" d="M46.9 23.8c-.9 3.8.9 8.4 4.9 11.5 3.5 2.7 7.7 3.4 11.1 2.3 1.1-.9 2.2-2 3.4-3.3-.1 0-7.4-13.3-19.4-10.5z" class="color3f3f3f svgShape"></path><g fill="#fdff3d" class="colorf4d5c9 svgShape"><path d="M42.4 33.2c.1.1.1.2.2.3-.1-.1-.1-.2-.2-.3zM39.6 27.2s9-5.7 15 1.1 8.2 6.7 8.2 6.7-4.5 1.1-7.2 3c-2.6 1.9-10.3-.1-12.7-4.1 1.1 2 2.3 3.8 3.4 4.6 3.2 2.3 9.2 7.5 19.9-4.3 0 .1-10.3-18.7-26.6-7z" fill="#000000" class="color000000 svgShape"></path></g><path fill="#592d72" d="M100.9 34.3s10.3-18.8 26.6-7c0 0-3.9 9.3-6.7 11.3-3.2 2.2-9.2 7.4-19.9-4.3z" class="color595959 svgShape"></path><path fill="#ff2020" d="M120.2 23.8c.9 3.8-.9 8.4-4.9 11.5-3.5 2.7-7.7 3.4-11.1 2.3-1.1-.9-2.2-2-3.4-3.3.1 0 7.4-13.3 19.4-10.5z" class="color3f3f3f svgShape"></path><path fill="#fdff3d" d="M124.7 33.2c-.1.1-.1.2-.2.3.1-.1.1-.2.2-.3zM127.5 27.2s-9-5.7-15 1.1-8.2 6.7-8.2 6.7 4.5 1.1 7.2 3c2.6 1.9 10.3-.1 12.7-4.1-1.1 2-2.3 3.8-3.4 4.6-3.2 2.3-9.2 7.5-19.9-4.3 0 .1 10.3-18.7 26.6-7z" class="colorf4d5c9 svgShape"></path><ellipse cx="83.5" cy="41.7" fill="#fcfccc" rx="26.9" ry="21.4" class="colorfcdbcc svgShape"></ellipse><ellipse cx="73.1" cy="39.3" fill="#958c9a" rx="6.8" ry="9.1" class="color9a918c svgShape"></ellipse><ellipse cx="73.1" cy="39.9" fill="#ffffff" rx="6.8" ry="8.5" class="colorffffff svgShape"></ellipse><ellipse cx="73.1" cy="41.2" fill="#1483c5" rx="5" ry="6.2" class="color3e8096 svgShape"></ellipse><ellipse cx="73.1" cy="41.2" fill="#06000a" rx="2.7" ry="3.3" class="color000a02 svgShape"></ellipse><circle cx="71.3" cy="38.8" r=".9" fill="#ffffff" class="colorffffff svgShape"></circle><ellipse cx="94" cy="39.3" fill="#958c9a" rx="6.8" ry="9.1" class="color9a918c svgShape"></ellipse><ellipse cx="94" cy="39.9" fill="#ffffff" rx="6.8" ry="8.5" class="colorffffff svgShape"></ellipse><ellipse cx="94" cy="41.2" fill="#1483c5" rx="5" ry="6.2" class="color3e8096 svgShape"></ellipse><ellipse cx="94" cy="41.2" fill="#06000a" rx="2.7" ry="3.3" class="color000a02 svgShape"></ellipse><circle cx="92.3" cy="38.8" r=".9" fill="#ffffff" class="colorffffff svgShape"></circle><path fill="#f8d7b8" d="M99.1 51.5c.2-.5.3-1 .3-1.5 0-2.4-1.9-4.3-4.3-4.3-1.5 0-2.8.8-3.6 2-2.4-.7-5.1-1.1-7.9-1.1s-5.5.4-7.9 1.1c-.8-1.2-2.1-2-3.6-2-2.4 0-4.3 1.9-4.3 4.3 0 .5.1 1 .3 1.5-3 2.4-4.9 5.6-4.9 9 0 7.7 9.1 13.9 20.4 13.9S104 68.2 104 60.5c-.1-3.5-1.9-6.6-4.9-9z" class="colorf8b8c9 svgShape"></path><ellipse cx="72.6" cy="50.7" fill="#240038" rx="3.1" ry="1.9" transform="scale(-1) rotate(54.277 98.927 -141.586)" class="color380000 svgShape"></ellipse><ellipse cx="94.4" cy="50.8" fill="#240038" rx="3.1" ry="1.9" transform="rotate(125.718 94.393 50.767)" class="color380000 svgShape"></ellipse><path fill="#bd9977" d="M94.1 61.3s.5.5 1.1 1.2c-2.8 3.1-7 5-11.7 5s-8.9-1.9-11.7-5c.6-.8 1.1-1.2 1.1-1.2-2.8.3-2.3 3-2.3 3 .3-.6.7-1.1 1-1.5 2.8 4 7.1 6.6 11.9 6.6s9.1-2.6 11.9-6.6c.3.4.7 1 1 1.5.1.1.5-2.7-2.3-3z" class="colorbd7782 svgShape"></path><path fill="#ff2020" d="M94.5 22.1s-12-.5-10.9 11.3c0 0-3.3-4.7-1.5-8.4 0 0-1.8 3.4-7 2.1 0 0 5.1-2.3 6.1-5 0 0-5.5 1.1-8.8-1.8 0 0 7.4-3.9 11.2-.9 0 0-1.2-.4 0-3.4 0 0 2 2.5 4.8 3.1 2.6.6 5 .7 6.1 3z" class="color3f3f3f svgShape"></path><g fill="#000000" class="color000000 svgShape"><path fill="#ff2020" d="M56 106.9s-4.7 6.9-3.2 9c1.6 2.1 13.2 1.3 13.2 1.3l-3.2-6.5 4.9 5.5s4.1.7 4.6-1.6-5.5-7.7-5.5-7.7l-6.8-5.3-4 5.3z" class="color3f3f3f svgShape"></path><path fill="#14c5af" d="M62.7 114.8c-1.1-.9-2.2-1.7-3.3-2.6-1.5-1.5-2.6-3.2-3.5-5.1-.7 1.1-4.5 6.9-3.1 8.8 1.6 2.1 13.2 1.3 13.2 1.3l-.6-1.2c-.9-.3-1.8-.7-2.7-1.2zM72.3 114.7l-9.4-4 4.9 5.5s3.9.7 4.5-1.5z" class="color242424 svgShape"></path></g><path fill="#fdff3d" d="M50.8 78.5c-4.9 6.2 4.1 21 3.4 24.2-.7 3.2-1.6 3.2 0 3.3 1.6.1 1.2 2.2 1.2 2.2s6.8-4.3 11.5-1.2c0 0-1.9-1.8-3.2-5.3S68 76.1 68 76.1" class="colorf4d5c9 svgShape"></path><path fill="#ff2020" d="M23.1 76c.5.5.8 1.2 1.4 1.6.9.5 2-.1 2.8-.8 2.2-2.2 2.9-5.6 1.8-8.5-.3-.8-.8-1.6-1.5-1.9-1.3-.7-3.5-.2-4-1.6-.3-.9.4-1.8 1.3-2.2.8-.4 1.8-.5 2.6-.9 1.5-.8 2.2-2.9 1.5-4.5s-2.8-2.4-4.4-1.7c-2.5 1-4.2 2.9-6.8.8-.6-.5-1.1-1.2-1.6-1.9-5.5 5-7 13.3-5 18.7 1.2 3.1 1.3 5.3.9 6.9.1-.1.1-.2.2-.3 1.4-1.4 3.8 1 5.7.3.3-1.2.7-2.5 1.6-3.5.9-1 2.6-1.3 3.5-.5zM35.2 50.8c-.4 1.1-.6 2.2-1.1 3.2-.4.8-.9 1.5-1.2 2.3-.9 2.5 1.5 5.5 4.1 5.2 1-.1 2.1-.6 3 0 1.1.7.8 2.4 1.1 3.6.5 2 2.9 3.2 4.8 2.6 2-.6 3.4-2.6 3.5-4.6 0-.4 0-.9.3-1.2.5-.6 1.4-.4 2.2-.4 2.3.1 4.4-1.7 5.2-3.9.8-2 .7-4.2.4-6.4-4.9 1.4-12.3 2-22.3-.4zM42.5 69.8c-.7.2-1.3.7-1.8 1.3-1.3 1.5-2 3.5-1.9 5.5 0 .4.1.8.2 1.1.3.6 1 .8 1.7 1 1.6.4 3.3.5 5 .3 1.4-.2 2.8-.7 3.7-1.8.8-1 2.2-1.8 2.3-2.9.2-1-.5-1.9-1.2-2.4-1.6-1.2-6.2-2.6-8-2.1zM24.5 89.9c-.2-.3-.4-.6-.7-.8-.5-.5-1.1-1.1-1.9-1.3-1.1-.3-2.2.2-3.2.6-1.1.5-2.3 1.2-2.4 2.4-.1.8.4 1.8-.2 2.4-.2.2-.4.3-.6.5-.1.2-.1.5 0 .7.2.9.3 1.8.5 2.7.1.7.3 1.4.8 1.8s1.2.5 1.8.5c.7 0 2.5.3 3.7.2-.7-3.7-.8-7.6 1.6-9.1.2-.1.5-.3.7-.4 0 0 0-.1-.1-.2zM16.3 25.7c-2-1.7-4.6-2.5-7-3.7-2.3-1.2-4.6-3.1-5-5.7-1.6 3.7-1 8.4 1.7 11.6-2.2-.8-4.6-1.8-5.5-4 .7 4 1.7 8.4 4.9 11 .8.7 1.8 1.2 2.8 1.6 1.7.8 3.5 1.4 5.4 1.6 1.4.1 3.4 0 4.6-.8 1.1-.8 1.3-2.2 1.4-3.6.2-3-1-6.1-3.3-8z" class="color3f3f3f svgShape"></path><path fill="#eaccb0" d="M66.3 84.5l1.8-11.3s-2.4 6.9-1.8 11.3zM51.1 92.4s-3.2-8.8-1.8-14.8c0 .1-3.3 7.2 1.8 14.8zM36 71.7s4.6 12-8.1 17.5c-.1-.1 13.8-3.5 8.1-17.5z" class="coloreac2b0 svgShape"></path></svg>