<svg xmlns="http://www.w3.org/2000/svg" viewBox="0 0 128 128" id="Dog"><path fill="#14c5af" d="m35.4 60-.9-1.8v-.6s0-1.6 2.7-1.7c2.7-.1-1.8 4.1-1.8 4.1zM68.1 53.7c.3-.6.4-2.1.4-2.1s-.6-1.2-2.9-.5c-2.3.6.6 5.7.6 5.7s1.6-2.4 1.9-3.1z" class="color253042 svgShape"></path><path fill="#fdff3d" d="M92.9 83.9h18.8c-.6-.7-1.1-2.8-2.2-4.6-2-3.2-7.5-15.8.8-25.2.6-.6 2.6-1.9 1.8-1.7-23.1 5-20.3 22.3-20.3 22.3-.2 3.1.1 6.2 1.1 9.2-.1-.1-.1 0 0 0z" class="colorece4e2 svgShape"></path><path fill="#ff9a3a" d="M91.3 79.1c-.3-.9-.7-1.7-1-2.5-.5-1.4-.6-2.8-.4-4.2 1.7 1.2 3.2 2.7 4.4 4.5-.3-1.5-.3-3 .1-4.5 1.3 2.8 3.3 5.3 5.7 7.2-1-1.6-1.1-3.9-.1-5.6.7 1.9 1.7 3.7 3 5.3-.3-2.7 1.3-5.6 3.7-6.8-.8.9-.9 2.3-.7 3.4.3 1.2.9 2.3 1.5 3.3-.1-1.6.8-3.2 2.2-3.9-.2 2.8 2 5.2 3.4 7.7 2.1 3.8 2.2 8.7.2 12.6.9-.7 1.7-1.5 2.4-2.4.3 3.3 0 6.7-.9 9.9-.4 1.4-.9 2.7-1.7 3.9-1 1.5-2.4 2.7-4 3.7-5.6 3.4-12.9 3.6-18.7.6 1.3-2.1 1.6-4.6 1.7-7.1.2-4.7-.3-9.5-1-14.1-.3-1.8-.5-3.3 0-5.1.4-1.9.8-3.9.2-5.9z" class="colore6923c svgShape"></path><path fill="#cb701a" d="M113.3 95.5c2-3.9 1.9-8.8-.2-12.6-1.4-2.5-3.7-4.8-3.4-7.7-1.4.8-2.3 2.3-2.2 3.9-.6-1-1.2-2.1-1.5-3.3-.3-1.2-.1-2.5.7-3.4-2.5 1.2-4 4.1-3.7 6.8-.3-.3-.5-.7-.8-1 .2.6.4 1.3.7 1.9.8 1.7 1.9 3.2 2.8 4.8 1.2 2.2 2.1 4.7 2.1 7.2s-.8 5.1-2.6 7c.7-.6 1.4-1.3 2.1-1.9-.7 3.7-2.8 7.1-5.8 9.3-2.9 2.1-6.6 3.1-10.1 2.7-.2.7-.5 1.3-.9 2 5.8 3 13.1 2.8 18.7-.6 1.6-1 3-2.2 4-3.7.8-1.2 1.3-2.6 1.7-3.9.9-3.2 1.2-6.6.9-9.9-.8.9-1.6 1.7-2.5 2.4z" class="colorcb731a svgShape"></path><path fill="#b70d0d" d="M52.7 96s1.6 11.7 13.3 14.8l-5.6 2.1s-5.7-3-7.7 0 .9 7.1.9 7.1h9.7l15.9-3.2 4.7-1-.9-10L52.7 96z" class="colorb75d0d svgShape"></path><path fill="#9b0404" d="M52.7 96s.1.8.5 2c1.1 2.4 3.2 5.3 7.3 7 0 0 5.3 6.7 12.7 7.9 0 0-4.5.9-6.7 3.6s-9.4 2.4-9.4 2.4l-.2 1.1h6.4l15.9-3.2 4.7-1-.9-10L52.7 96z" class="color9b4804 svgShape"></path><path fill="#570089" d="M55 119.6s-.4-2.9.3-4.7c.7-1.8 4-1.5 4-1.5s-4 1.2-4.3 6.2z" class="color893e00 svgShape"></path><path fill="#cb701a" d="M50.3 89.5c0 6.2-.7 12.3-2.1 18.3-1.2 5.3-1.8 11.2-2.9 16.1-.3 1.6-6.5 1-9.9.9-.3 0-.7 0-1-.3-.2-.2-.3-.4-.4-.6-.7-.9-2.1-.6-3.2-.9-.9-.3-1.6-1.2-1.8-2.2-.2-1 0-2 .3-2.9.3-.8.8-1.6 1.5-2.1 1.6-1 3.6 0 5.2.9 0 0 3.7-13.3 2.3-25.7-1.4-12.4 1.2-20.3 1.2-20.3" class="colorcb731a svgShape"></path><path fill="#b70d0d" d="M50.3 89.5s0 9.3-2.1 18.3c-1.2 5.3-1.8 11.2-2.9 16.1-.3 1.6-6.5 1-9.9.9-.3 0-.7 0-1-.3-.2-.2-.3-.4-.4-.6-.7-.9-2.1-.6-3.2-.9-.9-.3-1.6-1.2-1.8-2.2-.2-1 0-2 .3-2.9.3-.8.8-1.6 1.5-2.1 1.6-1 3.6 0 5.2.9 0 0 3.7-13.3 2.3-25.7-1.4-12.4 1.2-20.3 1.2-20.3s.3 16.7 2.4 21.7c1.8 4.2-.7 19-1.5 23.6-.1.7.4 1.4 1.1 1.6l1.1.2c.7.1 1.3-.3 1.5-1 1.4-4.6 6.2-22.2 6.2-27.3z" class="colorb75d0d svgShape"></path><path fill="#ff9a3a" d="M66 45.8s.7 14.9 6.7 20.3 37.9 23.2 23.9 46c0 0-3.6 3-2.5 3.6 1.1.6 3.2 2.4 1.9 3.7-1.3 1.3-7.3 2-11.5 3.7-4.3 1.7-8 4.1-10.4 1.5 0 0-2.1 1.2-3.9-.9 0 0-2.8-.4-1.7-3.9s3-6.3 4.8-5.6c1.7.7 9.9 1.2 10 .5.1-.7-2.6-.6-2.6-.6S67 109 70.8 95.9l-19.3-8.8-8.2-21.5L45 53.3l21-7.5z" class="colore6923c svgShape"></path><path fill="#eaeae2" d="M70.8 95.9s.1-.4.4-1c-6-2.5-16.6-8.1-19.1-16.5-3.5-11.8-7-20-1.7-22.6C53.8 54.2 37 54 37 54s-5.6 15.2 2.8 24.9c0 0 .1 16.2 22.4 24.1 0 0 5.2 6.7 14.5 8.8-3.8-2.6-8.3-7.7-5.9-15.9z" class="coloreae5e2 svgShape"></path><path fill="#ff9a3a" d="M47.7 62.8s2.5 15.4 8.2 22.9c5.8 7.6 0 32.6 0 32.6-1.6 0-3.6.3-4.4 1.8-.5.9-.4 2-.6 3-.1.5-.2.9-.1 1.4.2.7.9 1.2 1.6 1.6 3.5 1.8 7.9 1.9 11.5.3.5-.2.9-.4 1.3-.8.9-.8 1.1-2.1 1.2-3.3.3-4 2.1-24.9 2.5-28.1.2-1 .3-2.1.8-3.1.8-1.8 2.6-3 3.2-4.9.3-.9.3-2 0-2.9-.3-.8-.8-1.5-1-2.3-.4-1.1-.3-2.3-.2-3.5" class="colore6923c svgShape"></path><path fill="#cb701a" d="M71.6 77.5c-.1 1.2-.2 2.4.2 3.5.3.8.8 1.5 1 2.3.3.9.3 2 0 2.9-.6 1.9-2.4 3.1-3.2 4.9-.5 1-.6 2-.8 3.1-.5 3.2-2.3 24.1-2.5 28.1-.1 1.2-.3 2.5-1.2 3.3-.4.3-.8.6-1.3.8-3.6 1.6-8 1.4-11.5-.3-.7-.3-1.4-.8-1.6-1.6-.1-.4 0-.9.1-1.4.1-1 .1-2.1.6-3 .8-1.4 2.8-1.8 4.4-1.8 0 0 5.8-25 0-32.6-5.8-7.6-8.2-22.9-8.2-22.9s4.1 13.4 7.6 18c3.5 4.7 6.6 9.9 6.5 14.3-.1 4.4-2.8 23.4-2.8 24.1s3.9 2.4 5 .7 2.7-25.6 4.7-29.3c2-3.7 3.2-3.9 3.1-6 0 0-.9-1.3-.9-3.7-.1-2.2.8-3.4.8-3.4z" class="colorcb731a svgShape"></path><path fill="#570089" d="M52.8 126.2s-.4-2.9.3-4.7c.7-1.8 4-1.5 4-1.5s-4 1.3-4.3 6.2zM34.5 124.5s-1.7-1.8 0-4.8 5.7-1.2 5.7-1.2-6.4.1-5.7 6zM30.9 123s-1.8-5.7 3.1-5.5c0 0-3.1 1.5-3.1 5.5z" class="color893e00 svgShape"></path><path fill="#cb701a" d="M82 85.8c-10.2.9-11.8 9.4-11.8 9.4-3.7 13 10.3 18.9 10.3 18.9l2.6.6c-.1.7-8.3.2-10-.5-1.7-.7-3.7 2.2-4.8 5.6s1.7 3.9 1.7 3.9c1.8 2.1 3.9.9 3.9.9 2.4 2.6 6.1.2 10.4-1.5 4.3-1.7 10.2-2.4 11.5-3.7 1.3-1.3-.7-3.2-1.9-3.7-1.1-.6 2.5-3.6 2.5-3.6 14-22.7-17.9-40.6-23.9-46-6-5.4-6.7-20.3-6.7-20.3s-3.6 14.4 7.8 23.5 22 14.7 23.7 27.8c1.7 13-8.8 19.7-19.2 12.7-10.3-7-5.6-16.8-4.2-19.1 2.1-3.1 8.1-4.9 8.1-4.9z" class="colorcb731a svgShape"></path><path fill="#570089" d="M74 124.6s-2.9-3.2 0-5.1c2.9-1.9 8.6-.5 9.9-.9 0 0-2.6 1.8-6.1 1.4-3.5-.4-4.3 4.1-3.8 4.6z" class="color893e00 svgShape"></path><path fill="#570089" d="M70.1 123.7s-1.2-6.6 3.7-6.9h4.4s-7.2 0-8.1 6.9z" class="color893e00 svgShape"></path><path fill="#fca654" d="M73.2 98c-.3 3.6 1.2 7.4 3.9 9.8 2.7 2.5 6.5 3.6 10.2 3.1 2.2-.3 4.5-1.4 5.1-3.5.1-.5.2-1 0-1.5-.3-1-1.4-1.6-2.4-1.8s-2.1-.1-3.1-.1c-2.9-.1-5.8-1.5-7.4-4s-1.9-5.8-.4-8.3c.4-.7 1.3-2 0-2.3-1-.2-2.2 1.1-2.8 1.8-1.7 1.9-2.9 4.3-3.1 6.8z" class="colorfca454 svgShape"></path><path fill="#fffffd" d="M40.5 75.1c.8 1.2 1.8 2.4 2 3.9.2 1.1 0 2.2.1 3.3.1 1.4.7 2.6 1.2 3.9 1.3 2.9 2.6 5.9 4.8 8.1 2.2 2.3 5.6 3.7 8.6 2.7 1.3-5.2-2-10.3-4.9-14.8-2.4-3.8-4.6-7.7-5.9-12-1.3-4.3-1.7-8.9-.5-13.2-.1.3-6.2-2.1-6.9-1.8-1.7.7-1.9 4.2-2 5.8-.4 4.9.8 9.9 3.5 14.1z" class="colorfefffd svgShape"></path><path fill="#570089" d="M55.8 127.2s-.8-2.1-.3-4.3c.5-2.2 4.4-1.8 4.4-1.8s-3.9 1.2-4.1 6.1z" class="color893e00 svgShape"></path><path fill="#990000" d="M69.2 7.7s-3.8-.6-5.2 2.1c-1.4 2.7 9.4 4.7 9.4 4.7l-.5-4.7-3.7-2.1zM44.1 2s3.6 1.3 3.6 4.4S37.1 6 37.1 6l2.7-3.9 4.3-.1z" class="color993400 svgShape"></path><path fill="#ff9a3a" d="M58.2 5.9s26.1 7.9 22.9 26c-3.2 18.2-28.9 30.1-39.5 26-15-5.9-24.7-28.6-17.9-42.4C32-1.2 58.2 5.9 58.2 5.9z" class="colore6923c svgShape"></path><path fill="#f3f3f0" d="M65 41.2c-4-2.9-12.1-1.5-12.1-1.5l-10.4-4.1c-2.2-.1-11.6-9.4-16.5-5.4-2 1.6-2.9 3.1-3.2 4.5 2.8 10.1 9.8 19.6 18.8 23.1 5.3 2.1 14.4.1 22.5-4.6 3.5-4.4 4.3-9.5.9-12z" class="colorf3f2f0 svgShape"></path><path fill="#c96f1a" d="M44.1 2s-1.7-.2-3.4 1.6C37.5 7 28.5 31.5 23.1 32.4c-5.5.9-14.4-12.9-9.3-25.7 1.8-4.3 3.7-2.9 12.7-3.2 9-.3 9.9-5.5 17.6-1.5z" class="colorc9741a svgShape"></path><path fill="#909090" d="M31 38.6c-.1.1-.3.2-.5.2 3.1 6.6 11.5 17.4 30.2 6.1.1 0-19.9 9.3-29.7-6.3z" class="color909090 svgShape"></path><path fill="#909090" d="M58.3 43.2s4.4.1 2.4 4.3c0 .1-.1-2.9-2.4-4.3zM33.8 38.3s-3.4-2.7-4.6 1.9c0 0 2-2.2 4.6-1.9z" class="color909090 svgShape"></path><path fill="#200032" d="M54.4 38.7c-.8 2.8-5.6 5.4-10.1 4-4.5-1.4-7.1-6.1-6.2-8.9.8-2.8 5.1-3.7 9.6-2.3 4.5 1.4 7.5 4.4 6.7 7.2z" class="color320000 svgShape"></path><ellipse cx="45.2" cy="34.8" fill="#ffffff" rx="3.8" ry="2" transform="rotate(9.769 45.206 34.776)" class="colorffffff svgShape"></ellipse><ellipse cx="60.2" cy="29" fill="#ce731d" rx="7.1" ry="9.4" transform="rotate(12.979 60.23 28.975)" class="colorce6f1d svgShape"></ellipse><ellipse cx="60.3" cy="29.2" fill="#fffff5" rx="6.5" ry="8.6" transform="rotate(12.979 60.343 29.227)" class="colorfbfff5 svgShape"></ellipse><ellipse cx="59" cy="28.9" fill="#61a1c7" rx="4.5" ry="6.3" transform="rotate(12.979 58.98 28.937)" class="color6195c7 svgShape"></ellipse><ellipse cx="59" cy="28.9" fill="#210034" rx="2.8" ry="3.6" transform="rotate(12.979 58.98 28.937)" class="color000034 svgShape"></ellipse><circle cx="57.7" cy="26.6" r="1.8" fill="#fffffc" class="colorfdfffc svgShape"></circle><ellipse cx="39" cy="22.8" fill="#ce731d" rx="6.3" ry="8.4" transform="rotate(12.222 38.961 22.801)" class="colorce6f1d svgShape"></ellipse><ellipse cx="39.2" cy="23.3" fill="#fffff5" rx="5.7" ry="7.5" transform="rotate(12.222 39.194 23.305)" class="colorfbfff5 svgShape"></ellipse><ellipse cx="38" cy="23.1" fill="#61a1c7" rx="4" ry="5.5" transform="rotate(12.222 38 23.068)" class="color6195c7 svgShape"></ellipse><ellipse cx="38" cy="23.1" fill="#210034" rx="2.5" ry="3.2" transform="rotate(12.222 38 23.068)" class="color000034 svgShape"></ellipse><circle cx="36.9" cy="21" r="1.6" fill="#fffffc" class="colorfdfffc svgShape"></circle><g fill="#ce731d" class="colorce6f1d svgShape"><path d="M64.1 53.3s-.6.3-1.4.8c.5-.3.9-.5 1.4-.8zM66 9.2c4.3 3.9 3.6 20.1 3.5 25.2-.1 7.3.4 8.7.4 11-.1 4.2-5.8 7.9-5.8 7.9 8.2-4.7 15.4-12.3 17-21.4 2-11.5-7.7-18.8-15.1-22.7z" fill="#000000" class="color000000 svgShape"></path></g><path fill="#990000" d="M57.9 12.6s7.7-2.1 9.7 3.6c0 0-5.4-3.8-9.7.6-4.4 4.3-3.9-2.6 0-4.2zM46 10.7s-5.1-4-8.4-.3c0 0 5.2-1.2 7.2 3.4 1.9 4.7 3.7-.7 1.2-3.1zM69.2 7.7s-3.8-.6-5.2 2.1c-1.4 2.7 9.4 4.7 9.4 4.7l-.5-4.7-3.7-2.1zM44.1 2s3.6 1.3 3.6 4.4S37.1 6 37.1 6l2.7-3.9 4.3-.1z" class="color993400 svgShape"></path><path fill="#ff9a3a" d="M58.2 5.9s26.1 7.9 22.9 26c-3.2 18.2-28.9 30.1-39.5 26-15-5.9-24.7-28.6-17.9-42.4C32-1.2 58.2 5.9 58.2 5.9z" class="colore6923c svgShape"></path><path fill="#fffffd" d="M65 41.2c-4-2.9-12.1-1.5-12.1-1.5l-10.4-4.1c-2.2-.1-11.6-9.4-16.5-5.4-2 1.6-2.9 3.1-3.2 4.5 2.8 10.1 9.8 19.6 18.8 23.1 5.3 2.1 14.4.1 22.5-4.6 3.5-4.4 4.3-9.5.9-12z" class="colorfefffd svgShape"></path><path fill="#c96f1a" d="M44.1 2s-1.7-.2-3.4 1.6C37.5 7 28.5 31.5 23.1 32.4c-5.5.9-14.4-12.9-9.3-25.7 1.8-4.3 3.7-2.9 12.7-3.2 9-.3 9.9-5.5 17.6-1.5z" class="colorc9741a svgShape"></path><path fill="#200032" d="M54.4 38.7c-.8 2.8-5.6 5.4-10.1 4-4.5-1.4-7.1-6.1-6.2-8.9.8-2.8 5.1-3.7 9.6-2.3 4.5 1.4 7.5 4.4 6.7 7.2z" class="color320000 svgShape"></path><ellipse cx="45.2" cy="34.8" fill="#ffffff" rx="3.8" ry="2" transform="rotate(9.769 45.206 34.776)" class="colorffffff svgShape"></ellipse><ellipse cx="60.2" cy="29" fill="#ce731d" rx="7.1" ry="9.4" transform="rotate(12.979 60.23 28.975)" class="colorce6f1d svgShape"></ellipse><ellipse cx="60.3" cy="29.2" fill="#fffff5" rx="6.5" ry="8.6" transform="rotate(12.979 60.343 29.227)" class="colorfbfff5 svgShape"></ellipse><ellipse cx="59" cy="28.9" fill="#61a1c7" rx="4.5" ry="6.3" transform="rotate(12.979 58.98 28.937)" class="color6195c7 svgShape"></ellipse><ellipse cx="59" cy="28.9" fill="#210034" rx="2.8" ry="3.6" transform="rotate(12.979 58.98 28.937)" class="color000034 svgShape"></ellipse><circle cx="57.7" cy="26.6" r="1.8" fill="#fffffc" class="colorfdfffc svgShape"></circle><ellipse cx="39" cy="22.8" fill="#ce731d" rx="6.3" ry="8.4" transform="rotate(12.222 38.961 22.801)" class="colorce6f1d svgShape"></ellipse><ellipse cx="39.2" cy="23.3" fill="#fffff5" rx="5.7" ry="7.5" transform="rotate(12.222 39.194 23.305)" class="colorfbfff5 svgShape"></ellipse><ellipse cx="38" cy="23.1" fill="#61a1c7" rx="4" ry="5.5" transform="rotate(12.222 38 23.068)" class="color6195c7 svgShape"></ellipse><ellipse cx="38" cy="23.1" fill="#210034" rx="2.5" ry="3.2" transform="rotate(12.222 38 23.068)" class="color000034 svgShape"></ellipse><circle cx="36.9" cy="21" r="1.6" fill="#fffffc" class="colorfdfffc svgShape"></circle><g fill="#ce731d" class="colorce6f1d svgShape"><path d="M64.1 53.3s-.6.3-1.4.8c.5-.3.9-.5 1.4-.8zM66 9.2c4.3 3.9 3.6 20.1 3.5 25.2-.1 7.3.4 8.7.4 11-.1 4.2-5.8 7.9-5.8 7.9 8.2-4.7 15.4-12.3 17-21.4 2-11.5-7.7-18.8-15.1-22.7z" fill="#000000" class="color000000 svgShape"></path></g><path fill="#990000" d="M57.9 12.6s7.7-2.1 9.7 3.6c0 0-5.4-3.8-9.7.6-4.4 4.3-3.9-2.6 0-4.2zM46 10.7s-5.1-4-8.4-.3c0 0 5.2-1.2 7.2 3.4 1.9 4.7 3.7-.7 1.2-3.1z" class="color993400 svgShape"></path><path fill="#ff9a3a" d="M69.2 7.7s1.6.6 2.2 3.1c1.1 4.4-2.7 30.3 1.6 33.7 4.4 3.4 18.8-4.4 20.4-18.1.5-4.6-1.8-4.3-9.6-8.9-7.7-4.6-5.9-9.6-14.6-9.8z" class="colore6923c svgShape"></path><path fill="#cb701a" d="M87.8 19.7c1.1 1.6 2.3 4.3 1.8 7.5-.9 7-7.4 17.1-15.3 16.7-2.6-.1-3.4-8.2-3.4-8.4.1 4.3.7 7.8 2.1 8.9 4.4 3.4 18.8-4.4 20.4-18.1.5-3.6-1-4.2-5.6-6.6z" class="colorcb731a svgShape"></path><path fill="#fca654" d="M75.8 19.6c-.2-3.4-.8-7.6-3-10.4-.4-.5-.8-.9-1.4-1.3-.7-.1-1.4-.2-2.3-.2 0 0 1.6.6 2.2 3.1.8 3.2-1 17.4-.4 26.4.1.4.2.8.4 1.2.7 2.1 2 4.3 4.1 4.8-1.6-2.1-1.4-5-1.1-7.6.8-5.3 1.8-10.6 1.5-16z" class="colorfca454 svgShape"></path><path fill="#eaeae2" d="M62.2 42.9c-.5.3-.9.6-1.3 1-4.5 3.8-10.5 5.4-16.3 5.3-1.9-.1-3.8-.3-5.4-1.1-1.4-.7-2.6-1.9-3.8-3-2-2-4.1-4.1-4.7-6.9-.3-1.6-.1-3.4-1.2-4.7-.8-.9-2.1-1.3-3.3-1.2-.9 0-1.7.3-2.5.6-.5.7-.7 1.4-.9 2C25.6 45 32.6 54.5 41.6 58c5.3 2.1 14.4.1 22.5-4.6 2.3-2.9 3.4-6.1 3-8.7-1.1-1.7-3.2-2.7-4.9-1.8z" class="coloreae5e2 svgShape"></path><path fill="#fb5151" d="M37.3 45.8s-2 7.5 2.8 8.8c6.8 1.8 10.3-5.8 13.6-6.7 0 0-12.3 1.1-16.4-2.1z" class="colorfb5151 svgShape"></path><path fill="#28003f" d="M37.3 45.8s-.6 2.4-.3 4.8c3.9-1 5.6.9 5.6.9 2.7-.9 4.5.2 5.3 1 2.3-1.8 4.1-4.2 5.8-4.7 0 .1-12.3 1.2-16.4-2z" class="color3f0008 svgShape"></path><path fill="#fb5151" d="M37.3 45.8s-2 7.5 2.8 8.8c6.8 1.8 10.3-5.8 13.6-6.7 0 0-12.3 1.1-16.4-2.1z" class="colorfb5151 svgShape"></path><path fill="#28003f" d="M37.3 45.8s-.6 2.4-.3 4.8c3.9-1 5.6.9 5.6.9 2.7-.9 4.5.2 5.3 1 2.3-1.8 4.1-4.2 5.8-4.7 0 .1-12.3 1.2-16.4-2z" class="color3f0008 svgShape"></path><path fill="#909090" d="M31 38.6c-.1.1-.3.2-.5.2 3.1 6.6 11.5 17.4 30.2 6.1.1 0-19.9 9.3-29.7-6.3z" class="color909090 svgShape"></path><path fill="#909090" d="M58.3 43.2s4.4.1 2.4 4.3c0 .1-.1-2.9-2.4-4.3zM33.8 38.3s-3.4-2.7-4.6 1.9c0 0 2-2.2 4.6-1.9z" class="color909090 svgShape"></path><path fill="#592d72" d="M34.4 57.5c.4 1.8 3.4 2.9 11.2 2.6 22.7-.7 22.8-8.5 22.8-8.5v6s-.1 7.8-22.8 8.5c-7.9.2-10.8-1.1-11.2-2.9v-5.7z" class="color343f55 svgShape"></path><path fill="#1483c5" d="M34.4 58.2c.4 1.6 3.4 2.8 11.2 2.6 22.7-.6 22.8-8.4 22.8-8.4V57s-.1 7.8-22.8 8.4c-7.9.2-10.8-1-11.2-2.6v-4.6z" class="color547aab svgShape"></path><ellipse cx="42.6" cy="73" fill="#ff2020" rx="3.9" ry="7" class="colord53505 svgShape"></ellipse><ellipse cx="42.5" cy="72.8" fill="#d36a07" rx="3.4" ry="6" class="colord36707 svgShape"></ellipse><ellipse cx="42.2" cy="72.4" fill="#d16a09" rx="2.7" ry="5.5" class="colord18f09 svgShape"></ellipse><ellipse cx="41.8" cy="71.9" fill="#ff8c1f" rx="1.9" ry="4.6" class="colorffc41f svgShape"></ellipse></svg>