<svg xmlns="http://www.w3.org/2000/svg" viewBox="0 0 128 128" id="Dolphin"><path fill="#ff2020" d="M110.8 74.1s9.2 5.2 5.6 15.6c0 0-3.4-3.1-7.3-3.7-3.9-.5-9-4-10.1-6.3-1-2.2 11.8-5.6 11.8-5.6z" class="color477984 svgShape"></path><path fill="#14c5af" d="M117.9 64.1s16.3-7.4 6.4-13.7c0 0-6-31.7-32.4-19.2-8.2 3.9-13.7 7.4-26.5 24.6-18.1 24.3-31.8-3.7-35.1-3.1s-1.7 2.4 2.3 8.7c15.2 24.3 26.7 26.8 73.2 16.4 0 0 12.1 2.6 12.8-5.3.3-3.8-1.6-4.5-.7-8.4z" class="color84abba svgShape"></path><g fill="#95c6c0" class="color95bac6 svgShape"><path d="M47.6 78.6c12.9 7.4 37.7-.8 40-4 2.4-3.5 10.6-8.7 10.6-8.7l13.1 4.2-3.9-3 10.4-3c-.9 3.9 1 4.5.7 8.4-.6 7.9-12.8 5.3-12.8 5.3-31.2 7.1-46.7 8.2-58.1.8zM42.9 74.8c.3.2.9.7 1.7 1.5-.6-.5-1.2-1-1.7-1.5z" fill="#000000" class="color000000 svgShape"></path></g><path fill="#14c5af" d="M31.6 56s-2.8-4.1-11.3.3c-8.5 4.4-16.2 1.8-17.9.3-1.8-1.5-3 .2-.5 2.3 2.5 2.1 27.4 19.8 37.6 4.5L31.6 56z" class="color84abba svgShape"></path><path fill="#14c5af" d="M39 61.9s11.1-2.4 5.5-23.1c0 0-1.1-2.6-2.5.7s-3.4 8.3-8.2 10.6c-4.8 2.2-2.5 5.6-2.5 5.6l7.7 6.2z" class="color84abba svgShape"></path><path fill="#190027" d="M114.9 64.9s-8.8 4-17.4.3c0 0 8.4 12.4 15.7 9.4 1.3-.5 3.2-1.1 2.1-5.3-1-4.1-.4-4.4-.4-4.4z" class="color270001 svgShape"></path><path fill="#ff9a3a" d="M102.9 70.6c1-.8 2.1-1.4 3.5-1.3 2.7.1 6 3.4 6 3.4l-3.3-3.5c2-2.3 4.3-.8 5.8.6.7 3.6-.6 4.1-1.8 4.6-3.7 1.5-7.1-1.1-10.2-3.8z" class="colorffaeb7 svgShape"></path><path fill="#190027" d="M124.3 50.4s-.5 8.7-19.8 9.5c0 0 16.6-2.2 19.8-9.5zM117.9 64.1s-14.2 4.9-24.4-.7c0 .1 8.2 7.5 24.4.7z" class="color270001 svgShape"></path><path fill="#190027" d="M95.9 62.9s-3.5-.2-3 3.6c0-.1-3.1-5.4 3-3.6z" class="color270001 svgShape"></path><path fill="#14c5af" d="M90.9 71.5s-1.8.3.2 6c2 5.6-2.2 11.9-9.7 15.9-7.5 4.1-7.7 6.3-7.7 6.3s-1.4-3.1-1.1-6.4c.4-3.3 2.1-8 5.5-11.5s1.5-6.1 1.5-6.1" class="color84abba svgShape"></path><ellipse cx="98.4" cy="48.4" fill="#592d72" rx="4.6" ry="5.9" transform="scale(-1) rotate(-14.678 -376.114 764.294)" class="color385359 svgShape"></ellipse><ellipse cx="98.6" cy="49" fill="#7192a5" rx="4.6" ry="5.4" transform="scale(-1) rotate(-14.678 -380.22 765.37)" class="color7199a5 svgShape"></ellipse><ellipse cx="98.9" cy="49.4" fill="#fdff3d" rx="4.4" ry="4.9" transform="scale(-1) rotate(-14.678 -383.507 767.908)" class="colorf6f6f6 svgShape"></ellipse><path fill="#1483c5" d="M98.9 45.6c1.3-.3 2.7.2 3.6 1.2.3.4.5.9.6 1.5.4 1.7 0 3.4-.9 4.5-.4.3-.8.5-1.3.6-2 .5-4-.8-4.6-3-.5-2.1.7-4.3 2.6-4.8z" class="color0589ed svgShape"></path><ellipse cx="100.8" cy="49.3" fill="#010002" rx="1.9" ry="2.1" transform="scale(-1) rotate(-14.678 -382.66 782.717)" class="color000102 svgShape"></ellipse><circle cx="99.3" cy="47.7" r="1" fill="#fdfdfd" class="colorfdfdfd svgShape"></circle><path fill="#14c5af" d="M103.8 53.1s-4.5-3.2-8.5 1.4l4.3 1.6 4.2-3z" class="color84abba svgShape"></path><path fill="#592d72" d="M103.8 53.1s-4.5-3.2-8.5 1.4c0 0 3.5-3.1 8.5-1.4z" class="color385359 svgShape"></path><path fill="#95c6c0" d="M124.7 51.9s-7 12.9-23.3 9.1c0 0-4.3-3-.6-4.4 3.6-1.4-3-6.8-6.5 0s22.9 12.2 30.4-4.7z" class="color95bac6 svgShape"></path><path fill="#7192a5" d="M77 83.1s5.7-4.5 2.3-8.6c0 0 2.3 3.3-2.3 8.6zM91.5 80.9s.4-3.2-1.2-5.8c-1.6-2.6 1.1-4.7 1.1-4.7s-3.2 2-1.7 5c1.7 3 1.8 5.5 1.8 5.5z" class="color7199a5 svgShape"></path><path fill="#95c6c0" d="M44.9 64.6c5.7 2.5 12.7 1.7 20.5-8.8C78.2 38.6 83.8 35 91.9 31.2c17.7-8.4 26.3 3.2 30 11.7-15.1-20.1-37.3-5.7-45.5 5.2-21.3 28.2-31.5 16.5-31.5 16.5zM34.9 66.6s6.4-2.1-.4-7.8-9.1-4.6-13.4-2.8c-4.3 1.8-10.6 3.6-14.1 2.5 0 0 7.9 3.5 15.3-1 7.4-4.6 15 5.9 12.6 9.1z" class="color95bac6 svgShape"></path><path fill="#14c5af" d="M105.8 77.9s-4.8-.9-8.6-7.4c0 0 1.8 6.6 8.6 7.4z" class="color84abba svgShape"></path></svg>