<svg xmlns="http://www.w3.org/2000/svg" viewBox="0 0 128 128" id="Elephant"><path fill="#1483c5" d="M102.9 49.7c2.6-.7 5.4-.7 7.8.4 4.9 2.2 6.6 12.1 7.4 13.1.9 1 2.3 1.6 3.5 1 0 .4-.4.6-.7.8-1.5.7-3.4 0-4.6-1.2-1.2-1.2-1.8-2.9-2.3-4.4-.3-.9-.7-1.8-1-2.7-.3-.8-.6-1.6-1.1-2.3-1.3-1.6-3.9-1.9-5.5-.6l-3.5-4.1z" class="colora7b7c4 svgShape"></path><path fill="#14c5af" d="M56.1 95.4c-.1.5-.2 1-.5 1.4-.2.3-.6.5-.9.7-1.4.6-2.9.8-4.4.8-1.6 0-3.3 0-4.8-.8-1.5-.7-2.7-2.2-2.7-3.8 0-1.5 1-2.8 1.5-4.2.5-1.4.4-2.8.5-4.3.1-3 .6-6 1.4-8.8.1-.2.1-.4.3-.5.2-.1.4-.1.6-.1 3.2.3 6.4.8 9.6 1.5 1.4.3 3.1 1 3.6 2.5.3 1.2-.6 2.7-1 3.9-1.4 3.8-2.4 7.7-3.2 11.7zM92.8 95.4c-.1.5-.2 1-.5 1.4-.2.3-.6.5-.9.7-1.4.6-2.9.8-4.4.8-1.6 0-3.3 0-4.8-.8-1.5-.7-2.7-2.2-2.7-3.8 0-1.5 1-2.8 1.5-4.2.5-1.4.4-2.8.5-4.3.1-3 .6-6 1.4-8.8.1-.2.1-.4.3-.5.2-.1.4-.1.6-.1 3.2.3 6.4.8 9.6 1.5 1.4.3 3.1 1 3.6 2.5.3 1.2-.6 2.7-1 3.9-1.4 3.8-2.5 7.7-3.2 11.7z" class="color96a9b5 svgShape"></path><path fill="#afc6c3" d="M55.4 67.3s1.3-1.3 0-3.7l11.2-26.4c-2.7-1.9-16.4-3.3-17-3.2-.8 0-1.4-.6-2-1.2-3.4-3.1-8.9-2.8-12.8-.4-3.9 2.4-6.6 6.3-8.9 10.3-2.3 4-4.3 8.2-7.5 11.5-1.5 1.5-3.4 2.9-5.5 2.7-1.8-.2-3.4-1.7-4.1-3.4-.7-1.6-.8-3.5-.7-5.4.1-2.6.5-5.1 1.2-7.6.9-3.3 2.4-6.6 2.2-10-.1-3.4-3.8-9.7-6-7.1-2.8 3.4-2.2 5.9-2.2 5.9 2 1.5 2.6 4.4 2.2 6.9-.4 2.5-1.7 4.8-2.6 7.1C1.2 47.4.4 51.8.4 56.2c.1 4.3 1 8.7 3.6 12.1 2.9 3.9 7.8 6.1 12.6 6.4 4.8.3 9.7-1.1 13.9-3.5.5 1.1 1.8 1.6 3.1 1.6 1.2 0 2.4-.4 3.6-.5 1.3-.1 2.5.2 3.7.7.2 0 12.2 3.2 14.5-5.7z" class="colorafbdc6 svgShape"></path><path fill="#b4ccc9" d="M113.6 88.8c-1.8-4.9-1.2-10.3-1-15.5.2-6.8-.4-13.7-3.4-19.8-3-6.1-8.6-11.2-15.3-12-5-.7-10.2 1.1-15.2.6-.9-.1-1.9-.2-2.7-.7-.7-.4-1.2-1.1-1.8-1.8-1.9-2.5-4.2-4.9-6.7-6.7L55.4 63.6c1.3 2.4 0 3.7 0 3.7-2.3 8.9-14.3 5.7-14.3 5.7 1.2.5 2.4 1.2 3.6 1.9 4.1 2.4 8.4 5 11 9 2.3 3.6 3 8.2 1.9 12.3-.7 2.6-2 5.7-.3 7.7 1.1 1.3 3 1.5 4.7 1.4 2.7-.1 5.5-.8 7.9-1.9 1.7-.8 3.4-2 3.8-3.8.2-1.2-.2-2.3-.4-3.5-.9-3.9-.5-8 1.2-11.6 6.8 1.7 14 1.4 20.7-.8 3 3.5 2.8 8.3 3.6 12.8.2 1.2.4 2.6 1.5 3.3.8.5 1.8.4 2.7.4 2.1-.2 6.5-.8 8.4-1.7 1.9-.9 3.5-2.6 3.6-4.7 0-1.8-.8-3.4-1.4-5z" class="colorb4c2cc svgShape"></path><path fill="#897a91" d="M44.5 48.4c-.9-3.5-4.7-6.6-8-5.8-3.2.7-4.6 5-3.8 8.5.3 1.4 1.3 2.7 2.2 3.6 1.8-1 4.8-2.4 9.5-2.6.4-1.1.5-2.4.1-3.7z" class="color7a8591 svgShape"></path><path fill="#fffffc" d="M44 48.8c-.8-3.3-3.8-5.5-6.8-4.8-2.9.7-4.7 4-3.9 7.3.3 1.3.9 2.4 1.8 3.2 1.6-.9 4.6-2.2 8.8-2.4.3-1 .4-2.2.1-3.3z" class="colorfcffff svgShape"></path><path fill="#fdff3d" d="M45.2 92c-.7-.3-1.5.2-2.3 1.1 0 .2-.1.4-.1.6 0 1.6 1.2 3.1 2.7 3.8 0 0 .1 0 .1.1.9-2.7.8-5.1-.4-5.6zM49.7 93.4c-1.5-.3-3.1 1.7-3.7 4.4 1.3.5 2.8.6 4.3.5.5 0 .9 0 1.4-.1.2-2.5-.6-4.6-2-4.8z" class="colorc1cfd1 svgShape"></path><path fill="#deded1" d="M101.2 94.6c-1 0-1.8 1.3-2.2 3.2.2.8.5 1.5 1.2 1.9.8.5 1.8.4 2.7.4.2 0 .4 0 .6-.1v-.1c0-2.9-1-5.3-2.3-5.3zM105.9 94.3c-1.5.3-2.3 2.8-1.8 5.7 1.6-.2 3.9-.5 5.6-1-.6-2.9-2.3-5-3.8-4.7z" class="colord1dcde svgShape"></path><path fill="#fdff3d" d="M81.9 92c-.7-.3-1.5.2-2.3 1.1 0 .2-.1.4-.1.6 0 1.6 1.2 3.1 2.7 3.8 0 0 .1 0 .1.1.9-2.7.8-5.1-.4-5.6zM86.4 93.4c-1.5-.3-3.1 1.7-3.7 4.4 1.3.5 2.8.6 4.3.5.5 0 .9 0 1.4-.1.1-2.5-.7-4.6-2-4.8z" class="colorc1cfd1 svgShape"></path><path fill="#deded1" d="M58.4 99.3c-.7-.1-1.5.6-2.1 1.7 0 1.1.2 2 .9 2.9.7.8 1.7 1.2 2.8 1.3v-.3c.4-2.9-.3-5.4-1.6-5.6zM63.1 99.6c-1.6.1-2.7 2.5-2.6 5.5v.1h1.4c1.4-.1 2.8-.3 4.2-.6-.1-2.9-1.5-5.1-3-5z" class="colord1dcde svgShape"></path><path fill="#ff2020" d="M30.7 71.2c.5 1.1 1.8 1.6 3.1 1.6.3 0 .6 0 1-.1 2.3-3.6 1.3-7.8 1.3-7.8-2 5.5-5.4 6.3-5.4 6.3z" class="colorfb0102 svgShape"></path><path fill="#897a91" d="M33.6 55.6s4-3.6 12.2-3.4c0-.1-10.1 2-12.2 3.4z" class="color7a8591 svgShape"></path><path fill="#ff9a3a" d="M41.8 50c-.5-1.9-2.2-3.2-3.9-2.8-1.7.4-2.7 2.3-2.2 4.2.2.9.7 1.7 1.4 2.2 1.2-.5 2.7-1 4.6-1.2.2-.7.3-1.6.1-2.4z" class="colorb0b4b7 svgShape"></path><circle cx="38.6" cy="50.6" r="2" fill="#592d72" class="color29353f svgShape"></circle><circle cx="38.8" cy="48.6" r=".9" fill="#fffffc" class="colorfffcff svgShape"></circle><path fill="#897a91" d="M33.6 41.5s3.7-9.2 11.2-.8c0 0-6.9-3.9-11.2.8z" class="color7a8591 svgShape"></path><path fill="#b20202" d="M34 70.3c.4-1.3 1.4-1.1 2-.8.5-2.5 0-4.6 0-4.6-1.9 5.5-5.3 6.3-5.3 6.3.1.3.3.6.6.8.6-1.7 2.7-1.7 2.7-1.7z" class="colorb2020b svgShape"></path><path fill="#825c97" d="M123.1 61.7c-.3.3-.4.7-.5 1.1.5-.7 1.6-.6 2.4-.4.8.2 1.7.6 2.5.3-.4.6-.8 1.3-1.3 1.8s-1.2.9-1.9.9c.3.3.8.4 1.3.3-1.1 1.1-3 1.4-4.3.7-1.5-.9-1.3-2.5-.2-3.6.3-.3.6-.6 1-.8.1-.1 1-.2 1-.3z" class="color977a5c svgShape"></path><g fill="#897a91" class="color7a8591 svgShape"><path d="M18.2 62.6c-1.1-1.9-1.2-4.4-.2-6.3.4-.9 1-1.7 1.6-2.4.6-.8 1.2-2.4 1.9-3.5-.9 1.4-1.9 2.7-3.1 3.9-1.5 1.5-3.4 2.9-5.5 2.7-1.8-.2-3.4-1.7-4.1-3.4-.7-1.7-.8-3.6-.7-5.5 0-.7.1-1.3.2-2-.7 1.7-1.1 4.2-.7 6.1h-2c.8.3 1.5.8 2 1.5-.9-.1-1.8.2-2.5.8 1 0 2 .1 2.9.5-1.1.2-2.2 1.1-2.6 2.1 1-.8 2.3-1.1 3.6-.9-1 1.5-1.6 3.2-1.7 4.9.7-1.5 1.9-2.8 3.4-3.5-.3 1.8-.1 3.7.5 5.4.1-1.7.7-3.4 1.7-4.9.1 1.9.3 3.9 1.5 5.4-.1-1.2-.1-2.4.1-3.6.2-1 .7-2.2 1.8-2.4-.2 1.9.5 3.9 1.9 5.1zM22 49.7z" fill="#000000" class="color000000 svgShape"></path></g><path fill="#98bab6" d="M77.4 45.2 55.8 64s-2.9 11.8-15.3 8c0 0 3.9 4.1 11 1 0 0 5.4-2.9 5.8-6.8 0 0 10.9 3.8 18.6-13.7.1.1 1.6-4 1.5-7.3M57.6 87.1s-2.3-7.8-1.3-12.9c.1 0-2.5 4.2 1.3 12.9zM74.6 83.7s2.4-5.4 6.5-7.8c.1-.1-4.7.4-6.5 7.8zM95.2 83.6s6.4-3 8.7-11.6c0 0 .6 8.2-8.7 11.6z" class="color98a7ba svgShape"></path><path fill="#897a91" d="M49.6 34c-.8 0-1.4-.6-2-1.2-2.9-2.6-7.3-2.8-11-1.4 3.9-.8 6.5-.3 6.5-.3 2.9.4 4.6 3.1 4.6 3.1-1.7.3-2.7 2.3-2.7 2.3 2.6-2.5 7.6-2 7.6-2h2.2c-2.8-.4-4.9-.5-5.2-.5z" class="color7a8591 svgShape"></path><path fill="#afc6c3" d="M47.8 52.5c3.8 2.7 2.9 7.3 8 11.5 5.1 4.3 18.7-1.3 21.6-18.8 5.7-35.5-29.6-7.3-29.6-7.3v14.6z" class="colorafbdc6 svgShape"></path><path fill="#98bab6" d="M59 38.4c2.3-2.9 5.1-5.9 8.8-6.7 1-.2 2-.2 3 .1 2.4.8 3.6 3.5 3.8 6 .5 5.4-2.1 10.6-5 15.3-1.2 2-2.6 4-4.5 5.4-1.9 1.4-4.5 2.1-6.7 1.1-2.4-1.1-3.7-3.7-4.4-6.3-.4-1.5-.8-3.1-1.3-4.6-.6-1.6-1.8-2.4-.3-3.5 2.6-1.9 4.5-4.2 6.6-6.8zM4.1 27.5c0-.5.1-.9.3-1.3.2-.4.6-.8.9-1.2.2-.3.4-.8.6-1.1.2-.3.6-.6 1.1-.5.3.1.5.3.6.6.1.3.1.6.2.9 0 .3 0 .7-.2.9-.3.4-.9.3-1.3.5-.3.3-.4.7-.3 1.1 0 .4.2.8.2 1.1 0 .4-.1.8-.4 1-.4.2-.9.1-1.3-.2-.7-.4-.5-1.1-.4-1.8z" class="color98a7ba svgShape"></path><path fill="#897a91" d="M26.3 64.9c0-.9.4-1.8 1.1-2.4.5-.4 1.1-.6 1.8-.6 1.1-.1 2.2.3 3 1 .6.6 1 1.5 1.1 2.4.1.9-.1 1.8-.5 2.6 1.2-.9 2.2-2 2.8-3.3-.1.6-.3 1.3-.7 1.8-.4.7-1 1.2-1.5 1.7-.4.3-.7.7-1.1 1-.8.7-1.6 1.5-2.6 1.8h-.3c-.1 0-.1-.1-.2-.1-.7-.9-.9-2.1-1.6-3-.3-.4-.7-.5-.9-1-.2-.5-.4-1.2-.4-1.9z" class="color7a8591 svgShape"></path><path fill="#f7f7f5" d="M32.3 66.2c-.1 5.2-5.9 14.9-17.3 16.6 0 0 11.3-8.7 11.9-17.5.2-3.5 5.5-2.1 5.4.9z" class="colorf5f6f7 svgShape"></path><path fill="#e0e0de" d="M27.4 63.9c1.2.4 2.4 1.4 2.4 2.8-.1 4.8-5.1 13.4-14.8 16.1 11.4-1.7 17.2-11.4 17.3-16.6.1-2.5-3.5-3.9-4.9-2.3z" class="colordedfe0 svgShape"></path></svg>