<svg xmlns="http://www.w3.org/2000/svg" viewBox="0 0 128 128" id="Fox"><path fill="#ff2020" d="M51.6 95.7c-1 1.3-2.2 2.6-3.3 3.9-.8.8-1.6 1.6-1.9 2.7-.4 1.7.7 3.3 1.7 4.7l1.8 2.4c.6.8 1.3 1.7 2.2 2.2.5.2 1.1.4 1.6.6 2.1.8 3.4 3.4 2.7 5.5-2.5.8-5.4.6-7.7-.6-.2-.1-.4-.2-.5-.3-.2-.2-.3-.5-.4-.8-.6-2-1.2-4-2.5-5.6-1.3-1.7-3.3-2.8-5.1-4-.7-.5-1.5-1-1.8-1.8-.2-.4-.3-.9-.3-1.4-.1-2.2.5-4.3 1.1-6.4.2-.7.4-1.4.9-2 .4-.6.9-1 1.5-1.4 1.9-1.2 4.1-1.7 6.3-1.7 1.1 0 2.2.1 3.3.2.6 0 1.9-.1 2 .7.3.8-1.1 2.4-1.6 3.1z" class="colorbf7127 svgShape"></path><path fill="#1483c5" d="M38.5 104.4c.4.8 1.1 1.4 1.8 1.8 1.8 1.2 3.7 2.3 5.1 4 1.3 1.6 1.8 3.7 2.5 5.6.1.3.2.6.4.8.1.1.3.2.5.3 2.4 1.2 5.2 1.4 7.7.6.3-1.1.2-2.3-.4-3.3-.2.6-.5 1.2-1 1.7-1.2 1.3-6-.7-6-.7-.6-.4-2.1-5.4-2.5-6.4-.4-1-3-3.7-5.6-5.5-1.4-.9-2.1-2.6-2.5-4-.3 1.2-.4 2.4-.3 3.6 0 .6.1 1.1.3 1.5z" class="colora8621c svgShape"></path><path fill="#ff9a3a" d="m86.1 47-4.6-16.6s-5.2 8.8-1.7 16.2c3.5 7.5-2.1 14.8-5.4 16-3.3 1.2-4.8 3.3-14.4 5.1-8.1 1.5-26.4-1.2-31.7 9.2-5.3 10.3-1.5 21.8 0 24.4 1.5 2.6-2.7 5.2-2.7 5.2-1.3.6-1.9 2.3-1.7 3.8.1 1.4.8 2.7 1.5 4 .8 1.4 1.6 2.9 2.3 4.3 1.4 3.7 5.6 5.1 5.6 5.1s6.8 0 7.1-2.3c.4-2.3-1.5-2.8-1.5-2.8-.1-.1-.2-.2-.3-.2-.8-.4-1.6-.6-2.4-1.1-1.1-.6-1.9-1.6-2.7-2.6-.5-.6-.9-1.1-1.4-1.7-.5-.6-1-1.2-1.1-2-.2-1 .2-2 .8-2.7.6-.8 1.5-1.3 2.3-1.9 3.8-2.7 7.3-6 9.7-10 .3-.4.6-.8 1.1-.9.5-.1 1 0 1.4.2 7.2 1.7 21.8 3.2 28.1 1.8 4.8-1.1 8.5-3.6 12.4-6.6 4.4-3.4 6.8-9 7.1-14.5.2-3.7.2-7.6.8-11.3.3-1.4.7-2.7 1.3-4 1.5-3.1 4.1-5.6 6.6-8-5.8-.8-11.4-3.2-16.5-6.1z" class="colorf19834 svgShape"></path><path fill="#cd792a" d="M67.8 84.6s-13.9 8.2-19.4 2l-.9 2.6 1.9 3.8 20.4-.9-2-7.5z" class="colorcd702a svgShape"></path><path fill="#ff9a3a" d="M84.4 27.2s-9.4 4.6-8.9 14.6l2-2.6s-1.1 2-.7 4.2c.4 2.2-.1 7.7-1.3 8.6 0 0 2.4-1 2.9-2.2 0 0 1.6 7.2-2.9 10.3l4.5-1.7 6.3-14.8-1.9-16.4z" class="colorf19834 svgShape"></path><path fill="#ff2020" d="M86.8 83.9s.6 11.1-.8 15.8c-1.5 4.8-1.5 10.8-.4 11.9 1.1 1.1 6 1.2 6.4 4.9 0 0-3.9 3.4-7.5 2.8-3.6-.6-3.8-5.9-3.8-5.9S77.2 103 77 99.5c-.1-3.5-8.1-13.2-8.1-13.2l17.9-2.4z" class="colorbf7127 svgShape"></path><path fill="#1483c5" d="M84.4 119.4c3.6.6 7.5-2.8 7.5-2.8-.1-1.1-.6-1.9-1.4-2.5.1 1.4-5.3 3.4-6.4 2.8-1.1-.6-1.5-3.4-1.5-3.4s-2-7-2.7-9.3c-.7-2.3-3.6-11.4-3.6-11.4l-3.7-1.3c2.1 2.9 4.2 6.3 4.3 8.1.1 3.5 3.7 13.9 3.7 13.9s.2 5.3 3.8 5.9z" class="colora8621c svgShape"></path><g fill="#fdff3d" class="colorf9e4c5 svgShape"><path d="M82.5 75.9c0-.2 0-.4-.1-.7.1.3.1.5.1.7z" fill="#000000" class="color000000 svgShape"></path><path d="M88.2 61.9c-1 3.5-2.2 7.1-1.4 10.6-.8-.8-1.3-1.9-1.5-3-.1 1.5-.7 3-1 4.5-.3 1.5-.4 3.2.4 4.5-1.1-.4-1.9-1.3-2.1-2.4.2 3.7-1.6 7.4-4.3 10-2.9 2.7-6.8 4.3-10.7 4.9-3.9.7-7.9.5-11.9.3-2.8-.2-5.8-.5-8.1-2L44.2 96c.2-.2.5-.4.8-.5.5-.1 1 0 1.4.2 7.2 1.7 21.8 3.2 28.1 1.8 4.8-1.1 8.5-3.6 12.4-6.6 4.4-3.4 6.8-9 7.1-14.5.2-3.7.2-7.6.8-11.3.3-1.4.7-2.7 1.3-4 1.5-3.1 4.1-5.6 6.6-8-1.7-.2-3.3-.5-4.9-1l-9.1-.8c1.3 3.3.5 7.1-.5 10.6z" fill="#000000" class="color000000 svgShape"></path></g><path fill="#ffffeb" d="M122 34.3c-2.8.9-7.8 1.5-11.4-3.1-4.4-5.6-8.4-7-9.7-6.8l3-.9s-5.8-3.9-12.7.1c-6.8 4-8.6 1.8-10.7 7-2.1 5.2-2.6 14 2 18.4 0 0-2.2.6-2.8-.2 0 0 3.9 7.2 10.3 5l-2 1.3s9.5 4.1 15.5-.6c6-4.7 12.1-1.7 16.9-4.5 3.3-2 1.2-3.6 1.2-3.6s3.4-1.1 4.6-3.5c2.2-4.1 1.9-10.7-4.2-8.6z" class="colorfff6eb svgShape"></path><path fill="#e88c34" d="M97.5 6.2s-9.1 15.5-8.9 20.1c.2 4.6 6.2-1.4 6.2-1.4l4.2-8.2-1.5-10.5z" class="colore88e34 svgShape"></path><path fill="#c97424" d="M100.9 24.4s.1-11.8-3.4-18.2c0 0-1.7 15.7-2.7 18.7l6.1-.5z" class="colorc97624 svgShape"></path><path fill="#ff9a3a" d="M80.6 30.7c1.2-3.1 2.4-3.6 4.5-4.3.6-1.3 1.6-2.6 3.5-3.4 4.6-1.9 6.2-4.7 6.2-4.7.7 1.5.3 3-.3 4 5.4-1.5 9.5 1.2 9.5 1.2l-3 .9c1.2-.2 5.3 1.2 9.7 6.8 3.6 4.6 8.6 4 11.4 3.1.5-.2 1-.3 1.5-.3l-.1 1.1c-.9.8-1.8 1.6-2.8 2.4-1.1.9-2.2 1.9-3.4 2.6-4.2 2.5-9.5 2.5-14.4 2.3-.9 0-1.8-.1-2.7-.1-5.3 0-10.5 1.7-14.8 4.7l-2.7 2.1c-4.7-4.4-4.2-13.2-2.1-18.4z" class="colorf19834 svgShape"></path><path fill="#592d72" d="m121 34.6.9-.3c4.6-1.5 5.9 1.7 5.5 5.2-2.9 2.4-6.4-4.9-6.4-4.9z" class="color5f261d svgShape"></path><path fill="#fdff3d" d="M82.5 49.1h.4c.7-.1 1.2-.4 1.8-.7 2.4-1.2 5.3-1.2 7.6 0 1 .5 1.9 1.2 2.9 1.6 1.7.5 3.5.1 5.2-.3-.9 1-2.1 1.8-3.4 2.1 2 .8 4.3-.3 6.1-1.6 1.8-1.3 3.6-2.9 5.8-3.1 2.1-.2 4.2 1 6.4.8.6-.1 1.3-.6 1-1.1-1.2-.5-2.4-1.1-3.6-1.6-.2-.1-.4-.2-.5-.3-.2-.3 0-.8.3-1 .3-.2.7-.3 1.1-.3-.3.3.2.9.6 1 2.6 1 5.5 1 8.1 0 1.9-.7 3.5-1.9 4.8-3.4-.2.6-.4 1.3-.7 1.9-1.2 2.4-4.6 3.5-4.6 3.5s2.1 1.7-1.2 3.6c-4.8 2.8-10.9-.2-16.9 4.5-6 4.7-15.5.6-15.5.6l2-1.3c-6.4 2.2-10.3-5-10.3-5 .4.6 2.2.2 2.6.1z" class="colorf9e4c5 svgShape"></path><path fill="#ff9a3a" d="M89.6 32.3s6.6-5.5-1.9-16.1C79.2 5.7 77.1 4.3 77.1 4.3s-.4 13.1-.4 17.2 3.1 11.5 8.3 13l4.6-2.2z" class="colorf19834 svgShape"></path><path fill="#c97424" d="M87.8 31.1s-1.8 2.4-5.4-4.7C78.8 19.2 80.5 10 80.5 10s7.3 7.1 8.8 11.2c1.6 4.2 1.5 7.4-1.5 9.9z" class="colorc97624 svgShape"></path><path fill="#aa8e74" d="M121.7 46.5s-5.8.3-9.3-2.2c0 0 1.5 2.2 8.7 3.2 0 0 1.4.3.9 1.3 0 0 .9-1-.3-2.3z" class="coloraa9174 svgShape"></path><path fill="#c97424" d="M90.3 20.1s2.7 5.4 1.9 8.1c0 0 .7-.6 2 .4 0 0-1.9.1-3.3 1.9.1 0 2-4.5-.6-10.4z" class="colorc97624 svgShape"></path><path fill="#cd792a" d="M39.9 119.2c.3 1.3-2.8 1.6-5.3 2.1-2.6.5-5.2-2.7-5.2-2.7-1.5-2.3-2.6-5.3-3.6-7.5-1.5-3.5 2.5-4.4 2.5-4.4s4.4-.8.1-10.8c-4.2-10 1.3-21.2 1.4-21.2-.6.6-1.1 1.4-1.5 2.1-5.3 10.3-1.5 21.8 0 24.4 1.5 2.6-2.7 5.2-2.7 5.2-1.3.6-1.9 2.3-1.7 3.8.1 1.4.8 2.7 1.5 4 .3.6.7 1.2 1 1.9.4.8.9 1.6 1.3 2.5 1.4 3.7 5.6 5.1 5.6 5.1s6.8 0 7.1-2.3c.2-1.1-.1-1.8-.5-2.2z" class="colorcd702a svgShape"></path><path fill="#ff9a3a" d="M85 88.1s-3.8 10.4-7 14.2c-3.2 3.8-5.7 9.3-5.1 10.7.6 1.5 5 3.4 3.9 7.1 0 0-4.9 1.6-8-.4-3.1-2-1.1-6.9-1.1-6.9s.9-11 2.1-14.2c1.3-3.2-2.3-15.3-2.3-15.3L85 88.1z" class="colorf19834 svgShape"></path><path fill="#cd792a" d="M68.8 119.7c3.1 2 8 .4 8 .4.3-1 .2-1.9-.2-2.7-.5 1.4-6.4.8-7.2 0-.8-.8 0-4.3 0-4.3s.6-8 1.9-13.2c1.2-5.1-2.8-12.9-2.8-12.9.9 3.8 2.1 9.6 1.3 11.6-1.3 3.2-2.1 14.2-2.1 14.2s-2 5 1.1 6.9z" class="colorcd702a svgShape"></path><path fill="#ff9a3a" d="m77.9 93 7.1-4.9s1.3-14.4-6-14.8c-7.2-.3-4.7 18.2-4.7 18.2l3.6 1.5z" class="colorf19834 svgShape"></path><path fill="#4c126d" d="M34.7 119.2c2.5.6 2.8 3 2.8 4 .3-.1.7-.2 1-.3-.3-3.9-3.8-3.7-3.8-3.7zM53.9 118.1c.4 0 .8-.1 1.2-.1-.5-3.2-3-3.5-3-3.5 2 .6 2 2.7 1.8 3.6zM75.2 120.5c-.2-3.7-2.8-4-2.8-4 2.1.7 2 3.1 1.8 4.2.3-.1.7-.1 1-.2zM85.5 114.8c3.1-.6 3.9 2 4.1 3.3.4-.2.7-.4 1-.6-1.8-4.7-5.1-2.7-5.1-2.7z" class="color6d3d12 svgShape"></path><path fill="#e08127" d="M110.1 40.2s-6.5-1.9-14.8 2.2l2.6-2.8c-1.8-1.7-3.4-9 2-10.7 5.3-1.6 7.6 5 6.1 9.9 0-.1 2.4.1 4.1 1.4z" class="colore08327 svgShape"></path><path fill="#ffffff" d="M99.8 40c-1-.9-1.7-2.3-1.9-4.1-.2-2.9 1.3-5.4 3.4-5.6 2.1-.2 4 2 4.3 5 .1 1.5.2 3.1-.5 4.1-1.3-.1-3.5-.2-5.3.6z" class="colorffffff svgShape"></path><path fill="#14c5af" d="M101 39.5c-.4-.6-.7-1.3-.7-2.1-.2-2 .9-3.7 2.4-3.8 1.5-.1 2.8 1.4 3 3.4.1.9-.1 1.8-.5 2.5-1.1-.3-2.6-.4-4.2 0z" class="color51b6ae svgShape"></path><ellipse cx="103.9" cy="37.1" fill="#221f23" rx="1.5" ry="2" transform="rotate(175.422 103.864 37.122) scale(.99999)" class="color231f20 svgShape"></ellipse><circle cx="102.7" cy="36.7" r="1.1" fill="#ffffff" class="colorffffff svgShape"></circle><path fill="#3b005d" d="M106.9 39.8s-4.7-2.1-9.3 1.5c.1-.1 4.4-1.7 9.3-1.5z" class="color5d0000 svgShape"></path><path fill="none" d="m2.9 55.2.3-.3v-.1l-.3.4z"></path><path fill="#ff9a3a" d="m.5 57.7 2.3-2.5c-.7.8-1.5 1.7-2.3 2.5z" class="colorf19834 svgShape"></path><path fill="#ff9a3a" d="m41.4 45.6.4 4.7s-4.7-15.6-16.4-15.4l2.5 2.9S19.1 31 4.6 42.5l4.1-.2S-.1 45 .6 57.6c.7-.9 1.5-1.7 2.3-2.5l.4-.4v.1c1.5-1.5 3.2-2.8 4.9-4.1-1.2 2-1.7 4.3-1.5 6.5 1.2-2.6 3.5-4.6 6.3-5.2-1.6 2.4-2.2 5.5-1.8 8.4 2.2-2.1 5.2-3.5 8.3-3.7 3.1-.3 6.3.6 8.8 2.3-4.4-1-9.4 1-11.8 4.8 1.4-.9 2.9-1.4 4.5-1.7-1 .5-1.5 1.8-1.4 2.9 0 .3.1.6.1.8l.9 2.9s4.8-7.9 9.6-2c4.3 5.2-4.1 10.6 2.5 12.2 6.6 1.6 6.8-8.8 6.8-8.8s9.2-9.6 1.9-24.5z" class="colorf19834 svgShape"></path><path fill="#fdff3d" d="M17 59.2c-1.6 1.4-2.3 3.7-2.3 5.8 0 2.1.6 4.3 1.1 6.3-.5-1.1-1.4-2-2.5-2.6.1 2.5-.3 5.3-2 7.1-.8.8-1.7 1.4-2.7 2 .2 3.2-.4 6.2-3.1 7.4 0 0 12.4-.2 12-12.4l1.4 2.5s2-6.6.7-9.5l.1.1c-.1-.3-.1-.6-.1-.8-.1-1.1.4-2.4 1.4-2.9-1.6.3-3.1.8-4.5 1.7 2.5-3.8 7.4-5.8 11.8-4.8-2.6-1.7-5.7-2.5-8.8-2.3-2.1.2-4.1.8-5.9 1.9-.9 1.2-1.6 2.6-1.8 4.2 1.2-2 3.1-3.3 5.2-3.7z" class="colorf9e4c5 svgShape"></path><path fill="#ffffeb" d="M12.9 52c-2.7.7-5.1 2.7-6.3 5.2-.1-2.2.4-4.5 1.5-6.4-1.7 1.2-3.4 2.6-4.9 4.1-.2.6-2.3 7.4.5 16.4L6 67.7s2.3 5.2 2.6 10.1c1-.5 2-1.1 2.7-2 1.7-1.9 2.1-4.6 2-7.1 1.1.6 1.9 1.5 2.5 2.6-.6-2.1-1.2-4.2-1.1-6.3 0-2.1.7-4.4 2.3-5.8-2.1.4-4 1.7-5.2 3.4.2-1.5.9-2.9 1.8-4.2-.9.5-1.7 1.1-2.4 1.8-.5-2.8.2-5.8 1.7-8.2z" class="colorfff6eb svgShape"></path></svg>