<svg xmlns="http://www.w3.org/2000/svg" viewBox="0 0 128 128" id="Frog"><path fill="#ff9a3a" d="m112 114.1 1.7-1.8c3.3-6.3-26.5-2-26.5-2 29.5-11.7 42.3-36 27.1-41.4C99 63.6 83.2 87.7 83.2 87.7c0-9.4-5-16.2-5-16.2L64 69.7l-14.2 1.8s-5 6.9-5 16.2c0 0-15.8-24.1-31.1-18.8-15.2 5.3-2.5 29.7 27.1 41.4 0 0-29.8-4.3-26.5 2l1.7 1.8s-4.9 2.3-2.4 4.8c2.4 2.5 4.1 1.8 4.1 1.8s-3.3 5.8 4.1 5.6c7.4-.3 30-10.4 34.4-9.9 4.4.5 0-4.3 0-4.3l8 1.8 8-1.8s-4.4 4.8 0 4.3 27 9.6 34.4 9.9c7.4.3 4.1-5.6 4.1-5.6s1.6.8 4.1-1.8c2.1-2.5-2.8-4.8-2.8-4.8z" class="color2ba81a svgShape"></path><path fill="#ff2020" d="M90.4 116.2s16.3 2.3 20 4.6c0 0-13.1-5.4-22.5-6.2v-1.4s17.6-.3 24.1 1c0 0-12.9-2.6-25.6-1.8l-2 7.4s21.1 7.6 24.6 5.6c0 0-16.8-3.2-20.7-7.1l2.1-2.1z" class="color138706 svgShape"></path><path fill="#1483c5" d="M86.1 85.6s16.8-20.1 27.3-14.2c0 0-12.8-.3-25.8 22.2l-1.5-8z" class="color48d339 svgShape"></path><path fill="#ff2020" d="M86.1 99.9s19.4-6.6 24.2-21.5c0 0-2.3 14.2-24.2 25.4v-3.9zM37.6 116.2s-16.3 2.3-20 4.6c0 0 13.1-5.4 22.5-6.2v-1.4s-17.6-.3-24.1 1c0 0 12.9-2.6 25.6-1.8l2 7.4s-21.1 7.6-24.6 5.6c0 0 16.8-3.2 20.7-7.1l-2.1-2.1z" class="color138706 svgShape"></path><path fill="#1483c5" d="M41.9 85.6S25.1 65.5 14.6 71.4c0 0 12.8-.3 25.8 22.2l1.5-8z" class="color48d339 svgShape"></path><path fill="#ff2020" d="M41.9 99.9s-19.4-6.6-24.2-21.5c0 0 2.3 14.2 24.2 25.4v-3.9z" class="color138706 svgShape"></path><path fill="#fdff3d" d="M80.6 100.9c0-12.4-7.4-22.4-16.6-22.4-9.2 0-16.6 10-16.6 22.4 0 6.3 1.9 12 5 16.1 1.6-.4 2.9-.6 3.6-.6 4.4.5 0-4.3 0-4.3l8 1.8 8-1.8s-4.4 4.8 0 4.3c.7-.1 2 .1 3.6.6 3.1-4.1 5-9.8 5-16.1z" class="colore8fe77 svgShape"></path><path fill="#feff9c" d="M75.6 117c2.3-3 3.9-6.8 4.6-11.1-1.7-10-8.3-17.4-16.2-17.4-7.9 0-14.5 7.4-16.2 17.4.7 4.3 2.4 8.1 4.6 11.1 1.6-.4 2.9-.6 3.6-.6 4.4.5 0-4.3 0-4.3l8 1.8 8-1.8s-4.4 4.8 0 4.3c.7-.1 2 .1 3.6.6z" class="colorf3ff9c svgShape"></path><path fill="#2ac1ae" d="M46.9 69.6s-16.6 20.6-6.1 40.7c-1.6.6-3.2 1.1-4.6 2-.9.5-1.7 1.1-2.3 1.9-.6.8-1 1.7-1.3 2.7-.3 1-.4 2 0 2.9.4.9 1.4 1.6 2.4 1.4 1.6-.4 1.9-2.7 3.4-3.3l-.3 2.1c-.2 1.4-.4 2.8 0 4.1.4 1.3 1.7 2.4 3.1 2.2 1-.2 1.7-1 2.1-1.9.4-.9.6-1.9.9-2.9.1-.3.4-.7.7-.6.2.1.3.3.4.6.4 1.4.7 2.8 1.3 4.1.3.6.6 1.2 1.2 1.5.4.2.8.3 1.2.4.9.2 2 .2 2.7-.4.7-.6.9-1.8.7-2.7-.1-1-.5-1.9-.5-2.9s.4-2.1 1.4-2.4c.7-.2 1.5.1 2.2.6.6.5 1.1 1.1 1.8 1.5.7.5 1.5.7 2.4.7.5 0 1-.1 1.4-.3.7-.4 1-1.3 1-2.1.1-1.4-.4-2.8-1.3-3.8-1.9-2-5.2-2-7-4 0 0-15.6-20.4 2.4-39l-9.3-3.1zM81.1 69.6s16.6 20.6 6.1 40.7c1.6.6 3.2 1.1 4.6 2 .9.5 1.7 1.1 2.3 1.9.6.8 1 1.7 1.3 2.7.3 1 .4 2 0 2.9-.4.9-1.4 1.6-2.4 1.4-1.6-.4-1.9-2.7-3.4-3.3l.3 2.1c.2 1.4.4 2.8 0 4.1-.4 1.3-1.7 2.4-3.1 2.2-1-.2-1.7-1-2.1-1.9-.4-.9-.6-1.9-.9-2.9-.1-.3-.4-.7-.7-.6-.2.1-.3.3-.4.6-.4 1.4-.7 2.8-1.3 4.1-.3.6-.6 1.2-1.2 1.5-.4.2-.8.3-1.2.4-.9.2-2 .2-2.7-.4-.7-.6-.9-1.8-.7-2.7.1-1 .5-1.9.5-2.9s-.4-2.1-1.4-2.4c-.7-.2-1.5.1-2.2.6-.6.5-1.1 1.1-1.8 1.5-.7.5-1.5.7-2.4.7-.5 0-1-.1-1.4-.3-.7-.4-1-1.3-1-2.1-.1-1.4.4-2.8 1.3-3.8 1.9-2 5.2-2 7-4 0 0 15.6-20.4-2.4-39l9.3-3.1z" class="color36c12a svgShape"></path><path fill="#36ccb9" d="M93.6 27.7c-.8-5-11-11.9-11-11.9L71.7 18c-2.5-4.5-8.5-7.1-14.9-5.8-6.4 1.3-11 5.9-11.5 11.1l-10.9 2.2s-6.8 10.2-5.6 15.2c0 0-15.7 5.3-3.8 20.7 4.6 6 18.8 17.1 44.1 12 25.3-5.1 34.1-20.8 36.1-28.1 4.9-18.7-11.6-17.6-11.6-17.6z" class="color44cc36 svgShape"></path><circle cx="90.4" cy="43.1" r="7.3" fill="#68089e" class="color159e08 svgShape"></circle><circle cx="37.6" cy="53.6" r="7.3" fill="#68089e" class="color159e08 svgShape"></circle><circle cx="40.6" cy="23" r="15.4" fill="#36ccb9" class="color44cc36 svgShape"></circle><circle cx="40.6" cy="23" r="13" fill="#fffffa" class="colorfbfaff svgShape"></circle><circle cx="40.6" cy="23" r="7.4" fill="#592d72" class="color07040f svgShape"></circle><circle cx="38" cy="20.6" r="2.8" fill="#ffffff" class="colorffffff svgShape"></circle><circle cx="75.8" cy="15.9" r="15.4" fill="#36ccb9" class="color44cc36 svgShape"></circle><circle cx="75.8" cy="15.9" r="13" fill="#fffffa" class="colorfbfaff svgShape"></circle><circle cx="75.8" cy="15.9" r="7.4" fill="#592d72" class="color07040f svgShape"></circle><circle cx="73.3" cy="13.6" r="2.8" fill="#ffffff" class="colorffffff svgShape"></circle><path fill="#3f0660" d="M95.3 44.1s-3.7-8.1-10.8-2.9c0 0 2.3-1 5.4-.3 1.7 10.1-8.5 20.6-23 23.5-14.4 2.9-27.7-2.8-30.2-12.6 2.5-1.7 4.8-1.6 4.8-1.6-8.5-2.1-8.8 6.8-8.8 6.8.7-1.8 1.6-3.1 2.6-4 3.2 10.2 17.1 16 32 13 15-3 25.6-13.8 24.5-24.5 1.1.6 2.3 1.4 3.5 2.6z" class="color116006 svgShape"></path><path fill="#14c5af" d="M86.1 50.3s-15.1 21.1-41.3 9c0 .1 21.7 5.8 41.3-9z" class="color57e048 svgShape"></path><ellipse cx="66.6" cy="38.7" fill="#ff9a3a" rx="3.2" ry="1.8" transform="rotate(22.392 66.588 38.701)" class="color2ba81a svgShape"></ellipse><ellipse cx="56.9" cy="40" fill="#ff9a3a" rx="3.2" ry="1.8" transform="rotate(135.292 56.943 40.047)" class="color2ba81a svgShape"></ellipse><g fill="#61138e" class="color258e13 svgShape"><path d="M16 81.9c0-3.6-3.1-6.6-6.8-6.6-.6 0-1.1.1-1.6.2-.7 3.5.5 8 3.6 12.7 2.7-.8 4.8-3.3 4.8-6.3z" fill="#000000" class="color000000 svgShape"></path><circle cx="16.9" cy="89.4" r="2.3" fill="#000000" class="color000000 svgShape"></circle><circle cx="21.1" cy="94.5" r="1.9" fill="#000000" class="color000000 svgShape"></circle><circle cx="15.2" cy="74.2" r="1.7" fill="#000000" class="color000000 svgShape"></circle><circle cx="20.2" cy="76.3" r="1" fill="#000000" class="color000000 svgShape"></circle></g><g fill="#61138e" class="color258e13 svgShape"><path d="M112 81.9c0-3.6 3.1-6.6 6.8-6.6.6 0 1.1.1 1.6.2.7 3.5-.5 8-3.6 12.7-2.7-.8-4.8-3.3-4.8-6.3z" fill="#000000" class="color000000 svgShape"></path><circle cx="111.1" cy="89.4" r="2.3" fill="#000000" class="color000000 svgShape"></circle><circle cx="106.9" cy="94.5" r="1.9" fill="#000000" class="color000000 svgShape"></circle><circle cx="112.8" cy="74.2" r="1.7" fill="#000000" class="color000000 svgShape"></circle><circle cx="107.8" cy="76.3" r="1" fill="#000000" class="color000000 svgShape"></circle></g><g fill="#1eaf9d" class="color2daf1e svgShape"><path d="M40.3 93.6c2.2 0 4-1.8 4-4s-1.8-4-4-4c-.5 0-1 .1-1.5.3-.6 2.1-1.1 4.4-1.3 6.7.8.6 1.7 1 2.8 1z" fill="#000000" class="color000000 svgShape"></path><circle cx="40.5" cy="97.5" r="2" fill="#000000" class="color000000 svgShape"></circle><circle cx="41.5" cy="103.9" r="2.1" fill="#000000" class="color000000 svgShape"></circle><circle cx="42.9" cy="82.4" r="1.4" fill="#000000" class="color000000 svgShape"></circle></g><g fill="#1eaf9d" class="color2daf1e svgShape"><path d="M87.7 93.6c-2.2 0-4-1.8-4-4s1.8-4 4-4c.5 0 1 .1 1.5.3.6 2.1 1.1 4.4 1.3 6.7-.8.6-1.7 1-2.8 1z" fill="#000000" class="color000000 svgShape"></path><circle cx="87.5" cy="97.5" r="2" fill="#000000" class="color000000 svgShape"></circle><circle cx="86.5" cy="103.9" r="2.1" fill="#000000" class="color000000 svgShape"></circle><circle cx="85.1" cy="82.4" r="1.4" fill="#000000" class="color000000 svgShape"></circle></g></svg>