<svg xmlns="http://www.w3.org/2000/svg" viewBox="0 0 128 128" id="Giraffe"><path fill="#ff9a3a" d="M26.7 7.4c-.1 0-.2 0-.2.1 0 0 0 .1-.1.2-.1 1 .6 1.9.9 2.9.2.6.4 1.3.6 1.9.6 1.5 2 2.5 3.5 3s3.1.6 4.7.6c.1 0 .8-1.4.9-1.6.2-.4.6-.8.7-1.3.2-1-.9-1.7-1.6-2.2-1.7-1.3-3.6-2.4-5.7-3-1.3-.5-2.5-.7-3.7-.6z" class="colorddad43 svgShape"></path><path fill="#ff9a3a" d="M37.3 3.7s1.6 4 0 8.8l3.4-.8s-2.4-5.3-1.7-8h-1.7z" class="colorddad43 svgShape"></path><circle cx="37.9" cy="2.9" r="2.4" fill="#ff9a3a" class="colorddad43 svgShape"></circle><path fill="#ff2020" d="M34.6 15.3s-.2-3.3 3.7-6.7c3-2.6 13.9-3.5 15.6 8.1 1.9 13.6 5.4 32.8 5.4 32.8L34.6 15.3z" class="colorc07b3a svgShape"></path><path fill="#fdff3d" d="M100 70.9s8.4 1.3 10.3 12.7H109s-1-8.8-8.8-10.3l-.2-2.4z" class="colorffd463 svgShape"></path><path fill="#1483c5" d="M94.7 94.9c-.1-2.6-2.9-4.6-2.1-7 0 0 0-1.6.4-4l-32.7-4.3c.2.2-1.3 1.5-1.5 1.6-1.2.6.3 5.6.3 5.6.9 3.4-1.7 9.4 0 12.5.3.6.7 1.1.9 1.7.3 1.1-.1 2.2-.1 3.3.1 1.3.3 2.6.2 3.9 0 1.6-.7 2.9-.9 4.5-.1.9.1 1.8-.1 2.7v.2c2.2 2.6 5.8 1.1 5.8 1.1 0-.4-.5-.7-.5-1.1 0-.7.9-2.6.7-3.3-1.4-3.9-1.2-5.3-.9-8.4.1-.9.2-1.9.6-2.7.3-.7.8-1.4 1.1-2.1.6-1.7 0-3.6-.3-5.4-.3-1.8-.2-3.6.2-5.3 5-.1 11.4-.5 16.4-1.3 2.7 1 4.6 3.7 4.6 6.6 0 1.2-.3 2.4 0 3.6.4 1.8 2 3.1 2.3 4.9.1.7.1 1.4 0 2.1-.3 3.5 2.3 5.4-.1 9.9-.4.7 0 1.8-.3 2.5 1.9 1.9 4.9.3 4.9.3v-.7c.1-.6.4-1.2.3-1.8 0-.6-.3-1.1-.5-1.6-.9-2.4 0-5 .2-7.5.1-2.2-.3-4.5.3-6.7.1-1.4.8-2.6.8-3.8z" class="coloreab64e svgShape"></path><path fill="#f9aa5f" d="M101.6 122.3v-.7c.1-.6.4-1.2.3-1.8 0-.6-.3-1.1-.5-1.6-.9-2.4 0-5 .2-7.5.1-2.2-.3-4.5.3-6.7.3-1.2 1-2.4 1-3.7-.1-2.6-2.9-4.6-2.1-7 0 0 0-4.2 1.9-9.7 1.9-5.5-.4-18.4-12.5-17.3-12.2 1.1-19.4-3.4-19.4-3.4-14.4-9.9-19-41-19-41-.6-.6-2.2-.8-2.7-.2-.5.6-.8 1.4-1.2 2.2-.5.9-1.3 1.6-2.1 2.3-2.8 2.2-6 3.8-9.5 4.7 2.6.4 4.9 2.2 6.5 4.4 1.6 2.2 2.5 4.7 3.4 7.2.6 1.6 1.9 3.1 2.3 4.8 1.6 6.9 3.1 13.8 4.7 20.8 1 4.6 2.1 9.2 4.2 13.3 1.6 3.2 3.8 6 6.3 8.6 1.3 1.3 2.4 2.2 2.4 2.2.9 3.4-.6 9.5 1.1 12.6.3.6.7 1.1.9 1.7.3 1.1-.1 2.2-.1 3.3.1 1.3.3 2.6.2 3.9 0 1.6-.7 2.9-.9 4.5-.1.9.1 1.8-.1 2.7v.2c2.2 2.6 5.8 1.1 5.8 1.1 0-.4-.5-.7-.5-1.1 0-.7.9-2.6.7-3.3-1.4-3.9-1.2-5.3-.9-8.4.1-.9.2-1.9.6-2.7.3-.7.8-1.4 1.1-2.1.6-1.7 0-3.6-.3-5.4-.3-1.8-.2-3.6.2-5.3 5-.1 11.4-.5 16.4-1.3 2.7 1 4.6 3.7 4.6 6.6 0 1.2-.3 2.4 0 3.6.4 1.8 2 3.1 2.3 4.9.1.7.1 1.4 0 2.1-.3 3.5 2.3 5.4-.1 9.9-.4.7 0 1.8-.3 2.5 1.7 1.7 4.8.1 4.8.1z" class="colorf9c95f svgShape"></path><path fill="#fdff3d" d="M45.1 4.2s.2 4.3-3 8.3l3.4.4s-.5-5.8 1.1-8.1l-1.5-.6z" class="colorffd463 svgShape"></path><path fill="#ff9a3a" d="M15.7 33.4s-1.9-2.9-.4-4.5c1.6-1.6 3.7 0 3.7 0l-3.3 4.5z" class="colorddad43 svgShape"></path><path fill="#fdff3d" d="M51.6 23.8c-.6 4-3.5 7.5-7.3 8.9-2.4.9-5 1-7.1 2.4-2.4 1.5-3.6 4.4-5.9 6-2.3 1.6-5.5 1.8-7.9.4-.6-.3-1.1-.8-1.8-1-.6-.3-1.3-.3-2-.5-3.4-.9-5.2-5.3-3.9-8.6 1.2-3.3 4.7-5.5 8.3-5.8 1.1-.1 5.2.1 8-5.1 1.3-2.4 2.1-5.1 3.7-7.2 2.4-3.1 8.3-3.1 11.3-1 3.4 2.3 5.2 7.7 4.6 11.5z" class="colorffd463 svgShape"></path><path fill="#df9752" d="M21.9 40.5s4.7.7 9.5-4.2c0 0-2.6 9.9-9.5 4.2z" class="colordf5852 svgShape"></path><path fill="#ff9a3a" d="M20.6 35.3s-.7-3.6 1.9-4.3c2.5-.7 4.2 2.4 4.2 2.4s-4.5-4.1-6.1 1.9z" class="colorddad43 svgShape"></path><ellipse cx="23.6" cy="34.7" fill="#ff9a3a" rx="1.4" ry="1.3" class="colorddad43 svgShape"></ellipse><ellipse cx="42.2" cy="19.6" fill="#fffffb" rx="4.1" ry="4.5" class="colorfbffff svgShape"></ellipse><ellipse cx="42.2" cy="20.7" fill="#14c5af" rx="2.5" ry="2.8" class="color51b6ae svgShape"></ellipse><ellipse cx="42.2" cy="20.7" fill="#08000c" rx="1.1" ry="1.3" class="color00020c svgShape"></ellipse><circle cx="42.9" cy="19.8" r=".7" fill="#ffffff" class="colorffffff svgShape"></circle><path fill="#fdff3d" d="M48.2 9.1c.3-.4.5-.9.9-1.2 1.2-1.2 3-1.2 4.6-1.2h4.4c.7 0 1.4 0 1.9.4.7.5.8 1.5.5 2.3-.3.8-.8 1.4-1.4 2.1l-3 3.3c-.4.4-.7.8-1.2 1.1-1.2.7-2.8.4-4.2.4-1.3 0-2.5.5-3.6 1.2-.1.1-1.4-3.4-1.3-4 .3-1.6 1.6-3.1 2.4-4.4z" class="colorffd463 svgShape"></path><path fill="#ff9a3a" d="M48.4 14c.6-.9 1.1-1.9 1.8-2.7.7-.8 1.5-1.6 2.5-1.9.9-.4 1.8-.4 2.7-.4h2.2c.1.3 0 .7-.2 1-.2.3-.5.5-.7.7-1 .8-2.1 1.7-3.1 2.5-.4.3-.9.7-1.4.9-.5.2-1.1.3-1.7.3-.6.1-1.2.1-1.8.2-.7.1-.6-.1-.3-.6z" class="colorddad43 svgShape"></path><circle cx="45.9" cy="3.7" r="2.4" fill="#fdff3d" class="colorffd463 svgShape"></circle><path fill="#592d72" d="M67.2 121c-.4 1.7-2.1 2.8-2.8 4.4-.2.4-.3.8 0 1.2.2.3.6.4 1 .4 2 .3 3.5.1 5.4-.5.5-.2 1.1-.3 1.5-.7 1-.9.9-2.4.7-3.7 0 0-3.7 1.5-5.8-1.1zM101.6 122.3s-3.1 1.6-4.9-.3c-.6 1.7-3.8 4.3-3.2 5.2.4.5 3.5.1 5.3-.3 1.2-.2 2.5-.7 2.9-1.9.3-.7 0-1.7-.1-2.7zM59 115.5c-.4 1.7-2.1 2.8-2.8 4.4-.2.4-.3.8 0 1.2.2.3.6.4 1 .4 2 .3 3.5.1 5.4-.5.5-.2 1.1-.3 1.5-.7 1-.9.9-2.4.7-3.7 0 0-3.6 1.5-5.8-1.1zM93.4 116.9s-3.1 1.6-4.9-.3c-.6 1.7-3.8 4.3-3.2 5.2.4.5 3.5.1 5.3-.3 1.2-.2 2.5-.7 2.9-1.9.4-.8 0-1.8-.1-2.7z" class="color90471c svgShape"></path><path fill="#ff2020" d="M42.7 35.3c1.3 1.8 2.2 3.9 2.9 6 1 .2 2 1 3 .7.5-.2.9-.7.9-1.2s-.3-1.1-.7-1.3c-.2-.1-.3-.1-.4-.3-.1-.2 0-.3 0-.5 0-.5-.6-.7-1-1-.5-.5-.5-1.4-.4-2.1-.9-.3-1.9.5-2.8.1-.2-.1-.3-.2-.5-.3-.6-.3-1-.3-1.3-.3.1 0 .2.1.3.2zM52.9 42.6c-.5-.1-1.1.1-1.1.6 0 .1 0 .2-.1.3-.1.2-.4.2-.6.1-.2-.1-.4-.3-.6-.4-.2-.1-.4 0-.5 0-.9.2-1.7.8-2.5 1.2-.1.1-.2.1-.3.1.5.9 1 1.7 1.2 2.7.2.7.3 1.5.5 2.2h.1c.6 0 1.2-.1 1.7-.3.5-.1 1.2-.5 1.2-1v-.3c0-.1.1-.1.2-.1.5-.2 1.2-.1 1.5-.6.1-.2.1-.4.1-.6 0-.5.1-1 .1-1.5s.1-1-.1-1.5c0-.3-.4-.8-.8-.9zM52.4 49.9c.5-.3 1.1-.4 1.6-.6.4-.2.7-.5 1.1-.7.4-.2.8-.4 1.2-.2.4.2.6.7.7 1.1 0 .5-.1.9-.1 1.4 0 .7.1 1.4.4 2-1 .6-2.2.9-3.4.7-.3-.1-.7-.2-.9-.4-.7-.8-1.8-2.5-.6-3.3zM54.9 58.4c.2-.6.1-1.2 0-1.8 0-.1 0-.3-.2-.4-.1-.1-.3-.1-.5-.1-1 0-2.6-.2-3.8.1.4 1.9.9 3.8 1.3 5.8.5.1 1 .1 1.6 0 .4 0 .8-.1 1.1-.3.3-.2.6-.5.6-.9 0-.5-.4-.9-.4-1.4 0-.3.1-.7.3-1zM62.8 64.3c-.2.9-.5 2 .2 2.6.3.3.9.4 1.1.8.2.3.1.6 0 .9-.3.7-1 1.3-1.7 1.5-.7.3-1.6.3-2.4.1-.9-.1-2-.4-2.7.2-.2.2-.3.4-.6.5-.6.3-1.2-.3-1.5-.9-.3-.5-.5-1.1-.7-1.7-.1-.4-.3-.9-.2-1.3.1-1.7 1.5-2.8 2.2-4.2.4-.9.3-2.4 1.1-3 .9-.7 2.9.3 3.8.8 1.1.9 1.6 2.4 1.4 3.7zM65.4 70.5c-.7.4-1.4.8-1.8 1.5-.4.7-.3 1.7.5 2.1-.6.8-.4 2.1.5 2.6.8.5 2.1.2 2.5-.7.1-.2.2-.4.4-.6.1-.1.3-.1.5-.1.6 0 1.1 0 1.7.1.3 0 .5 0 .8-.1.3-.1.4-.4.5-.7.4-.9.7-1.7 1.1-2.6.2-.5.4-1 .1-1.4-.1-.2-.4-.3-.5-.4-1.5-.9-2.1-4.7-4.1-4.4-2.9.3-.5 3.7-2.2 4.7zM78.1 68.8c.2 0 .4.1.6 0 .2-.1.3-.2.4-.3.6-.5 1.6-.3 2.1.2.6.5.8 1.3.9 2.1.1.8 0 1.6.1 2.3-1 .1-1.7 1.1-1.6 2.1.1.5.3 1 .4 1.5.1 1-.4 2-1.3 2.3-.6.3-1.4.3-1.9.8-.2.2-.3.6-.5.8-.5.6-1.5.7-2.2.4-4.1-2-2.1-12.9 3-12.2zM90 66.3c-1.4.1-2.8.2-4.1.2-.5 1.2-.3 3.8-.3 4.9 0 .3 0 .7.1 1 .1.3.4.6.6.9.6.6 1.4 1.1 2.3.9 1.1-.2 1.7-1.4 2.8-1.6.5-.1 1.1 0 1.6 0s1.2-.1 1.5-.5c.1-.2.2-.4.4-.5.4-.3.9 0 1.3-.1.6-.1.8-.9.9-1.5.1-.8.2-1.5.3-2.3-1.9-1.1-4.3-1.6-7.4-1.4zM99 71.4c-.4.9.1 1.8-.3 2.6-.3.5-.8.5-1 1.2-.1.6.2 1.4.6 1.9.4.6.9 1 1.2 1.6.4.6.7 1.4 1.2 1.9s1.5.8 2 .2c.3-.3.4-.5.5-.7.1-3.2-.7-7.1-3-9.9-.5.2-.9.5-1.2 1.2zM95.5 78.2c.5 0 1.1-.1 1.5.1.3.1.4.4.5.7.3.8.1 1.8-.1 2.6-.2.9-.3 1.9.2 2.6.1.2.3.3.4.5.3.5 0 1.2-.5 1.6-.5.3-1.1.4-1.7.5-.5.1-.9.1-1.4-.1-.6-.2-.9-.8-1.2-1.3-.9-1.6-4.3-3.7-3.7-5.6.8-2.7 4.2-1.7 6-1.6zM61.2 79.3c-.4-.6-.2-1.4-1-1.7-.6-.3-1.8.1-2.4.3-.6.2-1.2.4-1.8.8l1.2 2.7c.6 1.2 1.3 2.3 2 3.4.2 0 .4-.1.5-.1 1-.3 2-.6 2.7-1.4.7-.8.9-2.1.1-2.8-.2-.5-.9-.7-1.3-1.2z" class="colorc07b3a svgShape"></path><path fill="#b77435" d="M62.2 92.3c-.3-.5-1.2-.6-1.4-1.2-.3-.9-.4-1.6-1.5-1.8h-.1c-.2 2.8-1.1 6.1-.6 8.6.6.3 1.5.2 2.2.1.2 0 .4-.1.5-.2.1-.2 0-.5-.1-.7-.1-.4 0-1 .3-1.3.1-.2.3-.3.5-.5.5-.6.5-1.4.5-2.2-.1-.3-.1-.6-.3-.8zM61.8 100.7c-.1.1-.1.2-.1.3-.1.6-.1 1.2-.2 1.8v.4c0 .7 0 1.3-.1 2v.5c0 .2.2.3.3.4.4.4.9.7 1.5.7.2 0 .5 0 .7-.1 0-.8.1-1.7.2-2.8.1-.9.2-1.9.6-2.7v-.1c-.8-.7-2.3-1-2.9-.4zM61.4 109.9c-.5-.6-.9-1.3-1.2-2 0-.1-.1-.2-.2-.2v.5c0 1.6-.7 2.9-.9 4.5-.1.4-.1.9 0 1.3.1.1.3.2.5.2.3.1.5.1.8.1.4 0 .8 0 1.1-.2.3-.2.3-.7.4-1 0-.6.1-1.2.1-1.8 0-.2 0-.5-.1-.7-.1-.3-.3-.5-.5-.7z" class="colorb77035 svgShape"></path><path fill="#ff2020" d="M71.3 115.1c.1-1.1-.1-2.2-.5-3.2-.1-.3-.2-.6-.4-.8-.3-.6-.8-1.2-1-1.9-.2-.7 0-1.5-.3-2.1-.3-.6-.7-.6-1-.4.2 1-.2 2.1-.1 3.1.1 1.3.3 2.6.2 3.9 0 .9-.2 1.6-.4 2.4 0 .1.1.3.2.4.1.1.3.1.4.1H70c.2 0 .5 0 .7-.1.4-.4.5-.9.6-1.4zM72.4 101.6c-.9 1.2-2.3 2-1.8 3.8.2.7.7 1.2 1.4 1.5.2.1.4.1.6.2 0-.2.1-.3.2-.5.3-.7.8-1.4 1.1-2.1.4-1.2.3-2.4.1-3.6-.6 0-1.2.2-1.6.7zM69.8 95.3l-.9-.9c-.1 0-.7-.3-.9-.4-.4-.1-1.1 0-1.5.1h-.2c.1 2.1-.1 4.7 0 7 1.1 0 2.2-.3 3.2-.6.2-.1.4-.1.6-.3.4-.3.2-.8.3-1.2.1-.5.5-1 .6-1.5.2-.8-.5-1.5-1.2-2.2z" class="colorc07b3a svgShape"></path><path fill="#b77435" d="M90.3 98.8c-.2-.1-.3-.2-.5-.4-.2-.3-.2-.7-.1-1.1.1-.7.2-1.5-.3-2-.5-.6-1.8-1.1-2.9-1.1-.1 1-.2 2 0 2.9.3 1.4 1.4 2.6 2 3.9.3 0 .7-.1 1-.2.3 0 .5 0 .8-.1.4-.2.6-.6.5-1 0-.3-.2-.7-.5-.9zM90.8 103.2c-.9 1 .1 2 0 3.2 0 .4 0 .9.4 1.1.6.3 1.4.3 2 0 .1-.7.2-1.5.3-2.2v-2l-.1-.1c-.8-.8-1.9-.8-2.6 0zM92.5 113.8c.1-.2 0-.4 0-.6-.1-.9-.2-1.9-.8-2.6-.1-.1-.3-.3-.4-.5-.4-.8-.1-1.4-1.4-1.3-.1 0-.2 0-.3.1.3 1.5.4 3-.8 5.3-.1.1-.1.3-.1.4.5.3 1.1.2 1.7.1.2 0 .4-.1.6-.1.6-.1 1.3-.3 1.5-.8z" class="colorb77035 svgShape"></path><path fill="#ff2020" d="M100.5 94c0-.2.1-.5.1-.7 0 0 0-1.9.6-4.9-.6 0-1.1.2-1.7.3-.5.1-1.1.2-1.5.5-.6.4-.5.8-.8 1.4-.1.2-.2.3-.3.5.1.2.1.4.1.6v1.2c0 .4 0 .9.2 1.2.2.3.6.5 1 .5s.8-.1 1.2-.2c.4-.1.8-.2 1.1-.4zM99.9 100.2c-.3 0-.5-.3-.5-.6s0-.6-.2-.9c-.1-.1-.2-.2-.3-.4-.1-.2 0-.5 0-.7 0-1.5-2.3-1.3-3-.8-.4.3-.9.8-1.3 1.3.1.3.1.6.1 1 0 1.2-.3 2.4 0 3.6.1.4.2.7.4 1 .6.1 1.5 0 1.9 0 .2 0 .4 0 .6-.1.4-.2.5-.8.9-1.1.4-.3.9-.3 1.3-.7.3-.4.2-1.1.1-1.6zM100.1 103.7c-.1 0-.3 0-.4.1-.1.1-.1.2-.1.2-.2.4-.6.6-.9 1-.4.5-.3 1.1-.2 1.7.1.6.3 1.2.2 1.8 0 .4-.2.9.1 1.2.2.2.5.3.8.3.7 0 1.3-.3 2-.5 0-1.8-.2-3.7.2-5.4 0-.2.1-.3.1-.5-.6-.1-1.3.1-1.8.1zM100.6 116c.1-.2.1-.5 0-.8-.1-.2-.3-.5-.4-.7-.4-.7-.3-1.7-.6-2.4-.4-.7-1.5-.6-2.3-.2.3 1.6.9 2.9.7 4.7.2.2.4.3.7.3.6.1 1.2-.3 1.7-.7l.2-.2z" class="colorc07b3a svgShape"></path><path fill="#592d72" d="M109.2 83.1s2.1-.6 2.9 1.9c.8 2.5-.2 5.4 1.1 6.5 0 0-5.2-.9-5.5-4.7-.3-3.7 1.5-3.7 1.5-3.7z" class="color90471c svgShape"></path><path fill="#ff2020" d="M52.7 30.2c.1.8.2 1.5.4 2.2.1.4.2.7.1 1.1-.1.2-.2.3-.4.5-.7.6-1.6.9-2.5.9-.2 0-.5 0-.7-.2-.3-.2-.5-.7-.7-1-.1-.2-.3-.5-.6-.6-.1-.1-.2-.1-.3-.2v-.5c0-.7.6-1.3 1.2-1.7.3-.3.7-.5.9-.9.1-.2.2-.4.3-.5.3-.3 1-.5 1.5-.4.6.1.7.8.8 1.3zM35.6 16c-.3-.1-.6-.2-1-.2-.2 0-.4.1-.6.1-.5 1-1 2.1-1.4 3.2.5.1 1.1.1 1.6 0 .1 0 .2-.1.3-.2.1-.2 0-.4.2-.5h.2c.3 0 .7-.2.8-.5 0-.1.1-.2.1-.3l.3-.3c.2-.2.2-.5.1-.8-.1-.2-.3-.4-.6-.5zM49.4 20.9c.3 0 .6.1.7.3.1.1.1.3.1.4.1.4.1.7.2 1.1v.3c0 .1-.1.1-.2.2-.2.2-.3.4-.5.6-.1.1-.2.1-.4.1-.5 0-1-.1-1.4-.4-.5-.4-.9-1.5-.4-2s1.4-.6 1.9-.6zM43.5 25.4c.6-.3 1.3-.5 1.9-.2.4.3.7.8.8 1.3.1.6.1 1.2-.2 1.7-.2.2-.4.4-.6.5-.5.4-.9.7-1.5.7-.4 0-.8-.2-1.2-.4-1.5-1.1-.5-2.8.8-3.6zM32.7 22.3c.1-.1.1-.3 0-.4-.1-.9-.4-1.4-.7-1.6 0 0 0 .1-.1.1-.4.8-.9 1.5-1.4 2.1.1 0 .2 0 .3.1.5 0 1 0 1.4-.1.3 0 .4-.1.5-.2z" class="colorc07b3a svgShape"></path><path fill="#1483c5" d="M73.8 93.8s.2-5.7 2.7-7.4c0 0-2.4 4.6-2.7 7.4z" class="coloreab64e svgShape"></path><path fill="#ff2020" d="M84.4 91.9c.2-.4.3-.9 0-1.2-.2-.2-.4-.3-.6-.4-.7-.5-.4-1.6-.4-2.5 0-.9-.5-1.8-1.3-2.3-.8-.5-1.9-.4-2.6.2-.2.2-.4.4-.6.4-1.8.5-4.4 1-4.1 3.7.1 1.1.9 1.5 1.5 2.2.4.5.6 1 .7 1.6 2.1-.1 4.3-.2 6.5-.4.1-.1.2-.3.2-.4.2-.3.5-.5.7-.9z" class="colorc07b3a svgShape"></path><path fill="#1483c5" d="M66 92.1s.3-4.3-1.4-9.1l1.4 9.1zM90.1 92.5s-9.1-4.6-5.5-12.4c0 0-2.3 6.3 5.5 12.4z" class="coloreab64e svgShape"></path></svg>