<svg xmlns="http://www.w3.org/2000/svg" viewBox="0 0 128 128" id="Hippopotamus"><path fill="#ff2020" d="M118 40.5c1.3 1.1 3.3 1.3 4.9.6 1.6-.8 2.5-2.5 2.6-4.2v-.2c.1-.1.2-.2.4-.2.6 0 1 .6 1.2 1.2.3.9.3 2 0 2.9-.1.3.1.6-.1.8-1.3 2.2-3.9 3.7-6.4 3.1l-2.6-4z" class="color9b9b9b svgShape"></path><path fill="#592d72" d="M117.8 40.1s3.5 2.1 6-.1c1.6-1.4 1.8-3.4 1.8-3.4s.1 3-2.5 4.6c-2.3 1.4-4.4.4-4.4.4l-.9-1.5zM121.5 44.8s5.5-.2 5.8-6.7c0 0 1.9 5.6-5.1 7.4l-.7-.7z" class="color60605f svgShape"></path><path fill="#14c5af" d="M45.2 73.5s5.2 11.1 0 20c0 0 4.2 4.5 12.9 2.3l2.1-20.2L48 68.3l-2.8 5.2z" class="color808080 svgShape"></path><path fill="#592d72" d="M45.6 74.9s4.2 11.3-.9 18.4c0 0-.1 1.3 3.9 2.9 4 1.6 4.5.3 4.5.3l1.6-4.8s-2-.1-3.3 1c0 0-1.5-3.6-3.4-2l-.5-1.2 2.2-7.2-1.8 3.7s.4-8-1.7-11l-.6-.1z" class="color60605f svgShape"></path><path fill="#14c5af" d="M104.7 76.5s-.3 2.1 0 6c.5 6.3.5 12.3.5 12.3s-7.3 5.8-14 .2c0 0 2.8-6.4.6-14.9l12.9-3.6z" class="color808080 svgShape"></path><path fill="#592d72" d="m104.8 77.4.4 17.4s-2.5 3.5-7.8 3.4c-4.8-.1-6.9-3.5-6.9-3.5s3-5.4 1.7-11.5c0 0 1.7 4.5 2 6.2L92.8 86s-.1 3.6-.4 5c0 0 .8-.2 1 1.1 0 0 2.1-3.5 4.3 1.4 0 0 2.2-1.4 4.1.8 1.9 2.2 4.4-2.8 1.7-8.3 0 0 .8 1 1.1 1.5l-.4-7.3-.7 4.5.5-6.7.8-.6z" class="color60605f svgShape"></path><path fill="#e2e2e0" d="M99.5 94c1 .1 1.8 1.2 2 2.7-1.1.5-2.6 1-4.5.9.2-2.1 1.3-3.7 2.5-3.6z" class="colore0e1e2 svgShape"></path><path fill="#fdff3d" d="M92.7 95.7c.2-2.1 1.4-3.7 2.6-3.6 1.3.1 2.1 1.9 1.9 4 0 .5-.2 1-.3 1.4-1.3-.1-2.7-.6-4.2-1.6-.1 0-.1-.1 0-.2z" class="colorcfd3d6 svgShape"></path><path fill="#fdff3d" d="M92 92.5c.1-.1.2-.1.3-.1.5.1.7 1.4.4 2.9 0 .2-.1.4-.2.7-.4-.3-.9-.6-1.4-1 .1-.1.5-1 .9-2.5z" class="colorcfd3d6 svgShape"></path><path fill="#8f8f8f" d="M35.5 37.5s-4.5.6-5.3-3.6c-.7-3.6-2.2-5.4-2.2-5.4s10.9 0 8.5 7.4l-1 1.6z" class="color8f8f8f svgShape"></path><path fill="#14c5af" d="m36.5 35.8-1.1 1.7c0-6.7-7.5-9.1-7.5-9.1s11 0 8.6 7.4z" class="color808080 svgShape"></path><path fill="#8f8f8f" d="M124.2 55.8c-.8 8.2-3.5 14.1-3.5 17.3 0 3.2.4 7.6-.8 12.6-1.1 4.9 1.1 9.5.8 10.7-.4 1.1-9.6 5.5-15.2-1.1 0 0 2.7-5.9 2.7-10.1 0-4.2-2.3-8.1-2.3-8.1s-10.1 11-33.7 5.6c0 0-2.6-1.1-3.9-.2L67 92.2l1.3 5.7s-9.7 5.7-15.6-1.5c0 0 4.5-7.5 1-18.4 0 0-2.7-.4-5.8-2.9-1.6.5-3.3.3-4.9-.3-.5-.2-1.1-.5-1.6-.6-.8-.2-1.7 0-2.6-.2-.6-.1-1.2-.4-1.9-.4-1.2 0-2.2.8-3 1.7-.8.9-1.4 1.9-2.4 2.5-1.5.9-3.5.7-5.2.4C23 80.1 19 81 15.2 80.5S7.7 78 5.3 74.9c-.8-1.1-1.5-2.3-2.1-3.5C1.8 68.7.6 65.7.8 62.7c.2-3 2.3-6.1 5.3-6.6.7-.1 1.4-.1 2.1-.2.9-.2 1.7-.7 2.5-1.1 3.4-2 6.6-4.1 9.8-6.4-.2-2-.2-4 .8-5.7.8-1.4 2.2-2.3 3.7-2.7.8-.2 1.5-.3 2.3-.6 2.6-.9 4.2-3.6 6.5-5.2 2.4-1.7 5.5-2.2 8.5-2.2 3 .1 5.9.6 8.9.8 4.1.3 16.7 3.2 23.2 1 2.3-.8 4.7-1.2 7.1-1.7 4.1-.9 14.2-1.6 20.7.6 4.8 1.6 23.9 3.5 22 23.1z" class="color8f8f8f svgShape"></path><path fill="#e2e2e0" d="M50.3 96c.3-1.6 1.3-2.8 2.3-2.7 1 .1 1.6 1.4 1.6 3-1.5.1-2.8 0-3.9-.3z" class="colore0e1e2 svgShape"></path><path fill="#fdff3d" d="M46.6 94.5c.3-1.8 1.4-3.1 2.5-2.9 1.1.2 1.7 1.8 1.4 3.5-.1.3-.1.6-.2.9-1.6-.3-2.8-.9-3.7-1.5zM46.5 91.1c.4.1.5 1.3.2 2.5-.1.3-.2.5-.3.8-.9-.6-1.3-1-1.3-1 .4-.7.8-1.5 1.1-2.3h.3z" class="colorcfd3d6 svgShape"></path><circle cx="29.5" cy="48.7" r="3.6" fill="#707070" class="color707070 svgShape"></circle><circle cx="29.5" cy="48.7" r="2.9" fill="#ffffff" class="colorffffff svgShape"></circle><circle cx="29.5" cy="48.7" r="2" fill="#1483c5" class="color92aada svgShape"></circle><circle cx="29.5" cy="48.7" r="1.1" fill="#250b34" class="color0b1934 svgShape"></circle><circle cx="30.1" cy="47.6" r=".5" fill="#ffffff" class="colorffffff svgShape"></circle><path fill="#353535" d="M8.1 60.5c.2-.1.5-.2.7-.2 2.1-.3 2.8 2.4 2.8 2.4s-.3-.2-.7-.4c0 1.1-.9 2-1.9 2-.3 0-.6-.1-.8-.2.4 1 1.3 2 1.3 2-2-.5-4-4.4-1.4-5.6z" class="color353535 svgShape"></path><path fill="#353535" d="M4.8 64.5c-.6-1.2-.8-2.6-.3-3.9.5-1.2 1.6-2.2 2.9-2.5 1.7-.3 3.5.6 5.2.1-.6.8-1.5.8-2.4.8-.9 0-1.8-.1-2.7.2-1 .4-1.7 1.2-2.1 2.2-.4.9-.4 2.1-.6 3.1z" class="color353535 svgShape"></path><path fill="#592d72" d="M68.1 82.5s.6-6.5 6.5-11.2c0 0-6.1 8.2-6.5 11.2zM53.8 77.9s-.9-4.5-3.6-8.3l3.6 8.3z" class="color60605f svgShape"></path><path fill="#14c5af" d="M116.4 61.3c-1.3 9.4-10.6 15.7-10.6 15.7s-10.1 11-33.7 5.6c0 0-2.6-1.1-3.9-.2.3-2.2 3.9-7.5 3.9-7.5 34.7 11.1 44.3-13.6 44.3-13.6z" class="color808080 svgShape"></path><path fill="#592d72" d="M72.1 82.7C95.7 88 105.8 77 105.8 77s9.4-6.3 10.6-15.7c0 0-4 13.5-17.8 18.9-13.9 5.5-26.5 2.5-26.5 2.5zM69 76.9s2.2-3.4 1.4-11.8L69 76.9z" class="color60605f svgShape"></path><path fill="#592d72" d="M105.8 77s2.7 6.3 4.4 10c0 .1-2.1-8.2-4.4-10z" class="color60605f svgShape"></path><path fill="#592d72" d="M104.8 95.3s1.8 3.5 7.5 3.8c5.8.3 8.5-1.7 8.5-2.7 0-.9-1.4-6.2-1.3-8 .1-1.8 2.1-8.2 1.1-15.3 0 0 1.7-7.9 3-13.4 1.5-6.5 1.4-15.2-5.4-20.5 0 0 8.2 7 4.8 20.2-3.5 13.1-4.2 19-4.2 19l1.4-4.7s.8 8.8-.8 13.3l-1.1-3.9s1.1 11 2 12.8c0 0-1.7-3-4.1-1.9l-1.7.9s-1.1-3-2.7-3.2c-1.6-.2-3.2 1.2-3.2 1.2s0-1.3-.8-1.4c0 0 1.8-6.7-.3-11.1-.2.1 1.6 6.3-2.7 14.9z" class="color60605f svgShape"></path><path fill="#e2e2e0" d="M119.3 97.4c-1.3.7-3.4 1.3-5.7 1.4.2-2.4 1.5-4.3 3-4.3 1.1 0 2.2 1.2 2.7 2.9z" class="colore0e1e2 svgShape"></path><path fill="#fdff3d" d="M110.8 92.4c1.7.1 2.9 2.4 2.8 5.1 0 .4-.1.9-.2 1.3-1.9 0-4-.4-5.9-1.6.3-2.8 1.7-4.9 3.3-4.8z" class="colorcfd3d6 svgShape"></path><path fill="#fdff3d" d="M105.4 95.2s.6-1.2 1.2-3c.1-.1.2-.1.3-.1.7.1 1 1.8.8 3.8-.1.4-.1.7-.2 1-.8-.3-1.4-.9-2.1-1.7z" class="colorcfd3d6 svgShape"></path><path fill="#592d72" d="M114.6 39.3s-9.9-7.9-21.8-8.2c-12-.3-17.3 3-22.2 3.4-2.4.2-18.3-1.5-18.3-1.5l-.3 1.6s6.5 3.6 6.1 10.5c0 0 2.2-5-4.2-11.1 0 0 13.2 1.3 16.8 1.4 3.6.1 12.4-3.5 21.7-3.1 9.2.4 17.7 4.2 22.2 7zM3.1 57.7S-5.3 65 8.3 78.1c4.7 4.5 11.9 3.6 18.2 0 0 0 5.5 1.6 8-2.7 0 0 .9-1.6 2.2-1.7 1.3-.1 3.2.7 4.6.3 0 0 4.1 2.3 6.8 1 0 0 3.7 3 5.8 2.9 0 0-4.1-1.8-5.2-3.4l1.9-2.6s-2.8 5-8.9 1.5c0 0 7.6-2.8 9.1-13.7 0 0-2.6 10.9-11.4 13.4 0 0-2-.4-2.6-.1 0 0 2.3-1.2 3.9-4.1 0 0-3.7 3.4-5.1 4-1.4.7-2.9 3.5-4.2 3.9-1.4.4 1.6-6.7 2.1-9.4s2.6-4.3 2.6-4.3l-2.4.3s-.9-1.5-1.8.9c-1 2.4-.1 11.2-6.6 13.7s-13.5 4.5-19.4-3.7c-6-8.2-5.2-14.2-2.8-16.6z" class="color60605f svgShape"></path><path fill="#353535" d="M31.4 71.4c-.7 2.5-1.7 4.9-3.2 7-.6 0-1.2-.1-1.8-.2l-.1-.1c1.8-.9 3-2.6 3.8-4.4.7-1.8 1-3.8 1.1-5.8.1-1.9.1-3.9 1.3-5.4.6-.7 1.4-1.2 2.3-1.5.4-.1.9-.1 1.3 0 .4.2.7.6.7 1 0 .7-.8 1.1-1.5 1.5-1.3.8-2.2 2.1-2.8 3.5-.4 1.4-.7 2.9-1.1 4.4z" class="color353535 svgShape"></path><path fill="#070707" d="M35.3 61.7s1.1 0 .4.8c-.6.7-3.1 1-4.2 6.6s-2.4 8.1-4.5 9.1h-.7s4.3-2.2 4.7-8.9c.6-6.7 4.3-7.6 4.3-7.6z" class="color070707 svgShape"></path><ellipse cx="8.8" cy="62.7" fill="#070707" rx="1.2" ry="1.3" class="color070707 svgShape"></ellipse><path fill="#b5b5b5" d="m20.7 48.1 2.4-1.8s-.9-5.5 5.3-6.6c0 0-4.6.1-6.4 2.5-2 2.8-1.3 5.9-1.3 5.9z" class="colorb5b5b5 svgShape"></path><path fill="#592d72" d="M24 45.6S13.1 53.7 9 55.7c0 0-3.1.1-4.5.9 0 0 3.1-.7 4.5-.2 1.5.5 15-10.8 15-10.8z" class="color60605f svgShape"></path><path fill="#353535" d="M40.1 43.1s-4.5.6-8.9-1-7 1.2-7.6 3c-.6 1.8-.6 6.4-3.7 8 0 0 3.5 0 4.9-7.3 0 0 1.1-3.9 6.1-2.6 5.1 1.3 9.2-.1 9.2-.1z" class="color353535 svgShape"></path><path fill="#592d72" d="m44.4 32.1-1.5 6.1s.5-5-4.1-4.7-8.6 4.1-8.6 4.1 3.6-6.8 14.2-5.5z" class="color60605f svgShape"></path><path fill="#8f8f8f" d="M44.3 40.3s6.4.8 7.5-5.2c1-5.1 3.1-7.7 3.1-7.7s-15.5 0-12.1 10.5l1.5 2.4z" class="color8f8f8f svgShape"></path><path fill="#14c5af" d="M44.1 37.9s-.7-7.7 7.3-8.6c0 0-1.2 3.2-1.4 5.3 0 3.3-3.5 4.6-5.9 3.3z" class="color808080 svgShape"></path><path fill="#6f6f6f" d="M51.5 29.3s-7.6 0-7.3 8.6c0 0 5 2.6 6-3.3 0 0-1.8 4.1-4.8 2.7 0 0 .1-1.8 2.5-2.6 0 0-1.7.1-2.8 1.2 0 0 .6-2.1 3.1-2.9 0 0-1.8.1-2.4.8-.2.1 1.4-3.5 5.7-4.5z" class="color6f6f6f svgShape"></path><path fill="#7f7e7f" d="M54.9 27.5s-3 5.2-3.4 10c-.4 4.9-6.6 2.9-6.6 2.9s4.8.9 5.7-3.1c.9-4 2.3-7.9 4.3-9.8z" class="color7f7f7e svgShape"></path><path fill="#ff9a3a" d="M54.9 27.5s-7.7 0-10.6 3.2c-2.9 3.2-1.9 6.7-1.9 6.7s.4-4.5 3.6-6.8c3.2-2.2 8.9-3.1 8.9-3.1z" class="colorafafaf svgShape"></path><path fill="#592d72" d="M68.1 82.5 67 92.2s1.4 4.7 1.3 5.7c0 1-4.9 2.8-8.2 2.7-3.3-.2-6.8-1.9-8.3-4.6 0 0 3.7-4.3 3.1-10-.5-5.7-1.2-8.1-1.2-8.1s2.3 7 2.8 9.5L55 83.5s1 5.8-.4 8.5c0 0 1 .2 1.2.9 0 0 3.3-3.7 5.7 1.5 0 0 3-2.7 5.6 2.3 0 0-.4-5.5-3.5-9.8 0 0 2.3 2.5 2.8 4.2l1.7-8.6z" class="color60605f svgShape"></path><path fill="#e2e2e0" d="M66.8 98.6c-1.4.6-3.5 1.3-5.9 1.4 0-2.7 1.4-4.9 3-4.9 1.4 0 2.5 1.5 2.9 3.5z" class="colore0e1e2 svgShape"></path><path fill="#fdff3d" d="M58.2 93c1.7.1 2.9 2.4 2.8 5.1 0 .7-.1 1.3-.3 1.9-1.9 0-3.9-.4-5.7-1.6v-.6c.1-2.7 1.6-4.9 3.2-4.8zM52.7 96.4s.8-1.3 1.4-3.6h.1c.7.1 1 1.8.8 3.8-.1.6-.2 1.1-.4 1.6-.6-.5-1.3-1.1-1.9-1.8z" class="colorcfd3d6 svgShape"></path><path fill="#ff2020" d="M39.6 46.2c1 .1 2 .1 2.8.7 1.1.8 1.4 2.4 1 3.6-.4 1.3-1.5 2.2-2.7 2.9-1.2.7-2.4 1.2-3.6 1.8-3.7 2-6.5 5.6-7.5 9.7-.7 2.8-.6 5.8-2.1 8.2-1.7 2.7-4.9 4-8.1 4-2.1 0-4.3-.6-5.9-1.9-1.6-1.3-2.7-3.5-2.3-5.6.2-1.4 1-2.6 1.9-3.7 1.2-1.5 2.7-3 4.6-3.6.9-.3 1.8-.4 2.6-.7 2.5-1 3.6-3.8 4.9-6.1.4-.7.9-1.5 1.7-1.7.4-.2.9-.2 1.3-.2 2.4-.1 4.9-.7 6.5-2.4 1.4-1.5.9-2.8 1.1-4.6.1-.9-.1-.8.7-.9.8-.2 2.2.5 3.1.5zM60.6 86.5c.5-.7-.4-1.9-1.2-1.6-.1 1.8 0 3.7.1 5.5 1.2.3 2.1 1.5 2.1 2.8 1.4-1.3 4.1-.4 4.5 1.5.5-1.5-.3-3.1-1-4.5-1-1.8-2-3.6-2.9-5.4 1.6 1.3 3 2.9 4.1 4.7 0-3.2.6-6.4 1.9-9.3.2-.4.3-.8.4-1.2.1-.4 0-.7 0-1.1-.1-2.7.3-5.4.8-8.1.4-2.3.8-4.6 1.2-6.8-1.9 1.1-3.4 2.8-4.2 4.9.3-.7-1.2-2.8-1.6-3.3-.8-1-2-1.6-3.2-2.1-1.6-.6-3.8-1.3-4.9.4-2.3 3.4 1.3 9.9 2.1 13.1.9 3.3 1.5 6.9 1.8 10.5zM121 63.8c-1.2 5.4-2.7 10.7-2.7 16.2.7-.9 1.3-1.9 1.7-3 .3 2.4.3 4.8-.1 7.1l-1.2-2.4c-.1-.3-.3-.6-.7-.7-.7-.1-.9.8-.9 1.5.2 3.4.5 6.9 1.1 10.2-.1-.6-1-.8-1.6-.6-.6.2-1.2.6-1.8.3-.6-.2-.9-.9-1.3-1.5-.5-.7-1.4-1-2.3-.9.5-2 .7-4.1.6-6.2 1.3-.6 1.4-2.5.9-3.9-.4-1.4-1.2-2.8-.8-4.2.6-2 2.8-4.2 3.8-6.1 1.2-2.3 2.2-4.6 3-7.1 1.7-4.9 1.8-9.7 2.7-14.7 2.3 4.7.5 11.6-.4 16zM118.3 51.1c0-3.3-1.7-6.4-3.6-9-2-2.8-5-4.9-8.3-6.1-3.2-1.3-6.7-1.8-10.2-2.1-2.8-.2-5.7-.3-8.5.2-5.5 1-10.6 4-16.2 4-3.2 0-6.3-1-9.2-2.2-2-.8-4.1-1.8-6.3-1.7 2.5 4 3.8 8.7 3.8 13.4 1.7-.3 2.2-2.5 3.2-4s2.9-2.4 4.7-2.5c1.8-.1 3.7.3 5.4 1 1.1.5 2.2 1 3.4.9.8-.1 1.5-.4 2.2-.7 1.3-.6 2.5-1.2 3.8-1.8 1.9-.9 3.8-1.8 5.8-2.2 4-.9 8.4-.2 11.9 2.1 3.4 2.3 5.9 6 6.6 10.1.6 3.4-.2 7.4-3.1 9.4-.6.4-1.3.7-1.7 1.3-.5.5-.8 1.4-.4 2 .1.2.3.4.6.6 2.5 1.8 6 1.5 8.6-.1.2-.1 7.5-2.2 7.5-12.6z" class="color9b9b9b svgShape"></path></svg>