<svg xmlns="http://www.w3.org/2000/svg" viewBox="0 0 128 128" id="Horse"><path fill="#1483c5" d="M7.9 82.8c-.5 0-1-.1-1.5-.2h.7c2.8-.3 5.6-1.7 7.4-3.9-.3 1.1-1 2-2 2.6 1.9-1 3.3-2.7 4.3-4.6 1-1.9 1.6-3.9 2.2-6 .4-1.4.7-2.9 1.1-4.4.4 1 .3 2.3-.2 3.3 1.1-1.3 1.2-3.2.9-4.9-.3-1.7-.9-3.4-.8-5.1.1-1.8.8-3.6 1.8-5.1.1.8.1 1.6.2 2.3 0-1.8.8-3.6 2.2-4.9 1.3-1.2 3.2-1.9 5-1.8 1.7.1 3.3.8 4.8 1.6 0 .3-.1.7-.1 1-.1.7 0 1.3-.2 2-.2.6-.8 1.1-1.5 1.2-.6-1.3-2.3-1.7-3.6-1.2-1.3.5-2.2 1.8-2.5 3.1-.4 1.3-.3 2.8-.2 4.2.1 1.4.2 2.8-.2 4.2-.5-2.1-1-4.2-1.7-6.2 1 5.1.6 10.4-1.1 15.2.4-2 .3-4.1-.4-6 .1 2.4-.7 4.8-1.5 7.1-.5 1.6-1.1 3.2-2.1 4.4-.9 1-2.1 1.7-3.3 2.3-2.1 1.1-4.4 2.1-6.7 2.3-2.4.2-4.9-.4-6.6-2-.5-.5-1-1.1-1.7-1.4 2.2 1.2 4.9 1.5 7.3.9z" class="color6b2c13 svgShape"></path><path fill="#592d72" d="M24 52c-1.3 1.2-2.1 3-2.2 4.9-.1-.8-.1-1.6-.2-2.3-.9 1.6-1.7 3.3-1.8 5.1-.1 1.7.5 3.4.8 5.1.3 1.7.2 3.6-.9 4.9.5-1 .6-2.2.2-3.3-.3 1.5-.7 2.9-1.1 4.4-.6 2-1.2 4.1-2.2 6-1 1.9-2.4 3.5-4.3 4.6 1-.6 1.7-1.5 2-2.6-1.8 2.2-4.6 3.6-7.4 3.9h-.7C4.7 82.2 3.1 81 1.7 80c2.6.8 5.9.5 7.5-1.8.8-1.1 1-2.6 1.1-3.9.3-5.4-1.8-11 0-16.1-1 1.3-1.6 2.9-1.6 4.5-.3-3.3-.1-6.7 1.1-9.7 1.3-3 3.7-5.7 6.9-6.5-2.4.3-4.8 1.1-6.9 2.4 2.1-2.3 4.9-4 8-4.5 3.1-.6 6.3-.1 9.1 1.4-2-1.9-4.6-3.2-7.3-3.6 2.9.1 5.9.5 8.6 1.7 2.7 1.2 5 3.5 5.9 6.3-.2.5-.3 1.1-.3 1.7-1.5-.9-3.1-1.5-4.8-1.6-1.9-.2-3.7.5-5 1.7z" class="color843f20 svgShape"></path><path fill="#b77230" d="M68.7 111.1c.3-.4.5-.9.7-1.4.2-.8.1-1.7.1-2.5 0-5.6 5.4-9.7 6.9-15.1.4-1.4.6-3 1.3-4.3.8-1.4 2.1-2.3 3-3.6.9-1.3 1.4-2.9 1.7-4.5.7-3.2 1-6.4 1.4-9.6.3-2.4 1.8-4.1 4.3-4.5 1.7-.3 3.5.2 5.2.6 1.7.4 3.3.8 5 1.2.1 3-2.4 5.3-4.5 7.4-3.8 3.8-6.9 8.3-9.1 13.3-.5 1.1-1 2.2-1.8 3.1-.5.4-1 .8-1.5 1.1-3.3 2.5-4.4 6.8-5.3 10.8-.3 1.5-.7 3-.6 4.5.1 2.1 1 4 1.4 6-2.8 1.8-8.2-2.5-8.2-2.5z" class="colorb76730 svgShape"></path><path fill="#ff2020" d="M68.7 111.1c.3-.4.5-.9.7-1.4.2-.8.1-1.7.1-2.5 0-5.6 5.5-10.4 6.3-15.9 1-6.5.8-16.5 1.2-18.1.7-3.2 6.5.3 6.9-3 0-.4.1-.7.2-1.1 2.1-.5 4.2-.6 6.3-.2 1.6.3 3.2.9 4 2.2.5.7.6 1.6.7 2.5-.4.5-.9.9-1.3 1.3-2.7 2.8-5.1 5.9-7 9.3-2.2.8-4.7 1.3-6.3 3-1.1 1.1-1.7 2.5-1.9 4-.1.8-.1 1.6-.4 2.3-.4.8-1.1 1.4-1.8 2.1-2.3 2.2-3.9 5.1-4.6 8.1-.3 1.4-.6 2.9-.7 4.3-.1 1.4.1 3.1 1.3 3.6s2.6-.6 3.9-.4c.2.8.5 1.6.7 2.5-2.9 1.7-8.3-2.6-8.3-2.6z" class="color9e5220 svgShape"></path><path fill="#b77230" d="M45.5 74.4c-.7-1.2-2.1-2.8-1.7-4.3.4-1.1 2-2.6 2.8-3.3 1.1-1 2.6-1.4 4-1.6 5.5-.7 10.8 2.3 15.6 5.2 2 1.2 4 2.4 6.1 3.6-.4 2.8-2.8 4.8-5.2 6.1-2.5 1.3-5.2 2-7.5 3.6-2.3 1.5-4.3 4.2-3.8 6.9.2 1 .6 2 1.1 2.9.8 1.5 1.5 3 2.3 4.4.8 1.5 1.5 3 2.5 4.4.3.4.6.8.7 1.2.1.3.1.7 0 1-.1 1.9-.3 3.7-.4 5.6 0 .3 0 .7-.1 1-1.5-.4-3.9-1.5-5.2-5-.8-1.9-.9-4-1.2-6-.2-2-.7-4.2-2.2-5.6-.8-.8-1.9-1.4-2.9-2.1-1-.7-1.9-1.6-2-2.8-.3-1.9 1.4-3.5 1.6-5.3.3-1.7-.6-3.3-1.5-4.8l-3-5.1z" class="colorb76730 svgShape"></path><path fill="#ff2020" d="M50.4 92.5c-1-.7-1.9-1.6-2-2.8-.3-1.9 1.4-3.5 1.6-5.3.3-1.7-.6-3.3-1.5-4.8l-3-5.1c-.7-1.2-2.1-2.8-1.7-4.3.4-1.1 2-2.6 2.8-3.3 1.1-1 2.6-1.4 4-1.6 5.5-.7 10.8 2.3 15.6 5.2 2 1.2 4 2.4 6.1 3.6-.3 2.2-1.9 3.9-3.7 5.2-2.8-.4-7.6-1.4-10.3-3.7-3.9-3.4-7.7.7-7.3 2.7.2 1.2.6 2.6.9 3.8.4 1.8.3 3.7-.3 5.5-.2.7-.6 1.4-.5 2.1.1 1.4 1.4 2.3 2.5 3.2 2.7 2.3 4.1 6 3.6 9.5-.2 1.3.3 2.8.5 4.1.1.6.2 1.2.5 1.7.7 1.2 2.5 1.4 3.5.5.1-.1.3-.2.4-.3 0 .6-.1 1.2-.1 1.8 0 .3 0 .7-.1 1-1.5-.4-3.9-1.5-5.2-5-.8-1.9-.9-4-1.2-6-.2-2-.7-4.2-2.2-5.6-.9-.9-2-1.4-2.9-2.1z" class="color9e5220 svgShape"></path><path fill="#ce823a" d="M113.9 15.5c0-.6.1-1.1.2-1.6.2-.5.5-1 1-1.2-2-.6-4.3.2-5.7 1.7-1.5 1.6-2.5 3.8-2.4 6 .9.1 2.4 1.4 3.3 1.2 1.1-.4 3.6-1.7 3.6-6.1z" class="colorce7a3a svgShape"></path><path fill="#56147c" d="M39.6 114.5c.2.4.4.7.6 1.1.6 1.3.9 2.6.9 4-3.2 1-6.7.7-9.7-.7-.4-.2-.8-.4-1-.8-.3-.5-.2-1.1-.2-1.6 0-.6-.1-1.1-.2-1.7 6 2 8.5.8 9.6-.3zM61.8 111.1c-.1 1.2-.3 2.3-.8 3.4-.6 1.1-1.8 2.1-2.9 1.6-.5-.2-.8-.6-1.1-1-1.1-1.4-2-3-2.6-4.7-.2-.6-.4-1.3-.3-1.9.1-1.3 1.3-2.3 2.6-2.3 1.2 3.5 3.6 4.6 5.1 4.9zM68.7 111.1s5.5 4.3 8.3 2.7c.2 1 .4 2 .3 3.1 0 .4-.1.7-.3 1-.4.4-1 .5-1.6.5-1.5 0-3-.6-4.5-1.1-1.6-.6-3.5-1.6-3.5-3.3-.1-1.1.6-2 1.3-2.9zM106.4 112.1c.4 1 1.2 1.8 1.7 2.8.5 1 .6 2.3-.3 3-.7.6-1.8.5-2.8.3-2.6-.5-5.4-1.3-7.2-3.3-.2-.2-.4-.4-.5-.7-.1-.3 0-.7.1-1 .2-.7.3-1.3.5-2l.2.2s4.4 2.4 8.3.7z" class="color7c2514 svgShape"></path><path fill="#410b60" d="M32.5 115.5c-.1 1.6.5 3.2 1.6 4.4-1-.2-1.9-.5-2.9-1-.4-.2-.8-.4-1-.8-.3-.5-.2-1.1-.2-1.6 0-.6-.1-1.1-.2-1.7 1.1.3 1.9.5 2.7.7zM56.6 106.1c.3.7.6 1.3.9 1.8-1.4 1.2-2.1 3.1-2 5-.5-.8-.9-1.7-1.2-2.6-.2-.6-.4-1.3-.3-1.9.1-1.2 1.3-2.3 2.6-2.3zM68.7 111.1s.6.5 1.5 1v.2c-.2 2 .5 3.8 1.7 5.3-.3-.1-.6-.2-1-.4-1.6-.6-3.5-1.6-3.5-3.3-.1-1 .6-1.9 1.3-2.8zM97.4 113.1c.2-.7.3-1.3.5-2l.2.2s.6.3 1.6.7c-.1 1.9.7 3.8 1.9 5.2-1.4-.5-2.8-1.3-3.8-2.4-.2-.2-.4-.4-.5-.7 0-.3 0-.7.1-1z" class="color60150b svgShape"></path><path fill="#ce823a" d="M30.4 72.1c-1.1-4.6-1.8-9.5-.9-14.1.9-4.7 3.7-9.2 8.1-11.1 5.8-2.5 12.3 0 18.4 1.4 2.8.7 5.7 1.1 8.6 1.3 1.8.1 3.7.1 5.4-.4 2.1-.7 3.8-2.1 5.3-3.7 3.7-4.1 6-9.2 8.9-13.8.9-1.4 1.8-2.8 2.9-4.1.4-1.1 1.3-2.3 2.9-3.8 9-8.1 12.4-6.5 16.9-6.1 4.6.4 8.9 3.7 9.4 7.6.7 6.1 2.8 11.5 5.9 11.7 0 0 4.6.3 5.3 3.5.4 2.4-.1 6.9-1.4 9.3-.8 1.4-3.7.6-3.7.6-.5 1.7-3.9 4-7.6.2-3.7-3.8-3.1-1.1-13.2-2.9-1.5-.3-2.7-.7-3.7-1.4-1.1 2.8-1.5 6-1.5 9.1 0 1 0 1.9.3 2.9s.9 2 1.3 3c1.2 2.8 1.3 6.2.1 9-.4 1-1 2-1.6 2.9-.5 2.7-1.2 5.6-.5 7.8 1.1 3.5 0 3.7 2.7 6.2.8.8 1.8 1.5 2.4 2.5 2.1 3 .7 7.2 1.7 10.7.7 2.6 2.5 4.8 3 7.4.3 1.5.2 3 .7 4.4-3.8 1.7-8.3-.7-8.3-.7l-.2-.2c.2-1 .5-2 .7-3.1.1-.6.3-1.2.2-1.8 0-.6-.3-1.2-.4-1.8-.7-2.9.5-6.4-1.3-8.8-.9-1.2-2.5-1.9-3.2-3.2-.6-1.1-.4-2.5-.9-3.6-.6-1.2-1.8-1.8-2.9-2.5-2.8-1.7-5.5-3.9-7.4-6.6-.2-.2-.3-.5-.5-.7-.3 0-.6.1-1 .1-6.4.8-13.1-.7-18.7-4.1-1.7-1-3.2-2.2-4.8-3.4-.9-.7-1.9-1.5-3.1-1.6-1.3-.1-2.4.7-3.2 1.7-.8 1-1.2 2.2-1.8 3.3-2 4.5-5.1 8.6-8.8 11.9-.6.6-1.3 1.1-1.7 1.9-.4 1-.1 2.2-.4 3.3-.4 1.6-2 2.6-2.8 4-.7 1.2-.8 2.7-.9 4-.1 1.6-.2 3.3.1 4.9.3 1.5 1 2.8 1.6 4.1.9 1.7 1.7 3.5 2.6 5.2-1 1.1-3.6 2.3-9.6.2-.3-1.4-1-2.8-1.3-4.3-.9-4.6 2.3-9.1 2.6-13.8.1-3.1-1-6.6.7-9.2.3-.5.8-1 1.1-1.5 1-1.8.3-4-.4-5.9-.8-2.7-1.5-5.3-2.1-7.9z" class="colorce7a3a svgShape"></path><path fill="#592d72" d="M112.4 21.4c-.1-1.5-.2-3.1.4-4.4.6-1.4 1.9-2.6 3.6-2.8-1.9-.5-4.1.1-5.1 1.5.6-1.7 0-3.8-1.5-5.2-1.5-1.4-5.3-.9-6.2-2.6-.5 1.9 2.9 2.6 4.9 3.8-1.3-.5-2.6-1-3.9-1.2-1-.2-2.1-.3-3.1-.7-1-.3-2-.9-2.5-1.8.4 2.9 2.4 2.8 3.5 3.3-2.8-1-6.1-.9-8.5.4-.9.5-1.8 1.2-2.7 1.6-1 .4-2.2.6-3.3.2.7.6 1.6 1 2.5 1-2 1.4-2.7 3.9-5 5-1.5.8-3.7.7-5.4-.1 1.3 1.1 3.2 1.7 4.9 1.5-1.2.9-2.2 1.8-3 3-.6.7-1 1.5-1.7 2.1-.7.6-1.7 1.1-2.8 1 .9.6 2.2.8 3.2.6-.8.7-.9 1.9-.9 3s.2 2.2-.1 3.2c-.5 1.9-2.5 3.2-4.8 3.2 1.2.8 2.9 1 4.1.4-1.4 1.3-1.6 3.5-.5 5.2 0-.8.4-1.6.9-2.2.6-.6 1.4-1 2-1.6 1.1-1 1.5-2.3 2.2-3.6.6-1.2 1.4-2.3 2.2-3.4.5-.7.9-1.3 1.4-2 2.3-3.2 4.6-6.4 7.6-9 1.8-1.6 4.1-2.9 6.8-2.9.9 0 1.8.2 2.8.4 2.4.5 4.9 1.2 6.8 2.6.4.3.7.6 1.2.5z" class="color843f20 svgShape"></path><path fill="#c17934" d="M30.4 72.1c-1.1-4.6-1.8-9.5-.9-14.1.3-1.8 1-3.5 1.8-5.1-1.1 4.1-1.1 8.6.1 12.7.4 1.3.9 2.6 1.4 3.9 1.1 2.8 2.2 5.6 3.2 8.4.7 1.8 1.4 3.6 1.4 5.5s-.7 3.9-2.4 4.9c-.5.3-1.1.5-1.6.9-1.2 1.1-.9 3-.3 4.6 1 2.5.1 5.4-1 7.8-.6 1.3-1.6 2.5-2 3.9-.5 1.7 0 3.5.4 5.2.2.7.4 1.4.7 2 .7 1.2 2.2 1.9 3.6 1.8 1.4-.1 2.7-1.1 3.2-2.5 0-.1.1-.3.2-.4.5 1 1 1.9 1.4 2.9-1 1.1-3.6 2.3-9.6.2-.3-1.4-1-2.8-1.3-4.3-.9-4.6 2.3-9.1 2.6-13.8.1-3.1-1-6.6.7-9.2.3-.5.8-1 1.1-1.5 1-1.8.3-4-.4-5.9-1-2.7-1.7-5.3-2.3-7.9zM57.8 71.5c-.9-.7-1.9-1.5-3.1-1.6-1.3-.1-2.4.7-3.2 1.7-.6.7-1 1.6-1.3 2.4.8-1.9 1.5-3.8 2.2-5.7.5-1.4 1.3-3 2.8-3.1 1.1-.1 2 .7 2.8 1.5 1.8 2 3.3 4.2 5.3 6 1.8 1.5 4 2.5 6.3 3.3 2.7.9 5.7 1.6 8.4.8.5-.1 1.1-.4 1.4-.8.6-.8.6-2.2 1.6-2.3-.8-1.2-1-2.7-.9-4.2 3.8 4.5 5.4 10.9 10.3 14.3 1.6 1.1 3.5 1.9 4.3 3.7.7 1.5.3 3.5 1.2 4.9.7 1.2 2.2 1.8 2.8 3.1.7 1.5 0 3.2 0 4.8.1 2.4 2 4.6 1.8 7.1-.1 1-.5 2 .1 2.8.3.4.8.6 1.2.6 1 .2 2.1-.1 3-.8.3-.3.7-.6 1-.8.1 1 .2 1.9.5 2.8-3.8 1.7-8.3-.7-8.3-.7l-.2-.2c.2-1 .5-2 .7-3.1.1-.6.3-1.2.2-1.8 0-.6-.3-1.2-.4-1.8-.7-2.9.5-6.4-1.3-8.8-.9-1.2-2.5-1.9-3.2-3.2-.6-1.1-.4-2.5-.9-3.6-.6-1.2-1.8-1.8-2.9-2.5-2.8-1.7-5.5-3.9-7.4-6.6-.2-.2-.3-.5-.5-.7-.3 0-.6.1-1 .1-6.4.8-13.1-.7-18.7-4.1-1.5-1.1-3-2.3-4.6-3.5z" class="colorc16d34 svgShape"></path><path fill="#592d72" d="M122.1 37c.4 0 .8 0 1.2-.2 3.6-1.4 3.9 2.7 3.9 2.7.1.3.2.6.2 1-.8-3.2-5.3-3.5-5.3-3.5z" class="color843f20 svgShape"></path><ellipse cx="107.4" cy="30.6" fill="#592d72" rx="5" ry="6.1" transform="rotate(160.799 107.384 30.553)" class="color843f20 svgShape"></ellipse><ellipse cx="107.9" cy="31" fill="#592d72" rx="4.6" ry="5.5" transform="matrix(-.998 -.06364 .06364 -.998 213.648 68.796)" class="color843f20 svgShape"></ellipse><ellipse cx="107.7" cy="31.1" fill="#fdff3d" rx="4.1" ry="5" transform="rotate(-176.349 107.686 31.139) scale(1.00003)" class="colord6e5e5 svgShape"></ellipse><ellipse cx="106.8" cy="31.5" fill="#14c5af" rx="3.3" ry="4" transform="matrix(-.998 -.06364 .06364 -.998 211.469 69.815)" class="color019d92 svgShape"></ellipse><path fill="#56ffea" d="M105.1 31.7c.1 0 .3 0 .5.1.1 0 .3.1.4.1h.7s.1 0 .1.1c.1.4.5.7 1 .8.2 0 .4.1.6.1.1.1.3.2.5.2.3.2.5.4.7.7-.6 1.2-1.7 1.9-3 1.9-1.6-.1-2.9-1.7-3-3.6.4-.3.8-.4 1.5-.4z" class="color56ffdc svgShape"></path><ellipse cx="106.7" cy="31.5" rx="1.6" ry="1.9" transform="matrix(-.998 -.06364 .06364 -.998 211.19 69.725)" fill="#000000" class="color000000 svgShape"></ellipse><ellipse cx="108.1" cy="31" fill="#ffffff" rx=".8" ry="1" transform="rotate(-176.349 108.08 31.005) scale(1.00003)" class="colorffffff svgShape"></ellipse><path fill="#4c156b" d="M91.6 18.8c-1 .5-2.1 1.1-2.8 2-.4.5-.6 1.1-.9 1.6-.6 1.3-1.3 2.5-2.4 3.4-1.1.9-2.6 1.4-3.9 1 1.3.8 3 .6 4.3-.2 1.3-.8 2.2-2 2.9-3.4.4-.7.7-1.4 1.1-2.1 1-1.6 2.3-2.2 3.9-3-.7-.1-1.6.4-2.2.7zM107.6 14.6c-.7-.3-1.5-.4-2.2-.5-.8-.1-1.6-.1-2.3-.1h-1.2c-.4.1-.9.2-1.3.4-1.8.5-3.8 0-5.2-1.3.2 1.1 1.1 2 2.1 2.4.6.2 1.3.2 1.9.2 1 0 2.1.1 3.1.1.9 0 1.9.1 2.7.5.8.4 1.5 1.3 1.5 2.2 0-.2 2.1.7 2.3.7.6 0 .6-.6.7-1.1-.1-1.4-.8-2.9-2.1-3.5z" class="color6b2d15 svgShape"></path><path fill="#ce823a" d="M104.5 14c-.2-.7-.3-1.4-.3-2.1 0-.7.3-1.4.8-1.9-2.6.1-5.1 1.8-6.2 4.1-1.2 2.5-1.6 5.5-.7 8.1 1.1-.1 3.4.9 4.4.2 1-.6 3.5-3.1 2-8.4z" class="colorce7a3a svgShape"></path><path fill="#592d72" d="M102.5 17c.1-.5 0-1 0-1.5 0-.7-.1-1.4 0-2 .1-.7.3-1.4.8-1.8-.7 0-1.3.5-1.7 1-1.3 1.4-2.1 3.2-2.3 5-.1.7-.1 3.3 1.3 2.5 1-.6 1.8-1.9 1.9-3.2z" class="color843f20 svgShape"></path><path fill="#4c156b" d="M92.9 16.1c-.9.4-1.6 1.1-2.3 1.7-.9.8-2 1.7-3.2 1.6 1 .3 2.1 0 3-.5.9-.5 1.7-1.2 2.5-1.9.7-.6 1.5-.9 2.3-1.4-.7-.1-1.6.2-2.3.5zM81.7 31.3c-.4.9-.5 1.9-.9 2.8-.5 1.2-1.5 2.1-2.6 2.6 1.5.3 3.2-.5 3.9-1.9.4-.9.4-1.9.6-2.8.1-.7 1.2-2.7.9-3.1-.9.3-1.5 1.6-1.9 2.4z" class="color6b2d15 svgShape"></path><path fill="#ff9a3a" d="M113.2 48.7c.1-.8.2-1.6.4-2.3.2-.7.4-1.3.5-2 .2-.6.3-1.1.5-1.7.3-1 .6-2 1.1-2.9.5-.9 1.2-1.7 2.1-2.2.8-.4 1.8-.4 2.7-.4.4 0 .7 0 1.1-.1.1 0 .2-.1.4-.1h.1s4.6.3 5.3 3.5c.4 2.4-.1 6.9-1.4 9.3-.8 1.4-3.7.6-3.7.6-.5 1.7-3.9 4-7.6.2-.6-.6-1.1-1-1.5-1.4v-.5z" class="colore89256 svgShape"></path><ellipse cx="123.1" cy="41.2" fill="#592d72" rx="1.7" ry="1.4" transform="rotate(-144.508 123.087 41.206)" class="color843f20 svgShape"></ellipse><path fill="#370c4f" d="M121.7 40.2c.4-.6 1.4-.7 2.2-.2.7.5.9 1.3.7 1.9 0-.5-.2-1-.7-1.3-.7-.5-1.5-.4-1.9.1-.3.4-.2.9.1 1.4-.6-.5-.8-1.3-.4-1.9z" class="color4f1f0c svgShape"></path><path fill="#592d72" d="M125.3 40.4s-2-3.7-4.5-2c-2 1.3.2 3.5.2 3.5s-1-2.1.3-2.9c2-1.1 4 1.4 4 1.4zM122.3 50.3s-.1 0-.2-.1c-.5-.2-1.6-1-2.4-3.4-.9-3.1-2.7-3.9-3.3-3.5-.6.4 1.1 3.6 2 4.1 1 .5 2.2 3.5 3.8 3.1l.1-.2z" class="color843f20 svgShape"></path><path fill="#370c4f" d="M122.3 50.3s-1.7-.1-2.8-3.2c-1.1-3.1-2.5-3.7-2.7-3.4-.2.3.3 1.1.9 1.4.5.3 1.3 1.5 1.6 2.2.2.7 1.8 3.3 3 3z" class="color4f1f0c svgShape"></path><path fill="#c17934" d="M88.3 37.6c.3-3 1.7-6.1 3-8.8 1.2-2.3 2.7-4.4 4.6-6.2-.2.5-.5 1.1-.7 1.6-.4.8-.7 1.6-1.1 2.4-.4.9-.9 2.2-1.2 3.1-1.2 4.2.3 9.1 3.7 11.9 1.2 1 2.7 1.8 4.2 2.5.6.3 1.2.6 1.8.8.9.3 1.8.3 2.8.4 2.2.2 4.3.3 6.5.5.8.1 1.7.2 2.2.8.3.5.4 1.1.6 1.6.5 1.3 2.1 2.2 3.4 1.7.7-.2 1.3-.6 2-.5.2 0 .5.2.7.3.5.3 1 .5 1.4.9-.7 1.6-4 3.5-7.5-.1-3.7-3.8-3.1-1.1-13.2-2.9-1.5-.3-2.7-.7-3.7-1.4-1.1 2.8-1.5 6-1.5 9.1 0 1 0 1.9.3 2.9s.9 2 1.3 3c.6 1.4.9 3 1 4.5-.2.2-.3.4-.3.6 0 3.5-2.9 6.2-5.5 8.5-1 .9-2.1 1.9-3.5 2.2 3.2-2.1 4.8-6.5 3.6-10.2-1.4-4.3-6-7.3-6.8-11.8-.5-2.8.7-5.6 1.2-8.4.6-3 .5-6 .7-9z" class="colorc16d34 svgShape"></path><path fill="#592d72" d="M91.5 30.6c-1.1 7.6 2.1 11.2 5.7 14.1 3.6 3 13.2 2 16.3 3.5.8.4 1.5 2.1 4.2 3.4 2.7 1.2 4.4-1.3 4.4-1.3l.2.2c-.5 1.7-3.9 3.9-7.6.1-3.7-3.8-3.1-1.1-13.2-2.9-1-.2-1.9-.5-2.7-.9-.3-.2-.6-.3-1-.5-10.3-6.7-6.3-15.7-6.3-15.7z" class="color843f20 svgShape"></path><path fill="#e0944b" d="M95.9 44.9s-3.6 7.5-1.8 13.8c1.1 3.6 4.5 6.2 1.2 12.1 0 0 1.1-4.9-1.8-11.4-3.7-8.7 2.4-14.5 2.4-14.5z" class="colore0874b svgShape"></path><path fill="#e0944b" d="M96 59.2s4 4.4 1 11.2c.1 0 1.7-4.1-1-11.2zM38.2 90.7c0 .7.1 1.4-.2 2.1-.3.6-.8 1-1.3 1.4-.8.6-1.7 1.4-1.8 2.4-.2-.5-.3-1.1-.5-1.6-.1-.4-.2-.8-.1-1.2.2-.8 1.1-1.3 1.5-2 .5-.8.3-1.8.7-2.6.3-.7 1.7-2 2.5-1.5-.4.9-.8 1.8-.8 3zM36.1 110.1c.1.1.3.3.3.4.1.2.1.4.1.7-.1.8-.7 1.5-1.4 1.7-.1.1-.3.1-.4 0-.2-.1-.3-.3-.4-.5-.5-1.4-.5-3-.5-4.5v-1.5c0-.5 0-1 .1-1.5.1-.4.3-.8.5-1.3.1-.4.2-.9-.1-1.3.7 2.7-.2 5.8 1.8 7.8zM98 90.4c.1.2.3.5.5.7.2.2.4.3.7.5 1 .7 1.9 1.7 2 3 .4-1.4 0-2.9-.6-4.1-.1-.2-.3-.5-.5-.7-.4-.4-.8-.7-1.3-.9-.4-.2-1.2-.8-1.4-.3-.2.3.4 1.4.6 1.8zM102.4 107.5c0 .8-.1 1.6.5 2.1s1.5.2 1.9-.3c.5-.6.5-1.4.3-2.1-.2-.7-.6-1.3-1-1.9-.6-.9-1.3-1.8-2-2.6.3 1.6.4 3.1.3 4.8z" class="colore0874b svgShape"></path><path fill="#c6803e" d="M73.6 105.4c-.3 1-.6 2-.8 3.1-.1.4-.1.8 0 1.2.1.4.3.8.6 1 .4.3.9.3 1.4.3.1 0 .3 0 .4-.1.1-.1.1-.2.1-.3.1-.7.3-1.5.1-2.2l-.3-.9c-.1-.3-.1-.6-.1-.9 0-.5.2-2.3-.3-2.5-.5-.3-1.1.9-1.1 1.3zM82.5 91c-.4.3-.9.5-1.4.7-.5.3-1 .7-1.4 1.2-.1-.9.3-1.8 1-2.4.5-.4 1.9-1.6 2.6-1.5.8.2-.4 1.7-.8 2zM54.8 87.4c-.7 1.7-.5 3.7.5 5.1-.5.1-1 .1-1.4-.1-.3-.2-.4-.5-.6-.8-.5-.9-1.1-1.9-.9-3 .2-1 1.2-1.7 2-2.3.6-.4 1.1-.8 1.7-1.2-.4.8-1 1.5-1.3 2.3zM61.2 104.1c.1.5.1 1.1.1 1.6 0 .6-.1 1.3-.6 1.6-.3.1-.6.1-.9.1-.2 0-.5-.1-.6-.2-.2-.2-.2-.4-.2-.6-.1-1-.3-3 .3-3.9.8-1.4 1.7.6 1.9 1.4z" class="colorc6753e svgShape"></path></svg>