<svg xmlns="http://www.w3.org/2000/svg" enable-background="new 0 0 2000 2000" viewBox="0 0 2000 2000" id="Jellyfish"><path fill="#fdff3d" d="M436.0879822 1696.9586182c-2.7166443-16.4332275-16.1041565-30.3936768-28.6418457-27.5405273-12.5782471 2.8625488-21.1661987 17.6804199-18.2545776 35.2932129 2.7167053 16.4335938 16.1045532 30.394043 28.6418152 27.5405273C430.4116516 1729.3892822 438.9996033 1714.5714111 436.0879822 1696.9586182zM325.5588684 1709.2275391c-1.7576904-10.6325684-12.4003296-19.3377686-22.8380432-17.1071777-10.4714966 2.237793-18.0011902 12.1513672-16.1173401 23.5469971 1.7577209 10.6325684 12.4006042 19.3377686 22.8380432 17.1072998C319.9130249 1730.5368652 327.4427185 1720.623291 325.5588684 1709.2275391zM380.4714661 1772.6706543c-2.1681519-13.1154785-15.29599-23.8531494-28.1703796-21.1015625-12.9164734 2.7602539-22.2042236 14.9885254-19.8804932 29.0449219 2.1680908 13.1151123 15.2955933 23.8529053 28.1703796 21.1015625C373.5074463 1798.9553223 382.7951965 1786.7270508 380.4714661 1772.6706543z" class="colorf2debf svgShape"></path><g fill="#592d72" class="color000000 svgShape"><path fill="#ff2020" d="M1705.5679932 622.1798096c-2.0106201 12.9108887 4.5697021 26.6045532 14.6507568 27.5631104 10.1137695.9616089 20.1837158-7.9650269 22.3387451-21.8026733 2.0107422-12.9112549-4.5699463-26.6049194-14.6507568-27.5631104C1717.7929688 599.4155273 1707.7230225 608.3422241 1705.5679932 622.1798096zM1691.5860596 537.0185547c-1.56604 10.0564575 5.4401855 21.0154419 15.5007324 22.105957 10.0931396 1.0940552 19.8103027-5.5672607 21.4887695-16.345459 1.5661621-10.0564575-5.4403076-21.0154419-15.5006104-22.105957C1702.9818115 519.5791016 1693.2646484 526.2403564 1691.5860596 537.0185547zM1743.3265381 543.9671631c-2.4794922 15.9215088 8.6130371 33.2716675 24.5402832 34.9976807 15.979248 1.7319946 31.3632813-8.8139648 34.020752-25.8778687 2.4793701-15.9211426-8.6126709-33.2711792-24.5404053-34.9976807C1761.3679199 516.3572388 1745.9838867 526.9032593 1743.3265381 543.9671631z" class="colorcae6cc svgShape"></path></g><g fill="#592d72" class="color000000 svgShape"><path fill="#1483c5" d="M883.2078247,468.7681274l3.0587769,9.8336182l2.9720459,9.8615112l2.9613037,9.871521l2.8209839,9.9096069
			l5.4359131,19.8833618l5.1419678,19.968689c6.7452393,26.6642456,12.5570679,53.5658569,17.9612427,80.574585
			l1.9641113,10.1408691c0.6407471,3.3830566,1.3120117,6.7625732,1.8847046,10.1566162l3.5701904,20.3544922
			c1.2545166,6.7797852,2.2039185,13.6005249,3.2817993,20.4076538l1.5777588,10.2175903
			c0.5366821,3.4053345,1.052002,6.8136597,1.508667,10.2290039c0.9434814,6.8273315,1.9214478,13.6540527,2.8165283,20.4912109
			l0.6828003,5.1271362l0.6082153,5.1349487l1.2163086,10.2724609c1.7025146,13.6921387,3.0766602,27.4202881,4.3928223,41.1592407
			c0.6831055,6.8677368,1.168335,13.750061,1.7619019,20.6271973c0.5585938,6.8792725,1.1784668,13.7572632,1.598938,20.6469727
			l1.2987671,20.6713867c0.4042969,6.8929443,0.6698608,13.7921143,1.0111694,20.6901245
			c0.7416382,13.7950439,1.0509644,27.6055298,1.4196167,41.4175415l0.2556763,20.7232056l0.1156006,10.3639526
			l0.0220337,10.3493652c0.0320435,13.7915039-0.2243652,27.5465088-0.4411011,41.2764893l-0.8056641,41.109436
			c-0.7062378,27.3565674-1.4248657,54.6217041-1.8573608,81.8261719
			c-0.2781372,13.5983887-0.4935303,27.1834717-0.5962524,40.7512207
			c-0.1057739,13.565918-0.0437012,27.1162109,0.0255737,40.6507568c0.0881348,13.53125,0.3102417,27.0463867,0.6879272,40.5424805
			c0.409668,13.4915771,1.020813,26.958252,1.6795044,40.4095459c0.7221069,13.4448242,1.6713867,26.8585205,2.8348999,40.239624
			c1.2191772,13.373291,2.5675659,26.7161865,4.2282715,40.0102539c1.6282959,13.2998047,3.7182007,26.5078125,5.9567261,39.6799316
			c2.2120361,13.1802979,4.8875732,26.2528076,7.8966064,39.2347412
			c5.9294434,25.9923096,13.5913086,51.5100098,23.0601196,76.3374023
			c4.7637329,12.4003906,10.0998535,24.565918,15.8526001,36.5438232
			c5.7677002,11.9732666,12.2463989,23.5855713,19.1459351,34.967041l2.6048584,4.2609863
			c0.8601074,1.4277344,1.7363281,2.8450928,2.6676025,4.2232666l5.493042,8.3562012l5.774292,8.1713867l1.451416,2.0421143
			l1.5136719,1.9926758l3.0296631,3.9902344c1.0152588,1.3269043,2.0108643,2.6728516,3.0438232,3.9873047l3.1697998,3.8852539
			c2.1312256,2.5762939,4.1824951,5.2351074,6.4300537,7.7148438l6.6199951,7.5762939l6.8292236,7.4125977
			c9.2635498,9.7514648,19.0941162,19.0235596,29.4014893,27.8308105
			c5.2188721,4.3127441,10.3852539,8.7507324,15.8422852,12.8149414c2.7030029,2.0683594,5.3780518,4.192627,8.1776123,6.1348877
			l8.2946777,6.0310059l0.0961914,0.0699463c0.5253906,0.381958,0.6416016,1.1174316,0.2596436,1.6428223
			c-0.3587646,0.4932861-1.0338135,0.6231689-1.5491943,0.3210449c-11.817627-6.9777832-23.3167725-14.493042-34.4099121-22.5882568
			c-11.0174561-8.1966553-21.5985107-16.9761963-31.6943359-26.2918701l-7.4611816-7.1057129
			c-2.4311523-2.425293-4.8109131-4.9025879-7.2191162-7.3520508c-2.4423828-2.4178467-4.6901855-5.0181885-7.020874-7.5415039
			l-3.4705811-3.80896c-1.133667-1.2900391-2.2303467-2.6124268-3.34729-3.9172363l-3.3365479-3.9272461l-1.668335-1.9637451
			l-1.6062012-2.0144043l-6.401123-8.0783691l-6.1274414-8.2877197c-1.0383301-1.3695068-2.0209961-2.7783203-2.9876709-4.1983643
			l-2.9263916-4.2421875c-7.7223511-11.3653564-14.8960571-23.1070557-21.4264526-35.1962891
			c-6.5073853-12.1009521-12.4610596-24.4925537-17.9011841-37.1032715
			c-5.4644165-12.6030273-10.2433472-25.4884033-14.6643677-38.4829102
			c-1.0653687-3.262085-2.2318115-6.4926758-3.2139893-9.7810059l-3.0457153-9.8342285
			c-1.8892822-6.5970459-3.8222656-13.1829834-5.515625-19.8327637
			c-13.9064331-53.1373291-21.1361694-107.7618408-24.9334106-162.4154053
			c-3.7675781-54.7006836-4.0331421-109.545166-3.1133423-164.2878418
			c1.0169067-54.7508545,3.4158936-109.4373779,4.3226318-164.1114502l0.1380615-10.2506714l0.0448608-10.2498779
			l0.0669556-20.5001221c-0.1855469-13.6653442-0.175293-27.3347778-0.6205444-40.9957886
			c-0.5577393-27.3304443-1.9522095-54.6364136-3.6242676-81.9195557
			c-0.9711914-13.6333618-1.8519897-27.2741699-3.1046143-40.8859253l-0.8740234-10.2139893l-0.4370117-5.1070557
			l-0.5115967-5.1000977l-2.0527344-20.3999634c-2.9573975-27.175293-6.2436523-54.3214111-10.3010254-81.3583984
			c-7.7179565-54.1338501-17.9497681-107.8985596-30.0101318-161.2427673
			c-0.1434326-0.6344604,0.2545776-1.2650757,0.8890381-1.4085083c0.602356-0.1361694,1.2012329,0.2156982,1.3830566,0.7945862
			L883.2078247,468.7681274z" class="color1279a3 svgShape"></path><path fill="#14c5af" d="M1453.3166504,602.7050171c-3.956543,34.2978516-24.0532227,67.9143677-63.8012695,95.6096191
			c-43.2064209,30.1318359-95.871582,42.7609253-147.1479492,54.8135986
			c-115.0775146,27.0139771-230.1550903,54.053894-345.2585449,81.093811
			c-116.6758423,27.4071045-238.5133057,54.8400879-355.0579834,26.9091187
			c-40.1148071-9.6157837-80.3866577-26.9874878-105.9855042-59.3463745
			c-2.3320007-2.9349365-4.4805298-5.9478149-6.4981079-8.9873047
			c12.2362671-29.4505615,38.0447693-53.5562744,69.0935974-61.3905029
			c27.5379028-6.9694214,58.7441406-2.7247314,82.4563599-18.3673706
			c23.3719482-15.4586792,33.826355-47.1366577,59.5562134-58.3247681
			c32.9356079-14.3059692,70.4564819,12.8391724,105.9069824,7.1008301
			c48.2372437-7.8080444,70.8492432-70.848938,118.3790283-82.194397
			c47.7130127-11.3717651,94.1421509,35.1361084,142.4840088,26.6730347
			c38.0447998-6.6549683,64.4561768-45.4855957,102.6320801-51.4859009
			c50.0446777-7.8867188,102.4216309,43.3637695,146.9382324,19.1531982
			c34.0361328-18.524353,46.2462158-24.6295776,85.2338867-21.8520508
			c37.4421387,2.6726074,73.7316895,11.1881714,101.0334473,38.9355469
			C1446.8969727,594.7134399,1450.2506104,598.6174316,1453.3166504,602.7050171z" class="color5b95aa svgShape"></path><path fill="#1483c5" d="M660.8938599 1639.0264893l-7.2770996-6.2445068-7.2319336-6.3287354-3.6212158-3.1729736c-1.180481-1.0839844-2.3180542-2.2094727-3.4802856-3.3135986l-6.9476929-6.6656494-6.8947144-6.7454834c-2.2402344-2.3028564-4.3935547-4.6845703-6.5979004-7.0275879l-6.5847778-7.067749c-2.1988525-2.3575439-4.4260864-4.6976318-6.4697876-7.1849365-4.1791382-4.902832-8.3843384-9.8063965-12.4946289-14.7941895-1.0596313-1.223999-1.9990234-2.5341797-2.9852295-3.8120117l-2.9331665-3.8543701-5.8723755-7.7209473c-4.0187988-5.0874023-7.6018677-10.4699707-11.3119507-15.784668l-5.5443726-7.9958496-1.3828125-2.0041504-1.2981567-2.0549316-2.5974731-4.1131592c-1.7424927-2.7376709-3.4408569-5.50354-5.1525879-8.2645264l-2.5655518-4.1448975-1.2831421-2.0737305c-.4179688-.6966553-.8004761-1.4122314-1.2025146-2.1175537l-9.5457764-17.0175781c-1.6483154-2.8144531-3.0415039-5.753418-4.5049438-8.6610107l-4.3563843-8.7463379c-1.4285278-2.9278564-2.9586182-5.8148193-4.3044434-8.7825928l-3.9794922-8.9351807-3.9804688-8.9487305c-.6433105-1.5001221-1.3719482-2.96875-1.9453735-4.4963379l-1.7700195-4.5656738c-2.3492432-6.0930176-4.7437439-12.1790771-7.054718-18.300293l-6.2843018-18.6011963-1.561615-4.6601563-1.3471985-4.7236328-2.6788025-9.4586182-2.6760254-9.46875-2.2692871-9.5750732-2.2584839-9.5871582-1.1278992-4.7972412c-.3541565-1.6037598-.6250305-3.223877-.9414063-4.8356934l-3.5629883-19.4001465c-.9761658-6.5029297-1.8062744-13.0324707-2.7113037-19.5557861-1.0178223-6.5140381-1.4238586-13.0891113-2.057373-19.6484375l-.8532715-9.8502197c-.1677246-1.6413574-.2019958-3.2877197-.2701416-4.9331055l-.1920776-4.9375-.3796692-9.8789063-.1875305-4.9415283c-.0248108-.8236084-.0763245-1.647583-.0790405-2.4710693l.0139465-2.4707031.1257324-19.7773438.0174866-2.4735107.1208191-2.4686279.2480469-4.9377441.5512695-9.8754883.2824097-4.9385986c.0880737-1.6468506.1773376-3.2937012.3692932-4.9309082l.9900208-9.8406982c1.1028442-13.1520996 3.2243347-26.1768799 5.1742859-39.2252197l3.7939758-19.4223633c.3335876-1.6148682.6030579-3.2441406.9900208-4.8470459l1.1589966-4.8095703 2.3226013-9.6190186c.7830811-3.2041016 1.533905-6.4169922 2.3463745-9.6135254l2.7333374-9.5111084 2.739563-9.510376 1.3735657-4.7543945 1.5822449-4.689209 6.4096985-18.7287598 7.1969299-18.4417725 1.8061523-4.6070557c.6077271-1.5333252 1.3169556-3.0253906 1.9707642-4.5397949l4.0045166-9.0532227 4.0097656-9.0497437c1.3688965-3.001709 2.9192505-5.9199219 4.3843994-8.8764038l4.4542236-8.8408203c1.4956055-2.9408569 2.9209595-5.9169312 4.5881348-8.769043l9.6824341-17.269104c.7822876-1.4523926 1.6642456-2.8482056 2.536499-4.2493286l2.6099854-4.2069702 5.2227783-8.4093628 2.612854-4.2023926 1.3231201-2.09021 1.4108887-2.0349121 5.6451416-8.1345215c14.9227295-21.8255005 31.5036011-42.1031494 48.4613037-61.4766235 8.4720459-9.7174072 16.984314-19.2758179 25.5301514-28.7044678 8.5772095-9.427124 17.053833-18.7811279 25.4424438-28.1881104 8.3093262-9.4369507 16.6464844-18.7977295 24.6253052-28.3710938 7.9484863-9.586853 15.7532349-19.2630615 23.1096191-29.1932983 7.4780273-9.8592529 14.2937012-20.0115356 20.7543335-30.489563 6.4914551-10.4440308 12.3004761-21.2874756 17.6611328-32.3555298 2.6293335-5.5515137 5.2194824-11.1427612 7.5046387-16.8497925 1.2111816-2.833313 2.2405396-5.7237549 3.3684082-8.5922852 1.0084839-2.899231 2.1175537-5.7811279 3.0354614-8.7133789 1.9806519-5.8327026 3.6243286-11.7613525 5.1609497-17.7286987 1.4428101-5.9832764 2.8024292-12.0021973 3.8706665-18.0874023 1.0010986-6.0858765 1.899292-12.2228394 2.3373413-18.4005127l.1978149-2.3182373.1182861-2.3202515c.0728149-1.5477295.1726074-3.0994873.2245483-4.6512451.0385132-3.0996704.1326904-6.2145386.0471191-9.324646-.0062866-6.2366333-.4533081-12.4763794-1.1549683-18.7131348l-.5953369-4.675293c-.2233887-1.5560913-.5167847-3.0991821-.762207-4.6572876l-.3708496-2.3397827-.4575195-2.3219604-.9354248-4.6564941-.0254517-.12677c-.1279297-.6365356.2844238-1.2561646.9209595-1.3840332.59375-.1193237 1.1744995.2369995 1.3533936.8013916 3.8231201 12.2168579 6.4205933 24.8335571 7.5210571 37.5953369.3470459 3.1846313.4537354 6.3855591.6463013 9.581543.0596924 1.5992432.0710449 3.2000732.1087036 4.8002319l.0469971 2.4006958-.0335083 2.4002686c-.0014648 6.4047852-.4738159 12.7954712-1.0629272 19.166687-2.5940552 25.4958496-9.6325073 50.3693848-19.3216553 74.0053711-4.9180298 11.7998657-10.4753418 23.3307495-16.6674805 34.506897-6.1601563 11.1905518-12.8944702 22.0757446-20.1548462 32.569519-14.3496704 21.1182251-30.3220825 41.0307617-46.6414795 60.56604-16.3515625 19.5140381-33.1548462 38.6090088-49.3876343 58.1346436-16.2316895 19.5172119-32.0289917 39.4066162-45.9679565 60.5576172l-5.2901611 7.8873901-1.3225708 1.9717407-1.2374268 2.0263062-2.4634399 4.0599365-4.9271851 8.1192017-2.4637451 4.0593262c-.8236694 1.3516846-1.6572266 2.6976318-2.3918457 4.1008911l-9.1172485 16.663208c-1.5743408 2.7485352-2.9086304 5.6220703-4.3135986 8.4586792l-4.1848755 8.5253296c-1.3753662 2.850769-2.8341064 5.6626587-4.1412354 8.545166l-3.8059082 8.7010498-3.8063965 8.7004395c-.6213379 1.4554443-1.2982178 2.8878174-1.8740234 4.3620605l-1.7111816 4.4294434-6.8318481 17.7210693-6.0696411 17.9963379c-7.7233276 24.1107178-14.034729 48.682373-18.5906982 73.6021729-4.3652649 24.9500732-7.1455383 50.1650391-8.2914734 75.4694824l-.431427 18.9919434-.0541077 2.3741455c-.0107422.7913818.0272522 1.5826416.0384521 2.3740234l.1051025 4.7479248.2096863 9.4962158.1046143 4.748291c.0386963 1.5826416.0433044 3.1668701.1809692 4.744751l.6400146 9.4769287c.4700317 6.3139648.708374 12.6496582 1.5545654 18.9296875.733429 6.2896729 1.3878784 12.590332 2.184967 18.8718262l2.9972839 18.7624512c.2604675 1.5616455.4752197 3.1317139.7731628 4.6865234l.9588623 4.65271 1.9173584 9.305542 1.9243774 9.3044434 2.3283386 9.2120361 2.3278809 9.2126465 1.1637573 4.6065674 1.3569946 4.5531006 5.4611816 18.2044678c4.154541 11.9682617 8.1228638 24.0113525 13.0195923 35.7064209 9.4401245 23.5078125 20.2633057 46.5045166 32.9451904 68.4586182l2.3033447 4.1582031 1.1516724 2.0791016 1.2366333 2.0292969 4.9638672 8.1079102c3.3253174 5.3952637 6.5286255 10.8707275 10.1721191 16.0615234l5.3137817 7.885376 2.6569824 3.9431152c.8945313 1.3082275 1.7426758 2.6494141 2.7111816 3.9050293l11.3117676 15.2906494c15.4803467 20.0877686 32.2603149 39.1682129 50.2521362 57.067627.4613037.4589844.4632568 1.2050781.0042725 1.6663818-.4373779.4395752-1.135437.4620361-1.5993652.06604L660.8938599 1639.0264893zM1034.4398193 542.0737305c5.0307617 47.9293213 16.5419922 94.2602539 33.1640625 138.6253052 16.4078369 44.4423828 37.0562744 87.1569824 59.5913086 129.0214233 5.6264648 10.4753418 11.3547363 20.9046021 17.2305908 31.2775879 5.8382568 10.3924561 11.7025146 20.7822876 17.6911621 31.1274414l36.1450195 62.3434448c12.0397949 20.8955688 23.8728027 42.0169067 35.4127197 63.4372559 11.3936768 21.4874268 22.5391846 43.2164917 32.8054199 65.5194702 1.2731934 2.7907715 2.6014404 5.5473633 3.8287354 8.3662109l3.6787109 8.458252 3.6767578 8.458374c.6052246 1.4139404 1.2416992 2.8101807 1.8210449 4.2386475l1.7336426 4.2877197 6.9282227 17.1520996c2.142334 5.8012695 4.317627 11.590332 6.4084473 17.4093018l1.5805664 4.3592529c.5223389 1.4550781.9748535 2.9421387 1.4654541 4.411499l2.887085 8.8409424 2.8829346 8.8399658c.9492188 2.9509277 1.7438965 5.9641113 2.6221924 8.942749l2.5726318 8.9598389c.8280029 2.99646 1.7843018 5.9473877 2.4749756 8.9909668 1.5065918 6.045166 2.9161377 12.1136475 4.3692627 18.166748.777832 3.0113525 1.2822266 6.102417 1.904541 9.1577148l1.7894287 9.1862793c.5795898 3.0644531 1.2247314 6.1153564 1.7475586 9.189209l1.475708 9.2366943c1.8721924 12.3127441 3.2993164 24.6591797 4.3218994 36.9656982 2.2218018 24.6201172 2.8790283 49.1383057 2.9949951 73.463623.1257324 48.6755371-2.3320313 96.5996094-2.3349609 144.3041992-.2248535 47.6998291 2.7514648 95.2642822 12.6872559 142.4390869l.0235596.1120605c.1339111.6356201-.2728271 1.2595215-.9085693 1.3934326-.5998535.1263428-1.1906738-.2335205-1.3676758-.8081055-3.5168457-11.5395508-6.7120361-23.1813965-9.3358154-34.958252-.7098389-2.9320068-1.2493896-5.9000244-1.8824463-8.8487549-.6140137-2.9526367-1.2391357-5.9035645-1.746582-8.8760986l-1.6120605-8.9019775-1.4075928-8.9350586c-1.8045654-11.9233398-3.3068848-23.8935547-4.4284668-35.8961182-.6315918-5.9959717-1.0535889-12.0073242-1.5637207-18.0129395-.3944092-6.0118408-.8609619-12.0216064-1.1607666-18.0379639-2.6264648-48.1350098-2.0783691-96.3027344-3.7973633-144.3306885-.4361572-12.0061035-.9686279-24.0067139-1.7818604-35.9836426-.3526611-5.9931641-.8754883-11.9707031-1.3387451-17.9534912l-.8419189-8.9588623-.428833-4.4785156-.5041504-4.4693604c-1.2601318-11.9294434-2.9768066-23.7994385-4.9458008-35.6191406l-1.569458-8.8486328c-.5529785-2.9437256-1.2270508-5.8638916-1.8344727-8.796875l-1.8688965-8.789917c-.6481934-2.9240723-1.1751709-5.8757324-1.9786377-8.7645264l-4.4743652-17.4106445c-.6911621-2.9162598-1.6523438-5.7600098-2.4816895-8.6390381l-2.5758057-8.6134033c-.8789063-2.8647461-1.6710205-5.7562256-2.6210938-8.598999l-2.8841553-8.5177002-2.8837891-8.5175781c-.4898682-1.4163818-.9401855-2.8464355-1.4626465-4.2514648l-1.5808105-4.2106934-6.3226318-16.8422852-6.817627-16.6538086-1.7042236-4.1634521c-.569458-1.387207-1.1992188-2.7497559-1.7958984-4.1258545l-3.6265869-8.2373047-3.6262207-8.2371826c-1.2094727-2.7453613-2.5264893-5.4439697-3.7844238-8.1682129-9.9604492-21.8433838-20.8242188-43.2792969-31.9631348-64.5698853-11.1325684-21.296814-22.7332764-42.3596191-34.3873291-63.4009399-11.6557617-21.0406494-23.4125977-42.0355225-34.9561768-63.164978-11.5214844-21.1409912-22.7878418-42.4342041-33.4949951-64.0186768-21.3928223-43.1501465-40.6751709-87.5290527-54.8758545-133.6702271-3.5151367-11.5379639-6.755249-23.1647949-9.5350342-34.9055786-2.7806396-11.7375488-5.3226318-23.5397339-7.2729492-35.4486084-1.9730225-11.9018555-3.6018066-23.8641357-4.6903076-35.8814697-1.0605469-12.0188599-1.6732178-24.0742798-1.8173828-36.1376953-.0076904-.6497192.5126953-1.1827393 1.1624756-1.1904907.6112061-.0073242 1.1191406.4528809 1.1835938 1.0484619L1034.4398193 542.0737305z" class="color1279a3 svgShape"></path><path fill="#fdff3d" d="M904.7590332,477.2396545c43.3456421-5.1139832,90.041687-9.6131287,128.1252441,11.7090454
			c48.1329346,26.9486389,66.9150391,85.9680481,77.6217041,140.08255
			c10.706665,54.114563,19.4067383,112.852356,57.9716797,152.2954102
			c27.8370361,28.4708252,67.015625,42.178772,100.8764648,63.1294556s65.2667236,56.1099243,59.9718018,95.5744629
			c44.0837402,3.2304077,84.793335,34.7433472,98.9686279,76.6106567s0.9836426,91.6298828-32.0700684,120.9771729
			c29.7105713,8.2941895,52.5732422,36.8347168,54.1829834,67.6391602
			c1.6097412,30.8045654-18.1536865,61.5726318-46.8378906,72.9182129
			c28.5523682,28.0700684,29.8601074,79.1142578,2.7824707,108.609375s-78.0473633,32.546875-108.4508057,6.4931641
			c-24.776123,54.276123-84.2593994,90.6827393-143.8651123,88.0523682
			c-59.6055908-2.6304932-146.1090088-39.7362061-166.0078125-95.9837646
			c4.1124878,11.6247559-18.1641846,54.2619629-25.2419434,63.2496338
			c-21.847229,27.7401123-87.4249878,46.7969971-126.727356,23.2155762
			c-36.2976685-21.7785645-44.5427246-44.5427246-44.5427246-44.5427246
			c-13.1967163,35.7895508-60.6242065,66.1296387-94.2451782,48.1107178
			c-33.6210938-18.0189209-51.210022-57.5402832-53.234436-95.6317139s8.9514771-75.5389404,19.8156128-112.1043701
			c-44.581665-22.0338135-51.3995972-85.7888184-31.2628784-131.2589111s58.7589111-79.6553955,88.31073-119.6517334
			c77.0908813-105.2064209,89.4165039-265.8091431,18.850769-377.9857178L904.7590332,477.2396545z" class="colorf2debf svgShape"></path><path fill="#1483c5" d="M1118.7608643,514.2382813c18.6082764,42.512085,38.475708,84.0231934,61.2340088,123.7913208
			c2.729126,5.0255737,5.7354736,9.9055786,8.6113281,14.8453979c2.9156494,4.9193115,5.7753906,9.862854,8.7281494,14.749939
			c3.0654297,4.8260498,6.0571289,9.6866455,9.0740967,14.5285645l4.5148926,7.2644653
			c1.4929199,2.427124,3.1342773,4.7667236,4.6929932,7.1530151c3.1501465,4.7537842,6.3266602,9.4857178,9.4291992,14.2579956
			l2.3377686,3.5718384l2.4464111,3.5024414l4.8918457,7.0003052c3.2774658,4.6536865,6.4772949,9.3543091,9.8103027,13.9616089
			c3.4135742,4.5534058,6.7558594,9.1502686,10.1230469,13.7268677l5.0407715,6.8685913
			c1.6947021,2.2783203,3.4851074,4.4874878,5.2220459,6.7338257l10.487793,13.4185181l2.623291,3.3498535l2.699707,3.2904053
			l5.3969727,6.5793457l5.3933105,6.5772705l2.6953125,3.2878418c0.8883057,1.1040039,1.8001709,2.1887207,2.7440186,3.2473145
			l11.1777344,12.8137817c1.866333,2.1311035,3.7209473,4.2712402,5.5615234,6.4227905
			c1.8840332,2.1140137,3.8164063,4.1859131,5.7215576,6.2807007l11.4621582,12.5342407
			c1.8824463,2.1133423,3.8719482,4.1279297,5.8470459,6.1550903l5.9189453,6.0853882l5.9157715,6.0845337
			c1.9820557,2.0176392,3.8820801,4.114502,5.9344482,6.062439l12.1151123,11.8770142l6.053833,5.9386597l6.2049561,5.8227539
			c4.1064453,3.892334,8.3560791,7.7311401,12.5454102,11.5919189
			c16.7894287,15.501709,34.1002197,30.9190674,51.2385254,46.9382935
			c4.2597656,4.0333862,8.5054932,8.1286011,12.7426758,12.2266846l6.3190918,6.2399292l3.1572266,3.1234741l3.1217041,3.1914673
			l6.241333,6.3841553l6.1474609,6.5357056c4.1231689,4.3179321,8.1075439,8.8509521,12.0742188,13.3688354
			c2.0111084,2.2265625,3.8961182,4.6141357,5.8424072,6.9215698c1.9210205,2.3383179,3.8876953,4.6231689,5.7675781,7.0064087
			l5.5979004,7.1936646c0.9283447,1.203186,1.8725586,2.3896484,2.7866211,3.6068115l2.6833496,3.7106934l5.3581543,7.4238281
			c1.7280273,2.5262451,3.4051514,5.0974121,5.1068115,7.6450195c3.4931641,5.0333252,6.5032959,10.4071045,9.6813965,15.6534424
			c0.8068848,1.3063965,1.5314941,2.6563721,2.2628174,4.0023193l2.1988525,4.0344238l2.1950684,4.0344238l1.0909424,2.0195313
			l1.0192871,2.0533447l4.0679932,8.2127686l1.0147705,2.0531006l0.9449463,2.0823975l1.8759766,4.1693115
			c5.1375732,11.0640869,9.3104248,22.4892578,13.303833,33.9172363
			c7.6958008,22.9542236,13.4503174,46.394043,17.2738037,69.9938965l1.416626,8.8479004
			c0.4614258,2.9490967,0.7791748,5.9158936,1.1743164,8.8706055c0.8150635,5.9082031,1.3547363,11.8366699,1.9709473,17.7513428
			c0.3308105,2.9555664,0.4949951,5.9223633,0.7496338,8.8807373c0.2141113,2.9610596,0.5075684,5.9160156,0.654541,8.8778076
			c0.3341064,5.9200439,0.6553955,11.8433838,0.7814941,17.7497559c0.0744629,2.9543457,0.1904297,5.9073486,0.2294922,8.8582764
			l0.0811768,8.8481445c0.0737305,5.8961182-0.0505371,11.7811279-0.1437988,17.6636963l-0.2832031,8.8115234l-0.1436768,4.4023438
			l-0.2094727,4.395752l-0.4197998,8.7852783c-0.168335,2.9241943-0.3599854,5.8460693-0.5766602,8.7667236
			c-3.3964844,46.7346191-9.892334,92.7229004-18.1433105,138.4372559l-0.0189209,0.1053467
			c-0.1154785,0.6395264-0.727417,1.0643311-1.3669434,0.9489746c-0.598877-0.1081543-1.0090332-0.6571045-0.9639893-1.2509766
			c3.6547852-46.1035156,7.321167-92.2312012,7.7740479-138.4207764
			c0.1799316-11.5440674,0.0428467-23.0855713-0.1971436-34.6218262
			c-0.3729248-11.5306396-0.8195801-23.0621338-1.7324219-34.559082c-1.6416016-23.0046387-4.666626-45.8988037-9.123291-68.5040283
			c-0.5129395-2.8348389-1.1391602-5.6456299-1.7640381-8.456543l-1.8668213-8.434082l-2.0909424-8.3797607l-1.0458984-4.1895752
			l-1.1673584-4.1564941l-2.3341064-8.3129883l-2.5765381-8.2388916l-1.2929688-4.1177979
			c-0.4320068-1.3723145-0.9373779-2.7197266-1.4024658-4.0808105l-2.8466797-8.1469727
			c-4.0471191-10.7657471-8.3007813-21.4667969-13.3018799-31.8223877l-1.8365479-3.9007568l-0.9237061-1.9476318
			l-0.9906006-1.9141846l-3.9614258-7.6566162l-0.9901123-1.9141846l-1.0588379-1.8764648l-2.1273193-3.7476807
			l-2.1269531-3.7476807c-0.706665-1.2504883-1.4061279-2.5053711-2.1848145-3.7126465
			c-11.9177246-19.6444092-25.8011475-38.0783691-41.0977783-55.2842407
			c-15.2918701-17.2191772-31.6872559-33.4642334-48.5469971-49.2384644
			c-16.8127441-15.8313599-34.005249-31.2996826-50.9296875-47.1085815
			c-4.2120361-3.9749756-8.4610596-7.9064331-12.6202393-11.9431152l-6.2657471-6.0230103l-6.1347656-6.1608887
			l-12.2685547-12.3215942c-2.0743408-2.0249023-4.0072021-4.1865234-6-6.2901611l-5.9416504-6.3463745l-5.9412842-6.3463745
			c-1.9819336-2.1140137-3.9777832-4.2153931-5.8657227-6.414856l-11.4884033-13.0498657
			c-1.9083252-2.1803589-3.8433838-4.3377686-5.7294922-6.5369873l-5.5428467-6.6964722l-11.0845947-13.3928223
			c-0.9355469-1.1065674-1.8387451-2.2390747-2.7181396-3.390686l-2.668457-3.430603l-5.3365479-6.861145l-5.3364258-6.861084
			l-2.6680908-3.430481c-0.8775635-1.1523438-1.715332-2.3348389-2.5749512-3.5007935l-10.2529297-14.0379639
			c-1.6962891-2.3484497-3.4454346-4.6593628-5.0980225-7.0386963l-4.9124756-7.170166l-9.8239746-14.3399658
			c-3.2084961-4.8238525-6.2807617-9.7381592-9.4274902-14.6026611l-4.6936035-7.3143311l-2.3457031-3.6578369l-2.2357178-3.7261353
			l-8.942627-14.9041138c-1.4710693-2.4952393-3.0239258-4.9428711-4.4276123-7.4771118l-4.244873-7.5831299l-8.4890137-15.1659546
			c-2.7320557-5.1080933-5.3676758-10.2682495-8.0559082-15.3996582l-4.0136719-7.7072144
			c-0.6621094-1.2879639-1.3531494-2.5613403-1.9914551-3.8612671l-1.8822021-3.9161377
			c-20.3842773-41.6191406-37.8099365-84.6707764-52.0355225-128.7507935
			c-0.199585-0.6182861,0.1398926-1.281189,0.7580566-1.4807129c0.5786133-0.1867065,1.1962891,0.0985718,1.4367676,0.6426392
			L1118.7608643,514.2382813z" class="color1279a3 svgShape"></path><path fill="none" stroke="#ff9a3a" stroke-linecap="round" stroke-linejoin="round" stroke-miterlimit="10" stroke-width="7.86" d="M846.5396729 575.7172241c-3.2556763 80.7731934 9.5880127 161.8961792 35.6723022 238.3240967 24.0852051 70.5707397 60.7824097 158.4152832 116.9595337 209.7474976 22.1467896 20.2368164 51.4538574 34.1729736 81.401001 32.3891602 25.2811279-1.5059814 50.8839111-13.8377686 74.9754639-6.0270996 24.3865967 7.90625 38.4173584 34.9257813 39.2564697 60.5483398.8392334 25.6225586-8.7142334 50.3099365-18.114624 74.1605225 26.8011475-23.7330322 73.7923584-18.559082 94.7879639 10.4365234 20.9954834 28.9957275 11.2467041 75.2547607-19.664917 93.3111572 22.3984375 5.0002441 41.909668 21.4849854 50.579834 42.7338867 8.670166 21.2490234 5.295166 40.9046631.0548096 54.0054932M799.37677 601.9188232c17.3091431 67.7941284 26.5644531 137.4373169 35.3876953 206.7449951 8.9558105 70.3494873 5.9190674 164.564209 51.7802734 223.7236328 44.0249634 56.7907715 78.1537476 111.4445801 40.8031616 186.1072998 32.87677 7.6899414 61.3395386 32.2180176 73.8007202 63.5986328 12.4611816 31.3804932 13.0812988 58.7106934-2.6396484 90.1525879" class="colorStrokedbb06e svgStroke"></path><path fill="#1483c5" d="M836.6137695,1802.7255859c48.7490234-41.1171875,92.2771606-87.5396729,128.6439819-138.8295898
			c36.5056763-51.1269531,66.4423218-106.5856934,88.4346313-164.8374023l4.0762939-10.9335938l3.8344727-11.0157471
			c1.3167725-3.6566162,2.4394531-7.3803711,3.6533203-11.0703125l1.7913818-5.5439453
			c0.5836182-1.8520508,1.1177979-3.7198486,1.6793213-5.5783691c1.0821533-3.7297363,2.2851563-7.4206543,3.3231201-11.1607666
			l3.1314697-11.2109375c1.9379883-7.5124512,3.9353027-15.0068359,5.6104736-22.5766602
			c3.4997559-15.1015625,6.4616699-30.3171387,8.913208-45.612915l0.9333496-5.7325439l0.8157959-5.751709
			c0.5224609-3.8371582,1.1452637-7.6584473,1.5610352-11.5100098l1.3731689-11.5332031l1.1177979-11.5605469
			c1.3171387-15.4276123,2.3483887-30.87854,2.7419434-46.3560791c0.3530273-15.4771729,0.213501-30.9610596-0.4145508-46.4244385
			c-1.2568359-30.9243164-4.4630127-61.7773438-9.8543701-92.2490234
			c-0.6864014-3.8061523-1.2617188-7.6334229-2.0367432-11.4232178l-2.2270508-11.3881836
			c-1.6447754-7.5579834-3.2260742-15.1324463-5.1082764-22.6362305
			c-3.6320801-15.0377197-7.7680664-29.9547119-12.4237061-44.7062988
			c-4.6326904-14.7565918-9.6461182-29.4039307-15.3006592-43.8048706
			c-5.644043-14.4042969-11.7783203-28.6107178-18.2641602-42.65979
			c-3.3626709-6.9658813-6.6553955-13.9608765-10.2642212-20.8444824
			c-3.4631348-6.9350586-7.2185669-13.774231-10.9163208-20.6360474
			c-7.5945435-13.6516113-15.2938843-27.3084717-23.4261475-40.8488159
			c-3.9921265-6.7877197-8.1502686-13.550293-12.2330322-20.3261108l-12.4337158-20.3551025
			c-8.281311-13.5966187-16.5968628-27.3120117-24.8104858-41.1101685
			c-4.0733032-6.9464111-8.1951294-13.8395386-12.128418-20.9031982c-1.9765015-3.522583-4.0015259-7.0003052-5.9362183-10.5577393
			l-5.8190918-10.6533203c-7.6340942-14.2926636-15.117981-28.7126465-21.7794189-43.6022949
			c-13.7515869-29.6347046-24.5571899-60.8219604-31.6246948-92.7876587
			c-1.6600342-8.0235596-3.2423706-16.0546265-4.4071655-24.1651001l-0.4676514-3.0327148l-0.3972778-3.0463257
			l-0.7858887-6.0878296c-0.3989868-4.0795288-0.9168091-8.1330566-1.1867065-12.2224731
			c-0.7221069-8.1500244-0.9907837-16.3432007-1.097168-24.5164795c-0.0596924-8.1813965,0.3223267-16.3615112,1.0014038-24.5023193
			c0.1501465-2.0353394,0.4126587-4.0668335,0.6141357-6.0969238c0.213623-2.0299988,0.4163818-4.0582581,0.7247314-6.0789795
			l0.8460693-6.05896l1.0386963-6.0282288l0.5280762-3.0077515l0.6279297-2.9917908
			c0.4265747-1.9920044,0.8200073-3.9868164,1.2740479-5.9693298c1.0045166-3.9482117,1.8726807-7.9144897,3.0910034-11.7978516
			c4.5558472-15.5932922,10.7779541-30.6358337,18.6350708-44.6464539l0.0311279-0.0555115
			c0.3103027-0.5533142,1.010376-0.7503357,1.5637207-0.440033c0.5274048,0.2957458,0.729248,0.9493713,0.4785767,1.4887695
			c-6.7189331,14.3578186-12.0005493,29.3974609-15.4717407,44.8694153
			c-0.9556885,3.8474121-1.6182251,7.7583313-2.3865356,11.6455383c-0.3396606,1.9520264-0.6191406,3.914856-0.9318237,5.8714905
			l-0.4573975,2.9369507l-0.3582764,2.9512329l-0.7005005,5.9038086l-0.5106812,5.9241028
			c-0.1968994,1.9725037-0.2889404,3.953064-0.3922119,5.9326172c-0.0911865,1.9800415-0.2438354,3.9570923-0.2848511,5.939209
			c-0.0822144,3.9640503-0.2124023,7.9268799-0.1251221,11.8925171c-0.0150146,3.9656372,0.1842041,7.9276123,0.3321533,11.8898926
			c0.453064,7.9168091,1.0574951,15.8312378,2.1055298,23.6968384c0.432373,3.9433594,1.111145,7.8552246,1.6672974,11.7821655
			l1.0206909,5.862793l0.5129395,2.9307861l0.5827637,2.9182129c1.4694824,7.7988281,3.3479004,15.5149536,5.2924805,23.2077637
			c4.0551147,15.3457642,8.8637085,30.5012817,14.562439,45.3257446
			c5.6487427,14.8444214,12.0469971,29.3953247,19.1837769,43.598938
			c14.0368652,28.5363159,30.3186035,55.9296265,47.1325073,82.97052
			c16.8606567,27.0265503,34.3876343,53.6634521,51.1785278,80.8117065
			c8.4483032,13.538208,16.5960083,27.27771,24.5149536,41.1517334c3.8848877,6.9816284,7.8216553,13.9341431,11.4914551,21.0377808
			c3.8039551,7.0303345,7.3114014,14.2180176,10.8808594,21.3728027
			c27.8514404,57.5951538,47.4268799,119.1356812,58.4241943,182.1488647
			c10.8748779,63.0352783,13.2081299,127.5618896,6.5615234,191.1829834l-1.3162842,11.9202881l-1.5776367,11.8884277
			c-0.4848633,3.9686279-1.1779785,7.9074707-1.7716064,11.8604736l-0.9233398,5.9246826l-1.0422363,5.9049072
			c-0.7253418,3.9311523-1.3612061,7.8789063-2.1600342,11.7960205l-2.3791504,11.7540283
			c-1.7414551,7.8023682-3.4260254,15.619873-5.4376221,23.3583984c-1.8731689,7.7731934-4.0709229,15.4619141-6.2120361,23.163208
			l-3.4376221,11.487915c-1.1425781,3.8302002-2.4385986,7.6126709-3.6505127,11.4211426
			c-0.6221924,1.8990479-1.2174072,3.807251-1.8619385,5.6987305l-1.9744873,5.6606445
			c-1.3361816,3.7666016-2.581543,7.565918-4.0211182,11.2950439l-4.2042236,11.2285156l-4.4472656,11.1340332
			c-24.0731201,59.2429199-56.4481201,115.0662842-95.6643066,165.5360107
			c-39.303833,50.3983154-85.4888306,95.4445801-137.131897,133.0539551c-0.5125732,0.373291-1.2307739,0.260376-1.604126-0.2523193
			c-0.3563232-0.4892578-0.2696533-1.1657715,0.1846924-1.5510254L836.6137695,1802.7255859z" class="color1279a3 svgShape"></path><path fill="none" stroke="#ff9a3a" stroke-linecap="round" stroke-linejoin="round" stroke-miterlimit="10" stroke-width="7.86" d="M884.5319824 558.6862183c35.6071777 134.0344849 84.9258423 291.0890503 228.4307861 344.1958008 71.0925293 26.3091431 136.0794678 29.0778198 210.4460449 39.6577148M942.1754761 550.8257446c50.8861084 95.0593262 107.8499146 234.6314087 233.1942749 246.2950439M1015.8340454 607.227356c41.628479 61.5056152 101.8921509 90.3273315 101.8921509 90.3273315" class="colorStrokedbb06e svgStroke"></path><path fill="#d6d6af" d="M1453.3166504,602.7050171c-3.06604-4.0875854-6.4196777-7.9915771-10.0355225-11.6599121
			c-27.3017578-27.7473755-63.5913086-36.2629395-101.0334473-38.9355469
			c-38.9876709-2.7775269-51.1977539,3.3276978-85.2338867,21.8520508
			c-44.5166016,24.2105713-96.8935547-27.039917-146.9382324-19.1531982
			c-38.1759033,6.0003052-64.5872803,44.8309326-102.6320801,51.4859009
			c-48.3418579,8.4630737-94.7709961-38.0447998-142.4840088-26.6730347
			c-47.5297852,11.345459-70.1417847,74.3863525-118.3790283,82.194397
			c-35.4505005,5.7383423-72.9713745-21.4067993-105.9069824-7.1008301
			c-25.7298584,11.1881104-36.1842651,42.8660889-59.5562134,58.3247681
			c-23.7122192,15.6426392-54.918457,11.3979492-82.4563599,18.3673706
			c-31.0488281,7.8342285-56.8573303,31.9399414-69.0935974,61.3905029
			c-76.53479-116.2827148,84.2644348-296.8639832,163.8387146-371.9057312
			c107.1646118-101.0594482,250.4085693-162.9214172,398.8931885-134.3616028
			c137.6629639,26.5684814,272.9422607,97.6009827,386.3950195,178.0922241
			C1430.6256104,501.4616699,1459.0808105,552.8170776,1453.3166504,602.7050171z" class="colorafd6b3 svgShape"></path><path fill="none" stroke="#126da3" stroke-linecap="round" stroke-linejoin="round" stroke-miterlimit="10" stroke-width="10.481" d="M1449.1765137,599.2987061c-26.2015381-31.4419556-69.4866943-44.5165405-106.928833-47.1891479
			c-38.9876709-2.7775269-51.1977539,3.3276978-85.2338867,21.8520508
			c-44.5166016,24.2105713-96.8935547-27.039917-146.9382324-19.1531982
			c-38.1759033,6.0003052-64.5872803,44.8309326-102.6320801,51.4859009
			c-48.3418579,8.4630737-94.7709961-38.0447998-142.4840088-26.6730347
			c-47.5297852,11.345459-70.1417847,74.3863525-118.3790283,82.194397
			c-35.4505005,5.7383423-72.9713745-21.4067993-105.9069824-7.1008301
			c-25.7298584,11.1881104-36.1842651,42.8660889-59.5562134,58.3247681
			c-23.7122192,15.6426392-54.918457,11.3979492-82.4563599,18.3673706
			c-31.0488281,7.8342285-51.6170349,29.3197632-63.853302,58.7703247" class="colorStroke1279a3 svgStroke"></path><path fill="#ffffff" d="M738.6240845 432.9075317c5.8939819-7.1645813 11.3677979-15.0815125 13.2084961-24.174469 1.84021-9.0901794-.7336426-19.6014709-8.3231201-24.9410706-28.7660522-20.2383118-127.0324707 67.3258362-104.717041 96.197876C662.1237183 510.1763306 724.8907471 449.6015625 738.6240845 432.9075317zM567.7800293 542.0098877c-16.5217896 5.696106-34.5346069 37.3397217-14.4524536 47.3049927 6.6001587 3.2752075 14.8938599.7695313 20.4241943-4.1063843 9.3939819-8.2841187 17.071106-28.9389648 7.3330078-40.1418457C577.4761353 540.9169922 572.6940308 540.3157349 567.7800293 542.0098877z" class="colorffffff svgShape"></path><path fill="#e0e0e0" d="M1263.6630859 512.7005005c-.5594482 3.5921631 2.5806885 7.6060791 6.9229736 8.1121826 4.3562012.5077515 8.4622803-1.7728271 9.0618896-5.6228027.5594482-3.5923157-2.5808105-7.6062012-6.9229736-8.1122131C1268.3687744 506.5699463 1264.2626953 508.8504639 1263.6630859 512.7005005zM1320.7030029 493.5448608c-.435791 2.7980042 2.822876 6.0510254 7.1594238 6.5938416 4.3504639.5445862 8.3583984-1.1056519 8.8254395-4.1044617.435791-2.7980652-2.822998-6.0510254-7.1594238-6.5938416C1325.1779785 488.895813 1321.1700439 490.546051 1320.7030029 493.5448608zM1255.678833 488.3685608c-.435791 2.7980042 2.822876 6.0510254 7.1594238 6.5938416 4.3504639.5445862 8.3583984-1.1056519 8.8254395-4.1044617.435791-2.7980042-2.822998-6.0510254-7.1594238-6.5938416C1260.1538086 483.7195129 1256.145874 485.369751 1255.678833 488.3685608zM1277.5410156 469.444397c-.6899414 4.4298401 4.4693604 9.5799561 11.3345947 10.4392395 6.8876953.8621521 13.2329102-1.7504578 13.97229-6.4981384.6898193-4.429718-4.4691162-9.579834-11.3345947-10.4392395C1284.6256104 462.0841064 1278.2803955 464.6967163 1277.5410156 469.444397zM1231.0629883 440.1809082c-.5594482 3.5921936 3.6242676 7.7685547 9.1916504 8.4654846 5.5853271.6990662 10.730957-1.4194946 11.3304443-5.2695313.5594482-3.5922852-3.6242676-7.7686768-9.1915283-8.4654846C1236.8081055 434.2122192 1231.6625977 436.3308716 1231.0629883 440.1809082zM1223.1879883 471.4529724c-.9855957.0591125-1.8654785.2852783-2.6400146.6786194-.8222656.3493042-1.4381104.8187256-1.8474121 1.4084167-.5769043.5381775-.9005127 1.1646423-.9709473 1.879303.0206299.4701843.0410156.9403687.0616455 1.410553.2294922.9285278.770752 1.7880554 1.6235352 2.5783997.4769287.348999.9537354.6979675 1.4306641 1.046875 1.1265869.6522217 2.3835449 1.0877991 3.770874 1.3068542l3.6856689.5739441c1.0543213.1915283 2.0645752.1976013 3.0310059.0181274.9853516-.0591125 1.8653564-.2852783 2.6398926-.6785889.8222656-.3493347 1.4381104-.8187561 1.8475342-1.4084167.5767822-.538208.9003906-1.1646729.9708252-1.8792419-.0205078-.4702454-.0411377-.9404602-.0616455-1.4106445-.2294922-.9285278-.7706299-1.7880249-1.6234131-2.5783997-.4769287-.3489685-.9538574-.697937-1.4307861-1.0468445-1.1265869-.6522522-2.3835449-1.0878296-3.770874-1.3067932l-3.6855469-.5739746C1225.1646729 471.2796021 1224.1542969 471.2734985 1223.1879883 471.4529724zM1210.7182617 501.3422241c-.5594482 3.5922852 2.5808105 7.6062012 6.9228516 8.1122131 4.3563232.5077209 8.4624023-1.7727966 9.0620117-5.6228333.5593262-3.5921936-2.5808105-7.6060791-6.9229736-8.1121826C1215.4239502 495.211792 1211.317749 497.492218 1210.7182617 501.3422241z" class="colore0e0e0 svgShape"></path></g></svg>