<svg xmlns="http://www.w3.org/2000/svg" fill-rule="evenodd" clip-rule="evenodd" image-rendering="optimizeQuality" shape-rendering="geometricPrecision" text-rendering="geometricPrecision" viewBox="0 0 512 512" id="Jellyfish"><path fill="#ff9a3a" d="M257 504c-1,0 -3,0 -4,-1 -31,-29 -6,-92 4,-104 31,-37 15,-79 -1,-119 -8,-22 -16,-43 -17,-63 0,-3 3,-6 6,-6 4,0 6,2 7,6 1,18 8,38 16,59 16,41 34,88 -1,131 -9,11 -29,65 -6,86 3,3 3,7 1,9 -1,1 -3,2 -5,2z" class="color76def9 svgShape"></path><path fill="#ff9a3a" d="M200 453c-1,0 -2,-1 -3,-2 -3,-2 -4,-6 -2,-8 38,-56 24,-115 10,-173 -3,-13 -6,-26 -8,-38 -1,-3 2,-7 5,-7 3,-1 7,2 7,5 2,12 5,25 8,37 14,58 29,123 -12,183 -1,2 -3,3 -5,3z" class="color76def9 svgShape"></path><path fill="#ff9a3a" d="M177 510c-2,0 -3,0 -4,-2 -32,-28 -6,-90 4,-103 30,-38 14,-79 -1,-119 -8,-23 -17,-45 -17,-66 0,-4 3,-7 6,-7 3,0 6,3 6,7 0,19 8,40 17,62 16,41 34,88 -1,131 -9,11 -29,65 -6,86 3,3 3,6 1,9 -2,1 -3,2 -5,2z" class="color76def9 svgShape"></path><path fill="#ff9a3a" d="M121 512c-1,0 -3,0 -4,-2 -31,-28 -6,-90 4,-103 31,-37 15,-79 0,-119 -10,-25 -19,-48 -17,-71 0,-4 3,-7 7,-6 3,0 6,3 5,6 -1,20 7,43 16,67 16,41 34,88 -1,131 -9,11 -29,65 -6,86 3,3 3,7 1,9 -1,1 -3,2 -5,2z" class="color76def9 svgShape"></path><path fill="#ff9a3a" d="M132 449c-2 0-4-1-5-3-40-59-25-124-11-182 3-15 7-29 9-44 0-3 3-5 7-5 3 1 6 4 5 7-3 15-6 30-10 45-13 58-27 117 10 172 2 3 1 7-1 9-1 1-3 1-4 1zM379 510c-2 0-3 0-5-2-31-28-5-90 5-103 30-38 14-79-1-119-9-24-18-47-17-70 0-3 3-6 7-6 3 0 6 3 6 7-1 20 7 42 16 65 16 41 34 88-1 131-9 12-29 65-5 87 2 2 2 6 0 8-2 1-4 2-5 2z" class="color76def9 svgShape"></path><path fill="#ff9a3a" d="M323 512c-2,0 -3,0 -4,-2 -31,-28 -6,-90 4,-103 31,-37 15,-79 0,-119 -10,-24 -19,-47 -18,-70 0,-3 3,-6 7,-6 3,0 6,3 6,7 -1,20 7,42 16,65 16,41 34,88 -1,131 -9,12 -29,65 -5,87 2,2 2,6 0,8 -2,1 -3,2 -5,2z" class="color76def9 svgShape"></path><path fill="#ff9a3a" d="M334 449c-2,0 -4,-1 -5,-3 -38,-56 -20,-118 -5,-172 4,-16 8,-31 11,-45 1,-3 4,-5 7,-5 4,1 6,4 5,8 -3,14 -7,29 -11,45 -15,55 -31,111 4,163 2,3 1,6 -1,8 -2,1 -3,1 -5,1z" class="color76def9 svgShape"></path><path fill="#14c5af" d="M409 238l-19 0c-1,0 -1,0 -1,0 -11,-1 -18,-6 -18,-13 -1,-1 -4,-3 -9,-3 -5,0 -8,2 -9,3 -1,7 -7,12 -18,13 -1,0 -1,0 -1,0l-6 0c0,0 0,0 -1,0 -11,-1 -17,-6 -18,-13 0,-1 -3,-3 -9,-3 -5,0 -8,2 -9,3 0,7 -7,12 -18,13 0,0 0,0 -1,0l-6 0c0,0 0,0 0,0 -11,-1 -18,-6 -18,-13 -1,-1 -4,-3 -9,-3 -6,0 -9,2 -10,3 0,7 -7,12 -18,13 0,0 0,0 0,0l-6 0c-1,0 -1,0 -1,0 -11,-1 -18,-6 -18,-13 -1,-1 -4,-3 -9,-3 -6,0 -9,2 -9,3 -1,7 -7,12 -18,13 -1,0 -1,0 -1,0l-6 0c0,0 0,0 -1,0 -11,-1 -17,-6 -18,-13 -1,-1 -3,-3 -9,-3 -6,0 -9,2 -9,3 -1,3 -5,5 -8,4 -3,0 -5,-4 -5,-7 2,-13 5,-27 9,-41 1,-3 3,-4 6,-4 2,0 5,1 5,3 1,0 1,1 1,1l138 -11 0 0 66 -3 0 0 30 8 20 1c1,-1 10,-3 11,-3 1,0 9,4 15,8 1,-2 3,-3 5,-3 3,0 6,3 6,7 0,0 0,0 1,0 1,1 2,2 2,3 4,15 6,29 7,43 0,2 -1,4 -2,5 -1,1 -3,2 -4,2z" class="color6ac8e0 svgShape"></path><path fill="#ff9a3a" d="M417 200c-1,0 -3,0 -4,0 -12,-1 -20,-7 -20,-15 -1,-1 -5,-3 -12,-3 -6,0 -10,2 -11,3 -1,8 -9,14 -20,15 -2,0 -3,0 -4,0 -2,0 -3,0 -5,0 -11,-1 -20,-7 -20,-15 0,-1 -5,-3 -11,-3 -7,0 -11,2 -12,3 0,8 -8,14 -20,15 -2,0 -3,0 -4,0 -1,0 -3,0 -4,0 -12,-1 -20,-7 -20,-15 -1,-1 -5,-3 -12,-3 -7,0 -11,2 -12,3 0,8 -8,14 -20,15 -1,0 -2,0 -4,0 -1,0 -3,0 -4,0 -12,-1 -20,-7 -20,-15 -1,-1 -5,-3 -12,-3 -7,0 -11,2 -12,3 -1,8 -8,14 -20,15 -3,1 -5,1 -8,0 -12,-1 -20,-7 -20,-15 -1,-1 -5,-3 -12,-3 -7,0 -11,2 -12,3 -1,4 -4,5 -7,5 -4,0 -6,-3 -5,-7 6,-104 87,-183 184,-183 102,0 185,85 188,194 0,1 0,3 -1,4 -2,2 -3,2 -5,2l-15 0c-1,0 -3,0 -4,0z" class="color76def9 svgShape"></path><path d="M103 185c0,0 0,0 0,0 0,0 0,0 0,0z" fill="#592d72" class="color000000 svgShape"></path><path fill="#fdff3d" d="M143 151c-3 0-6-1-9-4-4-4-7-11-8-20 0-18 6-35 17-48 16-17 34-28 47-29 5 0 9 2 13 4 3 3 5 8 6 14 0 14-9 33-23 49-17 18-30 34-43 34zM397 148c-3 0-5-2-6-4-12-32-33-60-61-80-3-2-4-5-2-8 2-3 6-4 9-2 29 21 52 50 65 85 2 3 0 7-3 8 0 1-1 1-2 1z" class="colorffffff svgShape"></path><path fill="#14c5af" d="M257 23c93,0 170,71 185,167 -5,-107 -87,-190 -188,-190 -97,0 -178,79 -184,183 -1,3 1,6 4,7 13,-97 90,-167 183,-167z" class="color6ac8e0 svgShape"></path></svg>