<svg xmlns="http://www.w3.org/2000/svg" viewBox="0 0 128 128" id="Kangaroo"><path fill="#14c5af" d="M10.1 51.3S5.9 42.2 1 39.6c0 0-2.9 8.7 5.8 13.2l3.3-1.5z" class="colord17920 svgShape"></path><path fill="#c16610" d="m10.1 51.3-2 .9C7.2 48.1 1 39.6 1 39.6c4.9 2.6 9.1 11.7 9.1 11.7z" class="colorc16410 svgShape"></path><path fill="#c96c14" d="M35.8 60.1c-.7 1.2-.8 2.7-.5 4.1.2 1.4.8 2.7 1.5 3.9.6 1 1.2 2.1 1.4 3.2.4 1.5 0 3.2-.3 4.7-.2 1.1-.5 2.3-.7 3.4-.2 1-.4 2.1-.1 3.1.1.5.4.9.6 1.3.7 1.1 1.6 2 2.8 2.5 1.2.5 2.6.6 3.7 0 .7-.4 1.3-.9 1.8-1.6.6-.8 1.3-1.9.8-2.7-.6.5-1.5.6-2.2.4-1.3-.4-2.1-1.8-3.3-2.4.7-1.5 1.4-3.1 2.3-4.5 1.3-2.1 3-4.2 3.2-6.7.1-1.6-.5-3.2-1.4-4.5-1-1.3-2.3-2.3-3.7-3-1-.5-2.1-.9-2.5-1.9l-3.4.7z" class="colorc96a14 svgShape"></path><path fill="#b70d0d" d="M44.4 82.4c-1.3-.4-2.1-1.8-3.3-2.4.7-1.5 1.4-3.1 2.3-4.5 1.3-2.1 3-4.2 3.2-6.7.1-1.6-.5-3.2-1.4-4.5-1-1.3-2.3-2.3-3.7-3-1-.5-2.1-.9-2.5-1.9 0 0 0 2.1 3.8 5.3 3.8 3.2-3.2 13.6-3.2 15.4 0 1.8 2.2 1.8 2.4 2 .2.1 3.6 1.2 3.4 1.7-.3.5-1.5 2.5-3.9.6 0 0 0 1.2 2.2 1.5 0 0-3 1-6-2.2.7 1.1 1.6 2 2.8 2.5 1.2.5 2.6.6 3.7 0 .7-.4 1.3-.9 1.8-1.6.6-.8 1.3-1.9.8-2.7-.8.6-1.6.7-2.4.5z" class="colorb75a0d svgShape"></path><path fill="#c96c14" d="M47.9 63.5s12.3 20.9 10.7 27.6c-1.6 6.7-12.3 12.7-15.7 12.5-3.4-.1-5.5 5.4-3.8 8.2 1.7 2.8 19.8-6.6 19.8-6.6l7.4-15.5-6.2-24.9-5.5-4.9-6.7 3.6z" class="colorc96a14 svgShape"></path><path fill="#ff2020" d="M38.6 108.5s.7-4.2 3.7-3.5c2 .4 6.5-1.2 8.1-1.7l-4.5 2-2.1.5h-2.7c.1 0-2.4 1.6-2.5 2.7z" class="colorc0610f svgShape"></path><path fill="#e0852f" d="M38.6 108.5s1.2-2.4 4-2.2c2.8.2 7.9-3 7.9-3s-6.4 3-7.7 2.4c-1.2-.7-4.2 1.2-4.2 2.8z" class="colore08d2f svgShape"></path><path fill="#e0852f" d="M15 50s6 2.2 10 4.8c3.9 2.6 6.7-18.2 23.3-25.5 8.2-3.6 17.5-7.2 39.8-1.3 20.6 5.4 37.5-19.4 37.5-19.4s.6-1.4 1.3-1.3c.7.1.4 1.7.4 1.7s-6 30.8-45.9 30.5c0 0-.3 0-.8.2 1 3.4 1 8.1-2.4 14.4-8 15-13.2 17.2-8.5 29.1 2.2 5.2 2.2 5.5 2.2 5.5 1.1 2.1-.2 3.5-.3 3.7-.7.9-1.8 2.5-2.7 4.6-1.5 3.6-12.2 19.3-20.7 22.5-8.6 3.2-8.4-1.2-8.4-1.2-1.9.1-2.4-2.5-2.4-2.5.1-7.7 4.4-7.9 4.4-7.9 11.2-1.2 20.7-15.3 20.7-15.3s.4-6.3-2.8-14.4c-3.2-8.1-5.6-13-5.6-13s-6.5 6.9-15.9 7c-9.4.1-13.4-1.1-17.2-4-3.7-2.9-5.7-1.3-5.7-1.3L15 50z" class="colore08d2f svgShape"></path><path fill="#ff2020" d="M53.8 109.1s-2.8 3-8 3.6c-6.7.8-6.2 5.7-6.2 5.7s-1.9-4.4 1.2-5.6c3.5-1.3 9.3-1 13-3.7z" class="colorc0610f svgShape"></path><path fill="#e8994d" d="M39.8 118.2s-1.3-4.5 2-5.3c3.3-.8 9.7-1.3 12-3.8 0 0-1.9 3.3-11.3 5 0 0-2.1.2-2.7 4.1z" class="colore8a24d svgShape"></path><path fill="#14c5af" d="m79 36.5-3.3-3.8s17.9 2.6 27-1.2c8.1-3.4 18.8-10 24.7-22 0 0-3.1 13.8-20.2 22.4C90 40.5 79 36.5 79 36.5z" class="colord17920 svgShape"></path><path fill="#fdff3d" d="M102.6 32.8c5.3-1.9 18.8-9.4 24.7-23.3-1 4.1-8.9 30.3-45.8 29.9 0 0-.3 0-.8.2L77 34.4c.1 0 14.9 2.1 25.6-1.6z" class="colorfbd6aa svgShape"></path><path fill="#f7c697" d="M80.1 38.6c.5-.1.8-.2.8-.2 30.8.1 41.9-17.4 45.5-26-2.9 8-13.2 27.4-44.9 27.1 0 0-.3 0-.8.2l-3.6-5.1 3 4z" class="colorf7c797 svgShape"></path><path fill="#14c5af" d="M80.8 39.6s-1.7-7-9.8-10c0 0 13.4 9.9 4.4 24.6-8.9 14.7-11.8 18.7-9.4 25.4 2.4 6.7 3.3 7.7 3.7 10.5 0 0-1.6 3.2-3 6.6-1.4 3.4-9.8 16.4-15.9 19.3-6.1 2.9-10.4 4-11 2.3l-.1.1c0 .2.1 4.3 8.4 1.2 8.6-3.2 19.2-18.8 20.7-22.5.9-2.1 2-3.7 2.7-4.6.2-.2 1.4-1.6.3-3.7 0 0 0-.3-2.2-5.5-4.6-12 .6-14.2 8.8-29.3 3.4-6.3 3.4-11 2.4-14.4z" class="colord17920 svgShape"></path><path fill="#fdff3d" d="M19.3 61.2s5.6 4.2 8.3 4.8c3.4.7 7.9 1.5 7.9 1.5s11.9-3.8 17.2-9.3l.9 4.7.5 2.4c-2 1.8-8.4 6.9-15.9 7-9.4.1-13.4-1.1-17.2-4-1.1-.9-2-1.3-2.8-1.6l1.1-5.5z" class="colorfbd6aa svgShape"></path><path fill="#f7c697" d="M18.5 65.6c.7.3 1.5.7 2.4 1.4 3.7 2.9 7.7 4.1 17.2 4 7.4-.1 13.8-5.1 15.8-6.9l.2 1.2c-2 1.8-8.4 6.9-15.9 7-9.4.1-13.4-1.1-17.2-4-1.1-.9-2-1.3-2.8-1.6l.3-1.1z" class="colorf7c797 svgShape"></path><path fill="#14c5af" d="M53.6 55.3c-2.4 3.8.6 10 .6 10s-2.2 2.3-5.8 4.3l-.2-1.1 4-3s-3.5-7.6 1.5-12.7c5-5 5.7-9.2 5.7-9.2-.1 5.8-4.6 9.8-5.8 11.7z" class="colord17920 svgShape"></path><path fill="#f7c697" d="m48.3 69.4-.2-1 4-3s-1.2-2.5-1.2-5.7c.6-.5 1.2-1 1.7-1.5-.3 3.4 1.5 7.1 1.5 7.1-1 .9-3.1 2.6-5.8 4.1z" class="colorf7c797 svgShape"></path><path fill="#e0852f" d="M35.1 62.4c0 1.4-1.8 2.7-1 3.8.8 1.1 4.3 2.1 5.4 2.9 1 .7 1.9 1.5 2.8 2.3 1.1 1.1 1.4 2.7 1.8 4.2.3 1.1.6 2.3.9 3.4.3 1 .6 2 1.3 2.8.3.4.7.6 1.1.9 1.1.6 2.4 1.1 3.6 1 1.3-.1 2.6-.6 3.3-1.7.5-.6.7-1.4.9-2.2.2-1 .3-2.2-.6-2.8-.3.7-1 1.2-1.8 1.3-1.4.2-2.7-.7-4-.7-.1-1.7-.1-3.4 0-5 .2-2.5.8-5.1-.2-7.4-.6-1.5-1.9-2.7-3.3-3.4-1.4-.7-3.1-1-4.7-1-1.1 0-2.2.1-3.1-.5l-2.4 2.1z" class="colore08d2f svgShape"></path><path fill="#14c5af" d="M52.9 78.5c-1.4.2-2.7-.7-4-.7-.1-1.7-.1-3.4 0-5 .2-2.5.8-5.1-.2-7.4-.6-1.5-1.9-2.7-3.3-3.4-1.4-.7-3.1-1-4.7-1-1.1 0-2.2.1-3.1-.5 0 0 .9 1.9 5.8 3 4.9 1.1 3.3 13.6 4.1 15.2.8 1.6 2.8.6 3 .6.2 0 3.8-.6 3.8 0s-.2 2.9-3.2 2.3c0 0 .6 1 2.7.3 0 0-2.2 2.3-6.4.8 1.1.6 2.4 1.1 3.6 1 1.3-.1 2.6-.6 3.3-1.7.5-.6.7-1.4.9-2.2.2-1 .3-2.2-.6-2.8-.3.8-1 1.3-1.7 1.5zM52.6 56.9 51 59.7s.7 3.4 3.1 5.5c0 .1-2.1-7-1.5-8.3z" class="colord17920 svgShape"></path><path fill="#ff9a3a" d="M59.4 43.4s1.3 4.2-2.3 9.2-1.6 10.4-.5 13.2c1.2 2.8 9.1 22.6 5.7 26.8-3.3 4.2-.3.1-.3.1s1-5.7-2.3-14.2c-3.8-9.8-9.1-18.5-7-22.3 2.1-3.6 5.6-9.4 5.6-9.4l1.1-3.4z" class="coloreba14a svgShape"></path><path fill="#14c5af" d="M42.5 71.7s-4.1-4.7-8.3-4.8c0 0 5.9 2.4 8.3 4.8z" class="colord17920 svgShape"></path><path fill="#e0852f" d="M11.5 49.7s-3.7.2-6.1 4.3c-2.4 4.1-1 7.8-.9 8.6 0 .8 2.2 3-.5 7.5s5.8 3.1 6.7 2.3c0 0 .8 1.3 1.9 1.8 1.3.6 2.9.3 3.3-1.8.6-3.1.5-4 2.7-5.8 2.2-1.8 4.9-4.6 3.6-8.9-1.3-3.9-3.9-7.9-10.7-8z" class="colore08d2f svgShape"></path><path fill="#9e0e0e" d="M8.6 62.6s2.2-1.2 2.5-2.5c.3-1.3-.4-2.6-1.7-3-1.3-.3-2.6.4-3 1.7-.3 1.4.5 3.2 2.2 3.8z" class="color9e4f0e svgShape"></path><path fill="#ffffee" d="M8.7 62.5s2-1.1 2.3-2.3c.3-1.2-.4-2.3-1.6-2.6-1.2-.3-2.3.4-2.6 1.6-.3 1.1.4 2.7 1.9 3.3z" class="coloreef7ff svgShape"></path><path fill="#1483c5" d="M9.6 59.5c.5.5.7 1.2.6 1.9-.7.6-1.5 1.1-1.5 1.1-1.2-.4-1.9-1.6-2-2.6.1-.1.1-.2.2-.3.7-.8 1.9-.8 2.7-.1z" class="color125ae2 svgShape"></path><ellipse cx="8.1" cy="61.1" fill="#030005" rx=".9" ry="1.3" transform="rotate(132.877 8.144 61.083)" class="color050100 svgShape"></ellipse><ellipse cx="8.4" cy="60.3" fill="#fffffc" rx=".3" ry=".6" transform="rotate(132.877 8.407 60.298)" class="colorfffcfd svgShape"></ellipse><path fill="#592d72" d="M5.4 69.9c.8.7 1.6 2.6 1.3 3.3-2.2.1-4.3-.6-2.8-3.2 0 .1.7-.8 1.5-.1z" class="color601e00 svgShape"></path><path fill="#e4a970" d="M12.7 67.5s2.6 4.4.9 5.4c-1.1.6-2.2-.8-2.2-.8s1.8-2.9 1.3-4.6z" class="colore4707d svgShape"></path><path fill="#fcd7b4" d="M13.2 71.2c.1-.6.4-1 .7-1.2.4 1.2.6 2.4-.3 2.9-.8.5-1.7-.2-2-.6.8-1.3 1.6-1.1 1.6-1.1z" class="colorfcb4b8 svgShape"></path><path fill="#45006d" d="M11.6 71.7c0 .1 1.1 1.4 2.2.8.1-.1.2-.1.3-.2-.1.3-.2.5-.5.6-1.1.6-2.3-.8-2.3-.8s.2-.2.3-.4z" class="color6d0000 svgShape"></path><path fill="#cd721c" d="M6.6 72.2s7.4.9 5.9-7.4c.5 1.5 2.2 8.6-5.8 8.5l-.1-1.1z" class="colorcd711c svgShape"></path><path fill="#9e0e0e" d="M5.9 56.6s.5-2.1 3.6-1.8c0 0-3-1.7-3.9 1-.1.2-.1 1.2.3.8z" class="color9e4f0e svgShape"></path><path fill="#cd721c" d="M14.2 65.4s-1.6-.9-2.9.5c0 0 .9-2.4 2.9-.5z" class="colorcd711c svgShape"></path><path fill="#14c5af" d="M14.7 72.6c.5-2.1.5-3.9 1.1-4.9 1.5-2.6 8.2-6.1 5.1-13 .5.9.9 2 1.2 3 1.3 4.3-1.4 7.2-3.6 8.9-2.2 1.8-2.1 2.7-2.7 5.8-.4 2.1-2.1 2.4-3.3 1.8-1.1-.5-1.9-1.8-1.9-1.8s1.1 1.1 2.3 1.3c.9.2 1.6-.2 1.8-1.1z" class="colord17920 svgShape"></path><path fill="#14c5af" d="M21.2 62.5s5 4.4 11 4.4c0 0-7.7-1.5-10.4-5.8l-.6 1.4z" class="colord17920 svgShape"></path><path fill="#ff9a3a" d="M26.9 54.3c3.3-3.5 7.5-18.9 21.4-25 7.9-3.4 16.8-6.9 37.4-1.9-8.2-.6-21-2.1-30.7 1.1-18.3 6-26.1 25.3-28.1 25.8z" class="coloreba14a svgShape"></path><path fill="#14c5af" d="M24.8 54.6c-.7-.1-1.7-.3-2.9-.9-6.5-2.9-8.6-1.2-8.6-1.2l1.5-2.5h.3c-.1 0 5.7 2.1 9.7 4.6z" class="colord17920 svgShape"></path><path fill="#e0852f" d="M13.3 52.8s8.3-5.8-1.4-18.1c0 0 .2 1.8-2.6 6.8-2.8 5.1 1.1 11.4 1.1 11.4l2.9-.1z" class="colore08d2f svgShape"></path><path fill="#ecc199" d="M13 50.8s5.9-3.9-.9-12.2c0 0 .2 1.2-1.9 4.6-2 3.4.7 7.6.7 7.6H13z" class="colorec9d99 svgShape"></path><path fill="#d59558" d="M12.1 38.8v-.2c6.9 8.2.9 12.2.9 12.2h-1.6c1.1-.6 5.6-4 .7-12z" class="colord55860 svgShape"></path><path fill="#ff9a3a" d="M6.7 55.8c.8-.8 1.9-1.1 3-.7 1 .3 1.8 1.2 2 2.3 0 .2 0 .3-.1.4-.2.2-.4 0-.6-.1-.8-.6-1.8-.9-2.8-.7-.5.1-.9.3-1.3.6-.2.2-.7 1.1-.9 1-.3-.1-.1-1.2 0-1.4.1-.6.4-1.1.7-1.4z" class="coloreba14a svgShape"></path></svg>