<svg xmlns="http://www.w3.org/2000/svg" viewBox="0 0 128 128" id="Koala"><ellipse cx="64" cy="85.3" fill="#ff2020" rx="24.3" ry="32.9" class="color808a91 svgShape"></ellipse><g fill="#ff2020" class="color808a91 svgShape"><ellipse cx="43.4" cy="100.7" rx="12.3" ry="18.7" transform="rotate(-28.3 43.442 100.733)" fill="#14c5af" class="color000000 svgShape"></ellipse><ellipse cx="84.6" cy="100.7" rx="12.3" ry="18.7" transform="rotate(-151.7 84.552 100.739)" fill="#14c5af" class="color000000 svgShape"></ellipse></g><ellipse cx="64" cy="77.3" fill="#fdff3d" rx="16" ry="21.7" class="colore7e8ea svgShape"></ellipse><path fill="#1483c5" d="M43.3 102.2c5.2 8.6 4.5 19.7-2.2 23.8-6.7 4.1-16.9-.4-22.1-8.9s-3.5-18 3.2-22.1c6.8-4.2 15.9-1.4 21.1 7.2z" class="color8e979e svgShape"></path><path fill="#c8c7c6" d="M37.1 107.1c3.7 6 3.5 13.9-.9 16.6-4.5 2.7-11.6-.8-15.2-6.8-3.7-6-2.5-12.3 1.9-15 4.5-2.7 10.5-.8 14.2 5.2z" class="colorc6c6c8 svgShape"></path><path fill="#6b5f72" d="M36 112.3c1.9 3.1 1.4 7.3-1.3 9-2.7 1.7-6.7.1-8.6-3-1.9-3.1-.9-6.5 1.8-8.1s6.2-.9 8.1 2.1z" class="color5f6a72 svgShape"></path><circle cx="25.7" cy="106.7" r="2.3" fill="#6b5f72" class="color5f6a72 svgShape"></circle><circle cx="22.4" cy="111.6" r="2.1" fill="#6b5f72" class="color5f6a72 svgShape"></circle><circle cx="31.6" cy="105.9" r="2.1" fill="#6b5f72" class="color5f6a72 svgShape"></circle><path fill="#1483c5" d="M84.7 102.2c-5.2 8.6-4.5 19.7 2.2 23.8 6.7 4.1 16.9-.4 22.1-8.9 5.2-8.6 3.5-18-3.2-22.1-6.8-4.2-15.9-1.4-21.1 7.2z" class="color8e979e svgShape"></path><path fill="#c8c7c6" d="M90.9 107.1c-3.7 6-3.5 13.9.9 16.6 4.5 2.7 11.6-.8 15.2-6.8 3.7-6 2.5-12.3-1.9-15-4.5-2.7-10.5-.8-14.2 5.2z" class="colorc6c6c8 svgShape"></path><path fill="#6b5f72" d="M92 112.3c-1.9 3.1-1.4 7.3 1.3 9 2.7 1.7 6.7.1 8.6-3 1.9-3.1.9-6.5-1.8-8.1-2.8-1.6-6.2-.9-8.1 2.1z" class="color5f6a72 svgShape"></path><circle cx="102.3" cy="106.7" r="2.3" fill="#6b5f72" class="color5f6a72 svgShape"></circle><g fill="#6b5f72" class="color5f6a72 svgShape"><circle cx="105.6" cy="111.6" r="2.1" fill="#14c5af" class="color000000 svgShape"></circle><circle cx="96.4" cy="105.9" r="2.1" fill="#14c5af" class="color000000 svgShape"></circle></g><path fill="#ff2020" d="M75.5 63.3s6.1 4.3 9.4 8.1c3.4 3.7 2.8 6.6-1.7 10.7s-3.2 9.7-2.6 9.8c0 0 0 4 3.6 3.4 0 0 2.8 1.9 5.2.1 2.3-1.9 13.5-15.5 10.4-23.4-4.1-10.3-12.1-13.6-12.1-13.6l-12.2 4.9z" class="color808a91 svgShape"></path><path fill="#6b5f72" d="M84.1 87.9s-3 1.4-3.5 4.1c0-.1 2.3-3.3 3.5-4.1zM84.2 95.3s3-1.3 3.4-4.4c0 0-2.4 4.1-3.4 4.4z" class="color5f6a72 svgShape"></path><path fill="#6b5f72" d="M75.5 63.3s11.9 8 11.6 12.4c-.3 4.4-5.1 7.2-6.4 10-1.1 2.4-1 4.9 0 6.2 0 0-.9-2.9.6-6 1.6-3.1 7-7.5 6.4-10.4-.9-3.3-4.2-7.6-12.2-12.2zM100.3 74.1s1.1 4.4-5.4 15.2c-4.7 7.9-7.4 7.5-10.7 5.9 0 0 4.9 2.3 10-6.1s6.1-15 6.1-15zM80.6 91.9s-2.2 4.6 3.6 3.4c0 0-4.6.5-3.6-3.4z" class="color5f6a72 svgShape"></path><path fill="#ff2020" d="M52.5 63.3s-6.1 4.3-9.4 8.1c-3.4 3.7-2.8 6.6 1.7 10.7s3.2 9.7 2.6 9.8c0 0 0 4-3.6 3.4 0 0-2.8 1.9-5.2.1S25.1 79.9 28.2 72c4.1-10.3 12.1-13.6 12.1-13.6l12.2 4.9z" class="color808a91 svgShape"></path><path fill="#6b5f72" d="M43.9 87.9s3 1.4 3.5 4.1c0-.1-2.3-3.3-3.5-4.1zM43.8 95.3s-3-1.3-3.4-4.4c0 0 2.4 4.1 3.4 4.4z" class="color5f6a72 svgShape"></path><path fill="#6b5f72" d="M52.5 63.3s-11.9 8-11.6 12.4c.3 4.4 5.1 7.2 6.4 10 1.1 2.4 1 4.9 0 6.2 0 0 .9-2.9-.6-6-1.6-3.1-7-7.5-6.4-10.4.9-3.3 4.2-7.6 12.2-12.2zM27.7 74.1s-1.1 4.4 5.4 15.2c4.7 7.9 7.4 7.5 10.7 5.9 0 0-4.9 2.3-10-6.1-5.1-8.3-6.1-15-6.1-15zM47.4 91.9s2.2 4.6-3.6 3.4c0 0 4.6.5 3.6-3.4z" class="color5f6a72 svgShape"></path><path fill="#1483c5" d="M49.6 18.2s-6.1-30.1-28-11.8L27 6s-9.7 2.3-12.6 15.8l3.9-3.4S11.7 36.1 29 43.3c17.4 7.2 20.6-25.1 20.6-25.1z" class="color8e979e svgShape"></path><ellipse cx="33.8" cy="24.1" fill="#fdff3d" rx="11.2" ry="14.8" transform="rotate(31.764 33.799 24.062)" class="colore7e8ea svgShape"></ellipse><path fill="#1483c5" d="M78.4 18.2s6.1-30.1 28-11.8L101 6s9.7 2.3 12.6 15.8l-3.9-3.4s6.6 17.7-10.7 24.9c-17.4 7.2-20.6-25.1-20.6-25.1z" class="color8e979e svgShape"></path><ellipse cx="94.2" cy="24.1" fill="#fdff3d" rx="11.2" ry="14.8" transform="rotate(148.236 94.205 24.065)" class="colore7e8ea svgShape"></ellipse><path fill="#1483c5" d="M98.4 45.9C98.4 62.4 83 69.3 64 69.3s-34.4-6.9-34.4-23.4S45 9.6 64 9.6s34.4 19.8 34.4 36.3z" class="color8e979e svgShape"></path><path fill="#592d72" d="M69.8 45c0 5.6-2.6 7.4-5.8 7.4-3.2 0-5.8-1.8-5.8-7.4 0-5.6 2.6-12.7 5.8-12.7 3.2 0 5.8 7.2 5.8 12.7z" class="color4d585c svgShape"></path><path fill="#322838" d="M64.9 32.5c-2 2.6-3.4 8.3-3.4 12.9 0 3.6.9 5.8 2.2 7h.3c3.2 0 5.8-1.8 5.8-7.4 0-5-2.1-11.3-4.9-12.5z" class="color283138 svgShape"></path><circle cx="50.5" cy="40.3" r="3.2" fill="#110916" class="color091016 svgShape"></circle><circle cx="51.3" cy="39.5" r="1.3" fill="#ffffff" class="colorffffff svgShape"></circle><circle cx="77.5" cy="40.3" r="3.2" fill="#110916" class="color091016 svgShape"></circle><circle cx="78.4" cy="39.5" r="1.3" fill="#ffffff" class="colorffffff svgShape"></circle><path fill="#6e2399" d="M64 60.6c-2.6 0-5-.3-7.2-1 1.3 3.5 4 6 7.2 6s6-2.5 7.2-6c-2.2.7-4.6 1-7.2 1z" class="color992333 svgShape"></path><path fill="#ff9a3a" d="M64 65.7c2.2 0 4.2-1.2 5.6-3-.7-.7-1.6-1.2-2.6-1.2-1.2 0-2.3.7-3 1.7-.7-1-1.8-1.7-3-1.7-1 0-1.9.4-2.6 1.2 1.4 1.8 3.4 3 5.6 3z" class="colordf847f svgShape"></path><path fill="#332b38" d="M49.6 55.4c3 2.9 8.3 4.8 14.4 4.8s11.4-1.9 14.4-4.8l-.2.3c-3 3.3-8.2 5.5-14.2 5.5S52.8 59 49.8 55.7l-.2-.3z" class="color2b2f38 svgShape"></path></svg>