<svg xmlns="http://www.w3.org/2000/svg" viewBox="0 0 128 128" id="Lion"><path fill="#ff2020" d="M35.5 95.2c-3.3-.3-7.7-.9-11.4-3.2-5.9-3.5-9.2-10.7-8.2-17.4.6-4.2 2.8-7.8 4.8-11.3l.1-.2c2-3.4 3.7-6.5 4-9.7.3-2.8-.8-6.2-3.3-7.3l2-4.5c4.2 1.9 6.7 7 6.2 12.3-.5 4.6-2.9 8.7-4.7 11.7v.2c-1.9 3.2-3.7 6.3-4.2 9.6-.7 4.7 1.7 10 5.9 12.4 2.9 1.7 6.5 2.2 9.3 2.5l-.5 4.9zM100.5 78c.8 9.8 1.6 19.5 2.5 29.3 0 .4.1.9.4 1.2.3.3.8.3 1.2.3 1.9 0 3.7 1 4.8 2.6 1.1 1.5 1.4 3.6.8 5.4-.2.5-.4 1-.8 1.3-.4.4-.9.6-1.4.7-2.5.8-5.4.7-7.8-.3-2.5-1-4.5-3-5.8-5.3-.8-1.5-1.2-3.2-1.6-4.9-1.3-5.2-2.5-10.4-3.8-15.5L98.5 77l2 1z" class="colorfc9d06 svgShape"></path><path fill="#ff2020" d="M64.7 110.3s-1.5 7.3 12.1 6.5c13.6-.8 13.9-2.9 12.4-5.2-1.5-2.3-4.4-3.7-4.4-3.7s7.7-6.4 7.2-13.6-27.3 16-27.3 16z" class="colorfc9d06 svgShape"></path><path fill="#14c5af" d="M71.1 111.3c-1.7 1.6-3.7 2.4-5.3 2.7 1.4 1.7 4.4 3.2 11 2.7 13.6-.8 13.9-2.9 12.4-5.2s-4.4-3.7-4.4-3.7-10.1.1-13.7 3.5z" class="colorffddad svgShape"></path><path fill="none" stroke="#fb8311" stroke-linecap="round" stroke-linejoin="round" stroke-miterlimit="10" d="M86.2 112.4s1.7.5 2.4 2.4" class="colorStrokefb8211 svgStroke"></path><path fill="#fd7d03" d="M60.9 64c-7.1.2-14.1 2.8-19.6 7.2-5.1 4.1-8.9 9.8-11.2 16-2.8 7.7-2.8 17 2.3 23.4.8 1 2.6 2.7 2.6 2.7-.6 1-1.6 3.5-1.4 5.1.2 1.3 1.2 2.3 2.3 2.8 1.2.5 2.5.7 3.7.8 2.8.3 5.5.6 8.3.8 2 .2 4 .4 5.9.1 1.9-.3 3.9-1.3 5-3s1.1-4.1-.3-5.5c5.3-1.4 10.6-3.7 15.4-6.1.6 4.2 0 9.6 3.3 13.2.8.9 3.7 2.1 4.8 2.6 2.6 1.3 6.1 1.3 8.3-.6 2.2-1.9 2.5-5.9.1-7.7-1.3-.9-3.5-.2-4.1-1.7-.2-.5.1-9.6 0-13.1 8.3-5.4 14.4-14.9 15.8-24.7.2-1.4.3-2.9 0-4.3-.3-1.3-1-2.4-1.8-3.5-4.2-5.6-11.1-9-18.1-9.7-7-.4-14.3 5-21.3 5.2z" class="colorfdbb03 svgShape"></path><path fill="#592d72" d="M93.9 11.5s-10-13-26-7.1c0 0 10.4-1 11 2.8 0 0-16-3.5-25.8 13.9 0 0-8.9 15.4-4.4 30.8l2.4-5.4s0 17.1 12.5 26.7l-1.1-7.4s4.9 7.3 18.7 14.5c13.8 7.3 9.3 12.9 9.3 12.9s5.1-2.7 3.4-7.3c0 0 2.9 2.4 2.9 4.2 0 0 4-7.6 9.3-10.7 5.3-3.1 4.2-12.5 4.2-12.5s.9 6 2.9 6.5c0 0-1.6-8.4 5.4-14.6 7.1-6.2 2.2-14 2.2-14s3.4 2.4 3.6 4.4c0 0 7.6-13.4-1.1-26.1s-16-14.3-19.8-13.1c0 0 7.8-2 12 .9 0-.1-13-10.5-21.6.6z" class="color5e341b svgShape"></path><path fill="#fd7d03" d="M95.6 27.3s-8.6-6.9-15.1-2.1c-3.2 2.4-7.2 6.7-6.7 18 0 0-10 1.5-8.1 12.5C67.5 66 81.2 66.1 86.6 75.9c2.1 3.8 9.1 7.4 13.5 3.8 4.4-3.6 5.4-12.9 5.4-12.9s11.4-2.4 8.5-11.6c-.7-2.3-1.8-4-3.1-5.2 0 0 6.6-9.8-1.8-19.6-8.3-9.8-13.5-3.1-13.5-3.1zM51.2 19c6.2-7.8 17.1-2.2 20.6 5 .1.1.1.3.2.4-4 3.9-7.1 8.6-9.2 13.8-.7 0-1.3-.1-2-.3C52.9 36.1 45 26.8 51.2 19z" class="colorfdbb03 svgShape"></path><path fill="#ff9a3a" d="M57.9 24.3c2.7-3.4 7.7-2.2 10.2 1.2.5.6.8 1.3 1 2-1.8 2.2-3.4 4.6-4.7 7.1-1 0-2-.1-3.1-.6-3.8-1.6-6.1-6.3-3.4-9.7z" class="colorfb8211 svgShape"></path><path fill="#fd7d03" d="M115.8 34.1c-.3-1.1-.6-2.1-.9-3.1-.2-.5-.3-1.1-.6-1.6-.5-1.2-1.2-2.3-1.9-3.2-.2-.2-.3-.4-.5-.6.2-.5.5-.9.8-1.4 2.8-4.1 9.5-6.2 12.1-.6 2.6 5.6-2.9 10.4-7.5 10.6-.5 0-1 0-1.5-.1z" class="colorfdbb03 svgShape"></path><path fill="#ff9a3a" d="M115.1 31.5c-.1-.2-.1-.3-.2-.5-.2-.5-.3-1-.6-1.6l-.9-1.8c.2-.7.6-1.5 1.1-2.1 1.8-1.8 4.7-1.9 5.9.5 1.1 2.4-.7 5-3 5.6-.8.3-1.7.2-2.3-.1z" class="colorfb8211 svgShape"></path><path fill="#fdff3d" d="M81.3 54.5c5.7-4.7 13.8.1 13.8.1l8.1-.1c5.7-1.5 8.9-.8 10.8.3 0 .1.1.2.1.4 2.9 9.3-8.5 11.6-8.5 11.6s-1.1 9.3-5.4 12.9-11.4 0-13.5-3.8c-.4-3.9-4.7-8.5-4.7-8.5s-6.4-8.1-.7-12.9z" class="colorffe59c svgShape"></path><path fill="#490272" d="M95.7 55.7c-.2 2.2 2.2 7 5.7 7.3 3.5.3 6.7-4 6.9-6.2.2-2.2-2.5-3.1-6-3.4-3.5-.3-6.4.1-6.6 2.3z" class="color722602 svgShape"></path><path fill="#28003f" d="m104.1 66.4-2.1-1s-9.7 4.8-13.8-1c0 0 2.5 11.1 7.5 11.9s8.4-9.9 8.4-9.9z" class="color3f0000 svgShape"></path><path fill="#f1a65f" d="M95.7 70.4c2.4-1.6 4.8 0 6.1 1.3-1.5 2.6-3.6 5.1-6.1 4.7-2.9-.5-4.9-4.3-6.2-7.5 2.7-1 6.2 1.5 6.2 1.5z" class="colorf15f69 svgShape"></path><ellipse cx="87.4" cy="42.5" fill="#f5f5ef" rx="5.7" ry="6.5" transform="matrix(-.9972 -.07461 .07461 -.9972 171.327 91.417)" class="colorf0eff5 svgShape"></ellipse><ellipse cx="87.2" cy="44.4" fill="#1483c5" rx="4" ry="4.6" transform="matrix(-.9972 -.07461 .07461 -.9972 170.905 95.167)" class="color3572ff svgShape"></ellipse><ellipse cx="87.1" cy="45.5" fill="#040007" rx="2.1" ry="2.4" transform="rotate(-175.711 87.148 45.503)" class="color070300 svgShape"></ellipse><ellipse cx="88.3" cy="44.4" fill="#ffffff" rx="1" ry="1.2" transform="rotate(-175.711 88.274 44.384)" class="colorffffff svgShape"></ellipse><path fill="#f5f5ef" d="M100.8 42.1c-.3 2.9 1.2 5.4 3.4 5.6 2.2.2 4.2-1.9 4.5-4.8.3-2.9-1.2-5.4-3.4-5.6-2.2-.2-4.2 1.9-4.5 4.8z" class="colorf0eff5 svgShape"></path><ellipse cx="104.6" cy="44" fill="#1483c5" rx="2.8" ry="3.7" transform="rotate(-173.773 104.573 44.014)" class="color3572ff svgShape"></ellipse><ellipse cx="104.5" cy="44.9" fill="#040007" rx="1.4" ry="1.9" transform="rotate(-173.773 104.475 44.903)" class="color070300 svgShape"></ellipse><ellipse cx="105.3" cy="44" fill="#ffffff" rx=".7" ry="1" transform="rotate(-173.773 105.294 44.023)" class="colorffffff svgShape"></ellipse><path fill="#14c5af" d="M34.9 113.3c-.6 1-1.6 3.5-1.4 5.1.2 1.3 1.2 2.3 2.3 2.8 1.2.5 2.5.7 3.7.8 2.8.3 5.5.6 8.3.8 2 .2 4 .4 5.9.1 1.9-.3 3.9-1.3 5-3s1.1-4.1-.3-5.5c-2.5-1.1-9.2-1.5-9.2-1.5-6.4-3-14.3.4-14.3.4zM75.6 119.2c.4.9.9 1.7 1.6 2.4.8.9 3.7 2.1 4.8 2.6 2.6 1.3 6.1 1.3 8.3-.6 2.2-1.9 2.5-5.9.1-7.7-1.3-.9-3.5-.2-4.1-1.7-5.8-2.3-10.7 4.9-10.7 5zM109.5 111.3c-1.1-1.5-2.9-2.5-4.8-2.6-.4 0-.9 0-1.2-.3 0 0-8.7.6-8.4 5.4 1.2 2 3.1 3.6 5.3 4.6 2.5 1 5.3 1.2 7.8.3.5-.2 1-.4 1.4-.7.4-.3.6-.8.8-1.3.5-1.8.1-3.9-.9-5.4z" class="colorffddad svgShape"></path><path fill="none" stroke="#fb8311" stroke-linecap="round" stroke-linejoin="round" stroke-miterlimit="10" d="M55.4 115.7s2.9-.4 4.1 1.9M54.8 118.1s3.1 0 3.6 2.3M89.1 118.8c.2 0 2.1.5 2.7 2.4M87.2 121s2.9.9 2.6 3.1M107 113s2.2-.5 3.6 2M105.3 115.1s3.6-.1 4.2 2.9" class="colorStrokefb8211 svgStroke"></path><path fill="#ff9a3a" d="M51.3 87.8c.6.3 1.2.5 1.7.9s1.1.8 1.5 1.2c1 .9 1.7 2 2.4 3.2.3.6.6 1.2.8 1.8.2.6.4 1.3.5 1.9.1.6.2 1.3.2 2s0 1.3-.1 2c-.2 1.3-.5 2.6-1 3.9-.5 1.3-1.1 2.4-1.9 3.5-.4.5-.8 1.1-1.3 1.6s-1.1.9-1.6 1.3c-1.1.7-2.3 1.2-2.9 2.1l-.1-.6c.1.1.4.2.7.2h1.2c.8 0 1.5.1 2.3.2 1.5.2 3 .6 4.4 1.1-1.5-.3-3-.5-4.4-.5-.7 0-1.5-.1-2.2 0h-1.9c-.2 0-.5-.2-.7-.3l-.3-.2.2-.3c.4-.6.9-1.1 1.5-1.5.6-.4 1.1-.7 1.6-1 .5-.3 1-.7 1.4-1.2.4-.4.8-.9 1.1-1.4.7-1 1.3-2.1 1.7-3.3.5-1.2.8-2.4.9-3.6.1-.6.1-1.2.1-1.9 0-.6 0-1.2-.1-1.9-.1-.6-.2-1.2-.4-1.8l-.6-1.8c-.3-.6-.5-1.1-.9-1.7-.3-.5-.7-1.1-1.1-1.5-.6-.9-1.6-1.7-2.7-2.4zM73.9 108.4s-.4-1.2-1-3.1c-.3-.9-.5-2.1-.8-3.3-.1-.6-.3-1.2-.4-1.8-.1-.6-.3-1.3-.4-1.9-.1-.6-.2-1.3-.3-1.9-.1-.6-.2-1.3-.3-1.9-.2-1.2-.3-2.4-.4-3.3-.2-2-.3-3.3-.3-3.3s.4 1.2 1 3.1c.3.9.5 2.1.8 3.3.1.6.3 1.2.4 1.8.1.6.3 1.3.4 1.9.1.6.2 1.3.3 1.9.1.6.2 1.3.3 1.9.2 1.2.3 2.4.4 3.3.2 2 .3 3.3.3 3.3zM86.3 101.2s-.2-1-.4-2.5c-.1-.8-.1-1.7-.2-2.6 0-.5-.1-1-.1-1.5v-3c0-.5 0-1 .1-1.5 0-1 .1-1.8.2-2.6.1-1.5.4-2.5.4-2.5s.2 1 .4 2.5c.1.8.1 1.7.2 2.6 0 .5.1 1 .1 1.5v3c0 .5 0 1-.1 1.5 0 1-.1 1.8-.2 2.6-.2 1.5-.4 2.5-.4 2.5z" class="colorfb8211 svgShape"></path><path fill="#592d72" d="M.5 27.1s9.8-1.2 15.1 3.6c0 0-1.1-3-2.9-4.1 0 0 11.3 1.7 13.4 9.1 0 0-.4-4.2-1.5-5.4 0 0 8 8-.9 15.8S2.8 33 2.8 33l4.3 2.3S5 28 .5 27.1z" class="color5e341b svgShape"></path></svg>