<svg xmlns="http://www.w3.org/2000/svg" viewBox="0 0 128 128" id="Monkey"><path fill="#ff2020" d="M91 81.7s10.6 3.6 14.4-7.2c3.8-10.8-5.2-14.6-7.9-13-2.8 1.6-2.3 6 1.5 5.6 3.7-.4 4.9 1.5 4 3.4-.8 1.5-5.1 2.4-8.4.4-3.4-2-4.7-7.9-.9-11.7 3.8-3.8 11.8-.7 14.3 3.7 3.8 6.6-.2 23.9-16.5 21.5l-.5-2.7z" class="colorcb6503 svgShape"></path><path fill="#14c5af" d="M21.9 46.6s11 24.7 37.8 15.5l-5.1-12.5s-8.7 9.2-18.2 3.8C26.9 48 23.5 37.2 23.5 37.2l-1.6 9.4z" class="colorb75402 svgShape"></path><path fill="#feff9a" d="M22.9 35c-.3-.3-.7-.6-.9-1-.5-.7-.5-1.5-.6-2.3-.1-1.2-.4-2.4-.9-3.4-.6-1-1.6-1.9-2.7-2.1-1.2-.2-2.5.5-2.8 1.6-.4 1.5.8 2.9 1.6 4.3.3.6.5 1.4.2 2-.3.5-.8.7-1.3.9-2.8.7-5.7-.7-8.5-.7-1.5 0-3 .5-4.3 1.3-1 .4-1.7 1.1-2.1 2-.3.9-.1 2 .6 2.6.8.6 1.9.4 2.8.1.9-.4 1.7-.9 2.7-1.2.9-.3 2-.2 2.4.6.5 1-.6 2.1-1.6 2.7-1.1.7-2.1 1.5-3.1 2.4-.7.6-1.4 1.3-1.8 2.1-.4.8-.4 1.9.2 2.6.7.9 2.1.9 3.1.4s1.7-1.4 2.4-2.3c.7-.9 1.4-1.8 2.3-2.4.4-.3 1-.4 1.4-.1.4.3.5 1 .3 1.4-.2.5-.7.8-1.1 1.2-.9.8-1.8 1.8-2 3s.3 2.7 1.5 3c1.5.5 3-.9 3.9-2.3.9-1.3 1.6-2.7 2.2-4.2 1.2 1.6 3.5 2.2 5.3 1.3 2.4-1.2 2.8-4.1 2.4-6.5-.5-2.2.2-4.9-1.6-7z" class="colorffcc9a svgShape"></path><path fill="#ff2020" d="M32 56.5c-7.6-6.4-7.8-13.6-7.5-16.6 1.7 3.6 5.3 9.7 11.8 13.4 6.9 3.9 13.3.2 16.3-2.1.1 0-10.7 13.7-20.6 5.3z" class="colorcb6503 svgShape"></path><g fill="#fbb878" class="colorfbba78 svgShape"><path d="M2.7 49.6s0-.1-.1-.1c.3.1.7.1 1 0 .4-.2.6-.5.8-.8 1.4-2.2 3.2-4.5 5.8-5.2.7-.2 1.5-.2 2.1.2.6.4 1 1.2.6 1.8-.1.2-.3.4-.5.5 0-.3-.2-.5-.4-.6-.4-.3-1-.1-1.4.1-1 .6-1.7 1.5-2.3 2.4-.7.9-1.4 1.8-2.4 2.3-1.1.3-2.5.3-3.2-.6zM10 40.2c-.3.5-.8.9-1.3 1.2.4-.5.6-1.1.4-1.7-.4-.8-1.5-.9-2.4-.6-.9.3-1.7.9-2.7 1.2-.9.4-2 .5-2.8-.1-.1-.2-.2-.3-.3-.5.9.2 2-.1 2.9-.6 1-.6 1.9-1.5 3-2s2.6-.5 3.3.5c.5.7.4 1.8-.1 2.6zM10.1 49v.1c-.2.7-.1 1.6.5 2.1.8.6 2.1.1 2.7-.8.6-.9.7-2 .9-3 .2-1 .6-2.1 1.5-2.7 1.5-.9 3.4.4 5.1.1 1.2-.1 3.3-1.8 2.4-3.1-.6-1-3.4-1.3-4.5-1 1.6-.4 3.4-.4 5 0 .2.1.4.1.6.2 0 .4.1.9.1 1.3.4 2.4-.1 5.3-2.4 6.5-1.8.9-4.1.3-5.3-1.3-.6 1.5-1.3 2.9-2.2 4.2-.9 1.4-2.3 2.8-3.9 2.3-1.2-.4-1.8-1.8-1.5-3 .1-.7.5-1.3 1-1.9zM17.9 26.2c-.5.5-.8 1.3-.8 2 .1 1 .7 1.9 1 2.8.5 1.4.1 3.2-1.3 3.7-.5.2-.9.1-1.4 0 .5-.1.9-.4 1.1-.8.3-.6.1-1.4-.2-2-.7-1.4-2-2.8-1.6-4.3.3-1.1 1.7-1.8 2.8-1.6.2.1.3.1.4.2z" fill="#000000" class="color000000 svgShape"></path></g><path fill="#14c5af" d="M108.5 31.3s-.8 27.1-29.1 28.7V46.4s11.5 5.2 18.3-3.4c6.7-8.6 5.8-19.9 5.8-19.9l5 8.2z" class="colorb75402 svgShape"></path><path fill="#fdff3d" d="M83.9 104.8s5-1.2 5.9-5c.2.4.5.7.8.9.3.2.7.3 1.1.4 2.6.4 5.3-.1 7.5-1.5.9-.5 1.7-1.2 2.6-1.6.9-.4 2.1-.5 2.9.2.5-.9 1.4-1.6 2.4-1.8 1-.1 2.1.4 2.6 1.3.4.9.1 2.2-.9 2.6.4.9.1 2.1-.6 2.9-.7.8-1.6 1.3-2.5 1.8-2.1 1.1-4.1 2.3-6.5 2.5.2.6 1.1 2.4-1.8 3.9-.9.5-2.1 0-3-.5-.9-.5-1.9-1.1-2.9-1.1-1.1 0-2.1.7-3.1 1-1.6.5-3.6 0-4.7-1.3-1-1.3-1-3.4.2-4.7z" class="colorffcc96 svgShape"></path><path fill="#febb7b" d="M109 100.3s-.6-2.6-3.4-.9c-2.7 1.7-4.1 5.3-9.6 4.8 0 0 3.8 1.4 7.1-1.7s6-1.7 5.7 0c.1 0 .7-1.2.2-2.2z" class="colorfeba7b svgShape"></path><path fill="#febb7b" d="M104.9 98.2s-4.5 5.8-9.9 4.9c0 0 3.8 2 11.4-4.9 0 0 1.9-1.9 3.6.2 0 0-.2-1-.9-1.5-.9-.8-2.7-.9-4.2 1.3z" class="colorfeba7b svgShape"></path><g fill="#febb7b" class="colorfeba7b svgShape"><path d="M92 109.8zM96.5 110.2c1.5-.6 1-2.4-1.8-2.9s-3-1.7-3-1.7c2.4 1.5 2.7 0 5.2.5s2.5 1.6 2.5 1.6h.1c.2.6.9 2.4-1.9 3.8-.9.5-2.1 0-3-.5-.6-.3-1.1-.7-1.7-.9.9.2 2.6.5 3.6.1z" fill="#000000" class="color000000 svgShape"></path></g><path fill="#b20101" d="M83.9 104.8c-.5-2.8-1.2-6.3-.8-9.1.8-5.5-4.8-8.8-7.4-7.3L83 68.6c4 .1 7.7 6.1 9 8.2.6.9.9 1.9 1.2 2.9.5 1.5.9 3 .7 4.5-.2 2.8-.2 5-1.3 7.6 0-1.4.1-2.9-.7-4.4.2 1.9-3 10.7-2.1 12.4-.9 3.9-5.9 5-5.9 5z" class="colorb25601 svgShape"></path><path fill="#fdff3d" d="M62.7 112.1s-5 1.2-7.6-1.8c0 .4-.1.9-.3 1.2-.2.3-.5.6-.8.8-2.1 1.5-4.8 2.3-7.4 2-1-.1-2-.3-3.1-.3-1 .1-2.1.5-2.5 1.5-.8-.6-1.9-.9-2.9-.5-1 .3-1.8 1.3-1.7 2.3 0 1 .9 2 2 2 0 1 .9 1.9 1.8 2.3 1 .4 2 .5 3.1.5 2.4.1 4.7.2 6.9-.7.1.6.1 2.6 3.4 2.6 1.1 0 1.9-.9 2.5-1.8.6-.9 1.2-1.8 2.1-2.3 1-.5 2.1-.3 3.2-.5 1.7-.3 3.2-1.6 3.6-3.2.2-1.6-.7-3.6-2.3-4.1z" class="colorffcc96 svgShape"></path><path fill="#febb7b" d="M38.2 119.2s-.6-2.6 2.6-2.3c3.2.3 6 2.9 10.8 0 0 0-2.8 2.9-7.2 1.6-4.4-1.3-6.1 1.2-5.1 2.6 0 .1-1.1-.7-1.1-1.9z" class="colorfeba7b svgShape"></path><path fill="#febb7b" d="M40.9 115.5s6.7 3.2 11 0c0 0-2.5 3.5-12.4.7 0 0-2.6-.9-3.1 1.7 0 0-.3-.9.1-1.7.6-1.1 2.1-2 4.4-.7z" class="colorfeba7b svgShape"></path><g fill="#febb7b" class="colorfeba7b svgShape"><path d="M57.7 120.2zM53.8 122.5c-1.6.1-2-1.7.3-3.4s1.9-2.8 1.9-2.8c-1.5 2.4-2.4 1.2-4.4 2.7-2 1.6-1.5 2.5-1.5 2.5v.1c.1.7.3 2.6 3.4 2.6 1.1 0 1.9-.9 2.5-1.8.4-.5.7-1.1 1.2-1.6-.9.6-2.3 1.6-3.4 1.7z" fill="#000000" class="color000000 svgShape"></path></g><path fill="#b20101" d="M62.7 112.1c-.8-2.7-1.7-6.2-3.4-8.5-3.2-4.6.4-10.1 3.3-9.9L48.1 79.4c-2.3 1.7-5 8.8-5.3 11.2-.1 1 0 2.1.2 3.1.2 1.5.6 3 1.4 4.4 1.4 2.4 2.4 4.4 4.6 6.2-.7-1.2-1.4-2.5-1.3-4.2.7 1.8 7.5 8.2 7.4 10.2 2.6 2.9 7.6 1.8 7.6 1.8z" class="colorb25601 svgShape"></path><path fill="#ff2020" d="M85.8 68.6c6.3 14.1-9.6 25.6-19.5 25.6S40.5 82.7 46.8 68.6C53 54.5 48.9 43 66.3 43c18.8 0 13.2 11.5 19.5 25.6z" class="colorcb6503 svgShape"></path><path fill="#feff9a" d="M79.4 67.1c4.2 11.6-6.5 17.2-13.2 17.2-6.7 0-17.4-5.7-13.2-17.2 4.2-11.6 1.4-20.9 13.2-20.9 12.8 0 9 9.4 13.2 20.9zM88 28.3s5.7-8.1 11.3-6c5.7 2.1 4 13.1-2.8 15-6.8 1.8-10.9-1.2-10.9-1.2l2.4-7.8z" class="colorffcc9a svgShape"></path><path fill="#f4c08e" d="M87 31.4s7.2-8 11.2-6.6c4 1.4 2.8 8.7-2 9.9-4.8 1.3-8.1-.7-8.1-.7L87 31.4z" class="colorf4be8e svgShape"></path><path fill="#d59a61" d="M96 33.2s-2-4.2-6.9-1.3c0 0 5.3-10.4 10.6-6.1 0 0-3.3-2-7.6 3.7 0-.1 4.4 1.2 3.9 3.7z" class="colord58761 svgShape"></path><path fill="#feff9a" d="M47.9 30.2s-5-8.5-10.8-6.9C31.3 25 32 36.1 38.7 38.4c6.6 2.4 11-.3 11-.3l-1.8-7.9z" class="colorffcc9a svgShape"></path><path fill="#f4c08e" d="M48.6 33.5S42.1 25 38 26c-4.1 1.1-3.5 8.4 1.2 10 4.7 1.6 8.1-.1 8.1-.1l1.3-2.4z" class="colorf4be8e svgShape"></path><path fill="#d59a61" d="M39.5 34.5s2.4-4.1 7-.8c0 0-4.5-10.8-10.1-6.9 0 0 3.4-1.7 7.3 4.3 0-.1-4.4.8-4.2 3.4z" class="colord58761 svgShape"></path><path fill="#ff2020" d="M47.6 35.2S36.2 11.5 61 8c0 0-.9-1.7-4.4-.6 0 0 4.8-3.2 9.1.3 0 0 3.3-5.7 11.9-3.1 0 0-4.5.6-5.1 3.2 0 0 6-2.3 9.5 0 0 0-3.1.4-3.3 1.9 0 0 19 3.8 8.4 25.6 0 0 7.8 5.3 2.2 12.2l-.9-2.4s-.5 3.9-6.7 7.1l.7-2.3s-7.8 5.3-11.1 5.8-13-1.5-15.8-4l1.5 2.6s-6.9-3-7.7-7.3l-.3 3.4s-8.3-7.8-1.4-15.2z" class="colorcb6503 svgShape"></path><path fill="#14c5af" d="M87.3 35.3c10.6-21.8-8.4-25.6-8.4-25.6.2-1.5 3.3-1.9 3.3-1.9-3.5-2.3-9.5 0-9.5 0 .6-2.6 5.1-3.2 5.1-3.2-8.7-2.6-12 3.1-12 3.1-4.4-3.5-9.1-.3-9.1-.3 3.4-1.1 4.4.6 4.4.6-5.5.8-9.3 2.6-11.7 4.9 3.1-1.6 6.4-2.7 9.9-3.2 1.4-.2 2.9-.2 4.2.4-.1-.7-.5-1.4-1-1.9 1.7.6 3.4 1.5 4.8 2.7.4-.2.7-.3 1.1-.5-1.5 2.2-1.6 5.3-.1 7.6.4-2.9 2.6-5.6 5.4-6.4-.7.8-1 1.9-1.1 3 1-1.1 2.6-1.6 4.1-1.6 1.5 0 3 .5 4.4 1 1.7.5 3.4 1.1 4.5 2.5 1 1.2 1.4 2.7 1.6 4.2.5 3.8.1 7.8-1.4 11.4-2 4.8-7.1 4.8-8.8 9.7-.4 1.3.7 6.6-.2 7.6-.8.9-2.1 1.3-3.1 2-2.1 1.3-3.7 3.4-6 4.2h-.1c1.5.2 2.8.2 3.7.1 3.3-.5 11.1-5.8 11.1-5.8l-.7 2.3c6.2-3.3 6.7-7.1 6.7-7.1l.9 2.4c5.8-6.8-2-12.2-2-12.2z" class="colorb75402 svgShape"></path><path fill="#feff9a" d="M86.7 27.1c-.6-6.1-5.8-10.5-11.6-9.9-3.3.4-6.1 2.3-7.7 5.1-2.1-3.7-5.9-6.1-10.1-5.6-5.7.6-9.9 6.3-9.2 12.8.5 4.6 3.3 8.3 6.9 9.9-1.7 1.8-2.5 4-2.3 6.2.6 5.5 8 9.3 16.5 8.4 8.5-.9 14.9-6.1 14.4-11.7-.2-1.6-.9-3.1-2.1-4.3 3.5-2.2 5.7-6.4 5.2-10.9z" class="colorffcc9a svgShape"></path><path fill="#eab481" d="M57.3 39.3s6.1-3 10.7-.7c0 0 5.7-1.2 10.7 2.1 0 0-4.7-5.1-10.7-3 0 0-4.4-2.8-10.7 1.6z" class="coloreab381 svgShape"></path><ellipse cx="59.4" cy="27.6" fill="#e8ad74" rx="5.9" ry="7.6" transform="rotate(-6.045 59.367 27.598)" class="colore89f74 svgShape"></ellipse><path fill="#e8ad74" d="M81.7 27.5c.2 4.2-2 7.6-4.8 7.7-2.8.1-5.2-3.3-5.3-7.4-.2-4.2 2-7.6 4.8-7.7 2.8-.1 5.2 3.3 5.3 7.4z" class="colore89f74 svgShape"></path><ellipse cx="59" cy="28.3" fill="#fbfbf6" rx="5.9" ry="7.1" transform="rotate(-6.045 58.983 28.26)" class="colorf6fbf7 svgShape"></ellipse><ellipse cx="60.1" cy="29.7" fill="#1483c5" rx="3.3" ry="3.9" transform="matrix(1 -.0077 .0077 1 -.227 .463)" class="color4f7bac svgShape"></ellipse><ellipse cx="60.4" cy="30.1" fill="#170620" rx="1.8" ry="2.2" transform="matrix(1 -.0077 .0077 1 -.23 .465)" class="color060d20 svgShape"></ellipse><circle cx="59.7" cy="28.2" r="1.1" fill="#fefef9" class="colorfdfef9 svgShape"></circle><ellipse cx="76.3" cy="28.2" fill="#fbfbf6" rx="5" ry="7.1" transform="matrix(.9994 -.03366 .03366 .9994 -.907 2.584)" class="colorf6fbf7 svgShape"></ellipse><path fill="#1483c5" d="M80.2 29.9c-.2 2.2-1.7 3.8-3.5 3.7s-3.1-1.9-2.9-4.1c.2-2.2 1.7-3.8 3.5-3.7 1.8.1 3.1 1.9 2.9 4.1z" class="color4f7bac svgShape"></path><path fill="#170620" d="M79.1 30.2c-.1 1.2-.9 2.1-1.9 2.1-1-.1-1.7-1.1-1.6-2.3s.9-2.1 1.9-2.1c.9.1 1.7 1.1 1.6 2.3z" class="color060d20 svgShape"></path><path fill="#fefef9" d="M77.9 28.2c0 .6-.5 1.2-1.1 1.2-.6 0-1.1-.5-1.1-1.1 0-.6.5-1.2 1.1-1.2.6 0 1.1.5 1.1 1.1z" class="colorfdfef9 svgShape"></path><path fill="#400065" d="M60.4 46.4s2.1 1.7 3 2.8c.9 1.2 2.3 1.4 3.5 1.5 1.2.1 3.3.2 4.4-1.1 1.1-1.3 3.4-2.5 3.4-2.5s-4.7 2.2-7.9 1.4c-3.3-.6-6.4-2.1-6.4-2.1z" class="color650004 svgShape"></path><path fill="#fdca99" d="M66.7 49.5c-1.2-.7-2.4-.4-3.2-.1.9 1.1 2.1 2.1 3.2 2.2 1 .1 2.6-.4 3.8-1.3-1.7-1.8-3.8-.8-3.8-.8z" class="colorfd9999 svgShape"></path><path fill="#592d72" d="M56.9 43.4s9 10 22.5 1.1c0 0-12.4 11-22.5-1.1zM76.8 43.4s3.5-.4 3.4 3.4c0 0-.8-2.8-3.4-3.4z" class="color782221 svgShape"></path><path fill="#592d72" d="M59.7 42.5s-3.3.8-3.9 3.7c.1-.1-.6-3.9 3.9-3.7z" class="color782221 svgShape"></path><path fill="#ff9a3a" d="M72.8 37.5c0 1.7-2.1 4.2-4.8 4.2-2.7 0-4.9-2.4-4.9-4.1 0-1.7 2.2-2.6 4.8-2.7 2.6.1 4.8 1 4.9 2.6z" class="colorf08d64 svgShape"></path><circle cx="65.9" cy="38.2" r="1.1" fill="#d38d4a" class="colord36e4a svgShape"></circle><circle cx="69.9" cy="38.2" r="1.1" fill="#d38d4a" class="colord36e4a svgShape"></circle><path fill="#feff9a" d="M103.2 20.9c.2-.4.4-.8.5-1.3.2-.8-.1-1.6-.3-2.4-.3-1.2-.6-2.3-.4-3.5.1-1.2.7-2.4 1.7-3 1-.6 2.5-.5 3.2.4 1 1.2.3 3 .2 4.5-.1.7 0 1.5.5 1.9.4.3 1 .4 1.6.3 2.9-.4 5-2.8 7.7-3.8 1.4-.5 3-.7 4.4-.4.9.2 1.8.5 2.5 1.3.6.7.9 1.8.4 2.6s-1.6 1.2-2.5 1.2c-1 0-1.9-.2-2.9-.1-.9.1-1.9.6-1.9 1.5-.1 1.2 1.4 1.7 2.5 1.9 1.3.3 2.6.6 3.8 1 .9.3 1.8.6 2.5 1.3s1.1 1.6.8 2.5c-.3 1.1-1.6 1.6-2.7 1.6-1.1-.1-2.1-.6-3.1-1.2s-1.9-1.1-3.1-1.3c-.5-.1-1.1 0-1.4.4-.3.4-.1 1.1.3 1.4s.9.5 1.4.7c1.2.4 2.4 1 3 2 .7 1 .7 2.6-.3 3.4-1.2 1-3.1.3-4.4-.7-1.3-.9-2.5-1.9-3.6-3-.5 1.9-2.5 3.3-4.4 3.2-2.6-.2-4.2-2.7-4.7-5.1-.5-2.4-2.2-4.7-1.3-7.3z" class="colorffcc9a svgShape"></path><path fill="#ff2020" d="M103.5 26.1c-.2 3.9-1.2 11-5.8 16.9-3.1 4-7.3 5-10.9 5-.2.4-.6.8-1 1 4.9 1.7 13.1 3 17.1-4.7 4.6-8.9 2-15.6.6-18.2z" class="colorcb6503 svgShape"></path><g fill="#fbb878" class="colorfbba78 svgShape"><path d="M127.4 26.8v-.1c-.3.2-.6.4-1 .4s-.7-.3-1-.5c-2.2-1.5-4.7-3-7.3-2.6-.7.1-1.4.4-1.9.9-.4.6-.4 1.5.1 1.9.2.2.4.2.7.2-.1-.3 0-.5.1-.7.3-.4.9-.5 1.4-.4 1.1.1 2.1.7 3.1 1.3 1 .6 2 1.1 3.1 1.2 1.2 0 2.4-.6 2.7-1.6zM117.1 20.8c.5.3 1.1.5 1.6.6-.6-.3-1-.8-1-1.4.1-.9 1.1-1.4 1.9-1.5 1-.1 1.9.1 2.9.1s2-.3 2.5-1.2c.1-.2.2-.4.2-.6-.8.6-1.9.7-2.9.5-1.2-.2-2.3-.7-3.5-.7-1.2 0-2.6.5-2.9 1.7-.1 1 .5 2 1.2 2.5zM120.4 29c0 .1 0 .1 0 0 .6.7.8 1.6.4 2.2-.5.9-1.9.9-2.8.3-.9-.6-1.4-1.6-1.9-2.5-.6-.9-1.4-1.8-2.4-1.9-1.7-.2-3 1.6-4.7 2.1-1.1.3-3.7-.4-3.4-2 .2-1.2 2.7-2.5 3.8-2.6-1.7.2-3.3.9-4.6 1.9-.2.1-.3.3-.5.4.1.4.3.8.4 1.3.5 2.3 2.1 4.8 4.7 5.1 2 .2 4-1.2 4.4-3.2 1.1 1.1 2.3 2.1 3.6 3 1.3.9 3.2 1.7 4.4.7 1-.8.9-2.4.3-3.4-.5-.6-1.1-1-1.7-1.4zM104.5 10.8c.7.3 1.3.8 1.5 1.5.3 1 .1 2 .1 3 .1 1.5 1.2 3 2.6 2.9.5 0 .9-.2 1.3-.5-.5 0-1 0-1.4-.3-.5-.4-.6-1.2-.5-1.9.2-1.5.8-3.3-.2-4.5-.7-.9-2.2-1.1-3.2-.4l-.2.2z" fill="#000000" class="color000000 svgShape"></path></g></svg>