<svg xmlns="http://www.w3.org/2000/svg" viewBox="0 0 128 128" id="Monkey"><path fill="#ff2020" d="M88.6 94.9c1.2 1.4 2.1 3.2 1.8 5-.3 1.6-1.5 2.9-3 3.6-1.4.7-3.1 1-4.7 1.1-1.6.2-3.2.2-4.8.7-2 .6-3.8 1.7-5.7 2.8-1.6.9-3.5 1.7-5.3 1.5-1.1-.2-2.2-.9-2.3-2 0 0-3.1 2.4-5.2-.5 0 0-4.5-.1-3.1-4.6s9-2.8 12.1-3 4.4.1 5.3-1.6 4.8-5.2 4.8-5.2l7.3-1.7 1.8 1.4 1 2.5z" class="colore8a87a svgShape"></path><path fill="#14c5af" d="m87.7 92.3-.2-.2c-.5.2-.8.7-.6 1.4.3 1 .7 1.9.8 3 .1 1.1-.2 2.3-.9 3.2-1.4 1.7-4.1 1.5-6.3 1.7-3 .3-5.8 1.6-7.9 3.7-.5.5-1 1.1-1.6 1.4s-1.5.4-2 0c-.6-.5-.5-1.5.1-1.8-1.7-.8-3.6.4-5.4.9-.5.1-1.1.2-1.5-.1-.6-.5-.2-1.7.6-2s1.6-.1 2.5-.1c1.1 0 2.3-.2 3.3-.8-2.5.5-5.2-1-7.6-.1-.8.3-1.9.8-2.4.1-.3-.4-.1-1.1.3-1.4.4-.3 1-.5 1.5-.6 1.5-.3 3.1-.6 4.6-.9-.1-.1-.1-.2-.2-.3-3.4-.1-7.4-.1-8.4 3.1-1.4 4.5 3.1 4.6 3.1 4.6 2.1 2.9 5.2.5 5.2.5.1 1.1 1.2 1.8 2.3 2 1.9.3 3.7-.5 5.3-1.5 1.8-1 3.6-2.2 5.7-2.8 1.6-.4 3.2-.5 4.8-.7 1.6-.2 3.2-.4 4.7-1.1 1.4-.7 2.7-2 3-3.6.3-1.8-.6-3.6-1.8-5l-1-2.6z" class="colord39266 svgShape"></path><path fill="#420962" d="M63.9 102.9c-2.2-.2-4.8.7-3.9 3.5.9 2.8 5.1 0 5.1 0l-.1 1c-4.1 2.9-5.6-.3-5.6-.3s-1.2-4.5 2.8-4.7c2.6-.1 4.2.7 6.3 0 .1 0-.2.9-4.6.5z" class="color622e09 svgShape"></path><path fill="#641f8c" d="M87.6 89.9c-2.1-3.1-.2-5.7-2.8-11-2.6-5.3-8.4-6.2-8.4-6.2 1.8-2.9 2.6-9.8 2.9-15.4H54.2v10.1c.1 2.6.4 5.1 1.4 7.4.5 1.1 1.4 2.4 2.4 3 .5 2.1 1.9 3.9 3.6 5.4 1.7 1.4 3.6 2.5 5.4 3.7 1.4 1 2.8 2.1 4 3.2 1.1 1 2.1 2.1 2.7 3.5.6 1.3.8 3 .1 4.3 1.9-.3 3.6-1.3 4.7-2.9.2.9.7 1.7 1.4 2.4.2-.9.5-1.8.8-2.6.8.8 1.6 1.7 2.5 2.5.1-1 .4-2 .8-2.9.6.7 1 1.5 1.2 2.4.3-.7 1-1 1.5-1.4.6-.4 1-1.2.7-1.8.6.6 1.1 1.1 1.5 1.9 0-.1.8-2.5-1.3-5.6z" class="color8c4e1f svgShape"></path><path fill="#541777" d="M78.5 94.1c-.5-1.4-1.6-2.8-3.1-2.8-.4-2.7-3.1-4.3-5.5-5.7-2.3-1.3-4.6-2.8-6.8-4.3-.5-.4-1-1.3-.4-1.5.1-.1.3 0 .5 0 1.2.2 2.3.9 3.4 1.3 1.1.5 2.4.8 3.6.5s2.2-1.5 1.9-2.7c-.3-1.3-1.8-1.9-3.1-1.9-.8 0-1.6.2-2.4.4.7-.2 1.2-.7 1.2-1.4-3.2.7-6.7-1.4-7.5-4.5-3.6-3-3.6-8.8-2.5-14.2h-2.5c-.6 2.2-.9 4-1 4.7v5.4c.1 2.6.4 5.1 1.4 7.4.5 1.1 1.4 2.4 2.4 3 .5 2.1 1.9 3.9 3.6 5.4 1.7 1.4 3.6 2.5 5.4 3.7 1.4 1 2.8 2.1 4 3.2 1.1 1 2.1 2.1 2.7 3.5.6 1.3.8 3 .1 4.3 1.9-.3 3.6-1.3 4.7-2.9.1.4.3.8.4 1.1-.1-.7-.3-1.4-.5-2zm-15-17.8c.7.6 1.5 1.2 2.4 1.3h.3c-.3.1-.7.1-1 .1-.4 0-.9 0-1.3-.2-.4-.3-.6-.8-.4-1.2z" class="color773e17 svgShape"></path><path fill="#420962" d="M87.6 89.9c-2.1-3.1-.2-5.7-2.8-11-2.6-5.3-8.4-6.2-8.4-6.2 1.8-2.9 2.6-9.8 2.9-15.4H79c-.1 2.2-.4 4.6-.9 6.7-1.8 7.7-2.6 9.3-5.3 10.1 0 0 1.6.1 3-.9 0 0 6.7.5 8.7 6.6 2.1 6.1.2 11.8.2 11.8s1-1.2 1.4-3.7c0 0 2.5 3.9 2.4 6.1 0 0-.6-.8-2.1-1.6 0 0 1.1 1.8-.7 3.1 0 0-.7-1.5-2-2.2 0 0-1.1 1.5-.7 2.8 0 0-2.4-1.1-3-3.1 0 0-.7 1.5-.3 3.1 0 0-1.3-1-1.4-2.7 0 0-1.1 3.2-4 4 0 0 2.2-4-4.9-9-7-5-12.5-7.7-10.3-12.5 0 0-1 1-1 1.6 0 0-5.1-4.3-3.4-16.8 0 0 .2-1.4.6-3.4h-.6c-.2.8-.4 1.7-.6 2.6v7.5c.1 2.6.4 5.1 1.4 7.4.5 1.1 1.4 2.4 2.4 3 .5 2.1 1.9 3.9 3.6 5.4 1.7 1.4 3.6 2.5 5.4 3.7 1.4 1 2.8 2.1 4 3.2 1.1 1 2.1 2.1 2.7 3.5.6 1.3.8 3 .1 4.3 1.9-.3 3.6-1.3 4.7-2.9.2.9.7 1.7 1.4 2.4.2-.9.5-1.8.8-2.6.8.8 1.6 1.7 2.5 2.5.1-1 .4-2 .8-2.9.6.7 1 1.5 1.2 2.4.3-.7 1-1 1.5-1.4.6-.4 1-1.2.7-1.8.6.6 1.1 1.1 1.5 1.9.1-.1.9-2.5-1.2-5.6z" class="color622e09 svgShape"></path><path fill="#772ea0" d="M75.8 74.7s3.6-1.1 6.9 3.4.9 12.2.9 12.2.1-9.2-2.6-11.3-7.9-3.3-5.2-4.3z" class="colora05c2e svgShape"></path><path fill="#420962" d="m88.6 94.9-1.2-1.5c1.5 2.1 3.6 5.7 1.5 8-3.1 3.3-7.2 2.1-10.5 3.1-3.2.9-7.1 3.8-8.9 4.3s-4.2.3-4.4-1.2c0 0-.3-2.4 3.1-2.7l.8-.2c-1.4-.4-2.9.1-3.9 1.2-.4.5-.7 1.1-.6 1.7.1 1.1 1.2 1.8 2.3 2 1.9.3 3.7-.5 5.3-1.5 1.8-1 3.6-2.2 5.7-2.8 1.6-.4 3.2-.5 4.8-.7 1.6-.2 3.2-.4 4.7-1.1 1.4-.7 2.7-2 3-3.6.5-1.8-.4-3.6-1.7-5zM59.8 107.2s-5.2 0-3.7-4.7c1.5-4.8 9-3.2 11.2-3.1 2.2 0 5.8.3 6.8-1.9 0 0-.2 2.8-6.8 2.3s-9.5-.2-10.7 2.6c-1.2 2.8 1.8 4 2.9 3.9l.3.9z" class="color622e09 svgShape"></path><path fill="#ff2020" d="M35.7 103.9c1.1 1.7 2.3 3.3 3.4 5 .4.6.8 1.2 1.1 1.9.6 1.4.6 3.1.3 4.6s-1 3-1.6 4.4c-.4.8-.8 1.7-1.6 2.1-1.1.6-2.5.1-3.4-.7-.7.4-.9 1.6-3.2 1.8-2.1.2-2.8-.7-3.2-1.4-.4.4-.9.6-1.4.8-1.3.4-2.7.6-3.8-.1-.4-.3-.8-.6-1.1-1-.5-.7-1-1.5-1.2-2.3-.2-.9 0-1.8.6-2.5.6-.6 1.7-.8 2.4-.2.3-1-.3-2-.6-3-.9-2.9 1.4-6 .8-9.1l10-3.2 2.5 2.9z" class="colore8a87a svgShape"></path><path fill="#ff2020" d="M39.7 114.3c1 .5 1.8 1.3 2.5 2.2.5.6.9 1.4.8 2.1-.1.7-.6 1.3-1.3 1.5-.6.1-1.2 0-1.7-.3s-.9-.7-1.3-1.1l1-4.4z" class="colore8a87a svgShape"></path><path fill="#420962" d="M38.6 118.8c.4.4.8.8 1.3 1.1.5.3 1.1.4 1.7.3.7-.2 1.2-.8 1.3-1.5.1-.8-.3-1.5-.8-2.1-.7-.9-1.5-1.6-2.5-2.2 0 0 4 3.5 2.5 4.9-1.5 1.4-3.5-.5-3.5-.5z" class="color622e09 svgShape"></path><path fill="#14c5af" d="M40.3 110.8c-.3-.7-.7-1.3-1.1-1.9l-3.3-4.8c-.4-.2-1.1-.5-1.5-.3-.5.2-.4.7-.2 1.1.8 1 1.5 1.9 2.2 3 .7 1.2 1.3 2.5 1.6 3.8.4 1.4.6 3 .5 4.5-.1.5-.3 1.2-.8 1.2s-.8-.4-1.1-.8c-.5-.7-1-1.4-1.6-2.1-.1-.1-.3-.3-.5-.4-.4-.1-.8.1-.9.5-.2.3-.2.7-.2 1.1-.1 1.1-.4 2.2-1 3.1-.1.3-.4.5-.7.4-.1-.1-.2-.2-.2-.4l-.9-3c-.2-.7-.7-1.6-1.4-1.5-.7 0-1.1.8-1.2 1.5-.1.6-.1 1.2-.1 1.8 0 .5.1 1.2-.4 1.5-.2.2-.5.2-.8.1-.6-.1-1.2-.6-1.4-1.3-.1-.3-.1-.7-.4-.8-.3-.2-.7 0-.9-.2-.3-.3 0-.8.1-1.2.2-.7-.2-1.4-.7-1.9s-1-1-1.2-1.7l-.1.1c0 .3.1.7.2 1 .3 1 .9 2 .6 3-.7-.6-1.8-.4-2.4.2s-.8 1.6-.6 2.5c.2.9.7 1.6 1.2 2.3.3.4.6.8 1.1 1 1.1.7 2.5.5 3.8.1.5-.2 1.1-.3 1.4-.8.4.7 1.1 1.5 3.2 1.4 2.3-.2 2.5-1.4 3.2-1.8.9.8 2.3 1.3 3.4.7.8-.4 1.2-1.3 1.6-2.1.7-1.4 1.3-2.9 1.6-4.4.5-1.5.5-3.1-.1-4.5z" class="colord39266 svgShape"></path><path fill="#ff2020" d="M49.7 119.8c-.9.9-1.6 2-2.1 3.1-.3.8-.6 1.8-.2 2.6.3.7 1.1 1.2 1.9 1.2.7 0 1.3-.3 1.8-.8.5-.4.8-1 1.2-1.6l-2.6-4.5z" class="colore8a87a svgShape"></path><path fill="#420962" d="M52.1 124.4c-.3.6-.7 1.1-1.2 1.6-.5.4-1.1.8-1.8.8-.8 0-1.6-.5-1.9-1.2-.3-.8-.1-1.8.2-2.6.5-1.2 1.2-2.3 2.1-3.1 0 0-3.4 5.1-1.3 6.2 2.3.9 3.9-1.7 3.9-1.7z" class="color622e09 svgShape"></path><path fill="#ff2020" d="m50.9 106.9-2.4 6.6c-.3.8-.6 1.6-.7 2.4-.3 1.8.2 3.6 1 5.2s1.9 3 3.1 4.4c.7.8 1.4 1.7 2.4 1.9 1.4.3 2.8-.6 3.6-1.8.8.2 1.5 1.5 4.1 1 2.4-.4 3-1.6 3.2-2.5.5.4 1.2.4 1.8.4 1.5 0 3.1-.2 4.2-1.3.4-.4.7-.9.9-1.5.4-.9.7-1.9.7-2.9-.1-1-.5-2-1.4-2.6-.9-.5-2.1-.4-2.7.4-.7-1-.2-2.3-.2-3.5.1-3.5-3.3-6.3-3.6-9.8l-12-.6-2 4.2z" class="colore8a87a svgShape"></path><path fill="#14c5af" d="M71.4 116.5c-.9-.5-2.1-.4-2.7.4-.7-1-.2-2.3-.2-3.5.1-2.9-2.2-5.3-3.2-8.1-.2 0-.4-.1-.5-.1-.6-.1-2.4.1-1.9 1 .2.5.8.9 1.2 1.3.4.5.7 1 1.1 1.5.6 1.1 1 2.4.9 3.7-.1.9-.5 1.8-.3 2.6.1.6.5 1.1.5 1.6.1.9-.9 1.9-1.7 1.5-.5-.2-.8-.7-1.2-1.1-.8-.9-2.5-1-3.1 0-.3.5-.3 1-.5 1.5-.1.5-.4 1.1-.9 1.2-.8.2-1.5-.7-1.8-1.4-.4-.8-1-1.7-1.8-1.5-.7.2-1 1-1 1.8 0 .7-.1 1.6-.6 2-.6.4-1.4.3-2 0-1.8-1-2.6-3.3-2.5-5.4-.4.2-.6.7-.7 1.1-.2.9-.2 1.7-.1 2.6.2.6.4 1.3.7 1.8.8 1.6 1.9 3 3.1 4.4.7.8 1.4 1.7 2.4 1.9 1.4.3 2.8-.6 3.6-1.8.8.2 1.5 1.5 4.1 1 2.4-.4 3-1.6 3.2-2.5.5.4 1.2.4 1.8.4 1.5 0 3.1-.2 4.2-1.3.4-.4.7-.9.9-1.5.4-.9.7-1.9.7-2.9-.3-.7-.8-1.7-1.7-2.2z" class="colord39266 svgShape"></path><path fill="#420962" d="M20 118.9c-.2-.9 0-1.8.6-2.5.6-.6 1.7-.8 2.4-.2.3-1-.3-2-.6-3-.5-1.7.1-3.8.4-5.3.2-.1.2.6.3.5-.1.6-.2 1.2-.4 1.9-.9 3.2 2 4.6.5 6.7 0 0-.1 1.9.9 1.5 1-.3-.2 1.2-.6.9s-1.1-2.4-.7-2.8-3-.8-2.3 2.1 3.5 4.4 5.5 3.2c2.1-1.2 4.1-2.8 3-6.4 0 0 2 3.2-.7 5.7 0 0 2.9 2.4 5.4-.5s1.4-6.1 1.4-6.1 1.6 3.6-.4 6c0 0 1.1 1.9 3.2-.1s3.7-7.2 2.5-9.3c-.8-1.4-3.3-4.8-5-6.9.2.1.5.2.8.3.1 0 .2 0 .3.1 1 1.4 1.9 2.8 2.9 4.1.4.6.8 1.2 1.1 1.9.6 1.4.6 3.1.3 4.6s-1 3-1.6 4.4c-.4.8-.8 1.7-1.6 2.1-1.1.6-2.5.1-3.4-.7-.7.4-.9 1.6-3.2 1.8-2.1.2-2.8-.7-3.2-1.4-.4.4-.9.6-1.4.8-1.3.4-2.7.6-3.8-.1-.4-.3-.8-.6-1.1-1-.8-.7-1.3-1.4-1.5-2.3z" class="color622e09 svgShape"></path><path fill="#4c166b" d="M40.6 64.3c-.4 4-1 8-2.3 11.7-1.3 3.8-3.3 7.3-6.2 9.8 1.3 2.3 2.6 4.7 3.1 7.3.8 4.2-.4 9 1.8 12.7-.7.1-1.5-.3-1.9-.9.3.4-.3 1-.8.8s-.7-.7-.9-1.1c-.2-.5-.5-1-1-1l-2.7 6.3c-.2-1.7-.9-3.3-1.8-4.6-.3 1-.5 2-.8 2.9-.7-.5-1.2-1.4-1.4-2.3-.8 1.2-1.5 2.4-2.3 3.6-1-.9-.9-2.5-1.2-3.8-.5-2.4-2.2-4.2-3.6-6-1.8-2.4-3.2-5-4.3-7.9-.9-2.5-1.5-5-2.1-7.6-.1-.6-.3-1.3-.3-2 .1-2 1.7-3.5 2.1-5.5.3-1.6-.3-3.3.1-4.9.4-1.6 1.6-2.9 2.1-4.5.5-1.7.2-3.5.4-5.2.2-2 1-3.9 2.3-5.3-1.2.6-2.4 1.4-3.5 2.3 1.3-3.6 4.2-6.5 7.6-7.6-1.6-.1-3.3.1-4.9.7 1.1-3.1 4.5-4.4 7.5-5.1 3.4-.8 7.1-1.4 10.4-.3 3.4 1.1 6.3 4.5 6.1 8.3l-1.5 9.2z" class="color6b3916 svgShape"></path><path fill="#3c0d56" d="M38.3 76.1c1.3-3.8 1.9-7.8 2.3-11.7l1.2-7.3c-.2.1-.4.1-.6.3-1.1.7-1.4 2.1-2.1 3.1-.6.9-1.4 1.5-2.1 2.3-.8 1-.9 1.8-.9 3-.1 1.3-.5 2.3-1 3.5-1.1 2.7-2.3 5.4-3.5 8S29 82.5 27 84.6c-2 2-4.9 3.5-7.7 3.1 1.9 2.5 5.6 3.4 8.4 2.2.4-.2.8-.4 1.2-.2.2.1.4.3.5.5 2 2.6 2.1 6.1 2.1 9.4-.5-.6-1.5-.2-1.8.5s-.1 1.5-.1 2.2-.2 1.6-.8 1.9c.2 1.1.1 2.2 0 3.2.3.8.6 1.7.7 2.6l2.7-6.3c.5.1.8.6 1 1 .2.5.4 1 .9 1.1.5.2 1.1-.4.8-.8.5.6 1.2 1 1.9.9-2.2-3.6-1-8.4-1.8-12.7-.5-2.6-1.8-5-3.1-7.3 3.1-2.5 5.2-6.1 6.4-9.8z" class="color562a0d svgShape"></path><path fill="#ff2020" d="M116.2 101.5c1.2 1.4 2.1 3.2 1.8 5-.3 1.6-1.5 2.9-3 3.6-1.4.7-3.1 1-4.7 1.1-1.6.2-3.2.2-4.8.7-2 .6-3.8 1.7-5.7 2.8-1.6.9-3.5 1.7-5.3 1.5-1.1-.2-2.2-.9-2.3-2 0 0-3.1 2.4-5.2-.5 0 0-4.5-.1-3.1-4.6s9-2.8 12.1-3 4.4.1 5.3-1.6 4.8-5.2 4.8-5.2l7.3-1.7 1.8 1.4 1 2.5z" class="colore8a87a svgShape"></path><path fill="#14c5af" d="m115.3 98.9-.2-.2c-.5.2-.8.7-.6 1.4.3 1 .7 1.9.8 3 .1 1.1-.2 2.3-.9 3.2-1.4 1.7-4.1 1.5-6.3 1.7-3 .3-5.8 1.6-7.9 3.7-.5.5-1 1.1-1.6 1.4s-1.5.4-2 0c-.6-.5-.5-1.5.1-1.8-1.7-.8-3.6.4-5.4.9-.5.1-1.1.2-1.5-.1-.6-.5-.2-1.7.6-2 .8-.3 1.6-.1 2.5-.1 1.1 0 2.3-.2 3.3-.8-2.5.5-5.2-1-7.6-.1-.8.3-1.9.8-2.4.1-.3-.4-.1-1.1.3-1.4s1-.5 1.5-.6c1.5-.3 3.1-.6 4.6-.9-.1-.1-.1-.2-.2-.3-3.4-.1-7.4-.1-8.4 3.1-1.4 4.5 3.1 4.6 3.1 4.6 2.1 2.9 5.2.5 5.2.5.1 1.1 1.2 1.8 2.3 2 1.9.3 3.7-.5 5.3-1.5 1.8-1 3.6-2.2 5.7-2.8 1.6-.4 3.2-.5 4.8-.7 1.6-.2 3.2-.4 4.7-1.1 1.4-.7 2.7-2 3-3.6.3-1.8-.6-3.6-1.8-5l-1-2.6z" class="colord39266 svgShape"></path><path fill="#420962" d="M91.4 109.5c-2.2-.2-4.8.7-3.9 3.5s5.1 0 5.1 0l-.1 1c-4.1 2.9-5.6-.3-5.6-.3s-1.2-4.5 2.8-4.7c2.6-.1 4.2.7 6.3 0 .1-.1-.1.8-4.6.5z" class="color622e09 svgShape"></path><path fill="#340a4c" d="M25.7 47c-3 .7-6.4 2-7.5 5.1 1.6-.5 3.2-.8 4.9-.7-3.4 1.2-6.3 4-7.6 7.6 1.1-.9 2.3-1.6 3.5-2.3-1.3 1.4-2.1 3.3-2.3 5.3-.1 1.7.2 3.6-.4 5.2-.5 1.6-1.8 2.8-2.1 4.5-.3 1.6.2 3.3-.1 4.9-.4 1.9-2 3.5-2.1 5.5 0 .7.1 1.3.3 2 .6 2.6 1.2 5.1 2.1 7.6 1 2.8 2.5 5.5 4.3 7.9 1.4 1.9 3.1 3.7 3.6 6 .3 1.3.2 3 1.2 3.8.8-1.2 1.5-2.4 2.3-3.6.1.9.6 1.8 1.4 2.3.3-1 .5-2 .8-2.9.9 1.4 1.6 3 1.8 4.6l2.7-6.3c.5.1.8.6 1 1 .2.5.4 1 .9 1.1.5.2 1.1-.4.8-.8.5.6 1.2 1 1.9.9-2.2-3.6-1-8.4-1.8-12.7-.5-2.6-1.8-5-3.1-7.3 2.9-2.5 5-6 6.2-9.8 1.3-3.8 1.9-7.8 2.3-11.7l1.5-9.3s-2.2 10.3-3 13.9-3 19.3-16 19.4c0 0 5.1 1.3 8.4-1.7 0 0 3.5 4.9 3.3 8.5-.1 3.6.3 9.3 1.4 10.1l-1.8-1.5s.6 1.2 0 1.1-1.8-2-3.1-2.6c0 0 .2 3.3-1.5 6.5 0 0-1-3.9-2.6-4.9 0 0 .7 4.2-.3 3.5-.3-.2-1.7-2-1-3.3 0 0-2.5 3.7-2.5 4.8 0 0-.8-2.1-1.1-4.1-.3-2-5.4-6.7-6.5-10.3-1-3.6-3.6-9.4-3.2-12.7.3-3.4 6.3-2.8 6.3-2.8s-2.6-1-5 .2c0 0 .9-1.9.7-4s0-4.3 1.6-5.8c0 0 .2 2.5 1.9 4.5 0 0-1.3-2.4-1-5.2.3-2.8 0-5.7 0-5.7s-.3-3.7 3.4-7c0 0-2.2.6-3.7 1.7 0 0 2.5-5.1 8.3-6.3 5.9-1.2 0 0 0 0s-4.1-.8-6 .2c0 0 1.1-2.7 5.4-3.6l1.1-.8z" class="color4c250a svgShape"></path><path fill="#641f8c" d="M115.2 96.4c-2.1-3.1-.2-5.7-2.8-11-2.6-5.3-8.4-6.2-8.4-6.2 3.2-5.2 3.2-23.8 3.2-23.8l1.1 6.3s3.7-10.5-6.3-22.3c-2.5-2.9-5.2-4.7-8-5.9-8.3-4.8-25.5-.5-31.8-4.5-6.7-4.2-8.3-8.8-8.3-8.8l3.5 1.4c-1.4-4.1-6.7-9.9-6.7-9.9L54 13C51.8 4.7 43.3 3 43.3 3l4.8-1.7C38.7-2 29.6 4.8 29.6 4.8L32.5.7c-11.2 3-13.8 12.5-13.8 12.5L26.2 49c-1.7 10.9 9.6 15.5 9.6 15.5 9 9.1 30.6 5.9 30.6 5.9 5.2.7 10.8-.3 15.3-1.7v.7c0 4-.1 8 1.4 11.7.5 1.1 1.4 2.4 2.4 3 .5 2.1 1.9 3.9 3.6 5.4 1.7 1.4 3.6 2.5 5.4 3.7 1.4 1 2.8 2.1 4 3.2 1.1 1 2.1 2.1 2.7 3.5.6 1.3.8 3 .1 4.3 1.9-.3 3.6-1.3 4.7-2.9.2.9.7 1.7 1.4 2.4.2-.9.5-1.8.8-2.6.8.8 1.6 1.7 2.5 2.5.1-1 .4-2 .8-2.9.6.7 1 1.5 1.2 2.4.3-.7 1-1 1.5-1.4.6-.4 1-1.2.7-1.8.6.6 1.1 1.1 1.5 1.9.1.1.9-2.3-1.2-5.4z" class="color8c4e1f svgShape"></path><path fill="#dba26b" d="M83.2 61.5c-2.7 1-5.4 1.9-8.1 2.5-5.7 1.2-11.7.4-17-2-4.4-2-8.9-4.9-10.4-9.8-.8-2.7-1.2-4.9-3.7-6.6H25.5l.7 3.4c-1.7 10.9 9.6 15.5 9.6 15.5 9 9.1 30.6 5.9 30.6 5.9 5.2.7 10.8-.3 15.3-1.7 0 .4 1.5-7.2 1.5-7.2z" class="colordb8e6b svgShape"></path><path fill="#c1854c" d="M26 51.4s4.2 13.9 14.3 9.5c0 0-3.6-4.5-2.7-8.1 0 0 1.4 9.2 9.3 6.7l1.1 3s-4.6.5-6.1-.2c0 0-5 3.6-9.7 0-4.5-3.5-6.3-9-6.2-10.9z" class="colorc1754c svgShape"></path><path fill="#ff2020" d="M12.7 25.8c2 2.1 5.3 3 7 1.4 1.6-1.5 1-4.9-1-7s-4.6-2.3-6.3-.7c-1.7 1.5-1.7 4.1.3 6.3z" class="colore8a87a svgShape"></path><path fill="#ff9a3a" d="M13 22.8c-.3-.8.2-1.8.9-2.2.7-.5 1.7-.4 2.5-.1.8.4 1.4 1 1.8 1.8.1.1.1.3.1.4s-.1.3-.2.3h-.2c-.4 0-.6.4-.6.7 0 .4.3.6.5.9.3.2.6.4.8.7.1.1.1.2.1.3 0 .3-.3.4-.5.5-1 .2-2-.1-2.8-.6s-1.5-1.3-2.1-2l-.3-.7z" class="colore58c54 svgShape"></path><path fill="#641f8c" d="M12.9 21.8s1.2-2.8 3.8-1.2c2.6 1.6 1.7 2.6 1.5 2.6-.2-.1-.8.1-.8.4s.2.8.9 1.4c.7.6.6 1.2-.3 1.3.2-.1.3-.4.2-.6-.1-.2-.2-.4-.4-.6-.2-.2-.4-.3-.6-.5-.4-.4-.5-1-.3-1.4.1-.1.2-.2.2-.3.1-.3-.1-.7-.4-.8-.3-.1-.7-.1-1 0-.1 0-.3.1-.4.1-.1 0-.3-.2-.2-.3v-.1c0-.1-.2-.2-.3-.2s-.3.1-.4 0c-.1 0-.2-.2-.3-.3-.2-.2-.5-.2-.7-.1-.1 0-.4.3-.5.6z" class="color8c4e1f svgShape"></path><path fill="#ff2020" d="M15.5 24.2c1.9-2.7-.7-6.8.8-9.7 1.3-2.7 5.4-3.4 7.8-1.6.4.3.8.7 1.4.9 1.6.7 3.3-.8 4.9-1.5 3.1-1.5 7.1-.4 9.3 2.2s2.6 6.5 1.4 9.7c-.3.8-.7 1.5-.7 2.3-.1 1.6.9 3 1.9 4.2 2.1 2.9 3.9 6.2 3.6 9.8-.4 4.8-4.6 8.7-9.2 10C31.9 52 9 53.4 14.2 38.3c0 0-6.8-3.1-3-9.4 1.3-2.1 3.2-3.1 4.3-4.7z" class="colore8a87a svgShape"></path><path fill="#c1854c" d="M42.2 30.9c-.9-1.3-2-2.7-1.9-4.2.1-.8.4-1.6.7-2.3 1.2-3.2.8-7.1-1.4-9.7-.3-.4-.7-.8-1.2-1.1 1.5 2.5 1.7 5.8.6 8.6-.3.8-.7 1.5-.7 2.3-.1 1.6.9 3 1.9 4.2 2.1 2.9 3.9 6.2 3.6 9.8-.4 4.8-4.6 8.7-9.2 10-3.2.9-14.8 1.8-20.3-2.4 3.8 6.8 18.5 5.7 22.2 4.7 4.7-1.3 8.9-5.2 9.2-10 .3-3.7-1.4-7.1-3.5-9.9z" class="colorc1754c svgShape"></path><ellipse cx="20.4" cy="21.5" fill="#c1854c" rx="3.2" ry="4.6" class="colorc1754c svgShape"></ellipse><ellipse cx="20.4" cy="21.5" fill="#fdff3d" rx="2.9" ry="3.9" class="colorf5fbfb svgShape"></ellipse><ellipse cx="19.9" cy="22.4" fill="#1483c5" rx="2" ry="2.7" class="color5f91c6 svgShape"></ellipse><ellipse cx="19.9" cy="22.4" fill="#150021" rx="1.2" ry="1.6" class="color000421 svgShape"></ellipse><ellipse cx="20.6" cy="21.2" fill="#ffffea" rx=".5" ry=".7" class="coloreafcff svgShape"></ellipse><ellipse cx="30.4" cy="22" fill="#c1854c" rx="4" ry="5.4" class="colorc1754c svgShape"></ellipse><ellipse cx="30.4" cy="22.2" fill="#fdff3d" rx="3.5" ry="4.7" class="colorf5fbfb svgShape"></ellipse><ellipse cx="29.9" cy="23.3" fill="#1483c5" rx="2.4" ry="3.2" class="color5f91c6 svgShape"></ellipse><ellipse cx="29.9" cy="23.3" fill="#150021" rx="1.4" ry="1.9" class="color000421 svgShape"></ellipse><ellipse cx="30.7" cy="22" fill="#ffffea" rx=".6" ry=".9" class="coloreafcff svgShape"></ellipse><path fill="#fccc9f" d="M13 31.5c1 1 3.1 1.3 3.8.1.6-1.1 0-1.8 0-2.5 0-1.1.3-2.3 1-3.2.4-.5 1-1.1 1.6-1.3.5-.1.7.6 1.2.8.4.2.9.7 1.4.8 1.2.4 2.5-1.5 3.7-1.5 1.4 0 2.2 1.6 2.4 3 .1.4.1.8 0 1.1-.2.7-.9 1.5-1 2.3-.2.8.4 1.3 1.2 1.4.8.2 1.6-.1 2.4-.4 1.1-.4 2.2-.7 3.2-1.1.7-.2 1.5-.5 2.2-.4 1.3.1 2.4 1.2 2.9 2.4s.5 2.6.5 3.9c0 .6-.1 1.3-.6 1.5-.7.3-1.4-.6-1.6-1.4-1.7 4.9-6 8.8-11.1 9.4-2.3.3-5.1-.2-7.3-.9-.8-.2-1.6-.5-2.2-1.1-.6-.5-1.1-1.3-1-2.2.1-1.5 1.8-2.4 2.2-3.9-1.5-.3-3-.7-4.5-1.3-.8-.3-1.7-.8-2.2-1.5-.2-.4-.3-.8-.4-1.2-.4-1.6-.4-3.9.5-5.4.4-.6 1.9-2.4 1.8-2.2-.4.8-1.6 3.2-.1 4.8z" class="colorfcc59f svgShape"></path><path fill="#39134e" d="M18.2 38.1s-3.9 3.7-1.4 5.7c2.5 1.9 12.8 3.5 16.4-2.7 2.6-4.3 3.2-6.9 3.8-8.2 0 .1-7.3 5.8-18.8 5.2z" class="color4e1413 svgShape"></path><path fill="#f7c08b" d="M32.7 41.8c-.1-1.3-.6-2.8-3.3-3.4-3.4-.8-7.2 4-7.2 4l1.5-2.4c-5.4-2.8-7 1.7-7.4 3.3.1.2.3.4.5.6 2.4 1.7 11.9 3.2 15.9-2.1z" class="colorf78b8b svgShape"></path><path fill="#39134e" d="M26 30.1c-.5.7-2.6 1.8-3.4 1.1-.8-.7-.2-2.9.3-3.6s1.7-.7 2.5 0c.9.7 1.2 1.8.6 2.5zM17.7 29c.3.7 1.7 2.1 2.6 1.7s.8-2.4.5-3.1-1.2-1-2.1-.6-1.3 1.3-1 2z" class="color4e1413 svgShape"></path><path fill="#1c0728" d="M23.3 28.8c.5-.7 1.7-.7 2.5 0l.5.5c0-.6-.3-1.2-.8-1.7-.8-.7-2-.7-2.5 0s-1.2 2.8-.4 3.5c0-.8.4-1.9.7-2.3zM18.6 29.5c-.3-.7.2-1.6 1-1.9.4-.2.8-.2 1.1-.1-.4-.5-1.2-.7-2-.4-.9.4-1.3 1.2-1 1.9.2.5 1.1 1.5 1.9 1.7-.4-.3-.8-.8-1-1.2z" class="color280707 svgShape"></path><path fill="#66208d" d="M16.7 31.8s.7-1-.1-2.5c-.8-1.5 1.9-5.9 3.4-4.9s1.2 1.6 2.1 1.5 2.8-1.9 3.5-1.7c.7.2 4.1 1.5 2.6 5.4-.2.6-1.1 1.2-1 2.3 0 0-.5-.3.4-3s-1.6-4.2-2.3-3.8c-.7.4-2 1.6-3.1 1.6S20 25 19.4 25c-.6 0-2.9 2.6-2.4 3.8.5 1.3.2 2.3-.3 3z" class="color8d4f20 svgShape"></path><path fill="#420962" d="M37 33s-8.2 7.3-22.8 5.3c0 0-7-2.6-3.1-9.1 0 0 .9-1.8 3.6-4 0 0-4 4.1-3.9 7.3 0 0-.3 4.6 5.7 5.4 3.7.5 11.8.4 20.3-5.1 0 0-1.2-.6-2.1-.3 0 0 4.3-3.2 4.2 4.2-.1 0-.5-2.7-1.9-3.7z" class="color622e09 svgShape"></path><path fill="#420962" d="M37.3 32.8s-.5 1.5-1.2 3.4c-1.4 3.9-4.5 9.8-11.9 9.6-11.1-.3-9.3-4.6-6.9-7.4h1.2s-7.7 6.7 5.4 6.7c0 0 7.2 1.4 11.7-9 .5-1.1 1.1-2.4 1.5-3.7l.2.4z" class="color622e09 svgShape"></path><path fill="#ff2020" d="M50.3 26.4c-2.2 2.3-5.7 3.2-7.5 1.5s-1.1-5.2 1.1-7.5 5-2.4 6.8-.8c1.8 1.6 1.8 4.5-.4 6.8z" class="colore8a87a svgShape"></path><path fill="#ff9a3a" d="M50 23.2c.3-.9-.2-1.9-1-2.4s-1.8-.5-2.7-.1c-.8.4-1.5 1.1-2 1.9-.1.1-.2.3-.2.4 0 .2.1.3.2.4h.3c.4 0 .7.4.6.8 0 .4-.3.7-.6.9-.3.2-.6.5-.8.7-.1.1-.1.2-.1.3 0 .3.3.5.6.5 1 .2 2.1-.1 3-.7s1.6-1.4 2.3-2.2l.4-.5z" class="colore58c54 svgShape"></path><path fill="#641f8c" d="M50.1 22.1S48.8 19 46 20.8s-1.9 2.8-1.6 2.7c.2-.1.8.1.8.5s-.2.9-1 1.5-.6 1.3.3 1.3c-.2-.1-.3-.4-.3-.7s.2-.5.4-.7.4-.3.6-.5c.4-.4.6-1.1.3-1.5-.1-.1-.2-.2-.2-.3-.1-.3.1-.7.4-.9.3-.1.7-.1 1 0 .1 0 .3.1.4.1.1 0 .3-.2.2-.3v-.1c0-.1.2-.2.3-.2.2 0 .3.1.4.1l.3-.3c.2-.2.5-.2.7-.1.6.1 1 .4 1.1.7z" class="color8c4e1f svgShape"></path><path fill="#541777" d="M73.9 53.8s4.5 9.2 11.2 2.5l-2.3 5.5s-7.3 2.5-8.5 2.4l-1.1-1.9-1.9-7.1 2.6-1.4z" class="color773e17 svgShape"></path><path fill="#541777" d="M106 101.5c.1.4.3.8.4 1.1 0-.7-.2-1.4-.4-2.1-.5-1.4-1.6-2.8-3.1-2.8-.4-2.7-3.1-4.3-5.5-5.7-2.3-1.3-4.6-2.8-6.8-4.3-.5-.4-1-1.3-.4-1.5.1-.1.3 0 .5 0 1.2.2 2.3.9 3.4 1.3 1.1.5 2.4.8 3.6.5s2.2-1.5 1.9-2.7c-.3-1.3-1.8-1.9-3.1-1.9-.8 0-1.6.2-2.4.4.7-.2 1.2-.7 1.2-1.4-3.2.7-6.7-1.4-7.5-4.5-8-6.6 1.6-26.5 1.6-26.5-6.3 5.2-7.7 17.3-7.7 17.3v.7c0 4-.1 8 1.4 11.7.5 1.1 1.4 2.4 2.4 3 .5 2.1 1.9 3.9 3.6 5.4 1.7 1.4 3.6 2.5 5.4 3.7 1.4 1 2.8 2.1 4 3.2 1.1 1 2.1 2.1 2.7 3.5.6 1.3.8 3 .1 4.3 1.9-.1 3.6-1.1 4.7-2.7zM91 82.8c.7.6 1.5 1.2 2.4 1.3h.3c-.3.1-.7.1-1 .1-.4 0-.9 0-1.3-.2-.3-.3-.6-.8-.4-1.2z" class="color773e17 svgShape"></path><path fill="#420962" d="M115.2 96.4c-2.1-3.1-.2-5.7-2.8-11-2.6-5.3-8.4-6.2-8.4-6.2 3.2-5.2 3.2-23.8 3.2-23.8l1.1 6.3s3.7-10.5-6.3-22.3c-2.5-2.9-5.2-4.7-8-5.9-8.3-4.8-25.5-.5-31.8-4.5-6.7-4.2-8.3-8.8-8.3-8.8l3.5 1.4c-1.4-4.1-6.7-9.9-6.7-9.9L54 13C51.8 4.7 43.3 3 43.3 3l4.8-1.7C38.7-2 29.6 4.8 29.6 4.8L32.5.7C23.8 3.1 20.3 9.4 19.2 12h.2c1.3-2.3 4.7-7.3 9.9-9 0 0-1.3 2.1-1.5 4 0 0 5.9-6.5 15.2-5.3 0 0-3.8 1.3-5.1 3.4 0 0 9.2-5 14.9 6.9 0 0-3.7-1-5.4-2.3 0 0 6.5 5 7.5 9.3l-3.5-.7s3.8 7.7 11.2 11.3c0 0 5 2.2 18.5 1.9 13.5-.3 19.9 6.7 20.5 10.5 0 0 .3-1.8-1-3.5 0 0 8.6 8.8 7.8 18.7l-2.2-4.6s1.3 10.1-.5 17.8-2.6 9.3-5.3 10.1c0 0 1.6.1 3-.9 0 0 6.7.5 8.7 6.6 2.1 6.1.2 11.8.2 11.8s1-1.2 1.4-3.7c0 0 2.5 3.9 2.4 6.1 0 0-.6-.8-2.1-1.6 0 0 1.1 1.8-.7 3.1 0 0-.7-1.5-2-2.2 0 0-1.1 1.5-.7 2.8 0 0-2.4-1.1-3-3.1 0 0-.7 1.5-.3 3.1 0 0-1.3-1-1.4-2.7 0 0-1.1 3.2-4 4 0 0 2.2-4-4.9-9-7-5-12.5-7.7-10.3-12.5 0 0-1 1-1 1.6 0 0-5.1-4.3-3.4-16.8 0 0 1.2-10.9 7.1-15.6 0 0-5.8 3-8 16.5 0 0-10.1 3.5-14.9 1.9 0 0-20.6 3.1-30.2-5.6 0 0 2.6.6 5.7-1.4 0 0 7.3 2 14.6-5.1l-.5-.9s-8.5 8-13.8 4.7c-5.4-3.3-4.7-8.8-4.7-8.8s-1.3 5.1 3.5 9.3c0 0-3.7 3.1-7.8.5-3.6-2.2-6.7-6.6-7.1-11.3h-.1c-.1 9.6 9.7 13.3 9.7 13.3 9 9.1 30.7 5.8 30.7 5.8 5.2.7 10.8-.3 15.3-1.6v.7c0 4-.1 8 1.5 11.7.5 1.1 1.4 2.4 2.4 3 .5 2.1 1.9 3.9 3.6 5.4 1.7 1.4 3.6 2.5 5.4 3.7 1.4 1 2.8 2.1 4 3.2 1.1 1 2.1 2.1 2.7 3.5.6 1.3.8 3 .1 4.3 1.9-.3 3.6-1.3 4.7-2.9.2.9.7 1.7 1.4 2.4.2-.9.5-1.8.8-2.6.8.8 1.6 1.7 2.5 2.5.1-1 .4-2 .8-2.9.6.7 1 1.5 1.2 2.4.3-.7 1-1 1.5-1.4.6-.4 1-1.2.7-1.8.6.6 1.1 1.1 1.5 1.9-.1 0 .7-2.4-1.4-5.5z" class="color622e09 svgShape"></path><path fill="#420962" d="M88.5 83.3s1.8 6.7 10.2 1.3c0 0-7.5 3.3-10.2-1.3z" class="color622e09 svgShape"></path><path fill="#641f8c" d="M48.8 44.2c-4.2 6.9-2.9 16.1 1.2 23 .6 1 1.4 2.1 2.6 2.3-1.9 4.4-.7 9.9 2.7 13.2-2.9 1.4-4.5 4.6-5 7.8s-.1 6.4 0 9.6-.1 6.5-1.7 9.3c1.9-.7 3.5-1.9 4.7-3.4.2 1.1.5 2.2 1 3.3.9-1 1.7-2 2.6-3 .3 1.2.7 2.4 1 3.6.6-.9 1.1-1.8 1.7-2.7.2-.4.6-.8 1.1-.8.3 0 .5.3.7.6.8 1 1.5 2 2.3 3.1.1-1.3.3-2.6.6-3.9 1.3 1.5 3.2 3.1 4.5 4.6 0 0-5-3.6 2.7-9.2 7.7-5.5 6.6-14.9 6.6-14.9 2.4-4.9-.4-7.2-.4-7.2 1.9-8.1-4.1-17.6-4.1-17.6 1-1.9-.2-7.9-.2-7.9l5.5 4.1c0-9.2-9-15.4-9-15.4l5.3 1.1C68.6 31.4 56 37.4 56 37.4l-7.2 6.8z" class="color8c4e1f svgShape"></path><g fill="#541777" class="color773e17 svgShape"><path d="M68.6 110.8c-.3-.3-.6-.7-.9-1 .4.6.9 1 .9 1zM77.5 79.5c1.9-8.1-4.1-17.6-4.1-17.6 1-1.9-.2-7.9-.2-7.9l5.5 4.1c0-9.2-9-15.4-9-15.4l5.3 1.1c-5.3-9.9-14.3-8.1-17.8-7 3.5-.3 7.1 1.1 9.4 3.7-1.4-.3-2.8-.4-4.3-.2 1.3 2.2 2.8 4.2 4.3 6.2-.7-.3-1.6.4-1.7 1.2-.2.8.2 1.6.6 2.2.4.7.9 1.3 1.1 2.1.3 1.2-.2 2.5.1 3.7.2.6.5 1.2.8 1.7 2.1 4 1.2 9.4-2 12.7-.8.8-1.7 1.6-2.1 2.6-.4 1.1.1 2.5 1.2 2.6.6.1 1.2-.3 1.8-.6.6-.3 1.3-.4 1.8.1.2.2.3.6.3.9.4 3.1.2 6.3-.6 9.4 1 0 1.9 0 2.9.1.1 3.6-1 7.2-3 10.1-.3.4-.6.8-1.1.8-.4 2.1-1.6 4.2-3 5.8 0-.1-.3-.3-.3-.1-.4 1-1.6 1.4-2.6 1.9-1.6.7-3.1 2-3.8 3.6v.1c.2.8.4 1.6.7 2.4.6-.9 1.1-1.8 1.7-2.7.2-.4.6-.8 1.1-.8.3 0 .5.3.7.6.8 1 1.5 2 2.3 3.1.1-1.3.3-2.6.6-3.9 1 1.2 2.4 2.4 3.5 3.6-1-1.4-1.7-4.4 3.6-8.1 7.7-5.5 6.6-14.9 6.6-14.9 2.5-4.9-.3-7.2-.3-7.2z" fill="#000000" class="color000000 svgShape"></path></g><g fill="#772ea0" class="colora05c2e svgShape"><path d="M68.6 110.8c-.3-.3-.6-.7-.9-1 .4.6.9 1 .9 1z" fill="#000000" class="color000000 svgShape"></path><path d="M50 67.2c.6 1 1.4 2.1 2.6 2.3-1.9 4.4-.7 9.9 2.7 13.2-2.9 1.4-4.5 4.6-5 7.8s-.1 6.4 0 9.6-.1 6.5-1.7 9.3c1.9-.7 3.5-1.9 4.7-3.4.2 1.1.5 2.2 1 3.3.9-1 1.7-2 2.6-3 .3 1.2.7 2.4 1 3.6.6-.9 1.1-1.8 1.7-2.7.2-.4.6-.8 1.1-.8.3 0 .5.3.7.6.8 1 1.5 2 2.3 3.1.1-1.3.3-2.6.6-3.9 1 1.2 2.4 2.4 3.5 3.6-.3-.5-.7-1.2-.7-2.1-1.3-1.2-2.4-2.6-3.2-4.2-.9.8-1.5 2-1.6 3.2l-1.8-2.7c-.5.9-1 1.7-1.6 2.6-.2-1.3-.4-2.6-.5-4-.9.1-1.7.3-2.5.6 0-.9 0-1.8-.1-2.6-.6.4-1.2.7-1.8 1.1-.3-4.7-.5-9.7 1.7-13.9.8-1.6 2.2-3.1 3.9-3.4.7-.1 1.4 0 2.1-.3.6-.3 1.1-1.1.7-1.7-2.7-.1-5.1-2-6.3-4.4s-1.3-5.2-1-7.9c.1-.8.2-1.6.6-2.3.7-1.5 2.2-2.4 3.7-3.3-2-.8-4.4-.3-5.9 1.2-.5.1-.8.3-1 .3-.3 0-.5-.3-.7-.6-1.8-3.1-2.5-6.8-2.5-10.3 0-3.6.3-9.7 1-13.2l-1.4 2.4c-4.3 6.8-3 16 1.1 22.9z" fill="#000000" class="color000000 svgShape"></path></g><path fill="#420962" d="M48.8 44.2c-4.2 6.9-2.9 16.1 1.2 23 .6 1 1.4 2.1 2.6 2.3-1.9 4.4-.7 9.9 2.7 13.2-2.9 1.4-4.5 4.6-5 7.8s-.1 6.4 0 9.6-.1 6.5-1.7 9.3c1.9-.7 3.5-1.9 4.7-3.4.2 1.1.5 2.2 1 3.3.9-1 1.7-2 2.6-3 .3 1.2.7 2.4 1 3.6.6-.9 1.1-1.8 1.7-2.7.2-.4.6-.8 1.1-.8.3 0 .5.3.7.6.8 1 1.5 2 2.3 3.1.1-1.3.3-2.6.6-3.9 1.3 1.5 2.8 3.8 4.5 4.6 0 0-5-3.6 2.7-9.2 7.7-5.5 6.6-14.9 6.6-14.9 2.4-4.9-.4-7.2-.4-7.2 1.9-8.1-4.1-17.6-4.1-17.6 1-1.9-.2-7.9-.2-7.9l5.5 4.1c0-9.2-9-15.4-9-15.4l5.3 1.1C68.6 31.4 56 37.4 56 37.4s12.6-4.3 17.3 5.1l-5.9-.7s5.7 1.5 9.4 12.1l-5.3-2.3s4.8 5.7-.9 15.9c0 0 2.1-3.4 2.5-4.8 0 0 8.1 12.9 1.6 20.8 0 0 1.8-1.8 2.6-3.2 0 0 2.1 2.9-.1 5.9L76 84.8s4.4 6.5-2.9 14.2c0 0-8.5 5.7-6.6 9 0 0-3.1-2.6-2.7-4.3 0 0-1.3 3.3-.4 5.1 0 0-2.5-3.4-3.1-4-.6-.5-2.2 4-2.2 4s-1.4-4.1-.6-5.3c0 0-2.7 3.2-2.8 4.8 0 0-1.6-3.4-1-4.9 0 0-1.3 3.5-3.9 4.9 0 0 1.8-5.5.7-12.3s3-14 7.5-13.2c0 0-3.3-.1-4.8-4.3-1.6-4.1-1.6-8.7 3.1-12 0 0-2.2 1-3.4 2.5 0 0-10.4-11-4.5-23.5l.4-1.3z" class="color622e09 svgShape"></path><path fill="#772ea0" d="M92.9 35.5c.8.5 1.6 1.1 2.4 1.8 2.4 1.9 4.9 4.3 5.3 7.4.3 0 .5 0 .8-.1-.2-.5.4-1 1-.8.5.2.8.7 1.1 1.1 1.1 2.1 2.3 4.2 3.3 6.4-.5-.3-1-.4-1.6-.4 1.1 7.5-.2 15.3-3.6 22.1-1.2 2.4-3 4.8-5.7 5-.8-1 .1-2.4.8-3.4 2.2-3.1 3.4-6.8 4-10.5.6-3.7.6-7.5.4-11.3.1 1.7-.5 3.5-1.7 4.8.3-3.3.4-6.6-.5-9.8-1.2-4-4-7.3-6.9-10.3-1.4-1.6-6.6-4.9-9.6-5.6 3.7.4 7.3 1.5 10.5 3.6zM103.3 81.2s3.6-1.1 6.9 3.4.9 12.2.9 12.2.2-9.2-2.5-11.3c-2.7-2.1-7.9-3.3-5.3-4.3z" class="colora05c2e svgShape"></path><path fill="#420962" d="M16 23.3s.5-1.3 0-3.8-1.1-6.6 3.3-7.8 4.9 1.7 6.9 1.8 6.5-4.5 11.2-1.4 4.9 6.6 4.6 9.6c0 0 4.8-5.7 8.8-2.2 0 0-5.7-2.9-8.5 3.9-1.5 3.5 2.3 5.1 3.7 4.9 1.9-.2 3.9-1.6 4.4-2 0 0-4.3 5.6-9.5.3 0 0-.6 1.2 1.6 3.8C44.7 33 50 42.6 41.6 48c0 0 8.7-6.2.6-17.2 0 0-2.3-2.5-1.9-4.3.4-1.9 1.7-3.8 1.4-6.4s-1.4-7.5-7.4-8.4c0 0-2.2-.5-5.2 1.5s-4.5.3-5.1-.2c-.6-.6-5.2-2.4-7.6 1.5 0 0-.9 1.9-.3 5s-.1 3.8-.1 3.8zM15.1 38.2s-2.9 4.2-.8 7.8c2.2 3.6 8.3 6.2 18.4 5.1 0 0-14.2 2.5-18.8-4.9 0 0-2.1-3.2.3-8.2l.9.2z" class="color622e09 svgShape"></path><path fill="#420962" d="M15.8 18.3c-.7-.3-5.6.3-4.6 5 0 0-.5-4.7 4.6-4.4v-.6zM116.2 101.5 115 100c1.5 2.1 3.6 5.7 1.5 8-3.1 3.3-7.2 2.1-10.5 3.1-3.2.9-7.1 3.8-8.9 4.3s-4.2.3-4.4-1.2c0 0-.3-2.4 3.1-2.7l.8-.2c-1.4-.4-2.9.1-3.9 1.2-.4.5-.7 1.1-.6 1.7.1 1.1 1.2 1.8 2.3 2 1.9.3 3.7-.5 5.3-1.5 1.8-1 3.6-2.2 5.7-2.8 1.6-.4 3.2-.5 4.8-.7 1.6-.2 3.2-.4 4.7-1.1 1.4-.7 2.7-2 3-3.6.4-1.9-.5-3.7-1.7-5zM87.4 113.8s-5.2 0-3.7-4.7c1.5-4.8 9-3.2 11.2-3.1 2.2 0 5.8.3 6.8-1.9 0 0-.2 2.8-6.8 2.3s-9.5-.2-10.7 2.6c-1.2 2.8 1.8 4 2.9 3.9l.3.9zM72.8 119c-.1-1-.5-2-1.4-2.6-.9-.5-2.1-.4-2.7.4-.7-1-.2-2.3-.2-3.5 0-1.7-.7-3.3-1.6-4.8-.3-.1-.5-.2-.7-.3.3.6.6 1.3 1 2 2 3.3-.8 5.7 1.5 7.6 0 0 .7 2-.5 2-1.2-.1.6 1.2 1 .8.4-.4.5-3 0-3.3s3.1-1.8 3.2 1.6-2.5 5.9-5.2 5.2c-2.7-.7-5.4-1.9-5.2-6.3 0 0-1.2 4.2 2.5 6.2 0 0-2.5 3.5-6.1 1.1s-3.3-6.3-3.3-6.3-.7 4.5 2.2 6.5c0 0-.7 2.5-3.6.8-2.9-1.6-6.2-6.9-5.5-9.7.5-1.8 2.3-6.3 3.5-9.2-.2.2-.5.4-.8.6-.1.1-.2.1-.4.2-.7 1.8-1.3 3.6-2 5.5-.3.8-.6 1.6-.7 2.4-.3 1.8.2 3.6 1 5.2s1.9 3 3.1 4.4c.7.8 1.4 1.7 2.4 1.9 1.4.3 2.8-.6 3.6-1.8.8.2 1.5 1.5 4.1 1 2.4-.4 3-1.6 3.2-2.5.5.4 1.2.4 1.8.4 1.5 0 3.1-.2 4.2-1.3.4-.4.7-.9.9-1.5.5-.7.8-1.7.7-2.7z" class="color622e09 svgShape"></path><path fill="#592d72" d="M21.4 57.8c-.9 1.6-1.4 3.5-1.5 5.4-.4 4.3.7 8.7 3 12.4h-4.2c1.4.7 2.2 2.3 1.9 3.9 0 .3-.1.5-.3.7-.2.2-.6.3-.9.4-1.5.5-1.8 2.5-1.7 4 .2 3.3 1 6.6 2.5 9.6s3.7 6 3.6 9.4c-3.8-4.9-7.7-10-9.8-15.9-.5-1.3-.8-2.7-.6-4.1s1-2.7 2.3-3.2c.8-.3 1.8-.2 2.6-.5s1.5-1.4 1-2.1c-.8-1-3.1.3-3.6-1-.1-.2-.1-.5-.1-.7v-4.4c.3 1.7 2 3 3.7 2.9 0-3.5-1.1-6.9-1.3-10.4-.2-3.5.9-7.4 3.8-9.2-1.3.2-2.6.5-3.8 1 1.8-1.8 4.5-3.7 7-4.2.2 1.3.3 2.1-.6 2.9-1.1 1.1-2.2 1.7-3 3.1z" class="color7c4621 svgShape"></path><ellipse cx="27.2" cy="41.5" fill="#ffce9f" rx="2" ry="3.1" transform="rotate(-120.964 27.178 41.506)" class="colorff9f9f svgShape"></ellipse><ellipse cx="19.7" cy="41.6" fill="#ffce9f" rx="1.6" ry="2.4" transform="rotate(-120.964 19.684 41.63)" class="colorff9f9f svgShape"></ellipse><ellipse cx="33.6" cy="56.6" fill="#e2ad7a" rx="3.2" ry="2.4" transform="rotate(-120.073 33.623 56.585)" class="colore2987a svgShape"></ellipse><ellipse cx="42.4" cy="54.5" fill="#e2ad7a" rx="3.2" ry="2.4" transform="rotate(-120.073 42.418 54.5)" class="colore2987a svgShape"></ellipse></svg>