<svg xmlns="http://www.w3.org/2000/svg" fill-rule="evenodd" clip-rule="evenodd" image-rendering="optimizeQuality" shape-rendering="geometricPrecision" text-rendering="geometricPrecision" viewBox="0 0 1707 1707" id="nightingale"><path fill="#ff9a3a" d="M1008 1536l-207 -49 -115 33c-26,7 -37,-32 -11,-39 18,-5 119,-36 130,-34l208 50c23,5 19,39 -5,39z" class="colorffa725 svgShape"></path><path fill="#ff9a3a" d="M801 1487c-11 0-20-9-20-20l0-304c0-27 40-27 40 0l0 304c0 11-9 20-20 20zM1032 1320c-11 0-20-9-20-20l0-267c0-26 40-26 40 0l0 267c0 11-9 20-20 20z" class="colorffa725 svgShape"></path><path fill="#ff9a3a" d="M1239 1370l-207 -49 -115 32c-26,7 -37,-31 -11,-38 18,-6 119,-37 130,-34l208 49c23,6 19,40 -5,40z" class="colorffa725 svgShape"></path><path fill="#ff2020" d="M1491 254c-18,-14 -110,14 -126,71 -14,52 40,119 62,119 1,0 1,0 2,-1 -8,2 -15,4 -21,6 -62,21 -107,19 -92,60 37,99 74,355 -384,609 -74,39 -830,430 -839,430 -1,0 -2,0 -3,0 -14,0 -32,-6 -39,-24 -8,-23 3,-62 148,-172 62,-46 148,-134 243,-248 2,-3 4,-5 7,-6 162,-67 307,-132 339,-148 118,-62 393,-294 311,-456 -41,-80 -110,-107 -212,-83 -28,7 -28,-38 -29,-60 -10,-181 431,-261 601,-122 11,9 22,17 32,25z" class="coloraa5c36 svgShape"></path><path fill="#ff9a3a" d="M1427 444c-22,0 -76,-67 -62,-119 16,-57 108,-85 126,-71 61,46 140,91 206,134 16,11 10,36 -10,37 -76,4 -189,5 -256,18 -1,1 -3,1 -4,1z" class="colorffa725 svgShape"></path><path fill="#14c5af" d="M21 1293c-11,0 -20,-9 -20,-19 -11,-190 505,-802 864,-899 125,-34 218,1 270,101 97,191 -192,438 -329,509 -68,36 -690,308 -785,308z" class="colorbe6e46 svgShape"></path><path fill="#1483c5" d="M1083 408c13,12 26,26 37,42 -48,268 -449,452 -608,525 -2,2 -5,2 -7,2 -22,0 -28,-30 -8,-38 251,-117 580,-294 586,-531z" class="colorab633f svgShape"></path><line x1="1218" x2="1218" y1="269" y2="269" fill="#be6e46"></line><path fill="#fdff3d" d="M1212 410c-139,0 -139,-136 4,-154 156,-19 173,134 19,152 -8,1 -16,2 -23,2z" class="colorffe479 svgShape"></path><path fill="#592d72" d="M1220 292c-33,4 -87,26 -84,53 3,19 45,37 95,30 50,-6 86,-33 84,-52 -3,-20 -44,-37 -95,-31z" class="color353f47 svgShape"></path><circle cx="1258" cy="320" r="14" fill="#ffffff" class="colorffffff svgShape"></circle><path fill="#ff7c00" d="M1703 416c0,0 -24,-27 -338,-89 -13,52 41,117 62,117 1,0 1,0 2,-1 1,0 1,0 2,0 67,-13 180,-14 256,-18 7,0 12,-4 16,-9z" class="colorffcc00 svgShape"></path></svg>