<svg xmlns="http://www.w3.org/2000/svg" viewBox="0 0 66 66" id="Owl"><path fill="#14c5af" d="M53.8 56.8c-.7-1.6-.1-2.9.5-4.3-.7-.1-1.4-.1-1.6-.9-.1-.6 0-1.3 0-2-1.2-.4-1.3-.5-.7-3.3-1.6-.5-1-1.9-1-3-1.1-.1-1.6-.4-1.5-1.1.1-.7.3-1.4.5-2.1-1.1-.3-1.6-.8-1.6-2.2-.2-21.5 19.4 2.8 5.4 18.9zm-41.6 0c.7-1.6.1-2.9-.5-4.3.7-.1 1.4-.1 1.6-.9.1-.6 0-1.3 0-2 1.2-.4 1.3-.5.7-3.3 1.6-.5 1-1.9 1-3 1.1-.1 1.6-.4 1.5-1.1-.1-.7-.3-1.4-.5-2.1 1.1-.3 1.6-.8 1.6-2.2.2-21.5-19.4 2.8-5.4 18.9zm29.5 6.8c-.8.3-2.1-.6-3.3-2.2.1 1.9-.3 3.1-1.1 3.3-.8.1-1.8-1-2.6-2.8-.4 1.9-1 3.1-1.8 3.1s-1.5-1.2-1.8-3.1c-.8 1.8-1.8 2.9-2.6 2.8-.8-.1-1.1-1.4-1.1-3.3-1.2 1.6-2.5 2.5-3.3 2.2-2.4-.9 1.4-7.7 3.8-12.1 1.4-2.5 2.4-3.9 3-3.8.2 0 .3.2.4.4.2-.2.4-.4.6-.4.2 0 .3.2.5.4.2-.3.3-.4.5-.4s.3.1.5.4c.1-.3.3-.4.5-.4s.4.1.6.4c.1-.3.2-.4.4-.4.5-.1 1.6 1.3 3 3.8 2.4 4.4 6.2 11.2 3.8 12.1z" class="color24b1cc svgShape"></path><path fill="#14c5af" d="M53.7 38.9c0 11.4-9.3 17.7-20.7 17.7-11.5 0-20.7-6.2-20.7-17.7 0-1.8.2-7.5.6-9.1 2.2-8.4 10-13.5 19.7-13.5s18.1 5 20.5 13.5c.4 1.6.6 7.3.6 9.1z" class="color24b1cc svgShape"></path><path fill="#14c5af" d="M48.7 17.4c0 5.1-7.1 3.8-15.8 3.8-8.7 0-15.8 1.4-15.8-3.8 0-2.8 2.1-5.3 5.3-6.9-.1-.1-.2-.1-.3-.2-3.1-2-6.6-12.8.9-2.5.1.1-1.5-14.6 2.6-1.4.3.8.5 1.7 1 2.5a24.463 24.463 0 0 1 12.4 0c.5-.8.7-1.6 1-2.5 4-13.1 2.4 1.6 2.5 1.4 7.6-10.4 4.1.7.7 2.6 3.5 1.8 5.5 4.3 5.5 7z" class="color24b1cc svgShape"></path><path fill="#ff2020" d="M58.7 16.5c-5.3-1.5-10.3 2-10.8 5.9-.7-4.4 3.9-10.3 11.5-10.1 2.8.1 2.6 5.1-.7 4.2z" class="color9451c5 svgShape"></path><path fill="#1483c5" d="M58.7 21.1c-4.4-3.3-10.3-2-12.2 1.4 1-4.4 7.5-8.1 14.4-5.1 2.6 1.2.6 5.8-2.2 3.7z" class="color9cd550 svgShape"></path><path fill="#d49559" d="M57.4 25.7c-2.9-4.7-8.9-5.6-11.9-3.1 2.5-3.7 9.9-4.8 15.3.5 2 2-1.6 5.5-3.4 2.6z" class="colord45992 svgShape"></path><path fill="#fdff3d" d="M55.4 29.8c-1-5.4-6.2-8.5-10-7.2 3.7-2.5 11-.9 14.1 6.1 1.2 2.5-3.4 4.5-4.1 1.1z" class="colorf8d835 svgShape"></path><path fill="#ff2020" d="M7.3 16.5c5.3-1.5 10.3 2 10.8 5.9.7-4.4-3.9-10.3-11.5-10.1-2.8.1-2.6 5.1.7 4.2z" class="color9451c5 svgShape"></path><path fill="#1483c5" d="M7.3 21.1c4.4-3.3 10.3-2 12.2 1.4-1-4.4-7.5-8.1-14.4-5.1-2.6 1.2-.6 5.8 2.2 3.7z" class="color9cd550 svgShape"></path><path fill="#d49559" d="M8.6 25.7c2.9-4.7 8.9-5.6 11.9-3.1-2.5-3.7-9.9-4.8-15.3.5-2 2 1.6 5.5 3.4 2.6z" class="colord45992 svgShape"></path><path fill="#fdff3d" d="M10.5 29.8c1-5.4 6.2-8.5 10-7.2-3.7-2.5-11-.9-14.1 6.1-1.1 2.5 3.5 4.5 4.1 1.1z" class="colorf8d835 svgShape"></path><path d="M44.2 33.8c-4.4 0-8.5-2.5-10.5-6.6l-.7-1.3-.6 1.3c-2.1 4.1-6.1 6.6-10.5 6.6-3.1 0-6.2-1.3-8.5-3.6C15.6 22 23 17 32.6 17c9.7 0 17.8 5.1 20.2 13.2-2.2 2.3-5.5 3.6-8.6 3.6z" opacity=".1" fill="#000000" class="color000000 svgShape"></path><path fill="#d49559" d="M45.5 41.9c.2 7.8-7.8 13.2-17.2 10.7-9.6-3.4-9.5-11.1-4.7-16.2 2.8-3 7.2-4.7 11.7-4 3.3.5 6.3 2 8.2 4.3 1.3 1.5 1.9 3.4 2 5.2z" class="colord45992 svgShape"></path><path fill="#fdff3d" d="M32.9 53.6c-1.6 0-3.1-.2-4.7-.7-5.5-2-7.4-5.1-7.9-7.4-.8-3.1.4-6.6 3-9.5 2.9-3.2 7.7-4.8 12-4.1 3.4.5 6.5 2.1 8.5 4.5 1.3 1.5 2 3.4 2.1 5.5.1 2.9-1 5.7-3.1 7.8-2.5 2.6-6 3.9-9.9 3.9zm.4-21c-3.6 0-7.1 1.5-9.5 4-2.5 2.7-3.6 5.9-2.9 8.8.7 3 3.3 5.4 7.4 6.8 1.5.4 3 .6 4.5.6 3.7 0 7-1.3 9.3-3.6 1.9-2 2.9-4.5 2.9-7.3-.1-1.9-.7-3.7-1.9-5-1.9-2.2-4.8-3.7-8-4.2-.5-.1-1.1-.1-1.8-.1z" class="colorf8d835 svgShape"></path><path fill="#ffffff" d="m36.6 28.9-.5.5c-1.3 1.5-2.3 3.4-3.2 5-.3-1.6-1.3-3.6-2.9-5.2-.2-.2-.4-.3-.6-.5l.3-.3c1.7-1.8 2.8-4.2 2.8-6.9V21l.4-.4.4.4v.5c.1 2.6 1.2 5.2 3 7 .2.2.2.3.3.4z" class="colorffffff svgShape"></path><circle cx="44" cy="21.2" r="11.1" fill="#f58010" class="colorf56f10 svgShape"></circle><circle cx="44.6" cy="20.7" r="8.8" fill="#fdff3d" class="colorf8d835 svgShape"></circle><circle cx="45" cy="20.3" r="6.8" fill="#ff9a3a" class="colorf1c42b svgShape"></circle><circle cx="45" cy="20.3" r="5.6" fill="#ffffff" class="colorffffff svgShape"></circle><path d="M49.3 23.8c-1 1.2-2.6 2-4.3 2-3.1 0-5.6-2.5-5.6-5.6 0-1.7.8-3.3 2-4.3-.8 1-1.2 2.2-1.2 3.5 0 3.1 2.5 5.6 5.6 5.6 1.3.1 2.6-.4 3.5-1.2z" opacity=".1" fill="#000000" class="color000000 svgShape"></path><circle cx="45" cy="20.3" r="2.1" fill="#000000" class="color000000 svgShape"></circle><circle cx="46.1" cy="19.2" r="1" fill="#ffffff" class="colorffffff svgShape"></circle><circle cx="21.9" cy="21.2" r="11.1" fill="#f58010" class="colorf56f10 svgShape"></circle><path d="M62.4 19.9c.3-1.7-.6-2.5-2.1-3 1-.4 1.4-1.3 1.4-2.3 0-1.3-.8-2.6-2.3-2.6-2.5-.1-4.8.5-6.8 1.6-2-2.2-4.7-3.6-7.8-3.8 3.7-4 4.4-11-1.6-3.1.1-2 .5-6-.7-6-1.3 0-2.5 6-3.5 7.9-3.9-.9-8.2-.9-12.1 0C26 6.8 24.7.7 23.4.7c-.2 0-.3.1-.4.2-.4.5-.5 2.1-.3 5.9-6-7.8-5.3-.8-1.7 3.1-3.1.2-5.8 1.6-7.7 3.8-2-1.1-4.4-1.7-6.8-1.6-2.7.1-3.1 4-.9 4.9-3.5 1.1-2 5 .3 5-1.2 1-2 1.9-1.4 3.4.4 1 1.4 1.7 2.3 1.7-.7 1.3-1.2 2.3-.5 3.5 1.1 1.8 4.1 1.9 4.6-.8.2-1.1.6-2.1 1.1-3 .3.5.6 1 1 1.4-.2.4-.3.9-.4 1.3-5.1 3-9.6 17.2-.7 27.5.1.1.3.2.3.1.4 0 1.2-1.5 0-4.3 1.5-.2 1.6-1.3 1.4-2.9.8-.3 1.1-.6 1.1-1.3 2.3 3.5 6 6 10.6 7.3-1.4 2.9-2.5 5.7-2 7.1.7 1.7 2.5.8 3.9-.7.2 3.3 2.2 3.6 3.9.6.9 3.3 3 3.2 3.9 0 1.7 3 3.7 2.7 3.9-.6 2.7 2.9 6.3 2.5 1.9-6.5 4.6-1.3 8.3-3.9 10.6-7.3 0 .7.3 1.1 1 1.3 0 1.4-.3 2.7 1.4 2.9-1.2 2.8-.5 4.3 0 4.3 1 .5 9-10.7 3.6-22.6-1.1-2.4-2.5-4.2-4-5-.1-.4-.3-.8-.4-1.2.4-.5.7-1 1-1.5.5.9.9 1.9 1.1 3 .5 2.8 3.5 2.5 4.6.8.8-1.2.2-2.3-.5-3.5 1 0 1.9-.7 2.3-1.7.6-1.5-.2-2.4-1.4-3.4 1.2.1 2.1-1 2.3-2zm-3.5-7.2c1.3 0 2.1.5 2.1 1.9 0 1.2-.8 2-2.2 1.6-1.4-.4-3-.5-4.6-.1-.3-.7-.7-1.3-1.2-1.8 1.8-1.1 3.8-1.6 5.9-1.6zM19 3.9c.1 0 .9.1 3.9 4.3.1.1.2.1.3.1.5 0 .4-.7.4-1.2-.3-3.6-.2-5.1 0-5.6 1 1.4 2 6.1 2.9 7.6.1.1.3.2.4.2 8-2.1 12.2.6 12.7-.2.9-1.6 1.9-6 2.9-7.6.1.5.2 1.9 0 5.6-.1 1-.1 1 .1 1.1.1.1.2.1.3.1s.1-.1.1-.2c3-4.1 3.8-4.2 3.8-4.3.3.5-1.2 4.4-3.1 6-5.3.1-9.7 4-10.8 8.5-1.5-5.2-6-8.4-10.8-8.5-1.7-1.5-3.3-5.5-3.1-5.9zm14 20.2c.5 1.9 1.5 3.7 2.9 5.1-1.2 1.3-2.1 2.9-2.8 4.2-.5-1.5-1.4-3.1-2.8-4.4 1.3-1.4 2.2-3 2.7-4.9zM6.6 12.7c2.3-.1 4.5.4 6.3 1.5L11.7 16c-2.8-.6-4.4.2-5.2.2-2 0-2-3.4.1-3.5zm-1.4 5.1c1.6-.7 3.3-1.1 5-1.1.4 0 .8 0 1.2.1-.3.7-.5 1.5-.7 2.3-3 .7-3.6 2.2-4.8 2.2-1.6 0-2.4-2.7-.7-3.5zm.3 5.6c1.5-1.5 3.2-2.5 5-3.1-.1.7-.1 1.7.1 2.6-1.1.8-2.4 2.1-3.3 3.5-1.5.4-3.1-1.7-1.8-3zm4.7 6.3c-.5 2.8-4.3 1.1-3.4-1 .9-2 2.2-3.7 4-5 .2.8.5 1.6.8 2.4-.7 1-1.2 2.3-1.4 3.6zm1.9-12.8c.2 0 .4.1.6.1-.2 0-.4-.1-.6-.1.1-.3.2-.5.3-.7.2 0 .3.1.5.1-.2-.1-.3-.1-.5-.2 5.3-9.8 20.1-5.9 20.1 4.8v.2c0 5.8-4.8 10.7-10.7 10.7-7.7.1-12.8-8-9.7-14.9zm1 32.4c-.5.2-.1 1.2-.3 2.3-.2.8-1.3.4-1.5.8-.3.4 1.2 1.9.7 3.7-7.1-8.7-4.7-21.4.3-25.4-.3 2.3-.5 6.9-.5 8.3.1 6.8 3.7 9.6 1.3 10.3zm25.6 11.8c-.2-.3-.7-.1-.7.2.1 3.9-1.4 3.7-2.9.4-.1-.3-.6-.3-.7.1-.8 3.9-2.3 3.5-2.9 0 0-.2-.2-.3-.3-.3-.1 0-.3 0-.4.2-1.4 3.3-3.1 3.6-2.9-.4 0-.4-.5-.5-.7-.2-2.7 3.5-5.3 3.2-1.2-5 2.1.5 4.5.8 7 .8s4.8-.3 6.9-.8c4.1 8.1 1.6 8.6-1.2 5zm17.9-26.2c2.4 5.3 3.1 14-2.7 21.2-.4-1.6.9-3.3.7-3.7-.1-.2-.3-.2-.4-.2-1-.1-1.2-.2-1.1-1.8 0-.5.1-.9-.3-1-3.1-.8 3.1-3.2.8-18.7 1.1.8 2.2 2.3 3 4.2zm-3.2 4c0 11.3-9.2 17.3-20.4 17.3-11.1 0-20.4-6.1-20.4-17.3 0-1.5.1-7.8.9-9.9 2.1 2.3 5.1 3.7 8.4 3.7 3 0 5.8-1.2 7.9-3.2 1.6 1.5 2.5 3.4 2.8 5 .1.4.5.4.7.1.7-1.4 1.7-3.3 3.1-4.9 2 1.8 4.7 3 7.6 3 3.3 0 6.3-1.4 8.4-3.6.8 2.2 1 7.6 1 9.8zm-9.4-7c-6 0-10.7-4.9-10.7-10.9 0-.2-.1-2 1-4.2 2.5-6.4 9.8-6.2 9.9-6.3 6.8.1 11.7 6.5 10.3 12.8-.9 4.8-5.2 8.6-10.5 8.6zm15.1-1.6c-.8 1.2-2.9 1.5-3.3-.5-.3-1.4-.8-2.6-1.4-3.6.3-.7.6-1.5.8-2.4 1.2.8 2.2 1.9 3 3.2.8 1.2 1.5 2.3.9 3.3zm1.4-6.9c1.3 1.3-.3 3.5-1.8 3-.8-1.3-2-2.5-3.4-3.5.1-.9.2-1.9.1-2.6 1.9.5 3.6 1.6 5.1 3.1zm-1.6-2.6c-1.1-.8-2.3-1.4-3.6-1.7-.2-.8-.4-1.6-.7-2.3 1.9-.2 4.1.1 6.2 1 2 .9.4 4.7-1.9 3z" fill="#000000" class="color000000 svgShape"></path><circle cx="22.4" cy="20.7" r="8.8" fill="#fdff3d" class="colorf8d835 svgShape"></circle><circle cx="22.9" cy="20.3" r="6.8" fill="#ff9a3a" class="colorf1c42b svgShape"></circle><circle cx="22.9" cy="20.3" r="5.6" fill="#ffffff" class="colorffffff svgShape"></circle><path d="M27.2 23.8c-1 1.2-2.6 2-4.3 2-3.1 0-5.6-2.5-5.6-5.6 0-1.7.8-3.3 2-4.3-.8 1-1.2 2.2-1.2 3.5 0 3.1 2.5 5.6 5.6 5.6 1.3.1 2.5-.4 3.5-1.2z" opacity=".1" fill="#000000" class="color000000 svgShape"></path><circle cx="22.9" cy="20.3" r="2.1" fill="#000000" class="color000000 svgShape"></circle><circle cx="24" cy="19.2" r="1" fill="#ffffff" class="colorffffff svgShape"></circle><circle cx="27.9" cy="39" r="1" fill="#592d72" class="colorab256e svgShape"></circle><circle cx="39.4" cy="38.8" r="1.3" fill="#592d72" class="colorab256e svgShape"></circle><circle cx="37.6" cy="43.2" r="1.3" fill="#592d72" class="colorab256e svgShape"></circle><circle cx="36.3" cy="48.6" r=".8" fill="#592d72" class="colorab256e svgShape"></circle><circle cx="31.1" cy="49.9" r=".8" fill="#592d72" class="colorab256e svgShape"></circle><circle cx="27.5" cy="43" r=".9" fill="#592d72" class="colorab256e svgShape"></circle><circle cx="27.9" cy="49.1" r=".9" fill="#592d72" class="colorab256e svgShape"></circle><circle cx="33.3" cy="38" r=".9" fill="#592d72" class="colorab256e svgShape"></circle><circle cx="33.9" cy="42.4" r=".5" fill="#592d72" class="colorab256e svgShape"></circle><circle cx="36.9" cy="35.6" r=".5" fill="#592d72" class="colorab256e svgShape"></circle><path fill="#592d72" d="M34.2 46.6c0 .3-.2.5-.5.5s-.5-.2-.5-.5.2-.5.5-.5.5.2.5.5" class="colorab256e svgShape"></path><circle cx="34.2" cy="50.4" r=".5" fill="#592d72" class="colorab256e svgShape"></circle><circle cx="29" cy="45.6" r=".7" fill="#592d72" class="colorab256e svgShape"></circle><circle cx="24.6" cy="41" r=".5" fill="#592d72" class="colorab256e svgShape"></circle><circle cx="31.1" cy="41" r=".5" fill="#592d72" class="colorab256e svgShape"></circle><circle cx="42.4" cy="42.6" r=".5" fill="#592d72" class="colorab256e svgShape"></circle><circle cx="40" cy="47.4" r=".5" fill="#592d72" class="colorab256e svgShape"></circle><circle cx="31.1" cy="37" r=".5" fill="#592d72" class="colorab256e svgShape"></circle><circle cx="24.1" cy="45" r=".5" fill="#592d72" class="colorab256e svgShape"></circle><circle cx="25.7" cy="37.2" r=".5" fill="#592d72" class="colorab256e svgShape"></circle></svg>