<svg xmlns="http://www.w3.org/2000/svg" viewBox="0 0 128 128" id="Ox"><path fill="#ff2020" d="M97.2 100.8s1.5 2.5.1 3.8c-1.4 1.3-5.7 1.6-6.6.8v-2.1l-1.1 2.1s-1.3 0-1.4-1.2c-.1-1.2 2.9-5.3 4.3-5 1.2.3 4.7 1.6 4.7 1.6z" class="color7b4022 svgShape"></path><path fill="#14c5af" d="M97.8 103.4c-.9 1-2.7 1.3-3.9 1.4-1 0-2-.3-2.7-.9-.2-.2-.3-.4-.5-.6 0 0 0 .1-.1.1-.4.4-1 .7-1.6.6-.3 0-.6-.1-.9-.3-.1.2-.1.4-.1.6.1 1.2 1.4 1.2 1.4 1.2l1.1-2.1v2.1c.9.8 5.2.5 6.6-.8.7-.6.8-1 .7-1.3z" class="color542110 svgShape"></path><path fill="#f1f295" d="M92.5 82.8s1.5 9.6.4 11.6-2.3 4.5-2.3 4.8c0 .3 1.4-.5 1.4-.5s-1.5 1.6-1.8 1.9c-.3.3 1.9 0 2.8-.5.9-.5 1.1 1 1.1 1.6 0 .5 1.5-1.1 1.4-1.8-.1-.7 1.5 1.9 1.5 1.9s.5-1.6.2-2.3c-.2-.7 1.1.1 1.1.1s1.4.9.3-2c-1.1-2.9 4.9-18.4 4.9-18.4l-11 3.6z" class="colorf2db95 svgShape"></path><path fill="#e79d57" d="M98.6 97.6c1.1 2.9-.3 2-.3 2s-.9-.6-1.1-.3c0-1.2 0-6.4.3-8.4.3-1.7 1.7-7.5 2.4-10.4l3.6-1.2c0-.1-6 15.3-4.9 18.3z" class="colore7bd57 svgShape"></path><path fill="#ff2020" d="M64.1 107.4s1.6 2.7.1 4.2-6.4 1.8-7.3.9v-2.3l-1.3 2.3s-1.5 0-1.6-1.3c-.1-1.3 3.2-5.9 4.7-5.6 1.6.4 5.4 1.8 5.4 1.8z" class="color7b4022 svgShape"></path><path fill="#14c5af" d="M64.8 110.3c-1 1.1-3 1.5-4.3 1.5-1.1.1-2.2-.3-3-1-.2-.2-.4-.4-.5-.6l-.1.1c-.4.5-1.1.8-1.8.7-.4-.1-.7-.1-1-.4-.1.2-.1.5-.1.7.1 1.3 1.6 1.3 1.6 1.3l1.3-2.3v2.3c1 .9 5.8.5 7.3-.9.6-.6.7-1 .6-1.4z" class="color542110 svgShape"></path><path fill="#f1f295" d="M58.7 88.8c.4 1.6.7 6 .1 8.1-.6 2.1-.5 3.3-.3 4 .2.7-1.9 6-2.5 6.4l2.1-1.2s-.9.8-.5 2.6c0 0 .9.3 1.4-1.6 0 0 1.1 1.3.7 2.2 0 0 1.3-.8 1-2.1 0 0 1.1 1.1.8 2.4 0 0 1-1.6.8-2.4 0 0 1.5 1.9 2.5 1.9 0 0-.7-.9-.5-2.6 0 0 .6-.9.9.2.3 1.1.8-.1 0-2.3-.8-2.2 4.1-12.4 4.1-12.4l5.7-8.9-19-2.2c.1-.1 2.1 5.5 2.7 7.9z" class="colorf2db95 svgShape"></path><path fill="#e79d57" d="M69.4 92s-5 10.2-4.1 12.4c.8 2.2.3 3.4 0 2.3s-.9-.2-.9-.2c-.2 1.7.5 2.6.5 2.6-.7 0-1.7-1.1-2.2-1.6-.3-3.1.4-5.7 1.5-10.4 1-4 5.4-10.7 7.9-14.4l3 .3-5.7 9z" class="colore7bd57 svgShape"></path><path fill="#ff2020" d="M54.5 104.1s1.4 2.3.1 3.6c-1.3 1.2-5.4 1.5-6.2.8v-1.9l-1.1 1.9s-1.2 0-1.3-1.1c-.1-1.1 2.8-5 4-4.7 1.2.2 4.5 1.4 4.5 1.4z" class="color7b4022 svgShape"></path><path fill="#14c5af" d="M55.1 106.6c-.8.9-2.6 1.3-3.7 1.3-.9 0-1.9-.2-2.5-.9-.2-.2-.3-.4-.4-.5 0 0 0 .1-.1.1-.4.4-1 .7-1.5.6-.3 0-.6-.1-.8-.3-.1.2-.1.4-.1.6.1 1.1 1.3 1.1 1.3 1.1l1.1-1.9v1.9c.8.7 4.9.4 6.2-.8.5-.6.5-1 .5-1.2z" class="color542110 svgShape"></path><path fill="#f1f295" d="M49.9 88.3c.3 1.4.6 5.1.1 6.9-.5 1.8-.4 2.8-.2 3.4.2.6-1.7 5.1-2.1 5.4l1.8-1.1s-.7.7-.5 2.2c0 0 .8.3 1.2-1.4 0 0 1 1.1.6 1.9 0 0 1.1-.7.9-1.8 0 0 .9 1 .7 2 0 0 .9-1.3.7-2 0 0 1.3 1.6 2.1 1.6 0 0-.6-.8-.4-2.2 0 0 .5-.7.7.2.3.9.7-.1 0-2C54.8 99.7 59 91 59 91l4.8-7.6-16.1-1.9s1.7 4.8 2.2 6.8z" class="colorf2db95 svgShape"></path><path fill="#e79d57" d="M59 91s-4.2 8.7-3.5 10.5c.7 1.8.3 2.9 0 2-.3-.9-.7-.2-.7-.2-.2 1.5.4 2.2.4 2.2-.6 0-1.5-.9-1.9-1.4-.3-2.7.3-4.8 1.3-8.8.8-3.4 4.6-9.1 6.7-12.2l2.5.3L59 91z" class="colore7bd57 svgShape"></path><path fill="#ff2020" d="M108.5 104.7s1.6 2.7.1 4.2-6.4 1.8-7.3.9v-2.3l-1.3 2.3s-1.5 0-1.6-1.3c-.1-1.3 3.2-5.9 4.7-5.6 1.6.4 5.4 1.8 5.4 1.8z" class="color7b4022 svgShape"></path><path fill="#14c5af" d="M109.2 107.6c-1 1.1-3 1.5-4.3 1.5-1.1.1-2.2-.3-3-1-.2-.2-.4-.4-.5-.6l-.1.1c-.4.5-1.1.8-1.8.7-.4-.1-.7-.1-1-.4-.1.2-.1.5-.1.7.1 1.3 1.6 1.3 1.6 1.3l1.3-2.3v2.3c1 .9 5.8.5 7.3-.9.6-.6.7-1 .6-1.4z" class="color542110 svgShape"></path><path fill="#f1f295" d="M103.4 84.9s1.6 10.6.4 12.8c-1.2 2.2-2.5 5-2.6 5.3-.1.3 1.5-.6 1.5-.6s-1.7 1.8-2 2.1c-.3.3 2.1 0 3.1-.6s1.2 1.1 1.2 1.7 1.7-1.2 1.5-2c-.2-.8 1.6 2.1 1.6 2.1s.5-1.7.3-2.5c-.3-.8 1.2.1 1.2.1s1.6 1 .4-2.2c-1.2-3.2 5.4-20.3 5.4-20.3l-12 4.1z" class="colorf2db95 svgShape"></path><path fill="#e79d57" d="M110.1 101.2c1.2 3.2-.4 2.2-.4 2.2s-1-.6-1.2-.4c0-1.3 0-7 .4-9.3.3-1.9 1.8-8.3 2.6-11.5l4-1.3c0-.1-6.6 17-5.4 20.3z" class="colore7bd57 svgShape"></path><path fill="#b7783d" d="M120.8 50.7c-14.3-17.6-31.2-9.9-31.2-9.9s-4.8-5.5-21.5-10.6c-16.8-5.1-26.9 3.2-26.9 3.2S38.3 44.1 36.8 66c-1.5 21.9 7.7 29.7 7.7 29.7l.5-2.9c.6 2.7 4.1 4.1 4.1 4.1v-4.5c.6 2.9 4.9 4.5 4.9 4.5-.7-1 0-3.9 0-3.9 1.6 3.1 4.2 3.9 4.2 3.9.5-2.7-.2-5.2-.2-5.2 2.9 5.3 5.7 5.2 5.7 5.2-.9-.7-1.4-5.4-1.4-5.4l7.6 5.4-.9-5.2 5.5 6.2 2-5.7c0 3.8 2.7 5.7 2.7 5.7-.4-1.5 1.8-8.1 2.9-6.2 1.1 1.8 1.3 4.9 1.3 4.9.9-.5 1.8-2 2.4-3.3l2.3 4.6 3.5-4.6 3.4 3.9 1.8-3.5 1.1 4.2 2.8-2.7c-.3 2.3 1.8 2.7 1.8 2.7-.7-1.1 1.4-4.2 1.4-4.2 2.2 1.8 1.2 4.2 1.2 4.2 1.9-.9 2.3-8.5 2.3-8.5 3.6 2 1.9 8.5 1.9 8.5l2.8-7c-.8 3.9 1.4 7 1.4 7 0-3.7 3.9-5.7 3.9-5.7-1.1 3.9-.6 5.7-.6 5.7l5.5-9.5c-.2 0 12.8-20.2-1.5-37.7z" class="colorb7713d svgShape"></path><path fill="#a56930" d="M125.1 57.6c1.6 10.8-.9 22.2-6.9 31.4 0-1.3.1-2.6.1-3.9-.6 1-1.1 2.1-1.7 3.1-.4-.4-.6-1-.5-1.6-.5.7-.9 1.5-.9 2.3 0-1.8-.3-3.5-.9-5.2-.9 2.1-1.8 4.3-2.7 6.4-.5-3.7-2.8-7-6.1-8.8.6 2.1.8 4.3.4 6.4-.7-1.4-1.5-2.7-2.2-4.1-.1 1.2-.2 2.4-.2 3.7-2.1 1.1-3.8 2.9-4.8 5-.2-.7-1.4-.8-1.7-.1-.9-2.5-1.7-5.1-2.3-7.8-.9 2.2-1.6 4.4-2.1 6.7-.9-.9-1.3-2.2-1.1-3.4-.7 1.4-2 2.5-3.6 2.9-.8-.9-1.2-2.2-1-3.4-.6 1.1-1.3 2.2-1.9 3.4-2.2-1.9-3.5-4.8-3.5-7.7-2.4 2.1-4.2 4.9-5.2 7.9-.6-1.5-.9-3.2-.8-4.9-.8.6-1.3 1.5-1.4 2.5-.7-.7-1.7.5-2 1.5-2.3-2.2-4.5-4.4-6.8-6.5-.3 2-.2 4.1.2 6.1-.5-.8-.9-1.7-1.4-2.5 0 1.4-2.3 1.8-2.9.6-2.4.6-5.1-.8-6-3.1-.4 2-.1 4.1.9 5.9-1.7-.7-3-2.2-3.5-3.9 0 1.2.1 2.4.1 3.6-1-.7-1.9-1.5-2.9-2.2-.7.4-1.4.8-2.1 1.3-.8-.6-1.7-1.3-2.5-1.9-.2.5-.3 1-.5 1.6-4.1-3.6-4.7-9.8-7.4-14.5-.2-.4-.5-.8-.9-.9.7 16.2 7.8 22.2 7.8 22.2l.5-2.9c.6 2.7 4.1 4.1 4.1 4.1v-4.5c.6 2.9 4.9 4.5 4.9 4.5-.7-1 0-3.9 0-3.9 1.6 3.1 4.2 3.9 4.2 3.9.5-2.7-.2-5.2-.2-5.2 2.9 5.3 5.7 5.2 5.7 5.2-.9-.7-1.4-5.4-1.4-5.4l7.6 5.4-.9-5.2 5.5 6.2 2-5.7c0 3.8 2.7 5.7 2.7 5.7-.4-1.5 1.8-8.1 2.9-6.2 1.1 1.8 1.3 4.9 1.3 4.9.9-.5 1.8-2 2.4-3.3l2.3 4.6 3.5-4.6 3.4 3.9 1.8-3.5 1.1 4.2 2.8-2.7c-.3 2.3 1.8 2.7 1.8 2.7-.7-1.1 1.4-4.2 1.4-4.2 2.2 1.8 1.2 4.2 1.2 4.2 1.9-.9 2.3-8.5 2.3-8.5 3.6 2 1.9 8.5 1.9 8.5l2.8-7c-.8 3.9 1.4 7 1.4 7 0-3.7 3.9-5.7 3.9-5.7-1.1 3.9-.6 5.7-.6 5.7l5.5-9.5c.1 0 9.9-15.2 3.1-30.8z" class="colora55f30 svgShape"></path><path fill="#fdff3d" d="M43.6 30.2s8.5 1.4 12.7-4.5C58.6 22.4 59 18 58 15.6c-.1-.2-.3-1 .7-.5.4.2 5.8 5.5 2.5 13.3C56.7 39.1 45 37.2 43.3 37l.3-6.8z" class="coloreacc7f svgShape"></path><path fill="#f2f393" d="M58 15.6c.9 2.4.6 6.7-1.7 10.1-4.2 6-12.7 4.5-12.7 4.5l-.3 5.3c3.9.3 12.4 0 16.1-8.8 2.3-5.5.3-9.7-1.2-11.8-.4 0-.3.6-.2.7z" class="colorf3db93 svgShape"></path><path fill="#fdff3d" d="M19.1 30.2s-8.5 1.4-12.7-4.5C4.1 22.4 3.8 18 4.7 15.6c.1-.2.3-1-.7-.5-.4.2-5.8 5.5-2.5 13.3C6 39.1 17.7 37.2 19.4 37l-.3-6.8z" class="coloreacc7f svgShape"></path><path fill="#f2f393" d="m19.4 35.5-.3-5.3s-8.5 1.4-12.7-4.5C4.1 22.4 3.8 18 4.7 15.6c.1-.1.2-.7-.2-.7C3 17 1 21.3 3.3 26.8c3.8 8.7 12.2 9 16.1 8.7z" class="colorf3db93 svgShape"></path><path fill="#c07e40" d="M44.1 31.6c-1.4-8.3-12.8-8.3-12.8-8.3s-11.4 0-12.8 8.3c-1.4 8.3-6.6 21.6-4.3 25.6 2.4 3.9 9.9 8.9 9.9 8.9l7.1-1.6 7.1 1.6s7.6-4.9 9.9-8.9c2.6-4-2.7-17.4-4.1-25.6z" class="colorc07b40 svgShape"></path><path fill="#ff9a3a" d="M49.7 59.5c1.1-2.8.2-5.7-2.2-6.8-2.3-1.1-5.3-.1-7.2 2.1-2.7-.7-5.8-1.1-9-1.1s-6.3.4-9 1.1c-1.9-2.3-4.9-3.2-7.2-2.1-2.4 1.1-3.3 4-2.2 6.8-1.9 1.8-3 3.8-3 6 0 6.5 9.6 11.8 21.4 11.8 11.8 0 21.4-5.3 21.4-11.8 0-2.2-1.1-4.2-3-6zM14.9 35.1s8.9 1 12.4-4.2c0 0-1.1 5.2 4.2 7.5 0 0-2.7-4.7 1.1-7.5 0 0 3.5 2.2 3.8 4.8 0 0 1.7-2.3.6-4.8 0 0 2.7.4 4.1 2.5 1.4 2.1 0 3.7 0 3.7s4.5-2.4 2.1-7.2c-.5-.9-.9-1.6-1.4-2.1 0 0 3.8 2 4.5 6.9 0 0 2.1-8.3-5.3-11.3-3.6-1.4-6.6-2.1-9.4-1s-7-1.8-10.2.2-7.1 10.9-7.1 10.9l7-5.4c0 .1-3.1 6.5-6.4 7z" class="colordaa15c svgShape"></path><ellipse cx="40.8" cy="44.6" fill="#592d72" rx="4.4" ry="6.1" transform="rotate(-9.495 40.786 44.58)" class="color765335 svgShape"></ellipse><ellipse cx="40.9" cy="44.9" fill="#ffffff" rx="4" ry="5.8" transform="rotate(-9.495 40.845 44.936)" class="colorffffff svgShape"></ellipse><ellipse cx="41.1" cy="45" fill="#1483c5" rx="3.2" ry="4.3" transform="rotate(-9.495 41.11 45)" class="color085cb6 svgShape"></ellipse><ellipse cx="41.1" cy="45" fill="#0b9ef6" rx="2.8" ry="3.8" transform="rotate(-9.495 41.11 45)" class="color0b93f6 svgShape"></ellipse><ellipse cx="41.1" cy="45" rx="1.6" ry="2.1" transform="rotate(-9.495 41.109 44.998)" fill="#000000" class="color000000 svgShape"></ellipse><ellipse cx="21.9" cy="44.6" fill="#592d72" rx="4.4" ry="6.1" transform="rotate(-170.505 21.946 44.582)" class="color765335 svgShape"></ellipse><ellipse cx="21.9" cy="44.9" fill="#ffffff" rx="4" ry="5.8" transform="rotate(-170.505 21.887 44.939)" class="colorffffff svgShape"></ellipse><ellipse cx="21.6" cy="45" fill="#1483c5" rx="3.2" ry="4.3" transform="rotate(-170.505 21.622 45.002)" class="color085cb6 svgShape"></ellipse><ellipse cx="21.6" cy="45" fill="#0b9ef6" rx="2.8" ry="3.8" transform="rotate(-170.505 21.622 45.002)" class="color0b93f6 svgShape"></ellipse><ellipse cx="21.6" cy="45" rx="1.6" ry="2.1" transform="rotate(-170.505 21.622 45.002)" fill="#000000" class="color000000 svgShape"></ellipse><circle cx="21.6" cy="42.9" r="1.1" fill="#ffffff" class="colorffffff svgShape"></circle><circle cx="40.8" cy="42.9" r="1.1" fill="#ffffff" class="colorffffff svgShape"></circle><path fill="#460b68" d="M20.8 57c.9 1.6.5 3.4-.9 4-1.4.6-3.2-.1-4.1-1.7-.9-1.6-.5-3.4.9-4 1.4-.6 3.2.2 4.1 1.7z" class="color68390b svgShape"></path><path fill="#2d0444" d="M20.5 58.3c.6 1.1.4 2.4-.6 2.8-1 .5-2.3-.1-2.9-1.2-.6-1.1-.4-2.4.6-2.8.9-.5 2.2 0 2.9 1.2z" class="color442204 svgShape"></path><path fill="#460b68" d="M41.9 57c-.9 1.6-.5 3.4.9 4 1.4.6 3.2-.1 4.1-1.7.9-1.6.5-3.4-.9-4-1.3-.6-3.2.2-4.1 1.7zM17.9 64.9c2.1 3.8 7.3 6.5 13.4 6.5 6.1 0 11.3-2.7 13.4-6.5l-.4 1c-2 3.8-7.1 6.5-13.1 6.5s-11-2.7-13.1-6.5l-.2-1z" class="color68390b svgShape"></path><path fill="#2d0444" d="M42.3 58.3c-.6 1.1-.4 2.4.6 2.8 1 .5 2.3-.1 2.9-1.2.6-1.1.4-2.4-.6-2.8-1-.5-2.3 0-2.9 1.2z" class="color442204 svgShape"></path></svg>