<svg xmlns="http://www.w3.org/2000/svg" viewBox="0 0 128 128" id="Penguin"><path fill="#fdff3d" d="M89.7 43.9s-9.9 6.5-3.5 17.6c6.4 11.2 18.4 22.5 19.3 24.8.9 2.3 2.8 7.1 8 4.4 5.2-2.7-3-27.9-3-27.9L89.7 43.9z" class="colorf5f0ed svgShape"></path><path fill="#ff2020" d="M98.4 41.9s16.7 3.5 18.8 29.5c2.2 26-8 19.9-7.6 15.4.4-4.5-21.8-22.9-21.9-34.8 0-7.8 3.2-10.5 10.7-10.1z" class="color1f1b1c svgShape"></path><path fill="#fdff3d" d="M38.3 43.9s9.9 6.5 3.5 17.6-18.3 22.6-19.3 24.9c-.9 2.3-2.8 7.1-8 4.4s3-27.9 3-27.9l20.8-19z" class="colorf5f0ed svgShape"></path><path fill="#ff2020" d="M29.6 41.9s-16.7 3.5-18.8 29.5 8 19.9 7.6 15.4C18 82.3 40.2 63.9 40.3 52c0-7.8-3.2-10.5-10.7-10.1z" class="color1f1b1c svgShape"></path><path fill="#14c5af" d="M56.4 109.6s4.1 1 3 4.6c-1.1 3.6-4.9 2.6-7.2 6.1-2.3 3.5-5.5 8.6-9.3 7-3.4-1.4-1.5-4.7-1.5-4.7s-2.3 2.2-4.7.5c-1.7-1.2-.8-4.4-.8-4.4s-3.5-.7-2.3-4.4c1.2-3.7 9.1-5.6 9.1-5.6l13.7.9z" class="colordd780b svgShape"></path><path fill="#ff9a3a" d="m56.4 109.6-13.8-1s-6.6 1.6-8.6 4.7c-.1 1.1.3 1.8.8 2.3.4.5 2.4.4 3.2-.4.8-.7 3.2-1.6 3.5-1.8-.2.1-1 .4-3.2 2.2-1.1.8-1.6 1.7-1.9 2.5-.1 1 .1 2.2 1.1 2.9.5.4 1 .5 1.5.6 1-.1 2.2-1 3-2.1 1.1-1.4 3.9-2.9 3.9-2.9-3.2 2.2-4 4.9-4.2 6.2.1.9.6 1.8 2 2.4 3.8 1.6 7-3.5 9.3-7 2-3.1 5.2-2.6 6.7-5 .1-2.8-3.3-3.6-3.3-3.6z" class="colorf99d2c svgShape"></path><path fill="#14c5af" d="M71.6 109.6s-4.1 1-3 4.6c1.1 3.6 4.9 2.6 7.2 6.1 2.3 3.5 5.5 8.6 9.3 7 3.4-1.4 1.5-4.7 1.5-4.7s2.3 2.2 4.7.5c1.7-1.2.8-4.4.8-4.4s3.5-.7 2.3-4.4c-1.2-3.7-9.1-5.6-9.1-5.6l-13.7.9z" class="colordd780b svgShape"></path><path fill="#ff9a3a" d="m71.6 109.6 13.8-1s6.6 1.6 8.6 4.7c.1 1.1-.3 1.8-.8 2.3-.4.5-2.4.4-3.2-.4-.8-.7-3.2-1.6-3.5-1.8.2.1 1 .4 3.2 2.2 1.1.8 1.6 1.7 1.9 2.5.1 1-.1 2.2-1.1 2.9-.5.4-1 .5-1.5.6-1-.1-2.2-1-3-2.1-1.1-1.4-3.9-2.9-3.9-2.9 3.2 2.2 4 4.9 4.2 6.2-.1.9-.6 1.8-2 2.4-3.8 1.6-7-3.5-9.3-7-2-3.1-5.2-2.6-6.7-5-.1-2.8 3.3-3.6 3.3-3.6z" class="colorf99d2c svgShape"></path><path fill="#ff2020" d="m91.5 41.9-27.5 8-27.5-8C21.4 68.4 26 94.6 34.4 107.4c8.4 12.8 29.5 4.8 29.5 4.8s21.1 8 29.5-4.8c8.5-12.8 13.1-39.1-1.9-65.5z" class="color1f1b1c svgShape"></path><ellipse cx="64" cy="70" fill="#fdff3d" rx="26.7" ry="37.7" class="colorf5f0ed svgShape"></ellipse><ellipse cx="64" cy="30.1" fill="#1483c5" rx="31.8" ry="29.6" class="color1d1d1d svgShape"></ellipse><path fill="#fefefe" d="M86.6 14.1c-1.9-1.9-5-2.2-7.2-.5-10.6 8-5.9 18.8-3 23.6 1.1 1.8 1.2 4.1.2 6-2 3.8-6-1.3-12.6-1.3-6.7 0-10.8 4.9-12.8 1-.9-1.8-.9-3.9.1-5.7 2.8-4.9 7.6-16.4-2.8-23.6-.1-.1-.2-.1-.2-.2-2.2-1.5-5.2-1.2-7.1.7-4.7 4.8-7.5 11-7.5 17.9 0 15 13.5 27.1 30.2 27.1S94.1 47 94.1 32c.1-6.8-2.8-13.1-7.5-17.9z" class="colorfefefe svgShape"></path><path fill="#f78c27" d="M64 37.9s-13 2.2-11.8 5.7C53.3 47 64 50.8 64 50.8s10.7-3.8 11.8-7.2C77 40.1 64 37.9 64 37.9z" class="colorf78727 svgShape"></path><circle cx="82.8" cy="27.6" r="3" fill="#592d72" class="color2d292b svgShape"></circle><circle cx="45.2" cy="27.6" r="3" fill="#592d72" class="color2d292b svgShape"></circle></svg>