<svg xmlns="http://www.w3.org/2000/svg" viewBox="0 0 128 128" id="Pig"><path fill="#592d72" d="m55.4 111 3.5-1.2v-4.6zM44.1 104.1l3.2-.8v-4.1zM102.8 109.8l3.3-.8-.2-4.8zM89.7 106.4l2.9-.7.2-4.2z" class="color723539 svgShape"></path><path fill="#fdff3d" d="M114.6 47s8.7.5 9.1-6.4c.4-6.9-7-5.6-7-5.6s-1.5-.1-2.1-1.6c-.6-1.5 10.6-3.4 12.4 6.8 1.8 10.2-11.1 10.5-11.1 10.5l-1.3-3.7z" class="colorffcccb svgShape"></path><path fill="#ff2020" d="m115.6 51.1-1.6-4.5h.6s4.4.2 6.9-2.1c1.1-1 1.7-2.4 1.8-4 .1-1.8-.4-3.2-1.4-4.1-1.9-1.7-5.2-1.1-5.2-1.1-.1 0-1.7-.1-2.4-1.8-.1-.3 0-.5.2-.8.8-.9 3.6-1.3 6.2-.5 2.1.6 5.7 2.4 6.7 7.9.5 2.7 0 5-1.5 6.9-3.2 3.9-9.7 4.1-9.9 4.1h-.4zm-.5-3.8 1.1 3c1.2-.1 6.5-.6 9.1-3.8 1.3-1.6 1.8-3.7 1.3-6.3-1.2-6.4-6-7.5-8-7.7-2.2-.2-3.6.4-3.7.7.5 1.1 1.5 1.3 1.7 1.3.5-.1 3.7-.5 5.8 1.3 1.2 1 1.7 2.6 1.6 4.7-.1 1.9-.8 3.4-2.1 4.5-2.2 2.1-5.5 2.3-6.8 2.3z" class="colorcc8487 svgShape"></path><path fill="#14c5af" d="M62 75.2s-.4 8-3 11.7c-2.6 3.7-4.5 9.2-3.8 10.1l-1.5.7-2.4 3.3-6.2-1.1-.4-2.3.7-1.6s1.6-.9 2.1-5.6c.5-4.7-.7-18.9-.7-18.9L62 75.2zM87.7 87s4 4.7 2.5 11.6l-.1 3.2 2.9-.1 4.4-.4.9-1.7 1.2-.6s-1.7-6.3 2.2-14.7c2.2-4.8-10.7 0-10.7 0L87.7 87z" class="colorefb6b6 svgShape"></path><path fill="#d8ba9e" d="m51.5 101.3-6.7-1.2-.5-2.6.8-1.8.1-.1s1.5-.9 2-5.3c.5-4.6-.6-18.7-.7-18.9v-.5l15.9 4v.3c0 .3-.4 8.2-3.1 11.9-2.7 3.8-4.3 9-3.8 9.7l.3.4-1.8.8-2.5 3.3zm-6.1-1.8 5.7 1.1 2.3-3.2 1.3-.6c-.4-1.8 1.7-7.1 3.9-10.1 2.2-3.1 2.8-9.7 2.9-11.2l-14.3-3.6c.2 2.6 1.1 14.3.6 18.5-.5 4.2-1.8 5.5-2.2 5.8l-.6 1.4.4 1.9zM89.7 102.1l.2-3.7c1.5-6.7-2.3-11.2-2.4-11.3l-.2-.3 3.6-3.2h.1c1-.3 9.4-3.4 11.1-1.5.4.5.5 1.2 0 2-3.8 8.2-2.2 14.4-2.2 14.4l.1.3-1.4.7-1 1.8-4.6.7-3.3.1zm.9-3.5-.1 2.8 2.5-.1 4.2-.4.9-1.7 1.1-.6c-.3-1.3-1.2-7.1 2.3-14.7.3-.6.3-1 .1-1.2-1-1.1-6.8.4-10.3 1.7L88.2 87c.9 1.1 3.7 5.5 2.4 11.6z" class="colord89e9e svgShape"></path><path fill="#fdff3d" d="M61.7 29.7s2 7.8 21.2 8c19.1.2 32.3 1.3 36.6 14.2 4.2 12.9-3.5 27.5-4.8 31-4.6 12.5-1.1 17.2-1.1 17.2l-3 4.8-6.2-1.1-2.5-.4 1.4-2.9s-.1-3.5-2-6.6c-2-3.1-3.4-5.2-3.4-5.2s-19.9 8-36.4-2.3C45 76.2 45 72.4 45 72.4l16.7-42.7z" class="colorffcccb svgShape"></path><path fill="#7f5099" d="M53.7 97.7s1.4 3.9.1 5.8c-1.3 1.8-7.8 1.9-7.8 1.9l1-4.9-2.9 3.7s-2.8-2.8-1.9-4.7c.9-1.8 3.2-3.5 3.2-3.5s-1.4 4.8 8.3 1.7zM98.3 99.5s1.7 3.6.6 5.5c-1.1 1.8-7.3 2.5-7.3 2.5l.6-4.8-2.5 3.8s-2.9-2.4-2.2-4.3c.7-1.8 2.7-3.6 2.7-3.6s-.9 4.7 8.1.9z" class="color995053 svgShape"></path><path fill="#592d72" d="M53.7 97.7c-.8.3-1.5.5-2.2.6.1.3.1.6.1.9.2 2.5-1.3 4.9-3.5 6 2-.2 4.9-.6 5.7-1.8 1.3-1.8-.1-5.7-.1-5.7zM98.3 99.5c-.9.4-1.6.7-2.3.9.1.4.2.9.2 1.3.2 2.2-.9 4.2-2.6 5.5 1.9-.4 4.6-1 5.3-2.2 1.1-1.9-.6-5.5-.6-5.5z" class="color723539 svgShape"></path><path fill="#fdff3d" d="M34.5 27.5s.9-11.1-9-10.4c-9.9.7-13.9 6.6-17.7 5.1 0 0 2.7 9.8 9.3 13 6.6 3.2 15-.6 15-.6l2.4-7.1z" class="colorffcccb svgShape"></path><path fill="#ff2020" d="M23.2 36.8c-2.1 0-4.2-.3-6.3-1.3-6.7-3.2-9.4-12.8-9.5-13.2l-.2-.7.7.3c1.6.6 3.4-.2 5.8-1.5 2.9-1.4 6.4-3.3 11.8-3.6 2.8-.2 5.1.5 6.7 2.2 3.1 3.1 2.7 8.4 2.7 8.6v.1l-2.6 7.2-.1.1c-.3 0-4.3 1.8-9 1.8zM8.3 22.7c.7 2.2 3.5 9.5 8.9 12.1 5.9 2.8 13.4 0 14.5-.5l2.4-6.9c0-.5.2-5.3-2.5-8-1.5-1.5-3.5-2.1-6.1-1.9-5.2.4-8.7 2.1-11.5 3.6-2.2 1-4 1.9-5.7 1.6z" class="colorcc8487 svgShape"></path><path fill="#cd9866" d="M32 34.6s1.4-9.3-5.2-10.7-15.2.4-17-.2c0 0 3.2 7.8 8.3 8.8 5.1 1 13.9 2.1 13.9 2.1z" class="colorcd6667 svgShape"></path><path fill="#fdff3d" d="M15.2 70.5C15 88.1 35.5 76 35.5 76s15.1 11.8 31.1-1.2 5.6-39.3 3.3-45.2c-2.3-5.9-19.3-13.2-36.4-6.4C16.4 30 18.9 48 18.9 48l-.1 3.8s-2.8-1.1-5 .2c0 0-2.4-.7-4.2.6l5.6 17.9z" class="colorffcccb svgShape"></path><path fill="#290040" d="M35.4 65c-5.4 4.2-4.2 9.3-9.2 11.5-5.6 2.4-8.3-3.2-7.7-5.6 0 0 5.8-1.5 9.5-2.9 3.6-1.4 7.4-3 7.4-3z" class="color400001 svgShape"></path><path fill="#ff9a3a" d="M30.9 71c-.9-1.2-3-2.2-4.8-.4 0 0-6.3-1.5-5.4 5.6 1.3 1 3.1 1.4 5.5.4 2.7-1.3 3.6-3.3 4.7-5.6z" class="colorfa7c7d svgShape"></path><ellipse cx="36.7" cy="44.8" fill="#ffd8b3" rx="5.8" ry="6.8" transform="rotate(-2.189 36.74 44.796) scale(1.00003)" class="colorffbab3 svgShape"></ellipse><ellipse cx="36.8" cy="45.4" fill="#ffffff" rx="5.2" ry="6.1" transform="rotate(-2.189 36.848 45.43) scale(1.00003)" class="colorffffff svgShape"></ellipse><ellipse cx="36.9" cy="45.7" fill="#1483c5" rx="3.8" ry="4.5" transform="rotate(-2.189 36.858 45.662) scale(1.00003)" class="color38a2ee svgShape"></ellipse><ellipse cx="36.9" cy="46.3" rx="2.3" ry="2.5" transform="rotate(-2.189 36.883 46.334) scale(1.00003)" fill="#000000" class="color000000 svgShape"></ellipse><circle cx="35.5" cy="45.1" r="1.3" fill="#ffffff" class="colorffffff svgShape"></circle><path fill="#ffd8b3" d="M27.6 44.8c-.7-2-2.3-3.4-4.3-3.3-2.4.1-4.3 2.5-4.2 5.3.1 1.9 1 3.5 2.4 4.3h.4c.9 0 1.7.2 2.5.5h.2c.1-.2.3-.4.4-.5l.7-.7c.1-.1.3-.3.3-.4.1-.2.2-.3.3-.5.1-.2.2-.2.2-.3.2-.7.4-1.9.5-2.1.1-.3.3-.7.4-1 .1-.5.1-.9.2-1.3z" class="colorffbab3 svgShape"></path><path fill="#ffffff" d="M27.5 45.9c-.5-2.1-2.1-3.5-4-3.5-2.2.1-3.9 2.2-3.8 4.8.1 1.7.9 3.1 2 3.9h.3c.9 0 1.8.2 2.5.5h.1c.1-.2.3-.4.4-.5l.7-.7c.1-.1.3-.3.3-.4.1-.2.2-.3.3-.5.1-.2.2-.2.2-.3.2-.7.4-1.9.5-2.1.2-.5.3-.8.5-1.2 0 .1 0 0 0 0z" class="colorffffff svgShape"></path><ellipse cx="23.7" cy="47.3" fill="#1483c5" rx="2.9" ry="3.4" transform="rotate(-2.189 23.653 47.253) scale(1.00003)" class="color38a2ee svgShape"></ellipse><ellipse cx="23.7" cy="47.8" rx="1.7" ry="1.9" transform="rotate(-2.189 23.671 47.76) scale(1.00003)" fill="#000000" class="color000000 svgShape"></ellipse><circle cx="22.7" cy="46.8" r=".9" fill="#ffffff" class="colorffffff svgShape"></circle><path fill="#fdff3d" d="M32.9 51.7s4.2-5.3 13.2-2.5l-7.7 4.1-5.5-1.6z" class="colorffcccb svgShape"></path><path fill="#ff2020" d="M32.9 51.7s4.2-5.3 13.2-2.5c0 0-7.6-1.3-13.2 2.5zM30 54.5c-1.8-1.9-5.1-3-5.1-3 4.3-4.1 2.5-10.5 2.5-10.5.7 8-3.2 10.3-3.2 10.3-2.9-1.1-5.4.7-5.4.7-2.5-1.3-5 .2-5 .2-.3.2-.1.2-.2.2v.5c.1 0 .2 0 .3.1.2-.1.4-.1.6-.2l-.1-.1c3-2 7.7 1.5 7.5 1.4-1.3-1.2-2.6-1.7-2.6-1.7C23 49.5 30 54.5 30 54.5z" class="colorcc8487 svgShape"></path><path fill="#ff2020" d="M8 52.5s3-2 6.2-.2 4 3.1 4 3.1-6.7-5.4-9.5-1.6L8 52.5zM14.4 72.1l4.2-1.3s7.3-1.9 10.6-3.2c3.4-1.4 7.4-2.5 9.4-4.3 0 0-5.2 2.2-10.4 3.8-1.7.5-11.3 3.3-12.4 2.6l-1.4 2.4z" class="colorcc8487 svgShape"></path><path fill="#ff2020" d="M36 62.4s4.7-1.5 3.2 3.9c0 0-.4-4.3-3.2-3.9z" class="colorcc8487 svgShape"></path><path fill="#f4d8bd" d="M71.9 57.2s.3 17.8-18.8 19.9c-8.9.9-14.2-3-17-5.7 0 0-8.5 7.7-15.3 5.7-6.8-2-5.1-12.1-5.1-12.1l-1.5 2.2 1.1 3.3C15 88.1 35.5 76 35.5 76s7.6 5.9 17.7 4.7c23-5.1 18.7-23.5 18.7-23.5z" class="colorf4bdbd svgShape"></path><path fill="#ffffed" d="M22 36.4s6.9-17 28.5-13.8c-.1.1-18-.6-28.5 13.8zM32.1 56.8s6.8-12.5 23.2-3.5c0 0-13.5-4.7-23.2 3.5z" class="colorffedef svgShape"></path><path fill="#f4d8bd" d="M98.4 85.3c-8.5-5.4-8.9-15.4-8.9-15.4C86.7 80.4 98 88.7 98 88.7s1.4 2.1 3.4 5.2 2 6.6 2 6.6l-1.4 2.9 2.5.4 3 .5c-.4-3.3-1.9-14.5-9.1-19z" class="colorf4bdbd svgShape"></path><path fill="#ff2020" d="m110.8 105.3-9.4-1.6 1.6-3.2c0-.5-.3-3.6-2-6.3-1.6-2.5-2.8-4.3-3.2-5-2.5.9-21 7.1-36.5-2.4-3.2-2-6-3.8-8.3-5.6-.9.1-1.7.1-2.5.1-7.9 0-13.9-4-15.1-4.8-1.6.9-11.3 6.2-16.9 3-2.5-1.5-3.8-4.4-3.7-8.9l-5.7-18 .2-.2c1.7-1.2 3.8-.8 4.4-.7 1.7-1 3.7-.6 4.7-.3l.1-3.3c-.1-.4-.6-4.8.9-10 1.4-5 5-11.6 13.9-15.2 9.4-3.7 20.2-3.7 28.9.1 4.1 1.8 7.1 4.2 8 6.5v.1c.5 1.4 1.4 3.7 2.4 6.6 3 .7 6.4 1 10.3 1.1 18.9.2 32.6 1.3 36.9 14.5 3.7 11.4-1.7 24-4 29.4-.3.8-.6 1.4-.8 1.9-4.4 12.2-1.2 16.8-1.1 16.8l.1.2-.1.2-3.1 5zm-8.3-2.2 7.9 1.4 2.7-4.4c-.6-1.1-3-6.1 1.2-17.3.2-.5.4-1.1.8-1.9 2.3-5.3 7.6-17.7 4-28.9-4.2-12.7-17-13.8-36.2-14-4.1 0-7.7-.4-10.7-1.1H72l-.1-.2c-.9-3-1.9-5.4-2.4-6.8v-.1c-.8-2.1-3.7-4.4-7.6-6.1-3.2-1.4-14.7-5.5-28.3-.1C16.9 30.3 19.2 47.8 19.2 48l-.1 4.4-.5-.2s-2.7-1-4.6.2l-.1.1h-.2s-2.1-.5-3.7.4l5.6 17.6v.1c0 4.2 1.1 7 3.4 8.3 5.6 3.2 16.2-3 16.3-3.1l.2-.1.2.2c.1.1 7.6 5.8 17.4 4.7h.1l.1.1c2.3 1.7 5.2 3.6 8.4 5.6 16.2 10 35.9 2.3 36.1 2.3l.3-.1.2.3s1.4 2.2 3.4 5.2c2 3.1 2.1 6.6 2.1 6.8v.1l-1.3 2.2z" class="colorcc8487 svgShape"></path><path fill="#7f5099" d="M112.9 101.6s2 4.3.7 6.4c-1.3 2.2-8.6 2.9-8.6 2.9l.7-5.6-2.9 4.4s-3.4-2.9-2.6-5c.8-2.1 3.2-4.3 3.2-4.3s-1.1 5.7 9.5 1.2z" class="color995053 svgShape"></path><path fill="#592d72" d="M112.9 101.6c-.9.4-1.7.7-2.5 1 .2.6.4 1.3.5 2 .2 2.5-1.3 4.8-3.4 6 2.2-.4 5.3-1.2 6.1-2.6 1.2-2.2-.7-6.4-.7-6.4z" class="color723539 svgShape"></path><path fill="#fdff3d" d="M68.5 76.2c-1.9.8-3.8 1.6-5.6 2.6-1 1.1-2.3 1.9-3.7 2.2-.9.6-1.8 1.1-2.7 1.7.7 4.6 1.4 9.9 1.3 12.5-.1 5.3-1.8 6.5-1.8 6.5l-.6 1.8.7 2.5 7.1.6 2.3-3.9 1.6-.9c-.9-1 .6-7.3 3.1-11.7 2.5-4.4 2.2-13.4 2.2-13.4l-3.9-.5z" class="colorffcccb svgShape"></path><path fill="#ffcb99" d="M10.8 53c.9 1.9 2.1 3.7 3.1 5.6 1.1 2.1 2 4.2 3 6.3 1 2.1 1 4.9-1 6.4-1.1.8-2.7 1.1-4.1 1-3.2-.1-6.2-1.4-8.3-3.6-2.1-2.1-3.2-5.1-3-7.9.1-1.6.7-3.2 1.2-4.7s1-2.9 1.5-4.4c.6-1.8 1.5-3.4 3.8-2.6 1.8.9 3 2.3 3.8 3.9z" class="colorff999c svgShape"></path><path fill="#e3a56a" d="M16.9 65c-1-2.1-1.9-4.2-3-6.3-1-1.9-2.2-3.7-3.1-5.6-.7-1.5-1.9-2.9-3.6-3.6.9.6 1.5 1.5 2 2.5.9 1.9 2.1 3.7 3.1 5.6 1.1 2.1 2 4.2 3 6.3 1 2.1 1 4.9-1 6.4-1.1.8-2.7 1.1-4.1 1-1.9-.1-3.8-.6-5.5-1.5 2 1.5 4.5 2.4 7.1 2.5 1.4 0 3-.2 4.1-1 2-1.4 2-4.2 1-6.3z" class="colore36a73 svgShape"></path><ellipse cx="4" cy="60.9" fill="#420068" rx="1.7" ry="3.7" transform="rotate(-2.189 4.04 60.932) scale(1.00003)" class="color680000 svgShape"></ellipse><ellipse cx="9.7" cy="62.3" fill="#420068" rx="2.1" ry="4.5" transform="rotate(-11.507 9.7 62.294)" class="color680000 svgShape"></ellipse><path fill="#290040" d="M3.2 62.3c-.1-2 .6-3.7 1.6-3.7.2 0 .4.1.6.2-.3-1-.9-1.6-1.5-1.5-.9 0-1.7 1.7-1.6 3.7.1 1.6.6 2.9 1.3 3.4-.2-.6-.4-1.3-.4-2.1zM8.5 64.1c-.5-2.4 0-4.6 1.2-4.8.5-.1 1 .2 1.4.6-.6-1.3-1.5-2.1-2.3-2-1.1.2-1.7 2.4-1.2 4.8.3 1.4.9 2.6 1.5 3.4-.2-.6-.4-1.3-.6-2z" class="color400001 svgShape"></path><path fill="#f4d8bd" d="M75.3 77.6c-2.5 5.5-4.1 7.6-6.2 12-2.1 4.4-3.1 8-5.2 11-1.6 2.4-6.5 2.4-8.3 2.3l-.2.7.7 2.5 7.1.6 2.3-3.9 1.6-.9c-.9-1 .6-7.3 3.1-11.7l5.1-12.6z" class="colorf4bdbd svgShape"></path><path fill="#ff2020" d="m63.3 107.1-7.5-.7-.8-2.9.7-2.1.1-.1s1.5-1.2 1.6-6.2c0-2.1-.4-6.4-1.3-12.4l.7-.1c.9 6.1 1.4 10.4 1.3 12.6-.1 4.7-1.5 6.3-1.9 6.7l-.6 1.6.6 2.1 6.6.6 2.3-3.8 1.4-.8c-.6-1.9 1-7.7 3.3-11.7l.2-.3.6.4-.2.3c-2.6 4.5-3.8 10.6-3.2 11.3l.3.3-1.9 1.1-2.3 4.1z" class="colorcc8487 svgShape"></path><path fill="#7f5099" d="M65.5 102.8s2 4.3.7 6.4c-1.3 2.2-8.6 2.9-8.6 2.9l.7-5.6-2.9 4.4s-3.4-2.9-2.6-5c.8-2.1 3.2-4.3 3.2-4.3s-1.1 5.8 9.5 1.2z" class="color995053 svgShape"></path><path fill="#592d72" d="M65.5 102.8c-1.2.5-2.2.9-3.1 1.2.2.6.4 1.3.5 2 .2 2.4-1.2 4.6-3.2 5.9 2.3-.4 5.8-1.2 6.6-2.7 1.1-2.1-.8-6.4-.8-6.4z" class="color723539 svgShape"></path><path fill="#ffffed" d="M94.9 40.9s27.3-1.1 23.2 25.2c0 0 1-22.9-23.2-25.2zM92 62.2s-5.9 13.6 6.2 21.2c0 0-8.6-7.4-6.2-21.2z" class="colorffedef svgShape"></path><path fill="#bc9875" d="M104.6 103c-.7-.4-1-1-1.1-1.5-.7.7-2.7 2.7-3.3 3.8-.1 1.2.9 2.6 1.7 3.5l2.7-5.8zM91.4 100.8c-.6-.2-.9-.6-1-1l-3 2.7c-.1.9.5 1.9 1.1 2.7l2.9-4.4zM57.5 104.4c-.7-.2-1-.6-1.3-1.1l-3.6 3.2c-.1 1 .6 2.2 1.3 3l3.6-5.1zM45.4 97l-3.2 2.6c-.4 1 .2 2.1.8 3.1l3.6-4.2c-.8-.5-1.1-1-1.2-1.5z" class="colorbc757a svgShape"></path><path fill="#f4d8bd" d="M65.1 39.5s4.8 4.9 7.1 13.4c0 0-1.9-8.8 1-11.7 2.9-2.8 14.6-2.4 14.6-2.4s-14.3 0-16.6-2.5l-6.1 3.2z" class="colorf4bdbd svgShape"></path><path fill="#feffcc" d="M51.8 29.6s-2.1-13.4 10-13.4c12.1-.1 17.5 6.7 21.9 4.5 0 0-2.3 12.2-10.1 16.6-7.7 4.5-18.1.7-18.1.7l-3.7-8.4z" class="colorffcdcc svgShape"></path><path fill="#f4d8bd" d="M63.5 20.4c12.1-.1 15.8 2.5 20.2.3-4.5 2.2-9.9-4.6-21.9-4.5-12.1.1-10 13.4-10 13.4l1.7 3.7c-.3-2.2-.8-12.9 10-12.9z" class="colorf4bdbd svgShape"></path><path fill="#ff2020" d="M64.6 39.9h-1v-.7c3.9.1 7.2-.6 9.9-2.1 6.5-3.7 9.1-13.1 9.7-15.7-2.1.6-4.4-.3-7.2-1.5-3.5-1.4-7.9-3.3-14.1-3.3h-.2c-3.2 0-5.7 1-7.3 2.9-3.2 3.8-2.3 10-2.3 10.1l-.7.1c0-.3-1-6.6 2.5-10.7 1.8-2.1 4.4-3.2 7.9-3.2 6.5 0 10.9 1.8 14.6 3.3 3.1 1.3 5.3 2.2 7.2 1.2l.7-.3-.1.7c-.1.5-2.4 12.4-10.2 16.9-2.7 1.5-5.9 2.3-9.4 2.3z" class="colorcc8487 svgShape"></path><path fill="#cd9866" d="M55.5 38S53 26.9 60.8 24.5c7.8-2.4 18.4-.9 20.6-1.8 0 0-3.2 9.8-9.2 11.5C66 35.9 55.5 38 55.5 38z" class="colorcd6667 svgShape"></path><path fill="#c38d59" d="M55.4 37.6c5.7-1.2 9.7-4.4 9.7-8.3 0-1.9-1-3.7-2.8-5.2-.5.1-1.1.3-1.6.4-6.8 2.1-5.7 11-5.3 13.1z" class="colorc3595b svgShape"></path><path fill="#feffca" d="M8.6 52.9s-1.3-5.1-3.9-2.3C2.1 53.4 1 60.9 1 60.9s3.1-9.6 5.1-9.4c2.1.3 2.5 1.4 2.5 1.4z" class="colorffcace svgShape"></path></svg>