<svg xmlns="http://www.w3.org/2000/svg" fill-rule="evenodd" clip-rule="evenodd" image-rendering="optimizeQuality" shape-rendering="geometricPrecision" text-rendering="geometricPrecision" viewBox="0 0 1707 1707" id="quail"><path fill="#592d72" d="M1419 304c-16,0 -26,-17 -17,-31 29,-44 63,-98 79,-123 33,-52 130,-68 156,-1 21,52 -40,99 -91,71 -23,-12 -4,-47 19,-35 35,19 55,-36 8,-40 -23,-2 -47,10 -59,27 -15,25 -50,79 -79,123 -3,6 -10,9 -16,9z" class="color595959 svgShape"></path><path fill="#fdff3d" d="M758 1455c-11,0 -20,-9 -20,-20l0 -211c0,-27 40,-27 40,0l0 211c0,11 -9,20 -20,20z" class="colord4d4d4 svgShape"></path><path fill="#fdff3d" d="M656 1483c-23 0-28-33-5-39 133-38 82-36 228-1 26 6 17 45-9 39l-111-27-103 28zM980 1560c-11 0-20-9-20-20l0-290c0-26 40-26 40 0l0 290c0 11-9 20-20 20z" class="colord4d4d4 svgShape"></path><path fill="#fdff3d" d="M1156 1602l-176 -41 -96 27c-26,7 -37,-31 -11,-39 16,-4 101,-31 112,-28l175 42c23,5 20,39 -4,39z" class="colord4d4d4 svgShape"></path><path fill="#ff2020" d="M950 1271c-79,0 -167,-16 -265,-48 -54,-18 -132,-70 -173,-107 -19,-18 7,-48 28,-29l482 -530c-6,-8 -7,-19 1,-28 15,-16 105,-109 115,-115 19,-14 58,-30 101,-80 103,-122 279,-89 314,79 3,19 -39,55 -20,109 3,7 1,14 -3,19l-142 167c9,183 -58,563 -438,563z" class="color6e6e6e svgShape"></path><path fill="#14c5af" d="M125 1393c-116,0 -149,-77 -106,-81 144,-13 349,-232 351,-234 12,-13 30,-5 34,8l217 -2c10,-6 16,-6 24,1 8,8 8,20 1,28 -4,5 -143,150 -354,240 -70,30 -125,40 -167,40z" class="color888888 svgShape"></path><path fill="#ff9a3a" d="M506 1121c-51,0 -95,-4 -125,-10 -10,-2 -16,-10 -16,-20 1,-85 146,-333 290,-437 145,-104 336,-137 465,-133 10,0 18,7 20,16 36,201 -27,361 -187,476 -111,80 -306,108 -447,108z" class="colorc1c1c1 svgShape"></path><path fill="#1483c5" d="M516 1006c-15,0 -26,-16 -18,-30 122,-216 261,-317 475,-355 26,-5 33,34 7,39 -211,38 -336,140 -447,336 -4,7 -10,10 -17,10z" class="color9c9c9c svgShape"></path><path fill="#592d72" d="M831 1170c-23,0 -27,-34 -5,-39 89,-22 161,-53 207,-89 104,-81 159,-182 166,-301 1,-26 41,-24 40,3 -7,130 -68,241 -181,329 -51,40 -128,74 -222,96 -2,1 -3,1 -5,1z" class="color595959 svgShape"></path><path fill="#14c5af" d="M1553 413c-35,-168 -211,-201 -314,-79 -43,50 -82,66 -101,80 0,0 21,195 250,294l142 -167c4,-5 6,-12 3,-19 -19,-54 23,-90 20,-109z" class="color888888 svgShape"></path><path fill="#fdff3d" d="M1523 548c-29,0 -12,-154 26,-147 13,2 116,21 154,73 10,14 -2,35 -20,31 -1,0 -79,-15 -147,39 -4,3 -8,4 -13,4z" class="colord4d4d4 svgShape"></path><path fill="#ff9a3a" d="M1398 468c-88,0 -111,-123 -26,-135 92,-12 126,123 36,134 -4,1 -7,1 -10,1z" class="colorc1c1c1 svgShape"></path><path fill="#3d3d3d" d="M1378 364c-56,0 -26,79 28,72 47,-6 21,-72 -28,-72z" class="color3d3d3d svgShape"></path><circle cx="1385" cy="384" r="10" fill="#ffffff" class="colorffffff svgShape"></circle></svg>