<svg xmlns="http://www.w3.org/2000/svg" viewBox="0 0 128 128" id="Rabbit"><path fill="#14c5af" d="M49 76.4s-15.2 3.5-12 8c0 0 .1 4.9 10.2.7l1.8-8.7z" class="colora2b2bc svgShape"></path><path fill="#592d72" d="M46.2 76.8s-12.5 3.5-9.6 7.6c0 0 .6 3.1 5 2.3 0 0-5.1-.5-4.6-2.2s3.8-2.2 3.8-2.2-3.1.3-3.8 1.7c0 0-2.6-2.9 8.9-6.5l.3-.7z" class="color384b5a svgShape"></path><path fill="#14c5af" d="M53 95.2s-8.7-.2-12.1 6.7l1.7-.8s-3.9 6.1 1.9 12.1c0 0-3.6 1.1-5.8-.4s-6.2-.2-6.1 3c0 0 .3 1.7 2.6 1.7 0 0-.1 1.1 2.9.8 0 0 1.4 1.9 3.9.1 0 0 21.7 2.9 23.2-3.4 0 0 0-.9-.9-1.7-.9-.8 1.1-3.7 2.2-5.7 3.7-7.4-2.3-13.5-2.3-13.5L53 95.2z" class="colora2b2bc svgShape"></path><path fill="#592d72" d="M65.3 114.9c-1.5 6.3-23.2 3.4-23.2 3.4-2.5 1.8-3.9-.1-3.9-.1-3 .3-2.9-.8-2.9-.8-2.3 0-2.6-1.7-2.6-1.7-.1-3.2 3.9-4.5 6.1-3 2.2 1.5 5.8.4 5.8.4-5.8-5.9-1.9-12.1-1.9-12.1l-1.7.8c3.3-6.8 12-6.6 12-6.6s-6.9 0-10.8 5.5l2.7-1.3s-7.5 6.5.1 13.6l4.6-1.1s-7 3.4-10.7 1.5-6.3.4-6 2.2c0 0 0 1.5 2.1 1.7 0 0-.7-1.6.3-2.7 0 0-.8 1.8.1 2.9.9 1.1 2.5.5 2.5.5s-.9-1.9.1-2.9c0 0-.8 2.1.3 3.1 1.2 1 3 .7 3.6-.3l.3.2s10.8 1.1 15.5.3c4.7-.8 7.6-3.5 7.6-3.5z" class="color384b5a svgShape"></path><path fill="#ff2020" d="M62.7 91.6c1.2-4.3 3.2-7.1 5.1-8.8l-3-9.6-17.7.8s-5.7 8-2.5 13.9l1-2.7s-1.3 7.1 1.2 8.8c0 0-3.3 7.5-.3 11.1l.6-3.1s.5 11.8 11.8 14.7l9.1-11.2c-3.3-2.5-7.2-7.1-5.3-13.9z" class="colorf5f5f5 svgShape"></path><path fill="#1483c5" d="M64.1 110.4c-2.6 0-5.3-.7-7.5-2.2-3.3-2.2-5.5-6-5.8-10-.7.1-1.4.6-1.8 1.3-.2-.9.2-1.9.9-2.6s1.5-1.2 2.3-1.6c-1.1-2-1.8-4.3-1.9-6.7-.1-1.2 0-2.4-.6-3.4-.3 0-.5.2-.6.4.3-2.9 1.6-5.7 3.5-7.8.3-.4 1.4-1.1 1.5-1.5.2-.8-.5-1.2-1-1.7l-.6-.9-5.4.3s-5.7 8-2.5 13.9l1-2.7s-1.3 7.1 1.2 8.8c0 0-3.3 7.5-.3 11.1l.6-3.1s.5 11.8 11.8 14.7l5.2-6.3z" class="colore0e0e0 svgShape"></path><path fill="#bad3d0" d="M81.3 115s2.9 7.3 9.3 2.2c0 0-2 .2-2.9-.2 0 0 7.8-.6 7.8-9.3l-2.2 2s2.9-1.4.4-10.3l-.8 2.7s.7-3.4-1.7-6.8c0 0 .8 3.4-.4 4.6-1.2 1.2-1.7 3.3-1.7 3.3l.9-4.7s-.4 2.2-2.8 3.7c-2.5 1.4-5 3.8-5.1 7.6s-.8 5.2-.8 5.2z" class="colorbac8d3 svgShape"></path><g fill="#ecece9" class="colorecebe9 svgShape"><path d="M90.7 100c-1.2 1.2-1.7 3.3-1.7 3.3l.9-4.6c-.1.4-.6 2.3-2.8 3.6-2.5 1.4-5 3.8-5.1 7.6-.1 2-.2 3.4-.4 4.2 1.7.4 4.5.7 6.4-1.5l-.5.2c1.3-.6 3.3-2 3.8-4.2l-1.6 1.5s4.3-8.9 1.4-14.7c-.1 0 .7 3.3-.4 4.6zM89.9 98.6z" fill="#000000" class="color000000 svgShape"></path></g><g fill="#14c5af" class="colora2b2bc svgShape"><path d="M89.8 113.6c-.1 0 0 0 0 0zM93.5 99.5l-.8 2.7s.6-3-1.3-6.3c1.9 3.6.6 11.6.6 11.6l1.2-1.4c.2 5.1-3.1 7.3-3.4 7.5l2-1.2c-2.4 3.9-7 3.4-7 3.4l1.2 1.6c-1.6 0-3.5-1.2-4.4-1.8.9 1.6 3.8 5.8 9 1.6 0 0-2 .2-2.9-.2 0 0 7.8-.6 7.8-9.3l-1.7 1.6c.5-.9 1.6-3.4-.3-9.8z" fill="#000000" class="color000000 svgShape"></path></g><path fill="#592d72" d="M82.4 116.9c1.4 1.8 4.1 3.7 8.1.4 0 0-2 .2-2.9-.2 0 0 7.8-.6 7.8-9.3l-2.2 2s2.9-1.4.4-10.3l-.8 2.7s.7-3.4-1.7-6.8c0 0 .8 3.4-.4 4.6-1.2 1.2-1.7 3.3-1.7 3.3l.9-4.7s-.4 2.2-2.8 3.7c-.7.4-1.5.9-2.2 1.5l2.7-1.4s.9-.5 1.4-1.5c0 0-.5 1.7-.1 3.1 0 0 .5-2 1.4-3.1s1.6-2 1.4-3.6c0 0 1.7 2.9.5 6.7 0 0 1.1-1.7 1.3-3.2 0 0 2.7 7.4-1.5 10.1l3-2.3s-.1 8.1-8.6 8.4c0 0 1.6.6 3 .6 0 0-3.1 2.9-6.6-.6l-.4-.1zM58.9 116.8c-11.3-2.9-11.8-14.7-11.8-14.7l-.6 3.1c-2.9-3.6.3-11.1.3-11.1-2.5-1.7-1.2-8.8-1.2-8.8l-1 2.7c-3.2-6 2.5-14 2.5-14s-3.5 6.2-2.5 12.1l1.7-2.6s-2 8.8 1.5 11.1c0 0-2.7 2.9-1.6 8.3l1.4-3c0-.1-1 12 11.3 16.9z" class="color384b5a svgShape"></path><path fill="#bad3d0" d="M66 72.7s3.7 4.9 4.8 11.2c1.1 6.2 7.5 8.5 11.7 13 0 0 7.3 7.5 2.8 16.4-1.3 2.5-3.7 5.9-2.6 7 1.1 1 1.1 2.1 1.1 2.1-1.9 7.6-28.2 4.2-28.2 4.2-3.1 2.2-4.8-.1-4.8-.1-3.7.4-3.6-.9-3.6-.9-2.8 0-3.1-2.1-3.1-2.1-.2-3.9 4.8-5.5 7.4-3.7 2.6 1.9 7.1.5 7.1.5-7.1-7.2-.1-14.7-.1-14.7l-2 .9c1.7-3.5 4.2-5.3 6.5-6.1 0 0-2-6.8-1.2-10l3.7-10.6-4.8-5.6 5.3-1.5z" class="colorbac8d3 svgShape"></path><path fill="#14c5af" d="M66 72.7s3.7 4.9 4.8 11.2c1.1 6.2 7.5 8.5 11.7 13 0 0 7.3 7.5 2.8 16.4-1.3 2.5-3.7 5.9-2.6 7 1.1 1 1.1 2.1 1.1 2.1-1.9 7.6-28.2 4.2-28.2 4.2-3.1 2.2-4.8-.1-4.8-.1-3.7.4-3.6-.9-3.6-.9-2.8 0-3.1-2.1-3.1-2.1-.2-3.9 4.8-5.5 7.4-3.7 2.6 1.9 7.1.5 7.1.5-7.1-7.2-.1-14.7-.1-14.7l-2 .9c1.7-3.5 4.2-5.3 6.5-6.1 0 0-2-6.8-1.2-10l3.7-10.6-4.8-5.6 5.3-1.5z" class="colora2b2bc svgShape"></path><path fill="#bad3d0" d="M67 83.2c-.8-4.3-2.9-8-4-9.7l-2.4.7 4.8 5.6-3.7 10.6c-.8 3.2 1.2 10 1.2 10-2.3.9-4.8 2.6-6.5 6.1l2-.9s-7 7.5.1 14.7c0 0-4.4 1.4-7.1-.5-.3-.2-.7-.4-1.1-.5-.4 0-.8-.1-1.1-.2-2.5-.2-5.3 1.5-5.2 4.4 0 0 .1.9 1 1.5.5.1 1.1.1 2 0 0 0 1.7 2.2 4.8.1 0 0 26.3 3.4 28.2-4.1 0 0 0-1.1-1.1-2.1s1.4-4.4 2.6-6.8c4.5-8.7-2.8-16-2.8-16-4.1-4.5-10.5-6.8-11.7-12.9z" class="colorbac8d3 svgShape"></path><path fill="#592d72" d="M68.9 99.7s-8.4-1.5-12.5 6.8l2-.9s-7 7.5.1 14.7c0 0-4.4 1.4-7.1-.5-2.6-1.9-7.6-.3-7.4 3.7 0 0 .3 2.1 3.1 2.1 0 0-.1 1.4 3.6.9 0 0 1.7 2.3 4.8.1 0 0 26.3 3.5 28.2-4.2 0 0 0-1.1-1.1-2.1s1.4-4.5 2.6-7c4.5-8.9-2.8-16.4-2.8-16.4-4.2-4.5-10.6-6.8-11.7-13-1.1-6.3-4.7-11.2-4.7-11.2s4.2 7.3 4.8 12.9c.5 4.6 9.1 8.9 11.5 12 1.8 2.4 5.7 8.5 2.8 15.1-1 2.3-2.5 4.7-5.2 7.5 0 0 3.4-.2 3 2.4-.4 2.7-10.9 6.5-27.3 3.4 0 0-2.9 2.3-4.4.3-1.5-2.1.4-3.8.4-3.8s-2 1.4-1.1 3.7c0 0-2.1.6-2.9-.9-.8-1.5 1.5-3.4 1.5-3.4s-2.5 1.4-2.1 3.3c0 0-2-.3-2.4-1.8s2.7-5.1 6.1-3.5c1.7.8 3.3 2.4 8.8.5 0 0-3.8-2.8-3.3-7.4.4-4.7 3.3-7.8 7.1-9.5 0 0-4.6 1.2-5.4 1.9-.2-.1 3.8-5.6 11-5.7z" class="color384b5a svgShape"></path><path fill="#bad3d0" d="M67.7 88.3s-4.2 7.9-10.1 5c-6-3-7.4-4.7-9.6-2.8-2.2 1.9-6 2-6.3.2 0 0-2.5-2.9 6.3-8.8 0 0 5.3-2.1 11.3 2.1.4-.3.2-.8 0-1.3-.2-.4-.6-.7-1-1 1.1.1 2.2.9 2.7 1.9.4-.8.4-1.7.2-2.5.8.5 1.5 1.2 2 1.9.2-1 0-2.1-.6-3 .6.2 1.1.6 1.5 1.1 0-2-.6-4.1-1.6-5.8 1.1.3 1.9 1.1 2.7 1.9 1 1 1.9 2 2.5 3.3s.9 2.7.6 4.1" class="colorbac8d3 svgShape"></path><path fill="#592d72" d="M48.4 41.8s.9-2.3-7.3-9.4c-8.3-7-8.4-24-8.1-31.9 0 0 6.5 0 14.6 16s5.1 24.3 5.1 24.3l-4.3 1z" class="color384b5a svgShape"></path><path fill="#bad3d0" d="M47.9 40.8s.8-2.2-6.6-8.9S33.7 9 34 1.5c0 0 5.9 0 13.1 15.2 7.3 15.2 4.6 23.1 4.6 23.1l-3.8 1z" class="colorbac8d3 svgShape"></path><path fill="#fdff3d" d="M35.7 8.7s-.7 8.4 2.8 15.9c3.4 7.5 9.8 10.2 9.8 10.2s1.5-15.5-12.6-26.1z" class="colorfbd3c9 svgShape"></path><path fill="#592d72" d="M63.2 41.7s-.9-2.3 7.4-9.3S79.1 8.5 78.7.6c0 0-6.6 0-14.7 15.9-8.1 16-5 24.2-5 24.2l4.2 1z" class="color384b5a svgShape"></path><path fill="#bad3d0" d="M63.8 40.8s-.8-2.2 6.6-8.9S78 9 77.7 1.5c0 0-5.9 0-13.1 15.2C57.3 32 60 39.8 60 39.8l3.8 1z" class="colorbac8d3 svgShape"></path><path fill="#fdff3d" d="M75.9 6s.7 9.3-2.8 17.6-9.8 11.2-9.8 11.2-1.4-17 12.6-28.8zM35.7 8.7s-.7 8.4 2.8 15.9c3.4 7.5 9.8 10.2 9.8 10.2s1.5-15.5-12.6-26.1z" class="colorfbd3c9 svgShape"></path><path fill="#fbdbbd" d="M75.9 10.1c.1-2.5 0-4.1 0-4.1-14 11.8-12.5 28.8-12.5 28.8s1.9-.9 4.2-3.1c-.5-5.3.1-14.8 8.3-21.6zM35.7 8.7s-.1.9 0 2.3c10.3 7.3 9.8 17.2 8.9 21.5 2.1 1.7 3.7 2.4 3.7 2.4s1.5-15.6-12.6-26.2z" class="colorfbbdcc svgShape"></path><path fill="#592d72" d="M63.3 35.8c-.7 0-1.4.1-2.1.3-3.2 1-6.7 1-9.9 0-.7-.2-1.4-.3-2.1-.3-5.6 0-10.2 7.1-10.2 15.9s4.6 15.9 10.2 15.9c2.7 0 5.2-1.6 7-4.3 1.8 2.7 4.3 4.3 7 4.3 5.6 0 10.2-7.1 10.2-15.9.1-8.8-4.5-15.9-10.1-15.9z" class="color384b5a svgShape"></path><path fill="#bad3d0" d="M63.1 36.4c-.7 0-1.4.1-2 .3-3.2 1-6.5 1-9.7 0-.7-.2-1.3-.3-2-.3-5.5 0-10 6.8-10 15.2s4.5 15.2 10 15.2c2.7 0 5.1-1.6 6.9-4.1 1.8 2.6 4.2 4.1 6.9 4.1 5.5 0 10-6.8 10-15.2s-4.5-15.2-10.1-15.2z" class="colorbac8d3 svgShape"></path><ellipse cx="48.8" cy="51" fill="#b6b2ae" rx="8.5" ry="5.2" transform="rotate(-90.679 48.798 50.999) scale(.99997)" class="coloraeb6b4 svgShape"></ellipse><ellipse cx="48.8" cy="51.8" fill="#ffffff" rx="7.7" ry="4.9" transform="rotate(-90.679 48.799 51.799) scale(.99997)" class="colorffffff svgShape"></ellipse><ellipse cx="48.8" cy="53.7" fill="#89679d" rx="3.7" ry="4.9" class="color9d7f67 svgShape"></ellipse><ellipse cx="48.5" cy="53.2" fill="#07000b" rx="2.4" ry="3.2" class="color00030b svgShape"></ellipse><circle cx="47.5" cy="50.9" r="1" fill="#fffffe" class="colorfffeff svgShape"></circle><ellipse cx="63.7" cy="51" fill="#b6b2ae" rx="8.5" ry="5.2" transform="rotate(-90.679 63.698 50.998) scale(.99997)" class="coloraeb6b4 svgShape"></ellipse><ellipse cx="63.7" cy="51.8" fill="#ffffff" rx="7.7" ry="4.9" transform="rotate(-90.679 63.698 51.798) scale(.99997)" class="colorffffff svgShape"></ellipse><ellipse cx="63.7" cy="53.7" fill="#89679d" rx="3.7" ry="4.9" class="color9d7f67 svgShape"></ellipse><ellipse cx="63.4" cy="53.2" fill="#07000b" rx="2.4" ry="3.2" class="color00030b svgShape"></ellipse><circle cx="62.4" cy="50.9" r="1" fill="#fffffe" class="colorfffeff svgShape"></circle><path fill="#592d72" d="M80.4 63c-1.3-14.9-22.8-4.2-23.9-3.6-1-.5-22.6-11.3-23.9 3.6-1.1 12.5 16.7 15 23.9 15s25-2.5 23.9-15z" class="color384b5a svgShape"></path><path fill="#ecece9" d="M80.2 63.3c-1.3-13.9-22.6-3.9-23.7-3.4-1-.5-22.4-10.6-23.7 3.4-1.1 11.7 16.5 14 23.7 14s24.8-2.4 23.7-14z" class="colorecebe9 svgShape"></path><path fill="#d3d3d3" d="M80.2 62.8c-1.3 9.6-17 11.7-23.6 11.7s-22.3-2-23.6-11.7v.4c-1.1 11.7 16.5 14 23.7 14 7.1 0 24.7-2.3 23.7-14-.2-.1-.2-.2-.2-.4z" class="colord3d3d3 svgShape"></path><path fill="#592d72" d="M52.5 69.4v.2c0 4 2.1 7.2 4.8 7.2 2.6 0 4.8-3.2 4.8-7.2v-.2h-9.6z" class="color384b5a svgShape"></path><path fill="#47016f" d="M52.6 69.4v.2c0 3.6 2.1 6.5 4.7 6.5s4.7-2.9 4.7-6.5v-.2h-9.4z" class="color6f0201 svgShape"></path><path fill="#fad8b7" d="M61.3 73c-2.5-1.6-4-.3-4-.3l-.2 1.7-.4-1.8c-1.1-.6-2.4.4-3.1.9.9 1.5 2.2 2.5 3.7 2.5 1.7.1 3.2-1.1 4-3z" class="colorfab7b7 svgShape"></path><path fill="#ffffff" d="M62.3 60.4c-2 0-3.8.8-5 2-1.2-1.2-3-2-5-2-3.6 0-6.5 2.5-6.5 5.5s2.9 5.5 6.5 5.5c2 0 3.8-.8 5-2 1.2 1.2 3 2 5 2 3.6 0 6.5-2.5 6.5-5.5 0-3.1-2.9-5.5-6.5-5.5z" class="colorffffff svgShape"></path><path fill="#ecece9" d="M62.3 69.1c-2 0-3.8-.8-5-2-1.2 1.2-3 2-5 2-3.1 0-5.8-1.9-6.4-4.3-.1.4-.1.7-.1 1.1 0 3 2.9 5.4 6.5 5.4 2 0 3.8-.8 5-2 1.2 1.2 3 2 5 2 3.6 0 6.5-2.4 6.5-5.4 0-.4 0-.7-.1-1.1-.6 2.5-3.2 4.3-6.4 4.3z" class="colorecebe9 svgShape"></path><path fill="#592d72" d="M62.3 71c-2 0-3.8-.8-5-2-1.2 1.3-3 2-5 2-3.5 0-6.3-2.3-6.5-5.3v.3c0 3.1 2.9 5.6 6.5 5.6 2 0 3.8-.8 5-2 1.2 1.3 3 2 5 2 3.6 0 6.5-2.5 6.5-5.6v-.3c-.2 2.9-3 5.3-6.5 5.3z" class="color384b5a svgShape"></path><path fill="#592d72" d="M63 61.1c0 1.5-2.6 5.2-5.7 5.2-3.2 0-5.7-3.6-5.7-5.2s2.6-2.8 5.7-2.8 5.7 1.2 5.7 2.8z" class="color384b5a svgShape"></path><path fill="#ff9a3a" d="M62.3 61.2c0 1.4-2.2 4.6-5 4.6s-5-3.3-5-4.6c0-1.4 2.2-2.5 5-2.5 2.7 0 5 1.1 5 2.5z" class="colordd9090 svgShape"></path><path fill="#fad8b7" d="M62.3 60.9c0 1.2-2.2 4.2-5 4.2s-5-2.9-5-4.2c0-1.2 2.2-2.3 5-2.3 2.7 0 5 1 5 2.3z" class="colorfab7b7 svgShape"></path><g fill="#592d72" class="color384b5a svgShape"><path d="M50.1 63.3s-5.2-3.4-12.3.1c0 0 6.2-2.3 11.9.5l.4-.6zM50.3 65.2s-6.6-1.8-13 4.1c0 0 5.8-4.5 12.8-3.4l.2-.7zM48.8 67.6s-5.8-.5-10.3 5.5c0 0 4.2-4.7 10.3-4.8v-.7zM64.5 63.3s5.2-3.4 12.3.1c0 0-6.2-2.3-11.9.5l-.4-.6zM64.2 65.2s6.6-1.8 13 4.1c0 0-5.8-4.5-12.8-3.4l-.2-.7zM65.7 67.6s5.8-.5 10.3 5.5c0 0-4.2-4.7-10.3-4.8v-.7z" fill="#000000" class="color000000 svgShape"></path></g><path fill="#592d72" d="M61.8 93.6s.6 4.9 1.5 6.9l-.6.2-1.5-7.2.6.1z" class="color384b5a svgShape"></path><path fill="#14c5af" d="M67.7 88.3s-4 7.6-10.1 4.8c-6-2.9-7.2-3.7-7.7-3.6s-1.6.6-1.6.6-4.6 3.4-6.3 1.3.7-4.7.7-4.7-1.3 3.8 2.5 2.8c3.8-.9 8.3-2.7 11.4-.3 0 0-2.3-.7-3.6.7 0-.2 9.3 5.5 14.7-1.6z" class="colora2b2bc svgShape"></path><path fill="#592d72" d="M67.7 88.3s-4.2 7.9-10.1 5c-6-3-7.4-4.7-9.6-2.8-2.2 1.9-6 2-6.3.2 0 0-2.5-2.9 6.3-8.8 0 0 5.3-2.1 11.3 2.1.4-.3.2-.8 0-1.3-.2-.4-.6-.7-1-1 1.1.1 2.2.9 2.7 1.9.4-.8.4-1.7.2-2.5.8.5 1.5 1.2 2 1.9.2-1 0-2.1-.6-3 .6.2 1.1.6 1.5 1.1 0-2-.6-4.1-1.6-5.8 0 0 2.9 4 2 7.2 0 0-.4-.6-.9-1.4 0 0 .7 1.6-.6 3.8 0 0 .3-1.5-1.5-3.2 0 0 .3 1.7-.8 3.2 0 0 .3-1.5-1.4-2.5 0 0 1 1.5-.4 2 0 0-4.9-4.4-10.9-2.4 0 0-7.6 4.8-6.4 7.9 0 0 .8-2 2.4-2.7 0 0-3 2.9-1.7 3.8s4.3-.2 5.3-1.1 3.7-2 6.3-1c0 0-2.6-.3-3.4.2l6 3c2.7 1.5 5.5 3.5 11.2-3.8z" class="color384b5a svgShape"></path></svg>