<svg xmlns="http://www.w3.org/2000/svg" viewBox="0 0 128 128" id="Rhinoceros"><path fill="#ff2020" d="M108.2 38.7c.4-.1 12.2 2.7 15.9 12.9l-1 .4s-1-6.8-12.5-8.4l-2.4-4.9z" class="colorbcbcbc svgShape"></path><path fill="#14c5af" d="M123.7 50.7s7.1 6.7 2 12.6c0 0 1.3-3.1.3-4.6 0 0-.5 1.5-.9 1.6 0 0-.3-1.3-.8-2.4l-.3 1s-1.9-.2-2.2-3.8c-.3-3.7 1.9-4.4 1.9-4.4z" class="color343339 svgShape"></path><path fill="#7c7b7c" d="M30.6 38.2s-9.9-3.9-12.5-8.2c0 0-1.5-1.6-2.8-.9 0 0 2.1 1.3 1.9 3.8s-1.1 14.5 8.5 11.8c9.4-2.7 4.9-6.5 4.9-6.5z" class="color7c7b7c svgShape"></path><path fill="#afafaf" d="M18.1 30c2.6 4.3 12.5 8.2 12.5 8.2s1.9 1.5.7 3.4l-1.4.3s-5.2 2.6-7.8-2.1c-2.5-4.7-3.8-10.7-6.8-10.6 1.2-.8 2.8.8 2.8.8z" class="colorafafaf svgShape"></path><path fill="#848384" d="M43.1 72.8c-.1 1.6-.2 3.2.3 4.7.2.6.5 1.2.8 1.8 1.1 2.1 2.2 4.1 3.2 6.2.4.7.7 1.4 1 2.1.6 1.8.6 3.7.5 5.5 0 .9-.1 1.8-.5 2.6-.4.6-.9 1-1.4 1.6-.4.5-.8 1.3-.5 1.9.4.8 1.5 1 2.4 1 1 0 2.1 0 3.1.1 1 0 2.1 0 3.1-.2s2-.8 2.5-1.7c.8-1.2.6-2.7.7-4.2.3-2.4 1.8-4.7 1.3-7.1-.2-1.1-.8-2-1.1-3-1.1-3.7 1.4-7.9.2-11.6-.3-1-.9-1.9-.8-2.9 0-1.6 1.5-2.8 2.1-4.3l-16.9 7.5z" class="color848383 svgShape"></path><path fill="#353535" d="M55.4 100.5c-.3.2-.7.4-1 .4-.3.1-.6.1-.9.1h-1.4c-.1 0-.3 0-.4-.1-.1 0-.1-.1-.2-.2-.2-.1-.5-.1-.8 0-1.1.2-2.2 0-3.2-.2-.3-.1-.6-.1-.8-.3-.1-.1-.2-.3-.3-.4-.5-1-.1-2.2.7-2.9.9-.6 2.3-.5 3.1.2.4.4.7 1 .9 1.6.2-.4.4-.9.8-1.2.5-.4 1.2-.5 1.8-.2.6.2 1.1.7 1.4 1.2.1.1.1.2.2.2.1.1.2.1.3.1.8 0 1.7-.4 2.1-1.2.2-.3.2-.7.3-1.1.2-1.2.3-2.4.7-3.5-.1.6-.2 1.2-.3 1.7-.1 1.1 0 2.6-.6 3.6-.5 1.1-1.5 1.7-2.4 2.2z" class="color353535 svgShape"></path><path fill="#ff9a3a" d="M51.3 99.8c0 .9.8.8 1.9.8 1 0 1.9.1 1.9-.8s-.8-1.9-1.9-1.9-1.9 1.1-1.9 1.9zM46.4 99.1c0 1.1 1 1.1 2.2 1.3 1.2.2 2.2.5 2.2-.7 0-1.1-1-2.7-2.2-2.9-1.2-.1-2.2 1.2-2.2 2.3z" class="colora69f99 svgShape"></path><path fill="#ccc8c4" d="M53.2 97.9c.2 0 .3 0 .5.1-1.1.4-1.6 1.5-1.5 2.6-.5 0-.9-.2-.9-.8 0-.8.8-1.9 1.9-1.9zM48.6 96.9c.2 0 .4.1.6.2-1.4.5-1.8 2.1-1.4 3.3-.8-.1-1.4-.3-1.4-1.2 0-1.2 1-2.5 2.2-2.3z" class="colorccc7c4 svgShape"></path><path fill="#848384" d="M92.8 86.7c.6.8 1.2 1.6 1.3 2.6 0 .6-.2 1.2-.4 1.7-.5 1.3-1.2 2.5-2.1 3.5-1.4 1.5-3.4 2.8-3.8 4.8-.1.3-.1.6.1.9.2.4.6.5 1.1.6 2.2.5 4.4.8 6.6.7.8 0 1.6-.1 2.4-.4s1.4-.9 1.6-1.7c.1-.4 0-.9.1-1.3.9-6.6 4.3-7.5 5.3-10.9.5-1.9-1.2-2.7-1.2-4.7-.1-2.9-.3-5.9-1.5-8.5-.1-.1-.1-.3-.2-.3-.2-.2-.2-3.1-.5-3.1-1.9.1-1.6-1.9-3.5-1.5-2.3.5-7.2 6.5-9.5 7.2-1 .3-1.7.7-1.2 1.7s1.1 2 1.7 3c1 2 2.3 3.9 3.7 5.7z" class="color848383 svgShape"></path><path fill="#ff2020" d="M5.9 64.6s-2.2 2 .9 4.6c0 0-3.6 12.1 7.5 9.4 0 0 3.2 3.2 8.9-1.8 0 0 2.5 2.9 10.4-7.1 0 0 1.1 4 4.9 2.4 3.7-1.6 7.4 8.5 14.6 9.8 7.2 1.4 39.9 2.5 47.4-8.7 0 0 1.7 3.3 5.5 7.8 3.7 4.5.9 13.6.9 13.6s-3.5 4.7-3.5 6.1 10.2 2.2 13.2-1.5c0 0-1.6-4.6-.7-7.9.9-3.2 3.5-3.5 2.2-11-1.2-7.5 6.8-15.8.3-32.2 0 0-8.6-14.9-22.2-14.5 0 0-22.2 5.3-32.2 3.3-10.1-2-9.5-3.7-13.4-1.4 0 0-10.9-7.6-17.7-.4s-8 3.1-9.8 6.6-3.3 10.1-7.8 12.5c-4.6 2.6-9.4 10.4-9.4 10.4z" class="colorbcbcbc svgShape"></path><path fill="#ff2020" d="M50 75.3c-.1 1.6-.2 3.2.3 4.7.2.6.5 1.2.8 1.8 1.1 2.1 2.2 4.1 3.2 6.2.4.7.7 1.4 1 2.1.6 1.8.6 3.7.5 5.5 0 .9-.1 1.8-.5 2.6-.4.6-.9 1-1.4 1.6-.4.5-.8 1.3-.5 1.9.4.8 1.5 1 2.4 1 1 0 2.1 0 3.1.1 1 0 2.1 0 3.1-.2s2-.8 2.5-1.7c.8-1.2.6-2.7.7-4.2.3-2.4 1.8-4.7 1.3-7.1-.2-1.1-.8-2-1.1-3-1.1-3.7 1.4-7.9.2-11.6-.1-1-.6-1.9-.6-3 0-1.6 1.5-2.8 2.1-4.3L50 75.3z" class="colorbcbcbc svgShape"></path><path fill="#592d72" d="M91.3 97.5c.7.4 1.3 1 1.5 1.8.4-.8 1.2-1.3 2-1.3s1.7.5 2 1.2c.1.1.1.3.2.4.3.4.9.4 1.2.1.4-.3.6-.7.7-1.1.3-.9.3-1.9.6-2.7.4-.9.8-1.9 1.5-2.7-.6 1.1-.8 2.5-.9 3.8s-.2 2.7-1 3.7c-.2.2-.3.4-.6.6-.3.2-.5.3-.8.4-1.1.4-2.3.4-3.5.4-.3 0-.7 0-1-.1-.2-.1-.3-.2-.5-.2h-.5c-1.2.2-2.5.2-3.7-.2-.3-.1-.5-.2-.7-.4-.4-.3-.5-.9-.5-1.4.2-1.9 2.1-3.3 4-2.3z" class="color444443 svgShape"></path><path fill="#ff9a3a" d="M92.7 100.8c0 .9.8.8 1.9.8 1 0 1.9.1 1.9-.8s-.8-1.9-1.9-1.9-1.9 1-1.9 1.9zM87.8 100.1c0 1.1 1 1.1 2.2 1.3 1.2.2 2.2.5 2.2-.7 0-1.1-1-2.7-2.2-2.9s-2.2 1.1-2.2 2.3z" class="colora69f99 svgShape"></path><path fill="#ccc8c4" d="M94.5 98.9c.2 0 .3 0 .5.1-1.1.4-1.6 1.5-1.5 2.6-.5 0-.9-.2-.9-.8.1-.9.9-1.9 1.9-1.9zM90 97.8c.2 0 .4.1.6.2-1.4.5-1.8 2.1-1.4 3.3-.8-.1-1.4-.3-1.4-1.2 0-1.2 1-2.5 2.2-2.3z" class="colorccc7c4 svgShape"></path><path fill="#9d9c9e" d="M91.3 96.1c-.4-.1-.7-.2-1.1-.2.5-.5 1-.9 1.4-1.4.9-1 1.6-2.2 2.1-3.5.2-.5.4-1.1.4-1.7 0-1-.7-1.8-1.3-2.6-1.1-1.4-2.1-2.9-3.1-4.4l1.2-.3c1.9-.6 3.7-1.6 5.6-2 1.5-.3 3.2-.2 4.1 1 1 1.2.7 3 .3 4.5-.3 1-.6 1.9-.9 2.8-.4 1.1-.7 2.1-1.1 3.2-.4-.2-.8-.4-1.2-.7 0 .8.3 1.5.8 2.1-.8.2-1.1 1.3-1 2.2 0 .5.1 1.2-.4 1.5-.3.2-.6.1-.9.1-1.3-.1-2.5.4-3.4 1.4-.1-.9-.7-1.6-1.5-2z" class="color9e9c9d svgShape"></path><path fill="#353535" d="M15.7 73.7c.3-.3.5-.8.3-1.2-.2-.3-.5-.4-.8-.5-.6 0-1.1.3-1.5.8-.5.7-.9 2-.4 2.8.3-.2.4-.6.7-.9.5-.5 1.2-.6 1.7-1z" class="color353535 svgShape"></path><path fill="#9d9c9e" d="M13.3 71.4c.6-.4 1.3-.7 2.1-.6.3 0 .5.1.8.3.3.3.5.8.6 1.2.3-.8.1-1.7-.5-2.3-.1-.2-.3-.3-.5-.4-.4-.2-.9-.2-1.3 0s-.8.5-1.1.8c-.2.1-.3.3-.5.5-.2.3-.3.6-.3 1-.1.4-.2.8-.2 1.1.1-.6.4-1.1.9-1.6zM6.8 69.2s4.1 2 8.1-3c0 0-1.6 5.1-8.5 4.9l.4-1.9z" class="color9e9c9d svgShape"></path><ellipse cx="23.4" cy="58.1" fill="#75677d" rx="3" ry="3.9" class="color7d6b67 svgShape"></ellipse><ellipse cx="23.4" cy="58.3" fill="#ffffff" rx="2.8" ry="3.4" class="colorffffff svgShape"></ellipse><ellipse cx="23.4" cy="59" fill="#1483c5" rx="1.8" ry="2.2" class="color00aae8 svgShape"></ellipse><ellipse cx="23.4" cy="59.2" rx="1.2" ry="1.4" fill="#000000" class="color000000 svgShape"></ellipse><circle cx="22.7" cy="58.6" r=".5" fill="#ffffff" class="colorffffff svgShape"></circle><path fill="#afafaf" d="M45.8 33.3c-1.1.2-2.1.5-2.7 1-2.4 1.8 1.7 9-5.6 11 0 0 3.6-8.2.1-12.8 2.8-.7 5.8-.1 8.2.8z" class="colorafafaf svgShape"></path><g fill="#afafaf" class="colorafafaf svgShape"><path d="M52.5 45.6c-.1.6-.3 1.1-.6 1.6.1-.5.3-1.1.6-1.6zM50.5 35.7c3.9-2.3 3.3-.6 13.4 1.4s32.2-3.3 32.2-3.3c13.7-.4 22.2 14.5 22.2 14.5.5 1.3.9 2.6 1.3 3.8-2.3-2.4-4.6-4.9-6.8-7.3-2.4-2.5-4.8-5.1-7.9-6.7s-7.1-1.8-9.9.2c-2.1 1.5-4 4.2-6.4 3.6-1.2-.3-2-1.4-3-2-2.3-1.4-5.3-.5-8 .1-2.7.7-5.4 1.1-8.1.7-3-.5-6-2-9-1.7-3.6.4-6.3 3.3-7.8 6.7.6-2.6 0-5.6-2.3-6.9-.8-.5-1.9-.7-2.5-1.4-.4-.4-.6-1-.9-1.6-.4-.9-.9-1.7-1.4-2.6 2.7 1 4.9 2.5 4.9 2.5z" fill="#000000" class="color000000 svgShape"></path></g><path fill="#e5e5e3" d="M.8 53.3c-.9 3.2.1 11.9 5.3 13.3s8.2-7 6.4-9c-.5-.6-7.7.2-9-3.1C2.3 51.2 1 52.6.8 53.3z" class="colore5e3e4 svgShape"></path><g fill="#fdff3d" class="colord6d6d6 svgShape"><path d="M6.1 66.7c2.1-.2 2.6-1.5 3.4-3 1-1.8-.3-2.8-2.7-4.4-2.1-1.3-2.5-3.1-3-4.2 1.7 2.8 8.2 2.1 8.7 2.6 1.9 2-1.2 10.4-6.4 9zM3.3 54c.1.2.1.3.2.5 0-.1-.1-.3-.2-.5z" fill="#000000" class="color000000 svgShape"></path></g><path fill="#9d9c9e" d="M65.6 69.9c.1.3.2.5.3.8.5 1.9.6 4 1 5.9.1.6.4 1 .8 1.3 0 .1.1.2.1.2.2.2.5.3.8.3 6.3.7 12.8-1 18.1-4.5.5-.3 1-.7 1.7-.7.3 0 .5.1.8 0 .6-.3.4-1.2.9-1.6l.6-.3c1.7-.8 2-3 2-4.9 0-.5 0-1.1.3-1.6.2-.3.5-.5.7-.8.2-.3.2-.6.2-1v-4.5c0-.4.1-1 .6-1.1.3 0 .6.3.7.7.5 1.3.5 2.7.8 4.1.7 3.9 3.3 7.1 5.1 10.5.4.7.6 1.4.7 2.1-.7-1.1-1-1.7-1-1.7-5.3 7.9-23.1 9.6-35.7 9.5.4-4-.8-8.6.5-12.7z" class="color9e9c9d svgShape"></path><path fill="#b2b2b2" d="M105.9 99.3c1 .9 5.7 1.7 9.1 1.2-4 2.3-11.7 1.5-11.7.3 0-1.4 3.5-6.1 3.5-6.1s2.9-9.1-.9-13.6c-3.7-4.5-5.5-7.8-5.5-7.8S93.3 69 94.9 57c0 0-.1 7.3 5.5 13.1s10.3 13.1 9.8 16.1l2.3 2.5-2.9-1.7 1 2.5h-1.4s.4 3.2-.8 5.3c-1.1 2-3.9 3.2-2.5 4.5zM59.1 102.8c-1 0-2.1 0-3.1-.1-.9 0-2-.2-2.4-1-.3-.6 0-1.4.5-1.9.2-.3.5-.6.8-.8.5-.3 1-.4 1.5-.4.8 0 1.7.5 1.9 1.4.4-1 .9-2.1 2-2.2.7-.1 1.5.2 1.9-.2.2-.2.3-.6.4-.9.3-1.8.6-3.6.8-5.4.1-.9.2-1.8-.2-2.6-.3-.6-.8-1.2-.5-1.7.1-.2.3-.3.4-.4.3-.5-.1-1.2-.1-1.8 0-.7.5-1.2.8-1.8.8-1.2.9-2.7.9-4.1 0-2.2-.6-5.2.6-7.2 0 .2-.1.4-.1.6 0 1 .5 2 .8 2.9 1.2 3.7-1.3 7.8-.2 11.6.3 1 .9 2 1.1 3 .5 2.4-1 4.7-1.3 7.1-.2 1.4 0 2.9-.7 4.2-.5.9-1.5 1.4-2.5 1.7h-3.3z" class="colorb2b2b2 svgShape"></path><path fill="#9d9c9e" d="M18.7 76.4c.4-.3.7-.6.9-1 .1-.2.3-.5.5-.6.2-.2.6-.1.7.1s0 .4 0 .6c0 .5.7.7 1.1.6.5-.1.8-.5 1.2-.8 1.2-.9 2.9-.8 4.3-1.4 1.2-.5 2.2-1.4 3.1-2.4 2.5-2.9 4.1-6.4 4.7-10.2 1.1 2.4.9 5.3-.5 7.6.5-.4 1.2.1 1.6.6.4.5.7 1.1 1.4 1.2s1.3-.5 2-.6c.5 0 .9.2 1.4.3.9.2 1.9-.2 2.6-.8.7-.6 1.2-1.4 1.6-2.3.4 2.1-1.1 4.4-3.2 4.8l4.9 4c.2.2.4.4.7.5.7.3 1.6.1 2.4.4-.3.5-.9.8-1.5.9.1 1.4 1.7 2.4 3.1 2.1 1.4-.3 2.5-1.5 2.8-2.9-.1 1.4-.6 2.7-1.5 3.7-.1.2-.3.4-.3.6v.4c-7.1-1.6-10.6-11.4-14.3-9.8-3.7 1.6-4.9-2.4-4.9-2.4-7.9 10-10.4 7.1-10.4 7.1-4.7 4.1-7.7 2.6-8.6 2 1.6-.4 3.2-1 4.2-2.3z" class="color9e9c9d svgShape"></path><path fill="#353535" d="M21.1 72c-.7.4.1 1.7-.6 2.2-.3.2-.6.3-.8.6-.1.2-.1.4-.2.6-.2.6-.8 1.1-1.4 1.4-1.2.8-2.5 1.6-3.9 1.7 0 0 .8.7 1.2.7s2-.7 3.2-1.8c1.1-1 1.2-1.9 1.3-2.3.1-.4 1-.6 1.3-1.1.4-.4.5-2.3-.1-2z" class="color353535 svgShape"></path><path fill="#9d9c9e" d="M45 80.2c.5-.3 1.1-.2 1.6 0s.9.7 1.2 1.1c1 1.2 1.7 2.5 2.3 3.8 0-.4.7-.6 1-.3.3.3.4.8.5 1.2 0 .3.1.7.1 1 0 .2.1.5.2.7.1.3.3.5.5.7 1.9 2 2.7 4.9 2 7.5-.1.3-.2.7-.6.7-.2 0-.4-.1-.6-.2-.4-.2-.8-.2-1.2-.1-.5.1-.9.4-1.4.3-.8-.1-1.1-1.2-1.4-2l-.3-.6c0-.3 0-.7.1-1 0-1.9.1-3.8-.5-5.5-.3-.7-.6-1.4-1-2.1l-2.7-5.1c.1 0 .1 0 .2-.1zM50.6 80.6l3.1 5.9-1.2-5.5zM10.3 66.6c.9-.7 1.4-1.2 1.9-2.1s1-1.9 1.3-3c.3-1 .4-2.2 0-3.2-.1-.3-.2-.6-.5-.8-.4-.3-.9-.4-1.4-.4 1.1-1.1 2.3-2.1 3.4-2.7 4.5-2.3 6-9 7.8-12.5 1.7-3.5 2.9.5 9.5-6.4.3.3.6.7.7 1.1.3.9.3 1.8.3 2.7v2c0 .6 0 1.2-.2 1.8s-.5 1.2-1.1 1.4c-.6.3-1.4.2-2 .2-1.5.1-2.6 1.2-3.6 2.3-.2.3-.1.7 0 1 .2.3.5.5.6.8.5.9-.4 2-.3 3.1 0 .5.2 1 .4 1.5-.2 0-.5-.1-.9-.4-.6-.5-1.2-.9-1.8-1.2-.6-.4-1.4-.7-2.2-.8-.8-.1-1.7-.1-2.3.4h-.2c-.1 0-.3.1-.4.2-.1.1-.1.2-.2.4-.3 1.1-.6 2.3-.1 3.4-.4-.4-1-.9-1.5-1.4-.4.9-.8 1.7-1.4 2.5-.1.1-.2.3-.4.4-.3.1-.6 0-.8.2-.3.3 0 .7.1 1.1.5.9.5 2 .3 3-.3 1.9-.9 3.8-2.2 5.2s-3.4 2.2-5.2 1.7c-.3-.1-.6-.2-.6-.5 1 .1 2.2-.4 3-1z" class="color9e9c9d svgShape"></path><path fill="#ff2020" d="M32.8 44.4s6.3 3.8 7.4-4.5c1.1-8.3-6.9-10.6-6.4-15.4 0 0-6.9 2.7-5.7 8.3 1.2 5.6 3.9 6.7 2.5 8.1-1.3 1.4 2.2 3.5 2.2 3.5z" class="colorbcbcbc svgShape"></path><path fill="#9d9c9e" d="M35.3 41.4c.5-.7.9-1.6 1.1-2.4.1-.6.2-1.1.2-1.7-.1-1.1-.7-2-1.4-2.9-.5-.6-1.1-1.2-1.9-1.5-.8-.3-1.7-.1-2.2.5-.4.6-.3 1.4-.1 2.2.4 1.2 1.3 2.3 1.8 3.5.3.6.5 1.2.6 1.9s-.2 1.3-.2 1.9c.8-.2 1.6-.9 2.1-1.5z" class="color9e9c9d svgShape"></path><path fill="#353535" d="M22.3 72.9c-.1 0-.1 0-.2-.1-.1 0-.1-.1-.1-.2-.2-.3-.7-.5-1.1-.4-.2.1-.4.2-.5.4 0 .1-.1.1-.2.1s-.2-.1-.2-.2.1-.2.1-.3c.2-.3.6-.4 1-.5h.7c.2.1.5.2.6.4 0 .3.1.7-.1.8z" class="color353535 svgShape"></path><path fill="#592d72" d="M105.4 98.2c-1.1.3-2 1.3-2.1 2.5 0 .4 0 .9.3 1.2.2.2.5.4.7.5 1 .4 2.2.2 3.3.2.9 0 1.7.2 2.5.2s1.8-.1 2.4-.6c.2-.2.4-.4.7-.5l.9-.3c.5-.1.9-.4 1.3-.6.6-.4 1.3-.8 1.4-1.6.1-.4 0-.8-.1-1.2-.3-1.1-.7-2.2-1-3.3-.2-1.1-.3-2.3 0-3.4-.6 1.7-.8 3.5-.7 5.3 0 .5.1.9 0 1.4-.1.4-.3.8-.6 1.2-.4.5-.8 1-1.4 1.2-.1 0-.2.1-.3 0-.2 0-.3-.2-.4-.4-.3-.7-1.1-1-1.9-1.1-.6 0-1.1.1-1.6.4-.6.3-.6.1-1-.4-.5-.6-1.5-.9-2.4-.7z" class="color444443 svgShape"></path><path fill="#ff9a3a" d="M108.5 101.6c0 .9.8.8 1.9.8s1.9.1 1.9-.8-.8-1.9-1.9-1.9-1.9 1-1.9 1.9zM103.6 100.9c0 1.1 1 1.1 2.2 1.3 1.2.2 2.2.5 2.2-.7 0-1.1-1-2.7-2.2-2.9-1.2-.1-2.2 1.1-2.2 2.3z" class="colora69f99 svgShape"></path><path fill="#ccc8c4" d="M110.3 99.7c.2 0 .3 0 .5.1-1.1.4-1.6 1.5-1.5 2.6-.5 0-.9-.2-.9-.8.1-.9.9-1.9 1.9-1.9zM105.8 98.6c.2 0 .4.1.6.2-1.4.5-1.8 2.1-1.4 3.3-.8-.1-1.4-.3-1.4-1.2 0-1.2 1-2.4 2.2-2.3z" class="colorccc7c4 svgShape"></path><path fill="#592d72" d="M62.3 102.9c-.3.2-.7.4-1 .4-.3.1-.6.1-.9.1H59c-.1 0-.3 0-.4-.1-.1 0-.1-.1-.2-.2-.2-.1-.5-.1-.8 0-1.1.2-2.2 0-3.2-.2-.3-.1-.6-.1-.8-.3-.1-.1-.2-.3-.3-.4-.5-1-.1-2.2.7-2.9.9-.6 2.3-.5 3.1.2.4.4.7 1 .9 1.6.2-.4.4-.9.8-1.2.5-.4 1.2-.5 1.8-.2.6.2 1.1.7 1.4 1.2.1.1.1.2.2.2.1.1.2.1.3.1.8 0 1.7-.4 2.1-1.2.2-.3.2-.7.3-1.1.2-1.2.3-2.4.7-3.5-.1.6-.2 1.2-.3 1.7-.1 1.1 0 2.6-.6 3.6-.4 1.1-1.4 1.7-2.4 2.2z" class="color444443 svgShape"></path><path fill="#ff9a3a" d="M58.2 102.3c0 .9.8.8 1.9.8 1 0 1.9.1 1.9-.8s-.8-1.9-1.9-1.9c-1-.1-1.9 1-1.9 1.9zM53.4 101.6c0 1.1 1 1.1 2.2 1.3 1.2.2 2.2.5 2.2-.7 0-1.1-1-2.7-2.2-2.9-1.3-.2-2.2 1.1-2.2 2.3z" class="colora69f99 svgShape"></path><path fill="#ccc8c4" d="M60.1 100.3c.2 0 .3 0 .5.1-1.1.4-1.6 1.5-1.5 2.6-.5 0-.9-.2-.9-.8 0-.8.9-1.9 1.9-1.9zM55.6 99.3c.2 0 .4.1.6.2-1.4.5-1.8 2.1-1.4 3.3-.8-.1-1.4-.3-1.4-1.2 0-1.2.9-2.5 2.2-2.3z" class="colorccc7c4 svgShape"></path></svg>