<svg xmlns="http://www.w3.org/2000/svg" viewBox="0 0 128 128" id="SeaLion"><path fill="#14c5af" d="M114.2 87.2c4-1.9 8.9-1.8 12.9.2-6 4.8-13.6 7.3-21.2 7.2-.8 0-1.6-.1-2.4-.4-1.9-.9-2.2-3.4-2-5.5.2-4 1.1-8 2.6-11.8.2-.6.5-1.2 1-1.7.5-.6 1.2-.9 1.9-1.3 1.7-.8 4-2.1 5.9-2.1 2.1-.1 2 .8 2.3 2.8.2 2.2.2 4.4.1 6.6-.2.9-.3 5.6-1.1 6z" class="color6d6d6d svgShape"></path><path fill="#592d72" d="M110.9 91.4c5.4-6.5 4.2-15.8 4.2-15.8l-13 7.8c-.3 1.7-.6 3.4-.7 5.2-.1 2.1.2 4.6 2 5.5.7.4 1.6.4 2.4.4 2.4.1 4.9-.2 7.3-.7-2.6.3-3.9-.3-2.2-2.4z" class="color4b4f50 svgShape"></path><path fill="#592d72" d="M106.5 94.8h-.7c-.8 0-1.7-.1-2.5-.5-2-1-2.3-3.7-2.2-5.7h.5c-.1 1.9.1 4.4 1.9 5.3.7.4 1.5.4 2.3.4 7.4.2 14.9-2.3 20.8-6.9-3.8-1.8-8.5-1.8-12.3 0l-.2-.4c.2-.1.6-1.1.8-5.2v-.6c.2-2.3.1-4.5-.1-6.5v-.3c-.2-1.8-.2-2.4-2-2.3v-.5c2.2-.1 2.3.9 2.5 2.7v.3c.2 2.1.3 4.3.1 6.6v.6c-.1 2.3-.3 4-.6 4.9 4-1.6 8.5-1.4 12.4.5l.3.2-.3.2c-5.8 4.6-13.3 7.2-20.7 7.2z" class="color4b4f50 svgShape"></path><path fill="#1483c5" d="M119.6 39.7c0-9.9-8.1-18-18-18-9.1 0-16.3 6.9-17.6 15.7-1 6.8 1.7 12.6-.5 18.2-2.9 7.1-6.7 5.7-11.4 8.6-4.7 2.9-17.9 13.2-25 14.8-7.1 1.5-17.6.9-12.6-9.6.4-.9 5.4-8.9 6.5-12.4s1.1-7.6-.9-10.7c-.2-.3-.4-.6-.8-.7-.8-.3-1.6.7-1.8 1.5-.2.9-.3 1.9-1.1 2.4-.5.3-1.1.3-1.6.6-1.5.9-.4 3.6-1.8 4.7-.6.4-1.3.4-1.9.7-1.3.8-.9 3.1-2.2 4.1-.3.2-.7.4-1 .6-1.1.8-1.1 2.4-1 3.8.1 1.3 0 2.9-1.1 3.6h-.4c-1.2-.2-2-1.2-2.7-2.2s-1.2-2-2.2-2.8-2.5-1.2-3.8-.8c-.6.2-1.2.5-1.9.4-1.4-.1-2.4-1.8-3.8-1.4-.4.1-.7.4-1.1.6-1.6.6-3.1-1.6-4.7-1.1-.4.1-.7.4-1.1.5-.6.1-1.2-.3-1.7-.6s-1.3-.5-1.7-.1c-.6.5-.2 1.6.3 2.2 3.2 4.3 8.3 6.7 13.2 9.1 1.6.8 10.6 4.5 11.4 6.3 0 0 2.6 12.2 22.8 18.1s58.6 3.3 64.3-9c5.1-11.1.6-29.1-.3-32.4 4.4-3.7 7.2-8.9 7.2-14.7z" class="coloraaaaaa svgShape"></path><path fill="#dddddd" d="m117.3 47.8-6.3-2.2-10.8 8.9s9.1 11 1.8 27.6C94.8 98.7 60.4 90.2 53.8 94c-1.5.9-1.4 1.7-.2 2.3 20.9 4.2 53.7 1.1 58.9-10.2 5.1-11.1.6-29-.3-32.3 2.1-1.5 3.9-3.6 5.1-6z" class="colordddddd svgShape"></path><path fill="#592d72" d="M94.1 53.8s3.1 2.9 7.4 3.9c0 0 1.4 1.8 4 3.1s4.9 0 5.7 3c.8 3 3.2 19.6-7.3 26s-27.5 6.8-34.8 6.4S46.8 94.3 31.6 86c0 0 10.9 13.6 46.8 12.1 35.9-1.4 36.1-12.5 36.3-25.7.3-13.2-3.2-17.6-3.2-17.6l-17.4-1z" opacity=".3" class="color4b4f50 svgShape"></path><path fill="#b7b7b7" d="M110.5 24.1c-2.6-1.5-5.7-2.4-8.9-2.4-9.1 0-16.3 6.8-17.6 15.5-1 6.8 1.6 12.9-.7 18.5-2.9 7.1-6.7 5.5-11.4 8.3-4.7 3-18.1 13.5-25.2 15-6.8 1.4-16 .8-12.9-8.2-.7 1.2-1.2 2.5-1 3.8.4 4.6 1.2 9.1 15.5 5.1s26-15.7 29.5-16.2c0 0-1.8 4.5.4 7 0 0 1.4-7.5 4.2-10.6 2.8-3.1 2.7-4.8 2.7-4.8l3.1 2.7s-7.5-16.9.6-28.3 22.1-4.8 22.1-4.8l-.4-.6zM31.2 59.3c0-1.7 1.6-3.2 3.3-3.3.5-.8.4-1.9.5-2.8.1-.9.7-2 1.7-2 .4 0 .8.2 1.1 0 .2-.1.3-.3.3-.5.2-.7.2-1.5.3-2.3.1-.6.3-1.4.8-1.8.4-.3.7-.3 1-.2-.1-.1-.1-.2-.2-.3-.2-.3-.4-.6-.8-.7-.8-.3-1.6.7-1.8 1.5-.2.9-.3 1.9-1.1 2.4-.5.3-1.1.3-1.6.6-1.5.9-.4 3.6-1.8 4.7-.6.4-1.3.4-1.9.7-1.3.8-.9 3.1-2.2 4.1-.3.2-.7.4-1 .6-1.1.8-1.1 2.4-1 3.8.1 1.3 0 2.9-1.1 3.6h-.4c-1.2-.2-2-1.2-2.7-2.2s-1.2-2-2.2-2.8-2.5-1.2-3.8-.8c-.6.2-1.2.5-1.9.4-1.4-.1-2.4-1.8-3.8-1.4-.4.1-.7.4-1.1.6-1.6.6-3.1-1.6-4.7-1.1-.4.1-.7.4-1.1.5-.6.1-1.2-.3-1.7-.6S1 59.5.6 59.9c-.6.5-.2 1.6.3 2.2.1 0 .2-.1.3-.1.9-.1 1.9.5 2.8.2.5-.2.7-.5 1-.6 1.1-.5 2.2.9 3.5 1 .4 0 .9-.1 1.3-.1 1.4-.2 2.9.2 4 1.2.3.2.6.5.9.5.3 0 .5-.2.7-.4.9-.6 2.2-.4 3.2.2s1.6 1.5 2.4 2.4c.7.9 1.6 1.7 2.7 2 1.5.4 3.2-.4 3.8-1.9.4-.9.3-2 .5-3s.7-2.1 1.7-2.3c.4-.1.9-.1 1.2-.3.4-.5.3-1.1.3-1.6z" class="colorb7b7b7 svgShape"></path><path fill="#592d72" d="M112.3 56c2.8 7.9 2.4 19.3 2.4 19.3-.3 4.6-1.1 8.6-2.7 11.3-4.7 8.2-13.6 8.2-13.6 8.2s-20 6.2-43.3 1.6-27.6-15.6-28.8-18.7c-1.2-3-7.9-5.3-7.9-5.3C1.2 65.8.9 60.3.9 60.3s1-1.4 4.6 2.2l-1.3-1.8s1.5-1.2 2.8-.2c1.3.9 4.1 3.8 4.1 3.8l-2.6-3s1.1.5 1.8-.1c.8-.6 1.2-.5 1.2-.5 2-.1 5.3 4.7 5.3 4.7-.3-1.7-2-3.2-2-3.2.4.2 1.7-.7 4-.4 2.3.2 3.8 3.9 5.3 5.3 1.5 1.3 3.7.7 3.2-2.8s.6-3.9 1.1-4.1c.4-.2 1.1-.7 1.1-.7-.1 2.7 2.1 5.8 2.1 5.8-3.1-5.4-1.1-9.8 0-9.9 1.1 0 2-.9 2-.9l.8 2.4c-1-4.5.2-6.8.8-6.8s1.7-.6 1.7-.6c-.1 2 .9 4.6.9 4.6s-1-4.4 0-6.7c1.1-2.3 1.8-1.3 1.8-1.3 3.4 4.6 1 10.2-1 14.7-2 4.6-8.7 10-4.8 16.4s17.1 2.1 25.6-3.9c5.2-3.6 14.2-9.8 15.4-10.2C76 62.8 80 61 80 61c-.8 1.8-1 5.4-1 5.4s.6-4.1 3-7.2c2.4-3.1 2.7-7.2 2.7-7.2.4 1.9 1.9 4 1.9 4-2.8-7.2-2.1-11.8-2.3-15.8-.2-4.9 4-19.6 19.8-17.9 13.2 1.4 15.3 15.4 14.8 20.1-.3 2.8-2.1 6.4-3.7 9.2 2.8-3.2 4.5-7.4 4.5-12 0-9.9-8.1-18-18-18-9.1 0-16.6 6.7-17.8 15.5-1 6.8 1.7 12.6-.5 18.2-2.9 7.1-7.1 5.8-11.9 8.7-4.9 3-16.9 13-24.1 14.5-7.1 1.5-18 1.3-13-9.2.4-.9 5.4-8.9 6.5-12.4s1.1-7.6-.9-10.7c-.2-.3-.4-.6-.8-.7-.8-.3-1.6.7-1.8 1.5-.2.9-.3 1.9-1.1 2.4-.5.3-1.1.3-1.6.6-1.5.9-.4 3.6-1.8 4.7-.6.4-1.3.4-1.9.7-1.3.8-.9 3.1-2.2 4.1-.3.2-.7.4-1 .6-1.1.8-1.1 2.4-1 3.8.1 1.3 0 2.9-1.1 3.6h-.4c-1.2-.2-2-1.2-2.7-2.2s-1.2-2-2.2-2.8-2.5-1.2-3.8-.8c-.6.2-1.2.5-1.9.4-1.4-.1-2.4-1.8-3.8-1.4-.4.1-.7.4-1.1.6-1.6.6-3.1-1.6-4.7-1.1-.4.1-.7.4-1.1.5-.6.1-1.2-.3-1.7-.6S1 59.6.6 60c-.6.5-.2 1.6.3 2.2 3.2 4.3 8.3 6.7 13.2 9.1 1.6.8 10.6 4.5 11.4 6.3 0 0 2.6 12.2 22.8 18.1s58.6 3.3 64.3-9c4.7-10.2 1.3-26 0-31.2-.1.2-.3.5-.3.5z" class="color4b4f50 svgShape"></path><path fill="#1483c5" d="M100.8 75.9c2 1.6 2.8 4.2 3.4 6.7.8 3.7 1.4 7.4 1.5 11.1.1 1.4.1 2.8-.3 4.1-1 3.4-4.6 5.4-8 6.5-4.3 1.4-8.8 1.8-13.3 1.9s-9.3-.2-13.2-2.4c1.3-2.3 2.9-4.8 5.4-5.2.8-.1 1.7 0 2.4-.4.5-.2.9-.7 1.3-1.1 1.4-1.3 3.2-2 5.1-2.1.6 0 1.3 0 1.9-.1.8-.2 1.5-.8 2.2-1.2 1.8-1 4.1-1.1 6-.2-2.4-.7-3.9-3.2-4.2-5.7-.3-2.5.4-5 1-7.4" class="coloraaaaaa svgShape"></path><path fill="#4d4a4f" d="M117.7 37.2c.5 2.2-1 4.4-3.3 4.9-2.4.6-4.7-.7-5.2-2.9s.2-7.5 2.6-8.1c2.3-.5 5.4 4 5.9 6.1z" class="color4a4e4f svgShape"></path><path fill="#ffffff" d="M117.3 37.4c.5 2-.8 4-3 4.5-2.1.5-4.2-.7-4.7-2.7s.2-6.9 2.3-7.4c2.1-.5 4.9 3.6 5.4 5.6z" class="colorffffff svgShape"></path><circle cx="113.5" cy="38" r="3.2" fill="#6f2c95" class="color2c5595 svgShape"></circle><circle cx="113.5" cy="38" r="1.9" fill="#010002" class="color000002 svgShape"></circle><circle cx="113" cy="36.1" r=".8" fill="#fffffa" class="colorfffaff svgShape"></circle><path fill="#4d4a4f" d="M105.3 38.9c-.6 2.3-3.2 3.6-5.7 2.9-2.5-.7-4-3.1-3.4-5.4.6-2.3 4.1-6.9 6.6-6.2 2.6.6 3.2 6.4 2.5 8.7z" class="color4a4e4f svgShape"></path><path fill="#ffffff" d="M104.8 38.8c-.6 2.1-2.9 3.4-5.1 2.7-2.2-.6-3.6-2.8-3-5 .6-2.1 3.7-6.4 6-5.8 2.2.7 2.7 6 2.1 8.1z" class="colorffffff svgShape"></path><circle cx="100.9" cy="37.4" r="3.4" fill="#6f2c95" class="color2c5595 svgShape"></circle><circle cx="100.9" cy="37.4" r="2" fill="#010002" class="color000002 svgShape"></circle><circle cx="99.9" cy="35.7" r=".9" fill="#fffffa" class="colorfffaff svgShape"></circle><path fill="#fdff3d" d="M119.8 47.4c-.4-4.2-7-7-14.7-6.2s-13.7 4.8-13.2 9c.3 3.3 4.5 5.7 10 6.2 1 .5 2.1 1.2 2.9 2.1 1.9 2.1 6.9 1.9 7.7-.8.6-1.9 2.1-3.4 2.9-4.1 2.9-1.6 4.6-3.9 4.4-6.2z" class="colorffd3a6 svgShape"></path><path fill="#070508" d="M114.3 49.2c-4.8 6-10.3 3.9-15.4.6 0 0 5.9 3.1 9.2 2.7 3.4-.4 6.2-3.3 6.2-3.3z" class="color050608 svgShape"></path><path fill="#070508" d="M102 51.4c.5.5 1.3 1.6 2.7 3.5 2.2 3.1 6.4 2.4 7-.6.3-1.5.8-2.8 1.1-3.7-3.6 3.5-7.3 2.6-10.8.8z" class="color050608 svgShape"></path><path fill="#420068" d="M102.1 51.6c.5.4 1.3 1.4 2.6 3 2.1 2.7 6.2 2 6.8-.6.3-1.3.8-2.4 1.1-3.2-3.5 3.1-7.1 2.3-10.5.8z" class="color680000 svgShape"></path><path fill="#ff9a3a" d="M107.8 53.5c.4.4.6 1.1.6 1.1-.2-.2-.5-.5-.9-.8-1.1-1-2.4-.3-3.3.2.2.2.4.4.5.7 2.1 2.7 6.2 2 6.8-.6 0-.1.1-.3.1-.4-1.6-1.3-3.8-.2-3.8-.2z" class="colore6675e svgShape"></path><path fill="#070508" d="M98.5 50.9s-.2-2.3 1.5-2c-.1.1-1.3.6-1.5 2zM115.1 50.3s-.2-2.3-1.8-1.7c0 0 1.3.3 1.8 1.7z" class="color050608 svgShape"></path><path fill="#010002" d="M110.1 28.5s3.6-2 6.2 2.3c0 .1-3.6-7.6-6.2-2.3zM103.2 28.5s-3.6-2-6.2 2.3c-.1.1 3.6-7.6 6.2-2.3z" class="color000002 svgShape"></path><path fill="#919091" d="M84.2 106.3c4.5-.1 9-.6 13.3-1.9 3.4-1.1 6.9-3.1 8-6.5.4-1.3.4-2.7.3-4.1-.2-3.7-.7-7.5-1.5-11.1-.5-2.2-1.2-4.6-2.8-6.2l-.2.1s3.1 12.9 2.5 16.5c-.7 3.6-3.1 7.7-6.6 8.3-3.5.6-10.1 2.8-14.5 1.8s-8.9-2.2-6.9-3.8c.5-.4-.2-.2-1.4.3-1.4 1-2.5 2.7-3.4 4.3 3.9 2.1 8.7 2.4 13.2 2.3z" class="color919090 svgShape"></path><path fill="#592d72" d="M93.8 92.3c1.9 1.7 5.5 1.7 5.3 2.9-.2 1.3-1.1.3-1.1.3-4.6-3.3-7.3-1.8-8.1-1.3-.8.5-2.8 1.5-2.8 1.5 4.8 2.1 6.7 5.3 6.7 5.3s-4.1-4.3-7.8-5.1c-3.7-.8-7 3.2-7 3.2 3.9.9 6.2 3.6 6.2 3.6s-4.4-3.1-7.9-3.3c-3.4-.2-5.8 4.5-5.8 4.5 13.2 4.8 26 .6 30.6-2.2 4.6-2.8 3.2-7.6 2.5-14.8-.7-7.2-3.8-10.8-3.8-10.8 2 1.6 2.8 4.2 3.4 6.7.8 3.7 1.4 7.4 1.5 11.1.1 1.4.1 2.8-.3 4.1-1 3.4-4.6 5.4-8 6.5-4.3 1.4-8.8 1.8-13.3 1.9s-9.3-.2-13.2-2.4c1.3-2.3 2.9-4.8 5.4-5.2.8-.1 1.7 0 2.4-.4.5-.2.9-.7 1.3-1.1 1.4-1.3 3.2-2 5.1-2.1.6 0 1.3 0 1.9-.1.8-.2 1.5-.8 2.2-1.2 1.8-1 4.1-1.1 6-.2-2.4-.7-3.9-3.2-4.2-5.7-.3-2.5.4-5 1-7.4 0-.1-2.4 8 1.8 11.7zM119.8 47.4c-.4-4.2-7-7-14.7-6.2s-13.7 4.8-13.2 9c.3 3.3 4.5 5.7 10 6.2 1 .5 2.1 1.2 2.9 2.1 1.9 2.1 6.9 1.9 7.7-.8.6-1.9 2.1-3.4 2.9-4.1 2.9-1.6 4.6-3.9 4.4-6.2zm-2.2 4.2c-2.2 1.8-4.1 3.4-4.1 3.4.1-.6 1.6-2.9 1.6-2.9s-2.1 2.1-2.6 4.5c-.6 2.4-1.5 2.6-3 2.9-1.5.3-3.8-.2-5-1.7s-5.1-3.6-5.1-3.6l2.3 1.9s-12.3-1.7-9.2-8c2.6-5.2 10.4-6.8 16.4-6.6 5.8.1 8.6 2.5 9.7 3.6 1.3 1.4 1.4 4.6-1 6.5z" class="color4b4f50 svgShape"></path><circle cx="108.8" cy="42.6" r="4.9" fill="#8f0000" class="color8f0100 svgShape"></circle><circle cx="108.2" cy="42" r="3.9" fill="#9e0707" class="color9e0707 svgShape"></circle><ellipse cx="107.5" cy="40.9" fill="#ff2020" rx="1.4" ry="2.7" transform="rotate(-130.445 107.472 40.884)" class="colord14242 svgShape"></ellipse><circle cx="72.4" cy="69.1" r="1.7" fill="#592d72" class="color4b4f50 svgShape"></circle><circle cx="67.5" cy="71.8" r="1" fill="#592d72" class="color4b4f50 svgShape"></circle><circle cx="54.9" cy="80.3" r="1" fill="#592d72" class="color4b4f50 svgShape"></circle><circle cx="61.9" cy="75.1" r="1.2" fill="#592d72" class="color4b4f50 svgShape"></circle><circle cx="57.5" cy="77.8" r=".9" fill="#592d72" class="color4b4f50 svgShape"></circle><circle cx="51.3" cy="79.9" r=".6" fill="#592d72" class="color4b4f50 svgShape"></circle><circle cx="61.1" cy="79.4" r="1" fill="#592d72" class="color4b4f50 svgShape"></circle><circle cx="66.8" cy="77.2" r="1" fill="#592d72" class="color4b4f50 svgShape"></circle><circle cx="71.7" cy="75.2" r="1.5" fill="#592d72" class="color4b4f50 svgShape"></circle><circle cx="76.5" cy="70.4" r=".5" fill="#592d72" class="color4b4f50 svgShape"></circle><circle cx="75.6" cy="65.9" r=".5" fill="#592d72" class="color4b4f50 svgShape"></circle></svg>