<svg xmlns="http://www.w3.org/2000/svg" viewBox="0 0 128 128" id="Rabbit"><path fill="#14c5af" d="M46.4 110.7s-30 4.2-28.3-21.4c1.8-28.9 24-46.9 20-53.7-1.8-3.1-6.1-.3-6.6 5.2-.7 8.1-12.6 12.3-13.8-1.1 1 4.4 10.1 7.5 8-7.2-2-14.2 11.5-28.1 24.1-20.7s18.7 53.7 18.7 53.7l-22.1 45.2z" class="colorea943d svgShape"></path><path fill="#1483c5" d="M31.5 40.6c.5-5.5 4.8-8.3 6.6-5.2 3.9 6.8-18.2 24.8-20 53.7-1.6 25.6 28.3 21.4 28.3 21.4l3.6-7.4c-1.6-.3.1-4.6-2-4.4-24.7 2.6-21.4-33-11.7-48.3 6.8-10.7 9.3-18.8 1.1-20.3-9.4-1.4-7.2 9.9-11.5 14.3-4.5 4.6-8.1-4.9-8.1-4.9 1.1 13.5 13 9.3 13.7 1.1z" class="colorf9dfc6 svgShape"></path><path fill="#d37e2d" d="M49.9 11.7c-7.4-4.4-15.1-1.4-19.8 4.6.9-.5 1.7-.9 2.2-1 3-.8 6.3-.7 9.2.3 4.1 1.4 7.8 5.1 7.3 9.4-.7-2.3-2.9-4.1-5.3-4.3 3.3 2.6 3.6 7.4 3.6 11.5 0 4.2 0 8.9 3 11.8-1.9-.3-3.6-1.7-4.4-3.4.9 2.8 1 5.9.1 8.7-.6 1.8-1.6 3.5-2.2 5.4-1.7 4.8-1 10.4 2 14.5-2-1.3-3.5-3.2-4.3-5.5 1.1 2.6 1.7 5.4 1.6 8.2-.1 4.1-1.4 8.5.4 12.2 1 2.2 3 3.7 4.9 5.1 2.1 1.6 4.3 3.1 6.8 4.1l13.6-27.9c-.1-.1-6.1-46.3-18.7-53.7zM56.8 115.6s5.3 3.2 1.3 5.5-7.7 2.8-9.7 5.1c0 0-2.8 3.5-6.7-.7 0 0-1.8 1.3-4.3-1 0 0-5.1-.4-3.2-5.4 1.9-5 15.2-5.6 17.2-5.1 2.1.4 5.4 1.6 5.4 1.6z" class="colord3792d svgShape"></path><path fill="#ff2020" d="M56.8 115.6s-.1 0-.4-.1c.8 1 1.6 2.2 1.4 2.9-.4 1.6-6.3 3.4-6.3 3.4s-4 2.2-4.7 3.6c-.7 1.4-5.6 0-5-2.3.4-1.6 1.5-3.5 3-4.4-2.1.8-4.9 2.5-3.6 5.9 0 0-3.1.8-3.7-1.1-.5-1.5.2-4.6 2.1-6-1.7.9-3.9 2.7-2.7 5.9 0 0-4.2-.8-2-5.7-.4.4-.7.9-.9 1.4-1.9 5 3.2 5.4 3.2 5.4 2.5 2.3 4.3 1 4.3 1 3.9 4.1 6.7.7 6.7.7 1.9-2.3 5.7-2.7 9.7-5.1 4.2-2.4-1.1-5.5-1.1-5.5z" class="colora94c06 svgShape"></path><path fill="#d37e2d" d="M83.4 114s-5.3 3.2-1.3 5.5 7.7 2.8 9.7 5.1c0 0 2.8 3.5 6.7-.7 0 0 1.8 1.3 4.3-1 0 0 5.1-.4 3.2-5.4-1.9-5-15.2-5.6-17.2-5.1-2 .4-5.4 1.6-5.4 1.6z" class="colord3792d svgShape"></path><path fill="#ff2020" d="M83.4 114s.1 0 .4-.1c-.8 1-1.6 2.2-1.4 2.9.4 1.6 6.3 3.4 6.3 3.4s4 2.2 4.7 3.6c.7 1.4 5.6 0 5-2.3-.4-1.6-1.5-3.5-3-4.4 2.1.8 4.9 2.5 3.6 5.9 0 0 3.1.8 3.7-1.1.5-1.5-.2-4.6-2.1-6 1.7.9 3.9 2.7 2.7 5.9 0 0 4.2-.8 2-5.7.4.4.7.9.9 1.4 1.9 5-3.2 5.4-3.2 5.4-2.5 2.3-4.3 1-4.3 1-3.9 4.1-6.7.7-6.7.7-1.9-2.3-5.7-2.7-9.7-5.1-4.1-2.4 1.1-5.5 1.1-5.5z" class="colora94c06 svgShape"></path><path fill="#14c5af" d="M85.5 60.3s5.3 9.1 5.1 15.7c-.1 6.6-2.7 10.4.5 15.2 3.2 4.8 11.6 5.6 10.2 12.7-1.4 7.1-18.5 18.3-27.7 13.4 0 0-26.2 5.1-32.1-6.3-5.8-11.4 7.6-18 13.7-24.4 6.1-6.3.7-18.1 13.5-24.8l16.8-1.5z" class="colorea943d svgShape"></path><path fill="#1483c5" d="M81.5 60.3s8.2 8.8 4 20.4c-4.2 11.6 2.1 15.4 0 24.3s-9.6 16.2-16.8 14.8c-7.1-1.3-14.9-5.1-11.6-15.9 3.2-10.8 12.5-22 13.5-30.7s-2.2-14.9-2.2-14.9l13.1 2z" class="colorf9dfc6 svgShape"></path><path fill="#f19b49" d="M89.4 14.4S98.3-1 107.7.7s-9.1 34-9.1 34l-9.2-20.3z" class="colorf19f49 svgShape"></path><path fill="#e7b07c" d="M93.9 14.9l4.5 7.7c1.2-9.2 5.3-15.2 8.4-18.6-3.5.5-12.9 10.9-12.9 10.9z" class="colore7817c svgShape"></path><path fill="#fbd1a9" d="M107.6 4c-.2-.1-.5-.1-.8-.1-3.1 3.4-7.2 9.4-8.4 18.6l1.9 3.3s9.9-20.4 7.3-21.8z" class="colorfba9ad svgShape"></path><path fill="#f19b49" d="M64.2 14.4S55.3-1 45.9.7s9.1 34 9.1 34l9.2-20.3z" class="colorf19f49 svgShape"></path><path fill="#e7b07c" d="M59.7 14.9l-4.5 7.7C54 13.4 49.9 7.3 46.7 3.9c3.6.6 13 11 13 11z" class="colore7817c svgShape"></path><path fill="#fbd1a9" d="M45.9 4c.2-.1.5-.1.8-.1 3.1 3.4 7.2 9.4 8.4 18.6l-1.9 3.3c.1 0-9.9-20.4-7.3-21.8z" class="colorfba9ad svgShape"></path><ellipse cx="76.8" cy="34.4" fill="#ff9a3a" rx="27.9" ry="27.3" class="colorf09f44 svgShape"></ellipse><ellipse cx="90.6" cy="31.3" fill="#eac8a7" rx="10.7" ry="16.3" class="coloreac5a7 svgShape"></ellipse><ellipse cx="62.9" cy="31.3" fill="#eac8a7" rx="10.7" ry="16.3" class="coloreac5a7 svgShape"></ellipse><ellipse cx="90.6" cy="27.8" fill="#fffffd" rx="7.7" ry="10.3" class="colorfffdff svgShape"></ellipse><ellipse cx="90.6" cy="30.3" fill="#592d72" rx="5.8" ry="7.8" class="color485099 svgShape"></ellipse><ellipse cx="90.6" cy="31" fill="#140d18" rx="3" ry="4" class="color0d1218 svgShape"></ellipse><circle cx="92" cy="27.7" r="1.9" fill="#ffffff" class="colorffffff svgShape"></circle><ellipse cx="62.9" cy="27.8" fill="#fffffd" rx="7.7" ry="10.3" class="colorfffdff svgShape"></ellipse><ellipse cx="62.9" cy="30.3" fill="#592d72" rx="5.8" ry="7.8" class="color485099 svgShape"></ellipse><ellipse cx="62.9" cy="31" fill="#140d18" rx="3" ry="4" class="color0d1218 svgShape"></ellipse><circle cx="64.3" cy="27.7" r="1.9" fill="#ffffff" class="colorffffff svgShape"></circle><path fill="#fdff3d" d="M107.6 47.6c0-7.1-5.7-12.8-12.8-12.8-3.1 0-6 1.1-8.2 3-2.2-3.1-5.7-5.1-9.8-5.1-4 0-7.6 2-9.8 5.1-2.2-1.9-5.1-3-8.2-3-7.1 0-12.8 5.7-12.8 12.8 0 5.6 3.6 10.3 8.6 12.1 5 4.2 13.1 6.9 22.2 6.9S94 63.9 99 59.7c5-1.8 8.6-6.5 8.6-12.1z" class="colorf4ccab svgShape"></path><path fill="#1483c5" d="M94.8 34.8c-3.1 0-6 1.1-8.2 3-2.2-3.1-5.7-5.1-9.8-5.1-4 0-7.6 2-9.8 5.1-2.2-1.9-5.1-3-8.2-3-6.4 0-11.7 4.7-12.6 10.8.7 4.7 4 8.6 8.4 10.1 5 4.2 13.1 6.9 22.2 6.9S94 59.9 99 55.7c4.4-1.5 7.7-5.4 8.4-10.1-.9-6.1-6.2-10.8-12.6-10.8z" class="colorf9dfc6 svgShape"></path><path fill="#834da2" d="M85.5 41.3c0 3.5-3.8 8.5-8.5 8.5s-8.5-5.1-8.5-8.5c0-3.5 3.8-6.3 8.5-6.3s8.5 2.8 8.5 6.3z" class="colora2644d svgShape"></path><g fill="#000000" class="color000000 svgShape"><path fill="#4f1172" d="M67.9 53.5s2.9 4.9 8.7 4.9c5.9 0 8.9-4.9 8.9-4.9s-9.2 4.6-17.6 0z" class="color721f11 svgShape"></path><path fill="#fdfdf3" d="M77.1 55.7H75.8c-.4.1-.9.1-1.4.1-.9 0-1.7-.1-2.4-.4 0 1.6.2 4.5 1.1 5 1.3.7 3.6.6 3.6 0 0 .6 2.3.7 3.6 0 1-.5 1.1-3.9 1.1-5.3-.9.4-1.9.7-3 .7-.4.1-.8 0-1.3-.1z" class="colorfdfaf3 svgShape"></path><path fill="#8d759b" d="M72.1 55.5c0 1.6.2 4.5 1.1 5 1.3.7 3.6.6 3.6 0 0 .6 2.3.7 3.6 0 1-.5 1.1-3.9 1.1-5.3l-.7.2s.2 3.9-.7 4.7c-.9.8-3.5.8-3.3-.3.1-1.1 0-3.7 0-3.7s-.2 4.2-.6 4.2c-.4 0-2.4.4-3-.5-.6-1-.3-4.6-.3-4.6l-.8.3z" class="color9b8775 svgShape"></path><path fill="#4f1172" d="M61.5 48.1c4 4.4 9.4 7.1 15.2 7.1 5.9 0 11.2-2.7 15.2-7.1l-.8 1.2c-3.8 4.4-8.9 7.1-14.5 7.1S66 53.7 62.1 49.3l-.6-1.2z" class="color721f11 svgShape"></path></g><path fill="#ff9a3a" d="M90.6 10.7S85.1-1.5 74.2 1l4.4 4.7s-7.7-4.4-12.4 5h7.4s-4.3 6.6-1.5 12.2c0 0 2-18.2 18.5-12.2z" class="colorf09f44 svgShape"></path><path fill="#bf6e21" d="M90.6 10.7S85.1-1.5 74.2 1l4.4 4.7s-7.7-4.4-12.4 5h7.4s-4.3 6.6-1.5 12.2l4.9-4.6-4.9 3.3.1-1.8c0-6.3 5.2-9.7 5.2-9.7L70.6 9C75 4 82.4 7.7 82.4 7.7l-4-4.8c7 .8 12.2 7.8 12.2 7.8z" class="colorbf7021 svgShape"></path><ellipse cx="54.8" cy="44.4" fill="#ffffe6" rx="5" ry="5.1" class="colorfff1e6 svgShape"></ellipse><ellipse cx="98.6" cy="44.4" fill="#ffffe6" rx="5" ry="5.1" class="colorfff1e6 svgShape"></ellipse><g fill="#4f1172" class="color721f11 svgShape"><path d="M60.8 52.3s-1.4-6.1 3.5-5.9c-.1 0-2.9 2.2-3.5 5.9zM92.8 52.3s1.4-6.1-3.5-5.9c0 0 2.9 2.2 3.5 5.9z" fill="#000000" class="color000000 svgShape"></path></g><g fill="#000000" class="color000000 svgShape"><path fill="#ff9a3a" d="M87.1 71.8c3.1 6.6 10.5 5.7 10.5 5.7-1.4.5-2.7 4.3-2.7 4.3-9.2 2.9-5.9 7.4-5.9 7.4-.1 2.5 3.5 3.8 3.5 3.8 5.7 5.2 8.1-2.7 8.1-2.7 2.4-.3.9-4.8.9-4.8s5.6-3.6 5.2-11.3c-.5-7.7-14.7-9.8-14.7-9.8s-8.4.1-4.9 7.4z" class="colorf09f44 svgShape"></path><path fill="#e5872e" d="M106.7 74.2c-.1-2.1-1.3-3.8-3-5.2 1 1.3 1.7 2.9 1.7 4.8-.1 5.3-5.8 10.9-5.8 10.9s1.1 2.4.6 3.2c-.5.8-6.3 3.4-4.7 5.1 1.6 1.7 2.7.5 2.7.5l1.4-2.2s-3.5 2.1-3.2 1.1c.3-.9 1.8-2.4 3-2.2.3 0 .7.1 1.2.2v-.1c2.4-.3.9-4.8.9-4.8s5.6-3.6 5.2-11.3zM92.5 93.1s-1.3-3.8 2.5-5c-.1 0-2.8 2.9-2.5 5zM89 89.2s.3-3.1 3.3-3.2c0 .1-2.3 1.1-3.3 3.2z" class="colore5892e svgShape"></path></g><path fill="#e08834" d="M43.6 113.8s-10.9-10 5.8-21.9c0 0 8.1-8.9 10-16.4 0 0-3.9 13-9 17.6-5 4.5-12.2 11-6.8 20.7z" class="colore08634 svgShape"></path><g fill="#000000" class="color000000 svgShape"><path fill="#ff9a3a" d="M69 71.8c-3.1 6.6-10.5 5.7-10.5 5.7 1.4.5 2.7 4.3 2.7 4.3 9.2 2.9 5.9 7.4 5.9 7.4.1 2.5-3.5 3.8-3.5 3.8-5.7 5.2-8.1-2.7-8.1-2.7-2.4-.3-.9-4.8-.9-4.8s-5.6-3.6-5.2-11.3c.5-7.7 14.7-9.8 14.7-9.8s8.4.1 4.9 7.4z" class="colorf09f44 svgShape"></path><path fill="#e5872e" d="M49.4 74.2c.1-2.1 1.3-3.8 3-5.2-1 1.3-1.7 2.9-1.7 4.8.1 5.3 5.8 10.9 5.8 10.9s-1.1 2.4-.6 3.2c.5.8 6.3 3.4 4.7 5.1-1.6 1.7-2.7.5-2.7.5l-1.4-2.2s3.5 2.1 3.2 1.1c-.3-.9-1.8-2.4-3-2.2-.3 0-.7.1-1.2.2v-.1c-2.4-.3-.9-4.8-.9-4.8s-5.6-3.6-5.2-11.3zM63.6 93.1s1.3-3.8-2.5-5c0 0 2.8 2.9 2.5 5zM67.1 89.2s-.3-3.1-3.3-3.2c0 .1 2.3 1.1 3.3 3.2z" class="colore5892e svgShape"></path></g><path fill="#e5872e" d="M49.1 39.3s-3.2-15.7 10.1-26c0 0-9.8 10.1-7.9 24l-2.2 2z" class="colore5892e svgShape"></path><path fill="#e5872e" d="M50.3 25.8S41.2 10 43.9 1.9c0 0-1.5 7.7 7.4 22l-1 1.9z" class="colore5892e svgShape"></path></svg>