<svg xmlns="http://www.w3.org/2000/svg" viewBox="0 0 128 128" id="Tiger"><path fill="#14c5af" d="M18.8 44.6c-3.3.9-7.1 1.7-9.9-.3-1.6-1.1-2.5-3-2.7-4.9-.2-1.9.3-3.9 1.2-5.6.7-1.3 1.6-2.5 2.5-3.7 2.4-3.1 4.8-6.3 6.3-10s2.2-7.8 1-11.5c-.5-1.5-1.2-2.9-2.5-3.8s-3.1-1.1-4.3-.2c-1.2 1-1.6 2.5-1.5 3.9.1 1.4.6 2.8.9 4.1C11 17.9 9.3 23.4 6.6 28 5 30.7 3 33.2 1.7 36c-1.3 2.8-1.8 6.3-.3 9 1.3 2.3 3.8 3.8 6.3 4.4 2.6.6 5.3.5 7.9.4l3.2-5.2z" class="colorce9538 svgShape"></path><path fill="#1483c5" d="M11.6 49.9c-.3-.3-.4-.6-.4-1 0-.8.7-1.5 1.5-1.5s1.5.7 1.5 1.5c0 .4-.2.8-.4 1h-2.2z" class="color2b0300 svgShape"></path><path fill="#14c5af" d="M114.3 16.5s3-2.5 4-3.6 4.5-1.9 4.7 2.6-4.6 7.5-4.6 7.5l-4.1-6.5z" class="colorce9538 svgShape"></path><path fill="#3c025d" d="M116.8 17.7s2.4-4 3.7-2.9c1.4 1.1.8 3.3-1.9 5.1l-1.8-2.2z" class="color5d1902 svgShape"></path><path fill="#14c5af" d="M76.5 63.6c.9.8 1.2 7.8-.6 13.6-1.8 5.7 0 10.1 1.9 17.4 1.9 7.3.9 18.1.9 18.1l4.6 2.5 6.3-3.1-.6-1.8s-2.1-10.4 0-19.1 11.3-20.8 8.2-38.5M31.4 76.9s6.8 11.7 4.5 17.1c-2.3 5.5-4 3.1-3.5 7.8.4 4.7 5.1 13.1 5.1 13.1l7 .8.9-3.4s-4.5-4.9-1.2-13S54.6 90 55.4 77.5L38.7 66.8l-7.3 10.1z" class="colorce9538 svgShape"></path><path fill="#aa6626" d="M47.7 84.2v-2.4c-.6 1.5-1.2 3.1-1.6 4.7-.5 2.3-.7 4.9-2.4 6.5.3-1.8.3-3.7-.1-5.6-.4.9-.9 1.7-1.6 2.4-.2-1.6-.9-3.1-1.6-4.5-.6-1.4-1.3-2.7-2.4-3.8-.7-.6-1.6-1.1-2.4-1.7-1.1-.8-2-1.8-2.6-3-.6-1-.9-2.2-.9-3.3 0-1.2.5-2.2.9-3.3.9-2.2 2-4.6 4-5.7 1.5-.8 3.4-.9 5-.4 1.7.5 3.2 1.4 4.5 2.5 2.2 1.8 5.2 4.5 4 7.5-1 3.2-2.8 6.5-2.8 10.1zM83.7 89.5c0-.6 0-1.3-.1-1.9-1.1 3-1.8 6.1-2 9.2-.2-1.8-.3-3.6-.5-5.5-.4.8-.9 1.5-1.3 2.3-1.2-3.8-1.6-7.9-1.3-11.9 0-.4.1-.9.3-1.3.3-.5.8-.8 1.3-1.1 3-1.9 6-3.8 9.4-4.9 2.4-.7 1.7.8.7 2-1 1.3-1.9 2.7-2.7 4.1-.8 1.4-1.5 2.9-2.1 4.4-.5 1.3-1.8 3.3-1.7 4.6z" class="coloraa7426 svgShape"></path><path fill="#f29f50" d="M3.2 103.9c.1-3.6.3-7.2 1-10.7.7-3.5 2.3-7 4.3-9.9 1.4-2 1.6-4.7 1.6-7.2-.2-5.7-.8-11.4-.2-17.1.6-5.7 2.7-11.5 7.2-15.2 1.8-1.5 3.9-2.5 6-3.5 3.9-1.7 8.1-2 12.3-1.9 5.1.1 10 2 14.9 3.5s10.1 2.7 15.1 1.3c3.2-.9 6-2.9 8.5-5 4.6-3.8 8.6-8.3 11.9-13.2 1.4-2.1 2.7-4.2 4.3-6 1.6-1.8 3.7-3.4 6.1-3.9-.4-.5-1-.9-1.6-1 2-.4 4.1-.6 6.2-.5-.5-.7-1.3-1.2-2.1-1.5 2.2-.2 4.5.3 6.3 1.5-.6-1.2-1.7-2.1-3.1-2.4 2-.1 4 .8 5.2 2.4l-.2-2.8c.9.8 1.5 2 1.7 3.2 1.4-.9 2.8-1.8 4.3-2.7-.6 1-1.2 2.1-1.8 3.1 1.5-.8 3.4-1 5-.5-.7.3-1.2.9-1.6 1.5 2.3.7 4.2 2.4 5.6 4.4 1.4 2 2.4 4.2 3.1 6.6.8 2.6.2 2.9.4 3.6.1.5.4.9.6 1.3.6 1.1.7 2.5.2 3.7 1.5 1 2 1.7 2.4 3 .4 1.2.7 2.5.7 3.8h-10.8l1.4 5.4c1.2 4.1 2.7 5.3 2.8 5.6.5 2.1-.7 4.6-2.7 5.5l-.1 1.1c-.8.1-1.6 0-2.3-.3-.1.6-.1 1.2-.2 1.9-.7-.3-1.3-1-1.6-1.8-.5.8-1.4 1.3-2.3 1.4v-.7c-1.3.5-2.8.7-4.2.5.6-.2 1.1-.7 1.4-1.2-.9.2-1.9 0-2.7-.5l1.1-1.1c-.9.4-1.8-.5-2.1-1.4-.4-.9-.7-2-1.6-2.3-.3-.1-.6-.1-1-.1-2.2.1-5-.4-6.8-1.3l1.2 6.8-1-2.5c1.3 4.8-.7 14.2-.7 14.2l-.7-2.4c0 4-3 8.6-3 8.6l.4-4c-.7 6.6-11.3 11-11.3 11l2.2-2.3c-22 10.3-46.2-10.4-46.2-10.4-7.1 9.4-19.8 19.8-21.7 24-2.2 4.8-1.1 19-1.1 19s-10 2.2-10 2c-.3-1.2-.3-2.2-.4-3.5 0-3-.4-6-.3-9.1z" class="colorf2bc50 svgShape"></path><path fill="#f7f7d4" d="M49 71.8c6.5 4.5 23 6.4 29.9 3.3 6.9-3.1 5.4-12.7 5.4-12.7 1.1.8 1.8 2.5 1.8 2.5 1.3-4.2-2.6-8.9-2.6-8.9 1.1.1 3 3.2 3 3.2.4-1.9-1.5-1.8-2.8-7.9-1.3-6.2 5-9.6 5-9.6-.3 5.7 9.1 9.6 9.1 9.6l1.1 1.9c-1-.2-2-.5-2.8-.9l1.2 6.8-1.3-2.3c1.3 4.8-.7 14.2-.7 14.2l-.7-2.4c0 4-3 8.6-3 8.6l.4-4c-.7 6.6-11.3 11-11.3 11l2.2-2.3c-22 10.3-46.2-10.4-46.2-10.4l2-2.8c.1.1 3.8-1.3 10.3 3.1z" class="colorf7f0d4 svgShape"></path><path fill="#340250" d="m112.9 43.9 3.2 12.2 4.1-1.4.7-1.8s-2.7-3.9-2.9-7.1c-.1-3.3-5.1-1.9-5.1-1.9z" class="color500502 svgShape"></path><path fill="#ff2020" d="M115 46.2s1.3 4.2 2.4 6c1.1 1.8.3 2.9.3 2.9s-6.4 2.3-8.4-2.7-.4-9.4-.4-9.4l6.1 3.2z" class="colore24951 svgShape"></path><path fill="#fbac61" d="m110 53.5.7-.4-1.4-3.5s2-2.5 3.5-.8 1.7 4.2 1.7 4.2-.1-2.9-.6-4c-.3-.7.9-1.1 2.2-.1.4 1.1.9 2.4 1.4 3.1 1.1 1.8.2 2.9.2 2.9s-5.3 2-7.7-1.4z" class="colorfb6163 svgShape"></path><path fill="#f6f6ce" d="M14.4 7.7c-.3 0-.8-.1-.9.1-.1.2-.1.4-.1.6-.1.4-.7.6-1.2.5-.4-.1-.9-.4-1.3-.4-.8 0-1.3.6-1.8 1.2-.1-.3-.2-.8-.2-1.2-.1-1.4.3-3 1.4-3.8 1.2-.9 3.1-.7 4.3.2.7.5 1.2 1.1 1.6 1.8 0 .1-.1.3-.2.4-.4.4-1 .6-1.6.6z" class="colorf6f0ce svgShape"></path><path fill="#edeeaa" d="M10.4 4.7c.2-.2.5-.3.8-.4-.4.6-.6 1.3-.6 2.1s.2 1.6.7 2.2H11c-.8 0-1.3.6-1.8 1.2-.2-.4-.3-.9-.3-1.3-.1-1.4.3-2.9 1.5-3.8z" class="coloreedcaa svgShape"></path><path fill="#f29f50" d="M94.5 19.9s-3.4-1-5.2-4.6c-1.9-3.6-4.6-6.8-7.2-5.5-2.7 1.3-4.2 7.5-2.3 12.9 1.9 5.4 9.6 6.4 12.8 5.1 3.1-1.3 1.9-7.9 1.9-7.9z" class="colorf2bc50 svgShape"></path><path fill="#3c025d" d="M91.8 25.5s-2.5-.3-3.6-5.9c-1.1-5.5-4.6-5.6-5.7-4.8-1.1.8-2.9 4.3.3 8.6 3.3 4.2 9 2.1 9 2.1z" class="color5d1902 svgShape"></path><path fill="#f7f7d4" d="m107.8 40.9 2.6-2.2s.9 1.5-.3 5.3-.2 9.7 4.5 10.4c4.6.7 6.3-1.7 6.3-1.7.5 2.1-.7 4.6-2.7 5.5l-.1 1.1c-.8.1-1.6 0-2.3-.3-.1.6-.1 1.2-.2 1.9-.7-.3-1.3-1-1.6-1.8-.5.8-1.4 1.3-2.3 1.4v-.7c-1.3.5-2.8.7-4.2.5.6-.2 1.1-.7 1.4-1.2-.9.2-1.9 0-2.7-.5l1.1-1.1c-.9.4-1.8-.5-2.1-1.4-.4-.9-.7-2-1.6-2.3-.3-.1-.6-.1-1-.1-2.2.1-5-.4-6.8-1.3-7.3-4.7-7.4-10.6-7.4-10.6 7.9 16.2 19.4-.9 19.4-.9z" class="colorf7f0d4 svgShape"></path><path fill="#f7f7d4" d="M127.5 41.7s.7 6.6-6.7 3.9c0 0-8.1 5-12.6-2.2 0 0-1.9-3.6 1.9-7.3 0 0 3.6-2.2 7.9 1.2l3.6.6s2.9-3 4.8-1.2c-.1 0 1.3 2.8 1.1 5z" class="colorf7f0d4 svgShape"></path><path fill="#c6b6a7" d="M108.2 43.4s-.1-.2-.2-.6c6.2 7.1 13.8-1.2 13.8-1.2.8 2.4-1 3.9-1 3.9s-8.1 5.1-12.6-2.1z" class="colorc6bea7 svgShape"></path><path fill="#c6b7a9" d="M103.4 51.9s3.3-1.7 4.6.9c1.3 2.6 3.7 5.1 5.5 4.4 1.7-.7.3 1.2.3 1.2s1.9-.6 2.6-1.6c.7-1.1.5 1.6.5 1.6s4.4-1.9 4-5.7c.5 2.1-.7 4.6-2.7 5.5l-.1 1.1c-.8.1-1.6 0-2.3-.3-.1.6-.1 1.2-.2 1.9-.7-.3-1.3-1-1.6-1.8-.5.8-1.4 1.3-2.3 1.4v-.7c-1.3.5-2.8.7-4.2.5.6-.2 1.1-.7 1.4-1.2-.9.2-1.9 0-2.7-.5l1.1-1.1c-.9.4-1.8-.5-2.1-1.4-.4-.9-.7-2-1.6-2.3-.3-.1-.6-.1-1-.1-2.2.1-5-.4-6.8-1.3-7.3-4.7-7.4-10.6-7.4-10.6s3.1 11.9 15 10.1z" class="colorc6bea9 svgShape"></path><circle cx="89.9" cy="31.5" r="2" fill="#1483c5" class="color2b0300 svgShape"></circle><circle cx="93" cy="36" r="1.7" fill="#1483c5" class="color2b0300 svgShape"></circle><circle cx="89.5" cy="37.7" r="1.1" fill="#1483c5" class="color2b0300 svgShape"></circle><circle cx="94.6" cy="40.9" r="1.6" fill="#1483c5" class="color2b0300 svgShape"></circle><circle cx="99.9" cy="43.2" r="1.3" fill="#1483c5" class="color2b0300 svgShape"></circle><circle cx="101.3" cy="39.8" r="1.1" fill="#1483c5" class="color2b0300 svgShape"></circle><circle cx="97.7" cy="37.4" r=".8" fill="#1483c5" class="color2b0300 svgShape"></circle><circle cx="96" cy="46.4" r="1.3" fill="#1483c5" class="color2b0300 svgShape"></circle><circle cx="94.5" cy="29.1" r="1.6" fill="#1483c5" class="color2b0300 svgShape"></circle><circle cx="95.5" cy="24.5" r="1.4" fill="#1483c5" class="color2b0300 svgShape"></circle><circle cx="98.5" cy="19.3" r="1" fill="#1483c5" class="color2b0300 svgShape"></circle><circle cx="105.1" cy="17.1" r="1.5" fill="#1483c5" class="color2b0300 svgShape"></circle><circle cx="109.1" cy="20.3" r="1.9" fill="#1483c5" class="color2b0300 svgShape"></circle><circle cx="112.7" cy="22.4" r=".9" fill="#1483c5" class="color2b0300 svgShape"></circle><circle cx="113.9" cy="26.6" r="1.1" fill="#1483c5" class="color2b0300 svgShape"></circle><circle cx="116" cy="19.3" r="1" fill="#1483c5" class="color2b0300 svgShape"></circle><circle cx="112.4" cy="17" r="1.5" fill="#1483c5" class="color2b0300 svgShape"></circle><circle cx="100.3" cy="15.8" r="1.3" fill="#1483c5" class="color2b0300 svgShape"></circle><circle cx="94.9" cy="18" r="1.4" fill="#1483c5" class="color2b0300 svgShape"></circle><circle cx="85.2" cy="29.6" r="1.6" fill="#1483c5" class="color2b0300 svgShape"></circle><circle cx="84.3" cy="36.2" r="2.5" fill="#1483c5" class="color2b0300 svgShape"></circle><circle cx="87.5" cy="41.3" r="1.4" fill="#1483c5" class="color2b0300 svgShape"></circle><path fill="#1483c5" d="M79.5 52.9c.5.1.9.4 1.1.9.2.4.2.9.1 1.4 0 .2-.1.3-.2.4-.3.3-.7.1-1 0-.2-.1-.4-.1-.5-.3-.2-.2-.2-.4-.3-.7s-.2-.5-.5-.5H78v-.2c0-.6.5-1.1 1-1.1M78.1 56.5c-.2-.1-.5-.1-.7-.1-.5 0-1.2.1-1.4.5-.1.2-.1.5 0 .7.1.3.1.7.4.9.2.2.5.2.8.2.8.1 3 .8 3.1-.3.1-.8-1.6-1.7-2.2-1.9zM80.8 62.4c.1-.2 0-.5-.2-.7-.2-.1-.5-.2-.7-.1-.8.1-1.4.9-1.4 1.6 0 .2.1.4.2.6.2.3.5.4.8.5.4.2.9.3 1.2.1.3-.2.4-.6.5-1 0-.3 0-.6-.2-.8M77.8 50.7c0-.3-.2-.5-.4-.6-.2-.1-.5-.1-.8-.1H76c-.1 0-.2 0-.3.1-.1.1-.1.2-.1.3 0 .4 0 .8.1 1.1.2.4.8.7 1.2.5 0 0 .1 0 .1-.1 0 0 0-.1.1-.1.1-.2.3-.2.4-.3.1-.1.2-.3.1-.4M81.4 47.8c0-.3-.2-.5-.4-.8-.2-.3-.4-.6-.8-.6-.3-.1-.7 0-1 .3-.3.2-.5.5-.6.8-.1.1-.2.3-.1.4 0 .1.1.2.2.3.4.3 1 .5 1.5.5.5-.1 1.1-.4 1.3-.9M76.5 44.3c0-.4-.3-.7-.7-.8-.3-.2-.7-.2-1.1-.2-.1 0-.3 0-.4.1-.2.2-.3.6-.3 1 0 .3 0 .7.2.9.2.1.4.2.6.2.4 0 .8.1 1.2.1.2 0 .4 0 .5-.1.2-.1.2-.3.1-.5M79.9 40.4c0-.1 0-.3-.1-.4-.1-.4-.3-.8-.7-1-.3-.2-.9-.3-1.1.1-.4.4-.1 1.1-.2 1.7.4.2.9.3 1.3.3.2 0 .6-.1.6-.3M83.6 43.6c0-.5-.2-1-.6-1.3-.4-.1-.9-.1-1.3-.1h-.2c-.1 0-.1.1-.1.2-.2.4-.4.9 0 1.2.2.2.5.2.7.2h1.3M68.6 43.5c-.4-.1-.7-.1-1 .2-.3.3-.4.8-.6 1.1-.1.2-.4.4-.3.7 0 .1.1.2.2.3.2.2.3.4.5.6.3.4.7.7 1.2.8 2.5.7 2.5-3.3 0-3.7zM70.4 51.1c-.8.4-1.1 1.4-1 2.2 0 .2.1.4.2.6.2.3.5.5.8.7.6.3 1.3.7 1.9.3.8-.4 1.9-2.4 1.6-3.3-.5-1.1-2.6-1-3.5-.5zM64.9 53.5c-.3.4-.6.9-.5 1.4.1.3.4.5.7.6 4.8 1.4 1.9-4.5-.2-2zM61.6 46.8c-1.6.8-2.7 2.6-2.7 4.4 0 .4.1.8.3 1.1.3.4.9.5 1.3.5.6.1 1.1.1 1.7.1.6 0 1.2-.2 1.7-.3.7-.2 1.4-.4 2.1-.8 1.4-.8 2-2.9.8-4.2-1.1-1.3-3.7-1.5-5.2-.8z" class="color2b0300 svgShape"></path><path fill="#61138d" d="M62 47.6c-1.2.5-1.9 1.8-1.9 3.1 0 .3.1.5.2.7.2.3.6.3 1 .4.4.1.8.1 1.2.1.4 0 .8-.1 1.2-.2.5-.1 1-.3 1.5-.5 1-.6 1.4-2.1.6-3-.8-.9-2.7-1.1-3.8-.6z" class="color8d3b13 svgShape"></path><path fill="#1483c5" d="M54.5 46.1c-.4.2-.7.6-1.1.7-.1 0-.3 0-.4.1-.1.1-.2.3-.2.4-.1.4-.2 1 .2 1.3.1.1.3.1.5.1 1 .1 3.7-.2 3.9-1.4.2-1.1-2.2-1.5-2.9-1.2z" class="color2b0300 svgShape"></path><path fill="#61138d" d="M54.7 46.6c-.3.1-.4.4-.7.5-.1 0-.2 0-.2.1-.1.1-.1.2-.2.3-.1.3-.1.7.1.8.1.1.2.1.3.1.6 0 2.4-.1 2.6-.9.1-.9-1.4-1.1-1.9-.9z" class="color8d3b13 svgShape"></path><path fill="#1483c5" d="M53.3 52.2c-.4.4-.6 1-.7 1.6v.2c0 .1.1.1.1.1 1.2.8 4 1.2 4-.9.1-1.6-2.3-1.9-3.4-1z" class="color2b0300 svgShape"></path><path fill="#61138d" d="M54 52.7c-.2.2-.3.5-.4.8v.1s0 .1.1.1c.6.4 2.1.7 2.1-.5 0-.8-1.3-1-1.8-.5z" class="color8d3b13 svgShape"></path><path fill="#1483c5" d="M59.1 56.6c.1 2.3 3.9 4.5 4.2 1.3.1-.9-.2-1.9-1-2.5-1.2-.8-3.3-.5-3.2 1.2z" class="color2b0300 svgShape"></path><path fill="#61138d" d="M59.8 56.8c.1 1.5 2.5 2.9 2.8.8.1-.6-.2-1.3-.7-1.6-.7-.5-2.1-.3-2.1.8z" class="color8d3b13 svgShape"></path><path fill="#1483c5" d="M70.4 57c.5.6.6 1.4.6 2.2 0 .7-.2 1.4-.6 2-.5.8-1.5 1.2-2.3 1.7-.4.2-.9.4-1.3.4-.2 0-.4-.1-.6-.2-.8-.4-1.2-1.4-.9-2.2.1-.5.5-.9.8-1.3.3-.3.5-.6.8-.9.2-.2.4-.3.6-.4.6-.3 1.1-.5 1.7-.7l1.2-.6z" class="color2b0300 svgShape"></path><path fill="#61138d" d="M69.7 58c.4.4.5 1 .4 1.6 0 .5-.1 1-.4 1.4-.4.6-1 .9-1.6 1.2-.3.1-.6.3-.9.3-.1 0-.3-.1-.4-.1-.5-.3-.8-1-.7-1.5.1-.3.3-.6.6-.9l.6-.6c.1-.1.3-.2.5-.3.4-.2.8-.4 1.2-.5l.7-.6z" class="color8d3b13 svgShape"></path><path fill="#1483c5" d="M73.1 60.6c-.3.2-.5.4-.7.6-.3.3-.6.7-.5 1 .1.4.5.5.9.6.3.1.6.1.9.2.9.1 3-.6 2.7-1.8-.3-1.2-2.4-1.1-3.3-.6zM63.5 65.2c.3.4.3 1-.1 1.4-.3.4-.9.5-1.4.4-.5-.1-.9-.4-1.2-.9-1.2-2 1.7-2 2.7-.9zM57.3 71.7c-.3.2-.5.6-.4 1 0 .2.1.4.1.5.2.5.8.9 1.3 1.1 2.2.8 1.4-4.4-1-2.6zM90 84.2c.3-.2.3-.7.3-1.1 0-.1 0-.2-.1-.2l-.1-.1c-.4-.2-.9-.3-1.3-.3-.5 0-1 .1-1.2.5-.3.5-.1 1.2.3 1.5.5.3 1.1.3 1.6.1M89.8 80.1c0 .1 0 .3.1.4 1.2 1.3 3.3-.2 2.9-1.8-.6-1.7-3.1.3-3 1.4zM87.3 91.3c0 .2 0 .5.1.6.1.2.4.3.7.3.2 0 .5-.2.6-.3.5-.5 1.4-2.1.3-2.5-1.1-.5-1.6 1.1-1.7 1.9zM83.7 92.3c0 .2.2.4.4.5 1.4.9 2.6-1.2 1.8-2.4-.3-.3-.6-.7-1.1-.5-.4.1-1.1 2-1.1 2.4zM86 85.6c-.4 0-.8.1-1.1.3-.3.2-.5.7-.4 1 .1.3.4.5.7.6.4.2.9.3 1.3.4.7.1 1.5-.4 1.4-1.2 0-.9-1.2-1.1-1.9-1.1zM82 97.5c-.4-.2-.8-.4-1.1-.7-.4-.2-.8-.5-1.2-.4-.4.1-.7.4-.8.9-.1.4 0 .9.2 1.2.5 1.1 1.9 2.2 3.1 1.6 1-.5.8-2-.2-2.6zM79.9 102.7c-.3.5-.4 1-.2 1.5 0 .1 0 .1.1.2 0 0 .1.1.2.1 1.1.3 2.5-1.1 2.2-2.2-.4-1.6-1.8-.4-2.3.4zM84 101.5c0 .1.1.2.2.3.1.1.2.1.4.1 1.3.1 2.6-1.3 1.4-2.5-1.4-1.3-2.4.9-2 2.1zM86.8 96.2c.1-.2 0-.5-.2-.7-.1-.2-.4-.3-.6-.4-.4-.3-1-.5-1.4-.2-.4.3-.4.8-.3 1.2 0 .4.1.8.5 1 .2.2.5.2.8.2.3 0 .5 0 .8-.1.3-.1.5-.3.5-.6M85 106.1v-.8c-.5-.2-1.1.1-1.3.6-.2.5-.2 1-.2 1.5v.2c.1.1.2.2.4.2.4.1.8-.1 1-.4.3-.3.4-.7.5-1M85.8 109.7c0 1.2-1.1 1.7-2.3 1.5-.1 0-.2 0-.2-.1-.1-.1-.1-.2-.1-.4 0-.4 0-.9.3-1.2.2-.2.5-.2.8-.2.1 0 .2 0 .3.1.1.1.1.2 0 .3M81.4 108.8c.1-.2 0-.4-.2-.5-.2-.1-.4-.1-.6-.1-.2 0-.4.1-.6.2-.4.3-.3.9 0 1.2s.9.3 1.3.2c.2-.1.5-.2.6-.4.2-.2.2-.5.1-.7M87.7 107.8c0-.1-.1-.2-.3-.2-.4-.1-.8-.1-1.1.1-.3.2-.5.7-.3 1 .2.3.7.3 1 .1.4-.1.7-.5.6-.9M52.5 85.2c-.3.5-.9.7-1.5.9-1.6.4-1.8-.5-2.5-1.7-.5-.8-.5-1.3.3-1.9.8-.6 1.9-.8 2.8-.6.8.1.9.4 1 1.1.1.6.2 1.6-.1 2.2zM48.2 90.7c-.4.3-.9.7-1.4.5-.3-.1-.5-.4-.6-.6-.1-.3-.1-.6-.1-.9 0-.8-.1-1.5.7-1.9.5-.3 1.2-.4 1.7-.3.6.2.7.7.8 1.3.1 1-.4 1.3-1.1 1.9zM42.7 93.6c.2 1.4 3 2.9 3.2.8.1-2.3-3.5-2.4-3.2-.8zM41.9 97c-.2.3-.2.6-.2.9v1.3c0 .1 0 .3.1.4.1.1.2.2.4.2.4.1.9.2 1.3-.1.4-.2.5-.7.7-1.1.2-.7.5-1.7-.2-2.1-.6-.3-1.7-.1-2.1.5zM39.5 92.5c1.2 1.7 3.5-.2 2.3-1.8-.4-.5-1.4-.9-2-.7-.7.4-.7 1.9-.3 2.5zM38.7 87.1c-.6-.4-1.3-.6-2-.5 0 .5-.4.9-.2 1.3.1.3.4.5.7.6s.6.1.9 0c.3 0 .7-.1.9-.3.2-.2.2-.7-.1-.8M37.4 82.6c0-.2-.3-.3-.5-.4-.5-.1-.9-.4-1.3-.7-.6.2-.8.9-.8 1.5 0 .1 0 .2.1.3.1.2.3.3.4.4.4.3.9.6 1.4.3.5-.2.5-.9.5-1.4M35.2 79.6c-.2-.3-.5-.5-.8-.7-.1-.1-.2-.1-.3-.1-.2 0-.3.1-.4.2-.4.4-.3 1.1.1 1.4.4.3 1.1.3 1.4-.2M36.9 91.2c.1 0 .2 0 .3-.1.3-.1.7-.1.9.1.1.1.1.3.2.5.1.7-.2 1.4-.7 1.8-.2.2-.6.4-.9.2-.3-.1-.4-.5-.4-.9 0-.3 0-.7.2-.9M37.9 95.1c-.3.3-.4.7-.5 1.2-.1.6-.1 1.3-.1 1.9v.2c.1.1.2.1.3.1.4.1.9.2 1.3.1s.9-.3 1-.7c.2-.5.2-1.9 0-2.4-.3-.7-1.4-.9-2-.4zM40.8 100.7c0-.3-.2-.7-.5-.8-.3-.2-.6-.2-1-.2-.2 0-.5.1-.6.3-.3.2-.3.6-.3 1 0 .3 0 .7.3 1 .2.1.4.2.6.2.4 0 .8 0 1.1-.2.3-.2.5-.7.2-1M34.8 98.5c-.8.3-1.1 1.2-.9 2 0 .1.1.3.2.3h1.4c2.2.2 1.2-2.9-.7-2.3zM39.6 103.3c-.1.1-.2.2-.2.3v.2c0 .4-.1.9.2 1.3.7 1 2.5.8 2.6-.5.1-.7.1-1.3-.6-1.6-.6-.3-1.5-.1-2 .3zM39.3 107.5c-.2.2-.3.4-.3.7 0 .3.2.5.5.6.2.1.3.1.5.2.7.1 2.9.6 2.1-.9-.5-.8-2.1-1.2-2.8-.6zM44.6 111.6c-.3-.4-.6-.7-1.1-.9-.4-.2-1-.2-1.3.2-.2.3-.2.6-.1.9.1.3.4.5.7.7.7.4 1.8.2 2.2-.5M40.7 111.8c0-.3 0-.7-.3-.9-.1-.1-.3-.1-.5-.1-.4 0-.8.3-1 .7-.8 1.3 1.8 3.2 1.8.3zM37 110.8c.2.1.4 0 .5-.2.3-.5.5-1 .7-1.5.1-.2.1-.3.1-.5-.1-.4-.6-.4-1-.4-.1 0-.3 0-.4.1-.1 0-.2.1-.2.2-.3.3-.5.7-.6 1.2-.1.2-.1.5 0 .7s.3.4.6.4M34.7 107.4c.6 0 1.1-.1 1.5-.5s.6-1.1.2-1.5c-.4-.5-1.2-.4-1.6 0-.4.4-.6 1-.6 1.6M36.2 102.9c-.1.4-.2.7-.3 1.1v.2c0 .1.1.1.2.1.4.1.8.2 1.2.2.1 0 .3 0 .4-.1.1-.1.1-.2.1-.4s0-.4.1-.7c0-.4.1-.8-.2-1.2-.2-.3-.6-.5-.9-.4s-.6.4-.7.7M33.5 101.8c-.6 0-1 .7-.8 1.2.2.5.8.8 1.3.7.1 0 .3-.1.4-.1.3-.2.4-.6.3-.9-.1-.3-.3-.6-.6-.9M13 109.9c-.6-.5-1.3-.8-2.1-.9-.2 0-.4 0-.5.1-.3.2-.2.8.1 1.1.3.4.8.8 1.3.9.2.1.4.1.7 0 .4-.1.6-.6.4-1M10.3 112.1c.1-.7-.6-1.4-1.3-1.4-.1 0-.2 0-.3.1-.1.1-.1.2-.1.3-.1.5-.1 1 0 1.4.2.4.7.8 1.1.6 0-.2.1-.4.2-.4M6.3 113.4c.2-.5.6-.8.6-1.3 0-.2-.1-.4-.2-.6-.2-.3-.4-.5-.7-.6-.2 0-.5.1-.7.3-.3.3-.4.8-.3 1.3.2.4.6.7 1.1.7M6.9 108.6v-.3c-.4-.2-.8 0-1 .3-.3.3-.4.7-.4 1.1v.2h1.3c.2-.1 0-.5.1-.7M8.3 106.7c0-.7-.6-1.5-1.3-1.5h-.4c-.5.2-.5.8-.5 1.3 0 .4 0 .8.3 1 .2.2.5.2.8.2.3 0 .6-.1.9-.1.1 0 .2-.1.3-.2.1-.1 0-.3-.1-.3M10.1 105.5c0 .1-.1.2-.1.3 0 .8 1.5.4 1.8.1.5-.3.7-1 .7-1.5s-.3-1-.8-1c-.8 0-1.3 1.4-1.6 2.1zM13.8 101.1c.1-.2 0-.5-.1-.6-.2-.2-.4-.2-.6-.3-.5-.1-1 .2-1.3.6s-.3 1 .1 1.4c.2.2.4.3.6.4.4.2.9.3 1.1-.1.1-.1.1-.2.1-.3.1-.4.2-.7.3-1.1M8.2 102.2c-.1.2-.1.3-.1.5 0 .3.4.5.7.6 1.1.2 2.1-1.2 1.6-2.2-.7-1.5-1.9.4-2.2 1.1zM6.2 102.5c.1-.3.1-.7-.1-.9-.2-.2-.5-.2-.7-.2-.4 0-.8.1-1 .4-.1.2-.2.5-.2.7 0 .5.1 1.1.6 1.3.5.2 1-.1 1.2-.6M5.7 97.6c0 .2 0 .4.2.6.1.2.3.2.5.3.3.1.7.2 1 .1 1.2-.3 1.7-2.4.7-3.1-1.4-1-2.4.9-2.4 2.1zM12.5 96.4c-.5-.2-1-.1-1.4.1-.4.2-.7.7-.8 1.2v.3c.1.1.1.1.2.1.4.2.9.3 1.3.3.5 0 .9-.2 1.2-.6.2-.3.2-.7 0-.9M16.2 93.4c-.1-.1.1-.3.2-.4.2-.2.3-.5.3-.7 0-.3-.1-.5-.3-.8-.5-.1-1-.1-1.5-.1-.1 0-.2 0-.3.1l-.1.1c-.3.4-.5.8-.8 1.2-.1.2-.2.4-.1.6.1.1.3.2.4.3.3.1.6.2 1 .2.3 0 .7-.1.9-.4M10.1 91.9v1.3c.6 1.5 2.8-.5 2.5-1.7-.3-1.6-2.5-1.3-2.5.4zM6.3 91c-.3.5-.5 1-.4 1.5.3.9 2.1 1.7 2.6.5s-1.2-2.1-2.2-2zM6.4 87.4c-.1.3-.1.6-.2.9v.1l.1.1c.3.1.6.2.9.1.3-.1.5-.2.7-.4.1-.1.3-.2.3-.4v-1.1c0-.1-.1-.1-.2-.2-.6-.3-1.4.1-1.6.9zM11.1 86v.3c.1.1.2.3.2.4.1.2.1.3.2.5l.2.2c.3.2.8.2 1-.1.3-.3.4-.7.7-1 .2-.3.6-.5.8-.8.3-.4.2-1.1-.2-1.4-.3-.2-1-.2-1.4-.2-.8.2-1.4 1.3-1.5 2.1zM19.2 85.6c-.4-.3-1-.2-1.4.1-.4.3-.6.8-.8 1.3-.1.3-.2.7-.1 1 0 .2.1.3.2.4.1.2.2.4.4.5.2.1.4.2.6.2.4-.1.5-.5.6-.8.1-.4.1-.8.3-1 .2-.2.5-.3.7-.5.2-.2.4-.5.3-.7M24.1 82.3c-.2-.1-.5 0-.7 0h-.2c-.1 0-.2.1-.2.2-.3.3-.5.7-.7 1.1-.1.3-.1.6 0 .9.2.3.6.5.9.4.2 0 .4-.2.6-.3.7-.4 1.7-2 .3-2.3zM18.5 81.1h-.2c-.1 0-.1.1-.2.1-.3.2-.5.6-.5.9 0 .3 0 .6.3.8.3.2 1 .1 1.3.1.3-.1.5-.2.6-.5.1-.3 0-.6-.2-.9-.3-.4-.6-.5-1.1-.5zM11.3 82.8c-.1.3-.3.6-.5.8l-.3.3c-.5.3-1.1.3-1.2-.3 0-.4 0-.9.2-1.2.4-.8 2-.8 1.8.4zM13.2 77.7c-.2-.2-.5-.3-.8-.3-.3 0-.6.3-.7.6-.1.3-.2.6-.2.9 0 .2 0 .3.1.5 0 .1.1.3.2.4.3.4.7.8 1.2 1 .7.4 1.9.1 1.8-.8-.1-1-1-1.9-1.6-2.3zM16.5 75.2c-.1-.1-.1-.1-.2-.1s-.3.1-.3.2c-.1.1-.1.3-.1.4-.1.7 0 1.4.1 2.1 0 .2.1.3.1.5.2.3.5.5.8.6.5.2 1 .5 1.5.4 1.1-.1 2.1-1.7 1.6-2.7-.7-1.5-2.6-.7-3.5-1.4zM24.8 76.7c-.1 0-.2-.1-.3-.1-.1 0-.2.1-.3.1-.2.1-.3.2-.5.4-.1.1-.1.2-.2.3-.2.5-.3 1.1-.3 1.7 0 .2 0 .4.1.5.2.3.6.4 1 .4.4-.1.7-.3 1-.5.6-.4.8-.8.7-1.5-.1-.3 0-.6-.2-.8-.3-.2-.7-.4-1-.5zM11.6 71.5c.2.2.4.4.4.6.1.2.1.4 0 .6 0 .6 0 1.2-.1 1.7 0 .1 0 .3-.1.4-.1.1-.2.3-.3.4-.4.3-1 .6-1.5.6h-.1c0-1.6-.1-3.2-.2-4.8.8-.1 1.5.1 1.9.5zM14.5 68.6c-.4-.2-1-.1-1.4.2-.4.3-.6.8-.6 1.3-.1.4-.1.8 0 1.1.2.6.7 1 1.3 1.2.6.2 1.3.2 1.9.2.1 0 .2 0 .3-.1.2-.1.2-.3.3-.4.3-.8.6-1.7.2-2.5-.2-.5-.6-.8-1.1-1-.5-.2-1-.3-1.5-.4M22.1 70.2c-.4-.2-.9-.5-1.2-.8-.1-.1-.3-.2-.5-.3-.6-.3-1.4.2-1.7.8-.3.6-.3 1.4-.2 2 0 .2 0 .5.1.7.2.3.5.4.7.6.6.3 1.3.5 1.9.7.5.2 1 .3 1.5.3s1.1-.3 1.3-.7c.1-.2.2-.5.3-.8.1-.2.1-.5.1-.7 0-.4-.3-.8-.6-1-.3-.2-.8-.3-1.2-.3" class="color2b0300 svgShape"></path><path fill="#61138d" d="M21.9 70.8c-.3-.1-.5-.3-.8-.5-.1-.1-.2-.1-.3-.2-.4-.2-.9.1-1.1.5-.2.4-.2.9-.1 1.3 0 .1 0 .3.1.4.1.2.3.3.5.4.4.2.8.3 1.2.5.3.1.6.2 1 .2.3 0 .7-.2.8-.5.1-.1.1-.3.2-.5 0-.2.1-.3.1-.5 0-.3-.2-.5-.4-.6-.2-.1-.5-.2-.7-.2" class="color8d3b13 svgShape"></path><path fill="#1483c5" d="M30.5 74.5c-.2-.2-.3-.4-.5-.5-.3-.2-.7-.3-1-.3-.3 0-.5-.1-.8 0-.4.1-.8.4-1.2.6-.1.1-.2.1-.2.2v1.2c0 .1.1.3.2.4.3.4.7.7 1.2.9.3.1.7.2 1 .2l.6-.3c.3-.2.7-.4 1-.6.1 0 .1-.1.2-.2v-.2c-.1-.8 0-1-.5-1.4zM33.7 67.6c-1-.1-2.1-.1-3.1 0-.3 0-.5 0-.8.2-.2.1-.4.3-.5.5-.7.9-1.5 1.9-1.5 3 0 .2 0 .4.1.5.2.3.5.5.8.6 1.3.5 2.9.1 4.2-.4.9-.4 1.8-.9 2.3-1.7.1-.3.2-.6.1-.8-.1-.4-.6-.6-1-.7-.1 0-.2-.3-.3-.5 0-.1 0-.2-.1-.2 0-.3-.2-.4-.2-.5z" class="color2b0300 svgShape"></path><path fill="#61138d" d="M32.9 68.5H31c-.2 0-.3 0-.5.1l-.3.3c-.4.5-.9 1.1-.9 1.8 0 .1 0 .2.1.3.1.2.3.3.5.3.8.3 1.7.1 2.6-.3.6-.2 1.1-.5 1.4-1.1.1-.2.1-.3.1-.5-.1-.2-.4-.3-.6-.4-.1 0-.1-.2-.2-.3 0 0 0-.1-.1-.1-.1.1-.2 0-.2-.1z" class="color8d3b13 svgShape"></path><path fill="#1483c5" d="M22.7 66.5c.3.6.6 1.3 1.1 1.7.6.4 1.4.3 2.1 0 .6-.3 1.1-.9 1.5-1.5.1-.1.1-.2.2-.3v-.3c-.1-.3-.2-.7-.5-1-.4-.5-1.2-.6-1.8-.4-.6.2-1.1.7-1.6 1.2 0-.1-.2 0-.3.1-.1.1-.5.5-.7.5z" class="color2b0300 svgShape"></path><path fill="#61138d" d="M23.6 66.5c.2.4.3.8.7 1 .4.2.9.2 1.3 0s.7-.6 1-.9c0-.1.1-.1.1-.2v-.2c-.1-.2-.1-.4-.3-.6-.3-.3-.8-.4-1.1-.2-.4.1-.7.4-1 .7 0-.1-.1 0-.2.1-.1 0-.4.2-.5.3z" class="color8d3b13 svgShape"></path><path fill="#1483c5" d="m30.4 61.5-.3 1.2c0 .3-.1.5-.1.7 0 .2.1.4.2.6.1.2.2.5.3.7 0 .1.1.2.2.3.1.1.3.2.4.2.5.1 1 .2 1.5 0 .5-.1.9-.4 1.2-.8l.3-.6c.1-.2.2-.4.3-.5.6-1.2-.3-2.4-1.4-2.9-1-.5-2.4.1-2.6 1.1z" class="color2b0300 svgShape"></path><path fill="#61138d" d="M31.1 61.9c-.1.3-.1.5-.2.8 0 .1-.1.3-.1.4 0 .1.1.2.1.4.1.1.1.3.2.4 0 .1.1.2.1.2.1.1.2.1.3.1.3.1.6.1.9 0 .3-.1.6-.3.8-.5.1-.1.1-.3.2-.4.1-.1.2-.2.2-.4.4-.8-.2-1.5-.9-1.9-.6-.1-1.5.3-1.6.9z" class="color8d3b13 svgShape"></path><path fill="#1483c5" d="M16.9 58.6c-.1.1-.2.3-.2.5-.2.6-.7 1-.8 1.5-.1.3 0 .6 0 .8.1.5.3 1.1.5 1.5.2.5.5 1 .5 1.5.3.1.6.1.9.1h.2l.1-.1c.2-.4.6-.8 1-1 .1 0 .2-.1.2-.2.1-.1.1-.1.1-.2.2-.7.2-1.5.1-2.3-.1-.6 0-1.7-.6-2.1-.3-.2-1.7-.4-2 0z" class="color2b0300 svgShape"></path><path fill="#61138d" d="M17.2 59.7c-.1.1-.1.2-.1.3-.1.3-.4.6-.5.9v.5c.1.3.2.6.3 1 .1.3.3.6.3.9.2 0 .4.1.6.1h.1s0-.1.1-.1c.1-.3.4-.5.6-.6.1 0 .1-.1.1-.1l.1-.1c.2-.5.1-.9.1-1.4 0-.4 0-1-.4-1.3-.2-.2-1.1-.4-1.3-.1z" class="color8d3b13 svgShape"></path><path fill="#1483c5" d="M23.1 57.4c-.1 0-.2 0-.3.1-.1 0-.1.1-.2.2-.2.3-.4.5-.6.8-.1.2-.3.4-.4.6-.2.5-.1 1.1 0 1.6.1.4.2.7.3 1 .2.5.7.9 1.2 1 .5.1 1.1 0 1.5-.3.1-.1.2-.2.3-.4.1-.3-.1-.5-.2-.8l-.3-.9v-.2c0-.1.1-.1.1-.2.2-.2.4-.3.6-.5.3-.2.6-.2.8-.4.4-.3.6-.8.5-1.3-.2-.6-.7-.7-1.2-.7-.6.1-1.3.2-2.1.4z" class="color2b0300 svgShape"></path><path fill="#61138d" d="M23.2 58.5h-.1l-.1.1c-.1.2-.2.3-.3.5-.1.1-.2.2-.2.3-.1.3 0 .6 0 .9 0 .2.1.4.2.6.1.3.4.5.7.6.3.1.6 0 .8-.2.1-.1.1-.1.1-.2 0-.2-.1-.3-.1-.4-.1-.1-.1-.3-.2-.5v-.1s0-.1.1-.1l.3-.3c.1-.1.3-.1.5-.2.2-.2.4-.5.3-.7-.1-.3-.4-.4-.7-.4-.4-.1-.9 0-1.3.1z" class="color8d3b13 svgShape"></path><path fill="#1483c5" d="M11.8 64.4c-.1.2-.1.4-.1.7 0 .4 0 .8.1 1.1.1.4.4.7.8.8.4.1.8.1 1.1-.1.3-.2.6-.4.9-.7.1-.1.2-.2.3-.4.1-.2.1-.3.1-.5 0-.7 0-2.5-1-2.5-.4 0-.8.4-1.1.6-.5.3-.9.6-1.1 1zM11.6 46.1c-.1.1-.2.3-.3.4-.3.3-.5.5-.9.7-.3.2-.7.2-1.1.1-.4-.1-.6-.5-.8-.8-.1-.4-.2-.8-.1-1.1 0-.2 0-.5.1-.7.1-.1.1-.2.2-.3.9.6 1.8.9 2.8 1.1v.2c.1.1.1.3.1.4zM21.8 45.7c-.1.2-.1.4-.1.7 0 .4 0 .8.1 1.1.1.4.4.7.8.8.4.1.8.1 1.1-.1.3-.2.6-.4.9-.7.1-.1.2-.2.3-.4.1-.2.1-.3.1-.5 0-.7 0-2.5-1-2.5-.4 0-.8.4-1.1.6-.6.4-1 .6-1.1 1zM13.3 59.1c0 .3 0 .6-.1.8-.1.2-.2.4-.4.6-.4.5-.9.9-1.4 1.1-.5.2-1.1.4-1.6.2 0-1 .1-1.9.2-2.9.1-1.1.3-2.2.6-3.4.4-.2.7-.5 1.1-.5 1.6.1 1.6 3.1 1.6 4.1z" class="color2b0300 svgShape"></path><path fill="#61138d" d="M11.2 56.6c.9 0 1 1.6.9 2.2 0 .2 0 .3-.1.5 0 .1-.1.2-.2.3-.2.3-.5.5-.8.6-.3.2-.7.2-1 .1-.1 0-.2-.1-.2-.1 0-.4.1-.9.1-1.3l.3-1.8c.2-.1.6-.5 1-.5z" class="color8d3b13 svgShape"></path><path fill="#1483c5" d="M14.6 52.3c-.2.3-.2.6-.3.9-.1.4-.1.9-.2 1.3v.3c0 .1.2.2.3.3.4.4.9.8 1.3 1.2.2.1.3.3.5.4.2.1.3.1.5.1 1.1.2 2.3.3 3.2-.3.3-.2.5-.4.5-.7 0-.2 0-.5-.1-.7-.3-.9-.7-1.8-1.3-2.6-.2-.3-.4-.5-.7-.6-.2-.1-.5 0-.7 0-.2 0-.5 0-.6-.2-.1-.1-.1-.3-.2-.5-.3-.6-2 .7-2.2 1.1z" class="color2b0300 svgShape"></path><path fill="#61138d" d="M15.7 53c-.1.2-.1.3-.2.5 0 .2-.1.5-.1.7v.2c0 .1.1.1.2.2.3.2.5.5.8.7.1.1.2.2.3.2.1 0 .2.1.3.1.6.1 1.3.2 1.9-.2.1-.1.3-.2.3-.4v-.4c-.2-.5-.4-1-.7-1.5-.1-.1-.2-.3-.4-.3h-.4c-.1 0-.3 0-.4-.1-.1-.1-.1-.2-.1-.3-.4-.3-1.3.4-1.5.6z" class="color8d3b13 svgShape"></path><path fill="#1483c5" d="M25 49.8c-.5.2-1.1.5-1.6.8-.3.2-.6.4-.8.6-.2.3-.3.6-.2.9.1.2.2.5.4.6.7.8 1.8 1.4 2.9 1.5 1.2.1 2.5-.3 3-1.3.4-.7.4-1.6.2-2.4 0-.2-.1-.4-.2-.6-.1-.1-.3-.2-.5-.3-.5-.2-1-.6-1.5-.5-.6.2-1.2.7-1.7.7z" class="color2b0300 svgShape"></path><path fill="#61138d" d="M25.3 50.5c-.3.1-.7.3-1 .5-.2.1-.4.2-.5.4-.1.2-.2.4-.2.6 0 .2.1.3.2.4.5.5 1.1.9 1.8 1 .7.1 1.6-.2 1.9-.8.3-.5.2-1 .1-1.5 0-.1-.1-.3-.2-.4-.1-.1-.2-.1-.3-.2-.3-.1-.7-.4-1-.3-.1 0-.5.3-.8.3z" class="color8d3b13 svgShape"></path><path fill="#1483c5" d="M14.2 46.9c.8-1.2 1.8-2.2 2.9-3.1.6-.5 1.3-1 1.9-1.4.2.2.2.5.3.8.1.6.2 1.1.3 1.7.1.3.1.7.1 1-.1.9-.7 1.8-1.5 2.3-.1.1-.3.2-.5.2-.1 0-.3.1-.4.1-.8.1-1.8.1-2.4-.4-.4-.3-.6-.7-.7-1.2z" class="color2b0300 svgShape"></path><path fill="#61138d" d="M17.1 43.8c.1-.1.3-.2.4-.3.2 0 .4 0 .6.1.1.1.2.3.2.5.1.3.1.6.2 1 0 .2.1.4 0 .6 0 .5-.4 1-.9 1.3-.1.1-.2.1-.3.1h-.2c-.5 0-1 .1-1.4-.2-.3-.3-.5-.7-.4-1.2 0-.1.1-.2.1-.3.5-.6 1.1-1.1 1.7-1.6z" class="color8d3b13 svgShape"></path><path fill="#1483c5" d="M27.3 44.4c-.2.4-.1.9-.1 1.4.1.6.2 1.1.4 1.6.3.5.6.9 1.2 1.2.4.2.9.2 1.3.2.5 0 1.1 0 1.5-.2.7-.2 1.3-.8 1.7-1.4.4-.6.6-1.4.7-2.1 0-.2.1-.4 0-.6-.1-.2-.2-.3-.3-.4-.6-.7-1.4-1.3-2.3-1.6-.7-.3-2-.7-2.7-.2-.3.2-.5.6-.7.8-.2.4-.5.8-.7 1.3z" class="color2b0300 svgShape"></path><path fill="#61138d" d="M28.5 44.7c-.1.3-.1.6-.1.9 0 .4.1.7.3 1s.4.6.7.7c.3.1.6.1.9.1.3 0 .7 0 1-.1.5-.2.8-.5 1.1-.9.2-.4.4-.9.5-1.4v-.4c0-.1-.1-.2-.2-.3-.4-.4-.9-.8-1.4-1-.5-.2-1.3-.5-1.8-.1-.2.1-.3.4-.4.5-.3.4-.5.7-.6 1z" class="color8d3b13 svgShape"></path><path fill="#1483c5" d="M26.3 43c-.2.1-.4.2-.5.2-.5-.1-.8-.8-1.2-.9-.4-.1-.8.4-1.2.6-.4.2-.9.1-1.3-.3-.4-.3-.6-.8-.8-1.4.6-.3 1.2-.6 1.9-.9 1.7-.8 3.5-1.2 5.4-1.5 0 .6-.1 1.3-.2 1.8-.5 1.1-1.2 1.9-2.1 2.4z" class="color2b0300 svgShape"></path><path fill="#61138d" d="M25.7 41.8c-.1.1-.2.1-.3.1-.3 0-.4-.5-.7-.5-.3-.1-.5.2-.7.3-.2.1-.5 0-.7-.2-.2-.2-.4-.5-.5-.8 0-.1 0-.2-.1-.3.1-.1.3-.1.4-.2 1.2-.5 2.5-.9 3.8-1.2.1.4 0 .9-.1 1.3-.2.7-.6 1.2-1.1 1.5z" class="color8d3b13 svgShape"></path><path fill="#1483c5" d="M35.8 38.7c-.5-.1-1-.1-1.5.2-.4.3-.8.8-.7 1.3.1.6.5 1 .8 1.5.1.2.2.5.4.6.2.2.4.2.7.3.6.1 1.1.2 1.7.2.5 0 1.1 0 1.4-.4.3-.3.4-.6.5-1 .1-.2.1-.5.1-.7-.1-.6-.6-.9-1.1-1.1-1-.5-2-.8-3.1-.9" class="color2b0300 svgShape"></path><path fill="#61138d" d="M36 39.3c-.3-.1-.7-.1-1 .1-.3.2-.5.5-.5.9s.4.7.5 1c.1.2.1.3.3.4.1.1.3.2.5.2.4.1.8.1 1.2.2.3 0 .7 0 1-.3.2-.2.3-.4.3-.7 0-.2.1-.3.1-.5-.1-.4-.4-.6-.8-.8-.7-.3-1.4-.5-2.1-.6" class="color8d3b13 svgShape"></path><path fill="#1483c5" d="M46.8 42.2c-.6.6-1.4.7-2.3.7-.6 0-1.2-.1-1.8-.2-.7-.2-1.5-.5-1.9-1.1-.5-.7-.4-1.6-.3-2.4 0-.1.1-.2.1-.3 2.3.5 4.5 1.2 6.8 2-.1.5-.3 1-.6 1.3z" class="color2b0300 svgShape"></path><path fill="#61138d" d="M45.9 41.7c-.4.4-1 .5-1.6.5-.4 0-.9-.1-1.3-.2-.5-.1-1-.3-1.3-.8-.3-.5-.3-1.1-.2-1.6 0-.2.1-.3.2-.4 1.5.4 3.1.9 4.6 1.3 0 .5-.1.9-.4 1.2z" class="color8d3b13 svgShape"></path><path fill="#1483c5" d="M56 43.4c-.1.6-.4 1.1-.8 1.4-.5.3-1.1.5-1.6.5-.6 0-1.2-.1-1.7-.2-.7-.2-1.5-.3-2.2-.5-.3-.1-.5-.1-.7-.3-.3-.3-.2-.8 0-1.2.3-.4.7-.7 1.1-1 .1-.1.2-.1.2-.2 1.9.6 3.8 1.1 5.7 1.5z" class="color2b0300 svgShape"></path><path fill="#61138d" d="m50.8 42.5.3-.3c1.2.4 2.5.7 3.8 1 0 .4-.2.9-.6 1.2-.3.2-.7.3-1.1.3-.4 0-.8-.1-1.2-.2l-1.5-.3c-.2 0-.4-.1-.5-.2-.2-.2-.2-.6 0-.8.2-.3.5-.5.8-.7z" class="color8d3b13 svgShape"></path><path fill="#1483c5" d="M42.7 43.6c-.7.3-1.2 1.2-.9 2 .2.6.9 1 1.5 1.3.9.3 1.8.5 2.7.5h.2c.1 0 .1-.1.2-.2.2-.3.4-.7.4-1 .1-.4.1-.8-.1-1.1-.3-.6-1.2-1.1-1.8-1.3-.7-.3-1.6-.5-2.2-.2z" class="color2b0300 svgShape"></path><path fill="#61138d" d="M43.2 44.2c-.5.2-.8.8-.6 1.3.2.4.6.7 1 .8.6.2 1.2.3 1.8.4h.1c.1 0 .1-.1.1-.1.1-.2.2-.4.3-.7.1-.2.1-.5-.1-.7-.2-.4-.8-.7-1.2-.9-.3-.2-1-.3-1.4-.1z" class="color8d3b13 svgShape"></path><path fill="#1483c5" d="M41.7 47.6c-.1-.3-.3-.6-.5-.8-.5-.5-1.2-.6-1.8-.6-.3 0-.6-.1-.9 0-.3.1-.5.2-.7.3-.5.3-1 .6-1.4.9-.2.1-.3.2-.4.4-.1.1-.1.3-.1.4 0 .5-.1 1.1.1 1.6.1.4.3.8.6 1.1.3.5.6.9.9 1.4.2.2.4.5.6.6.4.3.9.3 1.4.3h1.7c.2-.1.4-.2.6-.4.7-.6 1.1-1.6 1.1-2.6-.1-.9-.8-1.8-1.2-2.6z" class="color2b0300 svgShape"></path><path fill="#61138d" d="M40.7 48.4c-.1-.2-.2-.4-.3-.5-.3-.3-.7-.3-1.1-.4h-.6c-.2 0-.3.1-.4.2-.3.2-.6.3-.8.5-.1.1-.2.1-.2.3v.3c0 .3 0 .7.1 1 .1.2.2.5.3.7.2.3.4.5.6.8.1.1.2.3.4.4.2.2.5.2.8.2h1c.1 0 .3-.1.4-.2.4-.4.7-1 .6-1.5-.1-.7-.5-1.3-.8-1.8z" class="color8d3b13 svgShape"></path><path fill="#1483c5" d="M49.7 48.2c-.4 0-.9.1-1.3.3-.3.1-.7.2-.9.4-.6.4-.9 1-.9 1.7s.3 1.3.9 1.7l.6.3c.7.1 1.3-.3 1.9-.6.4-.2.9-.3 1.3-.4.8-.3 1.7-1.3 1.1-2.2-.5-.8-2-1.2-2.7-1.2z" class="color2b0300 svgShape"></path><path fill="#61138d" d="M49.6 49.1c-.3 0-.5.1-.7.2-.2.1-.4.1-.6.2-.3.2-.5.6-.5 1s.2.8.5 1c.1.1.2.1.4.2.4.1.7-.2 1.1-.3.2-.1.5-.2.7-.2.5-.2 1-.8.7-1.3-.3-.6-1.1-.8-1.6-.8z" class="color8d3b13 svgShape"></path><path fill="#1483c5" d="M44.8 52.7c-.2 0-.4 0-.6.1-.8.2-1.5.8-2 1.5-.3.5-.5 1.1-.4 1.6.1.6.5 1.1 1 1.3.5.2 1.2-.1 1.4-.6.1-.3.1-.7.4-1 .1-.1.2-.1.3-.2.2-.1.5-.2.7-.3l.6-.3c.4-.3.7-1.1.4-1.5-.3-.5-1.3-.6-1.8-.6z" class="color2b0300 svgShape"></path><path fill="#61138d" d="M44.5 53.4c-.1 0-.3 0-.4.1-.5.1-1 .5-1.2.9-.2.3-.3.7-.2 1 .1.4.3.7.6.8.3.1.8 0 .9-.4.1-.2.1-.5.2-.6.1-.1.1-.1.2-.1.1-.1.3-.1.4-.2.1-.1.3-.1.4-.2.2-.2.5-.7.3-1-.3-.3-.9-.4-1.2-.3z" class="color8d3b13 svgShape"></path><path fill="#1483c5" d="M48.4 55.6c-.2 0-.3 0-.5.1-.1 0-.2.1-.3.2-.3.2-.6.4-.8.7-.3.4-.3 1-.3 1.5 0 .3 0 .6.1.9.1.2.2.5.4.7.3.4.6.8.9 1.3.2.2.3.5.6.6.2.1.5.1.7.1h1.4c.3 0 .5 0 .8-.1.7-.2 1.1-.9 1.5-1.5.2-.2.4-.5.5-.8.2-.3.3-.7.3-1.1.1-.4.1-.7 0-1.1-.1-.3-.4-.5-.7-.7-.6-.3-1.3-.7-2-.8-.8-.2-1.7 0-2.6 0z" class="color2b0300 svgShape"></path><path fill="#61138d" d="M48.9 56.3c-.1 0-.3 0-.4.1-.1 0-.1.1-.2.1-.2.1-.4.3-.6.5-.2.3-.2.7-.2 1.1 0 .2 0 .5.1.7.1.2.2.4.3.5.2.3.4.6.7 1 .1.2.2.3.4.4.2.1.3.1.5.1h1.1c.2 0 .4 0 .6-.1.5-.2.8-.7 1.1-1.2.1-.2.3-.4.4-.6.1-.3.2-.6.2-.8.1-.3.1-.6 0-.8-.1-.2-.3-.4-.5-.5-.4-.2-1-.5-1.5-.6-.7-.1-1.4.1-2 .1z" class="color8d3b13 svgShape"></path><path fill="#1483c5" d="M40.6 58c-.4.2-.6.8-.6 1.3v.8c.1.7.7 1.3 1.4 1.6.7.3 1.4.3 2.1.2h.1c.1 0 .1-.1.1-.2.1-.3.2-.7.2-1-.1-.8-.7-1.6-1.3-2-.5-.5-1.4-1-2-.7z" class="color2b0300 svgShape"></path><path fill="#61138d" d="M41.2 58.9c-.2.1-.3.4-.3.7v.4c.1.4.4.7.7.8.4.1.8.1 1.1.1h.1s0-.1.1-.1c.1-.2.1-.4.1-.6 0-.4-.4-.8-.7-1.1-.3-.1-.8-.4-1.1-.2z" class="color8d3b13 svgShape"></path><path fill="#1483c5" d="M36.8 62.6c-.2.1-.3.3-.4.4-.4.6-.6 1.4-.5 2.2.1.7.6 1.5 1.3 1.8.4.2.9.2 1.4.2.2 0 .5 0 .6-.1.2-.2.2-.4.2-.6 0-.7 0-1.5-.3-2.1-.2-.5-.2-1.3-.6-1.6-.3-.5-1.3-.5-1.7-.2z" class="color2b0300 svgShape"></path><path fill="#61138d" d="m37.2 63.6-.2.2c-.2.4-.3.8-.3 1.2.1.4.3.8.7 1 .2.1.5.1.8.1.1 0 .2 0 .3-.1.1-.1.1-.2.1-.3 0-.4 0-.8-.2-1.2-.1-.3-.1-.7-.3-.9-.1-.2-.7-.2-.9 0z" class="color8d3b13 svgShape"></path><path fill="#1483c5" d="M45 63.9c-.5-.1-.9-.2-1.4-.1-.5.1-.9.3-1.2.7-.3.5-.2 1.1.1 1.6.3.5.8.8 1.4.9.5.2 1.1.2 1.7.3.3 0 .5.1.8 0 .4-.1.6-.6.7-1 .1-.4.3-1.1 0-1.5-.5-.5-1.5-.8-2.1-.9z" class="color2b0300 svgShape"></path><path fill="#61138d" d="M44.9 64.5c-.3-.1-.6-.1-.9-.1-.3 0-.6.2-.7.5-.2.3-.1.7.1 1 .2.3.5.5.9.6.3.1.7.2 1.1.2h.5c.3-.1.4-.4.5-.6.1-.3.2-.7 0-1-.4-.4-1.1-.5-1.5-.6z" class="color8d3b13 svgShape"></path><path fill="#1483c5" d="M50 68.7c-.6-.1-1.2.4-1.4 1.1-.1.6.2 1.3.7 1.7.5.4 1.1.7 1.7.9.2.1.4.1.6 0 .1-.1.1-.1.1-.2.6-1.1-.5-3.4-1.7-3.5zM53.9 65.6c-.4-.1-.9 0-1.3 0-.3 0-.7.1-.9.3-.1.1-.2.3-.3.5-.1.6.1 1.2.5 1.7s.9.8 1.4 1.1c.4.2.8.4 1.2.3.3-.1.5-.4.7-.7.2-.3.3-.5.3-.9 0-.2 0-.3-.1-.5-.2-.9-.4-1.6-1.5-1.8zM55.5 60.2c-.2.1-.3.2-.5.4-.2.3-.3.6-.4.9 0 .7.5 1.3 1 1.8.6.5 1.2 1 2 1 .2 0 .4 0 .6-.1.4-.2.6-.7.7-1.2.1-.6.2-1.2-.1-1.8-.2-.6-.8-.9-1.4-1-.4 0-1.4-.2-1.9 0z" class="color2b0300 svgShape"></path><path fill="#61138d" d="M56.1 61.1c-.1 0-.2.1-.3.2-.1.2-.2.3-.2.5 0 .4.3.7.6 1 .3.3.7.6 1.1.6.1 0 .2 0 .4-.1s.3-.4.4-.7c.1-.3.1-.7 0-1-.1-.3-.5-.5-.8-.6-.4.1-.9-.1-1.2.1z" class="color8d3b13 svgShape"></path><path fill="#1483c5" d="M33.1 53.4c-.3 0-.5-.1-.8 0l-.6.3c-1.1 1-1.6 2.6-1.6 4.1 0 .2 0 .3.1.5s.2.4.4.5c.6.4 1.3.7 2 .7.9 0 1.9-.3 2.8-.6.3-.1.6-.2.9-.4.7-.5 1.2-1.4 1.2-2.3 0-.8-.4-2-1.2-2.4-.9-.3-2.2-.3-3.2-.4z" class="color2b0300 svgShape"></path><path fill="#61138d" d="M33.4 54.6h-.5c-.1 0-.2.1-.3.2-.7.6-1 1.6-1 2.5v.3l.3.3c.4.3.8.4 1.2.4.6 0 1.1-.2 1.7-.4.2-.1.4-.1.5-.2.5-.3.7-.8.7-1.4 0-.5-.2-1.2-.7-1.4-.5-.3-1.3-.2-1.9-.3z" class="color8d3b13 svgShape"></path><circle cx="3.7" cy="43.9" r="2.2" fill="#1483c5" class="color2b0300 svgShape"></circle><circle cx="3.1" cy="37.1" r="1.5" fill="#1483c5" class="color2b0300 svgShape"></circle><path fill="#1483c5" d="M9.1 30.2c.2 0 .5 0 .7.1-.7 1-1.5 1.9-2.1 3-.3-.3-.5-.8-.5-1.2 0-1.1.8-1.9 1.9-1.9zM8 25.4c.5.2.9.7.9 1.3 0 .7-.6 1.3-1.3 1.3-.3 0-.6-.1-.8-.3.4-.7.8-1.5 1.2-2.3zM15.9 20.8c-.4.9-.9 1.8-1.4 2.7h-.4c-1.1 0-1.9-.9-1.9-1.9 0-1.1.9-1.9 1.9-1.9.8-.1 1.5.4 1.8 1.1zM10.1 18.2c.1-1.1.1-2.2.1-3.3.8.2 1.4.8 1.4 1.7-.1.8-.7 1.5-1.5 1.6z" class="color2b0300 svgShape"></path><circle cx="14.8" cy="13.1" r="1.5" fill="#1483c5" class="color2b0300 svgShape"></circle><path fill="#1483c5" d="m17.5 15.7-.3 1.5c-.1.1-.3.1-.4.1-.5 0-1-.4-1-1 0-.5.4-1 1-1 .3 0 .5.1.7.4z" class="color2b0300 svgShape"></path><circle cx="11.1" cy="12" r="1.3" fill="#1483c5" class="color2b0300 svgShape"></circle><path fill="#1483c5" d="M5 30.6c.2.2.3.5.3.7 0 .6-.5 1.2-1.2 1.2-.1 0-.2 0-.3-.1.3-.6.7-1.2 1.2-1.8z" class="color2b0300 svgShape"></path><circle cx="5.2" cy="34.2" r="1.1" fill="#1483c5" class="color2b0300 svgShape"></circle><circle cx="6.7" cy="47.3" r=".9" fill="#1483c5" class="color2b0300 svgShape"></circle><path fill="#1483c5" d="M17.2 10.7c-.7 0-1.3-.6-1.3-1.3 0-.6.5-1.2 1.1-1.3.1.2.1.4.2.5.2.6.3 1.3.4 2-.1.1-.3.1-.4.1z" class="color2b0300 svgShape"></path><circle cx="13.7" cy="17.3" r="1.1" fill="#1483c5" class="color2b0300 svgShape"></circle><circle cx="11.2" cy="25.8" r="1.2" fill="#1483c5" class="color2b0300 svgShape"></circle><circle cx="10.5" cy="22.7" r=".7" fill="#1483c5" class="color2b0300 svgShape"></circle><path fill="#1483c5" d="M6 38.6v.9c.1.7.2 1.4.5 2-.2.1-.3.1-.5.1-.8 0-1.5-.7-1.5-1.5s.7-1.5 1.5-1.5z" class="color2b0300 svgShape"></path><path fill="#c6b6a7" d="m36.8 71.6 2-2.8c.1 0 .2 0 .2-.1.3-.1.5 0 .8.1 3.5 1.4 6.3 4 9.5 5.9 1.2.7 2.5 1.4 3.8 1.9 5.6 2.5 12 4.3 17.9 2.6 2.7-.8 5.2-2.2 7.6-3.6 2.7-1.6 5.5-3.5 6.7-6.3.4 2.6-.4 5.3-2.1 7.3 2.5-1.7 4.5-4.1 5.9-6.9.2 2.2-.3 4.5-1.4 6.4 1-.8 1.8-1.9 2.3-3.1.2 1.6.2 3.2-.2 4.8-3.3 4-9.2 6.4-9.2 6.4l2.2-2.3c-21.9 10.4-46-10.3-46-10.3z" class="colorc6bea7 svgShape"></path><path fill="#f29f50" d="M56 67.1c.9.7 7.1 8.6 6.7 14.5-.4 6 1.1 10 3.8 17.1 2.7 7.1 2.8 17.9 2.8 17.9l4.8 2 5.9-3.7-.8-1.7s-4-12.6-2.8-21.4c1.2-8.8 6.3-20.5 6.3-20.5" class="colorf2bc50 svgShape"></path><path fill="#1483c5" d="M74.1 68.6c-.3.6-.3 1.3-.2 1.9 0 .2 0 .5.1.7.7 2.1 3.8 3 5.1 1.1 1.2-1.7.3-3.7-1.5-4.4-1.2-.5-2.8-.7-3.5.7z" class="color2b0300 svgShape"></path><path fill="#61138d" d="M75 69.2c-.2.4-.2.8-.1 1.3 0 .2 0 .3.1.5.4 1.4 2.5 2 3.4.7.8-1.1.2-2.5-1-2.9-.9-.4-2-.5-2.4.4z" class="color8d3b13 svgShape"></path><path fill="#1483c5" d="M70 70.9c-.2.3-.5.5-.8.7-.6.3-1.2.6-1.8.6-.6 0-1.3-.1-1.8-.6-.4-.3-.7-.9-.6-1.4.1-.7.8-1.1 1.4-1.4.7-.3 2.3-.8 3.2-.6.8.4.8 2 .4 2.7z" class="color2b0300 svgShape"></path><path fill="#61138d" d="M69.1 70.7c-.1.2-.3.4-.5.5-.4.2-.8.4-1.2.4-.4 0-.9-.1-1.2-.4-.3-.2-.5-.6-.4-.9.1-.4.5-.7.9-.9.5-.2 1.5-.5 2.1-.4.6.2.6 1.2.3 1.7z" class="color8d3b13 svgShape"></path><path fill="#1483c5" d="M69.4 78.6c-.6.3-1.3.4-2 .4-.3 0-.6 0-.9-.2-.2-.2-.3-.4-.3-.7-.1-.5-.2-1-.3-1.6 0-.3 0-.6.2-.8.7-1.1 3.2-1.9 4.1-.8 1.1 1.2.5 3.1-.8 3.7zM69.1 66.9c-.6.3-1.3.4-2 .4-.1 0-.2 0-.2-.1-.1-.1-.1-.2-.2-.2 0-.1 0-.1-.1-.2-.2-.5-.2-1.1-.2-1.7 0-.1 0-.2.1-.3 0-.1.1-.1.2-.2 1-.6 1.8-.6 2.5.3.6.7.9 1.6-.1 2zM60.7 67.9c.1.1.2.1.2.2v1.4c0 .2 0 .5-.2.7-.1.1-.3.1-.5.2-.5 0-1.1.1-1.5-.2-.8-.5-2.2-2.3-1.3-3.1 1.1-1.1 2.4.3 3.3.8zM70.2 80.5h-.4c-.2 0-.4.2-.5.3-.5.4-1.1 1-.9 1.7.1.4.4.7.8.8.4.1.8.2 1.2.2.8 0 1.2.1 1.7-.5.3-.3.6-.9.6-1.4-.1-1.2-1.6-1-2.5-1.1zM65.7 85.3v-1.2c0-.1 0-.3-.1-.3-.1-.1-.2-.1-.3-.1-.2 0-.5-.1-.7-.1-.4-.1-.9-.1-1.2.2-.1.1-.1.2-.2.4-.2.6-.2 1.3 0 1.9.2.6.8 1.1 1.4 1.2.3.1.6 0 .7-.3v-.4c0-.3.1-.5.3-.7M68.4 87.2c-.1.2-.2.4-.3.7 0 .4.2.8.5 1 .3.2.7.4 1.1.4.2 0 .5 0 .7-.1 2.5-1.5-.6-3.9-2-2zM75.1 77.3c-.1.2-.2.4-.3.7 0 .4.2.8.5 1 .3.2.7.4 1.1.4.2 0 .5 0 .7-.1 2.5-1.5-.7-3.9-2-2zM73.3 84.7c-.5.5-.6 1.3-.2 1.8.3.4.8.5 1.3.6.3.1.5.1.8.1 1-.2 1.9-1.6 1.1-2.5-.7-.9-2.3-.8-3 0zM72.6 91.6c.1.2.1.5.2.7.1.2.4.5.3.7-.1.1-.3.1-.4.3-.1.1-.1.2-.1.3l-.3.3c-.6.3-1.2.5-1.8.5-.1 0-.2 0-.3-.1-.2 0-.2-.1-.2-.2-.1-.7-.1-1.5 0-2.2.1-.5.4-1.3 1.1-1.3.5-.1 1.3.6 1.5 1zM68 94.8c0 .2 0 .4-.1.5-.1.1-.2.3-.3.4-.3.4-.5.9-.9 1h-.2c-.1 0-.2-.1-.2-.2-.3-.6-.5-1.2-.8-1.8 0-.1-.1-.2-.1-.3 0-.2.1-.3.2-.4.4-.5 1-1.4 1.7-1.2.8.3.7 1.4.7 2zM69.6 96.4c-.4 0-.8.2-.9.6-.2.4-.2.8-.2 1.2 0 .4 0 .8.3 1.1.2.2.6.2.9.2.4 0 .8 0 1.2-.1 1.9-.7-.2-2.9-1.3-3zM73.8 97.9c0 .3.1.7.3.9 1.3 1.1 2-1.4 1.6-2.3-.2-.5-.6-.8-1.2-.6-.8.3-.8 1.3-.7 2zM74.8 91.7v.3c.1.9 1.3.5 1.5-.1.3-.6.3-1.3.1-1.9-.1-.4-.3-1-.8-.8-.7.2-.7 2-.8 2.5zM73.1 100.9c-.1 0-.2 0-.3.1-.3.2-.2.6 0 .9.6 1 1.8 2.1 2.6.7.8-1.5-1.2-1.8-2.3-1.7zM68.9 102.5c-.3.1-.5.3-.6.5-.1.4.1.8.4 1.1.7.5 2.9 1.1 2.8-.2 0-1.1-1.6-1.7-2.6-1.4zM74.5 106.7c0-.2-.2-.4-.3-.5-.5-.3-1.1-.7-1.6-.5-.5.3-.7 1-.7 1.6v.4c.1.1.1.2.2.2.6.4 1.2.6 1.9.6.2-.5.4-1.1.6-1.6M77.4 106.2c-.2-.7-.7-1.2-1.4-1.3-.2 0-.4 0-.6.1-.2.1-.2.3-.3.6-.1.9.6 1.7 1.5 1.8.3 0 .7 0 .8-.3v-.4M77.4 110.9c.2-.2.1-.6-.1-.8-.2-.2-.5-.3-.8-.3-.6 0-1.1.2-1.5.6-.2.2-.3.4-.3.7 0 .3.3.5.5.6.3.1.5.1.8.1.4 0 1 0 1.1-.4M74.6 113.8c-.3-.8-1.1-1.4-1.9-1.4-.1 0-.2 0-.3.1-.1.1-.2.3-.2.4 0 .5 0 1 .3 1.4.3.3.6.3 1 .3.5 0 1.2-.3 1.2-.8M71.2 110.9c.1-.7.2-1.5.3-2.2-.4-.2-.8-.3-1.2-.3h-.2c-.1 0-.2.1-.2.2-.4.7-.6 1.6-.6 2.4 0 .1 0 .2.1.2 0 0 .1.1.2.1.3.1.6.1.9.1.2 0 .5-.2.7-.5M71.6 114.9c-.1-.4.1-.8-.1-1.2-.2-.4-.7-.5-1.2-.5-.2 0-.5 0-.6.1-.1.1-.2.3-.2.5 0 .4.2.8.6 1.1.4.2.8.3 1.2.3" class="color2b0300 svgShape"></path><path fill="#c6b6a7" d="m120.8 45.6.8-1.8c2.6 2.3 4.8.5 5.8-.8-.2 1.7-1.4 4.6-6.6 2.6z" class="colorc6bea7 svgShape"></path><path fill="#100019" d="M116.7 38.5c.1 1.3 2.2 3.6 4.5 3.5 2.3-.2 4-2.9 3.9-4.1-.1-1.3-2-1.3-4.4-1.1-2.2.1-4.1.4-4 1.7z" class="color190b00 svgShape"></path><path fill="#ff9a3a" d="M107 34.3s6.3-7.3-2.7-13.7c0 0-6.8-.4-6.4 8.5.3 8.9 9.1 5.2 9.1 5.2z" class="colore5ad4a svgShape"></path><ellipse cx="103.5" cy="29.6" fill="#b77434" rx="5.6" ry="6.4" transform="rotate(-159.298 103.46 29.556)" class="colorb78834 svgShape"></ellipse><ellipse cx="103.6" cy="29.9" fill="#ffffff" rx="5" ry="5.7" transform="rotate(-159.298 103.582 29.888)" class="colorffffff svgShape"></ellipse><ellipse cx="103.6" cy="29.9" fill="#fdff3d" rx="3.3" ry="3.8" transform="rotate(-159.298 103.583 29.888)" class="colorffcf13 svgShape"></ellipse><ellipse cx="103.6" cy="29.9" rx="1.9" ry="2.1" transform="rotate(-159.298 103.583 29.888)" fill="#000000" class="color000000 svgShape"></ellipse><circle cx="105" cy="28.8" r="1" fill="#fffff4" class="colorfaf4ff svgShape"></circle><path fill="#1483c5" d="M106.1 22s-2.3-5.1-6.6.7c0-.1 3.8-3.2 6.6-.7z" class="color2b0300 svgShape"></path><path fill="#d88a3f" d="m119.6 20.6 1.2.2c1 1.7 1.8 3.5 2.4 5.4.8 2.6.2 2.9.4 3.6.1.5.4.9.6 1.3.6 1.1.7 2.5.2 3.7 0 0-8.2-.9-8-7.4.2-6.4 3.2-6.8 3.2-6.8z" class="colord89d3f svgShape"></path><path fill="#b77434" d="M120.3 33.4c-.6-.6-1.4-.9-2.1-1.5-.9-.7-1.4-1.3-1.7-2.4-.5-2 .4-3.4 1.1-5 .1-.1.2-.1.3-.1 2.1-.8 4.6.5 5.5 3 .9 2.4-.1 5.1-2.2 5.9-.2.1-.5.2-.9.1.1.1.1.1 0 0z" class="colorb78834 svgShape"></path><path fill="#ffffff" d="M118.3 32c-.9-.7-1.4-1.3-1.7-2.4-.4-1.6 0-2.7.6-4 .3-.2.6-.4.9-.5 1.9-.7 4.1.5 5 2.7.8 2.2 0 4.6-2 5.3-.3.1-.6.2-.9.2-.6-.6-1.3-.9-1.9-1.3z" class="colorffffff svgShape"></path><ellipse cx="119.5" cy="29.1" fill="#fdff3d" rx="2.5" ry="2.8" transform="rotate(-20.702 119.534 29.088)" class="colorffcf13 svgShape"></ellipse><ellipse cx="119.5" cy="29.1" rx="1.4" ry="1.6" transform="rotate(-20.702 119.535 29.089)" fill="#000000" class="color000000 svgShape"></ellipse><circle cx="120.4" cy="28.1" r=".8" fill="#fffff4" class="colorfaf4ff svgShape"></circle><path fill="#100019" d="M127 38.6s-.4-2.7-2.6-3.6c-2.5-1-6.1-2.1-7.6-4.7 0 0-1.1-4.1 1.9-6.6 0 0-4 2.4-2.5 6.7 1.6 4.7 9.9 3.6 10.8 8.2z" class="color190b00 svgShape"></path><path fill="#1483c5" d="M117.4 22.7s1.5-5.4 4.4 0c0 0-2.5-2.8-4.4 0z" class="color2b0300 svgShape"></path><path fill="#f7f7d4" d="M4 116.6c1.5 3.3 5.8 9.6 16.2 6.5 0 0 4 1.1 5.2-1.6 0 0 2.7-.4.4-5.2-2.3-4.8-4.8-4.4-6-4.2-1.1.3-5.8 1.1-5.8 1.1s-1.3 1.7-4.5 2.1c-3.2.4-5.5 1.3-5.5 1.3z" class="colorf7f0d4 svgShape"></path><path fill="#c6b6a7" d="m4 116.6 1.5-.5c2.2 1.8 8.8 3.6 11.5 2.5 3.1-1.3 3.7 2.8 3.7 2.8 1.1-.6-.7-4.8-.7-4.8 3.7-1 5 2 5 2l-1.2-2.8c-.2-2-1.7-3.2-3-3.8 1.3-.1 3.3.5 5.1 4.3 2.3 4.8-.4 5.2-.4 5.2-1.2 2.7-5.2 1.6-5.2 1.6-10.5 3.1-14.8-3.2-16.3-6.5z" class="colorc6bea7 svgShape"></path><path fill="#592d72" d="M20.6 118.5c-.7-3.5-5.8-2.1-5.8-2.1s3.6-1.9 5.9.9c2.1 2.7-.4 5.8-.4 5.8-1.8.5-3.4.8-4.8.8 1.8-.2 5.8-1.6 5.1-5.4z" class="color7f7866 svgShape"></path><path fill="#592d72" d="M22.4 114.5c4 3.1 3.1 7 3.1 7-.3.6-.7 1-1.1 1.3.7-1 1-2.5.1-4.8-2.1-5.1-7.3-4-7.3-4 .8-.7 3.8-.6 5.2.5z" class="color7f7866 svgShape"></path><path fill="#f7f7d4" d="M37.6 115c1.2 2.6 4.6 7.6 12.8 5.1 0 0 3.1.8 4.1-1.3 0 0 2.1-.3.3-4.1s-3.8-3.5-4.7-3.3c-.9.2-4.6.9-4.6.9s-1 1.3-3.6 1.6c-2.6.4-4.3 1.1-4.3 1.1z" class="colorf7f0d4 svgShape"></path><path fill="#c6b6a7" d="M37.6 115s.4-.2 1.2-.4c1.7 1.4 6.9 2.9 9 2 2.5-1 2.9 2.2 2.9 2.2.9-.5-.6-3.8-.6-3.8 2.9-.8 4 1.6 4 1.6l-.9-2.2c-.2-1.6-1.3-2.5-2.4-3 1 0 2.6.4 4 3.4 1.8 3.8-.3 4.1-.3 4.1-.9 2.1-4.1 1.3-4.1 1.3-8.3 2.4-11.7-2.6-12.8-5.2z" class="colorc6bea7 svgShape"></path><path fill="#592d72" d="M50.6 116.5c-.6-2.7-4.5-1.7-4.5-1.7s2.9-1.5 4.6.7c1.7 2.1-.3 4.6-.3 4.6-1.4.4-2.6.6-3.8.7 1.5-.2 4.6-1.3 4-4.3z" class="color7f7866 svgShape"></path><path fill="#592d72" d="M52.1 113.3c3.2 2.4 2.4 5.5 2.4 5.5-.2.5-.5.8-.9 1 .5-.8.8-2 0-3.8-1.6-4-5.8-3.2-5.8-3.2.8-.4 3.2-.3 4.3.5z" class="color7f7866 svgShape"></path><path fill="#f7f7d4" d="M78.7 114.2c1.5 3.2 5.7 9.4 16 6.3 0 0 3.9 1 5.1-1.6 0 0 2.6-.4.4-5.1-2.2-4.7-4.8-4.4-5.9-4.1-1.1.3-5.7 1.1-5.7 1.1s-1.2 1.6-4.4 2c-3.2.5-5.5 1.4-5.5 1.4z" class="colorf7f0d4 svgShape"></path><path fill="#af9f90" d="m78.7 114.2 1.5-.5c2.1 1.8 8.6 3.6 11.3 2.5 3.1-1.2 3.6 2.7 3.6 2.7 1.1-.6-.7-4.7-.7-4.7 3.6-1 4.9 2 4.9 2l-1.2-2.8c-.2-2-1.7-3.1-3-3.7 1.3-.1 3.3.5 5 4.2 2.2 4.7-.4 5.1-.4 5.1-1.2 2.6-5.1 1.6-5.1 1.6-10.2 3-14.4-3.2-15.9-6.4z" class="colorafa690 svgShape"></path><path fill="#592d72" d="M95 116.1c-.7-3.4-5.7-2.1-5.7-2.1s3.6-1.9 5.7.8c2.1 2.6-.4 5.7-.4 5.7-1.7.5-3.3.8-4.7.8 1.9-.1 5.8-1.5 5.1-5.2z" class="color7f7866 svgShape"></path><path fill="#592d72" d="M96.8 112.1c4 3 3 6.8 3 6.8-.3.6-.7 1-1.1 1.2.6-.9 1-2.4.1-4.7-2-5-7.2-3.9-7.2-3.9.9-.6 3.8-.4 5.2.6z" class="color7f7866 svgShape"></path><path fill="#f7f7d4" d="M69.3 116.6c1.5 3.3 5.8 9.6 16.2 6.5 0 0 4 1.1 5.2-1.6 0 0 2.7-.4.4-5.2-2.3-4.8-4.8-4.4-6-4.2-1.1.3-5.8 1.1-5.8 1.1s-1.3 1.7-4.5 2.1c-3.2.4-5.5 1.3-5.5 1.3z" class="colorf7f0d4 svgShape"></path><path fill="#c6b6a7" d="m69.3 116.6 1.5-.5c2.2 1.8 8.8 3.6 11.5 2.5 3.1-1.3 3.7 2.8 3.7 2.8 1.1-.6-.7-4.8-.7-4.8 3.7-1 5 2 5 2l-1.2-2.8c-.2-2-1.7-3.2-3-3.8 1.3-.1 3.3.5 5.1 4.3 2.3 4.8-.4 5.2-.4 5.2-1.2 2.7-5.2 1.6-5.2 1.6-10.5 3.1-14.8-3.2-16.3-6.5z" class="colorc6bea7 svgShape"></path><path fill="#592d72" d="M85.8 118.5c-.7-3.5-5.8-2.1-5.8-2.1s3.6-1.9 5.9.9c2.1 2.7-.4 5.8-.4 5.8-1.8.5-3.4.8-4.8.8 1.9-.2 5.9-1.6 5.1-5.4z" class="color7f7866 svgShape"></path><path fill="#592d72" d="M87.7 114.5c4 3.1 3.1 7 3.1 7-.3.6-.7 1-1.1 1.3.7-1 1-2.5.1-4.8-2.1-5.1-7.3-4-7.3-4 .8-.7 3.8-.6 5.2.5z" class="color7f7866 svgShape"></path></svg>