<svg xmlns="http://www.w3.org/2000/svg" viewBox="0 0 128 128" id="Tortoise"><path fill="#ff2020" d="M106.7 68.8s5.1 13 8.5 18.3 4.2 11.4 0 14.3c-4.2 3-19.9 7.3-20-2 0 0 .7-2.8 2.5-5.1 1.7-2.2-6.1-17.4-6.1-17.4l15.1-8.1z" class="colorccea92 svgShape"></path><path fill="#14c5af" d="M115.2 101.4c3.2-2.3 3.5-6.3 2-10.5-4.4 7.9-14.3 10-18.5 8.5-1.2-.4-2.1-1.1-2.8-1.9-.5 1.1-.7 1.9-.7 1.9.1 9.3 15.8 4.9 20 2z" class="color87b340 svgShape"></path><path fill="#ff2020" d="M92.4 72s.3 10.9 1.4 15.8c1.1 4.8.1 9.5-3.8 10.6-3.9 1.1-16.7.1-14.3-6.8 0 0 1.3-1.9 3.2-3.1 1.9-1.2.2-14.5.2-14.5l13.3-2z" class="colorccea92 svgShape"></path><path fill="#14c5af" d="M90.1 98.4c3-.8 4.3-3.7 4.2-7.2-5.4 4.6-13.2 3.6-16 1.4-.8-.6-1.3-1.4-1.6-2.1-.6.7-1 1.2-1 1.2-2.3 6.8 10.5 7.7 14.4 6.7z" class="color87b340 svgShape"></path><path fill="#ff2020" d="M51.6 75.9s-7 6.3-8.3 11.1c-1.2 4.8-1.2 8.6-6.3 8.1s-11.2-2-8.9-6.4c2.2-4.4 3.4-3.4 5.5-8.8s8.6-8.9 8.6-8.9l9.4 4.9z" class="colorccea92 svgShape"></path><path fill="#14c5af" d="M41.4 90.9c-2 2.7-9.9.4-11.4-1.1-.9-.9-.9-2-.8-2.9-.3.5-.7 1.1-1 1.8-2.2 4.4 3.9 5.8 8.9 6.4 4.2.4 4.9-2.1 5.7-5.7-.4.3-.8.8-1.4 1.5z" class="color87b340 svgShape"></path><path fill="#1483c5" d="M39.1 45.5s-2.8-17.1-12.3-20.4-21.1.3-23.4 4.9C-.9 38.6.2 49.1 2.9 49.4l2.7.4s-1 3.7 7.3 3.8 12.6 12.6 15.4 16.5c2.9 4 18.1 21.6 34.9 13.8L39.1 45.5z" class="colorb8dc7c svgShape"></path><circle cx="18.1" cy="34.2" r="6.3" fill="#b17841" class="color81b141 svgShape"></circle><circle cx="18.1" cy="33.3" r="6.1" fill="#b17841" class="color81b141 svgShape"></circle><path fill="#fdff3d" d="M17.1 28.5c-2.6.4-4.6 2.3-5.1 4.8 0 .3 0 .6.1.9.5 3.4 3.6 5.7 6.9 5.2 2.6-.4 4.6-2.3 5.1-4.8 0-.3 0-.6-.1-.9-.5-3.4-3.6-5.7-6.9-5.2z" class="colorb9db7a svgShape"></path><path fill="#fffffe" d="M24.1 34.4c-1.3-1.5-3.5-2.6-6-3-2.3-.3-4.4 0-6.1.8-.1.6-.1 1.3 0 2 .5 3.4 3.6 5.7 6.9 5.2 2.7-.5 4.8-2.5 5.2-5z" class="colorfeffff svgShape"></path><path fill="#370056" d="M15.2 31.3c-.5.7-.7 1.6-.6 2.5.3 1.9 2 3.2 3.9 3 1.9-.3 3.2-2 3-3.9 0-.1 0-.3-.1-.4-1-.5-2.1-.9-3.3-1.1-1-.2-1.9-.2-2.9-.1z" class="color005629 svgShape"></path><circle cx="18.1" cy="33.3" r="1.9" fill="#18151a" class="color151a16 svgShape"></circle><circle cx="16.6" cy="33.1" r=".7" fill="#ffffff" class="colorffffff svgShape"></circle><path fill="#a36b36" d="M23.1 26.6s-2.8-4.2-6.8-3.6c-4.1.6-6 5.2-6 5.2s6-7.4 12.8-1.6z" class="color79a336 svgShape"></path><path fill="#14c5af" d="M20.7 48.1s-.4-4.2-5.7-3.7c0 0 1.6.3 3.3 1.5-1 1.7-4.2 3.5-7.4 3.2-3.5-.4-5.3.8-5.3.8.9-.4 5.2 0 5.2 0 5.9.7 7.3-2.6 7.6-3.9.7.5 1.5 1.2 2.3 2.1z" class="color87b340 svgShape"></path><path fill="#a36b36" d="M6 41.3c.3-.2.7-.1 1-.2.3-.1.6-.2.9-.5.2-.3.3-.7.1-1-.1-.1-.3-.2-.5-.3-.7-.1-1.4 0-1.9.4-.6.5-1.3 1.6-1.1 2.3.3 1 1.1-.6 1.5-.7z" class="color79a336 svgShape"></path><path fill="#14c5af" d="M9.7 51.9c4.1.4 7.7 2.7 11.9 0 0 0-1.2 2.1-4 2.1 0 0 4.8 1.1 6.8 6.1s10 17.5 17.5 20.3c7 2.7 14.4 5.1 20.9 2.9l.4.7c-16.9 7.9-32-9.8-34.9-13.8-2.9-4-7.2-16.4-15.4-16.5-8.3-.1-7.3-3.8-7.3-3.8l1.4-.5c-.1-.1-1.4 2 2.7 2.5z" class="color87b340 svgShape"></path><path fill="#ff2020" d="M75.5 80.1S66.7 88 65.1 94c-1.5 6-1.5 10.8-7.9 10.1-6.4-.6-14-2.5-11.2-8 2.8-5.5 4.2-4.2 6.9-11C55.6 78.4 63.7 74 63.7 74l11.8 6.1z" class="colorccea92 svgShape"></path><path fill="#14c5af" d="M62.7 99c-2.5 3.3-12.4.4-14.3-1.4-1.1-1.1-1.2-2.5-1-3.6-.4.6-.8 1.3-1.3 2.2-2.8 5.5 4.9 7.3 11.2 8 5.3.5 6.2-2.6 7.2-7.2-.6.4-1.2 1.1-1.8 2z" class="color87b340 svgShape"></path><path fill="#a76e37" d="M94 57.1c-3.5-3-16.3-2.2-16.3-2.2-1.2 5.1-12.6 18.3-18 24.3.7.6 1.5 1.1 2.3 1.5 12.3 6.6 34 14.5 50.6 2.7C97.9 72.9 94 57.1 94 57.1z" class="colora78337 svgShape"></path><path fill="#a76e37" d="M84.6 32.7c-6.3-.3-12.3.7-17.8 2.9 3.5 2.9 8.7 8.9 11 19.2 1.3-.1 12.5-.7 16 2 5-5.1 9-13.8 10.8-18.1-5.8-3.4-12.6-5.6-20-6z" class="colora78337 svgShape"></path><path fill="#a76e37" d="M66.8 35.6c-8.7 3.4-15.9 9.7-20.4 17.6 1.7 7.7 5.5 20.1 13.3 26 5.4-6.1 16.8-19.3 18-24.3h.1c-2.3-10.4-7.5-16.3-11-19.3zM104.6 38.9c-1.8 4.3-5.8 12.9-10.8 18.1.1 0 .1.1.2.1 0 0 3.9 15.8 18.6 26.4 1.9-1.4 3.8-3 5.5-4.9 2.1-2.4 4-4.6 5.7-6.7-.3-13.9-7.8-26-19.2-33z" class="colora78337 svgShape"></path><path fill="#ff9a3a" d="M94 57.1c-3.5-3-16.3-2.2-16.3-2.2-.2.8-.6 1.8-1.3 3 5.1.2 12 .8 14.2 2.3 0 0 4.2 14.7 20.5 24.1.5-.3 1-.6 1.4-1C97.9 72.9 94 57.1 94 57.1z" class="colorc6984d svgShape"></path><path fill="#ff9a3a" d="M66.8 35.6c-.5.2-1.1.4-1.6.7 2.3 3.8 7.1 12.5 6.8 18.5-.3 6.7-10.6 19.4-13.8 23.2l1.5 1.2c5.4-6.1 16.8-19.3 18-24.3h.1c-2.3-10.4-7.5-16.3-11-19.3zM106 45.7s8.4 0 17.7 25.2c-.5-13.4-7.9-25.2-19.1-32-1.8 4.3-5.8 12.9-10.8 18.1.1 0 .1.1.2.1 0 0 10.6-6.5 12-11.4z" class="colorc6984d svgShape"></path><path fill="#ff9a3a" d="M66.8 35.6c1.1.9 2.3 2.1 3.6 3.6 18.3-8.5 33.8.6 34.2-.4-5.8-3.6-12.6-5.8-20-6.1-6.3-.3-12.3.8-17.8 2.9z" class="colorc6984d svgShape"></path><path fill="#592d72" d="M76.7 60s-8.6 14-12.8 16.3c0 0 6.4 11.5 34.2 9.6 0 0-24.9-4.6-26.6-10.1-1.8-5.5 5.2-15.8 5.2-15.8zM65 39.1s-7.4 4.3-8 11.1c-.5 6.8 5.4 20.6 5.4 20.6l-1.2 2s-4.3-5-6-13.9c-1.7-8.9-3.4-10.5-3.4-10.5S62.4 37.9 65 39.1zM73.1 41s6 8.6 5.8 12.1c0 0 14 .5 15 1.5l6.3-10.6s-5.3 7.7-11.1 6.9-16-9.9-16-9.9zM96.9 59.1s6.8 16.1 13.6 20.3c0 0 10.2-8.4 10.2-12.2 0 0-4.3 7.4-9.1 6.1-4.8-1.2-14.7-14.2-14.7-14.2z" class="color876631 svgShape"></path><path fill="#592d72" d="M124.3 62c.4.9 2.2 6.1-2 11.5-4.9 6.3-15.9 17.9-35.9 16-24-2.2-31.3-18.2-33.8-24.8-1.7-4.5-2.8-16.1-7.3-18.1-.1 0-.1 0-.2-.1-1.4.6-2.3 2.3-2.8 4l2 3.2c.6.8 1.5 3.4 4.8 13.8 6.1 19.1 24.5 25.2 36.6 25.8 12.1.6 28.7-.8 40.4-20.9 1.3-2.2 3.1-7.9-1.8-10.4z" class="color876631 svgShape"></path><path fill="#ba7e45" d="M122.1 61.1s2.5 5.4-1.8 11c-4.6 6-15 17-33.8 15.3C63.9 85.3 57 70.1 54.6 63.9 53 59.6 52 48.6 47.7 46.7c-3-1.4-4.6 1.3-5.4 3.8l2 3.2c.6.8 1.5 3.4 4.8 13.8 6.1 19.1 24.5 25.2 36.6 25.8 12.1.6 28.7-.8 40.4-20.9 1.5-2.5 3.5-9.4-4-11.3z" class="colorba9045 svgShape"></path><path fill="#f1f29c" d="M11.3 30.5s2.8-6.2 8.7-4.6c5.8 1.6 4.9 7.7 4.9 7.7s-.8-5.3-5.1-6.5c-4.3-1.2-8.5 3.4-8.5 3.4zM17.7 45.9s-2.3 2.7-4.9 2.7c-2.5 0-5.4.2-6.2.4-.7.2-5.1 1.6-5.7-2.8 0 0 .8 2.7 4.1 2 3.3-.7 6-.1 7.9-.3 1.6-.1 3.3-.6 4.8-2z" class="colord5f29c svgShape"></path></svg>