<svg xmlns="http://www.w3.org/2000/svg" viewBox="0 0 128 128" id="Unicorn"><path fill="#ff9a3a" d="M114.939,69.4C106.2,55.9,86.793,48.31,87.014,24.17l-5.889,5.137c-6.491,29.346,21.577,34.96,25.029,49.9,1.726,7.471-1.672,21.708-3.716,27.9-1.179,3.573,5.538,6.686,8.187,4.015A33.375,33.375,0,0,0,114.939,69.4Z" class="colorffa233 svgShape"></path><path fill="#14c5af" d="M119.167,76.178c-10.232-12.4-22.25-9.428-34.334-41.287l-1.825,4.035c-5.282,29.587,24.3,38.13,28.361,52.918,2.031,7.394-.78,21.758-2.568,28.03-1.031,3.617,3.549,6.8,6.086,4.019C126.824,110.824,131.667,91.333,119.167,76.178Z" class="color18eacc svgShape"></path><path fill="#1483c5" d="M113.375,80.459C104.091,67.33,78.195,66.827,77.425,42.7L75.6,46.733c-5.281,29.587,25.8,28.462,29.868,43.25,2.031,7.393-.78,21.758-2.568,28.029-1.031,3.618,3.549,6.8,6.086,4.02C120.922,108.962,121.308,91.676,113.375,80.459Z" class="color319dba svgShape"></path><path fill="#ff2020" d="M51.888,33.6c-1.77,5.922-7.113,6.376-14.967,6.628-7.023.226-11.952,3.842-15.549,10.794A17.5,17.5,0,0,0,19.9,61.693a1.9,1.9,0,0,0,3.45,1.028,15.117,15.117,0,0,1,16.907-5.528C57.143,62.519,64.765,42.409,51.888,33.6Z" class="colorc93176 svgShape"></path><path fill="#1483c5" d="M65.061,30.269C51.4,14.163,33.629,27.643,34.223,41.121c.543,12.347-5.209,11.364-5.767,19.32-.5,7.071,3.826,9.653,5.462,10.7,1.554,1,3.8.064,3.61-1.773-.981-9.748,7.194-16.484,12.628-19.771C59.027,44.233,62.333,40.127,65.061,30.269Z" class="color319dba svgShape"></path><path fill="#ff2020" d="M44.366,71.089H83.008L29.917,125.616H21.952A1.986,1.986,0,0,1,20.11,124.4c-1.919-4.641-7.075-21.537,13.133-33.7C44.366,84,44.366,71.089,44.366,71.089Z" class="colorc93176 svgShape"></path><path fill="#fca859" d="M51.447,71.089H72.088v53.036l-41.729.266L28.7,125.616h-.949S16.692,104.919,40.324,90.7C51.447,84,51.447,71.089,51.447,71.089Z" class="colorfc597f svgShape"></path><path fill="#ff9a3a" d="M60.664,70.422H99.305v54.527H36.964s-11.055-20.7,12.577-34.921C60.664,83.333,60.664,70.422,60.664,70.422Z" class="colorffa233 svgShape"></path><path fill="#14c5af" d="M72.791,67.068H82.879v54.526H49.091s-11.055-20.7,12.577-34.92C72.791,79.979,72.791,67.068,72.791,67.068Z" class="color18eacc svgShape"></path><path fill="#ffd1a6" d="M63.4,100.225c-22.2,4.48-31.172,17.823-34.7,25.4H59.125l2.375-1.464,11.454-.25Z" class="colorffa6b9 svgShape"></path><path fill="#ff9a3a" d="M59.259,33.167c-5.728-2.324-9.424,1.56-14.534,7.529-4.57,5.338-10.475,6.921-18.149,5.378a17.5,17.5,0,0,1-9.252-5.526,1.9,1.9,0,0,1,1.356-3.335,15.117,15.117,0,0,0,14.89-9.731C39.982,10.972,60.438,17.607,59.259,33.167Z" class="colorffa233 svgShape"></path><path fill="#ffffd9" d="M59.15,125.62s7.54-15.03-1.47-28.73c-.27-.41-.56-.82-.86-1.23-.42.26-.84.52-1.27.78a55.949,55.949,0,0,1-9.75,4.72,35.223,35.223,0,0,1-9,2.05c-15.92-.05-15.53-8.7-12.9-12.27a110.1,110.1,0,0,0,7.17-11.13c1.9-3.44,3.46-6.88,3.84-9.42a217.458,217.458,0,0,1,6.83-31.28c4.08-13.41,26.6-19.814,41.268-.184.646,20.688,31.968,51.856,33.28,84.592a2.011,2.011,0,0,1-2,2.1Z" class="colorffd9e2 svgShape"></path><path fill="#592d72" d="M55.562,62.529a9.973,9.973,0,0,1-5.25-1.407,1.5,1.5,0,1,1,1.58-2.55,7.9,7.9,0,0,0,6.5.5,9.39,9.39,0,0,0,5.842-5.339,1.5,1.5,0,0,1,2.778,1.136,12.384,12.384,0,0,1-7.7,7.056A12.185,12.185,0,0,1,55.562,62.529Z" class="color8e4463 svgShape"></path><path fill="#ffffe3" d="M20.263,6.605,42.315,37.043c3.289,4.539,9.72,5.246,13.533,1.489h0c3.844-3.789,3.184-10.295-1.383-13.621L24.09,2.784A2.723,2.723,0,0,0,20.263,6.605Z" class="colorffe3e3 svgShape"></path><path fill="#592d72" d="M58.988 67.2a1.5 1.5 0 0 1-1.462-1.168l-.977-4.3a1.5 1.5 0 0 1 2.926-.665l.977 4.3a1.5 1.5 0 0 1-1.13 1.8A1.476 1.476 0 0 1 58.988 67.2zM65.132 64.288a1.5 1.5 0 0 1-1.087-.466l-3.324-3.5A1.5 1.5 0 0 1 62.9 58.258l3.324 3.5a1.5 1.5 0 0 1-1.087 2.534zM69.075 58.79a1.508 1.508 0 0 1-.356-.044l-4.462-1.09a1.5 1.5 0 1 1 .711-2.914l4.462 1.09a1.5 1.5 0 0 1-.355 2.958z" class="color8e4463 svgShape"></path><path fill="#14c5af" d="M70.312,24.17c-9.638-18.793-32.008-9.711-34.5,3.548C33.533,39.866,28.156,37.6,25.8,45.219c-2.092,6.772,1.529,10.271,2.883,11.665,1.287,1.324,3.681.926,3.919-.905C33.866,46.264,43.36,41.565,49.4,39.6,59.259,36.394,60.875,27.938,70.312,24.17Z" class="color18eacc svgShape"></path><path fill="#fca859" d="M70.574,31.75c-6.173-.314-10.945,1.107-13.812,8.424-2.563,6.543-6.016,12.08-13.771,13.143a17.5,17.5,0,0,1-10.554-2.181,1.9,1.9,0,0,1,.185-3.6c6.384-1.7,10.653-7.708,11.377-14.017C46.023,15.879,66.578,16.666,70.574,31.75Z" class="colorfc597f svgShape"></path><path fill="#ffd1a6" d="M89.75 64.09c-.58 15.51-5.56 21.29-21.24 24.5a77.433 77.433 0 0 1-10.83 8.3c-.27-.41-.56-.82-.86-1.23-.42.26-.84.52-1.27.78a1.489 1.489 0 0 1 .47-2.05 73.359 73.359 0 0 0 10.75-8.28 1.511 1.511 0 0 1 .73-.38c14.58-2.9 18.72-7.58 19.25-21.75a1.5 1.5 0 1 1 3 .11zM46.07 100.23q-.12.48-.27.93a35.223 35.223 0 0 1-9 2.05c-15.92-.05-15.53-8.7-12.9-12.27a110.1 110.1 0 0 0 7.17-11.13C41.95 81.73 48.28 91.26 46.07 100.23z" class="colorffa6b9 svgShape"></path><path fill="#ffb773" d="M37.62,98.45a1.5,1.5,0,0,1-1.459-1.158,5.859,5.859,0,0,1,4.362-7.04,1.5,1.5,0,0,1,.686,2.921,2.858,2.858,0,0,0-2.128,3.433A1.5,1.5,0,0,1,37.62,98.45Z" class="colorff7394 svgShape"></path><path fill="#fca859" d="M103.75,72C94.466,58.865,84.6,58.452,83.833,34.322l-.825,4.036c-5.282,29.587,13.8,28.462,17.867,43.25,2.031,7.393-.78,21.758-2.567,28.029-1.032,3.618,3.548,6.8,6.085,4.02C116.33,100.587,111.683,83.212,103.75,72Z" class="colorfc597f svgShape"></path><path fill="#ffffd9" d="M86.657,16.067a4.244,4.244,0,0,0-6.75-1.99C73.452,19.417,61.756,23.27,61.813,33.9l20.405,10.2C90.935,35.549,89.1,23.669,86.657,16.067Z" class="colorffd9e2 svgShape"></path><path fill="#ffca97" d="M74.6,34.211a1.437,1.437,0,0,1-1.437-1.437c0-7.691,7.469-10.968,7.787-11.1a1.437,1.437,0,1,1,1.128,2.643c-.243.106-6.041,2.688-6.041,8.461A1.437,1.437,0,0,1,74.6,34.211Z" class="colorff97a9 svgShape"></path><path fill="#ffb773" d="M49.188,102.7a1.5,1.5,0,0,1-.4-2.945c4.108-1.153,9.282-10.632,8.651-15.847a1.5,1.5,0,1,1,2.979-.361c.825,6.822-5.241,17.53-10.819,19.1A1.5,1.5,0,0,1,49.188,102.7Z" class="colorff7394 svgShape"></path><path fill="#fdff3d" d="M18.371,69.213l-1.045-.572a3.1,3.1,0,0,1-1.241-1.24l-.572-1.045h0a.774.774,0,0,0-.679-.4h0a.776.776,0,0,0-.678.4L13.584,67.4a3.114,3.114,0,0,1-1.241,1.241l-1.044.571a.774.774,0,0,0,0,1.359l1.045.571a3.114,3.114,0,0,1,1.241,1.241l.57,1.044a.775.775,0,0,0,.679.4h0a.772.772,0,0,0,.679-.4l.572-1.045a3.114,3.114,0,0,1,1.241-1.241l1.045-.571a.776.776,0,0,0,0-1.359Z" class="colorffd18f svgShape"></path><path fill="#ffad5f" d="M14.848,83.934l-1.653-.9a5.215,5.215,0,0,1-2.079-2.08l-.9-1.651a.933.933,0,0,0-.818-.487h0a.934.934,0,0,0-.819.486l-.9,1.652a5.23,5.23,0,0,1-2.08,2.08l-1.652.9a.933.933,0,0,0,0,1.638l1.653.9a5.24,5.24,0,0,1,2.08,2.079l.9,1.655a.935.935,0,0,0,.819.485h0a.934.934,0,0,0,.818-.486l.9-1.654A5.225,5.225,0,0,1,13.2,86.476l1.653-.9a.933.933,0,0,0,0-1.638Z" class="colorffc25f svgShape"></path></svg>