<svg xmlns="http://www.w3.org/2000/svg" enable-background="new 0 0 469.032 495.997" viewBox="0 0 469.032 495.997" id="Bird"><path fill="#ff2020" d="M439.682,389.967c-2.393-3.837-1.078-8.232,3.11-13.06c3.85-16.61,7.27-33.5,10.15-50.18
		c0.31-1.82,0.62-3.63,0.92-5.44c-8.136-13.567-4.036-31.243,6.71-51.15l-48.91-143.23c0,0,0-46.08-27.71-71.92
		c-27.72-25.85-64.3-17.14-64.3-17.14s-24.58-47.94-92.57-35.91c-67.98,12.03-132.03,91.28-145.37,172.24c0,0.01,0,0.01,0,0.02
		c0,0,0,0-0.01-0.01l-40.57,78.18l-38.53,62.47l-0.01,0.01l55.16,83.14l54.14-19.13l32.48-61.15c0,0,18.01,6.39,36.34,2.79
		c7.18-1.41,12.55-4.04,17.2-6.85v0.01l26.28,26.23c9.886,8.254,10.15,16.399,2.24,24.45c3.043,28.998-3.383,46.355-18.27,53.31
		c-10.93,12.29-23.51,18.43-34.76,32.01c-15.25,18.39-20.62,46.34-20.62,46.34h47.95c45.265-3.79,96.506-3.141,151.1,0
		c3.275-10.458,10.347-8.071,19.1,0c7.953-9.111,19.178-9.413,34.01,0h64.09C469.032,455.737,458.292,418.877,439.682,389.967z" class="color655f68 svgShape"></path><path fill="#ff2020" d="M383.952,54.987c27.71,25.84,27.71,71.92,27.71,71.92c-29.84-14.33-64.49-11.15-84.84,3.83
		c-30.96,22.81-27.3,78.33-27.3,78.33c-7.45,1.86-12.1,8.5-12.1,15.5c0,2.73,0.71,5.52,2.24,8.1c0,0-14.85,8.1-17.49,26.86
		c-0.85,6.06-0.73,12.05-0.52,17.61c0.42,11.64,1.18,21.43-5.95,26.25c-10.52,7.13-34.35-2.67-47.26-0.32
		c-7.85,1.42-13.32,6.23-20.53,10.58c-4.65,2.81-10.02,5.44-17.2,6.85c-18.33,3.6-36.34-2.79-36.34-2.79s22.49-10.9,26.34-36.65
		c3.84-25.75-11.41-46.17-11.41-46.17s12.84-29.91,5.37-52.03c-7.47-22.13-28.05-35.11-52.97-29.31
		c-13.08,3.04-23.26,12.41-29.99,20.63c13.34-80.96,77.39-160.21,145.37-172.24c67.99-12.03,92.57,35.91,92.57,35.91
		S356.232,29.137,383.952,54.987z M285.092,135.377c0-29.13-23.61-52.75-52.74-52.75c-29.14,0-52.75,23.62-52.75,52.75
		s23.61,52.74,52.75,52.74C261.482,188.117,285.092,164.507,285.092,135.377z" class="color655f68 svgShape"></path><path fill="#14c5af" d="M306.182,303.257c-0.58,0.56-19.22,18.54-43.49,28.69c-12.27,5.14-26.4,7.94-38.5,7.94
		c-12.09,0-23.05-4.65-26.32-12.05c-1.84-4.15-1.45-9.16,0.04-14.18v-0.01c7.21-4.35,12.68-9.16,20.53-10.58
		c12.91-2.35,36.74,7.45,47.26,0.32C265.702,303.387,284.482,306.707,306.182,303.257z" class="colorbcb9ad svgShape"></path><path fill="#ff2020" d="M469.032,495.997h-64.09c4.31-9.62,8.57-20.33,12.7-31.87c4.63-12.94,9.11-26.91,13.32-41.52
		c3.06-10.59,5.97-21.53,8.72-32.64C458.292,418.877,469.032,455.737,469.032,495.997z" class="color655f68 svgShape"></path><path fill="#1483c5" d="M289.662,232.667c-1.53-2.58-2.24-5.37-2.24-8.1c0-7,4.65-13.64,12.1-15.5
		c0,0-3.66-55.52,27.3-78.33c20.35-14.98,55-18.16,84.84-3.83c15.56,7.48,29.81,19.73,40.04,37.55
		c11.34,19.75,13.19,59.28,8.87,105.68c-11.84,12.36-26.32,20.54-43.22,24.95h-0.06c0.58-26.34-4.51-45.52-18.36-46.06
		c-20.23-0.79-41.05,35.67-70.33,47.99c-7.39,3.11-15.07,5.06-22.41,6.23c0,0,0,0-0.01,0.01c-21.7,3.45-40.48,0.13-40.48,0.13
		c7.13-4.82,6.37-14.61,5.95-26.25c-0.21-5.56-0.33-11.55,0.52-17.61C274.812,240.767,289.662,232.667,289.662,232.667z" class="colorcdc7b9 svgShape"></path><path fill="#f6a252" d="M460.572,270.137c-1.52,16.38-3.8,33.62-6.71,51.15c-11.74,13.2-26.06,21.78-42.94,25.75
		c0.92-4.44,1.7-8.52,2.31-12.13c2.35-14.04,3.81-27.69,4.06-39.82h0.06C434.252,290.677,448.732,282.497,460.572,270.137z" class="colorf69552 svgShape"></path><path fill="#ff2020" d="M453.862,321.287c-0.3,1.81-0.61,3.62-0.92,5.44c-2.88,16.68-6.3,33.57-10.15,50.18
		c-14.18,8.56-28.37,13.45-42.56,14.69c4.23-16.31,8.05-31.92,10.69-44.56C427.802,343.067,442.122,334.487,453.862,321.287z" class="color655f68 svgShape"></path><path fill="#d8700e" d="M439.682,389.967c-2.75,11.11-5.66,22.05-8.72,32.64c-13.83,7.33-28.04,11.5-42.6,12.92h-0.01
		c3.94-14.11,8.08-29.3,11.88-43.93c14.19-1.24,28.38-6.13,42.56-14.69C441.792,381.287,440.752,385.637,439.682,389.967z" class="colord87c0e svgShape"></path><path fill="#e57d1a" d="M430.962,422.607c-4.21,14.61-8.69,28.58-13.32,41.52c-12.97,4.94-26.25,7.62-39.8,8.36
		c2.96-10.24,6.64-23.08,10.51-36.96h0.01C402.922,434.107,417.132,429.937,430.962,422.607z" class="colore58e1a svgShape"></path><path fill="#dd924a" d="M398.932,249.027c13.85,0.54,18.94,19.72,18.36,46.06c-0.25,12.13-1.71,25.78-4.06,39.82
		c-0.61,3.61-1.39,7.69-2.31,12.13c-2.64,12.64-6.46,28.25-10.69,44.56c-3.8,14.63-7.94,29.82-11.88,43.93
		c-3.87,13.88-7.55,26.72-10.51,36.96c-4.14,14.27-6.91,23.51-6.91,23.51h-19.1c0,0-14.63-3.19-21.15-12.34
		c-6.51-9.15-5.24-17.65-11.34-23.44c-6.11-5.79-14.46-2.71-25.16-12.33c-10.7-9.62-6.84-23.35-13.85-30.53
		c-7.01-7.17-20.11-4.8-34.05-16.19c-13.93-11.39-19.85-36.83-19.85-36.83c-0.04-13.75-2.24-24.45-2.24-24.45
		c12.1,0,26.23-2.8,38.5-7.94c24.27-10.15,42.91-28.13,43.49-28.69c0.01-0.01,0.01-0.01,0.01-0.01c7.34-1.17,15.02-3.12,22.41-6.23
		C357.882,284.697,378.702,248.237,398.932,249.027z" class="colordd864a svgShape"></path><path fill="#d8700e" d="M417.642,464.127c-4.13,11.54-8.39,22.25-12.7,31.87h-34.01c0,0,2.77-9.24,6.91-23.51
		C391.392,471.747,404.672,469.067,417.642,464.127z" class="colord87c0e svgShape"></path><path fill="#ff9a3a" d="M351.832,495.997h-151.1c-6.34-29.58-4.28-55.85,7.43-78.35c3.88-4.36,7.55-9.49,10.88-16.01
		c5.87-11.48,7.42-25.52,7.39-37.3c0,0,5.92,25.44,19.85,36.83c13.94,11.39,27.04,9.02,34.05,16.19
		c7.01,7.18,3.15,20.91,13.85,30.53c10.7,9.62,19.05,6.54,25.16,12.33c6.1,5.79,4.83,14.29,11.34,23.44
		C337.202,492.807,351.832,495.997,351.832,495.997z" class="colorf9b132 svgShape"></path><path fill="#e19d5c" d="M250.332,110.697c-10.65-7.77-25.54-7.99-36.54,0.42c-11,8.42-14.68,22.85-9.97,35.16
		c1.02,2.68,2.44,5.26,4.27,7.65c10.25,13.39,29.41,15.95,42.81,5.7c13.39-10.24,15.95-29.41,5.7-42.8
		C254.772,114.427,252.652,112.377,250.332,110.697z M232.352,82.627c29.13,0,52.74,23.62,52.74,52.75s-23.61,52.74-52.74,52.74
		c-29.14,0-52.75-23.61-52.75-52.74S203.212,82.627,232.352,82.627z" class="colore15c63 svgShape"></path><path fill="#f2f2e7" d="M256.602,116.827c10.25,13.39,7.69,32.56-5.7,42.8c-13.4,10.25-32.56,7.69-42.81-5.7
		c-1.83-2.39-3.25-4.97-4.27-7.65l23.26-17.79c-5.56,4.26-6.62,12.21-2.37,17.77c4.26,5.56,12.21,6.62,17.77,2.37
		c5.56-4.25,6.62-12.21,2.37-17.77s-12.21-6.62-17.77-2.37l23.25-17.79C252.652,112.377,254.772,114.427,256.602,116.827z" class="colore7f2f1 svgShape"></path><path fill="#1483c5" d="M250.332,110.697l-23.25,17.79l-23.26,17.79c-4.71-12.31-1.03-26.74,9.97-35.16
		C224.792,102.707,239.682,102.927,250.332,110.697z" class="colorcdc7b9 svgShape"></path><path fill="#ff2020" d="M244.852 130.857c4.25 5.56 3.19 13.52-2.37 17.77-5.56 4.25-13.51 3.19-17.77-2.37-4.25-5.56-3.19-13.51 2.37-17.77C232.642 124.237 240.602 125.297 244.852 130.857zM200.732 495.997h-47.95c0 0 5.37-27.95 20.62-46.34 11.25-13.58 23.83-19.72 34.76-32.01C196.452 440.147 194.392 466.417 200.732 495.997z" class="color655f68 svgShape"></path><path fill="#ffaa5a" d="M56.552,243.267c-5.15,2.36-10.35,5.39-15.42,9.1c0,0-15.29-21.55-12.2-50.07
		c3.07-28.36,20.85-45.41,33.28-45.41c12.24,0,19.28,16.77,19.49,17.3c0.01,0.01,0.01,0.01,0.01,0.01c0-0.01,0-0.01,0-0.02
		c6.73-8.22,16.91-17.59,29.99-20.63c24.92-5.8,45.5,7.18,52.97,29.31c7.47,22.12-5.37,52.03-5.37,52.03s15.25,20.42,11.41,46.17
		c-3.85,25.75-26.34,36.65-26.34,36.65c0.72-7.54,0.39-14.55-0.84-20.45c-2.43-11.69-10.59-27.07-21.68-39.4
		c-10.81-12.03-24.42-21.16-38.21-21.16C75.752,236.697,66.262,238.807,56.552,243.267z M119.372,201.177
		c6.33-9.09,6.63-19.83,0.66-23.98c-5.96-4.16-15.93-0.15-22.27,8.94c-6.33,9.1-6.62,19.84-0.66,23.99
		C103.072,214.277,113.042,210.277,119.372,201.177z" class="colorffc05a svgShape"></path><path fill="#592d72" d="M143.532,297.257c1.23,5.9,1.56,12.91,0.84,20.45c-1.96,20.61-11.75,45.09-32.48,61.15
		c-4.1-17.35-14.44-28.33-30.19-33.73c1.39-1.71,2.84-3.39,4.33-5.03C109.802,313.957,143.532,297.257,143.532,297.257z" class="color5d5560 svgShape"></path><path fill="#ff2020" d="M121.852,257.857c11.09,12.33,19.25,27.71,21.68,39.4c0,0-33.73,16.7-57.5,42.84
		c0,0-2.46-12.27-13.16-17.3c-10.71-5.03-29.52,1.9-29.52,1.9c-2.27-18.11,4-34.18,15.29-49.03c-22.81,7.73-41.3,21.03-56.04,39.17
		c5.33-26.12,17.99-45.05,32.61-57.74c1.94-1.69,3.92-3.26,5.92-4.73c5.07-3.71,10.27-6.74,15.42-9.1
		c9.71-4.46,19.2-6.57,27.09-6.57C97.432,236.697,111.042,245.827,121.852,257.857z" class="color655f68 svgShape"></path><path fill="#fdff3d" d="M120.032,177.197c5.97,4.15,5.67,14.89-0.66,23.98c-6.33,9.1-16.3,13.1-22.27,8.95
		c-5.96-4.15-5.67-14.89,0.66-23.99C104.102,177.047,114.072,173.037,120.032,177.197z" class="colord6eae8 svgShape"></path><path fill="#dd924a" d="M111.892,378.857c-1.4,1.09-2.84,2.14-4.34,3.14c-13.2,8.85-32.15,13.53-49.8,15.99
		c3.51-15.35,9.3-32.49,18.86-46.16c1.6-2.29,3.3-4.52,5.08-6.7h0.01C97.452,350.527,107.792,361.507,111.892,378.857z" class="colordd864a svgShape"></path><path fill="#f6a252" d="M72.872,322.797c10.7,5.03,13.16,17.3,13.16,17.3c-1.49,1.64-2.94,3.32-4.33,5.03h-0.01
		c-1.78,2.18-3.48,4.41-5.08,6.7c-9.56,13.67-15.35,30.81-18.86,46.16c-4.91,21.46-5.35,39.4-5.35,39.4s-57.33-39.85-52.06-106.46
		c0.45-5.64,1.21-11,2.25-16.08l0.01-0.01c14.74-18.14,33.23-31.44,56.04-39.17c-11.29,14.85-17.56,30.92-15.29,49.03
		C43.352,324.697,62.162,317.767,72.872,322.797z" class="colorf69552 svgShape"></path><path fill="#ef8826" d="M351.832,495.997h-31.07c2.83-5.1,5.57-10.1,8.22-15.01c0.5,0.88,1.06,1.77,1.7,2.67
		C337.202,492.807,351.832,495.997,351.832,495.997z" class="coloref9d26 svgShape"></path><path fill="#c58242" d="M398.932,249.027c13.85,0.54,18.94,19.72,18.36,46.06c-0.25,12.13-1.71,25.78-4.06,39.82
		c-0.61,3.61-1.39,7.69-2.31,12.13c-2.64,12.64-6.46,28.25-10.69,44.56c-3.8,14.63-7.94,29.82-11.88,43.93
		c-3.87,13.88-7.55,26.72-10.51,36.96c-4.14,14.27-6.91,23.51-6.91,23.51h-19.1c0,0-14.63-3.19-21.15-12.34
		c-0.64-0.9-1.2-1.79-1.7-2.67c93.5-173.46,69.72-225.02,48.86-185.9c-21.45,40.23-66.93,31.54-66.93,31.54
		c-52.7,45.6-84.84,28.21-84.84,28.21c-0.63-8.88-1.88-14.95-1.88-14.95c12.1,0,26.23-2.8,38.5-7.94
		c24.27-10.15,42.91-28.13,43.49-28.69c0.01-0.01,0.01-0.01,0.01-0.01c7.34-1.17,15.02-3.12,22.41-6.23
		C357.882,284.697,378.702,248.237,398.932,249.027z" class="colorc57742 svgShape"></path><path fill="#ff9a3a" d="M77.939 178.983c-1.856-1.198-4.331-.667-5.531 1.188-2.326 3.598-3.561 6.052-3.612 6.155-.988 1.974-.189 4.374 1.784 5.364.575.289 1.187.425 1.789.425 1.465 0 2.876-.807 3.579-2.205.011-.021 1.112-2.2 3.179-5.397C80.326 182.659 79.794 180.182 77.939 178.983zM85.137 214.444c.291-2.19-1.248-4.201-3.438-4.492-2.191-.287-4.201 1.248-4.492 3.438-.672 5.051-.457 9.84.636 14.233.453 1.82 2.085 3.035 3.879 3.035.319 0 .645-.039.969-.119 2.144-.534 3.449-2.704 2.916-4.848C84.757 222.278 84.599 218.494 85.137 214.444zM146.63 199.992c-2.174-.399-4.256 1.044-4.653 3.218-1.206 6.617-4.174 13.274-8.583 19.251-4.771 6.461-11.047 11.137-19.188 14.294-2.06.799-3.082 3.116-2.283 5.176.614 1.584 2.127 2.555 3.73 2.555.48 0 .97-.087 1.445-.271 9.463-3.67 17.111-9.39 22.731-17.002 5.13-6.954 8.594-14.758 10.018-22.567C150.244 202.471 148.803 200.388 146.63 199.992zM61.163 209.917c-2.209 0-4 1.791-4 4 0 5.881-.488 11.535-1.45 16.806-.397 2.173 1.043 4.257 3.216 4.654.243.044.484.065.724.065 1.895 0 3.577-1.352 3.93-3.282 1.049-5.744 1.581-11.882 1.581-18.244C65.163 211.708 63.372 209.917 61.163 209.917z" class="colorf9b132 svgShape"></path><path fill="#bfb7af" d="M312.322 209.377c.417 0 .84-.065 1.257-.203 7.599-2.513 14.481-5.406 20.457-8.599 24.472-13.067 43.229-47.411 44.016-48.867 1.05-1.943.325-4.369-1.617-5.419-1.941-1.05-4.37-.327-5.421 1.616-.182.335-18.413 33.689-40.746 45.614-5.574 2.978-12.034 5.689-19.2 8.059-2.098.694-3.235 2.956-2.542 5.054C309.081 208.312 310.644 209.377 312.322 209.377zM398.171 179.552c-1.916-1.105-4.361-.448-5.464 1.466-.168.291-17.056 29.256-39.85 41.771-15.602 8.557-36.778 12.193-48.015 13.599-2.22.278-4.468-.072-6.499-1.016-2.004-.932-4.382-.062-5.313 1.941-.932 2.003-.063 4.382 1.94 5.313 2.64 1.227 5.498 1.855 8.384 1.855.827 0 1.657-.051 2.483-.155 14.414-1.804 34.939-5.787 50.868-14.523 24.736-13.582 42.199-43.52 42.931-44.788C400.741 183.102 400.085 180.656 398.171 179.552zM350.842 245.644c-19.938 12.711-41.518 21.249-64.138 25.376-2.174.396-3.614 2.48-3.217 4.653.352 1.93 2.035 3.282 3.93 3.282.238 0 .48-.021.723-.065 23.644-4.314 46.187-13.23 67.003-26.5 1.862-1.188 2.41-3.661 1.223-5.523C355.178 245.004 352.705 244.454 350.842 245.644z" class="colorbfbaaf svgShape"></path></svg>