<svg xmlns="http://www.w3.org/2000/svg" enable-background="new 0 0 504.073 436.948" viewBox="0 0 504.073 436.948" id="Bird"><path fill="#14c5af" d="M467.182,397.487h-0.01l-24.63,35.46h57.53v-9.56C489.857,393.449,481.776,370.169,467.182,397.487
			z" class="color7f5d46 svgShape"></path><path fill="#592d72" d="M345.922,384.687h-0.01l-39.08,18.31c-33.975,1.356-24.191,16.846-16.17,29.95h72.12
			C378.909,422.752,381.428,394.343,345.922,384.687z" class="color504256 svgShape"></path><path fill="#1483c5" d="M337.422,339.007c-80.309-37.085-137.16-19.134-170.37,54.28c1.38,14.73,7.13,27.9,16.84,39.66
			h106.77c8.84-7.13,13.96-17.34,16.17-29.95c6.36,5.23,13.56,9.03,22.41,10.06c9.05-6.37,14.24-16.16,16.67-28.37h0.01
			C358.505,364.463,355.206,348.554,337.422,339.007z" class="color524956 svgShape"></path><path fill="#5c5560" d="M412.772,160.477c-121.135-42.569-209.438-16.841-263.06,81.03c-0.01,1.46-0.11,2.94-0.3,4.42
			c-1.4,10.79-12.08,23.55-15.27,36.93c-3.2,13.38,2.98,30.06,2.98,30.06l14.45-14.11c0,0-7.33,23.68-7.33,48.61
			s15.01,50.31,15.01,50.31c2.79-1.19,5.38-2.67,7.8-4.44c4.07-2.99,7.62-6.81,10.62-11.49c7.57,9.55,17.83,15.97,30.84,19.17
			c9.62-3.56,16.38-11.36,21.45-21.66c6.21,7.58,14.19,12.08,24.13,13.18c8.04-6.53,12.47-15.64,13.95-26.87
			c5.85,5.95,13.19,10.22,22.45,12.31c6.47-7.1,8.92-16.72,8.66-28.04c6.14,6.1,13.42,9.96,22.68,9.94
			c7.47-4.7,12.53-11.77,15.59-20.82l109.72-133.37C447.142,205.637,421.082,177.837,412.772,160.477z" class="color5d5560 svgShape"></path><path fill="#7f5795" d="M500.072,219.137c0,0-18.7-15.82-52.93-13.5c-2.06,0.14-4.18,0.34-6.35,0.62
			c-38.25,4.9-91,45.33-101.82,97.51c-2.28,10.97-2.54,23.03-1.55,35.24c1.28,15.64,4.63,31.53,8.5,45.68
			c7.47,27.38,16.86,48.26,16.86,48.26h79.76c3.05,0,6.09-0.53,9.11-1.68c12.76-4.85,16.45-18.02,15.52-33.78l32.9-65.97V219.137z" class="color957557 svgShape"></path><path fill="#655f68" d="M375.152,65.837c-16.49-16.71-42.8-27.87-59.55-25.87c-7.52,0.89-14.54,5.05-20,9.36
			c-135.413,39.837-194.632,96.02-148.71,174.76c0,0,2.93,8.23,2.82,17.42c7.92,8.17,17.84,14.42,31.36,17.27
			c9.91-4.41,17.24-11.76,22.54-21.43c8.81,7.8,19.59,12.39,33.02,12.67c10.22-6.93,16.71-16.45,20.19-28.05
			c7.73,5.3,16.78,7.82,27.52,6.8c7.39-6.62,10.74-15.87,11.26-26.96c6.96,6.74,15.4,11.28,25.6,13.18
			c8.13-4.82,13.71-12.04,16.7-21.71c8.76,6.86,19.09,10.22,31.39,9.15c7.85-7.1,12.5-15.99,13.72-26.82
			c7.1,4.24,14.43,6.94,22.24,6.42c5.38-4.57,7.47-12.14,7.52-21.55C404.492,143.177,391.822,82.727,375.152,65.837z" class="color655f68 svgShape"></path><path fill="#503360" d="M301.392,61.357c-1.19-3.9-3.14-7.95-5.79-12.03c-10.53-16.24-31.98-32.74-58.97-40.6
			c0,0,0.01,0.01,0.01,0.02c-78.372,11.497-143.132,39.788-122.62,173.27c-0.01,0.01-0.02,0.01-0.02,0.01v0.01
			c-61.227-4.008-55.966,21.658-41.79,51.64c16.49-3.38,28.98-11.13,39.67-13.05c12.55-2.26,35.01,3.46,35.01,3.46
			s5.38-19.48,22.99-21.5c17.62-2.03,34.03,13.82,57.05,7.69c23.01-6.13,31.71-30.38,38.73-39.25c7.02-8.86,24.85-13.01,34.08-26.66
			C308.972,130.707,309.682,88.637,301.392,61.357z" class="color604533 svgShape"></path><path fill="#ff2020" d="M236.642,8.747c0.87,1.14,37.25,49.4,34.28,91.94c-3.02,43.04-31.33,71.35-51.18,74.02
			c-19.85,2.68-37.87-5.1-59.16-5.1c-20.95,0-45.79,12.03-46.56,12.41c9.99-10.38,17.53-21.47,28.85-26.74
			c16.32-7.61,63.63-0.98,89.66-34.09C258.312,88.407,237.062,10.277,236.642,8.747z" class="colord14b62 svgShape"></path><path fill="#e19d5c" d="M236.642,8.747c0.42,1.53,21.67,79.66-4.11,112.44c-26.03,33.11-73.34,26.48-89.66,34.09
			c-11.32,5.27-18.86,16.36-28.85,26.74c-0.01,0.01-0.02,0.01-0.02,0.01c-49.093-5.916-78.873-16.067-85.28-33.33
			c25.48-32.75,63.24-55.15,76.24-69.24c16.26-17.62,32.7-69.47,87.43-74.89c15.69-1.55,30.67,0.21,44.24,4.16
			C236.632,8.727,236.642,8.737,236.642,8.747z" class="colore15c63 svgShape"></path><path fill="#ff9a3a" d="M25.012,233.117c0,0,17.1,3.69,38.19,1.87c3.13-0.27,6.14-0.72,9.01-1.31
			c21.81-14.22,36.7-31.06,41.79-51.64C34.836,172.441,21.504,198.251,25.012,233.117z" class="colorf1c27d svgShape"></path><path fill="#fdff3d" d="M114.002,182.027v0.01c-4.41,4.57-9.29,9-15.18,12.74c-19.28,12.22-52.02,18.37-67.28,30.95
			c-2.62,2.16-4.77,4.68-6.53,7.39c-8.48,13.04-7.92,30.22-7.92,30.22s-25.91-40.47-4.63-88.06c4.26-9.53,9.88-18.38,16.26-26.58
			C62.412,150.197,90.982,161.047,114.002,182.027z" class="colorffdbac svgShape"></path><path fill="#442754" d="M208.222,66.837c8.78,19.83,0.34,42.81-18.87,51.31c-19.2,8.51-50.08,2.95-58.86-16.89
			c-8.79-19.83,7.84-46.43,27.05-54.94C176.742,37.817,199.432,46.997,208.222,66.837z" class="color543927 svgShape"></path><path fill="#503360" d="M500.072,331.517v91.87c-14.23-4.14-24.43-13.81-32.89-25.9h-0.01
			c-0.64-11.07-3.57-23.42-7.23-35.06c21.84-5.83-2.39-78.83-2.39-78.83S479.462,325.267,500.072,331.517z" class="color604533 svgShape"></path><path fill="#352b3a" d="M159.405,88.454c-3.155-7.124,0.062-15.457,7.186-18.612c7.124-3.155,15.457,0.062,18.612,7.186
		s-0.062,15.457-7.186,18.612C170.893,98.795,162.56,95.578,159.405,88.454z M501.188,419.546
		c-11.479-3.338-21.079-10.84-30.153-23.545c-0.599-8.589-2.539-18.938-6.256-31.393c2.001-1.293,3.66-3.142,4.954-5.539
		c5.915-10.966,2.888-32.786-1.119-50.45c8.36,11.403,19.336,23.401,30.295,26.724c2.117,0.641,4.347-0.554,4.989-2.668
		c0.641-2.114-0.554-4.348-2.667-4.988c-15.571-4.72-34.256-34.772-40.142-45.954c-0.97-1.843-3.191-2.631-5.106-1.817
		c-1.916,0.815-2.886,2.964-2.23,4.939c4.97,14.982,16.265,56.839,8.939,70.417c-1.287,2.386-2.778,3.021-3.787,3.29
		c-13.964,3.724-43.2-28.983-58.344-50.479c-1.271-1.805-3.766-2.236-5.573-0.967c-1.806,1.272-2.239,3.768-0.967,5.573
		c0.423,0.601,10.502,14.86,23.473,28.648c16.097,17.111,28.955,25.512,39.11,25.512c0.168,0,0.333-0.011,0.5-0.016
		c3,10.03,5.501,21.352,6.118,31.103c0.786,13.869-2.254,25.516-12.992,29.594c-18.544,7.042-39.075-13.926-53.033-32.756
		c-15.811-21.329-26.924-44.892-27.034-45.127c-0.938-2-3.318-2.859-5.319-1.925c-2,0.938-2.862,3.318-1.925,5.319
		c1.736,3.705,39.798,83.899,79.698,83.899c3.476,0,6.973-0.61,10.455-1.933c8.161-3.099,16.057-10.327,17.818-26.33
		c8.398,9.482,17.493,15.474,28.067,18.548c0.373,0.108,0.749,0.16,1.119,0.16c1.733,0,3.331-1.136,3.839-2.884
		C504.529,422.383,503.31,420.163,501.188,419.546z M90.619,118.339c-4.908-0.26-11.43,4.612-14.568,10.881
		c-3.138,6.269-1.704,11.562,3.204,11.821c4.907,0.26,11.43-4.612,14.568-10.881S95.527,118.598,90.619,118.339z M126.831,102.881
		c-4.585-10.354-3.463-22.864,3.161-35.229c5.94-11.089,15.633-20.432,25.928-24.99c10.287-4.557,21.783-4.707,32.368-0.422
		c10.54,4.267,18.918,12.426,23.589,22.974c9.664,21.821,0.286,47.21-20.905,56.595c-6.26,2.772-13.681,4.192-21.279,4.192
		c-4.897,0-9.869-0.59-14.651-1.786C141.435,120.811,131.416,113.233,126.831,102.881z M134.145,99.641
		c3.565,8.05,11.676,14.021,22.838,16.813c10.534,2.634,22.029,1.902,30.75-1.96c17.157-7.599,24.707-28.253,16.83-46.04
		c-3.826-8.64-10.672-15.314-19.276-18.798c-4.149-1.68-8.468-2.519-12.761-2.519c-4.563,0-9.095,0.947-13.367,2.839
		c-8.721,3.862-16.988,11.882-22.116,21.453C131.61,81.572,130.581,91.592,134.145,99.641z M366.429,431.307
		c0.906,2.015,0.007,4.383-2.007,5.288c-0.533,0.24-1.09,0.354-1.639,0.354c-1.526,0-2.983-0.878-3.65-2.36
		c-0.61-1.357-7.034-15.799-13.376-36.011c-3.33,7.484-8.079,13.436-14.218,17.752c-0.804,0.564-1.789,0.814-2.763,0.701
		c-6.846-0.797-13.228-3.153-19.363-7.168c-2.976,11.092-8.423,19.887-16.242,26.197c-0.74,0.598-1.628,0.888-2.51,0.888
		c-1.167,0-2.325-0.509-3.115-1.487c-1.387-1.72-1.119-4.237,0.601-5.625c7.776-6.277,12.6-15.283,14.747-27.533
		c0.246-1.402,1.218-2.567,2.553-3.062s2.832-0.24,3.931,0.665c6.108,5.032,12.119,7.906,18.794,8.968
		c6.822-5.293,11.278-13.153,13.599-23.935c-2.727-10.087-5.178-21.034-6.817-32.167c-3.01,4.233-6.678,7.73-10.991,10.445
		c-0.651,0.41-1.397,0.603-2.178,0.614c-6.922,0-13.176-1.884-18.941-5.73c-0.968,9.262-4.072,16.679-9.396,22.521
		c-0.969,1.064-2.437,1.526-3.838,1.207c-7.108-1.606-13.463-4.501-18.972-8.633c-2.434,9.288-7.132,16.801-14.02,22.395
		c-0.83,0.674-1.896,0.992-2.959,0.87c-8.858-0.976-16.512-4.456-22.822-10.364c-5.588,9.375-12.474,15.49-20.935,18.623
		c-0.447,0.166-0.917,0.249-1.389,0.249c-0.321,0-0.642-0.039-0.957-0.116c-11.928-2.938-21.852-8.518-29.573-16.611
		c-2.032,2.546-4.277,4.802-6.704,6.796c1.615,12.801,6.885,24.69,15.697,35.365c1.406,1.704,1.165,4.226-0.539,5.632
		c-0.746,0.615-1.647,0.915-2.544,0.915c-1.153,0-2.296-0.495-3.087-1.453c-8.907-10.79-14.56-22.736-16.87-35.582
		c-1.012,0.532-2.04,1.039-3.101,1.495c-1.848,0.792-3.997,0.092-5.021-1.64c-0.636-1.075-15.571-26.623-15.571-52.349
		c0-13.519,2.065-26.552,4.031-35.899l-4.359,4.257c-0.969,0.947-2.351,1.339-3.673,1.041c-1.322-0.297-2.403-1.243-2.873-2.514
		c-0.27-0.728-6.557-17.98-3.119-32.375c1.669-6.99,5.085-13.525,8.389-19.847c3.181-6.085,6.185-11.832,6.813-16.672
		c0.922-7.101-0.744-14.489-1.709-17.957c-5.783-1.314-21.768-4.579-31.15-2.89c-4.527,0.814-9.549,2.823-15.365,5.149
		c-9.505,3.802-20.278,8.11-33.685,9.263c-16.619,1.427-30.693-0.435-36.519-1.416c-6.256,11.453-5.934,25.466-5.928,25.646
		c0.054,1.798-1.099,3.413-2.817,3.944c-0.391,0.12-0.79,0.179-1.183,0.179c-1.336,0-2.617-0.671-3.366-1.841
		c-1.106-1.726-26.831-42.843-4.915-91.849c15.628-34.945,48.232-60.42,72.039-79.021c8.991-7.024,16.756-13.092,21.168-17.873
		c3.664-3.97,7.459-9.989,11.854-16.96c14.606-23.164,34.609-54.889,78.117-59.199c46.558-4.615,86.554,18.755,104.531,43.093
		c6.329-4.384,12.573-6.97,18.604-7.688c18.168-2.162,45.782,9.712,62.87,27.032c11.736,11.897,21.164,42.661,28.74,67.38
		c3.746,12.224,6.981,22.78,9.644,28.344c6.925,14.472,27.177,37.062,32.423,42.794c34.158-1.707,53.006,13.826,53.851,14.541
		c1.687,1.427,1.898,3.951,0.471,5.638c-1.426,1.688-3.95,1.897-5.637,0.472c-0.189-0.158-20.327-16.564-56.188-11.966
		c-18.556,2.377-40.628,13.607-59.043,30.041c-20.6,18.384-34.583,41.224-39.373,64.313
		C332.451,354.872,366.088,430.548,366.429,431.307z M300.904,50.385c1.888,3.322,3.341,6.617,4.313,9.813
		c8.806,28.965,7.734,71.764-2.163,86.405c-5.756,8.515-14.283,13.498-21.806,17.895c-5.087,2.973-9.892,5.781-12.453,9.017
		c-1.45,1.832-3.078,4.559-4.962,7.715c-6.602,11.059-16.58,27.771-35.876,32.911c-14.264,3.799-26.146-0.142-36.629-3.618
		c-7.344-2.435-14.279-4.737-20.985-3.965c-12.658,1.455-17.92,13.759-19.245,17.53c0.801,2.624,2.432,8.77,2.605,15.753
		c7.616,7.471,16.445,12.312,26.918,14.741c8.207-3.949,14.587-10.227,19.48-19.153c0.584-1.066,1.623-1.809,2.82-2.018
		c1.199-0.211,2.425,0.138,3.337,0.943c8.288,7.326,17.844,11.135,29.176,11.619c8.575-6.138,14.325-14.379,17.561-25.155
		c0.367-1.223,1.296-2.197,2.501-2.622c1.204-0.425,2.539-0.249,3.592,0.474c6.96,4.772,14.669,6.813,23.538,6.228
		c5.559-5.48,8.501-13.113,8.984-23.283c0.075-1.569,1.062-2.95,2.524-3.529c1.46-0.579,3.126-0.247,4.255,0.847
		c6.288,6.093,13.514,9.971,22.049,11.824c6.629-4.313,11.098-10.432,13.64-18.656c0.389-1.257,1.371-2.243,2.627-2.636
		c1.257-0.395,2.625-0.144,3.661,0.668c7.998,6.265,16.913,9.022,27.226,8.41c6.645-6.39,10.391-14.051,11.443-23.379
		c0.152-1.351,0.98-2.532,2.198-3.136c1.218-0.604,2.659-0.548,3.827,0.149c6.837,4.081,12.78,6.012,18.549,5.916
		c3.307-3.439,4.994-8.955,5.148-16.776c-2.821-6.23-6.006-16.616-9.669-28.568c-6.933-22.622-16.429-53.605-26.786-64.104
		c-15.286-15.495-40.512-26.583-56.229-24.708C311.294,44.504,306.202,46.681,300.904,50.385z M235.68,123.663
		c-19.221,24.44-48.923,28.298-70.61,31.113c-8.675,1.127-16.167,2.1-20.511,4.122c-5.927,2.76-10.922,7.508-15.872,12.89
		c9.193-3.131,20.961-6.185,31.898-6.185c9.629,0,18.512,1.52,27.102,2.989c10.768,1.841,20.939,3.579,31.52,2.156
		c17.656-2.381,44.81-28.801,47.72-70.345c1.78-25.414-11.357-53.411-21.696-71.151C249.987,55.802,254.199,100.116,235.68,123.663z
		 M36.699,145.231c30.134,2.706,56.001,13.192,77.038,31.238c1.564-1.704,3.088-3.421,4.598-5.124
		c7.032-7.934,13.674-15.427,22.847-19.698c5.464-2.545,13.524-3.591,22.858-4.803c20.32-2.639,48.149-6.253,65.352-28.126
		c22.12-28.125,7.203-93.729,3.964-106.684c-9.352-2.549-19.35-4.021-29.753-4.021c-3.565,0-7.172,0.173-10.822,0.534
		c-39.616,3.925-58.413,33.737-72.139,55.505c-4.605,7.304-8.582,13.61-12.743,18.119c-4.853,5.259-12.855,11.512-22.122,18.751
		C70.703,112.702,52.003,127.318,36.699,145.231z M28.995,222.64c8.74-7.203,22.073-12.13,36.189-17.346
		c11.287-4.171,22.957-8.483,31.494-13.895c4.294-2.721,8.029-5.854,11.462-9.164c-20.918-17.79-46.975-27.676-77.549-29.414
		c-5.661,7.488-10.637,15.504-14.475,24.085c-13.28,29.694-7.228,56.757-1.516,71.822C16.416,240.18,20.38,229.74,28.995,222.64z
		 M104.363,195.853c-1.099,0.792-2.231,1.562-3.402,2.304c-9.252,5.864-21.327,10.326-33.004,14.641
		c-13.463,4.975-26.179,9.674-33.874,16.016c-0.564,0.465-1.105,0.952-1.622,1.456c6.708,0.875,17.87,1.814,30.396,0.736
		c2.699-0.232,5.293-0.618,7.803-1.107C86.538,219.44,97.684,208.203,104.363,195.853z M169.429,198.61
		c8.458-0.972,16.571,1.718,24.417,4.319c9.881,3.277,20.099,6.665,32.051,3.48c16.154-4.304,24.773-18.74,31.067-29.282
		c2.029-3.398,3.782-6.334,5.559-8.578c3.497-4.417,8.933-7.595,14.689-10.958c7.118-4.16,14.479-8.462,19.215-15.469
		c8.493-12.564,9.077-53.479,1.136-79.599c-4.835-15.906-24.074-35.012-50.59-45.86c10.932,16.947,30.208,51.846,27.934,84.298
		c-3.246,46.339-33.814,74.907-54.632,77.714c-11.79,1.593-23.049-0.335-33.938-2.198c-8.261-1.414-16.803-2.875-25.753-2.875
		c-17.134,0-37.397,8.622-43.193,11.259c-3.845,13.889-11.925,26.436-24.487,37.964c0.452-0.18,0.903-0.36,1.349-0.539
		c5.962-2.385,11.593-4.637,16.919-5.595c10.288-1.854,26.144,1.146,33.174,2.696C147.028,213.003,154.201,200.36,169.429,198.61z
		 M335.052,302.956c10.826-52.182,63.041-94.439,103.829-100.466c-6.14-6.914-16.275-18.804-23.587-29.792
		c-1.427,5.257-3.893,9.358-7.45,12.382c-0.655,0.557-1.471,0.888-2.329,0.943c-6.277,0.412-12.696-0.982-19.507-4.253
		c-2.133,9.185-6.838,17.112-14.035,23.624c-0.647,0.586-1.468,0.943-2.338,1.02c-10.957,0.944-20.949-1.365-29.789-6.885
		c-3.539,8.116-9.108,14.461-16.607,18.903c-0.834,0.494-1.82,0.667-2.772,0.491c-8.041-1.5-15.32-4.606-21.723-9.26
		c-1.678,9.192-5.608,16.6-11.732,22.088c-0.637,0.57-1.44,0.922-2.292,1.003c-9.378,0.885-18.008-0.728-25.725-4.805
		c-4.139,10.597-10.89,19.117-20.117,25.375c-0.686,0.465-1.485,0.711-2.328,0.688c-12.016-0.247-22.717-3.825-31.879-10.648
		c-5.658,8.687-13.031,15.09-21.969,19.069c-0.515,0.229-1.069,0.346-1.627,0.346c-0.276,0-0.552-0.028-0.825-0.086
		c-10.485-2.21-19.547-6.485-27.509-12.982c-1.335,5.204-4.105,10.513-7.013,16.078c-3.078,5.888-6.26,11.976-7.698,17.998
		c-1.747,7.313-0.333,15.95,1.051,21.621l9.695-9.467c1.084-1.059,2.673-1.413,4.104-0.919c1.431,0.496,2.46,1.758,2.657,3.259
		c1.512,11.506,6.606,20.48,15.548,27.353c6.894-5.5,12.439-13.171,17.312-23.895c0.597-1.313,1.854-2.204,3.291-2.33
		c1.441-0.138,2.831,0.53,3.647,1.719c5.347,7.78,12.579,13.318,22.067,16.889c10.09-6.541,17.655-15.373,22.501-26.278
		c0.579-1.303,1.807-2.199,3.224-2.353c1.422-0.152,2.809,0.459,3.653,1.605c3.187,4.332,6.668,7.061,10.834,8.462
		c11.488-10.902,19.051-24.433,23.094-41.29c0.349-1.455,1.48-2.594,2.934-2.951c1.45-0.357,2.984,0.125,3.968,1.252
		c5.436,6.221,11.705,10.296,19.126,12.426c7.664-4.05,12.956-10.919,16.155-20.951c0.672-2.104,2.922-3.267,5.026-2.595
		c2.105,0.671,3.267,2.921,2.596,5.026c-4.03,12.633-11.31,21.513-21.639,26.393c-0.834,0.395-1.78,0.489-2.677,0.264
		c-7.293-1.819-13.849-5.255-19.565-10.243c-4.972,15.996-13.451,29.46-25.267,40.094c-0.967,0.87-2.298,1.217-3.565,0.927
		c-5.051-1.152-9.452-3.557-13.328-7.302c-5.772,10.442-13.995,18.953-24.51,25.353c-1.013,0.617-2.248,0.753-3.37,0.369
		c-9.615-3.277-17.582-8.43-23.765-15.355c-5.382,10.158-11.641,17.556-19.405,23.005c-0.689,0.483-1.493,0.726-2.298,0.726
		c-0.787,0-1.573-0.231-2.253-0.694c-7.678-5.233-13.351-11.791-16.985-19.584c-1.811,8.88-3.645,20.884-3.645,33.099
		c0,18.479,8.85,37.597,12.702,45.041c5.354-2.954,9.749-7.175,13.365-12.818c0.697-1.088,1.876-1.772,3.167-1.837
		c1.291-0.052,2.533,0.498,3.335,1.511c6.759,8.528,15.985,14.397,27.438,17.455c7.351-3.098,13.288-9.401,18.123-19.226
		c0.601-1.221,1.78-2.053,3.132-2.208c1.354-0.154,2.689,0.386,3.551,1.438c5.31,6.48,11.8,10.258,19.799,11.51
		c6.231-5.603,9.907-13.207,11.218-23.188c0.199-1.516,1.245-2.785,2.695-3.271c1.449-0.486,3.05-0.102,4.122,0.988
		c5.058,5.141,11.01,8.63,18.138,10.62c4.345-5.746,6.353-13.45,6.128-23.459c-0.037-1.632,0.922-3.122,2.422-3.766
		c1.5-0.646,3.24-0.311,4.398,0.84c5.637,5.609,11.764,8.482,18.695,8.758c5.787-3.944,9.936-9.635,12.674-17.303
		C332.416,326.239,332.741,314.092,335.052,302.956z" class="color3a322b svgShape"></path></svg>