<svg xmlns="http://www.w3.org/2000/svg" xmlns:xlink="http://www.w3.org/1999/xlink" enable-background="new 0 0 7524.601 5000" viewBox="0 0 7524.601 5000" id="Whaleinoceanwithplasticwaste"><path fill="#ff2020" d="M5315.679 2815.644c11.927.289 26.365 1.76 30.998 9.739 3.968 6.834-2.419 14.977-11.398 18.519-8.979 3.543-19.695 3.643-29.915 3.532-54.72-.591-110.41-4.688-163.474 5.025-38.798 7.102-74.519 21.331-113.137 28.93-38.618 7.6-83.835 7.358-114.136-11.602-9.244-5.784-16.648-13.043-26.362-18.406-15.028-8.297-34.362-11.411-50.202-18.873-97.445-45.898 128.396-31.666 160.161-27.718 102.977 12.8 213.143 8.327 317.465 10.854z" class="colorffffff svgShape"></path><path fill="#ff9a3a" d="M4091.438 2300.274c.071.274.196.521.266.797a153.23 153.23 0 0 1-.169-.83l-.097.033z" class="colorffa273 svgShape"></path><path fill="#592d72" d="M3971.12 2314.662c-.728-.007-1.469.027-2.197.022.072-1.467.806-1.319 2.197-.022z" class="color84008b svgShape"></path><linearGradient id="a" x1="-62.532" x2="6771.468" y1="2874.838" y2="2874.838" gradientTransform="matrix(-1 0 0 1 7116.769 0)" gradientUnits="userSpaceOnUse"><stop offset="0" stop-color="#00ffdf" class="stopColor00fff6 svgShape"></stop><stop offset=".01" stop-color="#03fedf" class="stopColor03fef6 svgShape"></stop><stop offset=".131" stop-color="#25f7dd" class="stopColor25f7f5 svgShape"></stop><stop offset=".261" stop-color="#41f5df" class="stopColor41f0f5 svgShape"></stop><stop offset=".401" stop-color="#56f4e0" class="stopColor56ebf4 svgShape"></stop><stop offset=".554" stop-color="#65f4e2" class="stopColor65e8f4 svgShape"></stop><stop offset=".734" stop-color="#6ef4e3" class="stopColor6ee6f4 svgShape"></stop><stop offset="1" stop-color="#71f4e4" class="stopColor71e5f4 svgShape"></stop></linearGradient><path fill="url(#a)" d="M5868.344 3432.242c-426.598 20.314-851.052-71.787-1274.54-143.886-460.331-78.37-922.689-133.336-1385.286-181.862-172.273-18.071-344.608-35.254-517.122-48.53-463.243-35.651-930.175-42.901-1388.944 50.584-325.362 66.301-691.676 170.856-957.15-90.793 168.326-5.881 337.703-11.918 502.623-57.634 193.572-53.658 376.267-160.602 561.928-251.769 779.369-382.701 1632.535-489.549 2451.005-306.958 475.622 106.105 936.522 307.06 1407.576 445.227 471.054 138.166 964.138 212.562 1433.333 63.393 158.793-50.485 314.361-126.375 477.027-143.527 7.899-.833-78.781 138.087-90.715 150.021-42.344 42.343-96.051 78.206-141.311 116.49-104.918 88.745-217.486 160.389-333.906 217.232-238.171 116.291-491.921 169.983-744.518 182.012z"></path><linearGradient id="b" x1="3106.034" x2="3106.034" y1="2429.88" y2="1182.332" gradientTransform="matrix(-1 0 0 1 7116.769 0)" gradientUnits="userSpaceOnUse"><stop offset="0" stop-color="#14c5af" class="stopColor55cae5 svgShape"></stop><stop offset="1" stop-color="#007ac3" class="stopColor008ac3 svgShape"></stop></linearGradient><path fill="url(#b)" d="M4070.829 2132.492c8.265-88.795 37.989-188.321 106.864-244.97 292.551-240.619 452.185-251.163 783.474-315.16 19.851-3.834 40.601-15.193 47.392-34.236 5.889-16.508-1.613-34.625-10.266-49.866-86.573-152.492-279.653-202.02-452.817-229.641a6144.173 6144.173 0 0 0-845.98-75.472c-204.063-4.036-415.861 3.867-598.885 94.201-37.593 18.555-76.692 44.428-87.203 85.011-10.175 39.287 10.811 81.346 41.713 107.652 30.902 26.306 70.242 40.1 108.592 53.375 242.063 83.793 531.974 172.958 695.331 370.266 213.938 258.397 18.095 439.5-35.325 531.611 74.085 5.212 377.848 20.602 335.159-61.528-35.147-67.614-95.907-146.805-88.049-231.243z"></path><path fill="#47046d" d="M5238.826 4065.755c-10.736 30.585-38.1 65.571-68.126 53.361-12.415-5.049-20.331-17.007-28.152-27.89-153.184-213.148-508.601-206.77-643.096-432.176-7.578-12.701-14.389-28.326-8.242-41.778 5.476-11.985 19.146-17.523 31.644-21.699 330.423-110.396 887.632-18.84 715.972 470.182z" class="color04426d svgShape"></path><path fill="#b5e6e0" d="M4134.309 3198.804c147.156-73.578 245.26-245.26 441.467-220.733 550.205 73.362 1076.031-11.745 1613.938-48.714 1.801 11.03 2.815 22.067 2.814 33.095-.018 201.369-495.161 540.45-782.869 665.557-694.044 301.789-1574.322 406.734-2310.363 197.89-136.75-38.801-269.336-91.188-398.949-149.557-268.555-120.938-529.603-271.282-730.12-487.013-26.85-28.889-52.481-59.123-76.777-90.47 75.911 47.357 156.097 86.065 241.996 112.208 637.674 220.733 1397.978 355.625 1998.863-12.263z" class="colorb5cee6 svgShape"></path><path fill="#47046d" d="M1652.234 2390.717c2.886-47.947 23.022-108.504 71.045-109.522 39.178-.832 64.151 39.735 84.362 73.306 140.466 233.326 422.351 344.773 692.803 376.826 67.41 7.987 140.647 10.783 197.784-25.867 57.137-36.651 82.649-127.463 32.452-173.155 128.4-37.046 263.382 16.437 396.45 28.766 285.021 26.412 551.279-129.911 828.525-201.1 697.072-178.993 1178.628-42.789 1466.266 17.215 217.53 45.378 726.076 296.745 767.792 552.172-537.906 36.969-1063.732 122.076-1613.938 48.714-196.207-24.526-294.311 147.155-441.467 220.733-600.885 367.889-1361.189 232.996-1998.863 12.263-85.899-26.143-166.085-64.851-241.996-112.208-157.152-202.756-256.54-453.512-241.215-708.143z" class="color04426d svgShape"></path><path fill="#47046d" d="M1277.869 2336.85c-124.292-34.229-226.963-127.117-292.989-237.846s-98.587-238.395-116.743-366.029l180.966 91.222c62.194 31.351 125.627 63.114 194.383 74.23 85.865 13.883 174.883-5.345 260.207 11.552 96.643 19.138 180.764 84.867 232.624 168.633 60.516 97.748 141.484 325.37-12.604 353.897-56.388 10.439-132.167-40.683-185.56-53.896-85.56-21.174-175.249-18.345-260.284-41.763z" class="color04426d svgShape"></path><path fill="#47046d" d="M2092.698 2133.511c81.905-87.533 118.164-211.064 116.703-330.932-1.461-119.868-37.683-236.902-85.311-346.912-33.047 53.418-66.093 106.837-99.141 160.255-34.072 55.076-68.927 111.081-118.034 153.304-61.327 52.73-141.242 80.743-200.675 135.6-67.317 62.134-102.068 155.119-102.478 246.728-.478 106.899 45.938 326.7 181.959 274.441 49.776-19.124 85.012-96.476 120.92-132.896 57.543-58.362 130.022-99.702 186.057-159.588z" class="color04426d svgShape"></path><path fill="#ff2020" d="M4979.332 2400.648c-223.541-38.009-452.799-56.917-676.835-21.971-134.241 20.939-264.739 60.902-394.152 102.416-324.899 104.221-648.969 219.633-986.983 265.31-338.014 45.676-697.284 16.166-992.91-154.708-38.995 88.849 62.528 172.465 149.714 214.37 288.209 138.525 595.752 249.615 914.911 264.276 604.417 27.765 1176.659-289.515 1781.047-317.894 181.132-8.504 362.377 9.164 542.735 27.997 120.19 12.552 240.324 25.644 360.431 38.976 90.691 10.066 249.106 60.407 337.028 37.812 105.779-27.187 52.01-51.56-32.137-111.806-283.978-203.319-666.394-287.564-1002.849-344.778z" opacity=".24" class="colorffffff svgShape"></path><defs><path id="c" d="M4134.309 3198.804c147.156-73.578 245.26-245.26 441.467-220.733 550.205 73.362 1076.031-11.745 1613.938-48.714 1.801 11.03 2.815 22.067 2.814 33.095-.018 201.369-495.161 540.45-782.869 665.557-694.044 301.789-1574.322 406.734-2310.363 197.89-136.75-38.801-269.336-91.188-398.949-149.557-268.555-120.938-529.603-271.282-730.12-487.013-26.85-28.889-52.481-59.123-76.777-90.47 75.911 47.357 156.097 86.065 241.996 112.208 637.674 220.733 1397.978 355.625 1998.863-12.263z" fill="#000000" class="color000000 svgShape"></path></defs><clipPath id="d"><use overflow="visible" xlink:href="#c"></use></clipPath><g clip-path="url(#d)" fill="#000000" class="color000000 svgShape"><path fill="#156c9f" d="M4054.131 3852.155c-72.906 0-136.688-2.02-189.332-3.69-971.63-30.801-1682.273-521.897-2019.397-811.898l15.99-18.59c334.678 287.888 1040.082 775.415 2004.176 805.979 328.62 10.418 1098.049 34.795 1768.474-514.423 253.369-207.558 458.856-469.43 610.76-778.342l22.01 10.822c-153.463 312.083-361.126 576.699-617.223 786.497-569.905 466.862-1209.475 523.645-1595.458 523.645z" class="color15739f svgShape"></path><path fill="#156c9f" d="M3999.256 3698.184c-70.682 0-132.582-1.965-183.611-3.58-941.94-29.86-1630.895-505.969-1957.739-787.111l15.503-18.026c324.471 279.103 1008.351 751.74 1942.989 781.368 318.54 10.104 1064.503 33.762 1714.491-498.709 245.621-201.217 444.836-455.094 592.107-754.578l21.334 10.49c-148.782 302.555-350.104 559.094-598.371 762.479-552.521 452.631-1172.509 507.667-1546.703 507.667z" class="color15739f svgShape"></path><path fill="#156c9f" d="M3891.179 3586.891c-65.879 0-123.563-1.831-171.135-3.336-877.987-27.83-1520.167-471.615-1824.819-733.676l14.452-16.797c302.439 260.151 939.888 700.705 1811.07 728.319 296.939 9.444 992.246 31.465 1598.097-464.854 228.946-187.561 414.639-424.204 551.906-703.35l19.885 9.782c-138.674 282.011-326.328 521.128-557.749 710.709-515.009 421.903-1092.909 473.203-1441.707 473.203z" class="color15739f svgShape"></path><path fill="#156c9f" d="M3801.149 3449.451c-65.879 0-123.564-1.832-171.135-3.336-878.026-27.83-1520.184-471.615-1824.82-733.676l14.452-16.798c302.422 260.151 939.85 700.706 1811.07 728.319 296.945 9.434 992.24 31.471 1598.098-464.854 228.957-187.567 414.644-424.21 551.906-703.351l19.885 9.782c-138.668 282.006-326.324 521.122-557.749 710.709-515.008 421.904-1092.909 473.205-1441.707 473.205z" class="color15739f svgShape"></path><path fill="#156c9f" d="M3812.497 3307.523c-55.09 0-103.331-1.527-143.117-2.788-734.577-23.288-1271.839-394.571-1526.712-613.813l12.095-14.053c253.02 217.648 786.32 586.227 1515.188 609.331 248.389 7.852 830.146 26.309 1336.999-388.911 191.551-156.921 346.9-354.9 461.738-588.434l16.643 8.177c-116.017 235.935-273.015 435.99-466.629 594.599-430.884 352.986-914.4 395.892-1206.205 395.892z" class="color15739f svgShape"></path></g><path fill="#47046d" d="M3825.471 3477.872c-392.415 49.052-748.042 98.104-1128.193 208.47-254.791 81.533-551.788-14.939-708.254-239.876 13.177-2.374 26.779-3.401 39.416-3.551 144.747-1.7 294.174 6.323 429.253-45.717 108.827-41.929 199.421-119.639 299.436-179.627 234.794-140.827 522.281-181.064 792.836-139.108 125.531 19.467 477.507 80.141 625.528 187.606-42.673 123.474-220.593 191.89-350.022 211.803z" class="color04426d svgShape"></path><path fill="#fdff3d" d="M1989.023 3446.466c156.466 224.937 453.464 321.409 708.254 239.876 380.152-110.366 735.778-159.418 1128.193-208.47 129.43-19.913 307.35-88.329 350.021-211.803 41.459 30.101 66.919 63.872 66.919 101.436 0 171.682-548.891 202.908-704.264 222.309-276.475 34.522-538.55 144.613-813.792 187.866-275.24 43.256-590.126 3.722-773.099-206.398-18.443-21.179-36.24-47.836-30.185-75.261 6.608-29.921 36-43.798 67.953-49.555z" class="colord2e7f7 svgShape"></path><path fill="#ff2020" d="M4122.813 3807.898c-88.596-5.819-182.326-18.761-250.823-75.251-9.288-7.66-18.347-16.616-21.677-28.185-11.996-41.68 48.861-61.253 92.054-65.193 310.854-28.357 523.02-320.235 798.679-466.681 221.959-117.916 522.52-161.134 771.824-129.433 242.232 30.803 362.389 172.615 135.654 343.596-421.524 317.872-1005.45 455.317-1525.711 421.147z" opacity=".38" class="colorffffff svgShape"></path><path fill="#ff2020" d="M3529.005 3206.111c36.574 1.1 78.53 6.063 99.026 36.375 19.909 29.445 8.941 71.848-16.179 96.995-25.119 25.147-60.687 36.554-95.366 44.347-206.487 46.399-423.683-5.776-632.914 26.043-50.471 7.676-100.422 20.236-151.446 21.919-51.312 1.692-102.101-43.193-42.198-75.271 56.552-30.283 126.844-47.249 188.109-65.447a2077.561 2077.561 0 0 1 411.144-78.112c79.717-6.937 159.838-9.253 239.824-6.849zM2445.045 3627.83c25.192 2.552 52.068 2.004 73.856-10.898 20.902-12.376 34.339-34.762 40.991-58.124s7.291-47.953 7.885-72.237c.205-8.359.343-17.057-3.153-24.653-6.035-13.112-21.661-19.502-36.094-19.27-14.433.231-28.176 5.726-41.807 10.476-51.541 17.963-105.833 25.963-160.135 29.363-28.771 1.801-110.125-14.008-116.751 27.832-10.029 63.33 190.259 112.957 235.208 117.511z" opacity=".24" class="colorffffff svgShape"></path><path fill="#007cc6" d="M4248.881 2808.198c-52.773-28.526-118.639-31.499-173.767-7.841-21.21 9.103-41.457 22.563-53.342 42.349s-25.809 53.659-12.036 72.181c26.389-4.105 64.933-15.112 91.322-19.218 32.674-5.083 66.303-10.142 98.529-2.728 33.519 7.711 123.486 78.201 143.783 43.406 22.67-38.864-68.158-113.915-94.489-128.149z" class="color0089c6 svgShape"></path><path fill="#0066a3" d="M4181.148 2851.193c55.792 1.82 111.516 31.559 150.905 71.111 5.065 5.087 10.048 11.027 10.694 18.177 1.018 11.245-8.761 20.269-17.916 26.876-38.313 27.648-82.004 47.814-127.9 59.036-16.881 4.128-34.314 7.068-51.604 5.315-41.085-4.164-72.774-35.588-104.991-61.437-106.833-85.718 77.088-121.156 140.812-119.078z" class="color0071a3 svgShape"></path><path d="M4292.596 2953.461a349.335 349.335 0 0 0 10.125-7.004c4.41-3.179 6.508-5.337 7.492-6.558-.607-.803-1.612-1.98-3.321-3.7-36.182-36.326-83.589-58.861-126.799-60.26-33.204-1.085-97.854 9.607-127.734 29.477-7.853 5.222-12.467 10.629-12.659 14.818-.114 2.587 1.18 12.361 22.676 29.602 4.481 3.594 8.96 7.312 13.459 11.04 24.267 20.149 47.193 39.171 73.602 41.846 14.32 1.433 29.486-1.637 41.097-4.483 36.439-8.895 70.765-23.967 102.062-44.778z" fill="#000000" class="color000000 svgShape"></path><path fill="#ff2020" d="M4125.314 2921.262c8.904 3.913 20.781 2.065 26.323-5.903 5.536-7.972 1.883-21.426-7.485-23.764l-4.888-2.043c-7.685-.183-15.489 3.241-20.621 9.171-1.745 1.924-3.322 4.48-3.731 7.275-.999 6.462 4.291 12.521 10.402 15.264zM4086.24 2933.504c4.239 1.863 9.894.982 12.532-2.811 2.636-3.795.896-10.2-3.563-11.313l-2.326-.973c-3.659-.087-7.375 1.543-9.817 4.365-.831.916-1.582 2.133-1.776 3.464-.477 3.077 2.042 5.961 4.95 7.268z" class="colorffffff svgShape"></path><path fill="#ff2020" d="M4715.823 2553.86c-52.24-10.839-106.263-22.879-148.805-55.077-24.343-18.424-45.082-51.022-31.104-78.164 11.65-22.624 40.687-28.676 65.959-31.654 338.099-39.841 686.774 14.208 996.945 154.536 75.855 34.319 158.425 85.913 168.891 168.51-334.057 27.531-726.01-90.54-1051.886-158.151z" opacity=".24" class="colorffffff svgShape"></path><ellipse cx="5276.45" cy="2454.001" fill="#ff2020" rx="72.811" ry="18.394" transform="rotate(-169 5276.686 2454.144)" class="colorffffff svgShape"></ellipse><circle cx="5137.265" cy="2426.945" r="18.395" fill="#ff2020" class="colorffffff svgShape"></circle><path fill="#410066" d="M1972.97 3185.233c-26.849-28.888-52.48-59.123-76.775-90.469-12.542-16.183-24.568-32.771-36.346-49.54 139.335-3.506 278.982-4 418.492-.901 262.458 5.829 520.666 23.864 776.116 49.414 345.841 34.592 686.605 83.009 1025.877 133.962a65387.03 65387.03 0 0 1 57.125 8.602c29.445 4.445 58.884 8.9 88.313 13.367 18.195 2.761 36.389 5.521 54.578 8.287 104.288 15.847 208.51 31.705 312.758 47.271 15.854 2.368 31.707 4.739 47.564 7.093 51.121 7.58 102.252 15.08 153.407 22.451 39.061 5.629 78.323 11.155 117.676 16.625 13.196 1.835 26.363 3.686 39.59 5.5 83.709 11.479 168.048 22.505 252.84 32.969 13.36 1.649 26.733 3.277 40.116 4.897 78.714 9.521 157.816 18.499 237.203 26.828 12.393 1.303 24.785 2.603 37.193 3.868 71.986 7.354 144.188 14.146 216.537 20.277-113.436 73.985-229.133 137.435-322.83 178.179-65.645 28.544-132.965 55.31-201.663 80.233 65.374 81.68 86.618 198.588 30.829 357.516-10.735 30.585-38.099 65.572-68.125 53.359-12.414-5.047-20.332-17.008-28.153-27.891-92.864-129.22-260.02-177.792-407.256-246.205-540.888 119.438-1123.394 126.324-1635.996-19.123-77.072-21.867-152.781-48.159-227.42-77.299-48.857 11.29-97.97 21.296-147.52 29.083-275.24 43.255-590.126 3.722-773.1-206.398-18.442-21.179-36.241-47.837-30.185-75.261 6.606-29.921 35.999-43.798 67.951-49.555 13.177-2.375 26.778-3.401 39.416-3.551 77.931-.916 157.203.91 234.879-5.261-106.302-72.291-205.476-154.067-293.091-248.327z" opacity=".48" class="color003f66 svgShape"></path><path fill="#ff2020" d="M541.756 3101.111c38.547 16.485 66.429 23.883 85.484 30.212 19.329 5.6 30.328 9.21 37.894 12.593 15.395 5.879 17.121 10.398 49.04 17.041-29.833-1.983-59.417-5.879-88.807-10.977-57.663-13.575-126.878-42.471-171.082-74.123-11.068-7.832-20.513-15.859-28.878-22.392-8.197-6.764-14.139-13.558-18.878-18.286-9.246-9.757-11.6-13.79-4.122-9.698 4.77 2.764 22.145 16.72 47.873 31.349 12.316 8.045 27.733 14.778 42.827 23.047 15.97 6.91 31.99 15.052 48.649 21.234zM363.352 3017.938c11.981 11.425 12.413 14.943 25.18 25.465-14.051-8.322-26.513-18.79-40.182-28.389l15.002 2.924zM846.239 3161.707c27.933-.952 55.89-2.957 83.794-5.796 19.525-.93-27.966 5.043-25.235 5.524 31.595-1.143 63.231-3.396 94.865-6.357-64.241 6.772-95.839 9.246-114.786 10.723-18.933 1.53-25.229.543-38.638-4.094zM1961.445 3032.355c64.728-.465-48.578 11.63-74.228 17.857-53.571 4.479-101.363 4.954-58.885-3.198 70.347-7.745 99.228-10.926 133.113-14.659z" class="colorffffff svgShape"></path><path fill="#ff2020" d="M1334.262 3078.12c-14.806 7.69-67.708 21.865-114.567 33.208-46.841 11.508-87.739 20.012-77.877 21.774 8.554 1.54 17.074 2.968 39.557.122 30.411-7.852 60.675-16.248 90.873-24.926 229.691-53.771-93.006 32.932 62.56 1.485 33.155-8.64 49.682-13.008 63.406-17.575 74.532-21.489 52.412-18.258 7.333-11.743 54.966-14.228 92.536-16.96 117.754-19.483 25.556-2.122 40.041-1.549 51.314-.675 22.557 1.792 32.422 5.696 93.086-2.57 166.451-23.177 62.377-23.136 102.135-32.671-.158 6.492 76.123 2.99 183.26-1.685 107.143-4.944 245.244-9.5 368.708-10.54 231.321-8.427 490.142 19.356 765.274 48.592 117.007 17.104 269.115 43.861 421.703 72.899-.163.65.056 1.355-.356 1.956 3.82.152 6.235-.017 6.365-.719 110.678 28.908 374.78 68.377 398.858 88.23l27.498 4.303c136.138 26.745-1.048 5.14 76.502 23.976 125.969 23.974 290.209 69.185 357.402 69.791 10.075 2.833-3.588.788 6.523 3.63l102.758 17.364c7.347-1.597 28.565-1.2 12.136-7.519 23.741 4.633 45.111 4.725 78.95 11.895 85.542 15.329 9.209 7.829 39.504 15.816 216.398 34.396 464.639 68.357 672.638 90.66-.509 5.292 59.257 12.717 132.068 17.378 36.342 2.987 76.009 4.145 112.874 5.403 36.849 1.557 70.975 1.842 96.37 1.723 101.358 6.919 211.065-.041 314.069-8.34 102.951-11.578 197.664-22.231 276.246-31.07-11.164 2.615-23.395 5.174-36.281 7.672l-40.393 5.779c-27.699 3.623-56.356 7.187-82.748 10.014-52.888 4.35-96.553 7.99-105.051 12.383l42.193-.152c23.686-1.585 50.957-2.525 79.29-5.043l86.038-8.7c56.434-6.637 107.635-16.648 134.828-24.511-52.785 4.108-56.836.922-74.602.557 41.333-8.797 47.781-11.674 99.577-22.485 76.101-15.144 158.103-36.583 159.496-31.949-40.438 13.788-85.711 22.593-123.663 31.188-6.438 4.183 24.333-.199 62.059-8.563 37.842-7.851 82.313-20.709 104.811-26.25-41.22 4.874-9.915-8.659 4.273-17.904 14.15-9.79 12.701-10.169-93.211 14.244 38.182-10.972 76.143-22.737 113.402-36.511 41.14-20.339-50.348 9.323-129.947 25.619-79.695 16.446-145.488 25.228-47.057-1.908 19.317-8.225-8.064-5.126 57.77-25.095-37.512 5.479-110.939 21.863-140.884 29.83-13.171-.307-37.788 2.327-67.447 6.27-14.851 2.097-30.926 4.365-47.472 6.697-16.645 1.828-33.752 3.707-50.522 5.547-66.96 8.249-128.878 11.201-132.81 5.297-48.517 7.251-91.044 9.649-130.042 11.356-38.981 2.169-74.604.946-109.604-.05-34.998-.723-69.437-2.894-106.264-5.345-37.225-2.059-76.424-4.228-120.601-6.67-56.622-2.569-89.673-4.072-108.913-4.946-19.076-.456-23.995.495-23.888 2.05.202 3.109 20.563 8.64-12.333 10.125-56.652-5.181-113.347-10.081-164.639-12.836-50.915-3.265-96.926-6.211-131.518-8.427-61.737-7.312-98.773-16.676-57.383-13.53-461.033-68.092-921.29-180.463-1382.186-269.721-186.256-44.091-363.241-62.85-547.962-102.429l30.765 6.501c4.266 2.056-19.78-.417-38.749-2.21 30.629 6.515 59.983 13.58 88.023 20.549-55.048-9.535-111.079-16.922-166.097-23.982-31.335 1.934-110.25-8.069-191.813-14.645-40.697-4-82.071-6.723-118.203-8.399-36.106-1.95-66.996-2.445-86.854-.47-154.556-8.941-199.645-8.98-244.923-11.489-45.313-1.654-91.062-4.691-247.418.13-166.924 11.943-364.251 36.068-559.963 63.711-35.496 4.852-69.48 9.153-93.269 11.303-25.464 2.714-39.534 4.507-33.636 1.967-43.931 9.962-93.496 23.537-144.149 35.994-50.415 12.563-101.087 24.067-143.695 32.613-90.411 20.623-132.936 27.73-143.197 31.639-10.294 3.527 11.658 3.043 49.419-1.217 75.67-7.3 213.586-36.71 282.519-54.287z" class="colorffffff svgShape"></path><path fill="#ff2020" d="M5042.988 3442.631c-14.648 4.285 78.724 17.857 109.865 23.069l41.941 2.421c104.763 7.444 108.838.396 42.945-8.416-24.756 2.925-136.042-8.011-194.751-17.074zM4211.734 3306.32l14.767-3.013-126.17-23.649c2.589 4.39 63.76 16.681 111.403 26.662zM6859.57 3179.406c-51.248 33.103-89.695 51.98-129.191 69.957-19.473 9.618-39.816 17.799-62.421 27.26-22.369 10.033-47.712 19.594-77.586 31.352l26.477 1.375c118.626-40.146 243.053-96.611 359.829-196.486 32.996-40.486.298-7.397-42.573 22.707-10.584 7.693-20.98 16.332-31.515 23.029-10.549 6.463-20.27 12.419-28.176 17.26-15.672 9.173-23.566 12.542-14.844 3.546z" class="colorffffff svgShape"></path><path fill="#ff2020" d="M6617.546 3281.915c100.563-44.224 206.785-99.112 296.521-169.896 90.077-69.824 160.819-157.643 194.799-242.06-5.693 4.069-12.526 12.039-20.214 23.071-7.141 11.359-18.836 23.637-29.557 39.176l-17.354 24.479c-5.82 8.77-13.801 16.567-20.9 25.481-14.949 17.245-29.215 37.119-47.775 54.24-68.83 73.473-163.159 138.644-226.232 167.262-20.09 10.949-38.154 20.795-55.527 30.262-17.891 8.576-35.064 16.809-52.891 25.352-36.118 16.241-75.564 32.635-130.541 51.709-80.668 29.32 55.538-6.521 109.671-29.076zM7144.182 2823.374c8.623-22.15 17.164-48.11 21.415-61.005 3.731-16.626-13.337 24.358-22.203 42.387-7.353 22.186-28.658 79.88.788 18.618z" class="colorffffff svgShape"></path><linearGradient id="e" x1="3068.793" x2="3068.793" y1="2093.332" y2="843.181" gradientTransform="matrix(-1 0 0 1 7116.769 0)" gradientUnits="userSpaceOnUse"><stop offset="0" stop-color="#00ffdf" class="stopColor00fff6 svgShape"></stop><stop offset=".01" stop-color="#03fedf" class="stopColor03fef6 svgShape"></stop><stop offset=".131" stop-color="#25f7dd" class="stopColor25f7f5 svgShape"></stop><stop offset=".261" stop-color="#41f5df" class="stopColor41f0f5 svgShape"></stop><stop offset=".401" stop-color="#56f4e0" class="stopColor56ebf4 svgShape"></stop><stop offset=".554" stop-color="#65f4e2" class="stopColor65e8f4 svgShape"></stop><stop offset=".734" stop-color="#6ef4e3" class="stopColor6ee6f4 svgShape"></stop><stop offset="1" stop-color="#71f4e4" class="stopColor71e5f4 svgShape"></stop></linearGradient><path fill="url(#e)" d="M5013.074 861.163c352.693 59.627 696.252 302.057 772.885 651.45 9.399 42.857 14.449 88.979-2.307 129.529s-61.626 72.289-103.965 60.773c-65.645-17.855-103.674-124.541-166.591-98.668-68.573 99.378 27.631 243.716-22.058 353.759-18.887 41.827-56.815 72.282-97.424 93.663-133.132 70.094-308.238 50.191-422.244-47.991-34.771-29.945-66.55-67.649-111.075-78.749-60.013-14.96-120.353 23.656-182.19 24.865-78.914 1.543-144.417-56.131-213.629-94.072-69.213-37.941-173.051-48.264-212.071 20.346-32.781 57.639-4.071 148.626-60.704 183.118-58.135 35.407-122.592-36.188-149.064-98.898-26.472-62.71-71.456-141.395-137.787-126.11-55.309 12.745-91.667 90.376-146.325 75.075-26.109-7.309-43.766-35.208-70.66-38.646-55.188-7.057-62.557 75.551-80.499 128.217-19.68 57.767-83.175 97.089-143.66 88.968s-111.358-62.8-115.104-123.712c-4.761-77.444 43.457-184.571-28.285-214.124-69.355-28.569-113.556 75.387-175.845 117.177-71.587 48.028-168.684 6.816-237.965-44.481-69.282-51.297-140.18-115.738-226.361-113.699-66.194 1.566-126.615 43.415-192.825 43.985-103.352.891-183.88-105.29-185.956-208.625-2.076-103.334 54.86-199.011 122.538-277.126 337.729-389.813 830.935-392.52 1303.385-346.299 434.525 42.508 854.567-132.628 1285.786-59.725z"></path><path fill="#feffcc" d="M2744.339 1121.312c-22.247-2.293-43.516-13.383-57.961-32.543l-66.907-88.751c-27.598-36.609-20.227-89.143 16.382-116.744l3.841-2.895-28.023-37.169c-8.266-10.963-6.057-26.699 4.907-34.962l19.936-15.029c10.964-8.266 26.697-6.06 34.966 4.904l28.02 37.172 2.917-2.201c36.609-27.598 89.143-20.227 116.74 16.382l66.908 88.751c16.353 21.688 20.368 48.938 13.341 73.3-2.081 7.218 3.497 14.047 10.966 14.819 22.248 2.296 43.517 13.386 57.962 32.547l30.205 40.064c-59.249 26.739-114.495 59.285-164.301 99.101-28.224-8.296-55.684-19.669-82.107-33.855a84.436 84.436 0 0 1 3.176-28.07c2.08-7.219-3.495-14.049-10.968-14.821z" class="colorcceaff svgShape"></path><path fill="#c5fff8" d="M2752.129 1164.202c26.424 14.186 53.884 25.559 82.107 33.855a657.415 657.415 0 0 0-44.642 39.164l-20.948-27.787c-10.242-13.586-15.64-29.355-16.517-45.232z" class="colorc5e2ff svgShape"></path><path fill="#1483c5" d="m2615.13 849.229 61.182-46.124c5.293-3.991 6.359-11.586 2.369-16.88l-16.584-21.998c-3.99-5.293-11.586-6.359-16.879-2.369l-61.181 46.124c-5.294 3.99-6.359 11.586-2.369 16.879l16.584 21.998c3.989 5.294 11.585 6.36 16.878 2.37z" class="color147fcc svgShape"></path><path fill="#33a3e5" d="m2649.804 813.312 14.792-11.151c3.051-2.3 3.665-6.678 1.365-9.729l-13.939-18.49c-2.3-3.051-6.678-3.665-9.729-1.365l-14.792 11.151c-3.051 2.3-3.665 6.678-1.365 9.729l13.939 18.49c2.3 3.05 6.678 3.664 9.729 1.365z" class="color33aae5 svgShape"></path><path fill="#ff2020" d="m2822.773 906.908 33.89 53.015c4.222 6.606 8.529 13.43 9.683 21.276 1.848 12.567-4.907 25.875-14.703 35.479-6.89 6.755-15.818 12.258-25.322 12.868-10.711.688-20.397-4.97-27.081-12.399-6.684-7.429-10.97-16.567-15.895-25.226-18.395-32.341-45.29-54.569-77.195-74.108-18.862-11.551-34.943-30.894-13.59-51.113 48.711-46.129 107.424 4.557 130.213 40.208zM2869.885 1094.66c15.46-29.983 49.908-28.041 71.761-8.802 10 8.805 19.367 17.658 28.337 26.604-27.685 13.709-54.378 28.825-79.967 45.459-14.727-19.73-30.173-43.795-20.131-63.261z" opacity=".7" class="colorffffff svgShape"></path><path fill="#feffcc" d="M4635.698 860.017a57.48 57.48 0 0 1 18.209-6.206c5.048-.817 7.629-6.236 5.931-11.063-5.057-14.365-4.412-30.681 3.183-45.148l35.179-67c14.514-27.637 48.998-38.376 76.637-23.864l2.898 1.524 14.736-28.062c4.347-8.275 14.673-11.494 22.951-7.146l15.05 7.901c8.278 4.347 11.493 14.676 7.146 22.955l-14.732 28.059 2.2 1.155c27.64 14.512 38.376 48.998 23.864 76.635l-35.181 67.003c-8.596 16.371-24.206 26.768-41.247 29.525-5.051.82-7.632 6.239-5.935 11.063 5.057 14.365 4.416 30.685-3.182 45.151l-17.183 32.723c-33.037-17.957-66.919-33.199-101.373-46.268-7.872-28.688-10.707-58.621-9.151-88.937z" class="colorcceaff svgShape"></path><path fill="#c5fff8" d="M4612.657 883.34c5.386-10.257 13.523-18.167 23.041-23.323-1.557 30.316 1.278 60.249 9.152 88.937a992.265 992.265 0 0 0-56.426-19.463l24.233-46.151z" class="colorc5e2ff svgShape"></path><path fill="#1483c5" d="m4789.77 684.078 46.188 24.253c3.996 2.098 8.982.545 11.08-3.451l8.72-16.607c2.099-3.996.546-8.982-3.45-11.081l-46.188-24.252c-3.996-2.098-8.982-.545-11.081 3.451l-8.72 16.607c-2.098 3.996-.545 8.982 3.451 11.08z" class="color147fcc svgShape"></path><path fill="#33a3e5" d="m4821.966 694.979 11.166 5.864a4.745 4.745 0 0 0 6.387-1.989l7.329-13.958a4.744 4.744 0 0 0-1.988-6.386l-11.167-5.863a4.744 4.744 0 0 0-6.386 1.988l-7.33 13.958c-1.209 2.303-.315 5.178 1.989 6.386z" class="color33aae5 svgShape"></path><path fill="#ff2020" d="m4814.645 828.686-22.782 36.28c-2.839 4.521-5.788 9.157-10.282 12.148-7.199 4.792-17.356 4.504-26.117 1.266-6.162-2.277-12.146-6.173-15.286-11.847-3.538-6.395-2.872-14.002-.243-20.278 2.631-6.275 7.01-11.572 10.908-17.122 14.562-20.729 20.425-43.751 23.175-69.075 1.626-14.972 8.857-30.497 27.516-23.231 42.562 16.574 28.432 67.461 13.111 91.859zM4671.209 958.938c8.715-14.565 20.634-47.378 41.549-46.651 22.955.799 31.774 22.571 26.287 41.621-3.219 11.17-6.875 21.64-10.728 31.891a814.67 814.67 0 0 0-57.321-26.493c.072-.122.141-.245.213-.368z" opacity=".7" class="colorffffff svgShape"></path><path fill="#feffcc" d="m5183.273 1769.286 182.774-99.011-111.011-335.847-292.436 158.416z" class="colorcceaff svgShape"></path><ellipse cx="5107.993" cy="1412.113" fill="#b3fff6" rx="166.294" ry="22.52" transform="rotate(151.558 5107.953 1412.046)" class="colorb3ddff svgShape"></ellipse><ellipse cx="5274.66" cy="1719.781" fill="#b3fff6" rx="103.934" ry="18.838" transform="rotate(151.558 5274.622 1719.713)" class="colorb3ddff svgShape"></ellipse><path fill="#ff2020" d="M5225.988 1411.728c7.9-7.235 12.408-7.098 20.136-4.821 14.54 4.286 64.365 191.057 84.271 256.056 1.767 5.769 3.53 11.926 1.498 18.255-2.78 8.658-11.745 15.09-20.149 20.393-9.839 6.208-9.19 6.282-19.416 11.793-3.5 1.886-7.149 3.773-10.931 4.265-9.147 1.188-15.293-5.867-19.711-12.418a398.408 398.408 0 0 1-26.56-45.653c-7.055-14.217-59.235-106.181-73.757-140.405-6.561-15.46-22.848-50.725-10.727-59.261 18.488-13.02 51.79-26.633 75.346-48.204z" opacity=".7" class="colorffffff svgShape"></path><path fill="#feffcc" d="m3247.715 1088.803 160.838 58.871 146.861-251.741-257.34-94.194z" class="colorcceaff svgShape"></path><ellipse cx="3427.234" cy="847.496" fill="#8ffff1" rx="137.019" ry="18.555" transform="rotate(-159.901 3427.176 847.543)" class="color8fd2ff svgShape"></ellipse><ellipse cx="3328.134" cy="1118.239" fill="#c5fff8" rx="85.637" ry="15.521" transform="rotate(-159.901 3328.074 1118.277)" class="colorc5e2ff svgShape"></ellipse><path fill="#ff2020" d="M3491.832 920.156c8.778.933 11.151 3.792 13.959 9.806 5.285 11.317-82.883 143.96-112.168 191.707-2.6 4.238-5.439 8.686-10.457 10.882-6.863 3.005-15.726.978-23.584-1.32-9.201-2.69-8.893-2.25-17.873-5.559-3.074-1.133-6.23-2.357-8.597-4.425-5.723-5-4.717-12.644-3.081-18.946a328.269 328.269 0 0 1 13.707-41.304c4.933-12.112 33.265-94.498 46.48-122.133 5.97-12.484 18.864-41.777 30.748-38.947 18.124 4.316 44.695 17.458 70.866 20.239z" opacity=".7" class="colorffffff svgShape"></path><path fill="#ff2020" d="m4286.347 1547.929-8.103 19.514 353.107 146.632c11.93 4.954 25.418 3.569 36.092-3.698 10.661-7.273 16.901-19.323 16.659-32.226l-2.4-126.969-21.137.398 2.402 126.962c.113 5.826-2.604 11.08-7.425 14.366-4.823 3.292-10.688 3.896-16.088 1.653l-353.107-146.632zM3721.832 1490.067c19.556 49.556 75.784 73.964 125.34 54.408 41.994-16.572 65.811-59.479 60.237-102.344 25.2 35.12 71.899 50.199 113.894 33.628 41.994-16.572 65.811-59.479 60.237-102.344 25.2 35.119 71.899 50.199 113.894 33.627 49.557-19.556 73.965-75.784 54.408-125.34-16.571-41.994-59.479-65.811-102.344-60.237 35.12-25.201 50.199-71.9 33.628-113.894-19.556-49.556-75.784-73.964-125.34-54.408-41.994 16.572-65.812 59.479-60.237 102.343-25.201-35.119-71.9-50.199-113.895-33.627s-65.811 59.479-60.236 102.343c-25.201-35.119-71.9-50.199-113.894-33.627-49.556 19.556-73.964 75.785-54.408 125.34 16.572 41.994 59.479 65.811 102.343 60.237-35.119 25.202-50.199 71.901-33.627 113.895zm88.564-236.196c14.668 37.169-3.636 79.337-40.806 94.005s-79.337-3.637-94.005-40.806 3.636-79.337 40.806-94.005c37.169-14.668 79.337 3.636 94.005 40.806zm28.297 14.13c20.664 28.796 55.751 44.026 90.897 39.457-28.796 20.663-44.026 55.75-39.457 90.897-20.664-28.796-55.751-44.027-90.897-39.457 28.796-20.663 44.027-55.75 39.457-90.897zm145.833-82.846c14.668 37.169-3.636 79.337-40.806 94.005s-79.338-3.637-94.006-40.806c-14.667-37.169 3.637-79.337 40.807-94.005s79.337 3.636 94.005 40.806zm28.298 14.13c20.664 28.795 55.751 44.026 90.897 39.457-28.796 20.663-44.026 55.75-39.457 90.897-20.664-28.796-55.751-44.027-90.897-39.457 28.796-20.662 44.027-55.75 39.457-90.897zm105.028 11.159c-37.17 14.668-79.337-3.637-94.005-40.806s3.636-79.337 40.806-94.005 79.337 3.637 94.005 40.806-3.637 79.337-40.806 94.005zm-25.289 133.325c-14.668-37.169 3.637-79.337 40.806-94.005 37.17-14.668 79.337 3.636 94.005 40.806s-3.636 79.337-40.806 94.005c-37.17 14.668-79.338-3.636-94.005-40.806zm-174.131 68.716c-14.668-37.17 3.636-79.337 40.806-94.005 37.169-14.668 79.337 3.636 94.005 40.806s-3.636 79.337-40.806 94.005-79.337-3.636-94.005-40.806zm-174.132 68.716c-14.668-37.17 3.636-79.337 40.806-94.005 37.169-14.668 79.337 3.636 94.005 40.806s-3.637 79.337-40.806 94.005c-37.169 14.668-79.337-3.636-94.005-40.806z" class="colorffffff svgShape"></path><path fill="#ffffd2" d="M3089.284 1389.614h21.129v350.965h-21.129z" transform="rotate(-76.621 3099.76 1565.026)" class="colord2ebff svgShape"></path><ellipse cx="3134.078" cy="1573.237" fill="#ff2020" rx="20.879" ry="168.373" transform="rotate(103.379 3133.947 1573.155)" class="colorffffff svgShape"></ellipse><path fill="#ff2020" d="M2812.711 1505.232c42.466-11.233 121.871-25.016 209.007-5.64 3.352.746 5.83 3.998 6.15 8.07l4.57 58.098-220.176-52.365c-3.63-.862-3.296-7.172.449-8.163z" class="colorffffff svgShape"></path><defs><path id="g" d="M4134.309 3198.804c147.156-73.578 245.26-245.26 441.467-220.733 550.205 73.362 1076.031-11.745 1613.938-48.714 1.801 11.03 2.815 22.067 2.814 33.095-.018 201.369-495.161 540.45-782.869 665.557-694.044 301.789-1574.322 406.734-2310.363 197.89-136.75-38.801-269.336-91.188-398.949-149.557-268.555-120.938-529.603-271.282-730.12-487.013-26.85-28.889-52.481-59.123-76.777-90.47 75.911 47.357 156.097 86.065 241.996 112.208 637.674 220.733 1397.978 355.625 1998.863-12.263z" fill="#000000" class="color000000 svgShape"></path></defs></svg>