<svg xmlns="http://www.w3.org/2000/svg" viewBox="0 0 130 130" id="Fish"><path fill="#ff2020" d="M111.069 23.456c.952-.919 5.003-3.641 4.918-3.958-.409-1.787-1.168-3.434-2.2-4.929l7.533 2.562-12.921-7.487-.026.018c-5.899-3.464-14.607-4.514-24.635-1.738a53.524 53.524 0 0 0-6.833 2.415 62.343 62.343 0 0 0-7.314 3.748 70.623 70.623 0 0 0-4.697 3.047C54.319 24.572 45.516 34.84 37.485 45.403c-.018.021-.037.043-.054.066a.378.378 0 0 1-.04.051c-8.513 11.209-16.162 22.735-24.148 31.573a13.568 13.568 0 0 1-.483 2.976c-.017.057-.03.112-.049.172.315.722.499 1.569.548 2.506l13.005 7.532 2.503-5.614c2.958.632 5.955 1.282 9.089 1.762.103.015.209.027.312.043 1.025.151 2.064.279 3.117.387.229.021.458.046.689.066 1.164.103 2.343.175 3.546.195.136 0 .276-.006.412-.006a43.945 43.945 0 0 0 3.206-.092c.317-.021.635-.041.956-.069 1.243-.104 2.5-.248 3.792-.474h.001c.466-.084.935-.172 1.407-.269.01-.005.02-.008.03-.011.219-.046.437-.092.658-.144l.063-.015c.459-.103.92-.215 1.383-.338.036-.008.072-.021.109-.03.199-.052.4-.108.602-.162.031-.013.066-.018.098-.028.23-.066.461-.133.693-.205.024-.005.049-.013.072-.02.204-.062.406-.123.609-.189.056-.016.109-.031.164-.052.196-.062.395-.128.592-.194l.1-.031c.232-.082.461-.161.693-.24.007-.005.014-.005.019-.005l.119-.047c.188-.066.376-.138.565-.204.062-.025.123-.046.186-.072.211-.079.42-.158.633-.24.021-.011.041-.017.062-.025l.699-.282c.064-.025.127-.054.191-.082.178-.071.355-.148.533-.223l.205-.089c.234-.103.471-.205.706-.312a60.306 60.306 0 0 0 5.473-2.812c.145-.084.284-.182.428-.269a72.936 72.936 0 0 0 3.389-2.115c.479-.32.952-.66 1.43-.99a86.398 86.398 0 0 0 2.382-1.713 72.905 72.905 0 0 0 1.527-1.173 91.726 91.726 0 0 0 2.266-1.833c.479-.402.961-.794 1.436-1.206.896-.775 1.777-1.58 2.651-2.389.371-.349.746-.687 1.115-1.037a115.039 115.039 0 0 0 3.057-3.034c.462-.476.909-.962 1.363-1.443.646-.687 1.285-1.378 1.913-2.077.483-.539.958-1.083 1.431-1.628.581-.674 1.151-1.35 1.716-2.027.458-.556.918-1.104 1.364-1.662a125.43 125.43 0 0 0 1.734-2.232c.483-.63.966-1.26 1.432-1.893a122.06 122.06 0 0 0 2.188-3.064c.408-.591.792-1.183 1.186-1.774a95.948 95.948 0 0 0 2.42-3.799c.38-.625.747-1.244 1.107-1.864.354-.606.704-1.211 1.038-1.815.363-.654.7-1.301 1.039-1.948.286-.545.585-1.093.853-1.631a77.523 77.523 0 0 0 1.47-3.116l-.008.006c1.741-3.92 2.959-7.571 3.516-10.718.082-.417-3.97 1.555-4.925 1.744z" class="color1491af svgShape"></path><path fill="#1483c5" d="M113.294 12.478c-5.786-2.601-13.659-3.177-22.592-.704a53.424 53.424 0 0 0-6.833 2.415 62.234 62.234 0 0 0-6.565 3.308c-.249.144-.498.292-.748.44a71.041 71.041 0 0 0-4.698 3.047C61.284 28.423 52.48 38.69 44.45 49.255c-.018.021-.037.043-.054.066a.48.48 0 0 1-.039.051C35.843 60.58 28.192 72.106 20.208 80.945c-.04.941-.204 1.945-.484 2.975l-.049.172c.314.722.5 1.569.548 2.506l6.106 3.536 2.438-5.469c2.958.632 5.955 1.282 9.089 1.762.103.015.209.027.312.043 1.025.151 2.064.279 3.117.387.229.021.458.046.689.066 1.164.103 2.343.175 3.546.195.136 0 .276-.006.412-.006a43.945 43.945 0 0 0 3.206-.092c.317-.021.635-.041.956-.069 1.243-.104 2.5-.248 3.792-.474h.001c.466-.084.935-.172 1.407-.269.01-.005.02-.008.03-.011.219-.046.437-.092.658-.144l.063-.015c.459-.103.92-.215 1.383-.338.036-.008.072-.021.109-.03.199-.052.4-.108.602-.162.031-.013.066-.018.098-.028.23-.066.461-.133.693-.205.024-.005.049-.013.072-.02.204-.062.406-.123.609-.189.056-.016.109-.031.164-.052.196-.062.395-.128.592-.194l.1-.031c.232-.082.461-.161.693-.24.007-.005.014-.005.019-.005l.119-.047c.188-.066.376-.138.565-.204.062-.025.123-.046.186-.072.211-.079.42-.158.633-.24.021-.011.041-.017.062-.025l.699-.282c.064-.025.127-.054.191-.082.178-.071.355-.148.533-.223l.205-.089c.234-.103.471-.205.706-.312a60.306 60.306 0 0 0 5.473-2.812c.145-.084.284-.182.428-.269a72.936 72.936 0 0 0 3.389-2.115c.479-.32.952-.66 1.43-.99a86.398 86.398 0 0 0 2.382-1.713 72.905 72.905 0 0 0 1.527-1.173 91.726 91.726 0 0 0 2.266-1.833c.479-.402.961-.794 1.436-1.206.896-.775 1.777-1.58 2.651-2.389.371-.349.746-.687 1.115-1.037a115.039 115.039 0 0 0 3.057-3.034c.462-.476.909-.962 1.363-1.443.646-.687 1.285-1.378 1.913-2.077.483-.539.958-1.083 1.431-1.628.581-.674 1.151-1.35 1.716-2.027.458-.556.918-1.104 1.364-1.662a125.43 125.43 0 0 0 1.734-2.232c.483-.63.966-1.26 1.432-1.893a122.06 122.06 0 0 0 2.188-3.064c.408-.591.792-1.183 1.186-1.774a95.948 95.948 0 0 0 2.42-3.799c.38-.625.747-1.244 1.107-1.864.354-.606.704-1.211 1.038-1.815.363-.654.7-1.301 1.039-1.948.286-.545.585-1.093.853-1.631a77.523 77.523 0 0 0 1.47-3.116l-.008.006c1.741-3.92 2.959-7.571 3.516-10.718.082-.415-3.97 1.557-4.925 1.746.952-.919 5.003-3.641 4.918-3.958-.409-1.787-1.168-3.434-2.2-4.929l7.533 2.562-8.026-4.655z" class="color157ead svgShape"></path><path fill="#ff9a3a" d="m79.834 86.675-4.619 9.622.353.143c2.627.794 5.72.123 8.787-1.648 4.339-2.507 8.627-7.218 11.458-13.119a32.56 32.56 0 0 0 1.964-5.161 86.545 86.545 0 0 1-3.85 2.796c-.183.447-.381.9-.598 1.352-2.121 4.422-5.328 7.952-8.576 9.826-2.291 1.321-4.602 1.823-6.566 1.23l-.251-.109 2.466-5.138c-.148.054-.3.109-.448.161-.041.014-.079.029-.12.045" class="colore259b1 svgShape"></path><path fill="#592d72" d="m80.401 86.468-2.466 5.138.251.109c1.965.593 4.275.091 6.566-1.23 3.248-1.874 6.455-5.404 8.576-9.826.217-.451.415-.904.598-1.352a72.487 72.487 0 0 1-4.72 2.979 60.306 60.306 0 0 1-6.179 3.124c-.068.03-.138.059-.205.09-.178.074-.355.15-.533.223-.064.028-.127.056-.191.082-.234.095-.467.189-.699.281l-.062.025-.633.241c-.062.026-.124.046-.186.071a2.806 2.806 0 0 1-.117.045" class="color9b1077 svgShape"></path><path fill="#ff9a3a" d="M48.601 91.442 45.137 97.1l.286.24c2.863 1.928 6.771 1.49 10.688-.773 1.891-1.091 3.783-2.606 5.56-4.485a44.96 44.96 0 0 1-3.139.161 18.155 18.155 0 0 1-2.179 1.487c-3.246 1.875-6.486 2.24-8.859.643l-.234-.209 1.637-2.676-.296-.046" class="colore259b1 svgShape"></path><path fill="#592d72" d="m48.896 91.488-1.637 2.676.234.209c2.373 1.598 5.613 1.232 8.859-.643.729-.42 1.459-.919 2.179-1.487-3.362.057-6.554-.264-9.635-.755" class="color9b1077 svgShape"></path><path fill="#ff9a3a" d="M69.272 7.108c-15.07 8.703-27.479 29.484-29.199 48.036.015-.018.03-.035.047-.062C41.888 38.73 52.815 20.614 66.063 12.97c8.533-4.932 16.125-4.414 20.941.384a62.849 62.849 0 0 1 8.118-2.865C90.061 2.498 80.373.7 69.272 7.108" class="colore259b1 svgShape"></path><path fill="#8d23c9" d="M66.063 12.97C52.815 20.614 41.888 38.73 40.12 55.083c.02-.027.043-.054.064-.079 1.798-13.955 11.124-29.172 22.392-35.675 6.098-3.523 11.642-3.846 15.742-1.521a74.612 74.612 0 0 1 8.687-4.455c-4.817-4.797-12.408-5.315-20.942-.383" class="colorc92396 svgShape"></path><path fill="#592d72" d="M62.576 19.329c-11.268 6.503-20.594 21.72-22.392 35.675 9.538-12.545 19.994-24.742 32.554-33.58a84.355 84.355 0 0 1 5.58-3.615c-4.1-2.326-9.644-2.003-15.742 1.52M1 59.139 1.079 86.7l4.45 3.713-4.415 8.797.075 27.563c5.8-3.737 11.444-10.049 15.38-17.87 3.657-7.267 5.181-14.486 4.734-20.372-.252 2.962-1.189 6.272-2.856 9.6-2.407 4.786-5.87 8.657-9.421 10.934L8.98 92.251l2.717-5.399-2.739-2.245-.049-16.853c3.555-1.791 7.026-1.961 9.452.072 1.679 1.375 2.632 3.587 2.901 6.264.41-6.392-1.15-11.805-4.832-14.833C12.464 55.951 6.8 56.18 1 59.139" class="color9b1077 svgShape"></path><path fill="#8d23c9" d="m8.909 67.754.049 16.853 2.739 2.245-2.717 5.399.046 16.813c3.551-2.276 7.014-6.147 9.421-10.934 1.667-3.327 2.604-6.638 2.856-9.6.072-.855.089-1.675.047-2.461-.082-1.592-.395-3.034-.931-4.258.03-.097.057-.197.083-.292.478-1.748.754-3.451.822-5.051.034-.824.014-1.623-.062-2.38-.27-2.677-1.223-4.889-2.901-6.264-2.425-2.031-5.897-1.861-9.452-.07" class="colorc92396 svgShape"></path><path fill="#14c5af" d="M116.711 18.799c-1.45.838-4.897 1.365-8.681 1.222-4.728-.161-8.202-1.275-7.77-2.488.09-.244.328-.472.688-.679 1.451-.838 4.893-1.354 8.681-1.222 4.728.18 8.202 1.291 7.77 2.486-.087.243-.325.472-.688.681M68.444 49.328c-3.497 2.02-6.336.401-6.347-3.618-.012-3.999 2.809-8.884 6.306-10.904l.185-.084.041 14.48-.185.126m9.76-5.636c-3.482 2.013-6.32.396-6.332-3.625-.011-3.999 2.809-8.884 6.291-10.896l.2-.093.04 14.48-.199.134m9.759-5.631c-3.481 2.01-6.32.392-6.331-3.628-.012-4 2.809-8.884 6.29-10.895l.201-.095.041 14.483-.201.135m9.775-5.644c-3.499 2.018-6.336.399-6.348-3.62-.011-3.998 2.808-8.884 6.307-10.901l.185-.087.04 14.483-.184.125M83.344 21.178c-.248.144-.497.292-.747.44a71.041 71.041 0 0 0-4.698 3.047C67.324 32.104 58.521 42.372 50.49 52.936c-.018.021-.037.043-.054.066-.014.021-.027.036-.039.051-8.514 11.209-16.164 22.735-24.148 31.574-.04.941-.204 1.945-.484 2.975l3.386-1.953c.054-3.992 2.847-8.785 6.288-10.771l.199-.098.021 7.123 2.949-1.7c.047-3.994 2.842-8.797 6.287-10.784l.2-.097.021 7.136 2.948-1.698c.041-3.999 2.839-8.81 6.288-10.802l.201-.097.021 7.148 3.249-1.872c.034-3.999 2.836-8.82 6.288-10.814l.2-.098.021 7.167 3.266-1.882c.027-4.004 2.814-8.823 6.287-10.83l.201-.098.021 7.179 3.248-1.874c.021-4.004 2.827-8.843 6.289-10.84l.201-.098.021 7.189 2.627-1.51c.007-7.052 4.968-15.626 11.096-19.162l.334-.177.009 3.116.011 3.751.018 5.865 2.725-1.566 11.215-19.428.088.051c.286-.389.616-.696.949-.891.424-.24.846-.305 1.174-.125l1.376.783 1.368-2.368c.325-.556.748-.983 1.17-1.227.423-.243.847-.305 1.175-.126.637.38.641 1.572.007 2.691l-1.385 2.378 1.395.773c.569.344.632 1.326.189 2.319l.051.028-3.743 6.485 8.359-4.813c.951-.919 5.002-3.641 4.92-3.958-2.346-10.216-15.487-16.217-32.251-11.575a53.424 53.424 0 0 0-6.833 2.415 63.163 63.163 0 0 0-6.566 3.311" class="color08b2c4 svgShape"></path><path fill="#1475af" d="M76.642 91.125c.176-.072.354-.149.532-.224-.178.075-.357.152-.532.224m-.892.363.699-.282c-.234.095-.468.19-.699.282m-.694.266c.211-.079.42-.158.632-.24-.212.082-.423.164-.632.24m-.752.277c.188-.066.377-.139.566-.205-.191.067-.379.139-.566.205m-1.522.518c.195-.062.394-.129.591-.195l-.591.195m-.773.24c.203-.062.405-.123.609-.189-.203.066-.407.128-.609.189m-.766.225c.23-.066.461-.133.692-.204-.231.071-.461.137-.692.204m-.701.189c.2-.051.401-.107.603-.161-.203.054-.402.11-.603.161m27.42-47.181.017 5.945.011 3.751v.115l27.502-15.879c-7.203 16.206-23.618 37.157-41.939 47.733a60.342 60.342 0 0 1-5.467 2.812c-.235.107-.473.21-.707.312.234-.103.471-.205.707-.312a60.181 60.181 0 0 0 5.473-2.812C106.311 74.553 126.143 45.402 129 29.241c.082-.414-3.969 1.557-4.925 1.746l-8.359 4.813-8.486 14.699-7.541-4.319.999-1.726-2.726 1.568m-72.197 41.58c-.017.057-.031.113-.049.172.314.722.5 1.569.548 2.506 12.765-.619 24.72 6.526 40.627 3.73-11.5 2.021-20.929-1.159-30.099-2.845l53.695-30.999c-2.43-.945-3.981-3.562-3.992-7.481v-.056l-2.627 1.51.02 7.292-.201.138c-3.481 2.008-6.319.39-6.331-3.609l.001-.072-3.248 1.874.02 7.308-.199.133c-3.499 2.021-6.32.392-6.332-3.607l.002-.084-3.266 1.882.02 7.319-.199.133c-3.482 2.013-6.32.395-6.332-3.604l.002-.103-3.249 1.872.021 7.335-.201.136c-3.482 2.01-6.32.392-6.332-3.607l.003-.113-2.948 1.698.021 7.348-.2.136c-3.481 2.01-6.319.389-6.331-3.61a2.9 2.9 0 0 1 .003-.128l-2.949 1.7.021 7.363-.201.133c-3.482 2.013-6.32.395-6.332-3.604 0-.049.002-.098.003-.146l-3.389 1.95" class="color149caf svgShape"></path><path fill="#ff2020" d="M97.591 33.467c-6.128 3.536-11.089 12.11-11.096 19.162v.056c.011 3.92 1.562 6.536 3.992 7.481l7.502-4.332v-.115l-.251.146c-4.653 2.686-8.433.532-8.448-4.795-.016-5.349 3.739-11.85 8.393-14.535l.251-.128-.009-3.116-.334.176" class="color1491af svgShape"></path><path fill="#14c5af" d="M97.683 36.534c-4.653 2.686-8.408 9.187-8.393 14.535.016 5.327 3.795 7.48 8.448 4.795l.251-.146-.011-3.751-.151.087c-2.846 1.644-5.162.341-5.173-2.929-.009-3.27 2.294-7.256 5.14-8.899l.15-.069-.011-3.751-.25.128" class="color08b2c4 svgShape"></path><path fill="#1475af" d="M97.794 40.227c-2.846 1.644-5.148 5.63-5.14 8.899.011 3.27 2.327 4.572 5.173 2.929l.151-.087-.017-5.945-.018-5.865-.149.069" class="color149caf svgShape"></path><path fill="#ff2020" d="M97.697 17.896c-3.499 2.018-6.317 6.903-6.307 10.901.012 4.02 2.849 5.638 6.348 3.62l.184-.125-.04-14.483-.185.087M87.922 23.538c-3.481 2.011-6.302 6.895-6.29 10.895.011 4.02 2.85 5.638 6.331 3.628l.201-.134-.041-14.483-.201.094M78.163 29.172c-3.482 2.012-6.302 6.896-6.291 10.896.012 4.021 2.85 5.638 6.332 3.625l.199-.133-.04-14.48-.2.092M68.565 92.066c-3.498 2.021-6.335.402-6.346-3.597-.012-4.02 2.807-8.905 6.306-10.925l.185-.087.041 14.483-.186.126m9.76-5.631c-3.481 2.007-6.319.389-6.331-3.61-.011-4.02 2.808-8.905 6.29-10.912l.2-.098.041 14.482-.2.138m9.759-5.636c-3.481 2.01-6.319.392-6.331-3.607-.012-4.02 2.809-8.904 6.291-10.914l.199-.098.041 14.483-.2.136m9.775-5.646c-3.498 2.022-6.337.402-6.348-3.597-.012-4.02 2.809-8.902 6.307-10.925l.185-.087.041 14.485-.185.124m27.632-35.198L97.989 55.834l-7.502 4.332-53.695 30.999c9.17 1.686 18.599 4.865 30.099 2.845h.001c.466-.084.935-.17 1.407-.269.01-.005.021-.008.03-.011a21.05 21.05 0 0 0 .722-.159c.457-.103.919-.215 1.382-.338.036-.008.071-.02.108-.031.201-.051.4-.107.603-.161.032-.013.066-.018.099-.028a38.442 38.442 0 0 0 .765-.225c.202-.062.406-.123.609-.189.055-.016.108-.031.164-.051a81.403 81.403 0 0 0 1.385-.466c.006-.005.013-.005.018-.005l.119-.046c.188-.066.375-.139.566-.205.061-.025.122-.046.186-.072.209-.076.42-.158.632-.24a.536.536 0 0 1 .062-.025l.699-.282c.063-.025.127-.054.192-.081.176-.072.354-.149.532-.224l.204-.089c.234-.103.472-.205.707-.312a60.087 60.087 0 0 0 5.467-2.812c18.323-10.577 34.738-31.528 41.941-47.734" class="color1491af svgShape"></path><path fill="#1483c5" d="M104.646 70.438v-13.59h-6.602v20.083a113.513 113.513 0 0 0 6.602-6.493z" class="color157ead svgShape"></path><path fill="#ff2020" d="M68.403 34.806c-3.497 2.021-6.317 6.905-6.306 10.904.011 4.02 2.85 5.638 6.347 3.618l.185-.126-.041-14.48-.185.084" class="color1491af svgShape"></path><path fill="#14c5af" d="M97.818 60.632c-3.498 2.022-6.318 6.905-6.307 10.925.011 3.999 2.85 5.619 6.348 3.597l.185-.123-.041-14.485-.185.086M88.044 66.277c-3.482 2.01-6.303 6.895-6.291 10.914.012 3.999 2.85 5.617 6.331 3.607l.2-.136-.041-14.482-.199.097M78.284 71.912c-3.482 2.007-6.301 6.893-6.29 10.912.012 3.999 2.85 5.617 6.331 3.61l.2-.138-.041-14.482-.2.098M68.525 77.545c-3.499 2.02-6.317 6.905-6.306 10.925.011 3.999 2.848 5.618 6.346 3.597l.186-.125-.041-14.484-.185.087" class="color08b2c4 svgShape"></path><path fill="#ff2020" d="M83.646 47.047c-3.462 1.997-6.268 6.836-6.289 10.84l-.001.072c.012 3.999 2.85 5.617 6.331 3.609l.201-.138-.02-7.292-.021-7.189-.201.098M73.886 52.68c-3.473 2.007-6.26 6.826-6.287 10.83l-.002.084c.012 3.999 2.833 5.628 6.332 3.607l.199-.133-.02-7.308-.021-7.179-.201.099M64.111 58.322c-3.452 1.994-6.254 6.815-6.288 10.814l-.002.103c.012 3.999 2.85 5.617 6.332 3.604l.199-.133-.02-7.319-.021-7.167-.2.098M54.353 63.957c-3.449 1.992-6.247 6.803-6.288 10.802l-.003.113c.012 3.999 2.85 5.617 6.332 3.607l.201-.136-.021-7.335-.021-7.148-.2.097M44.896 69.418c-3.445 1.987-6.24 6.79-6.287 10.784a2.9 2.9 0 0 0-.003.128c.012 3.999 2.85 5.62 6.331 3.61l.2-.136-.021-7.348-.021-7.136-.199.098M35.438 74.877c-3.441 1.986-6.234 6.779-6.288 10.771-.001.048-.003.097-.003.146.012 3.999 2.85 5.617 6.332 3.604l.201-.133-.021-7.363-.021-7.123-.2.098" class="color1491af svgShape"></path><path fill="#1475af" d="m111.901 25.028-11.215 19.428-.999 1.726 7.541 4.319 8.486-14.699 3.743-6.485-.051-.028a5.453 5.453 0 0 1-.182.356c-.325.563-.748.996-1.171 1.239s-.846.3-1.174.115l-1.377-.789-1.367 2.371c-.326.563-.748.999-1.172 1.239-.422.246-.845.302-1.172.115-.638-.366-.642-1.56-.008-2.676l1.385-2.376-1.394-.775c-.638-.387-.642-1.577-.008-2.691.07-.122.145-.23.221-.338l-.086-.051" class="color149caf svgShape"></path><path fill="#1483c5" d="M118.026 22.476c-.422.243-.845.671-1.17 1.227l-1.368 2.368-1.376-.783c-.328-.18-.75-.115-1.174.125-.333.194-.663.502-.949.892-.076.107-.15.215-.221.338-.634 1.114-.63 2.304.008 2.69l1.394.775-1.385 2.376c-.634 1.116-.63 2.31.008 2.676.327.188.75.131 1.172-.115.424-.24.846-.676 1.172-1.239l1.367-2.37 1.377.788c.328.185.751.128 1.174-.115s.846-.676 1.171-1.239c.067-.12.126-.237.182-.355.442-.994.38-1.977-.189-2.32l-1.395-.772 1.385-2.379c.634-1.119.63-2.312-.007-2.69-.329-.182-.753-.122-1.176.122" class="color157ead svgShape"></path><path fill="#fdff3d" d="M118.026 21.252c-.422.243-.845.671-1.17 1.227l-1.368 2.368-1.376-.783c-.328-.18-.75-.115-1.174.125-.333.194-.663.502-.949.891-.076.107-.15.216-.221.338-.634 1.114-.63 2.305.008 2.691l1.394.775-1.385 2.376c-.634 1.116-.63 2.31.008 2.676.327.187.75.131 1.172-.115.424-.24.846-.676 1.172-1.239l1.367-2.371 1.377.789c.328.185.751.128 1.174-.115s.846-.676 1.171-1.239c.067-.12.126-.238.182-.356.442-.993.38-1.976-.189-2.319l-1.395-.773 1.385-2.378c.634-1.119.63-2.312-.007-2.691-.329-.182-.753-.12-1.176.123" class="colorf9f9f9 svgShape"></path><path fill="#67dbcd" d="M100.948 16.854c-.359.207-.598.435-.688.679-.433 1.213 3.042 2.327 7.77 2.488 3.783.144 7.23-.384 8.681-1.222.363-.209.601-.438.688-.681.433-1.195-3.042-2.307-7.77-2.486-3.788-.133-7.23.384-8.681 1.222" class="color67cbdb svgShape"></path><path fill="#592d72" d="m97.93 55.746.054-19.33.251.144c4.655 2.688 8.408 9.187 8.393 14.535-.015 5.33-3.794 7.483-8.446 4.795l-.252-.144m.397-22.254-.333-.174-.072 25.526.333.21c6.145 3.548 11.147.696 11.168-6.345.02-7.058-4.951-15.668-11.096-19.217" class="color9b1077 svgShape"></path><path fill="#8d23c9" d="m98.091 52.083-.15-.107.033-11.788.15.064c2.845 1.644 5.149 5.633 5.139 8.899-.01 3.251-2.327 4.573-5.172 2.932m.143-15.523-.251-.144-.054 19.33.251.144c4.652 2.688 8.432.535 8.446-4.795.017-5.349-3.736-11.847-8.392-14.535" class="colorc92396 svgShape"></path><path fill="#ff9a3a" d="m98.124 40.252-.15-.064-.034 11.788.15.107c2.845 1.641 5.162.319 5.172-2.932.011-3.266-2.293-7.255-5.138-8.899" class="colore259b1 svgShape"></path></svg>