<svg xmlns="http://www.w3.org/2000/svg" enable-background="new 0 0 464 504.024" viewBox="0 0 464 504.024" id="Yak"><path fill="#ff9a3a" d="M320.12,59.304c-19.83-15.15-39.66-30.3-59.48-45.45c-25.89-19.78-63.39-8.41-74.14,22.47
			c-16.77,48.19-33.54,96.36-50.3,144.55c72.261,171.996,345.374,34.48,242.28-101.79C357.41,79.084,336.91,72.134,320.12,59.304z" class="color957557 svgShape"></path><path fill="#ff9a3a" d="M413.04 79.084c-163.889 80.687-196.323 208.203-126.86 372.02l12.02 48.9H460V79.084C444.35 79.084 428.7 79.084 413.04 79.084zM365.3 447.514c-.01-.01-.01-.01-.01-.02h.01C365.3 447.504 365.3 447.504 365.3 447.514zM101.09 281.764v.01c-17.48 50.24-34.96 100.46-52.44 150.7-2.86 8.21-1.83 17.43 3.23 24.48 4.59 6.4 11.54 10.13 18.03 9.68 8.47-.6 16.63-8.35 19.29-19.12 0-.01 0-.01 0-.02h.01c0 .01 0 .01-.01.02 2.04 11.14 10.09 19.12 19.3 19.12 9.22 0 17.27-7.99 19.3-19.14 32.564 178.582 158.78-274.069-17.896-185.994C108.662 262.119 98.819 268.352 101.09 281.764z" class="color957557 svgShape"></path><path fill="#ff2020" d="M307.4,466.634c-8.28,0.58-17.28-5.66-21.22-15.53l-117.86-0.01
			c-3.93,9.88-12.94,16.12-21.22,15.54c-8.48-0.6-16.65-8.35-19.3-19.14c0,4.75,0,9.49,0,14.24c0,15.17,12.31,37.58,28.5,38.27
			c11.93,0.52,21.13-11.12,23.45-14.24c4.8,8.86,14.07,14.35,24.05,14.24c9.77-0.1,18.76-5.57,23.45-14.24
			c4.69,8.67,13.68,14.14,23.45,14.24c9.98,0.11,19.25-5.38,24.05-14.24c2.32,3.12,11.52,14.76,23.45,14.24
			c16.19-0.69,28.5-23.1,28.5-38.27c0-4.75,0-9.49,0-14.24C324.05,458.284,315.88,466.034,307.4,466.634z" class="color604533 svgShape"></path><path fill="#14c5af" d="M118.69,193.384c5.07-5.15,11-9.38,17.51-12.5v-0.01c8.21-3.94,17.34-6.1,26.86-6.1h64.19h64.19
			c17.05,0,32.89,6.96,44.37,18.61c22.83-3.43,33.75-13.07,38.69-18.61c17.72-19.89,19.54-55.78,3.98-95.69
			c-7.88-20.22-20.23-41.47-37.23-62.2c30.87,17.53,54.85,39.3,71.79,62.2c29.84,40.33,37.85,84.21,23.21,114.83
			c-2.97,6.21-17.51,34.11-66.5,47.84c7.87-0.89,22.08-1.36,38,4.79c26.51,10.24,39.19,31.69,42.75,38.27
			c-5.69,3.93-25.11,16.27-52.25,14.36c-25.37-1.79-42.55-14.98-49.68-21.47c-0.43,5.2-0.86,10.4-1.29,15.6
			c-0.82,9.91-5.4,19.12-12.78,25.73l-18.34,16.43c-8.21,7.35-12.91,17.88-12.91,28.95v25.66c-6.69-5.88-34.21-28.7-76-28.7
			s-69.31,22.82-76,28.7v-25.66c0-11.07-4.7-21.6-12.91-28.95L120,319.034c-7.38-6.61-11.96-15.82-12.78-25.73
			c-0.43-5.2-0.86-10.4-1.29-15.6c-1.29,1.17-2.9,2.56-4.84,4.06v0.01c-8.77,6.82-24.05,15.94-44.84,17.4
			c-27.14,1.91-46.56-10.43-52.25-14.36c3.56-6.58,16.24-28.03,42.75-38.27c15.92-6.15,30.13-5.68,38-4.79
			c-48.99-13.73-63.53-41.63-66.5-47.84c-22.96-48.01,9.78-128.62,95-177.03C62.68,78.524,53.31,144.804,80,174.774
			C84.94,180.314,95.86,189.954,118.69,193.384z" class="color5d5560 svgShape"></path><path fill="#1483c5" d="M303.19 256.284c10.35 1.74 16.64 15.83 14.05 31.47l-37.48-6.3C282.35 265.814 292.83 254.544 303.19 256.284zM151.31 256.284c10.36-1.74 20.84 9.53 23.43 25.17l-37.48 6.3C134.67 272.114 140.96 258.024 151.31 256.284z" class="color655f68 svgShape"></path><path fill="#442754" d="M279.76 281.454l37.48 6.3c-2.59 15.63-13.07 26.9-23.43 25.17C283.46 311.184 277.17 297.094 279.76 281.454zM174.74 281.454c2.59 15.64-3.7 29.73-14.05 31.47-10.36 1.73-20.84-9.54-23.43-25.17L174.74 281.454z" class="color543927 svgShape"></path><path fill="#fdff3d" d="M286.18,451.104c-3.85,2.61-8.22,4.53-12.95,5.6c-13.11,2.96-28.6,5.14-45.98,5.14
			c-11.35,0-27.32-0.93-45.91-5.12c-4.76-1.07-9.15-3.01-13.02-5.63c-10.42-7.02-17.07-18.96-17.07-32.19v-28.83
			c6.69-5.88,34.21-28.7,76-28.7s69.31,22.82,76,28.7v28.83C303.25,432.144,296.6,444.084,286.18,451.104z" class="colorefd3b1 svgShape"></path><path fill="#592d72" d="M350.75 251.324c0 0 19.99 43.61 99.75 33.49-5.69 3.93-25.11 16.27-52.25 14.36-25.37-1.79-42.55-14.98-49.68-21.47C349.29 268.904 350.02 260.114 350.75 251.324zM350.75 189.824c12.43 23.07 0 28.01 0 28.01-3.11-9.42-8.29-17.72-14.94-24.45 5.69-.86 10.64-2.1 14.94-3.57V189.824zM118.69 193.384c-6.65 6.73-11.83 15.03-14.94 24.45 0 0-12.04-6.56-.22-28.09C107.88 191.244 112.9 192.514 118.69 193.384zM101.09 281.764v.01c-8.77 6.82-24.05 15.94-44.84 17.4-27.14 1.91-46.56-10.43-52.25-14.36 79.79 11.13 99.75-33.49 99.75-33.49.73 8.79 1.46 17.58 2.18 26.38C104.64 278.874 103.03 280.264 101.09 281.764z" class="color524956 svgShape"></path><path fill="#735087" d="M365.3,447.514c2.66,10.77,10.82,18.52,19.29,19.12c6.49,0.45,13.44-3.28,18.03-9.68
			c5.06-7.05,6.09-16.27,3.23-24.48c-9.91-28.49-19.82-56.97-29.73-85.46l54.03,95.16c0,0,20.94,35.04-26.43,43.13
			c-25.24,4.3-38.42-11.55-38.42-11.55s-3.43,9.35-26.01,8.79c0,0-5.61,13.43-13.51,17.46H298.2c16.19-0.69,28.5-23.1,28.5-38.27
			c0-4.75,0-9.49,0-14.24c2.03,11.15,10.08,19.14,19.3,19.14C355.21,466.634,363.26,458.654,365.3,447.514z" class="color876950 svgShape"></path><path fill="#735087" d="M398.25,299.174c27.14,1.91,46.56-10.43,52.25-14.36c-44.62,52.81-85.2,14.56-85.2,14.56
			s0.97,16.33-14.55,30.81c-15.52,14.48-30.18,6.99-28.53,59.89c1.65,52.9-26.68,52.1-26.68,52.1c4.87-6.53,7.71-14.62,7.71-23.27
			v-28.83v-25.66c0-11.07,4.7-21.6,12.91-28.95l18.34-16.43c7.38-6.61,11.96-15.82,12.78-25.73c0.43-5.2,0.86-10.4,1.29-15.6
			C355.7,284.194,372.88,297.384,398.25,299.174z" class="color876950 svgShape"></path><path fill="#352b3a" d="M460,75.082h-44.976c-18.078-23.871-42.743-45.17-71.799-61.676c-1.675-0.952-3.792-0.572-5.035,0.9
		c-1.242,1.474-1.256,3.624-0.033,5.114c15.542,18.944,26.83,37.72,34.435,55.449c-18.039-1.179-35.617-7.718-50.044-18.742
		l-59.482-45.453C249.738,0.49,232.898-2.589,216.863,2.225c-16.132,4.844-28.576,16.795-34.141,32.788l-49.758,142.988
		c-5.72,2.92-10.983,6.666-15.636,11.102c-15.026-2.571-26.579-8.276-34.34-16.99c-23.194-26.042-19.386-88.406,33.355-152.692
		c1.223-1.49,1.208-3.641-0.033-5.114c-1.241-1.473-3.359-1.853-5.035-0.9c-40.282,22.883-72.13,54.976-89.677,90.367
		c-16.462,33.202-18.998,66.686-6.956,91.863c4.25,8.886,16.753,28.61,48.206,42.549c-6.02,0.903-11.912,2.451-17.539,4.624
		c-25.438,9.826-39.004,29.344-44.827,40.104c-0.972,1.796-0.434,4.037,1.248,5.196c8.563,5.904,25.773,15.263,48.789,15.263
		c1.962,0,3.968-0.068,6.012-0.212c15.091-1.063,27.477-5.972,36.844-11.394L44.87,431.155c-3.36,9.656-1.954,20.173,3.762,28.133
		c5.417,7.545,13.686,11.889,21.563,11.332c7.398-0.521,14.279-5.242,18.743-12.329c4.353,7.509,11.617,12.339,19.563,12.339
		c5.77,0,11.173-2.555,15.37-6.823c1.016,16.255,13.628,39.4,32.254,40.198c10.082,0.438,18.321-6.215,23.274-11.568
		c5.913,7.35,14.877,11.688,24.441,11.572c9.12-0.101,17.645-4.255,23.41-11.151c5.765,6.896,14.29,11.051,23.409,11.151
		c9.616,0.071,18.529-4.223,24.442-11.571c4.798,5.187,12.677,11.588,22.337,11.588c0.31,0,0.623-0.007,0.937-0.021
		c18.627-0.797,31.238-23.943,32.254-40.198c4.197,4.268,9.6,6.823,15.37,6.823c7.946,0,15.21-4.83,19.563-12.339
		c4.464,7.087,11.345,11.809,18.743,12.329c7.893,0.552,16.146-3.787,21.563-11.332c5.716-7.96,7.122-18.477,3.762-28.133
		l-29.736-85.453c-0.726-2.086-3.006-3.19-5.092-2.463c-2.086,0.726-3.189,3.006-2.463,5.092l29.736,85.453
		c2.505,7.2,1.494,14.99-2.705,20.838c-3.753,5.226-9.451,8.386-14.504,8.018c-6.861-0.482-13.414-7.157-15.644-15.904
		c-0.127-0.657-0.42-1.281-0.859-1.808c-0.76-0.91-1.889-1.437-3.075-1.437c-1.229,0-2.391,0.565-3.148,1.533
		c-0.455,0.58-0.734,1.267-0.822,1.98c-1.732,9.067-8.146,15.625-15.319,15.625c-7.233,0-13.693-6.664-15.359-15.845
		c-0.337-1.857-1.925-3.226-3.812-3.284c-1.87-0.058-3.557,1.209-4.008,3.041c-2.178,8.843-8.779,15.612-15.696,16.098
		c-5.94,0.415-12.278-3.771-15.893-10.229c9.9-7.877,16.019-20.016,16.019-33.502V364.41c0-9.918,4.219-19.384,11.574-25.969
		l18.348-16.428c8.179-7.323,13.184-17.403,14.092-28.384l0.659-7.968c9.701,7.331,25.326,16.04,46.046,17.499
		c2.046,0.144,4.048,0.212,6.012,0.212c23.014-0.001,40.226-9.358,48.789-15.263c1.682-1.159,2.22-3.4,1.248-5.196
		c-5.823-10.761-19.389-30.278-44.827-40.104c-5.627-2.173-11.518-3.721-17.539-4.624c31.447-13.938,43.956-33.664,48.206-42.549
		c12.042-25.178,9.506-58.661-6.956-91.863c-3.493-7.044-7.561-13.955-12.14-20.691H460c2.209,0,4-1.791,4-4
		S462.209,75.082,460,75.082z M190.277,37.642c4.712-13.541,15.241-23.657,28.886-27.755c13.549-4.066,27.78-1.465,39.045,7.145
		l59.482,45.453c16.685,12.749,37.248,19.98,58.17,20.542c14.497,38.918,10.953,71.906-4.347,89.086
		c-7.762,8.714-19.315,14.419-34.341,16.99c-12.07-11.507-28.284-18.33-45.735-18.33H163.063c-6.999,0-13.797,1.103-20.212,3.159
		L190.277,37.642z M108.501,462.63c-7.179,0-13.597-6.568-15.323-15.647c-0.092-0.706-0.372-1.384-0.822-1.958
		c-0.758-0.968-1.923-1.533-3.152-1.533c-1.186,0-2.311,0.526-3.071,1.437c-0.444,0.532-0.737,1.164-0.861,1.83
		c-2.235,8.736-8.782,15.4-15.638,15.882c-5.063,0.354-10.751-2.791-14.504-8.018c-4.199-5.848-5.21-13.638-2.705-20.838
		l50.419-144.889l0.392,4.735c0.908,10.98,5.913,21.061,14.091,28.384l18.348,16.428c7.355,6.585,11.574,16.051,11.574,25.969
		v54.498c0,13.482,6.121,25.617,16.026,33.497c-3.613,6.468-9.94,10.651-15.901,10.234c-6.917-0.485-13.519-7.256-15.696-16.098
		c-0.452-1.832-2.146-3.092-4.008-3.041c-1.886,0.059-3.475,1.427-3.812,3.284C122.194,455.965,115.735,462.63,108.501,462.63z
		 M306.297,470.669c0.462,0,0.926-0.017,1.389-0.049c5.55-0.39,10.809-3.143,14.975-7.484
		c-0.737,13.131-11.486,32.312-24.628,32.875c-9.313,0.43-17.146-8.702-20.074-12.634c-0.815-1.095-2.134-1.714-3.496-1.6
		c-1.362,0.098-2.58,0.884-3.229,2.084c-4.067,7.511-11.802,12.147-20.231,12.147c-0.084,0-0.169-0.001-0.254-0.002
		c-8.317-0.091-15.974-4.745-19.98-12.145c-0.699-1.291-2.049-2.096-3.518-2.096s-2.818,0.805-3.518,2.096
		c-4.006,7.399-11.663,12.054-19.98,12.145c-8.535,0.064-16.377-4.56-20.485-12.146c-0.65-1.2-1.868-1.986-3.229-2.084
		c-1.369-0.113-2.68,0.505-3.496,1.6c-2.928,3.932-10.748,13.019-20.074,12.634c-13.141-0.563-23.891-19.744-24.628-32.875
		c4.166,4.341,9.425,7.094,14.975,7.484c0.465,0.032,0.93,0.049,1.395,0.049c8.52,0,16.878-5.423,21.779-13.888
		c3.241,1.696,6.747,3,10.468,3.84c15.352,3.466,31.096,5.224,46.793,5.224c15.728,0,31.494-1.763,46.862-5.24
		c3.696-0.836,7.18-2.131,10.401-3.815C289.418,465.245,297.794,470.669,306.297,470.669z M272.347,452.801
		c-29.551,6.687-60.55,6.692-90.127,0.017c-15.879-3.585-26.969-17.529-26.969-33.91v-26.995c10.451-8.838,35.901-26.543,72-26.543
		s61.549,17.704,72,26.543v26.995C299.25,435.28,288.187,449.217,272.347,452.801z M432.642,192.185
		c-4.615,9.647-20.086,33.416-63.972,45.72c-2.007,0.563-3.245,2.572-2.846,4.618s2.301,3.452,4.374,3.208
		c12.331-1.393,24.819,0.179,36.11,4.541c20.719,8.003,32.777,23.163,38.851,33.258c-9.27,5.741-25.594,13.136-46.628,11.65
		c-21.984-1.548-37.672-12.12-45.811-19.15l2.017-24.376c0.182-2.202-1.455-4.135-3.657-4.316c-2.199-0.184-4.133,1.455-4.316,3.656
		l-3.473,41.975c-0.739,8.934-4.807,17.131-11.455,23.083l-18.348,16.428c-9.049,8.102-14.238,19.739-14.238,31.93v17.292
		c-13.32-9.974-38.338-24.332-72-24.332s-58.68,14.357-72,24.332V364.41c0-12.19-5.189-23.828-14.238-31.93l-18.348-16.428
		c-6.648-5.952-10.716-14.149-11.455-23.083l-3.473-41.975c-0.182-2.201-2.111-3.84-4.316-3.656
		c-2.202,0.182-3.839,2.114-3.657,4.316l2.017,24.376c-8.139,7.03-23.827,17.602-45.811,19.15
		c-21.029,1.492-37.358-5.91-46.628-11.65c6.074-10.095,18.132-25.255,38.851-33.258c11.292-4.36,23.781-5.929,36.11-4.541
		c2.069,0.235,3.975-1.163,4.374-3.208c0.399-2.046-0.839-4.056-2.846-4.618c-43.885-12.304-59.357-36.072-63.972-45.72
		c-10.973-22.944-8.456-53.874,6.907-84.859c14.127-28.493,38.004-54.813,68.29-75.603C80.007,56.411,68.362,82.554,63.722,106.96
		c-5.612,29.521-0.892,54.549,13.292,70.474c8.097,9.091,19.52,15.319,34.007,18.579c-4.762,6.026-8.547,12.946-11.068,20.564
		c-0.694,2.098,0.443,4.36,2.541,5.055c2.098,0.691,4.36-0.444,5.054-2.541c7.98-24.115,30.29-40.317,55.515-40.317h128.375
		c25.225,0,47.535,16.202,55.515,40.317c0.556,1.68,2.119,2.744,3.797,2.744c0.417,0,0.84-0.065,1.257-0.203
		c2.097-0.694,3.235-2.957,2.541-5.055c-2.521-7.618-6.306-14.538-11.068-20.564c14.487-3.26,25.911-9.489,34.007-18.579
		c14.184-15.925,18.904-40.953,13.292-70.474c-4.64-24.405-16.285-50.549-33.333-75.236c30.286,20.789,54.163,47.109,68.29,75.603
		C441.098,138.311,443.615,169.241,432.642,192.185z M216.238,426.004c1.297,1.788,0.9,4.289-0.888,5.587
		c-1.788,1.298-4.288,0.901-5.586-0.888c-6.54-9.013-14.971-10.799-18.299-8.587c-2.194,1.457-2.82,5.153-2.987,6.675
		c-0.225,2.047-1.958,3.563-3.971,3.563c-0.146,0-0.293-0.008-0.442-0.024c-2.196-0.241-3.78-2.217-3.539-4.413
		c0.441-4.005,1.928-9.419,6.513-12.464C194.027,410.806,207.179,413.522,216.238,426.004z M273.977,427.916
		c0.242,2.196-1.343,4.172-3.539,4.413c-0.148,0.017-0.296,0.024-0.442,0.024c-2.013,0.001-3.746-1.516-3.971-3.563
		c-0.167-1.521-0.793-5.218-2.987-6.675c-3.33-2.209-11.76-0.426-18.3,8.587c-1.297,1.788-3.799,2.185-5.586,0.888
		c-1.788-1.298-2.186-3.799-0.888-5.587c9.058-12.481,22.209-15.195,29.201-10.552C272.048,418.497,273.536,423.911,273.977,427.916
		z M164.748,255.986c-4.457-3.184-9.33-4.447-14.096-3.644c-12.716,2.134-20.333,17.974-17.34,36.061
		c1.746,10.553,6.958,19.831,13.94,24.817c3.586,2.562,7.442,3.878,11.294,3.878c0.936,0,1.871-0.077,2.802-0.234
		c12.716-2.134,20.333-17.974,17.34-36.061C176.942,270.251,171.731,260.972,164.748,255.986z M151.977,260.231
		c0.492-0.082,0.975-0.12,1.447-0.12c2.712,0,5.076,1.243,6.674,2.385c4.461,3.186,7.996,8.902,9.841,15.712l-29.182,4.899
		C140.057,271.495,144.767,261.442,151.977,260.231z M160.023,308.975c-3.314,0.555-6.245-0.924-8.122-2.265
		c-4.461-3.186-7.996-8.902-9.841-15.712l29.182-4.899C171.944,297.712,167.233,307.765,160.023,308.975z M303.849,252.342
		c-4.767-0.804-9.639,0.46-14.096,3.644c-6.982,4.986-12.194,14.265-13.94,24.817c-2.993,18.087,4.625,33.927,17.34,36.061
		c0.932,0.157,1.867,0.234,2.802,0.234c3.852,0,7.708-1.316,11.294-3.878c6.982-4.986,12.194-14.265,13.94-24.817
		C324.181,270.316,316.564,254.476,303.849,252.342z M302.599,306.711c-1.876,1.341-4.805,2.824-8.122,2.264
		c-7.21-1.21-11.92-11.263-11.219-22.875l29.182,4.899C310.595,297.808,307.06,303.524,302.599,306.711z M313.742,283.107
		l-29.182-4.899c1.845-6.809,5.38-12.525,9.841-15.712c1.876-1.34,4.805-2.823,8.122-2.264
		C309.734,261.442,314.444,271.495,313.742,283.107z" class="color3a322b svgShape"></path></svg>