<svg xmlns="http://www.w3.org/2000/svg" enable-background="new 0 0 256 256" viewBox="0 0 256 256" id="Yak"><g fill="#fdff3d" class="color000000 svgShape"><path fill="#ff9a3a" d="M226.803,195.579c0-4.409-5.511-8.817-5.511-8.817c0,4.409-7.715,9.92-7.715,9.92
			c0-6.613-7.715-9.92-7.715-9.92c0,2.137-0.518,4.528-1.052,6.43c2.963,14.715,4.1,31.341-2.22,32.796
			c-4.911,1.131-8.583,3.917-10.843,6.116c-1.349,1.313-0.806,3.586,0.99,4.147h0c2.9,0.907,5.954,1.214,8.977,0.905l12.869-1.317
			c1.733-0.177,3.127-1.451,3.543-3.142c0.3-1.221,0.88-2.123,1.485-2.773c1.01-1.084,1.46-2.544,1.208-4.004
			c-0.77-4.456,1.93-8.642,1.93-8.642c3.925-6.349,4.645-14.445,4.143-21.766C226.839,195.551,226.803,195.579,226.803,195.579z" class="colorc16a44 svgShape"></path><path fill="#ff9a3a" d="M203.657 196.681c0 0-3.307-2.204-5.511-7.715s-8.817-5.511-8.817-5.511c-.011.008-.018.018-.029.027 4.323 15.902 7.849 40.713.064 42.505-4.911 1.131-8.583 3.917-10.843 6.116-1.349 1.313-.806 3.586.99 4.147h0c2.9.907 5.954 1.214 8.977.905l5.555-.568c-.437-.108-.876-.202-1.306-.337h0c-1.796-.562-2.339-2.835-.99-4.147 2.259-2.2 5.932-4.986 10.843-6.116 6.32-1.455 5.184-18.081 2.22-32.796C204.242 195.213 203.657 196.681 203.657 196.681zM115.483 195.579l-4.409-5.511c0 7.715-9.92 12.124-9.92 12.124 0-6.613-6.613-11.022-6.613-11.022l-.992 2.315c2.919 14.641 3.998 31.056-2.28 32.502-4.911 1.131-8.583 3.917-10.843 6.116-1.349 1.313-.806 3.586.99 4.147h0c2.9.907 5.954 1.214 8.977.905l12.869-1.317c1.733-.177 3.127-1.451 3.543-3.142.3-1.221.88-2.123 1.485-2.773 1.01-1.084 1.46-2.544 1.208-4.004-.77-4.456 1.93-8.642 1.93-8.642 3.952-6.392 4.654-14.554 4.131-21.915C115.515 195.49 115.483 195.579 115.483 195.579z" class="colorc16a44 svgShape"></path><path fill="#ff9a3a" d="M91.236,198.885c-5.511-5.511-5.511-22.043-5.511-22.043l-4.409,9.92c0,0-0.554-0.278-1.107-1.666
			c0.022,4.859,0.458,9.704,1.205,14.507c1.988,12.768,2.041,25.138-3.371,26.384c-4.911,1.131-8.583,3.917-10.843,6.116
			c-1.349,1.313-0.806,3.586,0.99,4.147h0c2.9,0.907,5.954,1.214,8.977,0.905l5.555-0.568c-0.437-0.108-0.876-0.202-1.306-0.337h0
			c-1.796-0.562-2.339-2.835-0.99-4.147c2.259-2.2,5.932-4.986,10.843-6.116c6.278-1.445,5.199-17.861,2.28-32.502L91.236,198.885z" class="colorc16a44 svgShape"></path><path fill="#592d72" d="M88.798 226.743c-3.678 1.355-6.511 3.549-8.371 5.36-1.349 1.313-.806 3.586.99 4.147h0c2.9.907 5.954 1.214 8.977.905l.868-.089C91.839 232.664 90.313 229.086 88.798 226.743zM200.117 226.743c-3.678 1.355-6.511 3.549-8.371 5.36-1.349 1.313-.806 3.586.99 4.147h0c2.9.907 5.954 1.214 8.977.905l.868-.089C203.158 232.664 201.633 229.086 200.117 226.743zM75.572 226.743c-3.678 1.355-6.511 3.549-8.371 5.36-1.349 1.313-.806 3.586.99 4.147h0c2.9.907 5.954 1.214 8.977.905l.868-.089C78.613 232.664 77.087 229.086 75.572 226.743zM186.891 226.743c-3.678 1.355-6.511 3.549-8.371 5.36-1.349 1.313-.806 3.586.99 4.147h0c2.9.907 5.954 1.214 8.977.905l.868-.089C189.932 232.664 188.407 229.086 186.891 226.743z" class="color52565b svgShape"></path><path fill="#ff2020" d="M78.613,117.867c-4.517,0-8.689,1.235-12.096,3.324c-1.92,1.177-4.348,1.163-6.213-0.099
			c-3.548-2.401-8.033-3.836-12.914-3.836c-11.496,0-20.815,7.949-20.815,17.754s9.319,17.754,20.815,17.754
			c4.517,0,8.689-1.235,12.096-3.324c1.92-1.177,4.348-1.163,6.213,0.1c3.548,2.401,8.033,3.836,12.914,3.836
			c11.496,0,20.815-7.949,20.815-17.754C99.428,125.816,90.109,117.867,78.613,117.867z" class="colorffc097 svgShape"></path><path fill="#ff9a3a" d="M78.688 153.376c-4.881 0-9.366-1.436-12.914-3.836-1.865-1.262-4.293-1.277-6.213-.1-3.407 2.089-7.579 3.324-12.096 3.324-1.583 0-3.119-.164-4.601-.45 1.255 6.458 6.967 11.375 13.777 11.375h12.87c6.581 0 12.126-4.594 13.627-10.729C81.703 153.226 80.217 153.376 78.688 153.376zM47.337 117.255c4.881 0 9.366 1.435 12.914 3.836 1.865 1.262 4.293 1.277 6.213.099 3.407-2.089 7.579-3.324 12.096-3.324 6.255 0 11.851 2.365 15.667 6.09l-4.003-27.133c-1.632-11.062-11.125-19.257-22.307-19.257h-9.936c-11.182 0-20.675 8.195-22.307 19.257l-3.898 26.422C35.589 119.579 41.138 117.255 47.337 117.255z" class="colorc16a44 svgShape"></path><path fill="#14c5af" d="M112.344 104.603c-7.02-2.34-8.19-3.51-14.04-9.36-2.917-2.917-6.415-3.215-9.19-2.782.503 1.394.886 2.848 1.11 4.363l2.513 17.03c11.833 4.971 19.608-1.061 19.608-1.061-4.68-1.17-7.02-3.51-7.02-3.51L112.344 104.603zM35.674 96.824c.224-1.519.609-2.978 1.114-4.375-2.759-.411-6.207-.089-9.09 2.793-5.85 5.85-7.02 7.02-14.04 9.36l7.02 4.68c0 0-2.34 2.34-7.02 3.51 0 0 7.726 5.995 19.496 1.108L35.674 96.824z" class="color7d3d1a svgShape"></path><path fill="#14c5af" d="M251.051 134.959c-5.511-12.124 2.204-36.372-25.35-49.598-27.554-13.226-54.007 24.248-104.155 2.755-1.502-.644-3.001-1.198-4.496-1.708-4.009 3.233-10.163 6.118-19.287 8.327.183.16.364.328.543.507 5.85 5.85 7.02 7.02 14.04 9.36l-7.02 4.68c0 0 2.34 2.34 7.02 3.51 0 0-7.775 6.033-19.608 1.062l1.482 10.046c3.233 3.128 5.209 7.224 5.209 11.722 0 8.542-7.076 15.671-16.5 17.367.069-.012.141-.017.21-.03-1.03 4.211-3.966 7.695-7.834 9.467 1.204 2.167 3.807 7.631 3.807 14.415 0 8.818 2.204 9.919 2.204 9.919l4.409-9.919c0 0 0 16.532 5.511 22.044l3.306-7.715c0 0 6.613 4.409 6.613 11.022 0 0 9.92-4.409 9.92-12.124l4.409 5.511c0 0 2.962-8.146 4.03-14.726 0 0 1.48 7.011 8.093 11.419l2.204-4.409c0 0 8.817 2.204 12.124 8.817 0 0 2.204-5.511 2.204-7.715 0 0 7.715 0 11.022 6.613 0 0 3.307-2.205 3.307-5.511 0 0 5.511 1.102 11.022 6.613 0 0 2.204-2.204 2.204-5.511 0 0 5.511 6.613 16.533 3.307 0 0-3.307-7.715 1.102-11.022 0 0 6.613 0 8.817 5.511 2.204 5.511 5.511 7.715 5.511 7.715s2.204-5.511 2.204-9.92c0 0 7.715 3.307 7.715 9.92 0 0 7.715-5.511 7.715-9.92 0 0 5.511 4.409 5.511 8.818 0 0 8.817-6.613 8.817-14.328l3.307 2.204c0 0 8.817-8.817 8.817-24.248l3.306 3.307C251.051 162.513 256.562 147.083 251.051 134.959zM83.035 90.563c.807-1.613 1.129-3.407.981-5.196-.032-.379-.074-.758-.11-1.137-4.11-4.134-9.787-6.662-15.989-6.662h-9.936c-6.133 0-11.747 2.476-15.846 6.527 2.976 2.587 5.03 6.173 5.585 10.006 2.134-2.06 4.125-4.259 5.955-6.576 2.45 3.038 2.869 4.715 3.62 7.718 2.34-1.17 4.538-3.735 6.138-6.142 1.587 1.996 2.759 4.298 3.426 6.73 2.943-1.228 5.216-3.857 5.94-6.871 2.455 1.718 4.378 4.134 5.466 6.866C80.377 94.457 81.865 92.903 83.035 90.563z" class="color7d3d1a svgShape"></path><path fill="#592d72" d="M117.424 58.629c-.247-.344-.67-.508-1.087-.435-.642.114-1.039.751-.867 1.381.846 3.093.821 7.134-1.495 12.106-4.078 8.755-19.368 12.425-28.847 13.886 1.787 2.111 3.182 4.567 4.1 7.261-.041-.121-.07-.248-.114-.368 2.597-.406 5.822-.141 8.617 2.283C131.795 86.509 124.797 68.901 117.424 58.629zM36.788 92.449c-.043.12-.072.247-.114.368.92-2.696 2.319-5.152 4.108-7.263-9.485-1.471-24.69-5.145-28.755-13.872-2.316-4.973-2.341-9.014-1.495-12.106.172-.63-.224-1.267-.867-1.381-.417-.074-.84.091-1.087.435C1.205 68.901-5.794 86.509 28.27 94.744 31.03 92.35 34.207 92.065 36.788 92.449z" class="color52565b svgShape"></path><path fill="none" stroke="#1483c5" stroke-linecap="round" stroke-linejoin="round" stroke-miterlimit="10" stroke-width="5" d="M251.051 134.959c-5.511-12.124 2.204-36.372-25.35-49.598-27.554-13.226-54.007 24.248-104.155 2.755-1.502-.644-3.001-1.198-4.496-1.708-4.009 3.233-10.163 6.118-19.287 8.327.183.16.364.328.543.507 5.85 5.85 7.02 7.02 14.04 9.36l-7.02 4.68c0 0 2.34 2.34 7.02 3.51 0 0-7.775 6.033-19.608 1.062l1.482 10.046c3.233 3.128 5.209 7.224 5.209 11.722 0 8.542-7.076 15.671-16.5 17.367.069-.012.141-.017.21-.03-1.03 4.211-3.966 7.695-7.834 9.467 1.204 2.167 3.807 7.631 3.807 14.415 0 8.818 2.204 9.919 2.204 9.919l4.409-9.919c0 0 0 16.532 5.511 22.044l3.306-7.715c0 0 6.613 4.409 6.613 11.022 0 0 9.92-4.409 9.92-12.124l4.409 5.511c0 0 2.962-8.146 4.03-14.726 0 0 1.48 7.011 8.093 11.419l2.204-4.409c0 0 8.817 2.204 12.124 8.817 0 0 2.204-5.511 2.204-7.715 0 0 7.715 0 11.022 6.613 0 0 3.307-2.205 3.307-5.511 0 0 5.511 1.102 11.022 6.613 0 0 2.204-2.204 2.204-5.511 0 0 5.511 6.613 16.533 3.307 0 0-3.307-7.715 1.102-11.022 0 0 6.613 0 8.817 5.511 2.204 5.511 5.511 7.715 5.511 7.715s2.204-5.511 2.204-9.92c0 0 7.715 3.307 7.715 9.92 0 0 7.715-5.511 7.715-9.92 0 0 5.511 4.409 5.511 8.818 0 0 8.817-6.613 8.817-14.328l3.307 2.204c0 0 8.817-8.817 8.817-24.248l3.306 3.307C251.051 162.513 256.562 147.083 251.051 134.959zM88.798 226.743c-3.678 1.355-6.511 3.549-8.371 5.36-1.349 1.313-.806 3.586.99 4.147h0c2.9.907 5.954 1.214 8.977.905l.868-.089C91.839 232.664 90.313 229.086 88.798 226.743zM200.117 226.743c-3.678 1.355-6.511 3.549-8.371 5.36-1.349 1.313-.806 3.586.99 4.147h0c2.9.907 5.954 1.214 8.977.905l.868-.089C203.158 232.664 201.633 229.086 200.117 226.743zM75.572 226.743c-3.678 1.355-6.511 3.549-8.371 5.36-1.349 1.313-.806 3.586.99 4.147h0c2.9.907 5.954 1.214 8.977.905l.868-.089C78.613 232.664 77.087 229.086 75.572 226.743zM186.891 226.743c-3.678 1.355-6.511 3.549-8.371 5.36-1.349 1.313-.806 3.586.99 4.147h0c2.9.907 5.954 1.214 8.977.905l.868-.089C189.932 232.664 188.407 229.086 186.891 226.743z" class="colorStroke000000 svgStroke"></path><path fill="none" stroke="#1483c5" stroke-linecap="round" stroke-linejoin="round" stroke-miterlimit="10" stroke-width="5" d="M226.803,195.579c0-4.409-5.511-8.817-5.511-8.817c0,4.409-7.715,9.92-7.715,9.92
			c0-6.613-7.715-9.92-7.715-9.92c0,2.137-0.518,4.528-1.052,6.43c2.963,14.715,4.1,31.341-2.22,32.796
			c-4.911,1.131-8.583,3.917-10.843,6.116c-1.349,1.313-0.806,3.586,0.99,4.147h0c2.9,0.907,5.954,1.214,8.977,0.905l12.869-1.317
			c1.733-0.177,3.127-1.451,3.543-3.142c0.3-1.221,0.88-2.123,1.485-2.773c1.01-1.084,1.46-2.544,1.208-4.004
			c-0.77-4.456,1.93-8.642,1.93-8.642c3.925-6.349,4.645-14.445,4.143-21.766C226.839,195.551,226.803,195.579,226.803,195.579z" class="colorStroke000000 svgStroke"></path><path fill="none" stroke="#1483c5" stroke-linecap="round" stroke-linejoin="round" stroke-miterlimit="10" stroke-width="5" d="M203.657 196.681c0 0-3.307-2.204-5.511-7.715s-8.817-5.511-8.817-5.511c-.011.008-.018.018-.029.027 4.323 15.902 7.849 40.713.064 42.505-4.911 1.131-8.583 3.917-10.843 6.116-1.349 1.313-.806 3.586.99 4.147h0c2.9.907 5.954 1.214 8.977.905l5.555-.568c-.437-.108-.876-.202-1.306-.337h0c-1.796-.562-2.339-2.835-.99-4.147 2.259-2.2 5.932-4.986 10.843-6.116 6.32-1.455 5.184-18.081 2.22-32.796C204.242 195.213 203.657 196.681 203.657 196.681zM115.483 195.579l-4.409-5.511c0 7.715-9.92 12.124-9.92 12.124 0-6.613-6.613-11.022-6.613-11.022l-.992 2.315c2.919 14.641 3.998 31.056-2.28 32.502-4.911 1.131-8.583 3.917-10.843 6.116-1.349 1.313-.806 3.586.99 4.147h0c2.9.907 5.954 1.214 8.977.905l12.869-1.317c1.733-.177 3.127-1.451 3.543-3.142.3-1.221.88-2.123 1.485-2.773 1.01-1.084 1.46-2.544 1.208-4.004-.77-4.456 1.93-8.642 1.93-8.642 3.952-6.392 4.654-14.554 4.131-21.915C115.515 195.49 115.483 195.579 115.483 195.579z" class="colorStroke000000 svgStroke"></path><path fill="none" stroke="#1483c5" stroke-linecap="round" stroke-linejoin="round" stroke-miterlimit="10" stroke-width="5" d="M91.236 198.885c-5.511-5.511-5.511-22.043-5.511-22.043l-4.409 9.92c0 0-.554-.278-1.107-1.666.022 4.859.458 9.704 1.205 14.507 1.988 12.768 2.041 25.138-3.371 26.384-4.911 1.131-8.583 3.917-10.843 6.116-1.349 1.313-.806 3.586.99 4.147h0c2.9.907 5.954 1.214 8.977.905l5.555-.568c-.437-.108-.876-.202-1.306-.337h0c-1.796-.562-2.339-2.835-.99-4.147 2.259-2.2 5.932-4.986 10.843-6.116 6.278-1.445 5.199-17.861 2.28-32.502L91.236 198.885zM78.613 117.867c-4.517 0-8.689 1.235-12.096 3.324-1.92 1.177-4.348 1.163-6.213-.099-3.548-2.401-8.033-3.836-12.914-3.836-11.496 0-20.815 7.949-20.815 17.754s9.319 17.754 20.815 17.754c4.517 0 8.689-1.235 12.096-3.324 1.92-1.177 4.348-1.163 6.213.1 3.548 2.401 8.033 3.836 12.914 3.836 11.496 0 20.815-7.949 20.815-17.754C99.428 125.816 90.109 117.867 78.613 117.867z" class="colorStroke000000 svgStroke"></path><path fill="none" stroke="#1483c5" stroke-linecap="round" stroke-linejoin="round" stroke-miterlimit="10" stroke-width="5" d="M37.623 133.38c0-2.708 2.195-4.903 4.903-4.903 2.708 0 4.903 2.195 4.903 4.903M78.574 133.38c0-2.708 2.195-4.903 4.903-4.903s4.903 2.195 4.903 4.903M78.688 153.376c-4.881 0-9.366-1.436-12.914-3.836-1.865-1.262-4.293-1.277-6.213-.1-3.407 2.089-7.579 3.324-12.096 3.324-1.583 0-3.119-.164-4.601-.45 1.255 6.458 6.967 11.375 13.777 11.375h12.87c6.581 0 12.126-4.594 13.627-10.729C81.703 153.226 80.217 153.376 78.688 153.376zM47.337 117.255c4.881 0 9.366 1.435 12.914 3.836 1.865 1.262 4.293 1.277 6.213.099 3.407-2.089 7.579-3.324 12.096-3.324 6.255 0 11.851 2.365 15.667 6.09l-4.003-27.133c-1.632-11.062-11.125-19.257-22.307-19.257h-9.936c-11.182 0-20.675 8.195-22.307 19.257l-3.898 26.422C35.589 119.579 41.138 117.255 47.337 117.255z" class="colorStroke000000 svgStroke"></path><path fill="none" stroke="#1483c5" stroke-linecap="round" stroke-linejoin="round" stroke-miterlimit="10" stroke-width="5" d="M112.344 104.603c-7.02-2.34-8.19-3.51-14.04-9.36-2.917-2.917-6.415-3.215-9.19-2.782.503 1.394.886 2.848 1.11 4.363l2.513 17.03c11.833 4.971 19.608-1.061 19.608-1.061-4.68-1.17-7.02-3.51-7.02-3.51L112.344 104.603zM35.674 96.824c.224-1.519.609-2.978 1.114-4.375-2.759-.411-6.207-.089-9.09 2.793-5.85 5.85-7.02 7.02-14.04 9.36l7.02 4.68c0 0-2.34 2.34-7.02 3.51 0 0 7.726 5.995 19.496 1.108L35.674 96.824z" class="colorStroke000000 svgStroke"></path><path fill="none" stroke="#1483c5" stroke-linecap="round" stroke-linejoin="round" stroke-miterlimit="10" stroke-width="5" d="M117.424 58.629c-.247-.344-.67-.508-1.087-.435-.642.114-1.039.751-.867 1.381.846 3.093.821 7.134-1.495 12.106-4.078 8.755-19.368 12.425-28.847 13.886 1.787 2.111 3.182 4.567 4.1 7.261-.041-.121-.07-.248-.114-.368 2.597-.406 5.822-.141 8.617 2.283C131.795 86.509 124.797 68.901 117.424 58.629zM36.788 92.449c-.043.12-.072.247-.114.368.92-2.696 2.319-5.152 4.108-7.263-9.485-1.471-24.69-5.145-28.755-13.872-2.316-4.973-2.341-9.014-1.495-12.106.172-.63-.224-1.267-.867-1.381-.417-.074-.84.091-1.087.435C1.205 68.901-5.794 86.509 28.27 94.744 31.03 92.35 34.207 92.065 36.788 92.449zM83.035 90.563c.807-1.613 1.129-3.407.981-5.196-.032-.379-.074-.758-.11-1.137-4.11-4.134-9.787-6.662-15.989-6.662h-9.936c-6.133 0-11.747 2.476-15.846 6.527 2.976 2.587 5.03 6.173 5.585 10.006 2.134-2.06 4.125-4.259 5.955-6.576 2.45 3.038 2.869 4.715 3.62 7.718 2.34-1.17 4.538-3.735 6.138-6.142 1.587 1.996 2.759 4.298 3.426 6.73 2.943-1.228 5.216-3.857 5.94-6.871 2.455 1.718 4.378 4.134 5.466 6.866C80.377 94.457 81.865 92.903 83.035 90.563zM44.946 109.085c-.008-2.5 2.012-4.533 4.511-4.541s4.533 2.012 4.541 4.511M72.004 109.085c-.008-2.5 2.012-4.533 4.511-4.541s4.533 2.012 4.541 4.511M119.514 180.853c.235-1.447.378-2.819.378-4.011l6.613 2.204c0 0 2.204-6.613 0-16.533M178.974 157.893c0 0-1.397 6.985 2.794 15.366l2.794-4.191c0 0-1.129 7.593 7.486 14.803" class="colorStroke000000 svgStroke"></path></g></svg>