<svg xmlns="http://www.w3.org/2000/svg" viewBox="0 0 128 128" id="Zebra"><path fill="#fdff3d" d="M46.7 110.6c-.1-2.6 1.6-5 2.3-7.5.9-3.7-.3-7.6.6-11.3.2-.7.4-1.4.2-2.1s-.7-1.1-1.2-1.6c-1.7-1.5-3.4-2.9-5.2-4.2-.4-.3-1.4-1.4-2.1-1.1-.7.3-.5 2.1-.5 2.7-.1.7-.1 1.5-.1 2.2 0 2.4.8 4.9.5 7.3-.2 1.3-.7 2.7-.3 4 .2.7.7 1.3 1 2 .8 1.7.7 3.7.5 5.7-.1 1.2-.3 2.5-1.1 3.3-.2.2-.5.3-.6.6-.1.2-.1.5-.1.8-.1.8-.4 1.6-.8 2.3.7 0 1.3 0 2 .2 1.4.3 2.6 1.1 4 1.7.4.1.7.3 1.1.4.1-.5.2-1 .2-1.5.1-1.4-.4-2.6-.4-3.9z" class="colordddddd svgShape"></path><path fill="#14c5af" d="M48.6 88.1c-.9-.8-1.8-1.5-2.7-2.3-.7-.1-1.3 0-1.2.9.1 1.1.6 2.3.9 3.4.2.8.4 1.7.4 2.6.1 1-.1 2 0 3 .1 1.3.5 2.6.7 3.9.3 1.3.4 2.7-.1 3.9-.2.4-.4.9-.6 1.3-.7 1.5-.9 3.2-.5 4.8.1.2.1.4.1.7 0 .2-.2.3-.3.5-.8 1.2-.2 2.9-.7 4.2.4.2.8.4 1.2.5s.7.3 1.1.4c.1-.5.2-1 .2-1.5 0-1.2-.4-2.4-.4-3.7-.1-2.6 1.6-5 2.3-7.5.9-3.7-.3-7.6.6-11.3.2-.7.4-1.4.2-2.1-.1-.8-.7-1.3-1.2-1.7z" class="coloraaaaaa svgShape"></path><path fill="#3a3a3a" d="M41.8 113.8c-.7-.2-1.3-.2-2-.2-.7 1.3-1.8 2.4-2.7 3.6-.1.2-.2.4-.2.6s.1.4.2.5c.9 1.3 2.7 1.5 4.3 1.5.9 0 1.7 0 2.6-.1.4 0 .7-.1 1.1-.3.4-.2.6-.7.8-1.1.4-.8.8-1.7 1-2.5-.4-.1-.7-.2-1.1-.4-1.3-.5-2.6-1.3-4-1.6z" class="color3a3a3a svgShape"></path><path fill="#fdff3d" d="M95.8 99.9c-.1-.8-.8-1.4-1.3-1.9-2.9-2.6-5.8-5.2-8.7-7.6-.3-.3-.6-.5-1-.7-.7-.3-1.5-.1-2.3 0L79.3 92c.6 1.4 1.5 2.7 2.6 3.8 1.3 1.4 3 2.5 4 4.1s1.2 3.6.8 5.5c-.4 1.8-1.3 3.5-2.4 5-.6.8-1.4 1.7-1.3 2.8 0 .3.1.5.1.8-.1.4-.4.7-.8 1 .5-.1.9-.1 1.4-.1 1.3.1 2.5.6 3.6 1.3.6.4 1.3.8 1.9 1.1.4.1.7.2 1.1.2-.1-.7-.3-1.4.2-2 .3-.4.8-.5 1.1-.9.4-.5.5-1.1.4-1.8-.1-.6-.3-1.2-.4-1.8-.3-1.5 0-3.1.6-4.5s1.5-2.6 2.4-3.9c.7-.6 1.4-1.6 1.2-2.7z" class="colordddddd svgShape"></path><path fill="#14c5af" d="M94.6 102.8c.6-.8 1.4-1.8 1.2-2.9-.1-.8-.8-1.4-1.3-1.9-2.9-2.6-5.8-5.2-8.7-7.6-.3-.3-.6-.5-1-.7-.7-.3-1.5-.1-2.3 0L79.3 92c.5 1.2 1.2 2.3 2.1 3.3.4.1.8.1 1.3.1s1-.1 1.4-.1c.9 0 1.8.5 2.5 1 1.1.7 2.2 1.4 3.3 2.2 1 .7 2 1.5 2.3 2.7s-.3 2.3-1 3.3-1.5 1.9-1.8 3c-.3 1-.2 2 0 3-.7 0-1.2.6-1.3 1.3-.1.6 0 1.3.2 1.9.1.2.1.5 0 .7s-.4.3-.6.4c-.3.2-.5.7-.4 1.1 0 .2.1.3.2.5.6.3 1.1.7 1.7.9.4.1.7.2 1.1.2-.1-.7-.3-1.4.2-2 .3-.4.8-.5 1.1-.9.4-.5.5-1.1.4-1.8-.1-.6-.3-1.2-.4-1.8-.3-1.5 0-3.1.6-4.5.6-1.2 1.5-2.5 2.4-3.7z" class="coloraaaaaa svgShape"></path><path fill="#aeaeae" d="M22.6 13.3c-1.2-1.4-2-3.3-2-5.1 0-.8.1-1.7.4-2.4.5-1 1.4-1.8 2.3-2.4.4-.2.8-.5 1.3-.5.7-.1 1.4.3 1.9.8s.8 1.2 1 1.9c1.1 3 1.2 6.3 1.2 9.6 0 .5 0 1-.4 1.3-.2.1-.4.2-.7.2-.7.1-1.4.2-2.1.2-.8 0-.5-.3-.9-.9-.4-1.2-1.3-1.9-2-2.7z" class="coloraeaeae svgShape"></path><path fill="#efefef" d="M19.1 23.7s-4.8-4.2-8.8-.7c0 0 1.3-4 5.3-3.3 0 0-1.1-1.4-3.1-1.1 0 0 1-1.6 2.9-1.4 0 0 4-7.5 12.1-8.6 8.1-1 18.7 2 23.2 7.1s8 13.2 8.2 16.9c.2 3.7-1.8 18.9 0 22L38.4 37.9 19.1 23.7z" class="colorefefef svgShape"></path><path fill="#c1c1c1" d="M55.2 34.2c-1.1-5.9-4.3-11.9-6.4-16.3-2.1-4.4-12.5-6.6-21.3-5.2s-9.1 10.5-9.1 10.5c.4.3.7.5.7.5l19.3 14.2L58 52.5c-1.1-4.5-1.9-13.6-2.8-18.3z" class="colorc1c1c1 svgShape"></path><path fill="#3a3a3a" d="M14.7 17.3c-1.5.2-2.2 1.4-2.2 1.4 2-.3 3.1 1.1 3.1 1.1-4-.7-5.3 3.3-5.3 3.3 4-3.5 8.8.7 8.8.7l1.2.9 2.7-5s-1.7-2.5-7.5-2.3c-.3-.1-.5-.1-.8-.1zM27.5 8.7c-3 .4-5.4 1.7-7.3 3.1 2 .5 5.2 1.9 6 5l5.9-1.3s.5-4.4-1.1-7.1c-1.2.1-2.4.2-3.5.3zM44.2 22.1s4.4-3 5.5-7.4c-2.5-2.2-6.2-4-10.2-5 .6 1.9 1.1 5.2-.6 8.1l5.3 4.3zM49.9 32.4s5.3-1 7.8-4.6c-.7-2-1.8-4.3-3-6.4-1.1 1.5-3.7 4.7-7.1 4.8l2.3 6.2zM53.5 44s2.9-.6 4.9-2c.2-2.6.4-5.1.5-7-1.4 1.3-4.1 3.5-7.1 3.4-4.3-.3 1.7 5.6 1.7 5.6zM59.2 55.2c-1.2-.8-1.1-4.9-1.1-8.1-.9.6-2.4 1.5-4.1 1.3-.5-.1-.8.1-1.1.4l6.3 6.4z" class="color3a3a3a svgShape"></path><path fill="#592d72" d="M102.3 63.4c2.1-1.8 4.6-3.6 7.4-3.3 2.4.2 4.4 1.8 5.9 3.6 1.6 1.8 2.8 3.8 4.6 5.4-.8.3-1.8.3-2.6-.1.9 1.6 1.1 3.5 1.3 5.3.1 1.8.2 3.7.8 5.4.6 1.7 1.8 3.4 3.5 4-.9.4-1.9.4-2.8.2 1.3 1.5 2.3 3.3 2.7 5.2.4 1.7.4 3.7 1.6 5 .7.8 1.8 1.3 2.8 1.7-2.4.4-4.8-.2-7.1-.9-1.2-.4-2.4-.8-3.3-1.7-.8-.8-1.3-1.8-1.5-2.9-.3-1.1-.4-2.3-.4-3.5-.7.9-.9 2-.8 3.1-.5-1-.9-2.1-1.2-3.2-.1-.5-.2-1.1-.4-1.6s-.5-.8-.8-1.2c-1-1.2-2-2.4-2.4-3.9-.6-2-.1-4.1-.1-6.2 0-1.9-.5-3.9-1.7-5.3s-3.4-2.2-5.2-1.4l-.3-3.7z" class="color494d4e svgShape"></path><path fill="#211e23" d="M124.7 94.2c-1.2-1.3-1.2-3.3-1.6-5-.4-1.9-1.4-3.7-2.7-5.2.9.3 1.9.2 2.8-.2-1.7-.6-2.9-2.3-3.5-4s-.6-3.6-.8-5.4c-.1-1.8-.4-3.7-1.3-5.3.8.4 1.8.4 2.6.1-1.8-1.5-3.1-3.6-4.6-5.4-1.6-1.8-3.6-3.4-5.9-3.6-1.8-.1-3.6.6-5.1 1.6.3-.1.5-.1.6-.1 1.9-.2 3.9.1 5.4 1.3 1.8 1.4 2.7 4 4.7 5.1-.7.2-1.5 0-2.2-.4 1.8 1.8 2.9 4.3 3.1 6.8.1 1.5-.1 2.9 0 4.4s.7 3 2 3.7c-.6.4-1.6.1-1.8-.6.7 2.2 1.3 4.3 2.4 6.3 1 2 2.5 3.9 4.4 5.1-2.4.4-4.9-.7-6.2-2.7-1.5-2.4-1.3-5.6-3.1-7.8.2 1.1.1 2.2-.2 3.3.2-1.6-1.3-2.8-2.5-4-.8-.8-1.5-1.8-2-2.8 0 .3.1.5.2.7.4 1.5 1.5 2.7 2.4 3.9.3.4.6.8.8 1.2.2.5.3 1 .4 1.6.2 1.1.6 2.2 1.2 3.2-.2-1.1.1-2.2.8-3.1 0 1.2.1 2.4.4 3.5s.8 2.1 1.5 2.9c.9.9 2.1 1.3 3.3 1.7 2.3.7 4.7 1.3 7.1.9-.8-.4-1.9-.9-2.6-1.7z" class="color1e2223 svgShape"></path><path fill="#3a3a3a" d="M42.3 109.6s2.5-.1 4.4.8c0-.6.1-1.1.2-1.6-.7-.3-2.3-.5-4.6.8zM41.7 91.1s5.2 1.6 7.5 3c0-.6.1-1.1.2-1.7-1.6-.8-5-2.2-7.7-1.3zM49.1 102.6c-.8-.5-2.7-1.5-5.7-.6 0 0 3.5.8 5.2 2.4.1-.4.3-.8.4-1.2.1-.3.1-.5.1-.6zM49.3 97.1c-1.1-.5-3.6-1.3-7.3-.5 0 0 5.4.9 7.4 2.7 0-.7-.1-1.4-.1-2.2zM87.7 111.9s2.4 1.2 3.6 3c.1-.1.2-.2.3-.2.4-.4.5-.9.5-1.4-.7-.6-2-1.5-4.4-1.4zM95 98.6l-.5-.5c-.4-.4-.8-.7-1.2-1.1-1.9.2-5.2.7-6.9 2.6 0 0 6-1.3 8.6-1zM88.1 103.5s3.3-.5 5.7.4c.3-.4.5-.7.8-1.1.1-.2.2-.3.3-.5-1.6-.2-4.5-.4-6.8 1.2zM91.6 108.3c-1-.4-2.6-.6-4.6 0 0 0 2.6.6 4.4 1.7 0-.5.1-1.1.2-1.7zM87.2 116.2c-1.1-.7-2.3-1.2-3.6-1.3-.5 0-.9 0-1.4.1-.2.2-.5.3-.8.4-1.4.8-2.3 2.2-3.1 3.7-.2.4.2 1 .6 1.2.4.3.8.4 1.3.5 2.6.7 5.4 1.1 8 .3 1-.3 2-.9 2.2-1.9.1-.5 0-1.1-.1-1.7-.4 0-.8-.1-1.1-.2-.7-.3-1.3-.7-2-1.1zM45.9 117.2c-.2.2-.3.3-.3.4-1.5 1.4-2.4 2-4.4 4.2 2.2 2.6 5.9 2.8 9.5 2 .5-.1 1.6-.6 1.9-.9.8-.7.6-1.6.4-2.5-1.2-.4-2.4-1.1-3.6-1.8-1.1-.7-2.3-1.2-3.5-1.4z" class="color3a3a3a svgShape"></path><path fill="#efefef" d="M102.3 95.9c-1.1-2.1.4-4.5 1.6-6.5 3.1-5.1 5.3-11.3 4-17.2-3.8-16.8-21.3-13.4-21.3-13.4s-24.6 9.9-29.9-9c-5.9-21.2-9.8-27.7-9.8-27.7L21.4 42.8C35 50.9 32.7 65 37.7 77.5c1.1 2.7 2.6 5.3 4.4 7.5 1.6 1.9 3.4 3.6 4.5 5.8 1.3 2.7 1.3 5.9 1.2 8.9-.2 3.1 1.4 6.6 1.1 9.7-.1.8-1.5 3-2.2 4.9-.2.6.2 1.3.1 1.8-.1.2-.5.7-.7 1 1.2.2 2.4.8 3.5 1.4 1.2.6 2.4 1.3 3.6 1.8-.1-.4-.2-.7-.3-1.1-.3-1-.1-2.3 1.2-3.1-.8-4.1-1.4-8 1.2-11.3.5-.6 1-1.9.1-4.9-.9-3.1 2-4.7 1.6-8 5.4 2.3 11.2 3.4 17.1 3.2 3.6-.2 7.4-.9 10.2-3.2 1 2.3 3.6 4.3 5.6 5.7 2.1 1.5 3.8 2.5 5.4 4.5 1.7 2.2 1.9 5.3 1.1 8-.7 2.7-2.3 5-3.9 7.3-.3.5-.7 1.1-1.2 1.7 0 0 .1 0 .1-.1 1-.4 2.1-.6 3.2-.5s2.1.5 3.1.8 2.1.6 3.2.4c.4 0 .8-.2 1.1-.3-.1-.3-.2-.5-.3-.8 1.6-1.6-.3-4.2-.4-6.4-.2-3 2.8-5.2 3.9-8 .8-2.1.3-4.7-1.2-6.4-.6-.7-1.3-1.2-1.7-1.9z" class="colorefefef svgShape"></path><path fill="#3a3a3a" d="M48.9 111.6s2.5-.1 4.5.9c-.1-.6-.1-1.2-.1-1.8-.9-.3-2.4-.3-4.4.9zM51 93.9s2.6.8 4.9 1.8c.2-.4.4-.9.6-1.4-1.7-.6-3.7-1-5.5-.4zM49.3 104.7s2.9.7 4.7 1.9c.2-.5.5-1 .8-1.5-.8-.5-2.7-1.3-5.5-.4zM51 99.7s2.7.6 4.6 1.8c-.1-.5-.2-1-.4-1.6 0-.1-.1-.2-.1-.4-1-.3-2.3-.4-4.1.2zM86.6 58.7s-1.2.5-3.2 1c-2.9 7.1-.7 13.4-.7 13.4-.7-7 2.3-11.9 4.5-14.5-.3.1-.6.1-.6.1zM72.5 61.3c-2.9 17.2 3.7 22.1 3.7 22.1-4.1-8.9-1.6-17.9.2-22.3-1.3.2-2.6.3-3.9.2zM65.4 60c-4.2 15.2 3.3 26 3.3 26-4.5-9.5-.8-21.3.5-25-1.3-.2-2.6-.5-3.8-1zM61.7 57.9c-1.1-.9-2-1.9-2.9-3.2-9.8 11-6.5 21.2-6.5 21.2-8.2 7.9-5.9 11.9-5.9 11.9.3-6.1 7.6-7.2 7.6-7.2 4.1 4.5 3 10.3 3 10.3s2.3-5.5-1.2-15.5c-2.6-8.2 3.5-15.2 5.9-17.5zM56.7 49.8c-.3-1-.5-1.9-.8-2.8-1.9 2-5.6 5.7-9.7 7.9-8.5 4.6-9.1 14.1-9.1 14.1s3.6-8.1 10-10.6c5.3-2.1 8.6-4.7 10.4-6.4-.3-.7-.6-1.4-.8-2.2z" class="color3a3a3a svgShape"></path><path fill="#efefef" d="M44.7 41.1c-3 2.8-6.2 5.7-15.2 6.3-9 .5-9.7-1.7-11.4-.2-1.8 1.6-4.8 8.2-9.3 3.8s-2.4-5.8-.5-6.9c0 0-7.2.7-7.6-1.7s1.5-5.9 1.5-5.9-3.8-5 6.4-8.1c10.1-3.1 10.6-6.3 13.2-9.7 3.2-4.3 13.5-7.7 24 2.3 7.6 7.4 2.1 17.1-1.1 20.1z" class="colorefefef svgShape"></path><path fill="#c1c1c1" d="M18 47.2c1.8-1.6 2.5.7 11.4.2 9-.5 12.2-3.5 15.2-6.3 3.2-3 8.7-12.7 1.1-20.1-.5-.4-.9-.8-1.4-1.2l-1.3.4s6.7 9.1 0 15.8-13.3 9.8-19.5 9.5-7.1 1.8-7.1 1.8-4 6.5-7 2.3S8 45.7 8 45.7s7.2-1.9 8.4-7.8c0 0-9.7 6.4-12.8 3 0 0-1.5-2.2-.4-3.7 0 0-2.3-2.7-.6-5.9-2.7 2.6-.8 5.2-.8 5.2s-2 3.6-1.5 5.9c.4 2.4 7.6 1.7 7.6 1.7-1.9 1.1-4 2.5.5 6.9 4.9 4.4 7.8-2.2 9.6-3.8z" class="colorc1c1c1 svgShape"></path><path fill="#b0aeac" d="M31.7 31.7c-1.4 2.3-5.1 1.6-7 .2-1.9-1.3-1-3.5.6-5.7s3.6-4.1 5.4-2.8c1.9 1.4 2.8 5.5 1 8.3z" class="colorb0acad svgShape"></path><path fill="#ffffff" d="M31.5 31.3c-1.3 2.1-4.4 1.5-6 .4s-.7-3 .7-5.1c1.4-2 3.2-3.7 4.7-2.6s2.2 4.7.6 7.3z" class="colorffffff svgShape"></path><path fill="#1483c5" d="M27.5 29.6c0 1.2.4 2.3 1.1 3.1 1.2 0 2.3-.4 2.9-1.4 1-1.7 1.1-3.8.6-5.4-.4-.2-.9-.4-1.4-.4-1.7 0-3.2 1.9-3.2 4.1z" class="color185fed svgShape"></path><circle cx="30.6" cy="29.1" r="1.5" fill="#000000" class="color000000 svgShape"></circle><circle cx="29.6" cy="28.4" r=".8" fill="#ffffff" class="colorffffff svgShape"></circle><path fill="#f09e51" d="M8.2 44.1s5.9.2 8.4-6.3c0 0-1.3 10.7-7.1 9.2-5.8-1.3-1.3-2.9-1.3-2.9z" class="colorf05751 svgShape"></path><path fill="#efefef" d="M48 10.5c.8-.2 1.6-.2 2.4-.2 2.1-.1 4.2-.2 6.2.5.4.1.9.4 1 .8.1.6-.4 1-.8 1.5-1.6 1.6-2.4 3.8-3.7 5.5-1.7 2.3-4.3 3.9-7.1 4.3-2.8.5-5.8-.2-8.1-1.7-.1-.2-.2-.4-.2-.6-1.8.5-1.7-2.1-.7-2.9s2.3-.7 3.2-1.7c2.4-2.4 4.4-4.9 7.8-5.5z" class="colorefefef svgShape"></path><path fill="#c1c1c1" d="M57.7 11.6c-.1-.5-.6-.7-1-.8-2-.7-4.1-.6-6.2-.5-.8 0-1.6.1-2.4.2-.5.1-1 .2-1.4.4 1.4 0 2.8.1 4.2.5.4.1.9.4 1 .8.1.6-.4 1-.8 1.5-1.6 1.6-2.4 3.8-3.7 5.5-1.2 1.6-2.9 2.9-4.8 3.7 1.2.2 2.4.2 3.6 0 2.8-.5 5.4-2.1 7.1-4.3 1.3-1.8 2.1-4 3.7-5.5.4-.5.8-1 .7-1.5z" class="colorc1c1c1 svgShape"></path><path fill="#f1c295" d="M39.9 20.9c1.2-1.4 2.4-2.9 3.3-4.5.4-.6.7-1.2 1.2-1.7.2-.2.5-.5.8-.7.5-.4.9-.7 1.4-1 1.9-1.1 4.1-1.6 6.3-1.8.3 0 .6 0 .9.1.5.3.7 1 .5 1.6s-.7 1-1.1 1.4c-2 1.9-3.6 4.4-5.9 6-1.7 1.2-3.8 1.8-5.9 1.8-.4 0-2.1-.5-1.5-1.2z" class="colorf19c95 svgShape"></path><path fill="#ff9a3a" d="M41.7 22.1c.9-1.1 1.7-2.3 2.5-3.5.4-.6.7-1.2 1.2-1.7.2-.2.5-.5.8-.7.5-.4.9-.7 1.4-1 1.9-1.1 4.1-1.6 6.3-1.8h.1c.1-.2.2-.3.3-.5.2-.6.1-1.3-.5-1.6-.3-.1-.6-.1-.9-.1-2.2.2-4.4.7-6.3 1.8-.5.3-1 .6-1.4 1-.3.2-.5.4-.8.7-.5.5-.8 1.1-1.2 1.7-1 1.6-2.1 3.1-3.3 4.5-.6.8 1.1 1.2 1.5 1.2h.3z" class="colorf27676 svgShape"></path><path fill="#3a3a3a" d="M19.9 46.7c.5.1 1.2.2 2.1.4 1-6.4-3.6-8.4-3.6-8.4 3.2 3 2.2 6.4 1.5 8zM22.2 37.9c6.6 1.7 4.8 7.1 3.6 9.6h2.8c2.2-9.2-6.4-9.6-6.4-9.6zM37.6 45.8c-.3-1.9-1.7-6.3-7.6-8 0 0 5.6 3.6 3.8 9 1.5-.2 2.7-.6 3.8-1zM43.4 42.3c.4-.4.9-.8 1.3-1.2.4-.4.9-.9 1.4-1.6-2.1-1.6-6.5-4.1-14-4.3 0 .1 8 1.3 11.3 7.1zM36.8 15.4c-1.7-.6-3.4-.8-4.9-.9-.3 1.5-1.3 4.2-4.4 5.6-4.6 2-7 4.1-7 7.6 0 0 2.3-5.4 7-6 4.1-.6 8.1-4 9.3-6.3z" class="color3a3a3a svgShape"></path><path fill="#ff2020" d="M8.2 44.1s-.3.1-.6.3c1.3-.1 2.6.6 2.6.6 1.7-1.3 3.3-.8 4.2-.2 1.8-2.8 2.3-6.9 2.3-6.9-2.6 6.4-8.5 6.2-8.5 6.2z" class="colora52929 svgShape"></path><path fill="#3a3a3a" d="M49.4 26.8c-.1 4.9-1.1 16.9-8.5 24.9 0 0 8.9-2.9 12.1-14.1-1.4-4.5-2.6-8.4-3.6-10.8z" class="color3a3a3a svgShape"></path><path fill="#c1c1c1" d="M82 85.4s-14.8 7.5-24.1 1.2l-1.1 5.3c5.4 2.3 11.2 3.4 17.1 3.2 3.6-.2 7.4-.9 10.2-3.2-.1-.1-2.2-3.7-2.1-6.5zM44.9 81.3s-5.8-4.5-9.5-11.4c.6 2.6 1.3 5.1 2.3 7.6 1.1 2.7 2.6 5.3 4.4 7.5 1.6 1.9 3.4 3.6 4.5 5.8 0 .1-2.1-6.2-1.7-9.5z" class="colorc1c1c1 svgShape"></path><path fill="#848484" d="M5.6 36s.8-4.3 3.2-3.8c2.5.5 2.4 4.2 2.4 4.2s-1.2-2.8-2.5-2.9S5.6 36 5.6 36z" class="color848484 svgShape"></path><ellipse cx="8.6" cy="36.1" fill="#848484" rx="1.4" ry="1.8" class="color848484 svgShape"></ellipse><path fill="#c1c1c1" d="M108 72.2c-1.6-7.2-5.8-10.7-10-12.3 1.9 1.8 3.2 4.1 4 6.6.9 3.2.9 6.7.2 10-.4 2-1 3.9-1.9 5.7-1.4 2.8-3.6 5.6-3.2 8.7.6 3.8 5 6.6 4.5 10.4-.2 1.1-.8 2.2-.7 3.3 0 1 .5 1.9.2 2.8-.3 1-1.3 1.5-1.9 2.4-1.6 2.4 1 5.9-.3 8.5-.1.2-.3.4-.3.7 0 .2 0 .4.1.6.7.2 1.4.3 2.2.2.4 0 .8-.2 1.1-.3-.1-.3-.2-.5-.3-.8 1.6-1.6-.3-4.2-.4-6.4-.2-3 2.8-5.2 3.9-8 .8-2.1.3-4.7-1.2-6.4-.5-.6-1.2-1.1-1.5-1.8-1.1-2.1.4-4.5 1.6-6.5 3-5.4 5.2-11.6 3.9-17.4z" class="colorc1c1c1 svgShape"></path><path fill="#3a3a3a" d="M97.6 119.3c-1-.3-2.1-.7-3.1-.8-1.1-.1-2.2.1-3.2.5 0 0-.1 0-.1.1-1.1 1.5-2.3 3.2-2.3 3.9.2 2.5 6 2.4 8.5 2.1 1.9-.2 2.9-.5 4.1-2 1.1-1.2.9-2.2.4-3.7-.3.2-.7.3-1.1.3-1.1.2-2.2-.1-3.2-.4zM89.9 84.6s11-2 16.2.8c.4-1 .8-2 1.1-3-2.6-.6-9.5-1.6-17.3 2.2zM103.6 90c-2.5-.7-7.8-1.8-12.8.5 0 0 7.7-.1 11.4 2.5.2-1 .8-2.1 1.4-3zM97.9 108.3s2.1 1 3.3 2.7c.1-.6.3-1.1.6-1.6-.6-.6-1.9-1.1-3.9-1.1zM105.1 103.9c-1.4-.8-4-1.8-7.2-.6 0 0 4.1.2 6.1 2.8.4-.6.7-1.2 1-1.9.1-.1.1-.2.1-.3zM103.9 97.7c-.5-.5-1-1-1.4-1.6-1.8 0-4.7.4-6.7 2.6 0 0 5.5-1.7 8.6-.3-.2-.2-.3-.4-.5-.7zM108 72.2l-.6-2.1c-2.9-.4-12-.4-18.5 10.4 0 0 10.2-9.4 19.5-5.7-.1-.9-.2-1.8-.4-2.6zM98.5 60.1C85.4 67 85.7 77.3 85.7 77.3c3.7-11 13-14.3 16.3-15.1-1.1-.9-2.3-1.6-3.5-2.1z" class="color3a3a3a svgShape"></path></svg>