<svg xmlns="http://www.w3.org/2000/svg" viewBox="0 0 64 64" id="Egg"><path fill="#14c5af" d="M56,35.617C56,51.128,45.2549,62,32,62S8,51.128,8,35.617,18.7452,2,32,2,56,20.106,56,35.617Z" class="colore6f0f0 svgShape"></path><path fill="#fdff3d" d="M12.3907,17.7086l.0006-.0014a3.0114,3.0114,0,0,1,5.5976,0l.0006.0016.0007-.0016a3.0113,3.0113,0,0,1,5.5975,0l.0008.0019.0014-.0036a3.0113,3.0113,0,0,1,5.5974,0l.0013.0035.0015-.0036a3.0114,3.0114,0,0,1,5.5975,0l.0013.0036.0019-.0047a3.0114,3.0114,0,0,1,5.5973,0l.0017.0045.0012-.0029a3.0114,3.0114,0,0,1,5.5975,0l.0012.0029.0014-.0039a3.0113,3.0113,0,0,1,5.5973,0l.0018.0041.0026-.0068c.0114-.0284.0273-.0522.0393-.08C47.2887,8.7948,40.1177,2,32,2,23.8762,2,16.7,8.8051,12.3582,17.6418c.01.0233.023.043.0325.0666Z" class="colorffd6cf svgShape"></path><path fill="#ff9a3a" d="M12.4072,34.9662,12.41,34.96l.0016.0042a3.0114,3.0114,0,0,0,5.5975,0L18.01,34.96l.0012.0029a3.0113,3.0113,0,0,0,5.5974,0L23.61,34.96l.0018.0045a3.0113,3.0113,0,0,0,5.5973,0l.0019-.0047.0015.0036a3.0113,3.0113,0,0,0,5.5973,0l.0014-.0035.0014.0035a3.0113,3.0113,0,0,0,5.5974,0l.0015-.0036.0007.002a3.0114,3.0114,0,0,0,5.5976,0l.0006-.0017.0006.0017a3.0114,3.0114,0,0,0,5.5976,0l.0006-.0014v0a3.014,3.014,0,0,0,4.3732,1.4614c.0064-.2677.0172-.5335.0172-.8041a38.3837,38.3837,0,0,0-.98-8.4108,2.9839,2.9839,0,0,0-3.4269,1.8275L51.59,29.04l-.0018-.0041a3.0113,3.0113,0,0,0-5.5973,0L45.99,29.04l-.0012-.0029a3.0114,3.0114,0,0,0-5.5975,0L40.39,29.04l-.0017-.0045a3.0114,3.0114,0,0,0-5.5973,0l-.0019.0046-.0013-.0036a3.0114,3.0114,0,0,0-5.5975,0l-.0015.0035-.0013-.0035a3.0114,3.0114,0,0,0-5.5974,0l-.0014.0036-.0008-.0019a3.0113,3.0113,0,0,0-5.5975,0L17.99,29.04l-.0006-.0016a3.0114,3.0114,0,0,0-5.5976,0l-.0006.0013h0A2.9835,2.9835,0,0,0,8.98,27.2084,38.382,38.382,0,0,0,8,35.617c0,.2694.011.5339.0174.8A3.0148,3.0148,0,0,0,12.4072,34.9662Z" class="colorff9988 svgShape"></path><path fill="#fdff3d" d="M51.61,46.2916v0l-.0006.0015a3.0114,3.0114,0,0,1-5.5976,0l-.0006-.0017-.0006.0017a3.0114,3.0114,0,0,1-5.5976,0l-.0007-.002-.0015.0037a3.0113,3.0113,0,0,1-5.5974,0l-.0014-.0035-.0014.0035a3.0113,3.0113,0,0,1-5.5973,0l-.0015-.0037-.0019.0047a3.0113,3.0113,0,0,1-5.5973,0l-.0018-.0046-.0012.0029a3.0113,3.0113,0,0,1-5.5974,0l-.0012-.0029-.0014.004a3.0115,3.0115,0,0,1-5.5975,0l-.0016-.0043-.0027.0068a2.9346,2.9346,0,0,1-1.784,1.7208,23.3331,23.3331,0,0,0,42.7583-.01A2.9343,2.9343,0,0,1,51.61,46.2916Z" class="colorffd6cf svgShape"></path><circle cx="32" cy="32" r="1.8" fill="#14c5af" class="colore6f0f0 svgShape"></circle><circle cx="43.291" cy="32" r="1.8" fill="#14c5af" class="colore6f0f0 svgShape"></circle><path fill="#14c5af" d="M55.6292,30.5411a1.8,1.8,0,1,0,.28,2.6661Q55.8175,31.8793,55.6292,30.5411Z" class="colore6f0f0 svgShape"></path><circle cx="48.937" cy="32" r="1.8" fill="#14c5af" class="colore6f0f0 svgShape"></circle><circle cx="15.063" cy="32" r="1.8" fill="#14c5af" class="colore6f0f0 svgShape"></circle><path fill="#14c5af" d="M9.4176,33.8a1.8,1.8,0,1,0-1.0469-3.2591q-.1874,1.3373-.28,2.6665A1.7886,1.7886,0,0,0,9.4176,33.8Z" class="colore6f0f0 svgShape"></path><circle cx="26.354" cy="32" r="1.8" fill="#14c5af" class="colore6f0f0 svgShape"></circle><circle cx="37.645" cy="32" r="1.8" fill="#14c5af" class="colore6f0f0 svgShape"></circle><circle cx="20.709" cy="32" r="1.8" fill="#14c5af" class="colore6f0f0 svgShape"></circle><path fill="#ff2020" d="M36.86 45.5h0A15.2856 15.2856 0 0 0 45.5 36.8594h0c-3.0728-3.0728-6.5645-4.0384-10.7775-4.7956l-2.6586 2.6587C32.8211 38.9355 33.7866 42.4272 36.86 45.5zM27.1406 18.5h0A15.2861 15.2861 0 0 0 18.5 27.1406h0c3.0729 3.0728 6.5645 4.0383 10.7776 4.7955l2.6586-2.6586C31.179 25.0645 30.2134 21.5728 27.1406 18.5zM45.5 27.1406h0A15.2856 15.2856 0 0 0 36.86 18.5h0c-3.0729 3.0728-4.0384 6.5645-4.7956 10.7775l2.6586 2.6586C38.9355 31.1789 42.4272 30.2134 45.5 27.1406zM18.5 36.8594h0A15.2861 15.2861 0 0 0 27.1406 45.5h0c3.0728-3.0728 4.0384-6.5645 4.7956-10.7775l-2.6586-2.6587C25.0645 32.821 21.5729 33.7866 18.5 36.8594z" class="colorff4040 svgShape"></path><circle cx="32" cy="32" r="3.75" fill="#ff9a3a" class="colorff9988 svgShape"></circle></svg>