<svg xmlns="http://www.w3.org/2000/svg" viewBox="0 0 512 512" id="Egg"><path fill="#14c5af" d="M466.2 299.8C466.2 415.9 372.1 510 256 510S45.8 415.9 45.8 299.8 139.9 2 256 2s210.2 181.7 210.2 297.8z" class="color41b3e2 svgShape"></path><path fill="#ff9a3a" d="M55.4 362.8h401.2c2.4-7.7 4.4-15.6 5.9-23.7h-413c1.5 8.1 3.5 16 5.9 23.7zm10.4-169h380.3c-2.8-7.9-5.8-15.8-9.1-23.7H74.9c-3.3 7.9-6.3 15.8-9.1 23.7z" class="coloreff3f5 svgShape"></path><path fill="#fdff3d" d="M164.2 266c-.6-19.4-16.4-35.2-35.8-35.8-21.4-.7-38.9 16.8-38.2 38.2.6 19.4 16.4 35.2 35.8 35.8 21.4.7 38.8-16.8 38.2-38.2zm128.8 0c-.6-19.4-16.4-35.2-35.8-35.8-21.4-.7-38.9 16.8-38.2 38.2.6 19.4 16.4 35.2 35.8 35.8 21.4.7 38.9-16.8 38.2-38.2zm128.8 0c-.6-19.4-16.4-35.2-35.8-35.8-21.4-.7-38.9 16.8-38.2 38.2.6 19.4 16.4 35.2 35.8 35.8 21.4.7 38.9-16.8 38.2-38.2z" class="colorfbd984 svgShape"></path><path fill="#1483c5" d="m395.6 93.9-4.1 4.1-45.2-45.2L301.2 98 256 52.9 210.8 98l-45.1-45.2L120.5 98l-4.1-4.1c-4.8 6.9-9.5 14.1-13.9 21.5l18.1 18.1 45.2-45.2 45.1 45.2L256 88.2l45.2 45.2 45.1-45.2 45.2 45.2 18.1-18.1c-4.5-7.3-9.1-14.5-14-21.4zM361.9 389.6 309 442.5l-53-52.9-52.9 52.9-53-52.9-50.6 50.6c5.6 6.2 11.5 12.1 17.8 17.6L150 425l53 52.9 53-52.9 53 52.9 52.9-52.9 32.8 32.8c6.3-5.5 12.2-11.4 17.8-17.6l-50.6-50.6z" class="color2e89ac svgShape"></path></svg>