<svg xmlns="http://www.w3.org/2000/svg" viewBox="0 0 64 64" id="Guitar"><path fill="#14c5af" d="M62.2 1.72c-1.35-1.25-2.35-.49-2.35-.49s-11.43 6-11.1 6.53a1.09 1.09 0 0 1 0 1.09l3.33 3.07a3.6 3.6 0 0 1 3.65-1.25s3.15-5 3.58-5.6 1.54.19 2.25 0 2-2.07.64-3.35zM32.72 40.14S29 43.51 27.23 39l-.29-6.2s-2.05 1-3.12-1.53 3.52-5.69 1.62-6.6-5.16.41-8 6.4-5.27 6.7-9.13 8.12-13 7.65-1.46 18.29 15.78 4.25 18.56-4.66 6.64-3.4 9.85-10-2.54-2.68-2.54-2.68z" class="colorae1f23 svgShape"></path><path fill="#ff9a3a" d="M32.13 40.92S27.77 44 26.24 40l-.88-1.26s-.15-6-2.78-4.53c-1.42.82-3 4.82-4.78 5.48-9.58 3.48-7 7.15-2.35 11.42 4.22 3.89 3.45 7.89 4.6 8.48 1.61.86 4.27-3.06 5.69-7.61 2.43-7.79 5.8-3 8.61-8.75s-2.22-2.31-2.22-2.31Z" class="colordd7273 svgShape"></path><path fill="#1483c5" d="M21.852 38.075 48.741 8.854l3.326 3.06-26.889 29.221zM10.15 49.335l2.45-2.663 4.563 4.198-2.452 2.664z" class="color2b2a2a svgShape"></path><path fill="#fdff3d" d="m51.49 6.44-39.48 42.5.07.07 39.48-42.5-.07-.07zM12.676 49.557l41.29-44.48.073.069-41.29 44.48zM55.92 4.31 13.34 50.17l.07.07L55.99 4.38l-.07-.07zM14.01 50.78 58.224 3.132l.073.068-44.214 47.646zM14.666 51.391 59.905 2.623l.073.068-45.24 48.768z" class="colorffffff svgShape"></path><path fill="#fdff3d" d="M60.47 2.1a.76.76 0 1 0 0 1.08.76.76 0 0 0 0-1.08zm-1.93.7a.56.56 0 1 0 0 .79.56.56 0 0 0 0-.79zm-2.09 1a.56.56 0 0 0-.79 0 .56.56 0 1 0 .82.75.55.55 0 0 0-.03-.75zm-2.19 1.04a.56.56 0 1 0-.75.82.55.55 0 0 0 .78 0 .54.54 0 0 0-.03-.82zm-2.43 1.3a.56.56 0 0 0-.75.82.56.56 0 1 0 .75-.82z" class="colorffffff svgShape"></path><path fill="#ff2020" d="M62.2 1.72c-1.35-1.25-2.35-.49-2.35-.49l-1.6.85-7.74 8.41 1.55 1.43a3.6 3.6 0 0 1 3.65-1.25s3.15-5 3.58-5.6 1.54.19 2.25 0 2.02-2.07.66-3.35zM32.72 40.14S29 43.51 27.23 39l-.14-3-20 21.73c11.38 10.33 15.56 4 18.32-4.88s6.64-3.4 9.85-10-2.54-2.71-2.54-2.71z" class="colorbf2b37 svgShape"></path><path fill="#ff9a3a" d="M32.13 40.92S27.77 44 26.24 40l-.88-1.26s0-.37-.06-.9L14.2 50c.39.39.81.79 1.25 1.2 4.22 3.8 3.45 7.8 4.6 8.39 1.61.86 4.27-3.06 5.69-7.61 2.43-7.79 5.8-3 8.61-8.75s-2.22-2.31-2.22-2.31Z" class="colordd7273 svgShape"></path><path fill="#592d72" d="m23.615 39.715 26.889-29.22 1.553 1.428-26.89 29.22zM12.653 51.635l2.451-2.664 2.06 1.896-2.45 2.664z" class="color474748 svgShape"></path><path fill="#fdff3d" d="M14.01 50.78 58.224 3.132l.073.068-44.214 47.646zM14.666 51.391 59.905 2.623l.073.068-45.24 48.768z" class="colorffffff svgShape"></path><path fill="#fdff3d" d="M60.47 2.1a.76.76 0 1 0 0 1.08.76.76 0 0 0 0-1.08zm-1.93.7a.56.56 0 1 0 0 .79.56.56 0 0 0 0-.79zm-1.99 1.12-.72.79a.56.56 0 0 0 .72-.79z" class="colorffffff svgShape"></path></svg>