<svg xmlns="http://www.w3.org/2000/svg" viewBox="0 0 340 340" id="hat"><path fill="#14c5af" d="M63.656 158.074s-49.843 41.6-53.536 94.575a49.261 49.261 0 0 0 18.531 42.043c18.64 14.779 54.022 32.158 111.844 22.37a225.987 225.987 0 0 0 94.169-39.9c37.173-26.778 89.067-74.943 95.036-138.192 2.261-23.965-8.345-47.518-28.438-60.774-9.792-6.461-22.7-11.532-39.564-12.737Z" class="colorbac9e8 svgShape"></path><path fill="#1483c5" d="M301.262 78.194c-9.792-6.461-22.7-11.532-39.564-12.737l-6.764 3.164c2.455 12.594 9.671 43.742 9.671 43.742l2.641 45.214 57.319 7.356a132.9 132.9 0 0 0 5.135-25.965c2.261-23.968-8.345-47.518-28.438-60.774Z" class="color7b8bba svgShape"></path><path fill="#1483c5" d="M289.191 160.393S223.3 262.63 103.2 244.167L282.476 129Z" class="color7b8bba svgShape"></path><path fill="#14c5af" d="M50.828 133.88 52.1 209a27.118 27.118 0 0 0 10.491 21.07c17.15 13.178 66.329 27.77 133.025-5.371 0 0 46.4-23.613 71.629-67.125a82.582 82.582 0 0 0 11.016-41.56c-.036-27.333-4.532-72.8-33.687-76.487a33.891 33.891 0 0 1-15.108-5.868c-10.518-7.329-32.3-18.147-63.191-11.5a93.032 93.032 0 0 0-23.068 8.42c-18.842 9.731-62.882 35.852-85.943 77.462a51.505 51.505 0 0 0-6.436 25.839Z" class="colorbac9e8 svgShape"></path><path fill="#ff9a3a" d="M195.617 224.7s46.4-23.613 71.629-67.125a82.582 82.582 0 0 0 11.016-41.56 204.512 204.512 0 0 0-2.145-30.352c-23.2 61.511-50.082 82.664-90.328 105.426-23.7 13.406-56.333 22.224-75.247 21.252-24.281-1.247-48.48-12.029-58.775-23.061L52.1 209a27.118 27.118 0 0 0 10.491 21.07c17.151 13.181 66.33 27.773 133.026-5.37Z" class="colorf4f3ff svgShape"></path><path fill="#1483c5" d="M221.264 67.111S186 70.44 118.883 128.989a27.175 27.175 0 0 1-15.681 6.758c-5.017.386-10.7-.622-15-5.454A17.339 17.339 0 0 1 85.96 111c9.832-19.571 42.64-71.5 112.329-67.021a28.773 28.773 0 0 1 16.226 6.108c4.634 3.727 8.764 9.368 6.749 17.024Z" class="color7b8bba svgShape"></path><path fill="#1483c5" d="M103.2 135.747s-22.647 4.53-34.125-9.636a2.786 2.786 0 0 1 3.615-4.121 34.73 34.73 0 0 0 23.993 4.886zm118.064-68.636s12.516-.91 18.883-6.762a2.223 2.223 0 0 0-2.27-3.734 25.7 25.7 0 0 1-17.819.308s-2.93 1.807 1.206 10.188z" class="color7b8bba svgShape"></path><path fill="#fdff3d" d="M267.246 157.577a82.582 82.582 0 0 0 11.016-41.56 204.512 204.512 0 0 0-2.145-30.352 289.255 289.255 0 0 1-11.817 27.312s6.656 47.7-25.1 79.682a161.831 161.831 0 0 0 28.046-35.082Z" class="colorcbcde5 svgShape"></path></svg>