<svg xmlns="http://www.w3.org/2000/svg" viewBox="0 0 50 50" id="RainbowIce-cream"><path fill="#14c5af" d="M32.7 34.8 31.2 46c0 1.7-2.5 3-6.2 3s-6.2-1.1-6.2-3l-1.5-11.2c.5 1.9 3.5 3.1 7.7 3.1 4.2.1 7.2-1.2 7.7-3.1z" class="colordd9f57 svgShape"></path><path fill="#1483c5" d="m31.4 44.5.1-.7-.8.8-1.1-1.1 1.1-1.1.8.8.1-.5-.6-.6.8-.8.1-1.1-1-1 1.1-1.1.1.1.1-.8-.2.2-.9-.9c-.1.1-.2.1-.4.2l1 1-1.1 1.1-1.1-1.1.7-.7-.9.3-.1.1-.1-.1c-.1 0-.3.1-.5.1l.2.2-1.1 1.1-1-1c-.3 0-.6 0-.8.1l-1 1-1-1c-.3 0-.6 0-.9-.1l-1 1-1-1.1.2-.2c-.2 0-.3-.1-.5-.1l-.1-.1-.9-.3.6.6-1.1 1.1-1.1-1.1 1-1c-.1-.1-.3-.1-.4-.2l-.9.9-.2-.2.1.9.1-.1 1.1 1.1-1 1 .1 1.1.8.8-.6.6.1.5.8-.8 1.1 1.1-1.1 1.1-.8-.8.1.7.4.4-.3.3.1.5.5-.5 1.1 1.1-1 1 .3.3 1-1 1.1 1.1-.7.7c.1 0 .3.1.4.1l.5-.5.8.8c.4.1.8.1 1.2.1l.9-.9.9.9c.4 0 .8-.1 1.2-.1l.8-.8.5.5c.2 0 .3-.1.4-.1l-.7-.7 1.1-1.1 1 1 .3-.3-1-1 1.1-1.1.5.5.1-.5.1-.2.4-.4zm-2.1-1.3-1.1-1.1 1.1-1.1 1.1 1.1-1.1 1.1zm-6 .3-1.1 1.1-1.2-1.1 1.1-1.1 1.2 1.1zm-.9-1.4 1.1-1.1 1.1 1.1-1.1 1.1-1.1-1.1zm1.2 1.7 1.1 1.1-1.1 1.1-1.1-1.1 1.1-1.1zm.3-.3 1.1-1.1 1.1 1.1-1.1 1.1-1.1-1.1zm1.4-1.4 1.1-1.1 1.1 1.1-1.1 1.1-1.1-1.1zm1.1 1.7 1.1 1.1-1.1 1.1-1.1-1.1 1.1-1.1zm.3-.3 1.1-1.1 1.1 1.1-1.1 1.1-1.1-1.1zm5.2-2.9-1.1 1.1-1.1-1.1 1.1-1.1 1.1 1.1zm-2.6-2.5 1.1 1.1-1.1 1.1-1.1-1.1 1.1-1.1zm-.3 2.5-1.1 1.1-1.1-1.1 1.1-1.1 1.1 1.1zm-2.6-2.5 1.1 1.1-1.1 1.1-1.1-1.1 1.1-1.1zm-.2 2.5L25 41.8l-1.1-1.1 1.1-1.1 1.2 1zm-2.6-2.5 1.1 1.1-1.1 1.1-1.1-1.1 1.1-1.1zm-.3 2.5-1.1 1.1-1.2-1.1 1.1-1.1 1.2 1.1zm-2.6-2.5 1.1 1.1-1.1 1.1-1.1-1.1 1.1-1.1zm-2.6 2.5 1.1-1.1 1.1 1.1-1.1 1.1-1.1-1.1zm1.5 1.5 1.1-1.1 1.1 1.1-1.1 1.1-1.1-1.1zm0 2.8 1.1-1.1 1.1 1.1-1.1 1.1-1.1-1.1zm1.4 1.5 1.1-1.1 1.1 1.1-1.1 1.1-1.1-1.1zm2.6 2.5-1.1-1.1 1.1-1.1 1.1 1.1-1.1 1.1zm.3-2.5 1.1-1.1 1.1 1.1-1.1 1.1-1.1-1.1zm2.5 2.5-1.1-1.1 1.1-1.1 1.1 1.1-1.1 1.1zm1.5-1.4-1.1-1.1 1.1-1.1 1.1 1.1-1.1 1.1zm1.4-1.4L28.2 45l1.1-1.1 1.1 1.1-1.1 1.1z" class="colore0a764 svgShape"></path><path fill="#14c5af" d="m17.3 34.3.1.6c-.1-.2-.1-.4-.1-.6z" class="colordd9f57 svgShape"></path><path fill="#fc9c40" d="m23.4 19.4-6.9.8C15.4 6.6 25.2 2 28.1 1c-2.5 3.7-2 5.7-.3 7.7 1.8 1.5 3 7.4-4.4 10.7z" class="colorfcb040 svgShape"></path><path fill="#ff9a3a" d="M27.7 16.2c-1.1 1.4-2.7 2.4-4.3 3.1l-6.9.8v-.3c.9-2.4 2.7-5 5.9-7.1C28 9 23.4 6.9 28.1 1c-2.5 3.7-2 5.7-.3 7.7.8.7.9 1.2 1.2 2.5.4 1.7-.2 3.6-1.3 5z" class="colorf49537 svgShape"></path><path fill="#ea8728" d="M16.5 19.9c.6-2.3 2-4.7 5-7.1 4.2-3.1 3.2-3.6 3.8-6.8.3-2 1.5-3.7 2.8-5.1-4.2 7.6.3 8.3-6.1 12.6-4 2.9-5.4 6.3-5.5 6.4z" class="colorea7628 svgShape"></path><path fill="#ed2020" d="M33.8 21.9c-.1.9-.5 1.8-1 2.5-3.2 4.5-10.5 3.1-16.3 2.6-2.7-6.5 1.5-10.1 8.9-13.4 2.6-1.2 3.8-3.8 2.6-5 5 4 6.2 9.6 5.8 13.3z" class="colored207b svgShape"></path><path fill="#ff2020" d="m16.3 26.8.1.2c5.8.5 13.1 1.9 16.2-2.6 2.2-3.1 1.4-11-4.9-15.8l.4.4c7.8 10.2-9.2 12.9-11.8 17.8z" class="colord60368 svgShape"></path><path fill="#14c5af" d="M15.6 30.3v1c0 5.7 4.3 8.3 9.5 8.3s9.5-2.6 9.5-8.3v-1h-19z" class="colordd9f57 svgShape"></path><path fill="#d38d4a" d="M34.5 31.3c0 8.6-9.4 8.7-10.2 8.1.5-.2 1.3-.9 2.3-1 4.6-.8 5.6-3.6 3.2-3.4-.2 0-10.2.3-14.4-3.9 0-.3 18.9-.7 18.9-.7.2.2.2.5.2.9z" class="colord38e4a svgShape"></path><path fill="#edb987" d="M33.2 36.1c0 5.2-16.3 5.3-16.3 0 2.9 2.9 12.7 3.2 16.3 0z" class="coloredc587 svgShape"></path><path fill="#e5b17f" d="M17.6 36.7c.2.2.5.3.7.4-.3-.2-.5-.3-.7-.4zM33.2 36.1c0 2.3-3.3 3.9-8.1 3.9-.6 0-1.3 0-1.8-.1 8.4-.2 7.9-1.8 6-1.5-3.4.3-7.9.4-10.9-1.3 1.6.8 3.9 1.3 6.7 1.3 3.7 0 6.3-.7 8.1-2.3z" class="colore5b97f svgShape"></path><path fill="#683883" d="M33.5 30.1c-1.3 1.5-3.2 2.2-9 2.2-3 0-9.2-.2-9.2-3.1 0-3.6 3.7-3.5 10.5-3.4 3.3 0 7.8-1.3 8-4 1.2 2.3 1.5 6.2-.3 8.3z" class="color834838 svgShape"></path><path fill="#592d72" d="M31.4 28.3c-2.7 2.1-9.9 3.8-15.1 2.5 1.8 1.4 6 1.5 8.3 1.5 5.8 0 7.8-.7 9-2.2 1.8-2.1 1.4-6 .2-8.3 0 0 .9 3.9-2.4 6.5z" class="color70392c svgShape"></path><path fill="#4c2363" d="M17.7 31.5c2.1.7 5 .8 6.8.8 5.8 0 7.8-.7 9-2.2.7-.8 1-1.8 1.2-3-.7 1.4-2 2.6-3.4 3.3-1.9 1-4.1 1.2-6.3 1.2-2.1 0-4.3-.3-6.4-.3-.3.1-.6.1-.9.2z" class="color632d23 svgShape"></path><path fill="#451f5b" d="M33.8 21.8c.6 1.8.2 4.1-1 5.6-2.3 3.1-10.5 5.4-16.5 3.3 1.9.2 3.8.2 5.7 0 6.1-.6 12.2-2.6 11.8-8.9z" class="color5b291f svgShape"></path><path fill="#774c90" d="M25 27c-7.2 1.9-5.8 2.4-7.1 2.5-1.8.1-1.9-1.5-.8-2.3 2.3-1.6 10.8-.9 7.9-.2z" class="color905b4c svgShape"></path><path fill="#c40202" d="M16.3 26.8c.8-1.8 3.2-3.2 4.9-4.2 7.7-4.6 11.5-6.3 6.7-13.9 2.7 2.8 4 5.9 1.8 9-3.3 4.3-11.1 6-13.4 9.1z" class="colorc40268 svgShape"></path><path fill="#f19d4d" d="M25.1 15.8c-2.5 1.8-6.7 3.6-7.5 7.3-.1.5-.2 1.1-.7 1.1-.3 0-.7-.3-.7-1.1 0-4.3 4.8-6.4 7.4-7.8 2.1-1.1 3-1.8 4-2.8 1.5-1.5.3 1.4-2.5 3.3z" class="colorf14d95 svgShape"></path><path fill="#fdb570" d="M20.6 9.5c-1.1 2.6-3.4 7.7-3 3.6.2-1.8 1.6-4.7 4-7.2 1.9-1.8-.9 3.4-1 3.6z" class="colorfdc470 svgShape"></path><path fill="#edb987" d="M35.2 29.6c0 2-4.6 4.1-10.2 4.1-7 0-12.3-3.2-9.6-5.6-.9 4.3 17.5 6 19.1 0 .5.4.7 1.1.7 1.5z" class="coloredc587 svgShape"></path><path fill="#e5b17f" d="M25 33.7c-1.4 0-2.8-.2-4-.4 8.3.6 11.3-1.1 8.4-1-3.5.1-10.7.2-13.5-2.7 1.6 1.7 6.6 2.4 9.1 2.5 3 .1 8.6-.7 9.5-3.9 2.9 2.4-2.7 5.5-9.5 5.5z" class="colore5b97f svgShape"></path><path fill="#e2a870" d="M19.4 37.1c-2.2-.6-3.2-2.1-3.8-4.3 1.8 1.9 4.2 3.1 6.8 3.3 2.3.3 2.9 2.7-3 1zM18 40c1 6.8.6 6.9 1.6 7.6 2.4 1.6 8.2 1.3 7.7-2-.4-3.6-5.8-.8-9.3-5.6z" class="colore2ad70 svgShape"></path><path fill="#e5b17f" d="M27.4 45.7v-.1c0-.1-.1-.3-.1-.4l-.8.8-1.1-1.1.9-.9c-.1-.1-.2-.2-.4-.2l-.9.8-1.1-1.1.2-.2c-.2 0-.3-.1-.5-.1s-.5-.1-.7-.1l.4.4-1.1 1.1-1.2-1.1.7-.7c-.1 0-.3-.1-.4-.2l-.6.6-1.1-1.1.3-.3c-.1-.1-.2-.2-.3-.2l-.2.2-1.1-1.1.2-.2-.3-.3-.2-.1.1 1.1.8.8-.6.6.1.5.8-.8 1.1 1.1-1.1 1.1-.8-.8.1.7.4.4-.3.3.1.5.5-.5 1.1 1.1-1 1c.1.1.2.1.3.2 0 0 .1 0 .1.1l1-1 1.1 1.1-.5.5c.2 0 .3.1.5.1l.3-.3.4.4h.6l-.7-.7 1.1-1.1 1.1 1.1-.6.9c.2 0 .4 0 .6-.1l.4-.4.2.2c.1 0 .3-.1.4-.2l-.4-.4 1.1-1.1.5.5c.1-.1.2-.2.2-.4l-.4-.4.8-.5zm-7.8-.8 1.1-1.1 1.1 1.1-1.1 1.1-1.1-1.1zm2.5 2.6L21 46.4l1.1-1.1 1.1 1.1-1.1 1.1zm.3-2.6 1.1-1.1 1.1 1.1-1.1 1.1-1.1-1.1zm2.6 2.6-1.1-1.1 1.1-1.1 1.1 1.1-1.1 1.1z" class="colore5b57f svgShape"></path><path fill="#fdff3d" d="M20 32.9c-1.3-.3-2.6-.9-3.7-1.6-1.2-.8-1.6-1.5-1.1-2.6-.3.9.4 1.6 1.2 2.2 1.1.8 2.5 1.3 3.8 1.6.5 0 .5.5-.2.4zM17.8 37.8c.4.2 3.9 1.4 5 1.6 1.7.4-3.5 0-5-1.6z" class="colorf1d2a1 svgShape"></path></svg>