<svg xmlns="http://www.w3.org/2000/svg" viewBox="0 0 512 512" id="Jacket"><g fill="#ff9a3a" class="color000000 svgShape"><polygon fill="#14c5af" points="376.84 184 376.84 384 374.68 391.54 360.84 440 152 440 138.14 391.49 136 384 136 184 184 72 200 32 312.84 32 328.84 72 376.84 184" class="color428dc5 svgShape"></polygon><path fill="#e4e4e2" d="M184,72l-28.342,6.3a90,90,0,0,0-62.292,50.358L32.11,262.305a79.992,79.992,0,0,0-7.184,37.138l6.348,133.318A16,16,0,0,0,47.256,448h55.283a9,9,0,0,0,8.989-9.449L96,288l40-104h0Z" class="colore4e4e2 svgShape"></path><rect width="88" height="48" x="152" y="440" fill="#dbdbdb" class="colordbdbdb svgShape"></rect><rect width="56" height="40" x="48" y="448" fill="#fdff3d" class="colorcbcbcb svgShape"></rect><path fill="#e4e4e2" d="M328.835,72l28.342,6.3a90,90,0,0,1,62.292,50.358l61.256,133.649a79.992,79.992,0,0,1,7.184,37.138l-6.348,133.318A16,16,0,0,1,465.579,448H410.3a9,9,0,0,1-8.989-9.449L416,288,376.835,184h0Z" class="colore4e4e2 svgShape"></path><rect width="120.84" height="48" x="240" y="440" fill="#ebebeb" class="colorebebeb svgShape"></rect><rect width="56" height="40" x="408.835" y="448" fill="#fdff3d" class="colorcbcbcb svgShape"></rect><rect width="16" height="336" x="248" y="104" fill="#1483c5" class="color3b7eb0 svgShape"></rect><rect width="64" height="16" x="152" y="456" fill="#a83232" class="colora83b32 svgShape"></rect><rect width="96.84" height="16" x="264" y="456" fill="#ff2020" class="colorb94137 svgShape"></rect><polygon fill="#592d72" points="290.44 64 222.4 64 256 112 290.44 64" class="color2d5f85 svgShape"></polygon><polygon fill="#a83232" points="312.84 32 200 32 222.4 64 290.1 64 312.84 32" class="colora83b32 svgShape"></polygon><path fill="#377ba4" d="M200 288a117.06 117.06 0 0 1-48.92 95.06l-1.01.72q-5.775 4.125-11.93 7.71L136 384v-9.99c1.61-1.05 3.21-2.13 4.77-3.25l1.01-.72A101 101 0 0 0 184 288zM376.84 374v10l-2.16 7.54c-4.42-2.66-8.75-5.5-12.93-8.48A117.06 117.06 0 0 1 312.83 288h16a101.028 101.028 0 0 0 42.22 82.04Q373.9 372.08 376.84 374z" class="color3775a4 svgShape"></path><polygon fill="#ff2020" points="200 32 256 112 224 128 184 72 200 32" class="colorb94137 svgShape"></polygon><polygon fill="#ff2020" points="312.835 32 256 112 288.835 128 328.835 72 312.835 32" class="colorb94137 svgShape"></polygon><path d="M488,258.973l-61.256-133.65a98.533,98.533,0,0,0-67.829-54.835L334.7,65.108,320.268,29.029A8,8,0,0,0,312.84,24H200a8,8,0,0,0-7.428,5.029L178.141,65.107l-24.218,5.381a98.527,98.527,0,0,0-67.829,54.835L24.838,258.973a88.364,88.364,0,0,0-7.9,40.85l6.348,133.319A23.971,23.971,0,0,0,40,454.881V488a8,8,0,0,0,8,8h56a8,8,0,0,0,8-8V453.105a16.836,16.836,0,0,0,2.855-2.388,17.073,17.073,0,0,0,4.663-12.566c-.007-.14-.018-.281-.033-.421L104.154,289.084l23.846-62V384a8.013,8.013,0,0,0,.308,2.2L144,441.122V488a8,8,0,0,0,8,8H360.835a8,8,0,0,0,8-8V441.139l15.7-54.941a8.013,8.013,0,0,0,.308-2.2V227.956l23.017,61.12-14.511,148.7c-.013.126-.022.252-.029.378a17.077,17.077,0,0,0,4.662,12.566,16.882,16.882,0,0,0,2.856,2.388V488a8,8,0,0,0,8,8h56a8,8,0,0,0,8-8V454.881a23.971,23.971,0,0,0,16.717-21.739L495.9,299.823A88.381,88.381,0,0,0,488,258.973ZM328.835,288h-16a117.048,117.048,0,0,0,48.919,95.059l5.842,4.173L354.805,432H264V124.8l21.331,10.394a7.994,7.994,0,0,0,10.014-2.541l31.737-44.431,41.758,97.435V368.406A101.025,101.025,0,0,1,328.835,288Zm-170.8,144-12.792-44.771,5.837-4.17A117.045,117.045,0,0,0,200,288H184a101.023,101.023,0,0,1-40,80.4V185.641l41.753-97.422L217.49,132.65a8,8,0,0,0,10.088,2.5L248,124.944V432ZM256.049,98.119,237.765,72h36.84Zm54.812-49.527,8.925,22.313-33.528,46.94-18.272-8.9ZM285.972,56H226.565l-11.2-16h81.974Zm-41.843,52.991-17.593,8.8L193.052,70.909l8.88-22.2ZM56,480V456H96v24ZM88.042,288.82l15.5,150.241a1,1,0,0,1-1,.939H47.256a7.99,7.99,0,0,1-7.99-7.62L32.917,299.062a72.3,72.3,0,0,1,6.466-33.423l61.256-133.65a82.442,82.442,0,0,1,56.755-45.882L170.5,83.2l-41.852,97.654c-.039.092-.077.185-.113.279l-40,104A8,8,0,0,0,88.042,288.82ZM160,472h56V456H160v-8h72v32H160Zm88,8V448H352.835v8H264v16h88.835v8Zm168.835,0V456h40v24Zm63.083-180.938L473.569,432.38a7.99,7.99,0,0,1-7.99,7.62H410.3a1,1,0,0,1-1-.951l14.665-150.272a7.981,7.981,0,0,0-.476-3.6l-39.165-104c-.042-.112-.086-.223-.133-.332L342.337,83.2l13.105,2.912A82.442,82.442,0,0,1,412.2,131.989l61.256,133.65A72.309,72.309,0,0,1,479.918,299.062Z" fill="#ff9a3a" class="color000000 svgShape"></path></g></svg>