<svg xmlns="http://www.w3.org/2000/svg" viewBox="0 0 48 48" id="Key"><path fill="#ff9a3a" d="M26.57 27.43C19.12 34.88 20 33.33 20 36.5a1.5 1.5 0 0 1-1.5 1.5c-1.61 0-2.35-.15-2.94.44C13.75 40.25 14 39.65 14 42.5a1.5 1.5 0 0 1-1.5 1.5h-1a1.5 1.5 0 0 0-1.5 1.5A1.5 1.5 0 0 1 8.5 47H1c0-5.31-.35-6.65 1.17-8.17l18.07-18.07a14 14 0 0 0 6.33 6.67Z" class="colorffba55 svgShape"></path><path fill="#fdff3d" d="M23.72 27.28c-5.89 5.89-5.22 4.5-5.22 7.72a1.5 1.5 0 0 1-1.5 1.5c-1.61 0-2.35-.15-2.94.44-1.81 1.81-1.56 1.21-1.56 4.06a1.5 1.5 0 0 1-1.5 1.5h-1A1.5 1.5 0 0 0 8.5 44 1.5 1.5 0 0 1 7 45.5H1c0-3.81-.31-5.19 1.17-6.67l17.07-17.07a14 14 0 0 0 4.48 5.52Z" class="colorffcc66 svgShape"></path><path fill="#ff9a3a" d="M6.5 42.5a1 1 0 0 1-.71-1.71l16.5-16.5a1 1 0 0 1 1.42 1.42C5.8 43.61 7.1 42.5 6.5 42.5Z" class="colorffba55 svgShape"></path><path fill="#ff9a3a" d="M33 1a14 14 0 0 0-14 14c0 13.14 16.56 19 24.84 8.84A14 14 0 0 0 33 1Zm5 6a3 3 0 1 1-3 3 3 3 0 0 1 3-3Z" class="colorffba55 svgShape"></path><path fill="#fdff3d" d="M33 1a13.88 13.88 0 0 0-8.84 3.16 14 14 0 0 0 19.68 19.68A14 14 0 0 0 33 1Zm5 12a3 3 0 1 1 3-3 3 3 0 0 1-3 3Z" class="colorffcc66 svgShape"></path><path fill="#ff9a3a" d="M42 9a3 3 0 0 0-5.56-1.56 3 3 0 0 1 4.12 4.12A3 3 0 0 0 42 9Z" class="colorffba55 svgShape"></path></svg>