<svg xmlns="http://www.w3.org/2000/svg" viewBox="0 0 52 52" id="Money"><path fill="#ff2020" d="M49.26 36.488c.01-.02.02-.07.02-.17-.072 1.935.159 2.442-.3 3.31-.147.315-.522.795-1.05 1.191-.08.08-.17.15-.27.2-.11.09-.23.15-.35.23-.14.08-.28.15-.44.23-.08.04-.17.09-.27.13-.25.11-.5.21-.77.29-.09.03-.18.06-.28.08-.25.08-.51.14-.78.2-.09.02-.19.03-.28.05-.26.05-.511.08-.771.1-.09.01-.19.02-.27.02-.27.04-.53.05-.79.05h-.27c-.27 0-.53-.03-.78-.05-.09 0-.18-.01-.27-.02-.26-.02-.53-.06-.79-.11-.09-.01-.18-.03-.27-.05-.26-.06-.53-.12-.781-.2a1.38 1.38 0 0 1-.27-.08c-.27-.08-.53-.18-.79-.3-.09-.03-.18-.08-.27-.12-.028-.016-.56-.297-.77-.45-.1-.07-.19-.13-.28-.21-.31-.23-.58-.49-.77-.76a1.77 1.77 0 0 1-.28-.43c-.484-.895-.232-1.404-.29-3.341l.001.04c-.001-.105 0-.211.008-.32v-.02c-.01-.1-.02-.19-.02-.29l.01-2.06v-.13l.002.053c-.024-1.015.632-2.034 1.959-2.804 2.63-1.52 6.901-1.52 9.542 0 1.4.81 2.06 1.89 1.98 2.95.01-.01.02-.06.02-.16 0 .01-.01 2.884-.02 2.951z" class="color9ad898 svgShape"></path><path fill="#ff2020" d="M41.338 27.916c-.504.292-6.087 3.52-6.591 3.81 0 .807.007.887-.02.981.01.01.01.02 0 .03.049.293.022 2.643.01 2.7.01.09.02.18.02.27l-.01 2.191c0 .07 0 .14-.02.21.01.01.01.02 0 .03.054.326.02.371.02 2.54 0 .05 0 .11-.01.16.01.091.02.18.02.271l-.01 2.19c0 .07 0 .15-.02.22.052.105.017 1.736.02 2.561 0 .39-.1.77-.29 1.13-.07.14-.16.28-.27.41-.2.28-.46.54-.77.78-.09.08-.18.14-.28.2-.11.08-.23.15-.35.23-.14.07-.28.15-.43.22-.09.05-.18.09-.28.14-.25.11-.5.2-.77.29-.09.02-.18.06-.28.08-.25.07-.511.141-.781.19-.09.03-.19.04-.27.061-.27.04-.52.07-.78.1-.09.01-.19.02-.27.02-.27.03-.53.04-.79.04h-.27c-.26 0-.53-.02-.78-.04-.08 0-.18-.01-.27-.02-.26-.03-.52-.07-.791-.11-.08-.01-.18-.04-.27-.06-.26-.05-.52-.12-.78-.19-.09-.03-.18-.05-.27-.08-.27-.09-.53-.19-.78-.31-.1-.03-.19-.07-.28-.12-.14-.07-.27-.14-.4-.21-.13-.08-.26-.16-.37-.23-.1-.07-.19-.13-.28-.21-.31-.23-.57-.49-.77-.77-.11-.13-.21-.27-.271-.42-.21-.37-.31-.76-.31-1.15l.01-2.191c0-.08 0-.17.02-.25-.055-.301-.02-2.617-.01-2.671-.039-.387-.01-.172-.01-1.42l-5.911 3.42v-.01L2.73 35.608l-.01-3.851.92-.53-.91-.53-.01-3.841.92-.53-.91-.53-.01-3.851.92-.53-.91-.53-.01-3.851 2.92-1.68 4.842-2.801 9.692-5.602 2.47-1.43h.01l.32-.19 2.83-1.63s.01 0 .01.01l2.912-1.68 3.3 1.92 6.002 3.48 3.3 1.92h.01v3.842l-.93.54.92.53h.01v3.84l-.92.53.91.531h.01v3.85l-.92.531.91.53h.01v3.841z" class="color9ad898 svgShape"></path><path fill="#592d72" d="m2.723 31.759.012 3.847 12.609 7.328-.012-3.847z" class="color75ca75 svgShape"></path><path fill="#592d72" d="M41.337 24.076v3.842C35.2 31.463 21.479 39.39 15.34 42.935l-.017-3.842 2.918-1.697 16.63-9.587.424-.238v-.017l.34-.186 2.782-1.612 2.919-1.68z" class="color75ca75 svgShape"></path><path fill="#ff2020" d="m2.723 31.759 12.609 7.328L41.33 24.076l-12.609-7.327z" class="color9ad898 svgShape"></path><path fill="#14c5af" d="m38.417 25.754-20.174 11.65c-1.826-1.068-4.603-1.17-6.21-.232l-6.005-3.498c1.62-.925 1.44-2.532-.385-3.6l20.16-11.649c1.826 1.067 4.616 1.17 6.223.245l6.005 3.484c-1.607.926-1.44 2.546.386 3.6z" class="color6eba6e svgShape"></path><path fill="#ff2020" d="M28.4 22.782c-.705.408-.717 1.057-.016 1.465.702.408 1.823.403 2.529-.005.698-.403.71-1.052.008-1.46-.701-.407-1.822-.402-2.52 0zM12.936 31.67c-.698.403-.71 1.052-.008 1.46.701.407 1.822.403 2.52 0 .706-.408.718-1.057.016-1.465-.701-.407-1.822-.403-2.528.005zm14.038-.93c-2.173 1.26-6.107.977-8.846-.617-2.726-1.582-3.201-3.87-1.041-5.118 2.147-1.247 6.107-.964 8.846.617 2.726 1.582 3.189 3.883 1.041 5.118z" class="color9ad898 svgShape"></path><path fill="#14c5af" d="M25.735 28.757c.134-.16.201-.321.214-.481.027-.361-.173-.682-.641-.963a2.811 2.811 0 0 0-1.511-.36c-.535.026-1.176.173-1.939.44l-.026.014-.174-.094V27.3l-1.324-.762c.468-.2.99-.335 1.605-.401l-.2-.722c-.883.093-1.645.294-2.274.615l-.414-.228-.508.294.401.228c-.508.32-.775.655-.789 1.016a.656.656 0 0 0 .094.414c.093.187.267.361.548.522.227.133.454.227.695.28h.013c.241.067.495.094.75.08.52-.026 1.162-.16 1.91-.44l1.552.895c-.562.24-1.257.374-2.086.401l.094.749c1.11-.04 2.059-.254 2.86-.642l.589.334.508-.294-.575-.32c.28-.188.495-.375.628-.562zm-4.679-1.11c-.013.014-.026.014-.026.014-.335.093-.589.147-.762.147-.214 0-.402-.054-.589-.16a.564.564 0 0 1-.16-.134.247.247 0 0 1-.08-.241c0-.147.147-.294.36-.455l1.124.655.213.12.014.014.027.014c-.04.013-.08.026-.12.026zm3.583.695c-.04.148-.16.308-.388.468l-1.443-.828c.2-.067.387-.12.548-.148.16-.04.294-.053.414-.053.227 0 .441.04.629.147.147.08.227.2.24.32v.094z" class="color6eba6e svgShape"></path><path fill="#1483c5" d="m35.629 27.357-2.798 1.626-12.655-7.306 2.798-1.626z" class="colore4e8f4 svgShape"></path><path fill="#f9ab60" d="m35.629 27.357-.332.193-12.655-7.306.332-.193z" class="colorf9607f svgShape"></path><path fill="#ddddca" d="M35.635 27.35v3.86l-2.8 1.612V28.98l2.037-1.171.424-.255.34-.203z" class="colorcad0dd svgShape"></path><path fill="#f9ab60" d="M35.635 27.351v3.859l-.339.203v-3.859z" class="colorf9607f svgShape"></path><path fill="#592d72" d="m2.723 26.852.012 3.847 12.609 7.327-.012-3.847z" class="color75ca75 svgShape"></path><path fill="#592d72" d="M41.337 19.168v3.842l-5.702 3.292-.339.204-19.955 11.522-.017-3.842 2.918-1.697 14.594-8.417 1.035-.594 1-.577.425-.237v-.017l.34-.187 2.782-1.612 2.919-1.68z" class="color75ca75 svgShape"></path><path fill="#ff2020" d="m2.723 26.852 12.609 7.327 25.998-15.01-12.609-7.327z" class="color9ad898 svgShape"></path><path fill="#14c5af" d="M38.417 20.847 18.243 32.496c-1.826-1.067-4.603-1.17-6.21-.232l-6.005-3.497c1.62-.926 1.44-2.533-.385-3.6l20.16-11.65c1.826 1.068 4.616 1.171 6.223.245l6.005 3.485c-1.607.925-1.44 2.545.386 3.6z" class="color6eba6e svgShape"></path><path fill="#ff2020" d="M28.4 17.875c-.705.408-.717 1.057-.016 1.465.702.407 1.823.402 2.529-.005.698-.403.71-1.052.008-1.46-.701-.408-1.822-.403-2.52 0zm-15.465 8.887c-.698.402-.71 1.052-.008 1.46.701.407 1.822.402 2.52 0 .706-.408.718-1.057.016-1.465-.701-.408-1.822-.403-2.528.005zm14.038-.93c-2.173 1.26-6.107.976-8.846-.618-2.726-1.581-3.201-3.87-1.041-5.117 2.147-1.247 6.107-.964 8.846.617 2.726 1.581 3.189 3.883 1.041 5.117z" class="color9ad898 svgShape"></path><path fill="#14c5af" d="M25.735 23.85c.134-.161.201-.321.214-.482.027-.36-.173-.682-.641-.962a2.81 2.81 0 0 0-1.511-.361c-.535.026-1.176.173-1.939.44l-.026.014-.174-.093v-.014l-1.324-.762c.468-.2.99-.334 1.605-.4l-.2-.723c-.883.094-1.645.294-2.274.615l-.414-.227-.508.294.401.227c-.508.321-.775.655-.789 1.016a.656.656 0 0 0 .094.415c.093.187.267.36.548.521.227.134.454.227.695.28h.013c.241.068.495.095.75.081.52-.027 1.162-.16 1.91-.441l1.552.896c-.562.24-1.257.374-2.086.4l.094.75c1.11-.04 2.059-.255 2.86-.642l.589.334.508-.294-.575-.321c.28-.187.495-.374.628-.562zm-4.679-1.11c-.013.013-.026.013-.026.013-.335.094-.589.147-.762.147-.214 0-.402-.053-.589-.16a.564.564 0 0 1-.16-.134.247.247 0 0 1-.08-.24c0-.148.147-.295.36-.455l1.124.655.213.12.014.014.027.013c-.04.013-.08.027-.12.027zm3.583.695c-.04.147-.16.308-.388.468l-1.443-.829c.2-.067.387-.12.548-.147.16-.04.294-.054.414-.054.227 0 .441.04.629.148.147.08.227.2.24.32v.094z" class="color6eba6e svgShape"></path><path fill="#1483c5" d="m35.629 22.45-2.798 1.626-12.655-7.307 2.798-1.626z" class="colore4e8f4 svgShape"></path><path fill="#f9ab60" d="m35.629 22.45-.332.193-12.655-7.307.332-.193z" class="colorf9607f svgShape"></path><path fill="#ddddca" d="M35.635 22.443v3.859l-.339.204-2.46 1.408v-3.842l1.035-.594 1.001-.577.424-.254z" class="colorcad0dd svgShape"></path><path fill="#f9ab60" d="M35.635 22.443v3.859l-.339.204v-3.859z" class="colorf9607f svgShape"></path><path fill="#592d72" d="m2.723 21.944.012 3.847 12.609 7.328-.012-3.847z" class="color75ca75 svgShape"></path><path fill="#592d72" d="M41.337 14.261v3.842l-5.702 3.292-.339.204-2.46 1.408L15.341 33.12l-.017-3.842 2.918-1.697 14.594-8.416 1.035-.594 1.001-.577.424-.238v-.016l.339-.187 2.783-1.612z" class="color75ca75 svgShape"></path><path fill="#ff2020" d="m2.723 21.944 12.609 7.328 25.998-15.01-12.609-7.328z" class="color9ad898 svgShape"></path><path fill="#14c5af" d="M38.417 15.94 18.243 27.587c-1.826-1.067-4.603-1.17-6.21-.231L6.028 23.86c1.62-.926 1.44-2.533-.385-3.6l20.16-11.65c1.826 1.068 4.616 1.17 6.223.245l6.005 3.484c-1.607.926-1.44 2.546.386 3.6z" class="color6eba6e svgShape"></path><path fill="#ff2020" d="M28.4 12.968c-.705.407-.717 1.057-.016 1.464.702.408 1.823.403 2.529-.005.698-.402.71-1.052.008-1.46-.701-.407-1.822-.402-2.52 0zm-15.465 8.886c-.698.403-.71 1.052-.008 1.46.701.408 1.822.403 2.52 0 .706-.408.718-1.057.016-1.465-.701-.407-1.822-.402-2.528.005zm14.038-.93c-2.173 1.26-6.107.977-8.846-.617-2.726-1.582-3.201-3.87-1.041-5.118 2.147-1.247 6.107-.964 8.846.618 2.726 1.581 3.189 3.883 1.041 5.117z" class="color9ad898 svgShape"></path><path fill="#14c5af" d="M25.735 18.942c.134-.16.201-.32.214-.481.027-.361-.173-.682-.641-.963a2.811 2.811 0 0 0-1.511-.36c-.535.026-1.176.173-1.939.44l-.026.014-.174-.094v-.013l-1.324-.762c.468-.2.99-.335 1.605-.401l-.2-.722c-.883.093-1.645.294-2.274.615l-.414-.228-.508.295.401.227c-.508.32-.775.655-.789 1.016a.656.656 0 0 0 .094.414c.093.187.267.361.548.522.227.133.454.227.695.28h.013c.241.067.495.094.75.08.52-.026 1.162-.16 1.91-.44l1.552.895c-.562.24-1.257.375-2.086.401l.094.749c1.11-.04 2.059-.254 2.86-.642l.589.334.508-.294-.575-.32c.28-.188.495-.375.628-.562zm-4.679-1.11c-.013.014-.026.014-.026.014-.335.093-.589.147-.762.147-.214 0-.402-.054-.589-.16a.564.564 0 0 1-.16-.134.247.247 0 0 1-.08-.241c0-.147.147-.294.36-.454l1.124.655.213.12.014.013.027.014c-.04.013-.08.026-.12.026zm3.583.696c-.04.147-.16.307-.388.467l-1.443-.828c.2-.067.387-.12.548-.148.16-.04.294-.053.414-.053.227 0 .441.04.629.147.147.08.227.2.24.32v.095z" class="color6eba6e svgShape"></path><path fill="#1483c5" d="m35.629 17.542-2.798 1.626-12.655-7.306 2.798-1.626z" class="colore4e8f4 svgShape"></path><path fill="#f9ab60" d="m35.629 17.542-.332.193-12.655-7.306.332-.193z" class="colorf9607f svgShape"></path><path fill="#ddddca" d="M35.635 17.536v3.859l-.339.204-2.46 1.408v-3.842l1.035-.594 1.001-.577.424-.254z" class="colorcad0dd svgShape"></path><path fill="#f9ab60" d="M35.635 17.536v3.859l-.339.204V17.74z" class="colorf9607f svgShape"></path><path fill="#592d72" d="m2.723 17.037.012 3.847 12.609 7.327-.012-3.847z" class="color75ca75 svgShape"></path><path fill="#592d72" d="M41.337 9.353v3.842l-5.702 3.292-.339.204-2.46 1.408-17.495 10.114-.017-3.842 2.918-1.697 14.594-8.417 1.035-.593 1.001-.577.424-.238v-.017l.339-.187 2.783-1.612z" class="color75ca75 svgShape"></path><path fill="#ff2020" d="m2.723 17.037 12.609 7.327L41.33 9.354 28.721 2.027z" class="color9ad898 svgShape"></path><path fill="#14c5af" d="M38.417 11.032 18.243 22.68c-1.826-1.067-4.603-1.17-6.21-.232l-6.005-3.497c1.62-.926 1.44-2.533-.385-3.6l20.16-11.649c1.826 1.067 4.616 1.17 6.223.244l6.005 3.485c-1.607.925-1.44 2.546.386 3.6z" class="color6eba6e svgShape"></path><path fill="#ff2020" d="M28.4 8.06c-.705.408-.717 1.057-.016 1.465.702.407 1.823.403 2.529-.005.698-.403.71-1.052.008-1.46-.701-.407-1.822-.403-2.52 0zm-15.465 8.887c-.698.403-.71 1.052-.008 1.46.701.407 1.822.402 2.52 0 .706-.408.718-1.057.016-1.465-.701-.408-1.822-.403-2.528.005zm14.038-.93c-2.173 1.26-6.107.977-8.846-.618-2.726-1.581-3.201-3.87-1.041-5.117 2.147-1.247 6.107-.964 8.846.617 2.726 1.582 3.189 3.883 1.041 5.117z" class="color9ad898 svgShape"></path><path fill="#14c5af" d="M25.735 14.034c.134-.16.201-.32.214-.48.027-.362-.173-.683-.641-.963a2.81 2.81 0 0 0-1.511-.361c-.535.026-1.176.174-1.939.44l-.026.014-.174-.093v-.014l-1.324-.762c.468-.2.99-.334 1.605-.4l-.2-.723c-.883.094-1.645.294-2.274.615l-.414-.227-.508.294.401.227c-.508.321-.775.655-.789 1.016a.656.656 0 0 0 .094.415c.093.187.267.36.548.521.227.134.454.227.695.281h.013c.241.067.495.094.75.08.52-.027 1.162-.16 1.91-.441l1.552.896c-.562.24-1.257.374-2.086.4l.094.75c1.11-.04 2.059-.254 2.86-.642l.589.334.508-.294-.575-.32c.28-.188.495-.375.628-.563zm-4.679-1.11c-.013.014-.026.014-.026.014-.335.094-.589.147-.762.147-.214 0-.402-.053-.589-.16a.564.564 0 0 1-.16-.134.247.247 0 0 1-.08-.24c0-.147.147-.295.36-.455l1.124.655.213.12.014.014.027.013c-.04.014-.08.027-.12.027zm3.583.696c-.04.147-.16.308-.388.468l-1.443-.829c.2-.067.387-.12.548-.147.16-.04.294-.053.414-.053.227 0 .441.04.629.147.147.08.227.2.24.32v.094z" class="color6eba6e svgShape"></path><path fill="#1483c5" d="m35.629 12.635-2.798 1.626-12.655-7.307 2.798-1.625z" class="colore4e8f4 svgShape"></path><path fill="#f9ab60" d="m35.629 12.635-.332.193-12.655-7.306.332-.193z" class="colorf9607f svgShape"></path><path fill="#ddddca" d="M35.635 12.628v3.859l-.339.204-2.46 1.408v-3.842l1.035-.593 1.001-.577.424-.255z" class="colorcad0dd svgShape"></path><path fill="#f9ab60" d="M35.635 12.628v3.859l-.339.204v-3.859z" class="colorf9607f svgShape"></path><path fill="#f99f4a" d="M49.278 36.322c-.072 1.928.153 2.44-.295 3.31-.22.407-.575.831-1.049 1.19a1.57 1.57 0 0 1-.273.197c-.11.088-.23.153-.35.23-.141.076-.283.152-.436.229-.088.044-.175.087-.273.131-.252.11-.503.208-.776.295-.087.022-.175.055-.273.076a8.271 8.271 0 0 1-.787.197c-.087.022-.185.033-.273.055a9.422 9.422 0 0 1-.775.098c-.088.01-.186.022-.273.022a6.322 6.322 0 0 1-.787.043h-.273c-.262 0-.524-.021-.775-.043-.088 0-.186-.011-.273-.022a9.705 9.705 0 0 1-1.835-.36 2.051 2.051 0 0 1-1.333-.502c-.157-.086-.519-.269-.776-.449a2.57 2.57 0 0 1-.273-.207 3.442 3.442 0 0 1-.775-.765 1.765 1.765 0 0 1-.273-.426c-.488-.874-.239-1.422-.295-3.342 0 .393.098-.013.295.358a3.722 3.722 0 0 0 1.049 1.202c.087.076.174.142.272.207.12.077.24.153.372.23.13.076.262.142.404.218.087.044.175.087.273.12.251.12.513.219.786.306.088.033.186.055.274.077.425.13.954.24 1.048.25.241.041.815.132 1.06.132 2.76.24 5.296-.62 6.324-1.518.44-.334.779-.69 1.049-1.191.196-.371.295.035.295-.348z" class="colorf9bb4a svgShape"></path><path fill="#fdff3d" d="M47.281 33.535c2.644 1.526 2.663 4.004.037 5.53-2.632 1.53-6.91 1.526-9.553 0-2.643-1.526-2.657-4-.026-5.53 2.627-1.526 6.899-1.526 9.542 0z" class="colorfed57a svgShape"></path><path fill="#ff9a3a" d="M46.297 34.36c2.096 1.071 2.111 2.81.029 3.88-2.087 1.072-5.48 1.07-7.576 0-2.096-1.07-2.107-2.806-.02-3.88 2.083-1.07 5.47-1.07 7.567 0z" class="colorefac41 svgShape"></path><path fill="#d88639" d="M48.983 37.458v2.174a2.464 2.464 0 0 1-.273.415v-2.163c.109-.142.196-.284.273-.426zm-1.049 1.19v2.175a1.57 1.57 0 0 1-.273.196v-2.173c.098-.055.186-.12.273-.197zm-1.06.656v2.174c-.087.044-.174.087-.273.131v-2.185c.099-.043.186-.076.274-.12zm-1.048.415v2.185c-.087.022-.175.055-.273.076v-2.184c.098-.022.186-.044.273-.077zm-1.06.273v2.185c-.087.022-.185.033-.273.055v-2.185c.088-.022.186-.033.273-.055zm-1.048.153v2.185c-.088.01-.186.022-.273.022v-2.185c.087 0 .185-.01.273-.022zm-1.06.066v2.184h-.273V40.2c.088.01.186.01.273.01zm-1.048-.044v2.185c-.088 0-.186-.011-.273-.022v-2.185c.087.011.174.022.273.022zm-1.06-.13v2.184a2.412 2.412 0 0 1-.273-.055v-2.185c.088.022.175.044.273.055zm-1.048-.252v2.184a2.003 2.003 0 0 1-.274-.076v-2.185c.088.033.186.055.274.077zm-1.06-.382v2.184a2.051 2.051 0 0 1-.273-.12v-2.185c.087.044.175.088.273.12zm-1.049-.568v2.184a2.57 2.57 0 0 1-.273-.207v-2.185c.088.077.175.142.273.208zm-1.048-.984v2.196a1.765 1.765 0 0 1-.273-.426v-2.196c.076.142.164.284.273.426z" class="colord89b39 svgShape"></path><path fill="#fdff3d" d="m44.97 35.157.54-.313-.41-.237-.547.317-.06-.027a3.123 3.123 0 0 0-1.288-.281h-.01c-.436 0-.826.098-1.159.29-.308.18-.459.36-.447.535.015.195.175.443.478.74l.121.118-1.167.678c-.032-.046-.326-.27-.429-.856l-1.032.058c.14.72.754 1.085.832 1.164l-.428.248.41.237.431-.25c.066.022.568.323 1.393.33.439.006.847-.094 1.184-.29.541-.314.654-.627-.052-1.319l-.121-.118 1.133-.659c.037.046.278.234.43.666l.985-.103a1.943 1.943 0 0 0-.634-.811l-.153-.117zM42.02 37.4c-.255 0-.446-.088-.66-.146l1.127-.655c.038.066.217.248.178.436-.019.097-.397.365-.645.365zm.887-1.52c-.033-.07-.173-.219-.123-.412.026-.1.098-.185.214-.252.197-.116.438-.133.715-.057l.294.083-1.1.638z" class="colorfed57a svgShape"></path><path fill="#f99f4a" d="M49.278 33.536c-.072 1.927.153 2.44-.295 3.31-.22.407-.575.831-1.049 1.19-.183.16-.551.381-.622.426-.206.111-.495.265-.71.36a8.653 8.653 0 0 1-1.836.569 8.37 8.37 0 0 1-1.048.153c-.13.016-.64.065-1.06.065-.272-.007-.305.021-1.048-.043-.231 0-.834-.094-1.06-.131a9.619 9.619 0 0 1-1.048-.252 2.051 2.051 0 0 1-1.333-.502c-.142-.077-.273-.142-.404-.219a4.038 4.038 0 0 1-.645-.437c-.541-.392-.933-.92-1.048-1.19-.488-.874-.239-1.423-.295-3.343 0 .394.098-.012.295.359.258.48.608.867 1.048 1.202.191.167.423.307.645.436.108.064.49.277.677.34.786.375 2.072.673 2.895.742.087.01.174.022.273.022 1.99.173 4.47-.216 6.051-1.322.098-.055.186-.12.273-.197.317-.24.579-.491.776-.764.109-.142.196-.284.273-.426.196-.372.295.034.295-.348z" class="colorf9bb4a svgShape"></path><path fill="#fdff3d" d="M47.281 30.749c2.644 1.526 2.663 4.004.037 5.53-2.632 1.53-6.91 1.526-9.553 0-2.643-1.526-2.657-4-.026-5.53 2.627-1.526 6.899-1.526 9.542 0z" class="colorfed57a svgShape"></path><path fill="#ff9a3a" d="M46.297 31.575c2.096 1.07 2.111 2.808.029 3.878-2.087 1.073-5.48 1.07-7.576 0-2.096-1.07-2.107-2.806-.02-3.878 2.083-1.07 5.47-1.07 7.567 0z" class="colorefac41 svgShape"></path><path fill="#d88639" d="M48.983 34.672v2.174a2.464 2.464 0 0 1-.273.415v-2.163c.109-.142.196-.284.273-.426zm-1.049 1.19v2.174a1.57 1.57 0 0 1-.273.197v-2.174c.098-.054.186-.12.273-.196zm-1.06.656v2.174c-.087.043-.174.087-.273.13v-2.184c.099-.043.186-.076.274-.12zm-1.048.415v2.185c-.087.022-.175.054-.273.076V37.01c.098-.022.186-.044.273-.077zm-1.06.273v2.185c-.087.022-.185.033-.273.054v-2.184c.088-.022.186-.033.273-.055zm-1.048.153v2.185c-.088.01-.186.022-.273.022V37.38c.087 0 .185-.01.273-.022zm-1.06.066v2.184h-.273v-2.195c.088.01.186.01.273.01zm-1.048-.044v2.185c-.088 0-.186-.011-.273-.022v-2.185c.087.011.174.022.273.022zm-1.06-.131v2.185a2.412 2.412 0 0 1-.273-.055v-2.185c.088.022.175.044.273.055zm-1.048-.251v2.184a2.004 2.004 0 0 1-.274-.076v-2.185c.088.033.186.055.274.077zm-1.06-.383v2.185a2.051 2.051 0 0 1-.273-.12v-2.185c.087.044.175.088.273.12zm-1.049-.568v2.185a2.569 2.569 0 0 1-.273-.208v-2.184c.088.076.175.142.273.207zm-1.048-.983v2.196a1.765 1.765 0 0 1-.273-.426v-2.196c.076.142.164.284.273.426z" class="colord89b39 svgShape"></path><path fill="#fdff3d" d="m44.97 32.37.54-.312-.41-.237-.547.317-.06-.027a3.123 3.123 0 0 0-1.288-.281h-.01c-.436 0-.826.098-1.159.29-.308.18-.459.36-.447.535.015.194.175.443.478.74l.121.118-1.167.678-.07-.076c-.182-.195-.302-.458-.359-.78l-1.032.058c.077.395.307.747.684 1.046l.148.118-.428.248.41.237.431-.25.06.027c.433.197.88.299 1.333.303.439.006.847-.094 1.184-.29.31-.18.46-.364.444-.548-.018-.206-.185-.466-.496-.77l-.121-.119 1.133-.659.07.072c.157.16.277.36.36.594l.985-.103a1.943 1.943 0 0 0-.634-.811l-.153-.117zm-2.515 2.132a.85.85 0 0 1-.435.113c-.117 0-.242-.02-.376-.06l-.284-.086 1.127-.655.068.095c.095.13.13.242.11.341-.019.096-.089.182-.21.252zm.452-1.407-.066-.11a.39.39 0 0 1-.057-.302c.026-.1.098-.185.214-.252.197-.116.438-.133.715-.057l.294.082-1.1.64z" class="colorfed57a svgShape"></path><path fill="#f99f4a" d="m34.756 43.9-.011 2.185c0 .382-.099.764-.284 1.125a2.464 2.464 0 0 1-.273.415 3.722 3.722 0 0 1-.776.775 1.57 1.57 0 0 1-.273.197c-.11.087-.23.153-.35.23-.142.076-.284.152-.436.229-.088.043-.175.087-.274.13-.25.11-.502.208-.775.296-.087.022-.175.054-.273.076a8.271 8.271 0 0 1-.787.197c-.087.022-.185.033-.273.054a9.422 9.422 0 0 1-.775.099c-.088.01-.186.022-.273.022a6.322 6.322 0 0 1-.787.043h-.273c-.262 0-.524-.022-.775-.043-.088 0-.186-.011-.273-.022a9.709 9.709 0 0 1-1.835-.36 2.05 2.05 0 0 1-1.333-.502c-.142-.078-.273-.143-.404-.22a5.513 5.513 0 0 1-.372-.229 2.569 2.569 0 0 1-.273-.208 3.441 3.441 0 0 1-.775-.764 1.765 1.765 0 0 1-.273-.426 2.316 2.316 0 0 1-.306-1.147l.01-2.196c0 .394.1-.012.296.359.258.48.608.867 1.048 1.202.191.167.423.307.645.436.108.064.49.277.677.34.303.144.704.292 1.06.381 2.105.641 4.826.496 6.324-.065a10.32 10.32 0 0 0 1.049-.415c.437-.219.581-.316.786-.459.3-.167.955-.706 1.322-1.387.196-.372.295.034.295-.348z" class="colorf9bb4a svgShape"></path><path fill="#fdff3d" d="M32.76 41.113c2.643 1.526 2.662 4.004.036 5.53-2.632 1.53-6.91 1.526-9.553 0-2.643-1.526-2.657-4-.026-5.53 2.627-1.526 6.899-1.526 9.542 0z" class="colorfed57a svgShape"></path><path fill="#ff9a3a" d="M31.775 41.939c2.096 1.07 2.111 2.808.029 3.878-2.087 1.073-5.48 1.07-7.576 0-2.096-1.07-2.107-2.806-.02-3.878 2.083-1.07 5.47-1.07 7.567 0z" class="colorefac41 svgShape"></path><path fill="#d88639" d="M34.46 45.036v2.174a2.464 2.464 0 0 1-.272.415v-2.163c.109-.142.196-.284.273-.426zm-1.048 1.19V48.4a1.57 1.57 0 0 1-.273.197v-2.174c.098-.054.186-.12.273-.196zm-1.06.656v2.174c-.087.043-.174.087-.273.13v-2.184c.099-.043.186-.076.274-.12zm-1.048.415v2.185c-.087.022-.175.054-.273.076v-2.184c.098-.022.186-.044.273-.077zm-1.06.273v2.185c-.087.022-.185.033-.273.054v-2.184c.088-.022.186-.033.273-.055zm-1.048.153v2.185c-.088.01-.186.022-.273.022v-2.185c.087 0 .185-.01.273-.022zm-1.06.066v2.184h-.273v-2.195c.088.01.186.01.273.01zm-1.048-.044v2.185c-.088 0-.186-.011-.273-.022v-2.185c.087.011.174.022.273.022zm-1.06-.131v2.185a2.412 2.412 0 0 1-.273-.055v-2.185c.087.022.175.044.273.055zm-1.048-.251v2.184a2.004 2.004 0 0 1-.274-.076v-2.185c.088.033.186.055.274.077zm-1.06-.383v2.185a2.05 2.05 0 0 1-.273-.12V46.86c.087.044.175.088.273.12zm-1.049-.568v2.185a2.569 2.569 0 0 1-.273-.208v-2.184c.088.076.175.142.273.207zm-1.048-.983v2.196a1.765 1.765 0 0 1-.273-.426v-2.196c.076.142.164.284.273.426z" class="colord89b39 svgShape"></path><path fill="#fdff3d" d="m30.448 42.735.54-.313-.41-.237-.547.317c-.065-.022-.532-.306-1.348-.308h-.01c-.436 0-.826.098-1.159.29-.308.18-.459.36-.447.535.027.364.542.793.599.858l-1.167.678c-.032-.047-.326-.27-.429-.856l-1.033.058c.14.72.755 1.085.833 1.164l-.428.248.41.237.431-.25c.066.022.568.323 1.392.33.44.006.848-.094 1.185-.29.31-.18.46-.364.444-.548-.018-.206-.185-.466-.497-.77l-.12-.119 1.133-.659c.037.046.278.234.429.666l.986-.103a1.943 1.943 0 0 0-.634-.811l-.153-.117zm-2.95 2.244c-.255 0-.446-.089-.66-.146l1.127-.655c.038.065.217.248.178.436-.019.096-.397.365-.645.365zm.887-1.52-.066-.11a.39.39 0 0 1-.057-.302c.026-.1.098-.185.214-.252.197-.116.438-.133.715-.057l.293.082-1.1.64z" class="colorfed57a svgShape"></path><path fill="#f99f4a" d="M34.756 41.114c-.072 1.927.153 2.44-.295 3.31-.22.407-.575.83-1.049 1.19-.183.16-.552.381-.623.426-.205.111-.494.265-.71.36-.315.138-.765.309-1.048.372-.76.231-1.729.371-2.108.371-.459.058-.865.042-1.06.044-.303 0-.945-.052-1.048-.065-.739-.062-1.8-.321-2.109-.437a8.48 8.48 0 0 1-1.059-.426c-.157-.085-.519-.268-.776-.448-.374-.25-.784-.605-1.048-.972a1.765 1.765 0 0 1-.273-.426c-.488-.874-.239-1.423-.295-3.343 0 .393.098-.012.295.359.076.142.164.284.273.426.533.74 1.31 1.154 1.824 1.43.187.094.626.288 1.06.427.05.02.619.184 1.048.273.192.048.748.138 1.06.164.186.023.761.066 1.048.054.14.018.636.02 1.06-.032.087 0 .185-.011.273-.022.777-.065 1.76-.296 2.108-.426.805-.258 1.399-.57 1.835-.874.213-.119.763-.565 1.049-.961.109-.142.196-.284.273-.426.196-.372.295.034.295-.348z" class="colorf9bb4a svgShape"></path><path fill="#fdff3d" d="M32.76 38.327c2.643 1.526 2.662 4.004.036 5.53-2.632 1.53-6.91 1.526-9.553 0-2.643-1.526-2.657-4.001-.026-5.53 2.627-1.526 6.899-1.526 9.542 0z" class="colorfed57a svgShape"></path><path fill="#ff9a3a" d="M31.775 39.153c2.096 1.07 2.111 2.808.029 3.878-2.087 1.073-5.48 1.07-7.576 0-2.096-1.07-2.107-2.806-.02-3.878 2.083-1.07 5.47-1.07 7.567 0z" class="colorefac41 svgShape"></path><path fill="#d88639" d="M34.46 42.25v2.174a2.464 2.464 0 0 1-.272.415v-2.163c.109-.142.196-.284.273-.426zm-1.048 1.19v2.174a1.57 1.57 0 0 1-.273.197v-2.174c.098-.054.186-.12.273-.196zm-1.06.656v2.174c-.087.043-.174.087-.273.13v-2.184c.099-.044.186-.076.274-.12zm-1.048.415v2.185c-.087.021-.175.054-.273.076v-2.184c.098-.022.186-.044.273-.077zm-1.06.273v2.185c-.087.021-.185.032-.273.054V44.84c.088-.022.186-.033.273-.055zm-1.048.153v2.185c-.088.01-.186.021-.273.021V44.96c.087 0 .185-.011.273-.022zm-1.06.066v2.184h-.273v-2.195c.088.01.186.01.273.01zm-1.048-.044v2.184c-.088 0-.186-.01-.273-.021v-2.185c.087.01.174.022.273.022zm-1.06-.131v2.184a2.412 2.412 0 0 1-.273-.054v-2.185c.087.022.175.044.273.055zm-1.048-.251v2.184a2.002 2.002 0 0 1-.274-.076V44.5c.088.033.186.055.274.077zm-1.06-.383v2.185a2.05 2.05 0 0 1-.273-.12v-2.185c.087.044.175.087.273.12zm-1.049-.568v2.185a2.57 2.57 0 0 1-.273-.208V43.42c.088.076.175.142.273.207zm-1.048-.983v2.196a1.765 1.765 0 0 1-.273-.426v-2.196c.076.142.164.284.273.426z" class="colord89b39 svgShape"></path><path fill="#fdff3d" d="m30.448 39.949.54-.313-.41-.238-.547.318-.06-.028a3.123 3.123 0 0 0-1.288-.28h-.01c-.436 0-.826.098-1.159.29-.308.18-.459.36-.447.535.015.194.175.443.478.74l.12.118-1.166.678c-.032-.047-.326-.27-.429-.856l-1.032.058c.14.72.754 1.085.832 1.164l-.428.248.41.237.431-.25c.066.022.568.323 1.392.33.44.005.848-.094 1.185-.29.31-.18.46-.364.444-.548-.018-.207-.185-.466-.497-.77l-.12-.12 1.133-.658.07.072c.157.16.277.359.359.594l.986-.103a1.943 1.943 0 0 0-.634-.812l-.153-.116zm-2.515 2.131a.85.85 0 0 1-.435.112c-.117 0-.242-.02-.376-.06l-.284-.085 1.127-.655.068.095c.094.13.13.242.11.341-.019.096-.089.182-.21.252zm.452-1.407-.066-.11a.39.39 0 0 1-.057-.302c.026-.1.098-.185.214-.252.197-.116.438-.133.715-.057l.293.082-1.1.639z" class="colorfed57a svgShape"></path><path fill="#f99f4a" d="m34.756 38.496-.011 2.185c0 .58-.238 1.157-.557 1.54-.372.515-.86.859-1.399 1.201-.499.27-1.16.599-1.758.732-.495.15-1.15.292-1.835.35-.13.016-.64.065-1.06.065-.025-.001-.706.011-1.321-.065a9.524 9.524 0 0 1-1.06-.164 13.194 13.194 0 0 1-1.049-.273 8.48 8.48 0 0 1-1.059-.426c-.157-.085-.519-.268-.776-.448-.374-.25-.784-.605-1.048-.972-.314-.377-.58-.976-.58-1.573l.012-2.196c0 .393.098-.013.295.359.91 1.693 3.381 2.563 5.265 2.72.087.01.174.021.273.021.25.022.513.044.775.033.088.011.186.011.273.011.262 0 .525-.01.787-.044.087 0 .185-.01.273-.021a7.868 7.868 0 0 0 1.048-.153c.419-.084.996-.25 1.06-.273a10.32 10.32 0 0 0 1.049-.415 5.12 5.12 0 0 0 .786-.46c.098-.054.186-.12.273-.196.317-.24.579-.491.776-.764.109-.142.196-.284.273-.426.196-.372.295.034.295-.348z" class="colorf9bb4a svgShape"></path><path fill="#fdff3d" d="M32.76 35.709c2.643 1.526 2.662 4.004.036 5.53-2.632 1.529-6.91 1.526-9.553 0s-2.657-4.001-.026-5.53c2.627-1.527 6.899-1.527 9.542 0z" class="colorfed57a svgShape"></path><path fill="#ff9a3a" d="M31.775 36.535c2.096 1.07 2.111 2.808.029 3.878-2.087 1.073-5.48 1.07-7.576 0s-2.107-2.806-.02-3.878c2.083-1.07 5.47-1.07 7.567 0z" class="colorefac41 svgShape"></path><path fill="#d88639" d="M34.46 39.632v2.174a2.464 2.464 0 0 1-.272.415v-2.163c.109-.142.196-.284.273-.426zm-1.048 1.19v2.174a1.57 1.57 0 0 1-.273.197v-2.174c.098-.055.186-.12.273-.197zm-1.06.656v2.174c-.087.043-.174.087-.273.13v-2.184c.099-.044.186-.076.274-.12zm-1.048.415v2.185c-.087.021-.175.054-.273.076v-2.185c.098-.021.186-.043.273-.076zm-1.06.273v2.185c-.087.021-.185.032-.273.054v-2.184c.088-.022.186-.033.273-.055zm-1.048.153v2.185c-.088.01-.186.021-.273.021v-2.184c.087 0 .185-.011.273-.022zm-1.06.066v2.184h-.273v-2.195c.088.01.186.01.273.01zm-1.048-.044v2.184c-.088 0-.186-.01-.273-.021v-2.185c.087.01.174.022.273.022zm-1.06-.131v2.184a2.412 2.412 0 0 1-.273-.054v-2.185c.087.022.175.044.273.055zm-1.048-.252v2.185a2.004 2.004 0 0 1-.274-.076v-2.185c.088.033.186.055.274.076zm-1.06-.382v2.185a2.05 2.05 0 0 1-.273-.12v-2.185c.087.044.175.087.273.12zm-1.049-.568v2.185a2.57 2.57 0 0 1-.273-.208v-2.184c.088.076.175.142.273.207zm-1.048-.983v2.196a1.765 1.765 0 0 1-.273-.426v-2.196c.076.142.164.284.273.426z" class="colord89b39 svgShape"></path><path fill="#fdff3d" d="m30.448 37.33.54-.313-.41-.237-.547.318c-.065-.022-.532-.306-1.348-.309h-.01c-.436 0-.826.099-1.159.291-.55.32-.645.614.03 1.274l.122.119-1.167.678c-.032-.047-.326-.27-.429-.857l-1.032.059c.14.72.754 1.085.832 1.164l-.428.248.41.237.431-.25c.066.022.568.323 1.392.33.44.005.848-.094 1.185-.29.31-.18.46-.365.444-.548-.018-.207-.185-.466-.497-.77l-.12-.12 1.133-.658c.037.046.278.234.429.666l.986-.103a1.943 1.943 0 0 0-.634-.812l-.153-.116zm-2.515 2.132c-.387.225-.759.057-1.095-.033l1.127-.655.068.095c.094.13.13.242.11.341-.019.096-.089.182-.21.252zm.452-1.407-.066-.11a.39.39 0 0 1-.057-.302c.026-.1.098-.185.214-.253.395-.231.834-.004 1.008.026l-1.1.639z" class="colorfed57a svgShape"></path><path fill="#f99f4a" d="M34.756 35.71c-.072 1.927.153 2.44-.295 3.31a2.464 2.464 0 0 1-.273.414c-.996 1.383-3.268 2.14-4.992 2.283-.088.011-.186.022-.273.022a6.322 6.322 0 0 1-.787.044h-.273c-.262 0-.524-.022-.775-.044-.269 0-1.237-.117-2.108-.382-.962-.214-2.492-.998-3.157-1.923a1.765 1.765 0 0 1-.273-.426 2.316 2.316 0 0 1-.306-1.146l.01-2.196c0 .393.1-.013.296.359.076.142.164.284.273.426.288.4.758.79 1.048.983a7.32 7.32 0 0 0 1.835.874c.052.019.62.183 1.05.273a9.52 9.52 0 0 0 1.059.164c.087.01.174.021.273.021.25.022.513.044.775.033.088.011.186.011.273.011.262 0 .525-.01.787-.044.087 0 .185-.01.273-.021 1.895-.159 4.36-1.007 5.265-2.688.196-.371.295.035.295-.347z" class="colorf9bb4a svgShape"></path><path fill="#fdff3d" d="M32.76 32.922c2.643 1.527 2.662 4.004.036 5.53-2.632 1.53-6.91 1.527-9.553 0-2.643-1.526-2.657-4-.026-5.53 2.627-1.526 6.899-1.526 9.542 0z" class="colorfed57a svgShape"></path><path fill="#ff9a3a" d="M31.775 33.748c2.096 1.07 2.111 2.809.029 3.88-2.087 1.072-5.48 1.07-7.576 0-2.096-1.071-2.107-2.807-.02-3.88 2.083-1.07 5.47-1.07 7.567 0z" class="colorefac41 svgShape"></path><path fill="#d88639" d="M34.46 36.846v2.173a2.464 2.464 0 0 1-.272.415v-2.162c.109-.142.196-.284.273-.426zm-1.048 1.19v2.174a1.57 1.57 0 0 1-.273.197v-2.174c.098-.055.186-.12.273-.197zm-1.06.656v2.173c-.087.044-.174.088-.273.131v-2.184c.099-.044.186-.077.274-.12zm-1.048.415v2.184c-.087.022-.175.055-.273.077v-2.185c.098-.022.186-.043.273-.076zm-1.06.273v2.184c-.087.022-.185.033-.273.055v-2.185c.088-.021.186-.032.273-.054zm-1.048.153v2.184c-.088.011-.186.022-.273.022v-2.184c.087 0 .185-.011.273-.022zm-1.06.065v2.185h-.273v-2.196c.088.011.186.011.273.011zm-1.048-.043v2.184c-.088 0-.186-.01-.273-.022v-2.184c.087.01.174.022.273.022zm-1.06-.131v2.184a2.416 2.416 0 0 1-.273-.054v-2.185c.087.022.175.044.273.055zm-1.048-.252v2.185a2.004 2.004 0 0 1-.274-.077v-2.184c.088.033.186.054.274.076zm-1.06-.382v2.185a2.05 2.05 0 0 1-.273-.12V38.67c.087.044.175.087.273.12zm-1.049-.568v2.185a2.569 2.569 0 0 1-.273-.208v-2.184c.088.076.175.142.273.207zm-1.048-.983v2.195a1.765 1.765 0 0 1-.273-.426v-2.195c.076.142.164.284.273.426z" class="colord89b39 svgShape"></path><path fill="#fdff3d" d="m30.448 34.544.54-.313-.41-.237-.547.318c-.01-.001-1.37-.682-2.517-.018-.55.32-.645.614.03 1.274l.122.118-1.167.678c-.032-.046-.326-.27-.429-.856l-1.032.059c.14.72.754 1.084.832 1.163l-.428.249.41.237.431-.251c.01.001 1.405.721 2.577.04.31-.18.46-.364.444-.547-.034-.384-.56-.825-.617-.89l1.133-.658c.037.046.278.234.429.666l.986-.103c-.24-.59-.703-.851-.787-.929zm-2.95 2.244c-.255 0-.446-.088-.66-.145l1.127-.655.068.095c.094.13.13.242.11.34-.046.24-.397.365-.645.365zm.887-1.52c-.034-.07-.173-.218-.123-.412.074-.289.506-.425.929-.309l.293.083-1.1.639z" class="colorfed57a svgShape"></path><path fill="#f99f4a" d="m34.756 43.9-.011 2.185c0 .382-.099.764-.284 1.125a2.464 2.464 0 0 1-.273.415 3.722 3.722 0 0 1-.776.775 1.57 1.57 0 0 1-.273.197c-.11.087-.23.153-.35.23-.142.076-.284.152-.436.229-.088.043-.175.087-.274.13-.25.11-.502.208-.775.296-.087.022-.175.054-.273.076a8.271 8.271 0 0 1-.787.197c-.087.022-.185.033-.273.054a9.422 9.422 0 0 1-.775.099c-.088.01-.186.022-.273.022a6.322 6.322 0 0 1-.787.043h-.273c-.262 0-.524-.022-.775-.043-.088 0-.186-.011-.273-.022a9.709 9.709 0 0 1-1.835-.36 2.05 2.05 0 0 1-1.333-.502c-.142-.078-.273-.143-.404-.22a5.513 5.513 0 0 1-.372-.229 2.569 2.569 0 0 1-.273-.208 3.441 3.441 0 0 1-.775-.764 1.765 1.765 0 0 1-.273-.426 2.316 2.316 0 0 1-.306-1.147l.01-2.196c0 .394.1-.012.296.359.258.48.608.867 1.048 1.202.191.167.423.307.645.436.108.064.49.277.677.34.303.144.704.292 1.06.381 2.105.641 4.826.496 6.324-.065a10.32 10.32 0 0 0 1.049-.415c.437-.219.581-.316.786-.459.3-.167.955-.706 1.322-1.387.196-.372.295.034.295-.348z" class="colorf9bb4a svgShape"></path><path fill="#fdff3d" d="M32.76 41.113c2.643 1.526 2.662 4.004.036 5.53-2.632 1.53-6.91 1.526-9.553 0-2.643-1.526-2.657-4-.026-5.53 2.627-1.526 6.899-1.526 9.542 0z" class="colorfed57a svgShape"></path><path fill="#ff9a3a" d="M31.775 41.939c2.096 1.07 2.111 2.808.029 3.878-2.087 1.073-5.48 1.07-7.576 0-2.096-1.07-2.107-2.806-.02-3.878 2.083-1.07 5.47-1.07 7.567 0z" class="colorefac41 svgShape"></path><path fill="#d88639" d="M34.46 45.036v2.174a2.464 2.464 0 0 1-.272.415v-2.163c.109-.142.196-.284.273-.426zm-1.048 1.19V48.4a1.57 1.57 0 0 1-.273.197v-2.174c.098-.054.186-.12.273-.196zm-1.06.656v2.174c-.087.043-.174.087-.273.13v-2.184c.099-.043.186-.076.274-.12zm-1.048.415v2.185c-.087.022-.175.054-.273.076v-2.184c.098-.022.186-.044.273-.077zm-1.06.273v2.185c-.087.022-.185.033-.273.054v-2.184c.088-.022.186-.033.273-.055zm-1.048.153v2.185c-.088.01-.186.022-.273.022v-2.185c.087 0 .185-.01.273-.022zm-1.06.066v2.184h-.273v-2.195c.088.01.186.01.273.01zm-1.048-.044v2.185c-.088 0-.186-.011-.273-.022v-2.185c.087.011.174.022.273.022zm-1.06-.131v2.185a2.412 2.412 0 0 1-.273-.055v-2.185c.087.022.175.044.273.055zm-1.048-.251v2.184a2.004 2.004 0 0 1-.274-.076v-2.185c.088.033.186.055.274.077zm-1.06-.383v2.185a2.05 2.05 0 0 1-.273-.12V46.86c.087.044.175.088.273.12zm-1.049-.568v2.185a2.569 2.569 0 0 1-.273-.208v-2.184c.088.076.175.142.273.207zm-1.048-.983v2.196a1.765 1.765 0 0 1-.273-.426v-2.196c.076.142.164.284.273.426z" class="colord89b39 svgShape"></path><path fill="#fdff3d" d="m30.448 42.735.54-.313-.41-.237-.547.317c-.065-.022-.532-.306-1.348-.308h-.01c-.436 0-.826.098-1.159.29-.308.18-.459.36-.447.535.027.364.542.793.599.858l-1.167.678c-.032-.047-.326-.27-.429-.856l-1.033.058c.14.72.755 1.085.833 1.164l-.428.248.41.237.431-.25c.066.022.568.323 1.392.33.44.006.848-.094 1.185-.29.31-.18.46-.364.444-.548-.018-.206-.185-.466-.497-.77l-.12-.119 1.133-.659c.037.046.278.234.429.666l.986-.103a1.943 1.943 0 0 0-.634-.811l-.153-.117zm-2.95 2.244c-.255 0-.446-.089-.66-.146l1.127-.655c.038.065.217.248.178.436-.019.096-.397.365-.645.365zm.887-1.52-.066-.11a.39.39 0 0 1-.057-.302c.026-.1.098-.185.214-.252.197-.116.438-.133.715-.057l.293.082-1.1.64z" class="colorfed57a svgShape"></path><path fill="#f99f4a" d="M34.756 41.114c-.072 1.927.153 2.44-.295 3.31-.22.407-.575.83-1.049 1.19-.183.16-.552.381-.623.426-.205.111-.494.265-.71.36-.315.138-.765.309-1.048.372-.76.231-1.729.371-2.108.371-.459.058-.865.042-1.06.044-.303 0-.945-.052-1.048-.065-.739-.062-1.8-.321-2.109-.437a8.48 8.48 0 0 1-1.059-.426c-.157-.085-.519-.268-.776-.448-.374-.25-.784-.605-1.048-.972a1.765 1.765 0 0 1-.273-.426c-.488-.874-.239-1.423-.295-3.343 0 .393.098-.012.295.359.076.142.164.284.273.426.533.74 1.31 1.154 1.824 1.43.187.094.626.288 1.06.427.05.02.619.184 1.048.273.192.048.748.138 1.06.164.186.023.761.066 1.048.054.14.018.636.02 1.06-.032.087 0 .185-.011.273-.022.777-.065 1.76-.296 2.108-.426.805-.258 1.399-.57 1.835-.874.213-.119.763-.565 1.049-.961.109-.142.196-.284.273-.426.196-.372.295.034.295-.348z" class="colorf9bb4a svgShape"></path><path fill="#fdff3d" d="M32.76 38.327c2.643 1.526 2.662 4.004.036 5.53-2.632 1.53-6.91 1.526-9.553 0-2.643-1.526-2.657-4.001-.026-5.53 2.627-1.526 6.899-1.526 9.542 0z" class="colorfed57a svgShape"></path><path fill="#ff9a3a" d="M31.775 39.153c2.096 1.07 2.111 2.808.029 3.878-2.087 1.073-5.48 1.07-7.576 0-2.096-1.07-2.107-2.806-.02-3.878 2.083-1.07 5.47-1.07 7.567 0z" class="colorefac41 svgShape"></path><path fill="#d88639" d="M34.46 42.25v2.174a2.464 2.464 0 0 1-.272.415v-2.163c.109-.142.196-.284.273-.426zm-1.048 1.19v2.174a1.57 1.57 0 0 1-.273.197v-2.174c.098-.054.186-.12.273-.196zm-1.06.656v2.174c-.087.043-.174.087-.273.13v-2.184c.099-.044.186-.076.274-.12zm-1.048.415v2.185c-.087.021-.175.054-.273.076v-2.184c.098-.022.186-.044.273-.077zm-1.06.273v2.185c-.087.021-.185.032-.273.054V44.84c.088-.022.186-.033.273-.055zm-1.048.153v2.185c-.088.01-.186.021-.273.021V44.96c.087 0 .185-.011.273-.022zm-1.06.066v2.184h-.273v-2.195c.088.01.186.01.273.01zm-1.048-.044v2.184c-.088 0-.186-.01-.273-.021v-2.185c.087.01.174.022.273.022zm-1.06-.131v2.184a2.412 2.412 0 0 1-.273-.054v-2.185c.087.022.175.044.273.055zm-1.048-.251v2.184a2.002 2.002 0 0 1-.274-.076V44.5c.088.033.186.055.274.077zm-1.06-.383v2.185a2.05 2.05 0 0 1-.273-.12v-2.185c.087.044.175.087.273.12zm-1.049-.568v2.185a2.57 2.57 0 0 1-.273-.208V43.42c.088.076.175.142.273.207zm-1.048-.983v2.196a1.765 1.765 0 0 1-.273-.426v-2.196c.076.142.164.284.273.426z" class="colord89b39 svgShape"></path><path fill="#fdff3d" d="m30.448 39.949.54-.313-.41-.238-.547.318-.06-.028a3.123 3.123 0 0 0-1.288-.28h-.01c-.436 0-.826.098-1.159.29-.308.18-.459.36-.447.535.015.194.175.443.478.74l.12.118-1.166.678c-.032-.047-.326-.27-.429-.856l-1.032.058c.14.72.754 1.085.832 1.164l-.428.248.41.237.431-.25c.066.022.568.323 1.392.33.44.005.848-.094 1.185-.29.31-.18.46-.364.444-.548-.018-.207-.185-.466-.497-.77l-.12-.12 1.133-.658.07.072c.157.16.277.359.359.594l.986-.103a1.943 1.943 0 0 0-.634-.812l-.153-.116zm-2.515 2.131a.85.85 0 0 1-.435.112c-.117 0-.242-.02-.376-.06l-.284-.085 1.127-.655.068.095c.094.13.13.242.11.341-.019.096-.089.182-.21.252zm.452-1.407-.066-.11a.39.39 0 0 1-.057-.302c.026-.1.098-.185.214-.252.197-.116.438-.133.715-.057l.293.082-1.1.639z" class="colorfed57a svgShape"></path><path fill="#f99f4a" d="m34.756 38.496-.011 2.185c0 .58-.238 1.157-.557 1.54-.372.515-.86.859-1.399 1.201-.499.27-1.16.599-1.758.732-.495.15-1.15.292-1.835.35-.13.016-.64.065-1.06.065-.025-.001-.706.011-1.321-.065a9.524 9.524 0 0 1-1.06-.164 13.194 13.194 0 0 1-1.049-.273 8.48 8.48 0 0 1-1.059-.426c-.157-.085-.519-.268-.776-.448-.374-.25-.784-.605-1.048-.972-.314-.377-.58-.976-.58-1.573l.012-2.196c0 .393.098-.013.295.359.91 1.693 3.381 2.563 5.265 2.72.087.01.174.021.273.021.25.022.513.044.775.033.088.011.186.011.273.011.262 0 .525-.01.787-.044.087 0 .185-.01.273-.021a7.868 7.868 0 0 0 1.048-.153c.419-.084.996-.25 1.06-.273a10.32 10.32 0 0 0 1.049-.415 5.12 5.12 0 0 0 .786-.46c.098-.054.186-.12.273-.196.317-.24.579-.491.776-.764.109-.142.196-.284.273-.426.196-.372.295.034.295-.348z" class="colorf9bb4a svgShape"></path><path fill="#fdff3d" d="M32.76 35.709c2.643 1.526 2.662 4.004.036 5.53-2.632 1.529-6.91 1.526-9.553 0s-2.657-4.001-.026-5.53c2.627-1.527 6.899-1.527 9.542 0z" class="colorfed57a svgShape"></path><path fill="#ff9a3a" d="M31.775 36.535c2.096 1.07 2.111 2.808.029 3.878-2.087 1.073-5.48 1.07-7.576 0s-2.107-2.806-.02-3.878c2.083-1.07 5.47-1.07 7.567 0z" class="colorefac41 svgShape"></path><path fill="#d88639" d="M34.46 39.632v2.174a2.464 2.464 0 0 1-.272.415v-2.163c.109-.142.196-.284.273-.426zm-1.048 1.19v2.174a1.57 1.57 0 0 1-.273.197v-2.174c.098-.055.186-.12.273-.197zm-1.06.656v2.174c-.087.043-.174.087-.273.13v-2.184c.099-.044.186-.076.274-.12zm-1.048.415v2.185c-.087.021-.175.054-.273.076v-2.185c.098-.021.186-.043.273-.076zm-1.06.273v2.185c-.087.021-.185.032-.273.054v-2.184c.088-.022.186-.033.273-.055zm-1.048.153v2.185c-.088.01-.186.021-.273.021v-2.184c.087 0 .185-.011.273-.022zm-1.06.066v2.184h-.273v-2.195c.088.01.186.01.273.01zm-1.048-.044v2.184c-.088 0-.186-.01-.273-.021v-2.185c.087.01.174.022.273.022zm-1.06-.131v2.184a2.412 2.412 0 0 1-.273-.054v-2.185c.087.022.175.044.273.055zm-1.048-.252v2.185a2.004 2.004 0 0 1-.274-.076v-2.185c.088.033.186.055.274.076zm-1.06-.382v2.185a2.05 2.05 0 0 1-.273-.12v-2.185c.087.044.175.087.273.12zm-1.049-.568v2.185a2.57 2.57 0 0 1-.273-.208v-2.184c.088.076.175.142.273.207zm-1.048-.983v2.196a1.765 1.765 0 0 1-.273-.426v-2.196c.076.142.164.284.273.426z" class="colord89b39 svgShape"></path><path fill="#fdff3d" d="m30.448 37.33.54-.313-.41-.237-.547.318c-.065-.022-.532-.306-1.348-.309h-.01c-.436 0-.826.099-1.159.291-.55.32-.645.614.03 1.274l.122.119-1.167.678c-.032-.047-.326-.27-.429-.857l-1.032.059c.14.72.754 1.085.832 1.164l-.428.248.41.237.431-.25c.066.022.568.323 1.392.33.44.005.848-.094 1.185-.29.31-.18.46-.365.444-.548-.018-.207-.185-.466-.497-.77l-.12-.12 1.133-.658c.037.046.278.234.429.666l.986-.103a1.943 1.943 0 0 0-.634-.812l-.153-.116zm-2.515 2.132c-.387.225-.759.057-1.095-.033l1.127-.655.068.095c.094.13.13.242.11.341-.019.096-.089.182-.21.252zm.452-1.407-.066-.11a.39.39 0 0 1-.057-.302c.026-.1.098-.185.214-.253.395-.231.834-.004 1.008.026l-1.1.639z" class="colorfed57a svgShape"></path><path fill="#f99f4a" d="M34.756 35.71c-.072 1.927.153 2.44-.295 3.31a2.464 2.464 0 0 1-.273.414c-.996 1.383-3.268 2.14-4.992 2.283-.088.011-.186.022-.273.022a6.322 6.322 0 0 1-.787.044h-.273c-.262 0-.524-.022-.775-.044-.269 0-1.237-.117-2.108-.382-.962-.214-2.492-.998-3.157-1.923a1.765 1.765 0 0 1-.273-.426 2.316 2.316 0 0 1-.306-1.146l.01-2.196c0 .393.1-.013.296.359.076.142.164.284.273.426.288.4.758.79 1.048.983a7.32 7.32 0 0 0 1.835.874c.052.019.62.183 1.05.273a9.52 9.52 0 0 0 1.059.164c.087.01.174.021.273.021.25.022.513.044.775.033.088.011.186.011.273.011.262 0 .525-.01.787-.044.087 0 .185-.01.273-.021 1.895-.159 4.36-1.007 5.265-2.688.196-.371.295.035.295-.347z" class="colorf9bb4a svgShape"></path><path fill="#fdff3d" d="M32.76 32.922c2.643 1.527 2.662 4.004.036 5.53-2.632 1.53-6.91 1.527-9.553 0-2.643-1.526-2.657-4-.026-5.53 2.627-1.526 6.899-1.526 9.542 0z" class="colorfed57a svgShape"></path><path fill="#ff9a3a" d="M31.775 33.748c2.096 1.07 2.111 2.809.029 3.88-2.087 1.072-5.48 1.07-7.576 0-2.096-1.071-2.107-2.807-.02-3.88 2.083-1.07 5.47-1.07 7.567 0z" class="colorefac41 svgShape"></path><path fill="#d88639" d="M34.46 36.846v2.173a2.464 2.464 0 0 1-.272.415v-2.162c.109-.142.196-.284.273-.426zm-1.048 1.19v2.174a1.57 1.57 0 0 1-.273.197v-2.174c.098-.055.186-.12.273-.197zm-1.06.656v2.173c-.087.044-.174.088-.273.131v-2.184c.099-.044.186-.077.274-.12zm-1.048.415v2.184c-.087.022-.175.055-.273.077v-2.185c.098-.022.186-.043.273-.076zm-1.06.273v2.184c-.087.022-.185.033-.273.055v-2.185c.088-.021.186-.032.273-.054zm-1.048.153v2.184c-.088.011-.186.022-.273.022v-2.184c.087 0 .185-.011.273-.022zm-1.06.065v2.185h-.273v-2.196c.088.011.186.011.273.011zm-1.048-.043v2.184c-.088 0-.186-.01-.273-.022v-2.184c.087.01.174.022.273.022zm-1.06-.131v2.184a2.416 2.416 0 0 1-.273-.054v-2.185c.087.022.175.044.273.055zm-1.048-.252v2.185a2.004 2.004 0 0 1-.274-.077v-2.184c.088.033.186.054.274.076zm-1.06-.382v2.185a2.05 2.05 0 0 1-.273-.12V38.67c.087.044.175.087.273.12zm-1.049-.568v2.185a2.569 2.569 0 0 1-.273-.208v-2.184c.088.076.175.142.273.207zm-1.048-.983v2.195a1.765 1.765 0 0 1-.273-.426v-2.195c.076.142.164.284.273.426z" class="colord89b39 svgShape"></path><path fill="#fdff3d" d="m30.448 34.544.54-.313-.41-.237-.547.318c-.01-.001-1.37-.682-2.517-.018-.55.32-.645.614.03 1.274l.122.118-1.167.678c-.032-.046-.326-.27-.429-.856l-1.032.059c.14.72.754 1.084.832 1.163l-.428.249.41.237.431-.251c.01.001 1.405.721 2.577.04.31-.18.46-.364.444-.547-.034-.384-.56-.825-.617-.89l1.133-.658c.037.046.278.234.429.666l.986-.103c-.24-.59-.703-.851-.787-.929zm-2.95 2.244c-.255 0-.446-.088-.66-.145l1.127-.655.068.095c.094.13.13.242.11.34-.046.24-.397.365-.645.365zm.887-1.52c-.034-.07-.173-.218-.123-.412.074-.289.506-.425.929-.309l.293.083-1.1.639z" class="colorfed57a svgShape"></path><path fill="#f99f4a" d="m34.756 33.092-.011 2.184c0 .58-.238 1.158-.557 1.54-.318.441-.86.867-1.049.973-.19.152-.568.35-.786.458-.35.175-.701.315-1.049.426-.261.066-.507.163-1.06.273-.25.063-.74.128-1.048.153-.088.011-.186.022-.273.022a6.322 6.322 0 0 1-.787.044h-.273c-.303 0-.945-.053-1.048-.066-1.18-.098-2.862-.553-3.944-1.31-.374-.25-.784-.606-1.048-.973a1.765 1.765 0 0 1-.273-.426 2.316 2.316 0 0 1-.306-1.147l.01-2.195c0 .393.1-.013.296.359a3.723 3.723 0 0 0 1.049 1.202c.087.076.174.141.272.207 1.283.816 2.927 1.376 5.265 1.376.262 0 .525-.011.787-.044.992 0 2.89-.495 3.877-1.103.12-.066.23-.142.339-.218.213-.119.763-.565 1.049-.962.109-.142.196-.284.273-.426.196-.371.295.035.295-.347z" class="colorf9bb4a svgShape"></path><path fill="#fdff3d" d="M32.76 30.304c2.643 1.527 2.662 4.004.036 5.53-2.632 1.53-6.91 1.527-9.553 0-2.643-1.526-2.657-4-.026-5.53 2.627-1.526 6.899-1.526 9.542 0z" class="colorfed57a svgShape"></path><path fill="#ff9a3a" d="M31.775 31.13c2.096 1.07 2.111 2.809.029 3.879-2.087 1.073-5.48 1.07-7.576 0-2.096-1.07-2.107-2.806-.02-3.879 2.083-1.07 5.47-1.07 7.567 0z" class="colorefac41 svgShape"></path><path fill="#d88639" d="M34.46 34.228V36.4a2.464 2.464 0 0 1-.272.415v-2.162c.109-.142.196-.284.273-.426zm-1.048 1.19v2.174a1.57 1.57 0 0 1-.273.197v-2.174c.098-.055.186-.12.273-.197zm-1.06.656v2.173c-.087.044-.174.088-.273.131v-2.184c.099-.044.186-.077.274-.12zm-1.048.415v2.184c-.087.022-.175.055-.273.077v-2.185c.098-.022.186-.044.273-.076zm-1.06.273v2.184c-.087.022-.185.033-.273.055v-2.185c.088-.021.186-.032.273-.054zm-1.048.153v2.184c-.088.011-.186.022-.273.022v-2.184c.087 0 .185-.011.273-.022zm-1.06.065v2.185h-.273v-2.196c.088.011.186.011.273.011zm-1.048-.043v2.184c-.088 0-.186-.01-.273-.022v-2.184c.087.01.174.022.273.022zm-1.06-.132v2.185a2.412 2.412 0 0 1-.273-.055v-2.184c.087.022.175.044.273.054zm-1.048-.25v2.184a2.002 2.002 0 0 1-.274-.077v-2.184c.088.033.186.054.274.076zm-1.06-.383v2.185a2.05 2.05 0 0 1-.273-.12v-2.185c.087.044.175.087.273.12zm-1.049-.568v2.185a2.57 2.57 0 0 1-.273-.208v-2.185c.088.077.175.142.273.208zm-1.048-.983v2.195a1.765 1.765 0 0 1-.273-.426v-2.195c.076.142.164.284.273.426z" class="colord89b39 svgShape"></path><path fill="#fdff3d" d="m30.448 31.926.54-.313-.41-.237-.547.318c-.01-.001-1.37-.682-2.517-.018-.308.18-.459.36-.447.534.027.365.542.794.599.858l-1.167.678c-.032-.046-.326-.27-.429-.856l-1.033.059c.14.72.755 1.084.833 1.163l-.428.248.41.238.431-.251c.01 0 1.405.721 2.577.04.31-.18.46-.364.444-.547-.034-.384-.56-.825-.617-.89l1.133-.658c.037.046.278.234.429.666l.986-.104c-.24-.589-.703-.85-.787-.928zm-2.95 2.244c-.255 0-.446-.088-.66-.145l1.127-.655c.038.065.217.247.178.436-.046.239-.397.364-.645.364zm.887-1.52c-.034-.07-.173-.219-.123-.412.074-.289.506-.425.929-.309l.293.083-1.1.639z" class="colorfed57a svgShape"></path><path fill="#f99f4a" d="M34.756 30.306c-.072 1.926.215 2.784-.568 3.724-.318.441-.86.867-1.049.972-.19.153-.568.35-.786.46-.895.446-2.101.763-3.157.851-.088.011-.186.022-.273.022-1.511.189-3.776-.134-5.276-.885-.157-.084-.519-.268-.776-.448a2.569 2.569 0 0 1-.273-.207 3.441 3.441 0 0 1-.775-.765 1.765 1.765 0 0 1-.273-.426 2.316 2.316 0 0 1-.306-1.147l.01-2.195c0 .393.1-.013.296.358a3.723 3.723 0 0 0 1.049 1.202c.087.076.174.142.272.208a7.32 7.32 0 0 0 1.835.873c1.086.407 3.117.597 4.217.46.387 0 1.343-.14 2.108-.372.66-.147 1.872-.702 2.381-1.147.44-.334.779-.69 1.049-1.19.196-.372.295.034.295-.348z" class="colorf9bb4a svgShape"></path><path fill="#fdff3d" d="M32.76 27.518c2.643 1.526 2.662 4.004.036 5.53-2.632 1.53-6.91 1.527-9.553 0-2.643-1.526-2.657-4-.026-5.53 2.627-1.526 6.899-1.526 9.542 0z" class="colorfed57a svgShape"></path><path fill="#ff9a3a" d="M31.775 28.344c2.096 1.07 2.111 2.808.029 3.879-2.087 1.072-5.48 1.07-7.576 0-2.096-1.07-2.107-2.806-.02-3.879 2.083-1.07 5.47-1.07 7.567 0z" class="colorefac41 svgShape"></path><path fill="#d88639" d="M34.46 31.442v2.173a2.464 2.464 0 0 1-.272.415v-2.162c.109-.142.196-.284.273-.426zm-1.048 1.19v2.174a1.57 1.57 0 0 1-.273.196V32.83c.098-.055.186-.12.273-.197zm-1.06.656v2.173c-.087.044-.174.088-.273.131v-2.184c.099-.044.186-.077.274-.12zm-1.048.415v2.184c-.087.022-.175.055-.273.077v-2.185c.098-.022.186-.044.273-.076zm-1.06.273v2.184c-.087.022-.185.033-.273.055V34.03c.088-.022.186-.033.273-.054zm-1.048.153v2.184c-.088.011-.186.022-.273.022V34.15c.087 0 .185-.01.273-.021zm-1.06.065v2.185h-.273v-2.196c.088.011.186.011.273.011zm-1.048-.044v2.185c-.088 0-.186-.01-.273-.022V34.13c.087.01.174.021.273.021zm-1.06-.13v2.184a2.412 2.412 0 0 1-.273-.055v-2.184c.087.022.175.043.273.054zm-1.048-.252v2.185a2.004 2.004 0 0 1-.274-.077v-2.184c.088.032.186.054.274.076zm-1.06-.382v2.184a2.05 2.05 0 0 1-.273-.12v-2.184c.087.043.175.087.273.12zm-1.049-.568v2.184a2.569 2.569 0 0 1-.273-.207V32.61c.088.077.175.142.273.208zm-1.048-.983v2.195a1.765 1.765 0 0 1-.273-.426V31.41c.076.142.164.284.273.426z" class="colord89b39 svgShape"></path><path fill="#fdff3d" d="m30.448 29.14.54-.313-.41-.237-.547.318c-.065-.022-.532-.306-1.348-.309h-.01c-.436 0-.826.098-1.159.291-.308.18-.459.36-.447.534.027.365.542.794.599.858l-1.167.678c-.032-.046-.326-.27-.429-.856l-1.033.058c.14.72.755 1.085.833 1.164l-.428.248.41.237.431-.25c.01 0 1.405.721 2.577.04.31-.18.46-.364.444-.547-.018-.207-.185-.466-.497-.771l-.12-.119 1.133-.658c.037.046.278.234.429.666l.986-.104c-.24-.589-.703-.85-.787-.928zm-2.95 2.244c-.255 0-.446-.088-.66-.145l1.127-.655.068.094c.094.13.13.242.11.342-.046.239-.397.364-.645.364zm.887-1.52-.066-.109a.39.39 0 0 1-.057-.303c.026-.1.098-.184.214-.252.395-.232.834-.005 1.008.026l-1.1.638z" class="colorfed57a svgShape"></path></svg>