<svg xmlns="http://www.w3.org/2000/svg" viewBox="0 0 512 512" id="necklace"><path fill="#ff9a3a" d="M256 362.94a7.51 7.51 0 0 1-3.45-.84 568.72 568.72 0 0 1-84-55.3c-56.75-45.39-85.53-89.24-85.53-130.33C83.06 79.16 160.64 0 256 0s172.94 79.16 172.94 176.47c0 41.09-28.78 84.94-85.53 130.33a568.72 568.72 0 0 1-84 55.3 7.51 7.51 0 0 1-3.41.84ZM256 15C168.91 15 98.06 87.43 98.06 176.47c0 80.44 134.51 157.62 157.94 170.45 23.43-12.83 157.94-90 157.94-170.45C413.94 87.43 343.09 15 256 15Z" class="coloraeadb3 svgShape"></path><path fill="#ff9a3a" d="M256.1 404.3a7.5 7.5 0 0 1-7.5-7.5v-41.36a7.5 7.5 0 1 1 15 0v41.36a7.5 7.5 0 0 1-7.5 7.5Z" class="coloraeadb3 svgShape"></path><path fill="#592d72" d="m309.19 412.55-.08 61.35-31.72-18.38.03-24.69 31.77-18.28z" class="colored4769 svgShape"></path><path fill="#eb3030" d="m309.19 412.55-31.77 18.28-21.37-12.38.05-36.65 53.09 30.75z" class="coloreb304a svgShape"></path><path fill="#592d72" d="m256.1 381.8-.05 36.65-21.4 12.32-31.72-18.37 53.17-30.6z" class="colored4769 svgShape"></path><path fill="#eb3030" d="m234.65 430.77-.03 24.7-31.77 18.28.08-61.35 31.72 18.37z" class="coloreb304a svgShape"></path><path fill="#592d72" d="m255.99 467.84-.05 36.66-53.09-30.75 31.77-18.28 21.37 12.37z" class="colored4769 svgShape"></path><path fill="#eb3030" d="m309.11 473.9-53.17 30.6.05-36.66 21.4-12.32 31.72 18.38z" class="coloreb304a svgShape"></path><path fill="#ff2020" d="m277.42 430.83-.03 24.69-21.4 12.32-21.37-12.37.03-24.7 21.4-12.32 21.37 12.38z" class="colore4222e svgShape"></path><path fill="#c02323" d="m256.05 418.45-7.52 4.33 9.89 5.74a8 8 0 0 1 4 6.93v15.45a8 8 0 0 1-4 6.92l-9.88 5.69 7.48 4.33 21.4-12.32v-24.69Z" class="colorc0232c svgShape"></path><circle cx="300.73" cy="328.55" r="22.5" fill="#14c5af" class="color52bbe9 svgShape"></circle><path fill="#1483c5" d="M300.73 306.05a22.46 22.46 0 0 0-7.5 1.29 22.5 22.5 0 0 1 0 42.43 22.5 22.5 0 1 0 7.5-43.72Z" class="color1cabe1 svgShape"></path><circle cx="356.27" cy="287.48" r="22.5" fill="#fdff3d" class="colorbcd44c svgShape"></circle><path fill="#cdce44" d="M356.27 265a22.42 22.42 0 0 0-7.5 1.29 22.5 22.5 0 0 1 0 42.42 22.5 22.5 0 1 0 7.5-43.71Z" class="coloraece44 svgShape"></path><circle cx="401.27" cy="235.28" r="22.5" fill="#14c5af" class="color52bbe9 svgShape"></circle><path fill="#1483c5" d="M401.27 212.78a22.42 22.42 0 0 0-7.5 1.29 22.5 22.5 0 0 1 0 42.42 22.5 22.5 0 1 0 7.5-43.71Z" class="color1cabe1 svgShape"></path><circle cx="211.27" cy="328.55" r="22.5" fill="#fdff3d" class="colorbcd44c svgShape"></circle><path fill="#cdce44" d="M211.27 306.05a22.42 22.42 0 0 0-7.5 1.29 22.5 22.5 0 0 1 0 42.43 22.5 22.5 0 1 0 7.5-43.72Z" class="coloraece44 svgShape"></path><circle cx="155.73" cy="287.48" r="22.5" fill="#14c5af" class="color52bbe9 svgShape"></circle><path fill="#1483c5" d="M155.73 265a22.46 22.46 0 0 0-7.5 1.29 22.5 22.5 0 0 1 0 42.42 22.5 22.5 0 1 0 7.5-43.71Z" class="color1cabe1 svgShape"></path><circle cx="110.73" cy="235.28" r="22.5" fill="#fdff3d" class="colorbcd44c svgShape"></circle><path fill="#cdce44" d="M110.73 212.78a22.46 22.46 0 0 0-7.5 1.29 22.5 22.5 0 0 1 0 42.42 22.5 22.5 0 1 0 7.5-43.71Z" class="coloraece44 svgShape"></path></svg>