<svg xmlns="http://www.w3.org/2000/svg" viewBox="0 0 64 64" id="Nut"><g fill="#fdff3d" class="color000000 svgShape"><path fill="#ff2020" d="M56,30H52V41.18a16.721,16.721,0,0,1-7.16,13.88L34.26,62.3a4.349,4.349,0,0,1-1.36.6,4.046,4.046,0,0,1-3.16-.6L19.16,55.06A16.721,16.721,0,0,1,12,41.18V30H8a16.984,16.984,0,0,1,3.1-9.8,16.311,16.311,0,0,1,8.19-6.13c.24-.08.47-.16.71-.22A39.645,39.645,0,0,1,32,12a40.045,40.045,0,0,1,12.71,2.07A16.733,16.733,0,0,1,56,30Z" class="colorffc94e svgShape"></path><path fill="#ff9a3a" d="M32.9,62.9a4.046,4.046,0,0,1-3.16-.6L19.16,55.06A16.721,16.721,0,0,1,12,41.18V30H8a16.984,16.984,0,0,1,3.1-9.8,16.311,16.311,0,0,1,8.19-6.13c.24-.08.47-.16.71-.22V41.063A21.576,21.576,0,0,0,26.32,56.32Z" class="colorf29c40 svgShape"></path><path fill="#14c5af" d="M41,1,36.02,3.85A4,4,0,0,0,34,7.32V12H30V5a4,4,0,0,1,4-4Z" class="color8d6e63 svgShape"></path><path fill="#592d72" d="M32,6a4,4,0,0,1,4-4h3.253L41,1H34a4,4,0,0,0-4,4v7h2Z" class="color85544c svgShape"></path><path fill="#14c5af" d="M56,30H8a16.984,16.984,0,0,1,3.1-9.8,16.311,16.311,0,0,1,8.19-6.13A38.968,38.968,0,0,1,24,12.81a40,40,0,0,1,20.71,1.26A16.529,16.529,0,0,1,55.25,25,17,17,0,0,1,56,30Z" class="color8d6e63 svgShape"></path><path fill="#592d72" d="M56,30H8a16.984,16.984,0,0,1,3.1-9.8,16.311,16.311,0,0,1,8.19-6.13A38.968,38.968,0,0,1,24,12.81V17a8,8,0,0,0,8,8H55.25A17,17,0,0,1,56,30Z" class="color85544c svgShape"></path></g><g fill="#fdff3d" class="color000000 svgShape"><g fill="#fdff3d" class="color000000 svgShape"><g fill="#fdff3d" class="color000000 svgShape"><path d="M45.027,13.122A41.108,41.108,0,0,0,31,11.03V5a3,3,0,0,1,3-3h3.239l-1.713.98A5,5,0,0,0,33,7.32V8a1,1,0,0,0,2,0V7.32a3,3,0,0,1,1.517-2.6l4.98-2.85A1,1,0,0,0,41,0H34a5.006,5.006,0,0,0-5,5v6.124a40.893,40.893,0,0,0-10.025,2,17.214,17.214,0,0,0-8.691,6.5A17.867,17.867,0,0,0,7,30a1,1,0,0,0,1,1h3V41.18a17.647,17.647,0,0,0,7.595,14.7l10.581,7.24a5.034,5.034,0,0,0,5.649,0L45.4,55.888A17.648,17.648,0,0,0,53,41.18V34a1,1,0,0,0-2,0v7.18a15.656,15.656,0,0,1-6.725,13.055L33.7,61.475a3.024,3.024,0,0,1-3.39,0L19.721,54.232A15.653,15.653,0,0,1,13,41.18V30a1,1,0,0,0-1-1H9.03a15.851,15.851,0,0,1,2.888-8.225,15.243,15.243,0,0,1,7.689-5.757,39.231,39.231,0,0,1,24.786,0A15.652,15.652,0,0,1,54.97,29H20a1,1,0,0,0,0,2H56a1,1,0,0,0,1-1A17.681,17.681,0,0,0,45.027,13.122Z" fill="#fdff3d" class="color000000 svgShape"></path><path d="M34.707 18.293a1 1 0 0 0-1.414 0L32 19.586l-3.293-3.293a1 1 0 0 0-1.414 1.414L30.586 21l-2.293 2.293a1 1 0 1 0 1.414 1.414L32 22.414l3.293 3.293a1.02 1.02 0 0 0 1.414 0 1 1 0 0 0 0-1.414L33.414 21l1.293-1.293A1 1 0 0 0 34.707 18.293zM41.043 23.957a1.018 1.018 0 0 0 1.414 0L44 22.414l2.293 2.293a1.012 1.012 0 0 0 1.414 0 1 1 0 0 0 0-1.414L45.414 21l.793-.793a1 1 0 0 0-1.414-1.414L44 19.586l-1.293-1.293a1 1 0 0 0-1.414 1.414L42.586 21l-1.543 1.543A1 1 0 0 0 41.043 23.957zM17.75 23.75a1 1 0 0 0 .707-.293l1.293-1.293 2.543 2.543a1.022 1.022 0 0 0 1.414 0 1 1 0 0 0 0-1.414L21.164 20.75l.793-.793a1 1 0 0 0-1.414-1.414l-.793.793-1.043-1.043a1 1 0 0 0-1.414 1.414l1.043 1.043-1.293 1.293A1.01 1.01 0 0 0 17.75 23.75z" fill="#fdff3d" class="color000000 svgShape"></path><circle cx="16" cy="30" r="1" fill="#fdff3d" class="color000000 svgShape"></circle></g></g></g></svg>