<svg xmlns="http://www.w3.org/2000/svg" viewBox="0 0 48 48" id="orange"><g fill="#14c5af" class="color000000 svgShape"><path fill="#1483c5" d="M20 8c-2.948 0-6-1.909-6-7C18 1 20 4.131 20 8zM21 5.994a7.246 7.246 0 0 0 10 0A7.269 7.269 0 0 0 21 5.994z" class="color63b300 svgShape"></path><circle cx="18" cy="26" r="17" fill="#ff7c00" class="colorff7f00 svgShape"></circle><path fill="#f5f800" d="M45,29H15a1.908,1.908,0,0,0-2,1.8v1.8C13,40.553,20.611,47,30,47s17-6.447,17-14.4V30.8A1.908,1.908,0,0,0,45,29Z" class="colorf8ef00 svgShape"></path><path fill="#ff7d01" d="M20.24,40.016A13.935,13.935,0,0,0,27.654,43.8,2.009,2.009,0,0,0,30,41.825V29l-9.645,8.037A2.009,2.009,0,0,0,20.24,40.016Z" class="colorffc501 svgShape"></path><path fill="#ff7d01" d="M16 29v1a13.849 13.849 0 0 0 1.5 6.276 1.994 1.994 0 0 0 3.052.6L30 29zM32.346 43.8a13.935 13.935 0 0 0 7.414-3.787 2.009 2.009 0 0 0-.115-2.979L30 29V41.825A2.009 2.009 0 0 0 32.346 43.8z" class="colorffc501 svgShape"></path><path fill="#ff7d01" d="M44,29H30l9.451,7.876a1.994,1.994,0,0,0,3.052-.6A13.849,13.849,0,0,0,44,30Z" class="colorffc501 svgShape"></path><circle cx="18" cy="26" r="17" fill="#ff7c00" class="colorff7f00 svgShape"></circle><path fill="#ff2020" d="M20,38A16.966,16.966,0,0,1,3.417,17.3,16.989,16.989,0,1,0,34.583,29.7,16.974,16.974,0,0,1,20,38Z" class="colore86300 svgShape"></path><ellipse cx="19" cy="14.5" fill="#ff2020" rx="4" ry="1.5" class="colore86300 svgShape"></ellipse><path fill="#ff9a3a" d="M24.08,12.5a1.038,1.038,0,0,1,.224.621c0,3.217-4.09,3.217-5.434,3.217-1.23,0-4.746-.008-5.34-2.468A10.409,10.409,0,0,0,8,22.774C8,28.7,13.6,33.5,20.5,33.5S33,28.7,33,22.774C33,17.919,29.238,13.822,24.08,12.5Z" class="colorffa008 svgShape"></path><path fill="#410066" d="M30,0a11.246,11.246,0,0,0-8.644,3.38c-3,3.237-3.366,7.82-3.377,9.764C17.4,13.319,17,13.635,17,14c0,.552.895,1,2,1s2-.448,2-1c0-.373-.413-.694-1.018-.866.015-1.677.332-5.685,2.842-8.395A9.332,9.332,0,0,1,30,2a1,1,0,0,0,0-2Z" class="color436600 svgShape"></path><path fill="#1483c5" d="M20,8c-2.948,0-6-1.909-6-7C18,1,20,4.131,20,8Z" class="color63b300 svgShape"></path><path fill="#592d72" d="M19,14v1c1.105,0,2-.448,2-1,0-.373-.413-.694-1.018-.866.015-1.677.332-5.685,2.842-8.395A9.332,9.332,0,0,1,30,2a1,1,0,0,0,1-1H30C18,1,19,14,19,14Z" class="color527710 svgShape"></path><path fill="#611d88" d="M17.275,13.5A.67.67,0,0,0,17,14c0,.552.895,1,2,1s2-.448,2-1a.67.67,0,0,0-.276-.5A2.748,2.748,0,0,1,19,14,2.74,2.74,0,0,1,17.275,13.5Z" class="color5d881d svgShape"></path><path fill="#1483c5" d="M21,5.994a7.246,7.246,0,0,0,10,0A7.269,7.269,0,0,0,21,5.994Z" class="color63b300 svgShape"></path><path fill="#c86608" d="M31 5.994a7.269 7.269 0 0 0-10 0L21.008 6h9.984zM14 1l6 7C20 4.131 18 1 14 1z" class="color8bc808 svgShape"></path><path fill="#fcfd8b" d="M45,29H15a1.908,1.908,0,0,0-2,1.8v1.8C13,40.553,20.611,47,30,47s17-6.447,17-14.4V30.8A1.908,1.908,0,0,0,45,29Z" class="colorfdf48b svgShape"></path><path fill="#cc0000" d="M18.246,42.988a14.252,14.252,0,0,1-4.509-6.194,17,17,0,0,1-4.652-2.768A13.461,13.461,0,0,0,13.563,42.4,17,17,0,0,0,18,43C18.083,43,18.163,42.989,18.246,42.988Z" class="colorcc5700 svgShape"></path><path fill="#ff2020" d="M13,31.34V30.8A1.908,1.908,0,0,1,15,29H11a2.2,2.2,0,0,0-.589.088A1.831,1.831,0,0,0,9,30.8v1.8a12.464,12.464,0,0,0,.085,1.426,17,17,0,0,0,4.652,2.768A12.389,12.389,0,0,1,13,32.6Z" class="colore86300 svgShape"></path><path fill="#ff7d01" d="M45.882,29.192A1.717,1.717,0,0,1,46,29.8v1.8C46,39.553,38.837,46,30,46S14,39.553,14,31.6V29.8a1.717,1.717,0,0,1,.118-.608A1.789,1.789,0,0,0,13,30.8v1.8C13,40.553,20.611,47,30,47s17-6.447,17-14.4V30.8A1.789,1.789,0,0,0,45.882,29.192Z" class="colorffc501 svgShape"></path><path fill="#fa7a01" d="M20.24,40.016A13.935,13.935,0,0,0,27.654,43.8,2.009,2.009,0,0,0,30,41.825V29l-9.645,8.037A2.009,2.009,0,0,0,20.24,40.016Z" class="colorfaba01 svgShape"></path><path fill="#fa7a01" d="M16 29v1a13.849 13.849 0 0 0 1.5 6.276 1.994 1.994 0 0 0 3.052.6L30 29zM32.346 43.8a13.935 13.935 0 0 0 7.414-3.787 2.009 2.009 0 0 0-.115-2.979L30 29V41.825A2.009 2.009 0 0 0 32.346 43.8z" class="colorfaba01 svgShape"></path><path fill="#fa7a01" d="M44,29H30l9.451,7.876a1.994,1.994,0,0,0,3.052-.6A13.849,13.849,0,0,0,44,30Z" class="colorfaba01 svgShape"></path><path fill="#f5f800" d="M44,29v1a13.852,13.852,0,0,1-1.5,6.276,1.994,1.994,0,0,1-3.052.6l.194.161a2.009,2.009,0,0,1,.115,2.979A13.935,13.935,0,0,1,32.346,43.8,2.009,2.009,0,0,1,30,41.825,2.009,2.009,0,0,1,27.654,43.8a13.935,13.935,0,0,1-7.414-3.787,2.009,2.009,0,0,1,.115-2.979l.194-.161a1.994,1.994,0,0,1-3.052-.6A13.852,13.852,0,0,1,16,30V29H15v1.079a15.025,15.025,0,0,0,1.6,6.77,2.128,2.128,0,0,0,3.27.647l-.208.174a2.178,2.178,0,0,0-.123,3.214,14.9,14.9,0,0,0,7.944,4.085A2.158,2.158,0,0,0,30,42.835a2.158,2.158,0,0,0,2.513,2.134,14.9,14.9,0,0,0,7.944-4.085,2.178,2.178,0,0,0-.123-3.214l-.208-.174a2.128,2.128,0,0,0,3.27-.647,15.025,15.025,0,0,0,1.6-6.77V29Z" class="colorf8ef00 svgShape"></path><path fill="#fdff3d" d="M27.963,41.975a12.066,12.066,0,0,1-6.437-3.32,1.767,1.767,0,0,1-.4-1.9c-.071-.062-.147-.119-.217-.182l-.361.3h0l-.194.161a2.009,2.009,0,0,0-.115,2.979A13.935,13.935,0,0,0,27.654,43.8,2.009,2.009,0,0,0,30,41.825V40.241A1.751,1.751,0,0,1,27.963,41.975Z" class="colorffd417 svgShape"></path><path fill="#fdff3d" d="M20.3 35.972A1.88 1.88 0 0 1 18.39 35.1 10.721 10.721 0 0 1 17 29.839V29H16v1a13.852 13.852 0 0 0 1.5 6.276 1.994 1.994 0 0 0 3.052.6l.361-.3C20.7 36.382 20.5 36.178 20.3 35.972zM39.09 36.575c-.07.063-.146.12-.217.182a1.767 1.767 0 0 1-.4 1.9 12.066 12.066 0 0 1-6.437 3.32A1.751 1.751 0 0 1 30 40.241v1.584A2.009 2.009 0 0 0 32.346 43.8a13.935 13.935 0 0 0 7.414-3.787 2.009 2.009 0 0 0-.115-2.979l-.194-.161h0zM43 29v.839A10.721 10.721 0 0 1 41.61 35.1a1.88 1.88 0 0 1-1.908.867c-.2.206-.4.41-.612.6l.361.3a1.994 1.994 0 0 0 3.052-.6A13.852 13.852 0 0 0 44 30V29z" class="colorffd417 svgShape"></path><path fill="#fcfd8b" d="M39.451,36.876a2,2,0,0,0,1.333.459L30.781,29H29.219l-10,8.335a2,2,0,0,0,1.333-.459l-.194.161a1.978,1.978,0,0,0-.685,1.223l9.83-8.192V43.135a1.976,1.976,0,0,0,.5-1.31,1.976,1.976,0,0,0,.5,1.31V30.068l9.83,8.192a1.978,1.978,0,0,0-.685-1.223Z" class="colorfdf48b svgShape"></path><ellipse cx="40" cy="33" fill="#ff9a3a" rx=".825" ry="1.148" transform="rotate(-45.02 40 33)" class="colorffa008 svgShape"></ellipse><ellipse cx="37" cy="37" fill="#ff9a3a" rx=".825" ry="1.148" transform="rotate(-45.02 37 37)" class="colorffa008 svgShape"></ellipse><ellipse cx="36" cy="39" fill="#ff9a3a" rx=".825" ry="1.148" transform="rotate(-45.02 36 39)" class="colorffa008 svgShape"></ellipse><ellipse cx="32" cy="38" fill="#ff9a3a" rx=".825" ry="1.148" transform="rotate(-45.02 32 38)" class="colorffa008 svgShape"></ellipse><ellipse cx="37" cy="31" fill="#ff9a3a" rx=".825" ry="1.148" transform="rotate(-45.02 37 31)" class="colorffa008 svgShape"></ellipse><ellipse cx="37.746" cy="33.5" fill="#ff9a3a" rx=".413" ry=".574" transform="rotate(-45.02 37.746 33.5)" class="colorffa008 svgShape"></ellipse><ellipse cx="33.746" cy="40.5" fill="#ff9a3a" rx=".413" ry=".574" transform="rotate(-45.02 33.745 40.5)" class="colorffa008 svgShape"></ellipse><ellipse cx="33.746" cy="38.5" fill="#ff9a3a" rx=".413" ry=".574" transform="rotate(-45.02 33.746 38.5)" class="colorffa008 svgShape"></ellipse><ellipse cx="34.746" cy="35.5" fill="#ff9a3a" rx=".413" ry=".574" transform="rotate(-45.02 34.746 35.5)" class="colorffa008 svgShape"></ellipse><ellipse cx="33.746" cy="36.5" fill="#ff9a3a" rx=".413" ry=".574" transform="rotate(-45.02 33.746 36.5)" class="colorffa008 svgShape"></ellipse><ellipse cx="31.746" cy="40.5" fill="#ff9a3a" rx=".413" ry=".574" transform="rotate(-45.02 31.746 40.5)" class="colorffa008 svgShape"></ellipse><ellipse cx="32.746" cy="34.5" fill="#ff9a3a" rx=".413" ry=".574" transform="rotate(-45.02 32.745 34.5)" class="colorffa008 svgShape"></ellipse><ellipse cx="41.746" cy="31.5" fill="#ff9a3a" rx=".413" ry=".574" transform="rotate(-45.02 41.746 31.5)" class="colorffa008 svgShape"></ellipse><ellipse cx="39.746" cy="30.5" fill="#ff9a3a" rx=".413" ry=".574" transform="rotate(-45.02 39.746 30.5)" class="colorffa008 svgShape"></ellipse><ellipse cx="20.246" cy="33" fill="#ff9a3a" rx="1.148" ry=".825" transform="rotate(-44.98 20.246 33)" class="colorffa008 svgShape"></ellipse><ellipse cx="23.246" cy="37" fill="#ff9a3a" rx="1.148" ry=".825" transform="rotate(-44.98 23.246 37)" class="colorffa008 svgShape"></ellipse><ellipse cx="24.246" cy="39" fill="#ff9a3a" rx="1.148" ry=".825" transform="rotate(-44.98 24.246 39)" class="colorffa008 svgShape"></ellipse><ellipse cx="28.246" cy="38" fill="#ff9a3a" rx="1.148" ry=".825" transform="rotate(-44.98 28.246 38)" class="colorffa008 svgShape"></ellipse><ellipse cx="23.246" cy="31" fill="#ff9a3a" rx="1.148" ry=".825" transform="rotate(-44.98 23.246 31)" class="colorffa008 svgShape"></ellipse><ellipse cx="22.5" cy="33.5" fill="#ff9a3a" rx=".574" ry=".413" transform="rotate(-44.98 22.5 33.5)" class="colorffa008 svgShape"></ellipse><ellipse cx="26.5" cy="40.5" fill="#ff9a3a" rx=".574" ry=".413" transform="rotate(-44.98 26.5 40.5)" class="colorffa008 svgShape"></ellipse><ellipse cx="26.5" cy="38.5" fill="#ff9a3a" rx=".574" ry=".413" transform="rotate(-44.98 26.5 38.5)" class="colorffa008 svgShape"></ellipse><ellipse cx="25.5" cy="35.5" fill="#ff9a3a" rx=".574" ry=".413" transform="rotate(-44.98 25.5 35.5)" class="colorffa008 svgShape"></ellipse><ellipse cx="26.5" cy="36.5" fill="#ff9a3a" rx=".574" ry=".413" transform="rotate(-44.98 26.5 36.5)" class="colorffa008 svgShape"></ellipse><ellipse cx="28.5" cy="40.5" fill="#ff9a3a" rx=".574" ry=".413" transform="rotate(-44.98 28.5 40.5)" class="colorffa008 svgShape"></ellipse><ellipse cx="27.5" cy="34.5" fill="#ff9a3a" rx=".574" ry=".413" transform="rotate(-44.98 27.5 34.5)" class="colorffa008 svgShape"></ellipse><ellipse cx="18.5" cy="31.5" fill="#ff9a3a" rx=".574" ry=".413" transform="rotate(-44.98 18.5 31.5)" class="colorffa008 svgShape"></ellipse><ellipse cx="20.5" cy="30.5" fill="#ff9a3a" rx=".574" ry=".413" transform="rotate(-44.98 20.5 30.5)" class="colorffa008 svgShape"></ellipse><path fill="#ff9a3a" d="M13.53,13.87c.594,2.461,4.11,2.468,5.34,2.468,1.344,0,5.434,0,5.434-3.217a1.038,1.038,0,0,0-.224-.621C29.238,13.822,33,17.919,33,22.774a10.458,10.458,0,0,1-5.789,9.039,37.946,37.946,0,0,0,5.357,2.917A16.993,16.993,0,0,0,11.427,10.32a37.924,37.924,0,0,0,1.378,4.025C13.044,14.184,13.277,14.016,13.53,13.87Z" class="colorffa008 svgShape"></path><path fill="#ff7d01" d="M33,22.774c0-4.855-3.762-8.952-8.92-10.274a1.038,1.038,0,0,1,.224.621c0,3.217-4.09,3.217-5.434,3.217-1.23,0-4.746-.007-5.34-2.468-.253.146-.486.314-.725.475A38.083,38.083,0,0,0,27.211,31.813,10.458,10.458,0,0,0,33,22.774Z" class="colorffc501 svgShape"></path><path fill="#fcfd8b" d="M45.882 29.192a2.108 2.108 0 0 1 .448.272A2.044 2.044 0 0 0 45.882 29.192zM46.338 29.47a1.931 1.931 0 0 1 .346.366A1.871 1.871 0 0 0 46.338 29.47z" class="colorfdf48b svgShape"></path><path fill="#fcfdc1" d="M43.4,36.849a2.042,2.042,0,0,1-.686.777c.563.078,1.129.147,1.7.2A13.144,13.144,0,0,0,46,31.6V29.8a1.717,1.717,0,0,0-.118-.608A2.159,2.159,0,0,0,45,29v1.079A15.025,15.025,0,0,1,43.4,36.849Z" class="colorfdf1c1 svgShape"></path><path fill="#fcfd8b" d="M46.926 30.341A1.592 1.592 0 0 1 47 30.8 1.627 1.627 0 0 0 46.926 30.341zM46.7 29.858a1.671 1.671 0 0 1 .193.379A1.671 1.671 0 0 0 46.7 29.858z" class="colorfdf48b svgShape"></path><path fill="#ff7d01" d="M46.684 29.836l.013.022zM46.89 30.237c.013.034.026.068.036.1C46.916 30.305 46.9 30.271 46.89 30.237zM46.33 29.464l.008.006z" class="colorffc501 svgShape"></path><polygon fill="#ff7d01" points="45.882 29.192 45.882 29.192 45.882 29.192 45.882 29.192" class="colorffc501 svgShape"></polygon><path fill="#f5f800" d="M46,31.6a13.144,13.144,0,0,1-1.59,6.227q.683.063,1.373.1A12.459,12.459,0,0,0,47,32.6V30.8a1.592,1.592,0,0,0-.074-.459c-.01-.036-.023-.07-.036-.1a1.671,1.671,0,0,0-.193-.379l-.013-.022a1.931,1.931,0,0,0-.346-.366l-.008-.006a2.108,2.108,0,0,0-.448-.272h0A1.717,1.717,0,0,1,46,29.8Z" class="colorf8ef00 svgShape"></path><path fill="#fdff3d" d="M29.5 30.068l-2.178 1.815q1.065.693 2.178 1.316zM29.219 29H23.442a37.858 37.858 0 0 0 3.01 2.3zM32.443 34.027a.634.634 0 0 1 .7.313c.161.25.124.517-.072.617.392.168.79.322 1.189.476a.339.339 0 0 1 .183-.406.634.634 0 0 1 .7.313.506.506 0 0 1 .07.453q.523.186 1.055.356a.545.545 0 0 1 .126-.1 1.23 1.23 0 0 1 1.316.528c.3.085.6.174.907.251L30.5 30.068v3.667q.9.468 1.832.888C32.191 34.373 32.234 34.111 32.443 34.027zM39.7 35.972A1.88 1.88 0 0 0 41.61 35.1 10.721 10.721 0 0 0 43 29.839V29H30.781l8.667 7.222C39.532 36.138 39.62 36.057 39.7 35.972zm1.741-4.945a.634.634 0 0 1 .7.313c.168.261.126.545-.094.634a.638.638 0 0 1-.7-.313C41.181 31.4 41.223 31.115 41.443 31.027zm-2-1a.634.634 0 0 1 .7.313c.168.261.126.545-.094.634a.638.638 0 0 1-.7-.313C39.181 30.4 39.223 30.115 39.443 30.027zm-3.238 1.294c-.335-.523-.251-1.091.189-1.268a1.271 1.271 0 0 1 1.4.626c.335.523.251 1.091-.189 1.268A1.271 1.271 0 0 1 36.205 31.321zm1.844 2.653a.638.638 0 0 1-.7-.313c-.167-.262-.125-.546.095-.634a.634.634 0 0 1 .7.313C38.311 33.6 38.269 33.885 38.049 33.974zm1.345-1.921a1.271 1.271 0 0 1 1.4.626c.335.523.251 1.091-.189 1.268a1.271 1.271 0 0 1-1.4-.626C38.87 32.8 38.954 32.23 39.394 32.053z" class="colorffd417 svgShape"></path><path fill="#fcfd8b" d="M42.5,36.276a1.917,1.917,0,0,1-.581.687,1.984,1.984,0,0,1-.794.344,2.153,2.153,0,0,1-.242.02q.906.171,1.824.3a2.042,2.042,0,0,0,.686-.777,15.025,15.025,0,0,0,1.6-6.77V29H44v1A13.852,13.852,0,0,1,42.5,36.276Z" class="colorfdf48b svgShape"></path><polygon fill="#f5f800" points="39.451 36.876 39.452 36.876 39.451 36.876 39.451 36.876" class="colorf8ef00 svgShape"></polygon><polygon fill="#fdff3d" points="39.8 37.105 39.8 37.105 39.801 37.105 39.801 37.105 39.8 37.105" class="colorffd417 svgShape"></polygon><path fill="#fdff3d" d="M40.886 37.327h0a2.153 2.153 0 0 0 .242-.02A2.153 2.153 0 0 1 40.886 37.327zM41.128 37.307a1.984 1.984 0 0 0 .794-.344A1.984 1.984 0 0 1 41.128 37.307z" class="colorffd417 svgShape"></path><polygon fill="#fdff3d" points="39.8 37.105 39.801 37.105 39.801 37.105 39.8 37.105" class="colorffd417 svgShape"></polygon><path fill="#f5f800" d="M41.61,35.1a1.88,1.88,0,0,1-1.908.867c-.082.085-.17.166-.254.25l1.3,1.079.143.026a2.153,2.153,0,0,0,.242-.02,1.984,1.984,0,0,0,.794-.344,1.917,1.917,0,0,0,.581-.687A13.852,13.852,0,0,0,44,30V29H43v.839A10.721,10.721,0,0,1,41.61,35.1Z" class="colorf8ef00 svgShape"></path><polygon fill="#fcfd8b" points="26.88 31.6 30 29 26.88 31.6 26.88 31.6" class="colorfdf48b svgShape"></polygon><polygon fill="#fcfd8b" points="39.451 36.876 39.451 36.876 39.09 36.575 39.1 36.583 39.451 36.876" class="colorfdf48b svgShape"></polygon><polygon fill="#fcfd8b" points="39.09 36.575 30 29 39.09 36.575 39.09 36.575" class="colorfdf48b svgShape"></polygon><polygon fill="#fcfd8b" points="39.1 36.583 39.451 36.876 39.451 36.876 39.1 36.583" class="colorfdf48b svgShape"></polygon><path fill="#fcfd8b" d="M39.684 37.078h0c-.015-.013-.026-.029-.041-.042C39.66 37.05 39.67 37.065 39.684 37.078zM39.451 36.876h0a2 2 0 0 0 .183.121A2.158 2.158 0 0 1 39.451 36.876z" class="colorfdf48b svgShape"></path><polygon fill="#fcfd8b" points="39.645 37.037 39.451 36.876 39.451 36.876 39.645 37.037" class="colorfdf48b svgShape"></polygon><polygon fill="#fcfd8b" points="39.451 36.876 39.451 36.876 39.451 36.876 39.451 36.876 39.451 36.876" class="colorfdf48b svgShape"></polygon><polygon fill="#fcfd8b" points="39.09 36.575 39.09 36.575 39.1 36.583 39.09 36.575" class="colorfdf48b svgShape"></polygon><polygon fill="#fcfd8b" points="39.451 36.876 39.451 36.876 39.451 36.876 39.451 36.876" class="colorfdf48b svgShape"></polygon><polygon fill="#fcfd8b" points="39.1 36.583 39.09 36.575 39.09 36.575 39.451 36.876 39.1 36.583" class="colorfdf48b svgShape"></polygon><path fill="#fcfd8b" d="M39.8,37.1h0c-.057-.031-.11-.072-.165-.108C39.69,37.033,39.743,37.074,39.8,37.1Z" class="colorfdf48b svgShape"></path><path fill="#fcfdc1" d="M39.448,36.222,30.781,29H29.219l-2.767,2.3c.143.1.284.2.428.3s.3.188.442.283L29.5,30.068V33.2c.167.093.332.189.5.28s.334.169.5.256V30.068l8.117,6.764c.1.025.193.043.289.067.258.063.518.121.778.179-.014-.013-.024-.028-.039-.041l-.194-.161a2.158,2.158,0,0,0,.184.121c.055.036.108.077.165.108h0c.313.069.626.135.942.2Z" class="colorfdf1c1 svgShape"></path><path fill="#f5f800" d="M40.606 33.947c.44-.177.524-.745.189-1.268a1.271 1.271 0 0 0-1.4-.626c-.44.177-.524.745-.189 1.268A1.271 1.271 0 0 0 40.606 33.947zM36.394 36.053a.545.545 0 0 0-.126.1c.476.154.958.3 1.442.432A1.23 1.23 0 0 0 36.394 36.053zM37.8 30.679a1.271 1.271 0 0 0-1.4-.626c-.44.177-.524.745-.189 1.268a1.271 1.271 0 0 0 1.4.626C38.046 31.77 38.13 31.2 37.8 30.679zM37.443 33.027c-.22.088-.262.372-.095.634a.638.638 0 0 0 .7.313c.22-.089.262-.373.094-.634A.634.634 0 0 0 37.443 33.027zM35.143 35.34a.634.634 0 0 0-.7-.313.339.339 0 0 0-.183.406c.316.123.632.245.953.36A.506.506 0 0 0 35.143 35.34zM33.143 34.34a.634.634 0 0 0-.7-.313c-.209.084-.252.346-.111.6.246.112.49.228.739.334C33.267 34.857 33.3 34.59 33.143 34.34zM42.049 31.974c.22-.089.262-.373.094-.634a.634.634 0 0 0-.7-.313c-.22.088-.262.372-.095.634A.638.638 0 0 0 42.049 31.974zM40.049 30.974c.22-.089.262-.373.094-.634a.634.634 0 0 0-.7-.313c-.22.088-.262.372-.095.634A.638.638 0 0 0 40.049 30.974z" class="colorf8ef00 svgShape"></path><ellipse cx="19" cy="14.5" fill="#ff7c00" rx="4" ry="1.5" class="colorff7f00 svgShape"></ellipse><path fill="#470070" d="M30,0a11.246,11.246,0,0,0-8.644,3.38c-3,3.237-3.366,7.82-3.377,9.764C17.4,13.319,17,13.635,17,14c0,.552.895,1,2,1s2-.448,2-1c0-.373-.413-.694-1.018-.866.015-1.677.332-5.685,2.842-8.395A9.332,9.332,0,0,1,30,2a1,1,0,0,0,0-2Z" class="color3f7000 svgShape"></path><path fill="#1483c5" d="M20,8c-2.948,0-6-1.909-6-7C18,1,20,4.131,20,8Z" class="color63b300 svgShape"></path><path fill="#65009e" d="M19,14v1c1.105,0,2-.448,2-1,0-.373-.413-.694-1.018-.866.015-1.677.332-5.685,2.842-8.395A9.332,9.332,0,0,1,30,2a1,1,0,0,0,1-1H30C18,1,19,14,19,14Z" class="color589e00 svgShape"></path><path fill="#59008c" d="M17.275,13.5A.67.67,0,0,0,17,14c0,.552.895,1,2,1s2-.448,2-1a.67.67,0,0,0-.276-.5A2.748,2.748,0,0,1,19,14,2.74,2.74,0,0,1,17.275,13.5Z" class="color4e8c00 svgShape"></path><path fill="#1483c5" d="M21,5.994a7.246,7.246,0,0,0,10,0A7.269,7.269,0,0,0,21,5.994Z" class="color63b300 svgShape"></path><path fill="#c86608" d="M31 5.994a7.269 7.269 0 0 0-10 0L21.008 6h9.984zM14 1l6 7C20 4.131 18 1 14 1z" class="color8bc808 svgShape"></path><ellipse cx="27" cy="16" fill="#fdfdf6" rx="1.65" ry="2.297" transform="rotate(-45.02 27 16)" class="colorf6fafd svgShape"></ellipse><ellipse cx="30" cy="19" fill="#fdfdf6" rx=".825" ry="1.148" transform="rotate(-45.02 30 19)" class="colorf6fafd svgShape"></ellipse><ellipse cx="40" cy="34" fill="#fdfdf6" rx=".825" ry="1.148" transform="rotate(-45.02 40 34)" class="colorf6fafd svgShape"></ellipse><ellipse cx="23" cy="26" fill="#fdfdf6" rx=".825" ry="1.148" transform="rotate(-45.02 23 26)" class="colorf6fafd svgShape"></ellipse><ellipse cx="27.746" cy="19.5" fill="#fdfdf6" rx=".413" ry=".574" transform="rotate(-45.02 27.745 19.5)" class="colorf6fafd svgShape"></ellipse><ellipse cx="37.746" cy="32.5" fill="#fdfdf6" rx=".413" ry=".574" transform="rotate(-45.02 37.746 32.5)" class="colorf6fafd svgShape"></ellipse></g></svg>