<svg xmlns="http://www.w3.org/2000/svg" viewBox="0 0 256 256" id="PenAndPaper"><path fill="#ff2020" d="M203.967 233.02H64.216a4.033 4.033 0 0 1-4.033-4.033V47.013a4.033 4.033 0 0 1 4.033-4.033h139.751A4.033 4.033 0 0 1 208 47.013v181.974a4.032 4.032 0 0 1-4.033 4.033z" class="colorf2ad97 svgShape"></path><path fill="#fdff3d" d="M193.967 223.02H54.216a4.033 4.033 0 0 1-4.033-4.033V37.013a4.033 4.033 0 0 1 4.033-4.033h139.751A4.033 4.033 0 0 1 198 37.013v181.974a4.032 4.032 0 0 1-4.033 4.033z" class="colorffd2c0 svgShape"></path><path fill="#14c5af" d="M183.967 213.02H44.216a4.033 4.033 0 0 1-4.033-4.033V27.013a4.033 4.033 0 0 1 4.033-4.033h139.751A4.033 4.033 0 0 1 188 27.013v181.974a4.032 4.032 0 0 1-4.033 4.033z" class="colorf1f2f2 svgShape"></path><path fill="#592d72" d="M46.18 195.5a2 2 0 0 1-2-2V28.979c0-.529.22-1.04.59-1.41.37-.38.891-.59 1.41-.59h95.48c1.1 0 2 .9 2 2 0 1.101-.9 2-2 2H48.18V193.5c0 1.109-.89 2-2 2zM149.66 30.979c-1.101 0-2-.899-2-2 0-1.1.899-2 2-2 1.1 0 2 .9 2 2 0 1.101-.9 2-2 2z" class="colorffffff svgShape"></path><path fill="#1483c5" d="M97.93 56.541H62.451a2.938 2.938 0 1 1 0-5.876H97.93a2.938 2.938 0 1 1 0 5.876zm60.744 24.009H62.451a2.938 2.938 0 1 1 0-5.876h96.223a2.938 2.938 0 1 1 0 5.876zm0 17.15H62.451a2.938 2.938 0 1 1 0-5.876h96.223a2.938 2.938 0 1 1 0 5.876zm0 17.149H62.451a2.938 2.938 0 1 1 0-5.876h96.223a2.938 2.938 0 1 1 0 5.876zm0 17.151H62.451a2.938 2.938 0 1 1 0-5.876h96.223a2.938 2.938 0 1 1 0 5.876zm0 17.149H62.451a2.938 2.938 0 1 1 0-5.876h96.223a2.938 2.938 0 1 1 0 5.876zm0 17.15H62.451a2.938 2.938 0 1 1 0-5.876h96.223a2.938 2.938 0 1 1 0 5.876z" class="colord1d3d4 svgShape"></path><path fill="#e8e8e6" d="M183.967 22.98H178v176.007a4.033 4.033 0 0 1-4.033 4.033H40.183v5.967a4.033 4.033 0 0 0 4.033 4.033h139.751a4.033 4.033 0 0 0 4.033-4.033V27.013a4.032 4.032 0 0 0-4.033-4.033z" class="colore6e7e8 svgShape"></path><path fill="#1483c5" d="M183.967 22.98H183v181.007a4.033 4.033 0 0 1-4.033 4.033H40.183v.967a4.033 4.033 0 0 0 4.033 4.033h139.751a4.033 4.033 0 0 0 4.033-4.033V27.013a4.032 4.032 0 0 0-4.033-4.033z" class="colord1d3d4 svgShape"></path><path fill="#ff9a3a" d="m127.881 137.093 17.943 18.046a4.74 4.74 0 1 0 6.723-6.685l-17.943-18.047a4.74 4.74 0 0 0-6.704-.019 4.742 4.742 0 0 0-.019 6.705z" class="colorf79219 svgShape"></path><path fill="#ff8b1d" d="m116.331 149.827-3.951 18.261a1.995 1.995 0 0 0 2.362 2.375l18.283-3.846a3.99 3.99 0 0 0 2.498-1.69l8.046-12.054-13.434-13.511-12.1 7.977a3.99 3.99 0 0 0-1.704 2.488z" class="colorffc91d svgShape"></path><path fill="#ff9a3a" d="M131.384 151.553a3.892 3.892 0 0 0-5.502-.016 3.885 3.885 0 0 0-1.032 3.698l-12.345 12.275-.125.577a1.996 1.996 0 0 0 2.362 2.375l.578-.122 12.345-12.275a3.889 3.889 0 0 0 3.719-6.512zm92.727-92.104c4.778 4.805 4.756 12.574-.05 17.352l-71.834 71.331-17.302-17.402 71.834-71.332c4.805-4.777 12.574-4.754 17.352.051z" class="colorf79219 svgShape"></path><path fill="#ef8016" d="M224.111 59.449a12.239 12.239 0 0 0-2.898-2.159c2.508 4.658 1.792 10.591-2.151 14.511l-71.82 71.317 4.986 5.014 71.834-71.331c4.804-4.778 4.827-12.547.049-17.352z" class="coloref7816 svgShape"></path><path fill="#ff8b1d" d="m152.227 148.132 24.046-23.756-17.302-17.402-24.046 23.757z" class="colorffc91d svgShape"></path><path fill="#ff8a1a" d="m147.242 143.12 23.986-23.816 4.982 5.017-23.986 23.817z" class="colorffa91a svgShape"></path></svg>