<svg xmlns="http://www.w3.org/2000/svg" viewBox="0 0 512 512" id="Queen"><polygon fill="#ff2020" points="304.65 336.53 207.22 336.38 207.22 400.95 304.78 400.95 304.78 336.7 304.65 336.53" class="colorefc597 svgShape"></polygon><path fill="#14c5af" d="M337.07,98.12A36.49,36.49,0,0,1,300.6,62.96h-.01a50.793,50.793,0,0,1-89.17-.04l-.02.01a36.5,36.5,0,0,1-72.71,3.06v-.01a2.175,2.175,0,0,1-.26.01l15.39,77.62,204.19-.13,14.46-72.92A36.521,36.521,0,0,1,337.07,98.12Z" class="colorffd836 svgShape"></path><polygon fill="#fdff3d" points="153.82 143.61 158.74 168.45 353.26 167.45 358.01 143.48 153.82 143.61" class="colord8ff33 svgShape"></polygon><path fill="#592d72" d="M191.57 168.28v.09c-11.16 10.77-21.61 25.99-28.36 47.45l-2.36-47.07v-.31zM351.21 167.46v.29l-2.35 48.02c-18.61-1.97-29.63-10.54-35.78-17.85a73.682 73.682 0 0 0-25.56-19.76l-21.3-9.79v-.47zM348.85 257.09v44.56l2.35 34.17c1.37 19.75 4.42 37.37-4.44 53.18l-22.07-6.33-19.91-5.72V336.7l-.13-.17c24.22-18.24 40.53-48.74 41.52-79.41h1.55C348.1 257.12 348.48 257.11 348.85 257.09zM165.89 257.12c1 30.58 17.22 61 41.33 79.26v40.57L187.9 382.5l-20.56 5.9c-9.68-16.13-7.9-32.13-6.5-52.58l2.35-34.05V257.09c.36.02.72.03 1.09.03h1.61z" class="color6d7486 svgShape"></path><path fill="#1483c5" d="M207.22,336.38c-24.11-18.26-40.33-48.68-41.33-79.26h-1.61c-.37,0-.73-.01-1.09-.03a22.96,22.96,0,0,1-21.21-28.4c2.38-9.74,11.85-14.41,20.5-12.78h.73v-.09c6.75-21.46,17.2-36.68,28.36-47.45v-.09l74.65-.38v.47l21.3,9.79a73.682,73.682,0,0,1,25.56,19.76c6.15,7.31,17.17,15.88,35.78,17.85v.02h.66c8.65-1.63,18.12,3.16,20.5,12.9a22.962,22.962,0,0,1-21.17,28.4c-.37.02-.75.03-1.13.03h-1.55c-.99,30.67-17.3,61.17-41.52,79.41-14.03,10.58-30.71,17.04-48.62,17.04C238.04,353.57,221.28,347.05,207.22,336.38Z" class="colorffd8b7 svgShape"></path><path fill="#f4f4d4" d="M304.78 376.95l19.91 5.72A66.993 66.993 0 0 1 257.7 449.2h-2.8a67 67 0 0 1-67-66.7l19.32-5.55 5.01 4.87a62.721 62.721 0 0 0 87.54 0zM362.09 498.8V393.9l.13-.46 2.11.61a82.9 82.9 0 0 1 59.99 77.46l1 27.29z" class="colord4e1f4 svgShape"></path><path fill="#fdff3d" d="M167.34,388.4l20.56-5.9a67,67,0,0,0,67,66.7h2.8a66.993,66.993,0,0,0,66.99-66.53L346.76,389l15.46,4.44-.13.46V498.8H149.91V393.9l-.13-.46Z" class="colord8ff33 svgShape"></path><path fill="#f4f4d4" d="M149.91,393.9V498.8H86.68l1-27.29a82.883,82.883,0,0,1,59.99-77.46l2.11-.61Z" class="colord4e1f4 svgShape"></path><path fill="#ff9a3a" d="M138.69,65.99v-.01a2.175,2.175,0,0,1-.26.01l15.39,77.62,30-.019L174.8,98.117A36.5,36.5,0,0,1,138.69,65.99Z" class="coloredb740 svgShape"></path><polygon fill="#dfe147" points="183.82 143.61 183.816 143.591 153.82 143.61 158.74 168.45 188.709 168.296 183.82 143.61 183.82 143.61" class="color9be147 svgShape"></polygon><path fill="#d3d3c1" d="M149.78,393.44l-2.11.61a82.918,82.918,0,0,0-59.99,77.46l-1,27.29h30l1-27.29a82.767,82.767,0,0,1,32.23-63.4V393.9Z" class="colorc1c8d3 svgShape"></path><path fill="#ffffd7" d="M237.22,336.38c-24.11-18.26-40.33-49.68-41.33-80.26l-1.136-16.652a90.481,90.481,0,0,1,22.67-66.8q2.05-2.274,4.146-4.294v-.243l-30,.153v.09c-11.16,10.77-21.61,25.99-28.36,47.45v.09h-.73c-8.65-1.63-18.12,3.04-20.5,12.78a22.96,22.96,0,0,0,21.21,28.4c.36.02.72.03,1.09.03h1.61c1,30.58,17.22,61,41.33,79.26,14.06,10.67,30.82,17.19,48.81,17.19a74.68,74.68,0,0,0,15-1.542A83.89,83.89,0,0,1,237.22,336.38Z" class="colorffe8d7 svgShape"></path><path fill="#e8ea53" d="M367.35,65.274a30.5,30.5,0,0,1-60.666-1.067,56.423,56.423,0,0,0,6.12-25.595h-12a44.787,44.787,0,0,1-89.573,0h-12a56.426,56.426,0,0,0,6.089,25.535,30.5,30.5,0,0,1-60.67,1.129l-11.916,1.418a42.526,42.526,0,0,0,81.748,10.584,56.665,56.665,0,0,0,83.047.026,42.525,42.525,0,0,0,81.737-10.613Z" class="coloreadf53 svgShape"></path><path fill="#dfe147" d="M205.231 7.2a18.7 18.7 0 1 0 18.7 18.7A18.717 18.717 0 0 0 205.231 7.2zM306.8 7.2a18.7 18.7 0 1 0 18.7 18.7A18.718 18.718 0 0 0 306.8 7.2z" class="color9be147 svgShape"></path><path fill="#fbaf67" d="M138.435 34.592a18.7 18.7 0 1 0 18.7 18.7A18.718 18.718 0 0 0 138.435 34.592zM373.565 34.592a18.7 18.7 0 1 0 18.7 18.7A18.717 18.717 0 0 0 373.565 34.592z" class="colorfb6771 svgShape"></path><path fill="#fcfcf4" d="M172.842 438.926a6 6 0 0 1-6-6v-2.86a6 6 0 0 1 12 0v2.86A6 6 0 0 1 172.842 438.926zM172.842 487.792a6 6 0 0 1-6-6V450.28a6 6 0 0 1 12 0v31.512A6 6 0 0 1 172.842 487.792z" class="colorf4f8fc svgShape"></path></svg>