<svg xmlns="http://www.w3.org/2000/svg" enable-background="new 0 0 50 50" viewBox="0 0 50 50" id="Robot"><path fill="#ff2020" d="M43.1,34.2c0,0.4-0.1,0.7-0.3,1c-0.3-0.6-0.9-1.5-1.7-1.5c-0.7,0-1.3,0.9-1.7,1.5
							c-0.2-0.3-0.3-0.6-0.3-1c0-1.1,0.9-1.9,1.9-1.9C42.2,32.3,43.1,33.1,43.1,34.2z" class="colorc55410 svgShape"></path><path fill="#1483c5" d="M41.9,32l-1.7-0.1c0.2-5.5-1-7.9-2.1-9c-1-1-2.1-1-2.1-1l-0.1-1.7c0.1,0,1.8-0.1,3.4,1.5
							C41.3,23.6,42.2,27.1,41.9,32z" class="color2fa5c1 svgShape"></path><rect width="2.9" height=".8" x="39.7" y="31.9" fill="#ff9a3a" class="color2b92a3 svgShape"></rect><rect width="1.9" height="2.5" x="34.5" y="19.7" fill="#ff9a3a" class="color2b92a3 svgShape"></rect><path fill="#ff2020" d="M6.9,7.8c0-0.4,0.1-0.7,0.3-1c0.3,0.6,0.9,1.5,1.6,1.5c0.7,0,1.3-0.9,1.7-1.5c0.2,0.3,0.3,0.6,0.3,1
						c0,1.1-0.9,1.9-1.9,1.9S6.9,8.8,6.9,7.8z" class="colorc55410 svgShape"></path><path fill="#1483c5" d="M8,10l1.7,0.1c-0.3,5.5,1,7.9,2.1,9c1,1.1,2.1,1,2.1,1l0.1,1.7c-0.1,0-1.8,0.1-3.4-1.5
						C8.7,18.3,7.8,14.9,8,10z" class="color2fa5c1 svgShape"></path><rect width="2.9" height=".8" x="7.4" y="9.3" fill="#ff9a3a" transform="matrix(-1 -.00704 .00704 -1 17.69 19.45)" class="color2b92a3 svgShape"></rect><rect width="1.9" height="2.5" x="13.8" y="19.7" fill="#ff9a3a" transform="matrix(-1 .00704 -.00704 -1 29.657 41.817)" class="color2b92a3 svgShape"></rect><line x1="30.4" x2="30.4" y1="38.6" y2="38.6" fill="none"></line><rect width="3.6" height="8.9" x="28.6" y="36.3" fill="#216289" class="color217f89 svgShape"></rect><polygon fill="#ff2020" points="34.5 47.1 34.5 49 26.4 49 26.4 47.1 28.7 45.2 32.3 45.2" class="colorc55410 svgShape"></polygon><line x1="19.4" x2="19.4" y1="38.6" y2="38.6" fill="none"></line><rect width="3.6" height="8.9" x="17.6" y="36.3" fill="#216289" class="color217f89 svgShape"></rect><polygon fill="#ff2020" points="23.5 47.1 23.5 49 15.4 49 15.4 47.1 17.7 45.2 21.3 45.2" class="colorc55410 svgShape"></polygon><rect width="3.6" height="1.9" x="28.6" y="39.3" fill="#592d72" class="color29485c svgShape"></rect><rect width="3.6" height="1.9" x="17.6" y="39.3" fill="#592d72" class="color29485c svgShape"></rect><path fill="#592d72" d="M35.8 6.6H35v5.1h.8c.6 0 1.1-.5 1.1-1.1v-3C36.9 7.1 36.4 6.6 35.8 6.6zM14.1 6.6h.8v5.1h-.8c-.6 0-1.1-.5-1.1-1.1v-3C13.1 7.1 13.6 6.6 14.1 6.6z" class="color29485c svgShape"></path><path fill="#1483c5" d="M33.9,15.7H16c-0.6,0-1.1-0.5-1.1-1.1V3.7c0-0.6,0.5-1.1,1.1-1.1h18c0.6,0,1.1,0.5,1.1,1.1v10.9
					C35,15.2,34.5,15.7,33.9,15.7z" class="color2fa5c1 svgShape"></path><rect width="16.6" height="8.7" x="16.7" y="4.4" fill="#14c5af" class="color37b7cc svgShape"></rect><ellipse cx="29.5" cy="9.5" fill="#fdff3d" rx="2.4" ry="2.7" class="colorffffff svgShape"></ellipse><ellipse cx="29.5" cy="9.5" fill="#216289" rx="1.8" ry="2" class="color217f89 svgShape"></ellipse><ellipse cx="29.5" cy="9.5" fill="#343434" rx="1" ry="1.1" class="color343434 svgShape"></ellipse><ellipse cx="28.9" cy="8.8" fill="#fdff3d" rx=".5" ry=".4" class="colorffffff svgShape"></ellipse><ellipse cx="20.4" cy="9.5" fill="#fdff3d" rx="2.4" ry="2.7" class="colorffffff svgShape"></ellipse><ellipse cx="20.4" cy="9.5" fill="#216289" rx="1.8" ry="2" class="color217f89 svgShape"></ellipse><ellipse cx="20.4" cy="9.5" fill="#343434" rx="1" ry="1.1" class="color343434 svgShape"></ellipse><ellipse cx="19.8" cy="8.8" fill="#fdff3d" rx=".5" ry=".4" class="colorffffff svgShape"></ellipse><polygon fill="#592d72" points="29.7 2.6 20.2 2.6 21.2 1 28.7 1" class="color29485c svgShape"></polygon><rect width=".4" height="3.3" x="29.3" y="4" fill="#216289" transform="rotate(71.567 29.51 5.666)" class="color217f89 svgShape"></rect><rect width="3.3" height=".4" x="18.6" y="5.5" fill="#216289" transform="rotate(18.493 20.176 5.666)" class="color217f89 svgShape"></rect><path fill="#592d72" d="M24.9,14.9c-1.1,0-2.1-0.2-3.2-0.7c-0.1-0.1-0.2-0.2-0.1-0.3c0.1-0.1,0.2-0.2,0.3-0.1
					c1.9,0.9,4,0.9,6.1,0c0.1,0,0.2,0,0.3,0.1c0,0.1,0,0.2-0.1,0.3C27.1,14.7,26,14.9,24.9,14.9z" class="color29485c svgShape"></path><rect width="2.9" height="2.9" x="23.5" y="15.7" fill="#592d72" class="color29485c svgShape"></rect><path fill="#1483c5" d="M35.2,35.6c0,0.4-0.3,0.7-0.7,0.7H15.4c-0.4,0-0.7-0.3-0.7-0.7l0.4-10.7l0-1.1l0.2-4.5
					c0-0.4,0.3-0.7,0.7-0.7h18c0.4,0,0.7,0.3,0.7,0.7l0.2,4.5l0,1.1L35.2,35.6z" class="color2fa5c1 svgShape"></path><path fill="#ff2020" d="M30.5,22.3H19.4c-0.4,0-0.8-0.4-0.8-0.8l0,0c0-0.4,0.4-0.8,0.8-0.8h11.1c0.4,0,0.8,0.4,0.8,0.8l0,0
					C31.3,22,30.9,22.3,30.5,22.3z" class="colorc55410 svgShape"></path><polygon fill="#fdff3d" points="34.8 24.9 30.9 27.8 30.9 36.3 30.1 36.3 30.1 27.4 34.8 23.8" class="colorffffff svgShape"></polygon><polygon fill="#fdff3d" points="19.9 27.4 19.9 36.3 19 36.3 19 27.8 15.1 24.9 15.1 23.8" class="colorffffff svgShape"></polygon><circle cx="16.9" cy="34.5" r="1" fill="#592d72" class="color29485c svgShape"></circle><g fill="#000000" class="color000000 svgShape"><circle cx="33" cy="34.5" r="1" fill="#592d72" class="color29485c svgShape"></circle></g></svg>