<svg xmlns="http://www.w3.org/2000/svg" viewBox="0 0 48 48" id="Shirt"><path fill="#fdff3d" d="M24 9v35l-3 3H11v-3H3V14.67a10 10 0 0 1 6.15-9.23L15 3l4 10zm21 5.67V44h-8v3H27l-3-3V9l5 4 4-10 5.85 2.44A10 10 0 0 1 45 14.67z" class="color6fabe6 svgShape"></path><path fill="#14c5af" d="M45 14.67V44h-8v1H25l-1-1V9l5 4 4-10 5.85 2.44A10 10 0 0 1 45 14.67zM24 9v35l-1 1h-3a6 6 0 0 1-6-6V3.42L15 3l4 10z" class="color82bcf4 svgShape"></path><path fill="#fdff3d" d="M39 18v26h-2V18a1 1 0 0 1 2 0Z" class="color6fabe6 svgShape"></path><path fill="#1483c5" d="M11 18v26H9V18a1 1 0 0 1 2 0Z" class="color5b9ad8 svgShape"></path><path fill="#fdff3d" d="M45 39v2h-4a1 1 0 0 1 0-2Z" class="color6fabe6 svgShape"></path><path fill="#1483c5" d="M7 41H3v-2h4a1 1 0 0 1 0 2Z" class="color5b9ad8 svgShape"></path><path fill="#fdff3d" d="m33 3-4 10-5-4 7-8Z" class="color6fabe6 svgShape"></path><path fill="#1483c5" d="m25 9.8 3.55 2.84L28 14l-3-2.4V9.8z" opacity=".32" class="color5b9ad8 svgShape"></path><path fill="#1483c5" d="M25 7.86c-1.19 1.36-.86 1-1.41 1.47C31.62.12 32.3-.48 25 7.86Z" class="color5b9ad8 svgShape"></path><path fill="#fdff3d" d="m24 9-5 4-4-10 2-2Z" class="color6fabe6 svgShape"></path><path fill="#ff9a3a" d="m31 1-7 8-7-8h14z" class="color425b72 svgShape"></path><path fill="#592d72" d="m29 1-6 6.86L24 9l7-8h-2z" class="color374f68 svgShape"></path><path fill="#ff9a3a" d="M21 18a1 1 0 0 0-2 0 1 1 0 0 0 2 0zm0 6a1 1 0 0 0-2 0 1 1 0 0 0 2 0zm0 6a1 1 0 0 0-2 0 1 1 0 0 0 2 0zm0 6a1 1 0 0 0-2 0 1 1 0 0 0 2 0z" class="color425b72 svgShape"></path><path fill="#592d72" d="M31.5 24a2.5 2.5 0 0 1-2.5-2.5V18h5v3.5a2.5 2.5 0 0 1-2.5 2.5Z" class="color374f68 svgShape"></path><path fill="#ff9a3a" d="M32 18v3.5a2.51 2.51 0 0 1-1.5 2.29A2.5 2.5 0 0 0 34 21.5V18Z" class="color425b72 svgShape"></path><path fill="#1483c5" d="M25 9.8v1.8L23 10a4.52 4.52 0 0 1 1-1Z" class="color5b9ad8 svgShape"></path><path fill="#fdff3d" d="M23.59 9.33c-.74.84-.59.74-.59.47Z" class="color6fabe6 svgShape"></path><path fill="#fdff3d" d="M25 11.6V45l-1-1-1 1V10l2 1.6z" class="color6fabe6 svgShape"></path></svg>