<svg xmlns="http://www.w3.org/2000/svg" viewBox="0 0 64 64" id="Train"><path fill="#ff9a3a" d="M40 22h10v10H40zM59.743 53.503 56 55V31l3.743 1.497A2 2 0 0 1 61 34.354v17.292a2 2 0 0 1-1.257 1.857z" class="color373d43 svgShape"></path><circle cx="47" cy="55" r="5" fill="#ff9a3a" class="color373d43 svgShape"></circle><circle cx="33" cy="55" r="5" fill="#ff9a3a" class="color373d43 svgShape"></circle><circle cx="33" cy="55" r="2.5" fill="#ff2020" class="colorffffff svgShape"></circle><circle cx="47" cy="55" r="2.5" fill="#ff2020" class="colorffffff svgShape"></circle><circle cx="16" cy="52" r="8" fill="#ff9a3a" class="color373d43 svgShape"></circle><path fill="#592d72" d="M4 20h26v11h26v24h-4a5 5 0 0 0-10 0h-4a5 5 0 0 0-10 0h-4.587a8.016 8.016 0 0 0 .358-4.921c-.72-3.014-3.221-5.389-6.27-5.943C12.422 43.214 8 47.09 8 52a7.96 7.96 0 0 0 .587 3H5a1 1 0 0 1-1-1V20z" class="color454c54 svgShape"></path><circle cx="16" cy="52" r="4" fill="#ff2020" class="colorffffff svgShape"></circle><path fill="#592d72" d="M50 23H40a1 1 0 0 1-1-1v-4a1 1 0 0 1 1-1h10a1 1 0 0 1 1 1v4a1 1 0 0 1-1 1z" class="color454c54 svgShape"></path><path fill="#fdff3d" d="M33.001 56a.95.95 0 0 1-.175-.016l-17-3a1 1 0 0 1-.811-1.158.994.994 0 0 1 1.158-.811l17 3A1 1 0 0 1 33.001 56z" class="colorcccccc svgShape"></path><path fill="#14c5af" d="M45.04 45h-8.08A3.96 3.96 0 0 1 33 41.04v-.08A3.96 3.96 0 0 1 36.96 37h8.08A3.96 3.96 0 0 1 49 40.96v.08A3.96 3.96 0 0 1 45.04 45z" class="color676d73 svgShape"></path><path fill="#fdff3d" d="M2 60h60v2H2z" class="colorcccccc svgShape"></path><circle cx="44" cy="12" r="2" fill="#1483c5" class="colore6e6e6 svgShape"></circle><circle cx="37" cy="7" r="3" fill="#1483c5" class="colore6e6e6 svgShape"></circle><path fill="#ff2020" d="M23 39H11a1 1 0 0 1-1-1V26a1 1 0 0 1 1-1h12a1 1 0 0 1 1 1v12a1 1 0 0 1-1 1zM37.01 42h-.02a.99.99 0 0 1-.99-.99v-.02a.99.99 0 0 1 .99-.99h.02a.99.99 0 0 1 .99.99v.02a.99.99 0 0 1-.99.99zM41.01 42h-.02a.99.99 0 0 1-.99-.99v-.02a.99.99 0 0 1 .99-.99h.02a.99.99 0 0 1 .99.99v.02a.99.99 0 0 1-.99.99zM45.01 42h-.02a.99.99 0 0 1-.99-.99v-.02a.99.99 0 0 1 .99-.99h.02a.99.99 0 0 1 .99.99v.02a.99.99 0 0 1-.99.99z" class="colorffffff svgShape"></path><path fill="#ff9a3a" d="M30 21H4a1 1 0 0 1-1-1v-5a2 2 0 0 1 2-2h24a2 2 0 0 1 2 2v5a1 1 0 0 1-1 1z" class="color373d43 svgShape"></path></svg>