<svg xmlns="http://www.w3.org/2000/svg" enable-background="new 0 0 512 512" viewBox="0 0 512 512" id="Vacuum"><g fill="#592d72" class="color000000 svgShape"><path fill="#ff9a3a" d="M327.29,214.65l166.06,152.06c4.23,3.88,3.26,10.8-1.89,13.35l-59.14,29.33c-3.24,1.6-7.03,1.64-10.29,0.1
		l-174.02-82.03" class="colore4e8eb svgShape"></path></g><g fill="#592d72" class="color000000 svgShape"><path fill="#fdff3d" d="M493.35,366.71l-35.1-32.14l-17,41.69c-1.25,3.08-0.54,6.61,1.81,8.95l12.63,12.58l35.76-17.74
		C496.6,377.5,497.58,370.58,493.35,366.71z" class="colorcad0d7 svgShape"></path></g><g fill="#592d72" class="color000000 svgShape"><path fill="#fdff3d" d="M327.29,214.65l-39.2,55.78l78.61,57.16c3.21,2.33,7.51,2.5,10.89,0.41l43.91-27.08l0,0L327.29,214.65z" class="colorcad0d7 svgShape"></path></g><g fill="#592d72" class="color000000 svgShape"><polyline fill="#ff2020" points="483.77 383.45 433.78 349.67 405.93 378.94 442.67 403.83" class="colorac92ea svgShape"></polyline></g><g fill="#592d72" class="color000000 svgShape"><path fill="#79b6da" d="M448.13,359.37l-6.89,16.88c-1.25,3.08-0.54,6.61,1.81,8.95l12.35,12.31l28.35-14.06L448.13,359.37z" class="color9579da svgShape"></path></g><g fill="#592d72" class="color000000 svgShape"><polyline fill="#ff2020" points="310.7 238.03 359.31 294.39 334.61 328.58 264.19 302.08" class="colorac92ea svgShape"></polyline></g><g fill="#592d72" class="color000000 svgShape"><polygon fill="#79b6da" points="287.49 269.99 346.13 312.63 359.31 294.39 310.7 238.03" class="color9579da svgShape"></polygon></g><path fill="#14c5af" d="M291.04,181.45c-29.65-27.15-66.05-45.84-105.4-54.1L66.35,102.29C40.4,96.84,16,116.65,16,143.17v0
	c0,12.56,5.65,24.46,15.4,32.39l55.01,44.79c7.24,5.89,13.19,13.21,17.5,21.49l12.2,23.46l131.9,62.17l79.28-112.81L291.04,181.45z
	 M191.58,185.65l-32.74,34.58c-4.41,4.66-11.67,5.12-16.64,1.06l-75.34-61.68c-1.77-1.45-2.89-3.55-3.11-5.83l-1.7-17.85l-6.24-1.52
	l6.24,1.52l0,0l123.72,30.05C194.61,168.13,197.83,179.04,191.58,185.65z" class="color51a6c0 svgShape"></path><g fill="#592d72" class="color000000 svgShape"><path fill="#1483c5" d="M109.27,252.13L109.27,252.13l6.84,13.16l73.14,34.48c8.63-12.21,19.22-26.94,19.22-26.94l-72.83-32.14
		c-2.63-1.16-5.66-0.97-8.13,0.51L109.27,252.13z" class="color3a8fa3 svgShape"></path></g><g fill="#592d72" class="color000000 svgShape"><path fill="#1483c5" d="M279.72,171.75l-16.35,24.94l14.78,19.46c2.36,3.1,2.65,7.31,0.74,10.71l-10.44,18.59
		c-2.43,4.33-1.24,9.79,2.78,12.71l16.86,12.26l39.2-55.78l-36.25-33.2C287.37,178.09,283.59,174.85,279.72,171.75z" class="color3a8fa3 svgShape"></path></g><g fill="#592d72" class="color000000 svgShape"><path fill="#ffffff" d="M55.81,134.42l129.96,31.57c8.84,2.15,12.07,13.05,5.81,19.66l-32.74,34.58c-4.41,4.66-11.67,5.12-16.64,1.06
		l-75.34-61.68c-1.77-1.45-2.89-3.55-3.11-5.83l-1.7-17.85" class="colorffffff svgShape"></path></g><g fill="#592d72" class="color000000 svgShape"><path d="M497.33,362.51c-51.5-50.09-110.03-105.98-162.34-155.22c-11.09-10.41-27.61-26.07-38.66-36.22
		c-28.2-25.81-62.94-44.38-100-53.75c-28.3-6.51-71.63-15.39-100.49-21.58c-5.47-1.05-28.94-6.41-33.97-6.62
		c-20.05-1.74-40.33,8.93-50.44,26.28c-13.65,22.32-8.1,52.93,12.38,69.1c10.17,8.23,46.2,36.58,56.75,45.04
		c5.74,4.7,10.57,10.53,14.15,17.1l12.57,23.24c0.96,1.9,2.51,3.47,4.58,4.41c0,0,38.54,17.39,38.54,17.39
		c85.1,38.22,184.86,82.36,270.58,120.02c4.1,2.13,9.29,2.07,13.44-0.09l1.51-0.67c0,0,12.06-5.4,12.06-5.4
		c13.77-6.06,28.35-12.91,42.14-19.07l3.01-1.37c0,0,0.38-0.17,0.38-0.17C502.41,381.09,504.27,369.02,497.33,362.51z
		 M412.13,303.76l-35.85,22.11c-2.53,1.56-5.71,1.44-8.11-0.31l-10.47-7.61c1.84-2.57,3.65-5.17,5.42-7.79
		c2.21-3.24,4.34-6.57,6.46-9.88c2.69-4.2,2.28-9.84-1.31-13.62c-4.28-4.5-8.6-8.96-13.05-13.32
		c-11.45-11.23-23.19-22.11-35.93-31.88c2.34-4.79,4.42-9.53,6.2-14.18C354.01,252.62,383.14,278.35,412.13,303.76z M330.75,312.78
		c-0.38,0.55-0.75,1.11-1.12,1.67c-2.92-0.91-5.86-1.79-8.8-2.64c-14.24-4.05-28.56-7.74-43.17-10.2
		c6.42-6.88,12.63-14.41,18.44-22.27l38.48,27.98C333.29,309.13,332.01,310.95,330.75,312.78z M314.69,250.37
		c1.13,1.95,2.28,3.89,3.45,5.82c0.3,0.49,0.61,0.98,0.92,1.47l-18.64,18.64l-1.39-1.01C304.79,267.18,310.09,258.77,314.69,250.37z
		 M323.5,293.08l11.48-11.48c1.29,1.81,2.6,3.62,3.91,5.42l-9.99,10L323.5,293.08z M319.41,290.11l-5.4-3.93l14.26-14.26
		c1.25,1.85,2.52,3.7,3.8,5.53L319.41,290.11z M309.91,283.2l-5.4-3.93l17.26-17.26c1.21,1.9,2.43,3.79,3.66,5.66L309.91,283.2z
		 M333,299.99l8.9-8.9c0.79,1.06,1.6,2.12,2.4,3.17c-2.31,2.97-4.56,5.98-6.78,9.01L333,299.99z M316.77,219.53
		c-1.82,1.48-3.6,3-5.37,4.55c-12.23,10.92-22.97,23.36-32.6,36.5l-6.09-4.43c-2.99-2.17-3.88-6.24-2.07-9.46l10.44-18.59
		c2.4-4.27,2.03-9.55-0.93-13.45l-2.64-3.47c-0.83-1.1-2.4-1.31-3.5-0.48c-1.1,0.83-1.31,2.4-0.48,3.5l2.64,3.47
		c1.76,2.31,1.97,5.44,0.55,7.98l-10.44,18.59c-3.05,5.43-1.55,12.29,3.49,15.95l6.11,4.45c-9.25,13.14-17.52,27.07-23.92,41.92
		c-1.74,4.13-3.39,8.27-4.74,12.55c-16.92-8.43-33.34-16.59-48.86-24.28c31.17-25.82,64.3-71.17,80.08-109.37
		c0.96,0.81,1.92,1.62,2.87,2.45C292.97,198.32,304.81,208.89,316.77,219.53z M123.5,257.84c-2.21-4.42-10.37-20.77-10.37-20.77
		c-5.05-10.12-12.41-19.12-21.24-26.27c-1.75-1.51-5.72-4.76-7.59-6.36c-6.72-5.66-23.36-19.47-30.4-25.41l-10.15-8.45l-5.04-4.19
		c-1.2-1.04-2.33-2.15-3.37-3.34c-13.22-15.26-7.58-39.32,11.05-46.95c4.99-2.11,10.54-2.74,15.88-1.88c0.8,0.16,1.4,0.24,2.61,0.51
		c0,0,25.85,5.45,25.85,5.45c17.26,3.62,60.76,12.64,77.59,16.1c6.13,1.3,16.17,3.2,22.19,4.69c9.09,2.26,18.07,5.03,26.82,8.37
		c18.68,7.21,36.33,17.04,52.32,29.11c-2.1,1.82-4.17,3.68-6.21,5.58c-14.22,13.43-26.81,28.44-38.2,44.22
		c-11.36,15.8-21.62,32.49-29.87,50.23c-1.84,4.06-3.62,8.13-5.18,12.3C171.25,281.38,141.24,266.53,123.5,257.84z M444.88,399.23
		l-1.99,1.09c-1.98-2.62-4.07-5.06-6.19-7.46c-4.43-4.93-9.13-9.61-14-14.08c4.51-4.26,8.9-8.65,13.15-13.18
		c0.09-0.09,0.17-0.19,0.26-0.28c12.27,7.05,25.03,13.34,38.49,17.8C464.67,388.48,454.52,394,444.88,399.23z M489.39,375.12
		c-0.09,0.05-0.17,0.11-0.25,0.18c-0.01,0.01-0.05,0.04-0.12,0.07l-0.18,0.1l-0.36,0.2c0,0-2.91,1.57-2.91,1.57
		c-0.85,0.46-1.72,0.92-2.58,1.39c-2.54-3.23-5.22-6.23-7.96-9.16c-10.46-11.1-22.16-20.98-34.38-29.94
		c-4.8-3.57-11.68-2.84-15.76,1.71c-4.82,4.7-9.49,9.56-14.01,14.55c-5.28,5.98-10.69,11.98-15.31,18.52
		c-2.73,4.98-0.9,11.22,4.07,13.95c9.81,5.38,20.04,10.25,30.63,14.14c1.81,0.65,3.62,1.28,5.46,1.87l-2.45,1.34
		c0,0-1.45,0.79-1.45,0.79c-2.59,1.66-5.87,2.15-8.78,0.94c-51-25.78-112.16-56.46-168.55-84.56c5.29-3.97,10.62-8.59,15.87-13.7
		c8.37,5.36,17.04,10.13,25.85,14.72c11.19,5.79,22.59,11.1,34.17,16.02c4.5,1.91,9.91,0.73,13.15-3.26
		c2.48-3.03,4.89-6.13,7.27-9.23c1.33-1.75,2.64-3.52,3.94-5.29l10.46,7.61c2.16,1.57,4.69,2.36,7.22,2.36
		c2.23,0,4.46-0.61,6.45-1.84l37.16-22.92c24.76,21.69,49.39,43.11,73.39,63.78C490.79,371.98,490.66,374.13,489.39,375.12z" fill="#592d72" class="color000000 svgShape"></path><path d="M175.52 220.59c5.95-6.18 18.56-19.35 24.24-25.52.96-1.01 1.89-2.09 2.74-3.19 9.42-12.52 3.83-31.26-10.78-36.69-1.35-.46-2.75-.9-4.15-1.18-11.13-2.43-23.25-4.92-34.48-7.17-31.99-6.14-64.23-11.8-96.71-14.8-2.81-.23-3.67 3.68-1.15 4.73 1.43.59 2.86 1.17 4.29 1.74-.15 2.86-.26 5.71-.37 8.57-.01 1.38-.2 5.81-.19 7.16.08 3.44 1.52 6.8 3.96 9.27 0 0 2.08 2.08 2.08 2.08 16.47 16.61 33.89 32.88 51.27 48.5 5.94 5.18 13.12 11.83 19.14 16.8 8.09 6.52 20.31 6.81 28.74.72C167.03 229.69 172.97 223.06 175.52 220.59zM182.92 177.74c0 .03 0 .03.02.01-.04.04-.17 0-.25-.04-.06-.05-.11-.07-.14-.09l.31.08C182.98 177.74 182.89 177.73 182.92 177.74zM121.31 190.85c-16.29-11.97-33.16-23.85-50.09-34.98-.24-.14-.72-.51-.97-.61-.8-.35-1.44-1.09-1.73-1.93-.04-.27-.31-1.36-.36-1.66-.74-3.45-1.57-7.14-2.43-10.73 3.29 1.25 6.58 2.47 9.88 3.67 27.14 9.85 54.98 18.47 82.76 26.35 7.9 2.28 15.86 4.38 23.79 6.55-2.01 2.12-8.09 8.43-9.81 10.25-5.17 5.52-17.89 19.1-22.65 24.43C140.87 205.49 130.34 197.45 121.31 190.85zM198.73 254.32c.7-1.19.31-2.72-.88-3.42-1.19-.7-2.72-.31-3.42.88l-12.53 21.17c-.7 1.19-.31 2.72.88 3.42.4.24.84.35 1.27.35.85 0 1.69-.44 2.15-1.23L198.73 254.32zM185.86 246.3c-1.19-.7-2.72-.31-3.42.88l-12.53 21.17c-.7 1.19-.31 2.72.88 3.42.4.24.84.35 1.27.35.85 0 1.69-.44 2.15-1.23l12.53-21.17C187.44 248.54 187.05 247 185.86 246.3zM173.71 242.25c-1.19-.7-2.72-.31-3.42.88l-12.53 21.17c-.7 1.19-.31 2.72.88 3.42.4.24.84.35 1.27.35.85 0 1.69-.44 2.15-1.23l12.53-21.17C175.29 244.49 174.9 242.96 173.71 242.25z" fill="#592d72" class="color000000 svgShape"></path></g><g fill="#592d72" class="color000000 svgShape"><path fill="#ffffff" d="M260.82,274.51c-5.44,11.29-12.7,21.54-20.49,31.31c0,0-1.26,1.56-1.26,1.56c-4.77-2.83-9.51-5.78-13.88-9.22
		c0,0,0.44-0.86,0.44-0.86c1.21,0.34,2.39,0.75,3.58,1.15c3.5,1.25,6.97,2.65,10.36,4.16l-2.77,0.66
		c5.06-7.88,10.58-15.44,16.74-22.5c2.06-2.36,4.19-4.66,6.5-6.84L260.82,274.51L260.82,274.51z" class="colorffffff svgShape"></path></g><g fill="#592d72" class="color000000 svgShape"><path fill="#ffffff" d="M334.19,353.1c-3.17,1.36-6.49-0.43-7.12-3.82c0,0,0.46-0.85,0.46-0.85c3.17-1.35,6.5,0.42,7.13,3.81
		C334.65,352.24,334.19,353.1,334.19,353.1L334.19,353.1z" class="colorffffff svgShape"></path></g><g fill="#592d72" class="color000000 svgShape"><path fill="#ffffff" d="M382.33,378.87c-12.16-3.92-23.44-9.89-34.28-16.56c-3.57-2.28-7.1-4.64-10.43-7.38l0.46-0.85
		c12.16,3.93,23.45,9.88,34.28,16.55c3.58,2.28,7.1,4.64,10.43,7.38L382.33,378.87L382.33,378.87z" class="colorffffff svgShape"></path></g></svg>