<svg xmlns="http://www.w3.org/2000/svg" enable-background="new 0 0 496 471.461" viewBox="0 0 496 471.461" id="Wagon"><path fill="#592d72" d="M454.152,292.111c-33.85,1.938-59.861,17.333-81.81,39.7c2.7,30.5,21.35,54.12,43.95,54.12
		c24.46,0,44.29-27.66,44.29-61.77C460.582,312.421,458.232,301.451,454.152,292.111z" class="color655f68 svgShape"></path><rect width="8.001" height="85.202" x="148.506" y="361.781" fill="#fdff3d" transform="rotate(-72.645 152.514 404.378)" class="coloraba49a svgShape"></rect><path fill="#592d72" d="M275.512,376.501l-84.7,11c-2.05,6.89-3.18,14.37-3.18,22.2c0,1.93,0.07,3.84,0.21,5.72
		c2.22,31.43,22.62,56.04,47.46,56.04c26.33,0,47.67-27.65,47.67-61.76C282.972,397.481,280.232,386.081,275.512,376.501z" class="color655f68 svgShape"></path><path fill="#14c5af" d="M27.372,265.471l-23.65-18.74l7.63,54.21c0.09-0.22,0.18-0.43,0.28-0.64
		C28.638,308.64,35.424,299.641,27.372,265.471z" class="colord14b62 svgShape"></path><path fill="#14c5af" d="M63.082,276.561c-48.531,15.631-28.651,77.352,19.88,61.72l43.49,28.59h0.01l64.35,20.62v0.01
		l21.79,6.98c2.05,0.65,4.14,1.13,6.24,1.43c7.23,1.04,14.64-0.02,21.36-3.12l15.72-7.25l19.59-9.04l96.83-44.69l27.25-12.57
		l36.93-17.04l7.94-3.67c3.59-1.65,6.85-3.83,9.69-6.42c6.74-6.14,11.16-14.6,12.21-23.92l4.68-41.59L63.082,276.561z" class="colord14b62 svgShape"></path><path fill="#1483c5" d="M192.912,27.311l-59.42,2.22l-33.08,1.24l8.2-18.15c2.45-5.42,7.77-9,13.72-9.22l90.53-3.39
		c11.65-0.43,19.69,11.53,14.89,22.15l-1.76,3.91h-0.01L192.912,27.311z" class="colorcdc7b9 svgShape"></path><path fill="#ff9a3a" d="M461.052,149.191l-6.82-0.94c-211.231-11.548-342.502,18.2-377.34,97.75l-13.81,30.56l145.23,45.1
		c12.41,3.86,25.77,3.24,37.77-1.74l224.96-93.32C509.132,210.801,501.902,154.801,461.052,149.191z" class="colore15c63 svgShape"></path><path fill="#14c5af" d="M454.232,148.251c-0.01,0-0.01,0-0.02,0l-174.23-23.93c-12.73-1.75-25.7-0.64-37.95,3.24
		l-130.27,41.29c-32.369,13.632-40.238,30.435-22.83,50.51l370.56-29.84C479.822,181.131,476.002,151.261,454.232,148.251z" class="colord14b62 svgShape"></path><path fill="#b72e2e" d="M459.492,189.521l-68.98,28.46l-105.34-20.76c-6.99-1.38-14.1-1.77-21.14-1.19v-36.12
		c6.47-0.6,13-0.37,19.46,0.69L459.492,189.521z" class="colorb72e4f svgShape"></path><path fill="#1483c5" d="M436.522,302.201c2.76,6.05,4.4,13.68,4.4,21.96c0,19.72-9.3,35.7-20.77,35.7
		c-11.46,0-20.76-15.98-20.76-35.7c0-1.67,0.07-3.31,0.2-4.92L436.522,302.201z" class="colorcdc7b9 svgShape"></path><path fill="#ad1f1f" d="M390.512,217.981l-145.81,60.15c-11.16,4.6-23.51,5.44-35.19,2.4l-107.24-27.92l141.54-52.12
		c6.54-2.41,13.35-3.9,20.22-4.46c7.04-0.58,14.15-0.19,21.14,1.19L390.512,217.981z" class="colorad1f48 svgShape"></path><path fill="#ff2020" d="M264.032,159.911v36.12c-6.87,0.56-13.68,2.05-20.22,4.46l-141.54,52.12l-25.38-6.61
		c-10.947-13.186-8.449-22.502,12.04-26.64l156.52-55.38C251.482,161.851,257.722,160.481,264.032,159.911z" class="colorc43b58 svgShape"></path><path fill="#1483c5" d="M255.922,385.541c3.66,6.35,5.89,14.84,5.89,24.16c0,19.71-10,35.69-22.35,35.69
		c-12.34,0-22.35-15.98-22.35-35.69c0-4.89,0.62-9.55,1.73-13.79c7.23,1.04,14.64-0.02,21.36-3.12L255.922,385.541z" class="colorcdc7b9 svgShape"></path><path fill="#592d72" d="M79.762,381.471l-36.81-5.69h-0.01c-7.723-4.043-10.879-0.559-10.95,7.17v0.01
		c-1.69,4.77-2.61,9.95-2.61,15.37c0,23.74,17.76,42.98,39.66,42.98c20.41,0,37.21-16.69,39.41-38.15L79.762,381.471z" class="color655f68 svgShape"></path><path fill="#bcb4ad" d="M77.762,356.931h-0.01c-2.877-15.112-24.601-19.968-38.83,4.29
		c-6.416,8.027-4.995,12.849,4.03,14.56c4.46,10.18,11.72,16.8,19.91,16.8c6.55,0,12.5-4.22,16.9-11.11L77.762,356.931z" class="colorbcb9ad svgShape"></path><path fill="#14c5af" d="M64.232,183.911c14.17,29.73,6.247,47.267-23.77,52.61l-0.01,0l-0.01-0.01
		c-40.101,1.926-37.9-33.087-1.18-44.69l0.01,0L64.232,183.911z" class="colord14b62 svgShape"></path><path fill="#1483c5" d="M38.922,361.221l-29.44-34.14c-4.3,6-6.94,14.19-6.94,23.22c0,18.4,11,33.32,24.57,33.32
		c1.67,0,3.3-0.23,4.88-0.67c4.12-1.11,7.86-3.64,10.95-7.17h0.01C41.062,371.491,39.672,366.561,38.922,361.221z" class="colorcdc7b9 svgShape"></path><path fill="#ff9a3a" d="M40.452,236.521c4.312,15.81,1.349,26.452-13.08,28.95l-2.13-0.67
		c-10.36-3.22-17.54-9.97-21.52-18.07c-8.91-18.14-1.83-43.07,21.32-50.4l14.22-4.51c-22.23,7.06-21.41,38.81,1.18,44.69
		L40.452,236.521z" class="colore15c63 svgShape"></path><path fill="#592d72" d="M11.352,300.941c0.09-0.22,0.18-0.43,0.28-0.64l15.74-34.83l13.08-28.95h0.01l23.77-52.61
		l39.31-86.99c2.69-5.95,2.54-12.8-0.41-18.63l-8.11-16.03c-2.96-5.83-3.11-12.68-0.42-18.64l5.81-12.85l33.08-1.24l-8.47,18.73
		c-2.33,5.15-2.02,11.11,0.82,16l7.07,12.17l35.49-10.01c4.97-1.41,9.06-4.93,11.19-9.64l13.32-29.47l33.07-1.24l-19.69,43.58
		c-4.46,9.87-12.96,17.34-23.32,20.51l-32.02,9.78c-5.93,1.81-10.8,6.09-13.36,11.75l-25.83,57.16l-22.83,50.51l-12.04,26.64
		l-13.81,30.56l-5.65,12.51c-6.15,13.62-5.4,29.34,2.1,39.65s23.43,9.56,23.43,9.56c-2.62,5.27-4.46,11.65-5.2,18.65h-0.01
		c0,0-19.11,8.87-38.83,4.29c-2.01-0.47-4.02-1.07-6.02-1.84c-12.81-4.92-20.75-18.39-23.42-32.3
		C7.692,317.751,8.272,308.211,11.352,300.941z" class="color655f68 svgShape"></path><path fill="#1483c5" d="M118.642,393.791c-2.85,4.37-6.33,7.63-10.19,9.37c-2.07,0.94-4.25,1.44-6.5,1.44
		c-9.79,0-18.24-9.45-22.19-23.13c-1.53-5.28-2.38-11.2-2.38-17.44c0-2.42,0.13-4.79,0.38-7.1c0.74-7,2.58-13.38,5.2-18.65
		c4.51-9.05,11.34-14.82,18.99-14.82c13.57,0,24.57,18.16,24.57,40.57c0,0.95-0.02,1.9-0.07,2.84
		C126.022,377.491,123.102,386.981,118.642,393.791z" class="colorcdc7b9 svgShape"></path></svg>