<svg xmlns="http://www.w3.org/2000/svg" enable-background="new 0 0 60 60" viewBox="0 0 60 60" id="XylophoneToy"><g fill="#14c5af" class="color000000 svgShape"><path fill="#592d72" d="M33.2514496 50.6875877c0 .6699829-1.6099873 1.2099609-3.6000385 1.2099609-1.9899902 0-3.5999756-.539978-3.5999756-1.2099609 0-.6600342 1.6099854-1.2000122 3.5999756-1.2000122C31.6414623 49.4875755 33.2514496 50.0275536 33.2514496 50.6875877zM54.8041458 50.6875877c0 .6699829-1.6099854 1.2099609-3.6000366 1.2099609-1.9899902 0-3.5999756-.539978-3.5999756-1.2099609 0-.6600342 1.6099854-1.2000122 3.5999756-1.2000122C53.1941605 49.4875755 54.8041458 50.0275536 54.8041458 50.6875877z" class="color181e1e svgShape"></path><path fill="#ff9a3a" d="M48.1405182 9.4475145l3.0102348 40.0456123c.0941582 1.2525673-.7756882 2.280899-1.9440498 2.280899h-.0000038c-1.1683617 0-2.1688347-1.0283318-2.2337914-2.280899L44.8961792 9.4475145c-.0386925-.7460871.649498-1.3450642 1.5367355-1.3450642h.0000038C47.3201599 8.1024504 48.0844345 8.7014275 48.1405182 9.4475145zM31.4960251 9.4475145l-1.7789726 40.0456123c-.0556431 1.2525673-1.0484715 2.280899-2.2168331 2.280899h-.0000038c-1.1683617 0-2.0458546-1.0283318-1.9610119-2.280899l2.7124825-40.0456123c.0505371-.7460871.810358-1.3450642 1.6975975-1.3450642h.0000038C30.8365269 8.1024504 31.5291672 8.7014275 31.4960251 9.4475145z" class="colorffb63c svgShape"></path><path fill="#ff2020" d="M52.7441864,35.8967171l0.5079041,5.583725
										c0.0682449,0.7502594-0.4685974,1.3633041-1.1996193,1.3633041H23.3049088
										c-0.73102,0-1.2678642-0.6130447-1.1996193-1.3633041l0.507906-5.583725
										c0.0633202-0.6961174,0.6786995-1.2561493,1.3749714-1.2561493h27.3810463
										C52.0654831,34.6405678,52.6808662,35.2005997,52.7441864,35.8967171z" class="colorff4c2b svgShape"></path><path fill="#fdff3d" d="M51.7140465,24.571743l0.4398079,4.835083
										c0.0589409,0.6479721-0.4434357,1.1771431-1.1225204,1.1771431h-26.705286
										c-0.6790867,0-1.1814613-0.529171-1.1225204-1.1771431l0.4398079-4.835083
										c0.0549736-0.6043472,0.6253395-1.0908051,1.2743359-1.0908051h25.5220375
										C51.088707,23.480938,51.6590729,23.9673958,51.7140465,24.571743z" class="colorcce949 svgShape"></path><path fill="#1483c5" d="M50.8157654,14.696394l0.3845406,4.2275066
										c0.0514183,0.5652637-0.4206047,1.0266628-1.0546494,1.0266628H25.2117233
										c-0.6340427,0-1.1060677-0.4613991-1.0546494-1.0266628l0.3845425-4.2275066
										c0.048172-0.5295982,0.5796337-0.9560804,1.1873703-0.9560804h23.8994083
										C50.2361298,13.7403135,50.7675934,14.1667957,50.8157654,14.696394z" class="color4c93fb svgShape"></path><path fill="#ffffff" d="M49.2182922 16.7830315c.0570221.6947994-.537674 1.2670269-1.3300972 1.2670269-.7924042 0-1.4696617-.5722275-1.5086288-1.2670269-.0384712-.6860714.5612793-1.2353249 1.3357353-1.2353249C48.4897804 15.5477066 49.1619835 16.0969601 49.2182922 16.7830315zM28.7685986 16.7830315c.0570221.6947994-.537672 1.2670269-1.3300972 1.2670269-.7924042 0-1.4696617-.5722275-1.508625-1.2670269-.038475-.6860714.5612774-1.2353249 1.3357353-1.2353249C28.0400887 15.5477066 28.7122917 16.0969601 28.7685986 16.7830315z" class="colorffffff svgShape"></path><g fill="#14c5af" class="color000000 svgShape"><polygon fill="#592d72" points="49.73 30.587 49.767 31.092 45.995 30.587" class="color181e1e svgShape"></polygon><polygon fill="#592d72" points="50.666 42.844 50.707 43.393 46.608 42.844" class="color181e1e svgShape"></polygon><polygon fill="#592d72" points="48.933 19.951 48.968 20.456 45.401 19.951" class="color181e1e svgShape"></polygon></g><g fill="#14c5af" class="color000000 svgShape"><polygon fill="#592d72" points="26.816 30.587 26.778 31.092 30.551 30.587" class="color181e1e svgShape"></polygon><polygon fill="#592d72" points="25.988 42.844 25.947 43.393 30.046 42.844" class="color181e1e svgShape"></polygon><polygon fill="#592d72" points="27.539 19.951 27.503 20.456 31.071 19.951" class="color181e1e svgShape"></polygon></g><g fill="#14c5af" class="color000000 svgShape"><path fill="#ffffff" d="M49.4666328,40.1571083c-1.3129654,0-2.128994-1.6531296-1.2615356-2.5699501
						c0.835083-0.881958,2.4539833-0.2217522,2.5638351,1.1127625
						C50.8356514,39.5046425,50.2651978,40.1571083,49.4666328,40.1571083z" class="colorffffff svgShape"></path></g><g fill="#14c5af" class="color000000 svgShape"><path fill="#ffffff" d="M25.8958416,40.1571083c-0.7937832,0-1.3736973-0.6470528-1.307394-1.4571877
						c0.0687828-0.8355904,0.7922821-1.5142555,1.6136074-1.5142555c0.7666855,0,1.3500748,0.6091766,1.3058643,1.413372
						C27.4600258,39.4437981,26.7222614,40.1571083,25.8958416,40.1571083z" class="colorffffff svgShape"></path></g><g fill="#14c5af" class="color000000 svgShape"><path fill="#ffffff" d="M48.638176,28.1643429c-1.1489906,0-1.8726006-1.2699528-1.168808-2.0105133
						c0.7311249-0.7745228,2.2496071-0.2440281,2.3401642,0.8559704
						C49.8604317,27.6314125,49.369442,28.1643429,48.638176,28.1643429z" class="colorffffff svgShape"></path></g><g fill="#14c5af" class="color000000 svgShape"><path fill="#592d72" d="M40.0113983,28.4461327c-0.1026802-0.0010681-6.1978951-0.0645447-6.0952148-0.0634766
					c-0.1381836-0.0019531-0.2490234-0.1142578-0.2475586-0.2529297c0.0014648-0.1367188,0.1132813-0.2470703,0.25-0.2470703
					c0.1026764,0.00107,6.1978912,0.0645466,6.0952148,0.0634766c0.1381836,0.0019531,0.2490234,0.1142578,0.2475586,0.2529297
					C40.2599335,28.3357811,40.1481171,28.4461327,40.0113983,28.4461327z" class="color181e1e svgShape"></path></g><g fill="#14c5af" class="color000000 svgShape"><path fill="#592d72" d="M31.0426464,36.2215233c-0.8411007-0.0087242-3.2568722-0.0337753-3.1074219-0.0322266
					c-0.1381836-0.0009766-0.2490234-0.1142578-0.2475586-0.2529297c0.0014648-0.1367188,0.1132813-0.2470703,0.25-0.2470703
					c0.8411007,0.0087242,3.2568722,0.0337753,3.1074219,0.0322266c0.1381836,0.0009766,0.2490234,0.1142578,0.2475586,0.2529297
					C31.2911816,36.1111717,31.1793652,36.2215233,31.0426464,36.2215233z" class="color181e1e svgShape"></path></g><g fill="#14c5af" class="color000000 svgShape"><path fill="#592d72" d="M44.8946991,15.2869539c-0.0009766,0-0.0019531,0-0.0024414,0l-3.1049805-0.0332031
					c-0.1381836-0.0009766-0.2490234-0.1142578-0.2475586-0.2529297c0.0014648-0.1376953,0.1323242-0.2666016,0.2524414-0.2470703
					l3.1049805,0.0332031c0.1381836,0.0009766,0.2490234,0.1142578,0.2475586,0.2529297
					C45.1432343,15.1766024,45.0314178,15.2869539,44.8946991,15.2869539z" class="color181e1e svgShape"></path></g><g fill="#14c5af" class="color000000 svgShape"><path fill="#ff9a3a" d="M26.4447422,28.4475937L6.6127839,40.6328087
							c-0.437324,0.2687035-1.0092859,0.1273575-1.2780137-0.3098755c-0.2687273-0.437233-0.1364722-1.0113182,0.3008518-1.2800179
							l19.8319569-12.1852188L26.4447422,28.4475937z" class="colorffb63c svgShape"></path><path fill="#ff2020" d="M28.7615547,29.0862617c-1.2676315,0.7788658-2.9276619,0.3826237-3.7065983-0.8847485
							c-0.7789631-1.267416-0.3782101-2.9200859,0.8894215-3.6989517c1.2676315-0.7788639,2.9233036-0.3897133,3.7022667,0.8777008
							C30.425581,26.6476345,30.0291862,28.3073978,28.7615547,29.0862617z" class="colorff4c2b svgShape"></path><path fill="#ff9a3a" d="M18.9180889,23.0016804l-5.853838,22.5261059
							c-0.1290855,0.4967346-0.6393852,0.7910271-1.1361094,0.6618729s-0.7991934-0.6347809-0.6701078-1.1315155
							l5.8538399-22.526104L18.9180889,23.0016804z" class="colorffb63c svgShape"></path><path fill="#ff2020" d="M21.0309563,21.8572884c-0.3741684,1.4398403-1.8455372,2.3040733-3.2853489,1.9297028
							c-1.4398575-0.374382-2.296176-1.8438454-1.9220085-3.2836857c0.3741665-1.4398384,1.8374805-2.3061657,3.2773399-1.9317837
							C20.5407505,18.9458923,21.4051228,20.41745,21.0309563,21.8572884z" class="colorff4c2b svgShape"></path><g fill="#14c5af" class="color000000 svgShape"><polygon fill="#592d72" points="16.483 32.383 16.289 34.684 15.808 34.981" class="color181e1e svgShape"></polygon></g><g fill="#14c5af" class="color000000 svgShape"><polygon fill="#592d72" points="14.192 33.784 13.567 36.362 12.954 36.741" class="color181e1e svgShape"></polygon></g></g><g fill="#14c5af" class="color000000 svgShape"><path fill="#ffffff" d="M16.496748,20.8699608c-0.1195107-0.5382137,0.2000027-0.9799881,0.5200195-1.3740234
				c0.0810547-0.0986328,0.1791992-0.21875,0.3300781-0.2919922c0.1254883-0.0605469,0.2744141-0.0087891,0.3344727,0.1152344
				s0.0083008,0.2744141-0.1157227,0.3339844c-0.1059208,0.0514755-0.6736736,0.6892033-0.5805664,1.1074219
				c0.0297852,0.1347656-0.0551758,0.2685547-0.1899414,0.2988281C16.658247,21.0890007,16.5263329,21.0028172,16.496748,20.8699608
				z" class="colorffffff svgShape"></path></g><g fill="#14c5af" class="color000000 svgShape"><path fill="#ffffff" d="M28.883955,27.7371483c-0.2267532,0-0.3389874-0.2823009-0.1669922-0.4355469
				c0.3594589-0.328867,0.4312534-0.2316608,0.362793-0.7050781l-0.0175781-0.1337891
				c-0.0151367-0.1376953,0.0839844-0.2607422,0.2211914-0.2753906c0.1352539-0.0292969,0.2602539,0.0830078,0.2758789,0.2207031
				l0.015625,0.1171875c0.0322266,0.2246094,0.0761719,0.5322266-0.1240234,0.7880859
				c-0.1268368,0.1627617-0.2809906,0.2526608-0.3999023,0.359375
				C29.0035839,27.7156639,28.9435253,27.7371483,28.883955,27.7371483z" class="colorffffff svgShape"></path></g></g></svg>