<svg xmlns="http://www.w3.org/2000/svg" viewBox="0 0 49 49" id="Yarn"><g fill="#ff2020" class="color000000 svgShape"><circle cx="24.5" cy="26.9" r="17.8" fill="#14c5af" class="color92d3ff svgShape"></circle><g fill="#ff2020" class="color000000 svgShape"><g fill="#ff2020" class="color000000 svgShape"><g fill="#ff2020" class="color000000 svgShape"><path fill="#fdff3d" d="M7.1 5.2c10 10.4 41.8 42.9 41.4 43.3S15.6 17.1 5.2 7l1.9-1.8z" class="colorffcc66 svgShape"></path><circle cx="4.7" cy="4.7" r="4.2" fill="#ff9a3a" transform="rotate(-44.919 4.728 4.687)" class="colored7161 svgShape"></circle></g></g></g><g fill="#ff2020" class="color000000 svgShape"><g fill="#ff2020" class="color000000 svgShape"><g fill="#ff2020" class="color000000 svgShape"><path fill="#fdff3d" d="M41.9 5.2C31.9 15.6.1 48.1.5 48.5S33.4 17.1 43.8 7l-1.9-1.8z" class="colorffcc66 svgShape"></path><circle cx="44.3" cy="4.7" r="4.2" fill="#1483c5" transform="rotate(-45.082 44.27 4.688)" class="color88c057 svgShape"></circle></g></g></g><g fill="#ff2020" class="color000000 svgShape"><path fill="#592d72" d="M20.1 9.6c.2-.1.5-.1.7-.2-.9 21.7 11 29.2 15.2 31.1-.6.5-1.2.9-1.9 1.4-15.3-8.1-14.7-26.4-14-32.3z" class="color666666 svgShape"></path><path fill="#592d72" d="M18.5 10.1c.2-.1.5-.2.7-.3-5.7 21.6 4.3 31.6 8.3 34.6-.9.2-1.9.3-2.9.3-13.2-11.8-7.4-31-6.1-34.6z" class="color666666 svgShape"></path><path fill="#592d72" d="M32.9 11.1c1 .5 2 1.2 2.9 1.9-4.2 0-18.6 1.4-27 22.2-.2-.3-.3-.6-.4-.9 1.8-5.7 8.5-21.4 24.5-23.2z" class="color666666 svgShape"></path><path fill="#592d72" d="m21.5 22.8-.6-.2c2.7-3.4 8.4-9 16.3-8.2.4.5.9.9 1.3 1.5-3.1-.6-10-.8-17 6.9z" class="color666666 svgShape"></path><path fill="#592d72" d="M40.2 28.9c-18.3-9.9-29.9-3-33.4-.3-.1-.6-.1-1.2-.1-1.7v-.7c14.8-10 31.5.3 35.5 3.1-.1.4-.1.8-.2 1.2-18.9-7.6-29.8-.9-34.1 3-.3-.7-.5-1.4-.7-2.1 11.8-10.1 27-5.1 33-2.5z" class="color666666 svgShape"></path></g></g></svg>