<svg xmlns="http://www.w3.org/2000/svg" viewBox="0 0 64 64" id="Zipper"><g fill="#ff2020" class="color000000 svgShape"><path fill="#592d72" d="M36.69,19.15a.9951.9951,0,0,1-.3925-.0811l-2.69-1.15a1,1,0,1,1,.7852-1.8388l2.69,1.15a1,1,0,0,1-.3926,1.92Zm2.6787-4.8457a1,1,0,0,0-.5244-1.3135l-2.6806-1.15a1,1,0,0,0-.7891,1.8379l2.6807,1.15a.9987.9987,0,0,0,1.3134-.5244Zm1.77-4.24a1,1,0,0,0-.5244-1.3135l-2.68-1.15a1,1,0,1,0-.7891,1.8379l2.68,1.15a.9989.9989,0,0,0,1.3135-.5244ZM42.91,5.813a1.0005,1.0005,0,0,0-.5274-1.3125l-2.69-1.15A1,1,0,1,0,38.9072,5.19l2.6905,1.15A.9983.9983,0,0,0,42.91,5.813ZM27.7021,19.0693l2.6905-1.15a1,1,0,1,0-.7852-1.8388l-2.69,1.15a1,1,0,1,0,.7851,1.8388Zm-1.7578-4.24,2.6807-1.15a1,1,0,1,0-.7891-1.8379l-2.6806,1.15a1,1,0,1,0,.789,1.8379Zm-1.7695-4.24,2.68-1.15a1,1,0,1,0-.7891-1.8379l-2.68,1.15a1,1,0,1,0,.7891,1.8379ZM22.4023,6.3394l2.6905-1.15a1,1,0,1,0-.7852-1.8389l-2.69,1.15a1,1,0,1,0,.7851,1.8389Z" class="color616161 svgShape"></path><polygon fill="#14c5af" points="43 3 33 27 31 27 21 3 3 3 13 27 13 61 51 61 51 27 61 3 43 3" class="colorffb74d svgShape"></polygon><path fill="#ff9a3a" d="M61,3,51,27V61H13V58H42a4,4,0,0,0,4-4V27L56,3Z" class="colorffa726 svgShape"></path><path fill="#1483c5" d="M41.9171,3l-9.84,23.6152A.9974.9974,0,0,0,32,27.0034v.0027a1,1,0,0,0,1.9229.3787L44.0834,3Z" class="color757575 svgShape"></path><path fill="#1483c5" d="M32,27.0034a.9974.9974,0,0,0-.0771-.3882L22.0829,3H19.9166L30.0771,27.3848A1,1,0,0,0,32,27.0061Z" class="color757575 svgShape"></path><path fill="#9e9e9e" d="M44,34.09h0a4.3489,4.3489,0,0,1-.3646,1.7432L37,51H27L20.3646,35.8335A4.3489,4.3489,0,0,1,20,34.09h0a4.3494,4.3494,0,0,1,1.6322-3.3961l6.8061-5.4448A5.7011,5.7011,0,0,1,32,24h0a5.7011,5.7011,0,0,1,3.5617,1.2494l6.8061,5.4448A4.3494,4.3494,0,0,1,44,34.09Z" class="color9e9e9e svgShape"></path><path fill="#1483c5" d="M44,34.09a4.3388,4.3388,0,0,1-.36,1.74L38.31,48,37,51H27l-1.31-3h6.4446a4,4,0,0,0,3.6643-2.3959L39.64,36.83a4.3682,4.3682,0,0,0-1.27-5.14L32,26.6V24a5.6977,5.6977,0,0,1,3.56,1.25l6.81,5.44A4.3686,4.3686,0,0,1,44,34.09Z" class="color757575 svgShape"></path><path fill="#eeeeee" d="M38,39a6,6,0,0,0-12,0c0,6-3,8-3,13a9,9,0,0,0,18,0C41,47,38,45,38,39ZM32,56a4,4,0,1,1,4-4A4,4,0,0,1,32,56Z" class="coloreeeeee svgShape"></path><path fill="#fdff3d" d="M38,39a6.0048,6.0048,0,0,0-6-6,5.8028,5.8028,0,0,0-2,.35A5.981,5.981,0,0,1,34,39c0,6,3,8,3,13a9.0079,9.0079,0,0,1-7,8.78A9.3562,9.3562,0,0,0,32,61a9.0007,9.0007,0,0,0,9-9C41,47,38,45,38,39Z" class="colore0e0e0 svgShape"></path><path fill="#fdff3d" d="M34,24.3719a5.5637,5.5637,0,0,0-4,0V37a2,2,0,0,0,2,2h0a2,2,0,0,0,2-2Z" class="colore0e0e0 svgShape"></path><path fill="#bdbdbd" d="M34,24.37V37a2.0146,2.0146,0,0,1-2,2,1.9947,1.9947,0,0,1-1-.27,1.813,1.813,0,0,0,.41-.32A1.9553,1.9553,0,0,0,32,37V24A5.6723,5.6723,0,0,1,34,24.37Z" class="colorbdbdbd svgShape"></path></g></svg>